<svg width="423" height="423" viewBox="0 0 423 423" fill="none" xmlns="http://www.w3.org/2000/svg">
<path d="M212.468 421.76C212.458 421.069 213.013 420.504 213.704 420.499C214.394 420.489 214.959 421.044 214.969 421.734C214.974 422.425 214.419 422.99 213.729 423H213.719C213.033 423 212.473 422.45 212.468 421.76ZM205.68 422.93C204.99 422.915 204.449 422.34 204.464 421.649C204.484 420.959 205.06 420.414 205.75 420.434C206.44 420.449 206.986 421.024 206.966 421.715C206.946 422.395 206.39 422.93 205.715 422.93H205.68ZM220.467 421.574C220.437 420.884 220.967 420.299 221.657 420.264C222.348 420.234 222.933 420.764 222.968 421.454C222.998 422.145 222.468 422.73 221.777 422.765H221.712C221.052 422.765 220.497 422.245 220.467 421.574ZM197.641 422.565C196.956 422.52 196.431 421.925 196.476 421.234C196.521 420.544 197.116 420.024 197.806 420.069C198.492 420.114 199.017 420.709 198.972 421.399C198.927 422.06 198.382 422.565 197.726 422.565H197.641ZM228.455 421.089C228.395 420.399 228.906 419.794 229.591 419.734C230.281 419.679 230.887 420.189 230.947 420.874C231.002 421.564 230.496 422.17 229.806 422.225C229.771 422.225 229.736 422.225 229.696 422.225C229.056 422.225 228.51 421.734 228.455 421.084V421.089ZM189.623 421.895C188.937 421.825 188.437 421.209 188.507 420.524C188.577 419.834 189.192 419.334 189.878 419.404C190.563 419.474 191.068 420.089 190.993 420.779C190.928 421.419 190.388 421.9 189.753 421.9C189.708 421.9 189.668 421.9 189.623 421.895ZM236.414 420.299C236.329 419.614 236.819 418.988 237.5 418.908C238.185 418.823 238.81 419.309 238.895 419.994C238.98 420.679 238.495 421.304 237.81 421.389C237.76 421.389 237.705 421.399 237.655 421.399C237.034 421.399 236.494 420.934 236.414 420.299ZM181.634 420.919C180.949 420.824 180.473 420.189 180.568 419.509C180.668 418.823 181.299 418.348 181.984 418.443C182.669 418.538 183.145 419.173 183.05 419.854C182.96 420.479 182.424 420.934 181.809 420.934C181.754 420.934 181.694 420.934 181.634 420.919ZM244.343 419.213C244.228 418.528 244.693 417.888 245.373 417.778C246.054 417.663 246.699 418.128 246.809 418.808C246.919 419.489 246.459 420.134 245.778 420.244C245.708 420.254 245.643 420.259 245.573 420.259C244.973 420.259 244.443 419.824 244.343 419.213ZM173.685 419.644C173.01 419.519 172.555 418.868 172.68 418.188C172.8 417.508 173.45 417.058 174.13 417.183C174.811 417.303 175.261 417.953 175.141 418.633C175.031 419.238 174.506 419.664 173.91 419.664C173.835 419.664 173.76 419.654 173.685 419.644ZM252.221 417.818C252.081 417.143 252.522 416.482 253.197 416.347C253.872 416.207 254.532 416.647 254.673 417.323C254.808 418.003 254.372 418.658 253.692 418.798C253.612 418.813 253.527 418.823 253.447 418.823C252.862 418.823 252.341 418.413 252.221 417.818ZM165.797 418.063C165.121 417.913 164.696 417.248 164.841 416.572C164.991 415.897 165.657 415.472 166.332 415.622C167.007 415.767 167.432 416.437 167.287 417.108C167.157 417.693 166.642 418.093 166.067 418.093C165.977 418.093 165.887 418.083 165.797 418.063ZM260.04 416.127C259.875 415.457 260.29 414.782 260.96 414.622C261.631 414.457 262.306 414.867 262.471 415.542C262.636 416.212 262.221 416.888 261.551 417.048C261.451 417.073 261.351 417.088 261.256 417.088C260.69 417.088 260.18 416.702 260.04 416.127ZM157.968 416.182C157.303 416.007 156.903 415.322 157.073 414.657C157.248 413.986 157.933 413.586 158.598 413.761C159.269 413.936 159.669 414.617 159.494 415.287C159.349 415.847 158.843 416.222 158.288 416.222C158.183 416.222 158.073 416.207 157.968 416.182ZM267.789 414.141C267.604 413.476 267.989 412.786 268.654 412.596C269.314 412.406 270.01 412.791 270.195 413.456C270.385 414.121 270 414.812 269.334 415.002C269.219 415.032 269.104 415.052 268.989 415.052C268.449 415.052 267.949 414.692 267.789 414.141ZM150.219 414.001C149.559 413.801 149.184 413.106 149.384 412.441C149.584 411.78 150.284 411.405 150.945 411.61C151.605 411.805 151.98 412.506 151.78 413.166C151.615 413.706 151.12 414.056 150.585 414.056C150.465 414.056 150.34 414.036 150.219 414.001ZM275.457 411.855C275.242 411.2 275.602 410.495 276.262 410.28H276.257C276.918 410.065 277.623 410.425 277.838 411.08C278.048 411.735 277.693 412.441 277.033 412.656C276.908 412.696 276.773 412.716 276.648 412.716C276.122 412.716 275.632 412.381 275.457 411.855ZM142.536 411.52C141.881 411.295 141.535 410.58 141.761 409.93C141.986 409.274 142.696 408.929 143.346 409.154C144.002 409.379 144.347 410.09 144.122 410.745C143.947 411.26 143.461 411.585 142.941 411.585C142.806 411.585 142.666 411.565 142.531 411.52H142.536ZM283.031 409.279C282.795 408.629 283.126 407.909 283.776 407.674C284.421 407.434 285.142 407.764 285.382 408.414C285.617 409.059 285.287 409.78 284.641 410.02C284.496 410.07 284.351 410.095 284.206 410.095C283.696 410.095 283.221 409.785 283.031 409.279ZM134.957 408.744C134.317 408.494 133.997 407.769 134.247 407.123C134.497 406.478 135.223 406.163 135.863 406.413C136.508 406.663 136.828 407.384 136.578 408.029C136.388 408.524 135.913 408.829 135.413 408.829C135.263 408.829 135.107 408.799 134.957 408.744ZM290.504 406.413C290.239 405.773 290.544 405.043 291.184 404.777C291.82 404.517 292.55 404.818 292.815 405.458C293.08 406.093 292.775 406.828 292.135 407.088C291.98 407.154 291.82 407.184 291.66 407.184C291.169 407.184 290.704 406.893 290.504 406.413ZM127.494 405.678C126.864 405.403 126.569 404.667 126.844 404.032C127.119 403.402 127.854 403.112 128.489 403.382C129.125 403.657 129.415 404.392 129.14 405.028C128.935 405.498 128.474 405.783 127.989 405.783C127.824 405.783 127.659 405.748 127.494 405.678ZM297.837 403.272C297.552 402.642 297.827 401.901 298.458 401.611C299.083 401.326 299.828 401.601 300.113 402.226C300.399 402.857 300.123 403.597 299.498 403.887C299.328 403.962 299.153 404.002 298.978 404.002C298.503 404.002 298.048 403.732 297.837 403.272ZM120.156 402.331C119.535 402.031 119.27 401.286 119.57 400.661C119.87 400.041 120.616 399.78 121.241 400.076C121.861 400.376 122.122 401.121 121.826 401.746C121.611 402.191 121.161 402.457 120.696 402.457C120.516 402.457 120.331 402.417 120.156 402.331ZM305.051 399.85C304.741 399.235 304.986 398.48 305.606 398.17C306.221 397.86 306.972 398.105 307.287 398.725C307.597 399.34 307.352 400.091 306.731 400.401C306.551 400.496 306.361 400.536 306.171 400.536C305.711 400.536 305.271 400.286 305.051 399.85ZM112.952 398.71C112.342 398.385 112.107 397.63 112.432 397.019C112.752 396.409 113.508 396.174 114.123 396.494C114.733 396.819 114.968 397.574 114.643 398.185C114.418 398.61 113.983 398.85 113.538 398.85C113.337 398.85 113.137 398.805 112.952 398.71ZM312.134 396.159C311.799 395.554 312.014 394.793 312.619 394.458C313.224 394.123 313.985 394.343 314.32 394.943C314.655 395.549 314.435 396.309 313.835 396.644C313.64 396.749 313.435 396.799 313.229 396.799C312.789 396.799 312.359 396.569 312.134 396.159ZM105.894 394.813C105.299 394.468 105.094 393.703 105.439 393.103C105.784 392.502 106.549 392.302 107.145 392.647C107.745 392.993 107.95 393.758 107.605 394.353C107.375 394.753 106.955 394.978 106.519 394.978C106.309 394.978 106.094 394.923 105.894 394.813ZM319.067 392.197C318.712 391.602 318.902 390.837 319.492 390.477C320.083 390.121 320.853 390.311 321.208 390.902C321.568 391.492 321.378 392.262 320.788 392.617C320.583 392.743 320.363 392.798 320.138 392.798C319.717 392.798 319.302 392.582 319.067 392.197ZM98.9959 390.652C98.4106 390.281 98.2355 389.511 98.6007 388.926C98.9709 388.341 99.7412 388.166 100.326 388.536C100.912 388.901 101.087 389.671 100.717 390.256C100.482 390.637 100.076 390.842 99.6612 390.842C99.4311 390.842 99.201 390.782 98.9959 390.652ZM325.85 387.971C325.47 387.395 325.63 386.62 326.21 386.24C326.786 385.86 327.561 386.02 327.941 386.595C328.321 387.175 328.161 387.951 327.581 388.331C327.371 388.471 327.131 388.536 326.896 388.536C326.491 388.536 326.09 388.336 325.85 387.971ZM92.2578 386.23C91.6875 385.84 91.5424 385.064 91.9326 384.494C92.3228 383.924 93.0982 383.779 93.6684 384.164C94.2387 384.554 94.3837 385.334 93.9936 385.905C93.7534 386.26 93.3633 386.45 92.9631 386.45C92.718 386.45 92.4729 386.38 92.2578 386.23ZM332.468 383.494C332.068 382.928 332.198 382.148 332.763 381.748C333.324 381.348 334.104 381.478 334.504 382.038C334.909 382.603 334.779 383.384 334.214 383.784C333.994 383.939 333.739 384.019 333.489 384.019C333.099 384.019 332.713 383.834 332.468 383.494ZM85.6947 381.558C85.1395 381.148 85.0244 380.362 85.4346 379.812C85.8448 379.257 86.6302 379.137 87.1854 379.547C87.7407 379.962 87.8557 380.743 87.4455 381.298C87.2004 381.628 86.8203 381.803 86.4401 381.803C86.18 381.803 85.9198 381.723 85.6947 381.558ZM338.916 378.767C338.496 378.216 338.596 377.431 339.141 377.011C339.687 376.591 340.477 376.691 340.897 377.236C341.317 377.781 341.217 378.567 340.672 378.992C340.442 379.167 340.177 379.252 339.907 379.252C339.532 379.252 339.161 379.082 338.916 378.767ZM79.3168 376.641C78.7766 376.211 78.6915 375.425 79.1217 374.885C79.5519 374.345 80.3423 374.26 80.8775 374.69C81.4178 375.12 81.5078 375.911 81.0726 376.451C80.8275 376.756 80.4623 376.916 80.0972 376.916C79.822 376.916 79.5469 376.826 79.3168 376.641ZM345.179 373.795C344.739 373.264 344.809 372.474 345.339 372.034C345.87 371.589 346.66 371.664 347.1 372.194C347.545 372.724 347.475 373.51 346.94 373.955C346.71 374.15 346.425 374.245 346.14 374.245C345.784 374.245 345.429 374.09 345.179 373.795ZM73.129 371.489C72.6037 371.039 72.5487 370.248 72.9989 369.723C73.4541 369.203 74.2445 369.148 74.7647 369.598C75.285 370.048 75.345 370.838 74.8948 371.364C74.6447 371.649 74.2945 371.794 73.9443 371.794C73.6542 371.794 73.3641 371.694 73.129 371.489ZM351.252 368.593C350.792 368.077 350.832 367.287 351.347 366.827C351.857 366.362 352.648 366.402 353.113 366.917C353.573 367.432 353.533 368.222 353.018 368.683C352.783 368.898 352.483 369.003 352.182 369.003C351.842 369.003 351.502 368.868 351.252 368.593ZM67.1412 366.106C66.636 365.636 66.611 364.846 67.0812 364.341C67.5514 363.836 68.3418 363.811 68.847 364.281C69.3522 364.751 69.3822 365.541 68.907 366.046C68.6619 366.312 68.3317 366.442 67.9966 366.442C67.6915 366.442 67.3813 366.332 67.1412 366.106ZM357.13 363.16C356.644 362.665 356.659 361.875 357.155 361.39C357.65 360.909 358.44 360.919 358.921 361.415C359.401 361.91 359.391 362.705 358.896 363.185C358.65 363.42 358.34 363.54 358.025 363.54C357.7 363.54 357.375 363.41 357.13 363.16ZM61.3635 360.504C60.8783 360.014 60.8833 359.219 61.3736 358.733C61.8588 358.248 62.6541 358.248 63.1394 358.738C63.6246 359.229 63.6246 360.024 63.1394 360.509C62.8943 360.749 62.5741 360.874 62.259 360.874C61.9338 360.874 61.6137 360.749 61.3685 360.504H61.3635ZM362.792 357.508C362.292 357.033 362.272 356.242 362.752 355.742C363.227 355.242 364.018 355.222 364.518 355.697C365.018 356.177 365.038 356.968 364.558 357.468C364.313 357.723 363.983 357.853 363.658 357.853C363.343 357.853 363.032 357.738 362.792 357.508ZM55.806 354.687C55.3358 354.177 55.3708 353.386 55.876 352.921C56.3863 352.451 57.1766 352.486 57.6468 352.991C58.112 353.501 58.077 354.292 57.5718 354.757C57.3317 354.982 57.0266 355.087 56.7264 355.087C56.3863 355.087 56.0511 354.952 55.806 354.687ZM368.24 351.646C367.725 351.19 367.675 350.4 368.13 349.88C368.59 349.365 369.38 349.315 369.896 349.775C370.416 350.23 370.461 351.02 370.006 351.535C369.76 351.821 369.415 351.961 369.07 351.961C368.775 351.961 368.48 351.856 368.24 351.646ZM50.4685 348.664C50.0233 348.139 50.0834 347.349 50.6086 346.904C51.1338 346.453 51.9242 346.513 52.3744 347.039C52.8196 347.569 52.7596 348.354 52.2343 348.804C51.9992 349.004 51.7091 349.104 51.424 349.104C51.0688 349.104 50.7186 348.954 50.4685 348.664ZM373.462 345.583C372.927 345.143 372.852 344.357 373.287 343.822C373.727 343.287 374.513 343.207 375.048 343.647C375.583 344.082 375.658 344.873 375.223 345.408C374.978 345.708 374.618 345.863 374.253 345.863C373.977 345.863 373.697 345.773 373.462 345.583ZM45.3662 342.447C44.941 341.901 45.031 341.116 45.5713 340.691C46.1165 340.261 46.9019 340.356 47.3321 340.896C47.7573 341.436 47.6672 342.227 47.122 342.652C46.8919 342.832 46.6218 342.922 46.3466 342.922C45.9815 342.922 45.6113 342.757 45.3662 342.447ZM378.454 339.32C377.904 338.905 377.794 338.12 378.214 337.57C378.63 337.019 379.415 336.909 379.965 337.33C380.515 337.745 380.625 338.53 380.205 339.08C379.96 339.405 379.585 339.576 379.21 339.576C378.945 339.576 378.68 339.495 378.454 339.32ZM40.5039 336.039C40.0988 335.484 40.2188 334.698 40.7791 334.293C41.3343 333.888 42.1197 334.008 42.5249 334.568C42.9301 335.124 42.81 335.909 42.2497 336.314C42.0296 336.474 41.7695 336.554 41.5144 336.554C41.1292 336.554 40.7491 336.374 40.5039 336.039ZM383.207 332.878C382.636 332.483 382.501 331.702 382.897 331.132C383.292 330.567 384.072 330.432 384.637 330.827C385.203 331.222 385.343 332.002 384.947 332.568C384.702 332.918 384.317 333.103 383.922 333.103C383.672 333.103 383.422 333.028 383.207 332.878ZM35.8918 329.456C35.5016 328.886 35.6567 328.106 36.227 327.721C36.8022 327.335 37.5776 327.486 37.9628 328.061C38.348 328.631 38.1979 329.411 37.6276 329.796C37.4125 329.942 37.1674 330.007 36.9273 330.007C36.5271 330.007 36.1319 329.816 35.8918 329.456ZM387.709 326.255C387.129 325.88 386.958 325.105 387.334 324.524C387.709 323.944 388.484 323.774 389.064 324.149C389.645 324.524 389.81 325.3 389.44 325.88H389.435C389.199 326.25 388.794 326.45 388.384 326.45C388.154 326.45 387.919 326.39 387.709 326.255ZM31.5298 322.704C31.1646 322.118 31.3447 321.348 31.935 320.983C32.5203 320.618 33.2906 320.803 33.6558 321.388C34.021 321.973 33.8359 322.744 33.2506 323.109C33.0455 323.239 32.8154 323.299 32.5903 323.299C32.1751 323.299 31.7649 323.089 31.5298 322.704ZM391.956 319.462C391.365 319.112 391.165 318.342 391.521 317.751C391.871 317.156 392.636 316.956 393.231 317.306C393.827 317.661 394.022 318.427 393.672 319.022C393.436 319.417 393.021 319.637 392.591 319.637C392.376 319.637 392.156 319.582 391.956 319.462ZM27.4279 315.796C27.0878 315.195 27.2979 314.43 27.8981 314.09C28.4984 313.75 29.2638 313.96 29.6039 314.56C29.9441 315.16 29.734 315.926 29.1337 316.266C28.9386 316.376 28.7285 316.426 28.5184 316.426C28.0832 316.426 27.658 316.201 27.4279 315.796ZM395.948 312.509C395.337 312.184 395.112 311.424 395.442 310.819C395.767 310.208 396.528 309.983 397.138 310.313C397.743 310.639 397.968 311.399 397.643 312.009C397.413 312.424 396.983 312.664 396.543 312.664C396.338 312.664 396.138 312.614 395.948 312.509ZM23.5962 308.733C23.276 308.123 23.5161 307.367 24.1314 307.047C24.7417 306.732 25.497 306.967 25.8172 307.582C26.1323 308.198 25.8922 308.953 25.2819 309.268C25.0969 309.363 24.9018 309.408 24.7067 309.408C24.2565 309.408 23.8163 309.163 23.5962 308.733ZM399.669 305.411C399.049 305.106 398.794 304.356 399.099 303.736C399.404 303.12 400.155 302.865 400.775 303.17C401.39 303.476 401.645 304.226 401.34 304.846C401.125 305.286 400.68 305.541 400.22 305.541C400.034 305.541 399.844 305.501 399.669 305.411ZM20.0345 301.535C19.7394 300.91 20.0095 300.164 20.6348 299.869C21.2551 299.579 22.0004 299.844 22.2956 300.469C22.5907 301.095 22.3256 301.84 21.7003 302.135C21.5252 302.215 21.3451 302.255 21.165 302.255C20.6998 302.255 20.2496 301.99 20.0345 301.535ZM403.116 298.173C402.486 297.893 402.2 297.153 402.481 296.523C402.766 295.892 403.506 295.607 404.136 295.892C404.767 296.173 405.047 296.913 404.767 297.543C404.562 298.008 404.101 298.283 403.621 298.283C403.451 298.283 403.281 298.248 403.116 298.173ZM16.753 294.212C16.4829 293.571 16.778 292.841 17.4133 292.571C18.0486 292.301 18.7839 292.596 19.0541 293.231C19.3242 293.867 19.0291 294.602 18.3938 294.872C18.2337 294.937 18.0686 294.972 17.9035 294.972C17.4183 294.972 16.9531 294.687 16.753 294.212ZM406.282 290.805C405.642 290.55 405.332 289.825 405.587 289.18C405.847 288.539 406.572 288.229 407.213 288.484C407.853 288.744 408.168 289.47 407.913 290.11C407.713 290.6 407.243 290.895 406.748 290.895C406.592 290.895 406.437 290.87 406.282 290.805ZM13.7516 286.764C13.5065 286.118 13.8317 285.398 14.477 285.153C15.1223 284.908 15.8426 285.228 16.0877 285.873C16.3378 286.519 16.0127 287.244 15.3674 287.489C15.2223 287.544 15.0672 287.569 14.9222 287.569C14.4169 287.569 13.9417 287.264 13.7516 286.764ZM409.169 283.322C408.518 283.092 408.178 282.377 408.413 281.727C408.643 281.071 409.359 280.736 410.009 280.966C410.659 281.196 411 281.912 410.764 282.562C410.584 283.077 410.104 283.397 409.589 283.397C409.449 283.397 409.309 283.372 409.169 283.322ZM11.0354 279.191C10.8103 278.535 11.1654 277.825 11.8157 277.605C12.471 277.385 13.1814 277.735 13.4015 278.39C13.6216 279.045 13.2714 279.756 12.6161 279.976C12.486 280.021 12.351 280.041 12.2159 280.041C11.6957 280.041 11.2105 279.711 11.0354 279.191ZM411.765 275.729C411.105 275.524 410.739 274.819 410.944 274.158C411.155 273.503 411.855 273.138 412.515 273.343C413.17 273.548 413.541 274.249 413.331 274.909C413.165 275.444 412.67 275.784 412.14 275.784C412.015 275.784 411.89 275.769 411.765 275.729ZM8.60426 271.517C8.40917 270.852 8.78934 270.157 9.44965 269.962C10.11 269.767 10.8103 270.147 11.0054 270.807C11.2005 271.472 10.8203 272.168 10.16 272.363C10.0399 272.398 9.91987 272.413 9.80481 272.413C9.26456 272.413 8.76433 272.063 8.60426 271.517ZM414.061 268.066C413.391 267.881 413 267.196 413.18 266.53C413.361 265.865 414.051 265.47 414.716 265.65C415.382 265.83 415.777 266.52 415.592 267.186C415.437 267.741 414.931 268.106 414.386 268.106C414.276 268.106 414.166 268.096 414.056 268.066H414.061ZM6.47328 263.754C6.3032 263.084 6.70839 262.404 7.3787 262.233C8.049 262.063 8.72932 262.469 8.8994 263.139C9.06947 263.809 8.66429 264.489 7.99398 264.66C7.88893 264.685 7.78888 264.7 7.68384 264.7C7.12858 264.7 6.61835 264.319 6.47328 263.754ZM416.057 260.318C415.386 260.163 414.966 259.487 415.121 258.817C415.276 258.142 415.947 257.727 416.622 257.882C417.297 258.037 417.713 258.707 417.557 259.382C417.422 259.958 416.912 260.348 416.342 260.348C416.247 260.348 416.152 260.338 416.057 260.318ZM4.64244 255.916C4.49737 255.241 4.92757 254.575 5.60288 254.435C6.27819 254.29 6.9435 254.72 7.08856 255.396C7.23363 256.071 6.79843 256.736 6.12812 256.881C6.03808 256.896 5.94804 256.906 5.863 256.906C5.28773 256.906 4.76749 256.506 4.64244 255.916ZM417.758 252.499C417.082 252.369 416.637 251.714 416.767 251.034C416.897 250.359 417.552 249.913 418.228 250.043C418.908 250.174 419.353 250.829 419.223 251.504C419.108 252.104 418.583 252.519 417.998 252.519C417.918 252.519 417.838 252.52 417.758 252.499ZM3.11173 248.018C2.99168 247.337 3.44689 246.687 4.1272 246.572C4.80751 246.452 5.45281 246.907 5.57287 247.587C5.69292 248.268 5.23771 248.918 4.5574 249.033C4.48236 249.048 4.41233 249.053 4.3423 249.053C3.74202 249.053 3.21678 248.623 3.11173 248.018ZM419.158 244.621C418.478 244.516 418.008 243.881 418.113 243.196C418.218 242.515 418.853 242.045 419.538 242.15C420.219 242.255 420.689 242.891 420.584 243.576C420.489 244.191 419.959 244.636 419.348 244.636C419.288 244.636 419.223 244.631 419.158 244.621ZM1.88117 240.064C1.79112 239.379 2.27135 238.749 2.95166 238.654C3.63697 238.564 4.26726 239.044 4.36231 239.729C4.45235 240.414 3.97213 241.04 3.28681 241.135C3.23179 241.145 3.17676 241.145 3.12174 241.145C2.50145 241.145 1.9662 240.69 1.88117 240.064ZM420.259 236.698C419.573 236.618 419.083 235.998 419.158 235.312C419.238 234.627 419.854 234.137 420.539 234.212C421.229 234.292 421.719 234.907 421.644 235.597C421.569 236.233 421.029 236.708 420.404 236.708C420.354 236.708 420.309 236.703 420.259 236.698ZM0.955739 232.071C0.89071 231.381 1.39594 230.77 2.08126 230.705C2.77158 230.635 3.38186 231.141 3.44689 231.831C3.51192 232.516 3.01169 233.126 2.32137 233.191C2.28135 233.196 2.24133 233.201 2.20131 233.201C1.56102 233.201 1.02077 232.716 0.955739 232.071ZM421.059 228.735C420.369 228.685 419.854 228.084 419.904 227.394C419.954 226.709 420.559 226.194 421.244 226.244C421.935 226.294 422.45 226.894 422.4 227.584C422.35 228.239 421.799 228.74 421.154 228.74C421.119 228.74 421.089 228.74 421.059 228.74V228.735ZM0.335454 224.048C0.295436 223.357 0.820677 222.762 1.511 222.722C2.20131 222.682 2.79158 223.212 2.8316 223.898C2.87162 224.588 2.34638 225.183 1.65606 225.223H1.58103C0.925726 225.223 0.375472 224.708 0.335454 224.048ZM421.554 220.751C420.864 220.726 420.324 220.146 420.349 219.456C420.379 218.766 420.959 218.225 421.649 218.255C422.34 218.28 422.875 218.861 422.85 219.551C422.825 220.221 422.27 220.751 421.604 220.751H421.554ZM0.0153067 216.004C0.0002998 215.314 0.550553 214.739 1.24087 214.729C1.93119 214.714 2.50145 215.259 2.51646 215.949C2.53147 216.64 1.98121 217.215 1.29089 217.23H1.26588C0.585569 217.23 0.0303136 216.685 0.0153067 216.004ZM420.499 211.503C420.499 211.332 420.534 211.172 420.594 211.022C420.534 210.877 420.499 210.712 420.499 210.542C420.494 209.852 421.054 209.292 421.744 209.287C422.435 209.287 422.995 209.842 423 210.532C423 210.702 422.965 210.867 422.905 211.017C422.965 211.167 423 211.332 423 211.503C423 212.193 422.44 212.753 421.749 212.753C421.059 212.753 420.499 212.193 420.499 211.503ZM1.23087 209.227C0.535546 209.217 -0.0147071 208.646 0.0002998 207.956C0.0103044 207.266 0.580567 206.716 1.27088 206.726C1.9612 206.736 2.51146 207.306 2.50145 207.996C2.48644 208.681 1.93119 209.227 1.25088 209.227H1.23087ZM420.314 202.594C420.284 201.904 420.819 201.323 421.509 201.293C422.2 201.263 422.785 201.798 422.81 202.489C422.84 203.179 422.305 203.764 421.614 203.794H421.559C420.894 203.794 420.339 203.269 420.314 202.594ZM1.46097 201.228C0.775657 201.193 0.245413 200.603 0.280429 199.913C0.320447 199.222 0.905717 198.692 1.59603 198.732C2.28635 198.767 2.8166 199.357 2.78158 200.048C2.74156 200.713 2.19131 201.233 1.531 201.233C1.531 201.233 1.48598 201.228 1.46097 201.228ZM419.829 194.656C419.774 193.965 420.289 193.365 420.979 193.31C421.664 193.255 422.27 193.765 422.325 194.455C422.38 195.146 421.865 195.746 421.174 195.801C421.144 195.806 421.109 195.806 421.074 195.806C420.429 195.806 419.884 195.311 419.829 194.656ZM1.99622 193.245C1.3109 193.185 0.80567 192.575 0.865698 191.884C0.930728 191.199 1.54101 190.694 2.22632 190.754C2.91664 190.819 3.42187 191.429 3.35684 192.114C3.29682 192.765 2.75157 193.25 2.11627 193.25C2.07626 193.25 2.03624 193.25 1.99622 193.245ZM419.048 186.742C418.968 186.057 419.458 185.437 420.144 185.352C420.829 185.272 421.449 185.762 421.534 186.447C421.614 187.132 421.124 187.758 420.434 187.838C420.389 187.843 420.339 187.848 420.289 187.848C419.663 187.848 419.123 187.378 419.048 186.742ZM2.83661 185.292C2.15129 185.202 1.66607 184.571 1.75611 183.886C1.84615 183.201 2.47144 182.721 3.15675 182.811C3.84207 182.901 4.32729 183.526 4.23725 184.211C4.15221 184.841 3.61696 185.302 2.99668 185.302C2.94666 185.302 2.89163 185.297 2.83661 185.292ZM417.968 178.864C417.858 178.179 418.323 177.538 419.008 177.433C419.688 177.328 420.329 177.794 420.439 178.474C420.549 179.159 420.084 179.799 419.398 179.904C419.333 179.914 419.268 179.919 419.203 179.919C418.598 179.919 418.068 179.479 417.973 178.864H417.968ZM3.97213 177.368C3.29182 177.253 2.8316 176.608 2.94666 175.928C3.06671 175.248 3.71201 174.787 4.39232 174.907C5.07263 175.017 5.53285 175.668 5.41279 176.348C5.31274 176.958 4.7825 177.388 4.18222 177.388C4.11219 177.388 4.04216 177.388 3.97213 177.368ZM416.582 171.031C416.452 170.355 416.892 169.695 417.573 169.565C418.248 169.43 418.903 169.87 419.038 170.551C419.173 171.226 418.728 171.886 418.053 172.016C417.973 172.031 417.888 172.041 417.808 172.041C417.222 172.041 416.702 171.626 416.582 171.031ZM5.41279 169.5C4.73748 169.36 4.30228 168.695 4.44234 168.02C4.58741 167.344 5.24771 166.909 5.92303 167.054C6.59834 167.194 7.03354 167.854 6.89347 168.535C6.76841 169.12 6.24818 169.525 5.66791 169.525C5.58287 169.525 5.49783 169.52 5.41279 169.5ZM414.901 163.258C414.746 162.587 415.161 161.912 415.832 161.752C416.507 161.592 417.177 162.012 417.337 162.682C417.497 163.353 417.077 164.028 416.407 164.188C416.312 164.208 416.217 164.223 416.122 164.223C415.552 164.223 415.041 163.833 414.901 163.258ZM7.15359 161.692C6.48328 161.522 6.07309 160.847 6.24317 160.176C6.40825 159.506 7.08856 159.096 7.75887 159.266C8.42918 159.431 8.83437 160.111 8.66929 160.782C8.52422 161.347 8.01399 161.727 7.45373 161.727C7.35368 161.727 7.25364 161.717 7.15359 161.692ZM412.925 155.554C412.74 154.889 413.13 154.199 413.796 154.019C414.461 153.829 415.151 154.224 415.336 154.889C415.522 155.554 415.131 156.245 414.466 156.425C414.356 156.46 414.241 156.47 414.131 156.47C413.586 156.47 413.08 156.11 412.925 155.554ZM9.18953 153.954C8.52422 153.764 8.14405 153.068 8.33914 152.403C8.52923 151.743 9.22455 151.358 9.88485 151.553C10.5502 151.743 10.9303 152.438 10.7402 153.103C10.5802 153.649 10.0799 154.004 9.53969 154.004C9.42464 154.004 9.30458 153.989 9.18953 153.954ZM410.654 147.936C410.449 147.276 410.809 146.571 411.47 146.361C412.125 146.15 412.83 146.516 413.04 147.176C413.251 147.831 412.885 148.536 412.23 148.747C412.1 148.787 411.975 148.807 411.845 148.807C411.32 148.807 410.824 148.466 410.654 147.936ZM11.5206 146.301C10.8653 146.08 10.5101 145.375 10.7302 144.72C10.9503 144.065 11.6557 143.709 12.311 143.93C12.9663 144.145 13.3214 144.855 13.1063 145.51C12.9313 146.035 12.441 146.366 11.9158 146.366C11.7857 146.366 11.6557 146.346 11.5206 146.301ZM408.093 140.403C407.858 139.753 408.198 139.038 408.843 138.802C409.494 138.567 410.214 138.902 410.449 139.553C410.679 140.203 410.344 140.918 409.699 141.153C409.554 141.203 409.414 141.228 409.269 141.228C408.758 141.228 408.278 140.913 408.093 140.403ZM14.1568 138.722C13.5065 138.477 13.1814 137.757 13.4215 137.112C13.6666 136.466 14.3869 136.136 15.0372 136.381C15.6825 136.622 16.0077 137.342 15.7676 137.992C15.5775 138.492 15.1023 138.802 14.597 138.802C14.4469 138.802 14.3019 138.777 14.1568 138.722ZM405.247 132.98C404.987 132.34 405.297 131.609 405.937 131.349C406.577 131.089 407.303 131.399 407.563 132.04C407.823 132.68 407.518 133.405 406.878 133.665C406.723 133.73 406.562 133.76 406.407 133.76C405.912 133.76 405.442 133.465 405.247 132.98ZM17.0732 131.249C16.4379 130.984 16.1377 130.249 16.4079 129.614C16.673 128.978 17.4083 128.678 18.0436 128.943C18.6839 129.213 18.979 129.944 18.7139 130.584C18.5138 131.059 18.0486 131.349 17.5584 131.349C17.3983 131.349 17.2332 131.319 17.0732 131.249ZM402.125 125.687C401.84 125.057 402.12 124.316 402.751 124.031C403.381 123.751 404.121 124.031 404.406 124.657C404.687 125.287 404.406 126.027 403.781 126.312C403.611 126.387 403.436 126.422 403.266 126.422C402.791 126.422 402.336 126.152 402.125 125.687ZM20.2796 123.901C19.6543 123.606 19.3842 122.866 19.6744 122.241C19.9695 121.61 20.7098 121.34 21.3351 121.635C21.9604 121.925 22.2355 122.671 21.9404 123.296C21.7303 123.751 21.2801 124.016 20.8099 124.016C20.6298 124.016 20.4497 123.981 20.2796 123.901ZM398.724 118.519C398.419 117.899 398.669 117.148 399.289 116.843C399.909 116.533 400.66 116.783 400.965 117.404C401.275 118.024 401.02 118.774 400.405 119.079C400.225 119.169 400.034 119.209 399.849 119.209C399.389 119.209 398.944 118.959 398.724 118.519ZM23.7612 116.678C23.151 116.363 22.9058 115.613 23.221 114.998C23.5361 114.382 24.2915 114.142 24.9068 114.457C25.522 114.772 25.7622 115.523 25.447 116.138C25.2269 116.573 24.7867 116.818 24.3315 116.818C24.1414 116.818 23.9463 116.773 23.7612 116.678ZM395.057 111.481C394.727 110.876 394.947 110.116 395.552 109.785C396.158 109.45 396.918 109.675 397.253 110.281C397.583 110.886 397.358 111.646 396.753 111.981C396.563 112.081 396.358 112.131 396.153 112.131C395.712 112.131 395.282 111.896 395.057 111.481ZM27.518 109.6C26.9177 109.26 26.7026 108.5 27.0427 107.895C27.3829 107.294 28.1433 107.079 28.7435 107.419C29.3488 107.76 29.5589 108.52 29.2187 109.125C28.9936 109.53 28.5684 109.76 28.1282 109.76C27.9232 109.76 27.7131 109.71 27.518 109.6ZM391.12 104.583C390.765 103.993 390.96 103.223 391.551 102.873C392.146 102.517 392.911 102.713 393.266 103.303C393.621 103.898 393.426 104.663 392.831 105.018C392.631 105.139 392.411 105.194 392.196 105.194C391.771 105.194 391.35 104.978 391.12 104.583ZM31.5398 102.672C30.9495 102.307 30.7695 101.542 31.1296 100.952C31.4898 100.362 32.2602 100.176 32.8504 100.542C33.4357 100.902 33.6208 101.672 33.2606 102.257C33.0255 102.642 32.6153 102.858 32.1951 102.858C31.97 102.858 31.7449 102.798 31.5398 102.672ZM386.918 97.8455C386.543 97.2652 386.708 96.4899 387.289 96.1148C387.869 95.7396 388.644 95.9047 389.019 96.4799C389.395 97.0602 389.229 97.8355 388.649 98.2106C388.439 98.3507 388.204 98.4157 387.969 98.4157C387.564 98.4157 387.159 98.2106 386.918 97.8455ZM35.8218 95.8997C35.2465 95.5195 35.0915 94.7392 35.4766 94.164C35.8618 93.5937 36.6372 93.4387 37.2124 93.8238C37.7877 94.204 37.9428 94.9793 37.5576 95.5545C37.3175 95.9147 36.9173 96.1098 36.5171 96.1098C36.277 96.1098 36.0369 96.0447 35.8218 95.8997ZM382.466 91.2628C382.071 90.6975 382.206 89.9222 382.771 89.522C383.337 89.1219 384.117 89.2569 384.512 89.8222C384.912 90.3874 384.777 91.1677 384.212 91.5679C383.992 91.7179 383.742 91.793 383.492 91.793C383.102 91.793 382.711 91.6079 382.466 91.2628ZM40.3589 89.3019C39.7986 88.8968 39.6736 88.1115 40.0788 87.5512C40.4839 86.996 41.2643 86.8709 41.8246 87.2761C42.3848 87.6813 42.5099 88.4616 42.1047 89.0218C41.8596 89.357 41.4794 89.537 41.0892 89.537C40.8341 89.537 40.579 89.462 40.3589 89.3019ZM377.769 84.8551C377.349 84.3049 377.454 83.5246 378.004 83.1044C378.555 82.6842 379.34 82.7893 379.76 83.3395C380.175 83.8897 380.07 84.675 379.525 85.0902C379.295 85.2653 379.03 85.3503 378.765 85.3503C378.389 85.3503 378.014 85.1802 377.769 84.8551ZM45.1361 82.8793C44.5958 82.4541 44.5008 81.6638 44.926 81.1236C45.3512 80.5783 46.1365 80.4833 46.6818 80.9085C47.227 81.3336 47.3221 82.119 46.8969 82.6642C46.6468 82.9793 46.2816 83.1444 45.9114 83.1444C45.6413 83.1444 45.3662 83.0594 45.1361 82.8793ZM372.832 78.6275C372.392 78.0973 372.467 77.307 373.002 76.8668C373.532 76.4316 374.323 76.5067 374.758 77.0369C375.193 77.5721 375.118 78.3574 374.588 78.7976C374.353 78.9927 374.072 79.0827 373.792 79.0827C373.432 79.0827 373.072 78.9277 372.827 78.6275H372.832ZM50.1584 76.6417C49.6331 76.1965 49.5681 75.4062 50.0133 74.881C50.4585 74.3558 51.2489 74.2857 51.7741 74.7359C52.3044 75.1811 52.3694 75.9714 51.9242 76.4967C51.6741 76.7868 51.3239 76.9368 50.9688 76.9368C50.6836 76.9368 50.3935 76.8418 50.1584 76.6417ZM367.66 72.595C367.199 72.0748 367.244 71.2845 367.76 70.8293C368.275 70.3691 369.065 70.4141 369.525 70.9294C369.986 71.4446 369.941 72.2349 369.42 72.6951C369.185 72.9052 368.89 73.0102 368.59 73.0102C368.245 73.0102 367.905 72.8702 367.66 72.595ZM55.4108 70.6042C54.9006 70.139 54.8656 69.3437 55.3308 68.8385C55.796 68.3283 56.5914 68.2933 57.1016 68.7585C57.6118 69.2236 57.6468 70.014 57.1816 70.5242C56.9315 70.7943 56.5964 70.9294 56.2562 70.9294C55.9511 70.9294 55.6509 70.8243 55.4108 70.6042ZM362.257 66.7526C361.782 66.2574 361.797 65.4671 362.292 64.9869C362.792 64.5067 363.583 64.5217 364.063 65.0219C364.543 65.5221 364.523 66.3124 364.028 66.7876C363.783 67.0227 363.473 67.1378 363.162 67.1378C362.832 67.1378 362.507 67.0077 362.257 66.7526ZM60.8883 64.7668C60.3981 64.2816 60.3881 63.4913 60.8733 63.0011C61.3585 62.5059 62.1539 62.5009 62.6441 62.9861C63.1344 63.4713 63.1394 64.2616 62.6541 64.7568C62.409 65.0019 62.0889 65.127 61.7637 65.127C61.4486 65.127 61.1284 65.0069 60.8883 64.7668ZM356.644 61.1253C356.144 60.6401 356.129 59.8498 356.609 59.3546C357.09 58.8594 357.885 58.8443 358.38 59.3245C358.875 59.8047 358.89 60.5951 358.41 61.0903C358.165 61.3454 357.84 61.4754 357.51 61.4754C357.2 61.4754 356.885 61.3554 356.644 61.1253ZM66.5759 59.1445C66.1057 58.6443 66.1307 57.8489 66.636 57.3787C67.1362 56.9035 67.9266 56.9286 68.4018 57.4338C68.872 57.934 68.852 58.7293 68.3468 59.1995C68.1067 59.4246 67.7965 59.5396 67.4914 59.5396C67.1562 59.5396 66.826 59.4046 66.5759 59.1445ZM350.817 55.708C350.302 55.2479 350.257 54.4575 350.717 53.9423C351.177 53.4271 351.967 53.3821 352.483 53.8423C352.998 54.3025 353.043 55.0928 352.583 55.608C352.332 55.8831 351.992 56.0232 351.652 56.0232C351.352 56.0232 351.052 55.9181 350.817 55.708ZM72.4787 53.7422C72.0235 53.222 72.0785 52.4317 72.5987 51.9765C73.119 51.5263 73.9093 51.5763 74.3645 52.1016C74.8147 52.6218 74.7647 53.4121 74.2395 53.8623C74.0044 54.0724 73.7142 54.1724 73.4191 54.1724C73.0739 54.1724 72.7238 54.0274 72.4787 53.7422ZM344.789 50.5159C344.254 50.0757 344.184 49.2854 344.624 48.7552C345.064 48.22 345.85 48.1499 346.385 48.5901C346.915 49.0303 346.99 49.8156 346.55 50.3508C346.3 50.646 345.945 50.801 345.584 50.801C345.304 50.801 345.019 50.706 344.789 50.5159ZM78.5765 48.5701C78.1413 48.0299 78.2263 47.2445 78.7616 46.8094C79.3018 46.3742 80.0872 46.4592 80.5224 46.9994C80.9526 47.5347 80.8725 48.325 80.3323 48.7552C80.1022 48.9403 79.827 49.0353 79.5469 49.0353C79.1817 49.0353 78.8216 48.8752 78.5765 48.5701ZM338.566 45.5538C338.016 45.1337 337.916 44.3483 338.336 43.7981C338.756 43.2529 339.537 43.1479 340.087 43.568C340.637 43.9882 340.737 44.7735 340.317 45.3187C340.072 45.6439 339.702 45.809 339.327 45.809C339.061 45.809 338.791 45.7289 338.566 45.5538ZM84.8644 43.6281C84.4492 43.0778 84.5642 42.2925 85.1145 41.8773C85.6647 41.4672 86.4501 41.5822 86.8603 42.1324C87.2755 42.6877 87.1604 43.468 86.6052 43.8832C86.3851 44.0532 86.1199 44.1333 85.8598 44.1333C85.4796 44.1333 85.1045 43.9582 84.8594 43.6281H84.8644ZM332.158 40.8319C331.593 40.4317 331.458 39.6514 331.858 39.0862C332.258 38.5209 333.039 38.3909 333.604 38.786C334.164 39.1862 334.299 39.9665 333.899 40.5318C333.659 40.8769 333.269 41.062 332.879 41.062C332.628 41.062 332.378 40.987 332.158 40.8319ZM91.3273 38.9311C90.9372 38.3659 91.0822 37.5856 91.6525 37.1954C92.2178 36.8002 92.9981 36.9453 93.3883 37.5155C93.7835 38.0808 93.6384 38.8611 93.0681 39.2512C92.853 39.4013 92.6079 39.4763 92.3628 39.4763C91.9626 39.4763 91.5724 39.2863 91.3273 38.9311ZM325.575 36.35C324.995 35.9749 324.835 35.1996 325.21 34.6193C325.59 34.0441 326.361 33.879 326.941 34.2592C327.521 34.6343 327.681 35.4097 327.306 35.9899C327.066 36.355 326.666 36.5551 326.255 36.5551C326.02 36.5551 325.785 36.4901 325.575 36.35ZM97.9704 34.4893C97.6002 33.904 97.7753 33.1287 98.3556 32.7586C98.9408 32.3884 99.7112 32.5635 100.081 33.1487C100.452 33.729 100.281 34.5043 99.6962 34.8744C99.4861 35.0045 99.256 35.0695 99.0259 35.0695C98.6107 35.0695 98.2105 34.8594 97.9704 34.4893ZM318.822 32.1283C318.232 31.7731 318.042 31.0028 318.397 30.4126C318.747 29.8223 319.517 29.6273 320.108 29.9824C320.703 30.3376 320.893 31.1079 320.538 31.6981C320.308 32.0883 319.893 32.3034 319.467 32.3034C319.247 32.3034 319.027 32.2483 318.822 32.1283ZM104.774 30.2975C104.423 29.6973 104.628 28.932 105.224 28.5868C105.819 28.2367 106.584 28.4418 106.935 29.037C107.28 29.6373 107.08 30.3976 106.484 30.7477C106.284 30.8628 106.069 30.9178 105.854 30.9178C105.424 30.9178 105.004 30.6927 104.774 30.2975ZM311.914 28.1617C311.309 27.8315 311.089 27.0712 311.424 26.466C311.754 25.8607 312.514 25.6356 313.119 25.9707C313.725 26.3009 313.945 27.0612 313.615 27.6664C313.385 28.0816 312.959 28.3167 312.514 28.3167C312.314 28.3167 312.109 28.2667 311.914 28.1617ZM111.727 26.3709C111.402 25.7607 111.632 25.0003 112.242 24.6752C112.852 24.3551 113.608 24.5852 113.933 25.1904C114.258 25.8007 114.028 26.561 113.418 26.8861C113.232 26.9862 113.032 27.0312 112.832 27.0312C112.387 27.0312 111.952 26.7911 111.727 26.3709ZM304.861 24.4651C304.24 24.155 303.99 23.4047 304.3 22.7844C304.611 22.1692 305.361 21.9191 305.981 22.2242C306.596 22.5343 306.847 23.2846 306.536 23.9049C306.316 24.3401 305.876 24.5952 305.416 24.5952C305.231 24.5952 305.041 24.5552 304.861 24.4651ZM118.825 22.7094C118.52 22.0891 118.78 21.3388 119.405 21.0387C120.026 20.7386 120.771 20.9987 121.076 21.6189C121.376 22.2392 121.116 22.9895 120.496 23.2896C120.316 23.3747 120.131 23.4147 119.951 23.4147C119.485 23.4147 119.04 23.1546 118.825 22.7094ZM297.667 21.0337C297.037 20.7486 296.757 20.0083 297.042 19.383C297.327 18.7528 298.068 18.4726 298.698 18.7578C299.328 19.0429 299.608 19.7832 299.323 20.4134C299.113 20.8736 298.658 21.1488 298.183 21.1488C298.008 21.1488 297.832 21.1087 297.667 21.0337ZM126.053 19.323C125.773 18.6927 126.063 17.9574 126.694 17.6773C127.329 17.4022 128.064 17.6873 128.344 18.3226C128.62 18.9528 128.329 19.6931 127.699 19.9683C127.534 20.0383 127.364 20.0733 127.199 20.0733C126.714 20.0733 126.258 19.7932 126.053 19.323ZM290.344 17.8874C289.704 17.6223 289.398 16.897 289.659 16.2567C289.919 15.6165 290.649 15.3063 291.289 15.5664C291.925 15.8316 292.235 16.5619 291.975 17.1971C291.775 17.6823 291.309 17.9774 290.814 17.9774C290.659 17.9774 290.499 17.9474 290.344 17.8874ZM133.402 16.2167C133.147 15.5764 133.467 14.8511 134.107 14.601C134.747 14.3459 135.478 14.6611 135.728 15.3063C135.983 15.9466 135.668 16.6719 135.022 16.927C134.872 16.987 134.717 17.012 134.562 17.012C134.067 17.012 133.597 16.7119 133.402 16.2167ZM282.901 15.0162C282.255 14.7811 281.92 14.0658 282.155 13.4156C282.39 12.7653 283.111 12.4301 283.756 12.6652C284.406 12.9053 284.741 13.6206 284.506 14.2709C284.321 14.7761 283.841 15.0912 283.331 15.0912C283.191 15.0912 283.046 15.0662 282.901 15.0162ZM140.885 13.3905C140.66 12.7353 141 12.025 141.651 11.7949C142.306 11.5698 143.016 11.9149 143.246 12.5652C143.476 13.2155 143.131 13.9308 142.481 14.1559C142.341 14.2059 142.201 14.2259 142.066 14.2259C141.55 14.2259 141.065 13.9058 140.885 13.3905ZM275.357 12.4351C274.697 12.2251 274.337 11.5198 274.547 10.8645C274.757 10.2042 275.462 9.84407 276.117 10.0542C276.778 10.2642 277.138 10.9695 276.928 11.6298C276.758 12.16 276.267 12.4952 275.737 12.4952C275.612 12.4952 275.482 12.4752 275.357 12.4351ZM148.474 10.8495C148.269 10.1892 148.639 9.48893 149.299 9.28884C149.959 9.08376 150.66 9.45391 150.865 10.1142C151.065 10.7745 150.695 11.4747 150.034 11.6798C149.914 11.7148 149.789 11.7349 149.669 11.7349C149.134 11.7349 148.639 11.3847 148.474 10.8495ZM267.739 10.1542C267.073 9.96912 266.683 9.27884 266.868 8.61356C267.053 7.94829 267.744 7.55813 268.409 7.7432C269.074 7.93328 269.464 8.62357 269.279 9.28384C269.124 9.83907 268.619 10.1992 268.074 10.1992C267.964 10.1992 267.849 10.1842 267.739 10.1542ZM156.152 8.60356C155.977 7.93328 156.372 7.248 157.038 7.07293C157.708 6.89285 158.393 7.29302 158.568 7.95829C158.743 8.62357 158.348 9.31385 157.683 9.48893C157.573 9.51894 157.463 9.52894 157.358 9.52894C156.807 9.52894 156.302 9.15879 156.152 8.60356ZM260.035 8.16838C259.365 8.00831 258.949 7.33303 259.11 6.66276C259.27 5.98748 259.945 5.57231 260.615 5.73237C261.286 5.89244 261.701 6.56772 261.541 7.238C261.406 7.81323 260.895 8.19839 260.325 8.19839C260.23 8.19839 260.135 8.18839 260.035 8.16838ZM163.911 6.64775C163.761 5.97747 164.181 5.3072 164.856 5.15713C165.531 5.00207 166.202 5.42725 166.352 6.10253C166.502 6.7728 166.082 7.44308 165.406 7.59314C165.311 7.61315 165.221 7.62315 165.131 7.62315C164.556 7.62315 164.041 7.22799 163.911 6.64775ZM252.266 6.47268C251.586 6.34262 251.146 5.68235 251.281 5.00707C251.416 4.32679 252.071 3.88661 252.752 4.02166C253.427 4.15672 253.867 4.81199 253.737 5.49227C253.617 6.08752 253.097 6.49769 252.512 6.49769C252.426 6.49769 252.346 6.49269 252.266 6.47268ZM171.739 4.99707C171.614 4.31679 172.06 3.66652 172.74 3.53646C173.42 3.41141 174.07 3.8616 174.2 4.54188C174.326 5.22216 173.875 5.87243 173.195 5.99748C173.12 6.01249 173.045 6.01749 172.965 6.01749C172.375 6.01749 171.849 5.59732 171.739 4.99707ZM244.433 5.0821C243.753 4.97206 243.287 4.33179 243.397 3.65151C243.502 2.96623 244.143 2.50103 244.828 2.61108C245.508 2.72113 245.974 3.36139 245.863 4.04167C245.768 4.65693 245.238 5.09711 244.633 5.09711C244.568 5.09711 244.503 5.09711 244.433 5.0821ZM179.623 3.64151C179.523 2.96123 179.998 2.32596 180.683 2.22592C181.364 2.12588 181.999 2.60108 182.099 3.28136C182.199 3.96664 181.724 4.6019 181.044 4.70195C180.984 4.70695 180.919 4.71195 180.859 4.71195C180.248 4.71195 179.713 4.26677 179.623 3.64151ZM236.559 3.98665C235.874 3.90662 235.384 3.28136 235.464 2.59607C235.549 1.91079 236.169 1.42059 236.854 1.50562C237.54 1.58566 238.03 2.20591 237.95 2.8962C237.87 3.52646 237.335 3.99665 236.709 3.99665C236.659 3.99665 236.609 3.99165 236.559 3.98665ZM187.557 2.59107C187.482 1.90579 187.977 1.28553 188.667 1.2155C189.352 1.14047 189.968 1.63568 190.043 2.32596C190.118 3.01125 189.618 3.6265 188.932 3.70153C188.887 3.70653 188.842 3.70653 188.797 3.70653C188.167 3.70653 187.627 3.23134 187.557 2.59107ZM228.646 3.19132C227.955 3.1363 227.445 2.53605 227.5 1.84576C227.555 1.15548 228.16 0.645267 228.846 0.70029C229.536 0.755313 230.046 1.36056 229.991 2.04585C229.936 2.70112 229.391 3.19632 228.746 3.19632C228.716 3.19632 228.681 3.19632 228.646 3.19132ZM195.52 1.84076C195.475 1.15548 195.996 0.55523 196.681 0.505209C197.371 0.46019 197.966 0.980406 198.016 1.67069C198.061 2.35597 197.546 2.95622 196.856 3.00124C196.826 3.00624 196.796 3.00624 196.766 3.00624C196.116 3.00624 195.565 2.50103 195.52 1.84076ZM220.707 2.70112C220.017 2.6661 219.481 2.08586 219.511 1.39558C219.541 0.705292 220.127 0.17007 220.812 0.200083C221.502 0.230095 222.038 0.815337 222.007 1.50562C221.982 2.1759 221.427 2.70112 220.762 2.70112H220.707ZM203.509 1.39058C203.489 0.70029 204.029 0.125052 204.72 0.105043C205.41 0.0850352 205.99 0.625259 206.01 1.31554C206.03 2.00583 205.49 2.58107 204.8 2.60108C204.8 2.60108 204.775 2.60108 204.76 2.60108C204.084 2.60108 203.529 2.06585 203.509 1.38557V1.39058ZM211.513 1.24552C211.518 0.55523 212.078 0 212.768 0C213.459 0.00500207 214.019 0.570236 214.014 1.26052C214.014 1.95081 213.444 2.50604 212.753 2.50103C212.063 2.50103 211.508 1.9358 211.513 1.24552Z" fill="#EA642B"/>
</svg>
