<svg width="325" height="59" viewBox="0 0 325 59" fill="none" xmlns="http://www.w3.org/2000/svg">
<path d="M0 0H15.7449C30.8038 0 40.4626 9.5103 40.4626 23.1606C40.4626 36.7683 31.2619 46.1531 15.9445 46.1531H0.0140762L0 0ZM15.3584 37.9985C24.618 37.9985 30.6759 31.5901 30.6759 23.1606C30.6759 14.4939 24.5169 8.19472 15.9445 8.19472H9.30052V38.0136L15.3584 37.9998V37.9985ZM61.4643 46.6928C51.0479 46.6928 44.0482 39.7861 44.0482 30.331C44.0482 20.8483 51.0479 13.8989 61.4643 13.8989C71.6504 13.8989 78.8804 20.5847 78.8804 30.331C78.8804 40.0346 71.6376 46.6928 61.4643 46.6928ZM61.4643 39.0793C66.208 39.0793 69.9804 35.4665 69.9804 30.3298C69.9804 25.1252 66.3078 21.54 61.4643 21.54C56.3636 21.54 52.9201 25.3185 52.9201 30.331C52.9201 35.2443 56.4494 39.0793 61.4643 39.0793ZM98.6255 46.6928C88.9385 46.6928 81.7954 40.0623 81.7954 30.331C81.7954 20.5985 88.8962 13.8989 99.0401 13.8989C104.241 13.8989 109.642 15.9614 112.956 19.9897L107.028 24.9319C105.269 22.9384 102.713 21.54 99.4112 21.54C94.1684 21.54 90.7108 25.1252 90.7108 30.2607C90.7108 35.4665 94.2823 39.0517 99.4828 39.0517C102.955 39.0517 105.541 37.529 107.084 35.8544L113.114 40.9887C110.286 44.1458 105.213 46.6928 98.6255 46.6928ZM132.488 46.6928C122.071 46.6928 115.072 39.7861 115.072 30.331C115.072 20.8483 122.071 13.8989 132.488 13.8989C142.675 13.8989 149.904 20.5847 149.904 30.331C149.904 40.0346 142.661 46.6928 132.488 46.6928ZM132.488 39.0793C137.231 39.0793 141.004 35.4665 141.004 30.3298C141.004 25.1252 137.331 21.54 132.488 21.54C127.387 21.54 123.943 25.3185 123.943 30.331C123.943 35.2443 127.473 39.0793 132.488 39.0793ZM174.007 13.8989C181.008 13.8989 185.894 17.5807 185.894 27.3409V46.1807H177.122V29.4724C177.122 23.4092 174.893 21.54 170.835 21.54C166.378 21.54 163.405 24.5578 163.405 30.2055V46.1531H154.633V14.4387H163.405V18.536H163.505C166.177 15.4768 169.978 13.8989 174.007 13.8989ZM207.57 46.6928C197.155 46.6928 190.154 39.7861 190.154 30.331C190.154 20.8483 197.155 13.8989 207.57 13.8989C217.743 13.8989 224.986 20.5847 224.986 30.331C224.986 40.0346 217.757 46.6928 207.57 46.6928ZM207.57 39.0793C212.314 39.0793 216.085 35.4665 216.085 30.3298C216.085 25.1252 212.413 21.54 207.57 21.54C202.469 21.54 199.026 25.3185 199.026 30.331C199.026 35.2443 202.569 39.0793 207.57 39.0793ZM269.546 13.8989C276.647 13.8989 281.105 18.0515 281.105 27.7275V46.1807H272.333V29.7762C272.333 24.6959 270.732 21.5262 266.603 21.5262C262.904 21.5262 259.931 24.5992 259.931 30.2758V46.1807H251.159V29.7762C251.159 24.6959 249.458 21.5262 245.358 21.5262C241.428 21.5262 238.443 24.5992 238.443 30.2758V46.1393H229.671V14.4387H238.443V18.6189H238.543C241.129 15.5459 244.7 13.8989 248.33 13.8989C252.659 13.8989 256.06 15.4906 258.06 19.0068H258.16C260.846 15.6701 264.86 13.8976 269.546 13.8976V13.8989ZM316.211 14.4387L298.566 59H289.593L295.422 44.1872L282.321 14.4387H291.494L299.509 34.0681H299.609L307.11 14.4387H316.211ZM318.883 17.2908C318.883 15.6714 320.227 14.3144 321.956 14.3144C322.355 14.3129 322.751 14.3888 323.12 14.5376C323.489 14.6865 323.825 14.9054 324.108 15.1818C324.39 15.4582 324.615 15.7867 324.768 16.1484C324.921 16.5101 325 16.8979 325 17.2895C325 18.8963 323.656 20.2671 321.942 20.2671C321.541 20.2699 321.144 20.1951 320.773 20.0468C320.403 19.8985 320.065 19.6797 319.781 19.4031C319.497 19.1265 319.271 18.7974 319.117 18.4349C318.963 18.0724 318.884 17.6835 318.883 17.2908ZM321.928 19.5478C322.23 19.5492 322.53 19.4917 322.81 19.3787C323.089 19.2658 323.344 19.0996 323.557 18.8897C323.771 18.6799 323.941 18.4305 324.056 18.1561C324.171 17.8816 324.23 17.5875 324.228 17.2908C324.228 16.0442 323.228 15.0337 321.942 15.0337C321.637 15.0314 321.335 15.0885 321.053 15.2018C320.771 15.3151 320.515 15.4823 320.299 15.6936C320.084 15.9049 319.914 16.1562 319.798 16.4328C319.683 16.7094 319.624 17.0057 319.627 17.3046C319.627 18.536 320.627 19.5478 321.928 19.5478ZM320.398 17.3046C320.398 16.4459 320.97 15.7404 322.013 15.7404C322.442 15.7404 322.927 15.9061 323.27 16.3355L322.785 16.7372C322.692 16.6236 322.574 16.5313 322.441 16.4667C322.308 16.4021 322.162 16.3667 322.013 16.3631C321.469 16.3631 321.098 16.7234 321.098 17.3046C321.098 17.8582 321.455 18.2323 322.013 18.2323C322.161 18.2311 322.306 18.1983 322.44 18.136C322.573 18.0738 322.691 17.9837 322.785 17.872L323.27 18.2737C323.117 18.4558 322.926 18.6025 322.708 18.703C322.491 18.8035 322.254 18.8554 322.013 18.8549C321.142 18.8549 320.398 18.3277 320.398 17.3046Z" fill="white"/>
</svg>
