<svg width="546" height="38" viewBox="0 0 546 38" fill="none" xmlns="http://www.w3.org/2000/svg">
<rect x="4" y="4" width="538" height="30" rx="8" fill="white"/>
<rect x="2" y="2" width="542" height="34" rx="10" stroke="#DBDBDB" stroke-opacity="0.5" stroke-width="4"/>
<path d="M12.888 23H14.064V19.424H16.632C18.36 19.424 19.464 18.416 19.464 16.892C19.464 15.356 18.36 14.36 16.692 14.36H12.888V23ZM14.064 18.344V15.44H16.644C17.616 15.44 18.216 15.92 18.216 16.892C18.216 17.84 17.604 18.344 16.596 18.344H14.064ZM20.8322 23H21.9602V19.88C21.9602 18.296 22.6442 17.648 23.6522 17.648C24.4442 17.648 24.9362 18.152 24.9362 19.208V23H26.0642V18.992C26.0642 17.48 25.1882 16.616 23.8562 16.616C23.0642 16.616 22.4762 16.928 22.0322 17.504H21.9602V14.36H20.8322V23ZM30.4125 23.144C32.1885 23.144 33.4725 21.86 33.4725 19.88C33.4725 17.9 32.1885 16.616 30.4125 16.616C28.6245 16.616 27.3525 17.9 27.3525 19.88C27.3525 21.86 28.6245 23.144 30.4125 23.144ZM28.5285 19.88C28.5285 18.5 29.1765 17.648 30.4125 17.648C31.6245 17.648 32.2965 18.5 32.2965 19.88C32.2965 21.26 31.6245 22.112 30.4125 22.112C29.1765 22.112 28.5285 21.26 28.5285 19.88ZM36.8638 23.024H37.9918V21.992H37.0198C36.5638 21.992 36.3598 21.8 36.3598 21.368V17.744H37.8718V16.76H36.3598V15.056H35.2318V16.76H34.0678V17.744H35.2318V21.476C35.2318 22.436 35.7958 23.024 36.8638 23.024ZM41.7094 23.144C43.4854 23.144 44.7694 21.86 44.7694 19.88C44.7694 17.9 43.4854 16.616 41.7094 16.616C39.9214 16.616 38.6494 17.9 38.6494 19.88C38.6494 21.86 39.9214 23.144 41.7094 23.144ZM39.8254 19.88C39.8254 18.5 40.4734 17.648 41.7094 17.648C42.9214 17.648 43.5934 18.5 43.5934 19.88C43.5934 21.26 42.9214 22.112 41.7094 22.112C40.4734 22.112 39.8254 21.26 39.8254 19.88ZM51.9047 23.144C53.6807 23.144 54.9647 21.86 54.9647 19.88C54.9647 17.9 53.6807 16.616 51.9047 16.616C50.1167 16.616 48.8447 17.9 48.8447 19.88C48.8447 21.86 50.1167 23.144 51.9047 23.144ZM50.0207 19.88C50.0207 18.5 50.6687 17.648 51.9047 17.648C53.1167 17.648 53.7887 18.5 53.7887 19.88C53.7887 21.26 53.1167 22.112 51.9047 22.112C50.6687 22.112 50.0207 21.26 50.0207 19.88ZM56.724 15.776V16.76H55.56V17.744H56.724V23H57.852V17.744H59.532V16.76H57.852V15.836C57.852 15.428 58.056 15.248 58.476 15.248H59.532V14.216H58.38C57.3 14.216 56.724 14.804 56.724 15.776ZM65.2167 23.144C66.0447 23.144 66.8487 22.808 67.2687 22.124H67.3407L67.3527 23H68.4447L68.4207 21.668V18.896C68.4207 17.516 67.4967 16.616 65.9127 16.616C64.3527 16.616 63.4167 17.492 63.3687 18.704H64.4487C64.5087 18.056 64.9407 17.624 65.9127 17.624C66.8247 17.624 67.2927 18.116 67.2927 18.92V19.184L65.2767 19.352C63.8607 19.472 63.1887 20.192 63.1887 21.296C63.1887 22.388 63.9807 23.144 65.2167 23.144ZM64.2927 21.248C64.2927 20.72 64.6407 20.324 65.4927 20.24L67.2807 20.072C67.1847 21.524 66.3327 22.184 65.4087 22.184C64.6767 22.184 64.2927 21.812 64.2927 21.248ZM70.0041 23H71.1321V14.36H70.0041V23ZM72.8166 23H73.9446V14.36H72.8166V23ZM78.6771 23H79.8531V19.424H82.4211C84.1491 19.424 85.2531 18.416 85.2531 16.892C85.2531 15.356 84.1491 14.36 82.4811 14.36H78.6771V23ZM79.8531 18.344V15.44H82.4331C83.4051 15.44 84.0051 15.92 84.0051 16.892C84.0051 17.84 83.3931 18.344 82.3851 18.344H79.8531ZM87.998 23.144C88.826 23.144 89.63 22.808 90.05 22.124H90.122L90.134 23H91.226L91.202 21.668V18.896C91.202 17.516 90.278 16.616 88.694 16.616C87.134 16.616 86.198 17.492 86.15 18.704H87.23C87.29 18.056 87.722 17.624 88.694 17.624C89.606 17.624 90.074 18.116 90.074 18.92V19.184L88.058 19.352C86.642 19.472 85.97 20.192 85.97 21.296C85.97 22.388 86.762 23.144 87.998 23.144ZM87.074 21.248C87.074 20.72 87.422 20.324 88.274 20.24L90.062 20.072C89.966 21.524 89.114 22.184 88.19 22.184C87.458 22.184 87.074 21.812 87.074 21.248ZM94.8013 23.024H95.9293V21.992H94.9573C94.5013 21.992 94.2973 21.8 94.2973 21.368V17.744H95.8093V16.76H94.2973V15.056H93.1693V16.76H92.0053V17.744H93.1693V21.476C93.1693 22.436 93.7333 23.024 94.8013 23.024ZM99.6829 23.144C101.195 23.144 102.299 22.232 102.491 20.9L101.387 20.636C101.207 21.5 100.691 22.112 99.6829 22.112C98.4589 22.112 97.7629 21.26 97.7629 19.88C97.7629 18.5 98.4709 17.648 99.6829 17.648C100.691 17.648 101.231 18.26 101.399 19.112L102.503 18.932C102.299 17.528 101.195 16.616 99.6829 16.616C97.9189 16.616 96.5869 17.9 96.5869 19.88C96.5869 21.86 97.9069 23.144 99.6829 23.144ZM103.742 23H104.87V19.88C104.87 18.296 105.554 17.648 106.562 17.648C107.354 17.648 107.846 18.152 107.846 19.208V23H108.974V18.992C108.974 17.48 108.098 16.616 106.766 16.616C105.974 16.616 105.386 16.928 104.942 17.504H104.87V14.36H103.742V23ZM113.275 23.144C114.691 23.144 115.591 22.496 115.987 21.368L114.943 21.008C114.619 21.74 114.127 22.112 113.275 22.112C112.195 22.112 111.523 21.38 111.415 20.204H116.143V19.868C116.143 17.78 114.967 16.616 113.287 16.616C111.559 16.616 110.263 17.936 110.263 19.88C110.263 21.86 111.511 23.144 113.275 23.144ZM111.451 19.28C111.655 18.176 112.399 17.648 113.287 17.648C114.259 17.648 114.883 18.356 114.955 19.28H111.451ZM119.791 23.144C121.399 23.144 122.287 22.364 122.287 21.272C122.287 20.276 121.699 19.592 120.475 19.424L119.203 19.244C118.663 19.172 118.339 18.908 118.339 18.464C118.339 18.032 118.687 17.648 119.575 17.648C120.367 17.648 120.787 17.996 121.027 18.608L122.107 18.26C121.795 17.252 120.919 16.616 119.575 16.616C118.039 16.616 117.247 17.468 117.247 18.464C117.247 19.52 117.895 20.096 119.059 20.252L120.343 20.42C120.883 20.492 121.195 20.828 121.195 21.272C121.195 21.764 120.799 22.112 119.791 22.112C118.831 22.112 118.363 21.704 118.147 20.96L117.031 21.284C117.403 22.448 118.255 23.144 119.791 23.144ZM126.465 23H127.593V16.76H126.465V23ZM126.333 14.9C126.333 15.284 126.609 15.584 127.029 15.584C127.449 15.584 127.725 15.284 127.725 14.9C127.725 14.504 127.449 14.216 127.029 14.216C126.609 14.216 126.333 14.504 126.333 14.9ZM129.278 23H130.406V19.88C130.406 18.296 131.09 17.648 132.098 17.648C132.89 17.648 133.382 18.152 133.382 19.196V23H134.51V18.98C134.51 17.48 133.634 16.616 132.302 16.616C131.51 16.616 130.922 16.928 130.478 17.504H130.406V16.76H129.278V23ZM139.146 23H140.274V15.716H140.418L142.89 23H144.378L146.838 15.716H146.982V23H148.158V14.36H146.142L143.73 21.584H143.598L141.174 14.36H139.146V23ZM151.631 23.144C152.459 23.144 153.263 22.808 153.683 22.124H153.755L153.767 23H154.859L154.835 21.668V18.896C154.835 17.516 153.911 16.616 152.327 16.616C150.767 16.616 149.831 17.492 149.783 18.704H150.863C150.923 18.056 151.355 17.624 152.327 17.624C153.239 17.624 153.707 18.116 153.707 18.92V19.184L151.691 19.352C150.275 19.472 149.603 20.192 149.603 21.296C149.603 22.388 150.395 23.144 151.631 23.144ZM150.707 21.248C150.707 20.72 151.055 20.324 151.907 20.24L153.695 20.072C153.599 21.524 152.747 22.184 151.823 22.184C151.091 22.184 150.707 21.812 150.707 21.248ZM156.418 23H157.546V20.108C157.546 18.548 158.266 17.768 159.43 17.768H159.946V16.616H159.598C158.578 16.616 157.954 17.12 157.618 17.768H157.546V16.76H156.418V23ZM163.585 23.144C165.097 23.144 166.201 22.232 166.393 20.9L165.289 20.636C165.109 21.5 164.593 22.112 163.585 22.112C162.361 22.112 161.665 21.26 161.665 19.88C161.665 18.5 162.373 17.648 163.585 17.648C164.593 17.648 165.133 18.26 165.301 19.112L166.405 18.932C166.201 17.528 165.097 16.616 163.585 16.616C161.821 16.616 160.489 17.9 160.489 19.88C160.489 21.86 161.809 23.144 163.585 23.144ZM167.645 23H168.773V19.88C168.773 18.296 169.457 17.648 170.465 17.648C171.257 17.648 171.749 18.152 171.749 19.208V23H172.877V18.992C172.877 17.48 172.001 16.616 170.669 16.616C169.877 16.616 169.289 16.928 168.845 17.504H168.773V14.36H167.645V23ZM177.669 21.896V23H183.117V21.92H178.821V21.848C178.821 21.224 179.085 20.948 179.613 20.66L181.101 19.844C182.349 19.16 182.937 18.38 182.937 17.216C182.937 15.644 181.881 14.504 180.237 14.504C178.677 14.504 177.465 15.56 177.465 17.18H178.653C178.689 16.112 179.289 15.572 180.237 15.572C181.113 15.572 181.749 16.136 181.749 17.216C181.749 17.936 181.473 18.416 180.549 18.92L179.145 19.688C178.053 20.288 177.669 20.936 177.669 21.896ZM187.786 23.144C189.562 23.144 190.918 21.764 190.918 18.824C190.918 15.872 189.562 14.504 187.786 14.504C186.01 14.504 184.654 15.872 184.654 18.824C184.654 21.764 186.01 23.144 187.786 23.144ZM185.854 18.824C185.854 16.604 186.586 15.572 187.786 15.572C188.986 15.572 189.718 16.604 189.718 18.824C189.718 21.032 188.986 22.076 187.786 22.076C186.586 22.076 185.854 21.032 185.854 18.824ZM192.552 21.896V23H198V21.92H193.704V21.848C193.704 21.224 193.968 20.948 194.496 20.66L195.984 19.844C197.232 19.16 197.82 18.38 197.82 17.216C197.82 15.644 196.764 14.504 195.12 14.504C193.56 14.504 192.348 15.56 192.348 17.18H193.536C193.572 16.112 194.172 15.572 195.12 15.572C195.996 15.572 196.632 16.136 196.632 17.216C196.632 17.936 196.356 18.416 195.432 18.92L194.028 19.688C192.936 20.288 192.552 20.936 192.552 21.896ZM199.993 21.896V23H205.441V21.92H201.145V21.848C201.145 21.224 201.409 20.948 201.937 20.66L203.425 19.844C204.673 19.16 205.261 18.38 205.261 17.216C205.261 15.644 204.205 14.504 202.561 14.504C201.001 14.504 199.789 15.56 199.789 17.18H200.977C201.013 16.112 201.613 15.572 202.561 15.572C203.437 15.572 204.073 16.136 204.073 17.216C204.073 17.936 203.797 18.416 202.873 18.92L201.469 19.688C200.377 20.288 199.993 20.936 199.993 21.896ZM211.971 23.144C212.799 23.144 213.603 22.808 214.023 22.124H214.095L214.107 23H215.199L215.175 21.668V18.896C215.175 17.516 214.251 16.616 212.667 16.616C211.107 16.616 210.171 17.492 210.123 18.704H211.203C211.263 18.056 211.695 17.624 212.667 17.624C213.579 17.624 214.047 18.116 214.047 18.92V19.184L212.031 19.352C210.615 19.472 209.943 20.192 209.943 21.296C209.943 22.388 210.735 23.144 211.971 23.144ZM211.047 21.248C211.047 20.72 211.395 20.324 212.247 20.24L214.035 20.072C213.939 21.524 213.087 22.184 212.163 22.184C211.431 22.184 211.047 21.812 211.047 21.248ZM218.774 23.024H219.902V21.992H218.93C218.474 21.992 218.27 21.8 218.27 21.368V17.744H219.782V16.76H218.27V15.056H217.142V16.76H215.978V17.744H217.142V21.476C217.142 22.436 217.706 23.024 218.774 23.024ZM226.737 23.144C228.513 23.144 229.797 21.86 229.797 19.88C229.797 17.9 228.513 16.616 226.737 16.616C224.949 16.616 223.677 17.9 223.677 19.88C223.677 21.86 224.949 23.144 226.737 23.144ZM224.853 19.88C224.853 18.5 225.501 17.648 226.737 17.648C227.949 17.648 228.621 18.5 228.621 19.88C228.621 21.26 227.949 22.112 226.737 22.112C225.501 22.112 224.853 21.26 224.853 19.88ZM236.308 16.76H235.18V19.88C235.18 21.464 234.496 22.112 233.488 22.112C232.696 22.112 232.204 21.608 232.204 20.564V16.76H231.076V20.78C231.076 22.28 231.952 23.144 233.284 23.144C234.076 23.144 234.664 22.832 235.108 22.256H235.18V23H236.308V16.76ZM237.992 23H239.12V20.108C239.12 18.548 239.84 17.768 241.004 17.768H241.52V16.616H241.172C240.152 16.616 239.528 17.12 239.192 17.768H239.12V16.76H237.992V23ZM249.738 23H250.866V16.76H247.11V15.836C247.11 15.428 247.314 15.248 247.734 15.248H248.79V14.216H247.638C246.558 14.216 245.982 14.804 245.982 15.776V16.76H244.818V17.744H245.982V23H247.11V17.744H249.738V23ZM252.547 23H253.675V20.108C253.675 18.548 254.395 17.768 255.559 17.768H256.075V16.616H255.727C254.707 16.616 254.083 17.12 253.747 17.768H253.675V16.76H252.547V23ZM259.396 23.144C261.005 23.144 261.893 22.364 261.893 21.272C261.893 20.276 261.305 19.592 260.081 19.424L258.809 19.244C258.269 19.172 257.945 18.908 257.945 18.464C257.945 18.032 258.293 17.648 259.181 17.648C259.973 17.648 260.393 17.996 260.633 18.608L261.713 18.26C261.401 17.252 260.525 16.616 259.181 16.616C257.645 16.616 256.853 17.468 256.853 18.464C256.853 19.52 257.501 20.096 258.665 20.252L259.949 20.42C260.489 20.492 260.801 20.828 260.801 21.272C260.801 21.764 260.405 22.112 259.396 22.112C258.437 22.112 257.969 21.704 257.753 20.96L256.637 21.284C257.009 22.448 257.861 23.144 259.396 23.144ZM265.086 23.024H266.214V21.992H265.242C264.786 21.992 264.582 21.8 264.582 21.368V17.744H266.094V16.76H264.582V15.056H263.454V16.76H262.29V17.744H263.454V21.476C263.454 22.436 264.018 23.024 265.086 23.024ZM273.049 23.144C274.825 23.144 276.109 21.86 276.109 19.88C276.109 17.9 274.825 16.616 273.049 16.616C271.261 16.616 269.989 17.9 269.989 19.88C269.989 21.86 271.261 23.144 273.049 23.144ZM271.165 19.88C271.165 18.5 271.813 17.648 273.049 17.648C274.261 17.648 274.933 18.5 274.933 19.88C274.933 21.26 274.261 22.112 273.049 22.112C271.813 22.112 271.165 21.26 271.165 19.88ZM285.381 23H286.509V16.76H282.753V15.836C282.753 15.428 282.957 15.248 283.377 15.248H284.433V14.216H283.281C282.201 14.216 281.625 14.804 281.625 15.776V16.76H278.997V15.836C278.997 15.428 279.201 15.248 279.621 15.248H280.677V14.216H279.525C278.445 14.216 277.869 14.804 277.869 15.776V16.76H276.705V17.744H277.869V23H278.997V17.744H281.625V23H282.753V17.744H285.381V23ZM290.98 23.144C292.492 23.144 293.596 22.232 293.788 20.9L292.684 20.636C292.504 21.5 291.988 22.112 290.98 22.112C289.756 22.112 289.06 21.26 289.06 19.88C289.06 18.5 289.768 17.648 290.98 17.648C291.988 17.648 292.528 18.26 292.696 19.112L293.8 18.932C293.596 17.528 292.492 16.616 290.98 16.616C289.216 16.616 287.884 17.9 287.884 19.88C287.884 21.86 289.204 23.144 290.98 23.144ZM295.039 23H296.167V16.76H295.039V23ZM294.907 14.9C294.907 15.284 295.183 15.584 295.603 15.584C296.023 15.584 296.299 15.284 296.299 14.9C296.299 14.504 296.023 14.216 295.603 14.216C295.183 14.216 294.907 14.504 294.907 14.9ZM299.592 23.144C300.42 23.144 301.224 22.808 301.644 22.124H301.716L301.728 23H302.82L302.796 21.668V18.896C302.796 17.516 301.872 16.616 300.288 16.616C298.728 16.616 297.792 17.492 297.744 18.704H298.824C298.884 18.056 299.316 17.624 300.288 17.624C301.2 17.624 301.668 18.116 301.668 18.92V19.184L299.652 19.352C298.236 19.472 297.564 20.192 297.564 21.296C297.564 22.388 298.356 23.144 299.592 23.144ZM298.668 21.248C298.668 20.72 299.016 20.324 299.868 20.24L301.656 20.072C301.56 21.524 300.708 22.184 299.784 22.184C299.052 22.184 298.668 21.812 298.668 21.248ZM304.379 23H305.507V14.36H304.379V23ZM312.952 23.144C314.728 23.144 316.012 21.86 316.012 19.88C316.012 17.9 314.728 16.616 312.952 16.616C311.164 16.616 309.892 17.9 309.892 19.88C309.892 21.86 311.164 23.144 312.952 23.144ZM311.068 19.88C311.068 18.5 311.716 17.648 312.952 17.648C314.164 17.648 314.836 18.5 314.836 19.88C314.836 21.26 314.164 22.112 312.952 22.112C311.716 22.112 311.068 21.26 311.068 19.88ZM317.771 15.776V16.76H316.607V17.744H317.771V23H318.899V17.744H321.527V23H322.655V17.744H324.335V16.76H322.655V15.836C322.655 15.428 322.859 15.248 323.279 15.248H324.335V14.216H323.183C322.103 14.216 321.527 14.804 321.527 15.776V16.76H318.899V15.836C318.899 15.428 319.103 15.248 319.523 15.248H320.579V14.216H319.427C318.347 14.216 317.771 14.804 317.771 15.776ZM327.646 23.144C329.255 23.144 330.143 22.364 330.143 21.272C330.143 20.276 329.555 19.592 328.331 19.424L327.059 19.244C326.519 19.172 326.195 18.908 326.195 18.464C326.195 18.032 326.543 17.648 327.431 17.648C328.223 17.648 328.643 17.996 328.883 18.608L329.963 18.26C329.651 17.252 328.775 16.616 327.431 16.616C325.895 16.616 325.103 17.468 325.103 18.464C325.103 19.52 325.751 20.096 326.915 20.252L328.199 20.42C328.739 20.492 329.051 20.828 329.051 21.272C329.051 21.764 328.655 22.112 327.646 22.112C326.687 22.112 326.219 21.704 326.003 20.96L324.887 21.284C325.259 22.448 326.111 23.144 327.646 23.144ZM331.32 23H332.448V16.76H331.32V23ZM331.188 14.9C331.188 15.284 331.464 15.584 331.884 15.584C332.304 15.584 332.58 15.284 332.58 14.9C332.58 14.504 332.304 14.216 331.884 14.216C331.464 14.216 331.188 14.504 331.188 14.9ZM336.149 23.024H337.277V21.992H336.305C335.849 21.992 335.645 21.8 335.645 21.368V17.744H337.157V16.76H335.645V15.056H334.517V16.76H333.353V17.744H334.517V21.476C334.517 22.436 335.081 23.024 336.149 23.024ZM340.947 23.144C342.363 23.144 343.263 22.496 343.659 21.368L342.615 21.008C342.291 21.74 341.799 22.112 340.947 22.112C339.867 22.112 339.195 21.38 339.087 20.204H343.815V19.868C343.815 17.78 342.639 16.616 340.959 16.616C339.231 16.616 337.935 17.936 337.935 19.88C337.935 21.86 339.183 23.144 340.947 23.144ZM339.123 19.28C339.327 18.176 340.071 17.648 340.959 17.648C341.931 17.648 342.555 18.356 342.627 19.28H339.123ZM345.111 22.388C345.111 22.82 345.423 23.144 345.879 23.144C346.335 23.144 346.647 22.82 346.647 22.388C346.647 21.968 346.335 21.644 345.879 21.644C345.423 21.644 345.111 21.968 345.111 22.388ZM352.767 23H354.375L356.487 15.92H356.619L358.731 23H360.351L362.667 14.36H361.467L359.583 21.584H359.463L357.339 14.36H355.827L353.679 21.584H353.547L351.687 14.36H350.451L352.767 23ZM365.814 23.144C367.23 23.144 368.13 22.496 368.526 21.368L367.482 21.008C367.158 21.74 366.666 22.112 365.814 22.112C364.734 22.112 364.062 21.38 363.954 20.204H368.682V19.868C368.682 17.78 367.506 16.616 365.826 16.616C364.098 16.616 362.802 17.936 362.802 19.88C362.802 21.86 364.05 23.144 365.814 23.144ZM363.99 19.28C364.194 18.176 364.938 17.648 365.826 17.648C366.798 17.648 367.422 18.356 367.494 19.28H363.99ZM370.374 14.36L369.81 17.456H370.698L371.61 14.36H370.374ZM374.928 23H376.296L378.672 16.76H377.46L375.708 21.632H375.564L373.812 16.76H372.552L374.928 23ZM382.185 23.144C383.601 23.144 384.501 22.496 384.897 21.368L383.853 21.008C383.529 21.74 383.037 22.112 382.185 22.112C381.105 22.112 380.433 21.38 380.325 20.204H385.053V19.868C385.053 17.78 383.877 16.616 382.197 16.616C380.469 16.616 379.173 17.936 379.173 19.88C379.173 21.86 380.421 23.144 382.185 23.144ZM380.361 19.28C380.565 18.176 381.309 17.648 382.197 17.648C383.169 17.648 383.793 18.356 383.865 19.28H380.361ZM391.473 23.024H392.601V21.992H391.629C391.173 21.992 390.969 21.8 390.969 21.368V17.744H392.481V16.76H390.969V15.056H389.841V16.76H388.677V17.744H389.841V21.476C389.841 22.436 390.405 23.024 391.473 23.024ZM393.676 23H394.804V20.108C394.804 18.548 395.524 17.768 396.688 17.768H397.204V16.616H396.856C395.836 16.616 395.212 17.12 394.876 17.768H394.804V16.76H393.676V23ZM398.281 23H399.409V16.76H398.281V23ZM398.149 14.9C398.149 15.284 398.425 15.584 398.845 15.584C399.265 15.584 399.541 15.284 399.541 14.9C399.541 14.504 399.265 14.216 398.845 14.216C398.425 14.216 398.149 14.504 398.149 14.9ZM401.094 25.4H402.222V22.184H402.294C402.738 22.76 403.374 23.144 404.298 23.144C405.906 23.144 407.094 21.848 407.094 19.88C407.094 17.912 405.906 16.616 404.262 16.616C403.374 16.616 402.714 17 402.294 17.576H402.222V16.76H401.094V25.4ZM402.186 19.88C402.186 18.476 402.894 17.648 404.058 17.648C405.186 17.648 405.918 18.488 405.918 19.88C405.918 21.272 405.186 22.112 404.058 22.112C402.894 22.112 402.186 21.308 402.186 19.88ZM408.477 23H409.605V14.36H408.477V23ZM414.001 23.144C415.417 23.144 416.317 22.496 416.713 21.368L415.669 21.008C415.345 21.74 414.853 22.112 414.001 22.112C412.921 22.112 412.249 21.38 412.141 20.204H416.869V19.868C416.869 17.78 415.693 16.616 414.013 16.616C412.285 16.616 410.989 17.936 410.989 19.88C410.989 21.86 412.237 23.144 414.001 23.144ZM412.177 19.28C412.381 18.176 413.125 17.648 414.013 17.648C414.985 17.648 415.609 18.356 415.681 19.28H412.177ZM420.806 23.144C421.694 23.144 422.354 22.76 422.774 22.184H422.846V23H423.974V14.36H422.846V17.576H422.774C422.33 17 421.694 16.616 420.77 16.616C419.162 16.616 417.974 17.912 417.974 19.88C417.974 21.848 419.162 23.144 420.806 23.144ZM419.15 19.88C419.15 18.488 419.882 17.648 421.01 17.648C422.174 17.648 422.882 18.452 422.882 19.88C422.882 21.284 422.174 22.112 421.01 22.112C419.882 22.112 419.15 21.272 419.15 19.88ZM428.656 23H429.784V16.76H428.656V23ZM428.524 14.9C428.524 15.284 428.8 15.584 429.22 15.584C429.64 15.584 429.916 15.284 429.916 14.9C429.916 14.504 429.64 14.216 429.22 14.216C428.8 14.216 428.524 14.504 428.524 14.9ZM431.469 23H432.597V19.88C432.597 18.296 433.281 17.648 434.289 17.648C435.081 17.648 435.573 18.152 435.573 19.196V23H436.701V18.98C436.701 17.48 435.825 16.616 434.493 16.616C433.701 16.616 433.113 16.928 432.669 17.504H432.597V16.76H431.469V23ZM441.289 23H442.417V19.88C442.417 18.296 443.101 17.648 444.109 17.648C444.901 17.648 445.393 18.152 445.393 19.208V23H446.521V18.992C446.521 17.48 445.645 16.616 444.313 16.616C443.521 16.616 442.933 16.928 442.489 17.504H442.417V14.36H441.289V23ZM450.822 23.144C452.238 23.144 453.138 22.496 453.534 21.368L452.49 21.008C452.166 21.74 451.674 22.112 450.822 22.112C449.742 22.112 449.07 21.38 448.962 20.204H453.69V19.868C453.69 17.78 452.514 16.616 450.834 16.616C449.106 16.616 447.81 17.936 447.81 19.88C447.81 21.86 449.058 23.144 450.822 23.144ZM448.998 19.28C449.202 18.176 449.946 17.648 450.834 17.648C451.806 17.648 452.43 18.356 452.502 19.28H448.998ZM456.834 23.144C457.662 23.144 458.466 22.808 458.886 22.124H458.958L458.97 23H460.062L460.038 21.668V18.896C460.038 17.516 459.114 16.616 457.53 16.616C455.97 16.616 455.034 17.492 454.986 18.704H456.066C456.126 18.056 456.558 17.624 457.53 17.624C458.442 17.624 458.91 18.116 458.91 18.92V19.184L456.894 19.352C455.478 19.472 454.806 20.192 454.806 21.296C454.806 22.388 455.598 23.144 456.834 23.144ZM455.91 21.248C455.91 20.72 456.258 20.324 457.11 20.24L458.898 20.072C458.802 21.524 457.95 22.184 457.026 22.184C456.294 22.184 455.91 21.812 455.91 21.248ZM464.153 23.144C465.041 23.144 465.701 22.76 466.121 22.184H466.193V23H467.321V14.36H466.193V17.576H466.121C465.677 17 465.041 16.616 464.117 16.616C462.509 16.616 461.321 17.912 461.321 19.88C461.321 21.848 462.509 23.144 464.153 23.144ZM462.497 19.88C462.497 18.488 463.229 17.648 464.357 17.648C465.521 17.648 466.229 18.452 466.229 19.88C466.229 21.284 465.521 22.112 464.357 22.112C463.229 22.112 462.497 21.272 462.497 19.88ZM471.8 23.144C473.312 23.144 474.416 22.232 474.608 20.9L473.504 20.636C473.324 21.5 472.808 22.112 471.8 22.112C470.576 22.112 469.88 21.26 469.88 19.88C469.88 18.5 470.588 17.648 471.8 17.648C472.808 17.648 473.348 18.26 473.516 19.112L474.62 18.932C474.416 17.528 473.312 16.616 471.8 16.616C470.036 16.616 468.704 17.9 468.704 19.88C468.704 21.86 470.024 23.144 471.8 23.144ZM478.62 23.144C480.396 23.144 481.68 21.86 481.68 19.88C481.68 17.9 480.396 16.616 478.62 16.616C476.832 16.616 475.56 17.9 475.56 19.88C475.56 21.86 476.832 23.144 478.62 23.144ZM476.736 19.88C476.736 18.5 477.384 17.648 478.62 17.648C479.832 17.648 480.504 18.5 480.504 19.88C480.504 21.26 479.832 22.112 478.62 22.112C477.384 22.112 476.736 21.26 476.736 19.88ZM488.191 16.76H487.063V19.88C487.063 21.464 486.379 22.112 485.371 22.112C484.579 22.112 484.087 21.608 484.087 20.564V16.76H482.959V20.78C482.959 22.28 483.835 23.144 485.167 23.144C485.959 23.144 486.547 22.832 486.991 22.256H487.063V23H488.191V16.76ZM489.875 23H491.003V19.88C491.003 18.296 491.687 17.648 492.695 17.648C493.487 17.648 493.979 18.152 493.979 19.196V23H495.107V18.98C495.107 17.48 494.231 16.616 492.899 16.616C492.107 16.616 491.519 16.928 491.075 17.504H491.003V16.76H489.875V23ZM498.711 23.024H499.839V21.992H498.867C498.411 21.992 498.207 21.8 498.207 21.368V17.744H499.719V16.76H498.207V15.056H497.079V16.76H495.915V17.744H497.079V21.476C497.079 22.436 497.643 23.024 498.711 23.024ZM506.158 23.144C507.766 23.144 508.654 22.364 508.654 21.272C508.654 20.276 508.066 19.592 506.842 19.424L505.57 19.244C505.03 19.172 504.706 18.908 504.706 18.464C504.706 18.032 505.054 17.648 505.942 17.648C506.734 17.648 507.154 17.996 507.394 18.608L508.474 18.26C508.162 17.252 507.286 16.616 505.942 16.616C504.406 16.616 503.614 17.468 503.614 18.464C503.614 19.52 504.262 20.096 505.426 20.252L506.71 20.42C507.25 20.492 507.562 20.828 507.562 21.272C507.562 21.764 507.166 22.112 506.158 22.112C505.198 22.112 504.73 21.704 504.514 20.96L503.398 21.284C503.77 22.448 504.622 23.144 506.158 23.144ZM509.832 23H510.96V16.76H509.832V23ZM509.7 14.9C509.7 15.284 509.976 15.584 510.396 15.584C510.816 15.584 511.092 15.284 511.092 14.9C511.092 14.504 510.816 14.216 510.396 14.216C509.976 14.216 509.7 14.504 509.7 14.9ZM512.645 23H513.773V19.88C513.773 18.296 514.457 17.648 515.465 17.648C516.257 17.648 516.749 18.152 516.749 19.196V23H517.877V18.98C517.877 17.48 517.001 16.616 515.669 16.616C514.877 16.616 514.289 16.928 513.845 17.504H513.773V16.76H512.645V23ZM522.261 23.144C523.773 23.144 524.877 22.232 525.069 20.9L523.965 20.636C523.785 21.5 523.269 22.112 522.261 22.112C521.037 22.112 520.341 21.26 520.341 19.88C520.341 18.5 521.049 17.648 522.261 17.648C523.269 17.648 523.809 18.26 523.977 19.112L525.081 18.932C524.877 17.528 523.773 16.616 522.261 16.616C520.497 16.616 519.165 17.9 519.165 19.88C519.165 21.86 520.485 23.144 522.261 23.144ZM529.032 23.144C530.448 23.144 531.348 22.496 531.744 21.368L530.7 21.008C530.376 21.74 529.884 22.112 529.032 22.112C527.952 22.112 527.28 21.38 527.172 20.204H531.9V19.868C531.9 17.78 530.724 16.616 529.044 16.616C527.316 16.616 526.02 17.936 526.02 19.88C526.02 21.86 527.268 23.144 529.032 23.144ZM527.208 19.28C527.412 18.176 528.156 17.648 529.044 17.648C530.016 17.648 530.64 18.356 530.712 19.28H527.208ZM533.197 22.388C533.197 22.82 533.509 23.144 533.965 23.144C534.421 23.144 534.733 22.82 534.733 22.388C534.733 21.968 534.421 21.644 533.965 21.644C533.509 21.644 533.197 21.968 533.197 22.388Z" fill="#161814"/>
</svg>
