<svg width="127" height="38" viewBox="0 0 127 38" fill="none" xmlns="http://www.w3.org/2000/svg">
<rect x="4" y="4" width="119" height="30" rx="8" fill="white"/>
<path d="M12.888 23H16.74C18.528 23 19.536 22.004 19.536 20.564C19.536 19.268 18.768 18.62 17.82 18.416V18.344C18.564 18.056 19.128 17.54 19.128 16.604C19.128 15.248 18.108 14.36 16.536 14.36H12.888V23ZM14.064 21.896V19.04H16.728C17.688 19.04 18.3 19.532 18.3 20.468C18.3 21.368 17.712 21.896 16.728 21.896H14.064ZM14.064 17.936V15.464H16.488C17.34 15.464 17.916 15.884 17.916 16.688C17.916 17.492 17.328 17.936 16.488 17.936H14.064ZM20.9142 23H22.0422V20.108C22.0422 18.548 22.7622 17.768 23.9262 17.768H24.4422V16.616H24.0942C23.0742 16.616 22.4502 17.12 22.1142 17.768H22.0422V16.76H20.9142V23ZM27.9973 23.144C29.4133 23.144 30.3133 22.496 30.7093 21.368L29.6653 21.008C29.3413 21.74 28.8493 22.112 27.9973 22.112C26.9173 22.112 26.2453 21.38 26.1373 20.204H30.8653V19.868C30.8653 17.78 29.6893 16.616 28.0093 16.616C26.2813 16.616 24.9853 17.936 24.9853 19.88C24.9853 21.86 26.2333 23.144 27.9973 23.144ZM26.1733 19.28C26.3773 18.176 27.1213 17.648 28.0093 17.648C28.9813 17.648 29.6053 18.356 29.6773 19.28H26.1733ZM32.2697 23H33.3977V19.88C33.3977 18.296 34.0817 17.648 35.0897 17.648C35.8817 17.648 36.3737 18.152 36.3737 19.196V23H37.5017V18.98C37.5017 17.48 36.6257 16.616 35.2937 16.616C34.5017 16.616 33.9137 16.928 33.4697 17.504H33.3977V16.76H32.2697V23ZM41.622 23.144C42.51 23.144 43.17 22.76 43.59 22.184H43.662V23H44.79V14.36H43.662V17.576H43.59C43.146 17 42.51 16.616 41.586 16.616C39.978 16.616 38.79 17.912 38.79 19.88C38.79 21.848 39.978 23.144 41.622 23.144ZM39.966 19.88C39.966 18.488 40.698 17.648 41.826 17.648C42.99 17.648 43.698 18.452 43.698 19.88C43.698 21.284 42.99 22.112 41.826 22.112C40.698 22.112 39.966 21.272 39.966 19.88ZM48.2128 23.144C49.0408 23.144 49.8448 22.808 50.2648 22.124H50.3368L50.3488 23H51.4408L51.4168 21.668V18.896C51.4168 17.516 50.4928 16.616 48.9088 16.616C47.3488 16.616 46.4128 17.492 46.3648 18.704H47.4448C47.5048 18.056 47.9368 17.624 48.9088 17.624C49.8208 17.624 50.2888 18.116 50.2888 18.92V19.184L48.2728 19.352C46.8568 19.472 46.1848 20.192 46.1848 21.296C46.1848 22.388 46.9768 23.144 48.2128 23.144ZM47.2888 21.248C47.2888 20.72 47.6368 20.324 48.4888 20.24L50.2768 20.072C50.1808 21.524 49.3288 22.184 48.4048 22.184C47.6728 22.184 47.2888 21.812 47.2888 21.248ZM53.0002 23H54.1282V19.88C54.1282 18.296 54.8122 17.648 55.8202 17.648C56.6122 17.648 57.1042 18.152 57.1042 19.196V23H58.2322V18.98C58.2322 17.48 57.3562 16.616 56.0242 16.616C55.2322 16.616 54.6442 16.928 54.2002 17.504H54.1282V16.76H53.0002V23ZM64.6205 24.968H65.6765C64.5605 23.24 63.9725 21.596 63.9725 19.664C63.9725 17.732 64.5605 16.076 65.6765 14.36H64.6205C63.5885 15.776 62.7725 17.456 62.7725 19.664C62.7725 21.872 63.5885 23.54 64.6205 24.968ZM66.758 25.4H67.886V22.184H67.958C68.402 22.76 69.038 23.144 69.962 23.144C71.57 23.144 72.758 21.848 72.758 19.88C72.758 17.912 71.57 16.616 69.926 16.616C69.038 16.616 68.378 17 67.958 17.576H67.886V16.76H66.758V25.4ZM67.85 19.88C67.85 18.476 68.558 17.648 69.722 17.648C70.85 17.648 71.582 18.488 71.582 19.88C71.582 21.272 70.85 22.112 69.722 22.112C68.558 22.112 67.85 21.308 67.85 19.88ZM74.1408 23H75.2688V20.108C75.2688 18.548 75.9888 17.768 77.1528 17.768H77.6688V16.616H77.3208C76.3008 16.616 75.6768 17.12 75.3408 17.768H75.2688V16.76H74.1408V23ZM81.2719 23.144C83.0479 23.144 84.3319 21.86 84.3319 19.88C84.3319 17.9 83.0479 16.616 81.2719 16.616C79.4839 16.616 78.2119 17.9 78.2119 19.88C78.2119 21.86 79.4839 23.144 81.2719 23.144ZM79.3879 19.88C79.3879 18.5 80.0359 17.648 81.2719 17.648C82.4839 17.648 83.1559 18.5 83.1559 19.88C83.1559 21.26 82.4839 22.112 81.2719 22.112C80.0359 22.112 79.3879 21.26 79.3879 19.88ZM88.2392 23.144C89.1272 23.144 89.7872 22.76 90.2072 22.184H90.2792V23H91.4072V14.36H90.2792V17.576H90.2072C89.7632 17 89.1272 16.616 88.2032 16.616C86.5952 16.616 85.4072 17.912 85.4072 19.88C85.4072 21.848 86.5952 23.144 88.2392 23.144ZM86.5832 19.88C86.5832 18.488 87.3152 17.648 88.4432 17.648C89.6072 17.648 90.3152 18.452 90.3152 19.88C90.3152 21.284 89.6072 22.112 88.4432 22.112C87.3152 22.112 86.5832 21.272 86.5832 19.88ZM98.226 16.76H97.098V19.88C97.098 21.464 96.414 22.112 95.406 22.112C94.614 22.112 94.122 21.608 94.122 20.564V16.76H92.994V20.78C92.994 22.28 93.87 23.144 95.202 23.144C95.994 23.144 96.582 22.832 97.026 22.256H97.098V23H98.226V16.76ZM102.706 23.144C104.218 23.144 105.322 22.232 105.514 20.9L104.41 20.636C104.23 21.5 103.714 22.112 102.706 22.112C101.482 22.112 100.786 21.26 100.786 19.88C100.786 18.5 101.494 17.648 102.706 17.648C103.714 17.648 104.254 18.26 104.422 19.112L105.526 18.932C105.322 17.528 104.218 16.616 102.706 16.616C100.942 16.616 99.6103 17.9 99.6103 19.88C99.6103 21.86 100.93 23.144 102.706 23.144ZM108.782 23.024H109.91V21.992H108.938C108.482 21.992 108.278 21.8 108.278 21.368V17.744H109.79V16.76H108.278V15.056H107.15V16.76H105.986V17.744H107.15V21.476C107.15 22.436 107.714 23.024 108.782 23.024ZM110.385 24.968H111.441C112.473 23.552 113.289 21.872 113.289 19.664C113.289 17.456 112.473 15.788 111.441 14.36H110.385C111.501 16.088 112.089 17.732 112.089 19.664C112.089 21.596 111.501 23.252 110.385 24.968Z" fill="#161814"/>
<rect x="2" y="2" width="123" height="34" rx="10" stroke="#DBDBDB" stroke-opacity="0.5" stroke-width="4"/>
</svg>
