<svg width="117" height="38" viewBox="0 0 117 38" fill="none" xmlns="http://www.w3.org/2000/svg">
<rect x="4" y="4" width="109" height="30" rx="8" fill="white"/>
<path d="M12.888 23H14.064V19.4H15.864L18.132 23H19.608L17.22 19.352C18.588 19.148 19.44 18.212 19.44 16.88C19.44 15.332 18.336 14.36 16.668 14.36H12.888V23ZM14.064 18.32V15.44H16.62C17.592 15.44 18.192 15.896 18.192 16.88C18.192 17.828 17.58 18.32 16.572 18.32H14.064ZM22.3847 23.144C23.2127 23.144 24.0167 22.808 24.4367 22.124H24.5087L24.5207 23H25.6127L25.5887 21.668V18.896C25.5887 17.516 24.6647 16.616 23.0807 16.616C21.5207 16.616 20.5847 17.492 20.5367 18.704H21.6167C21.6767 18.056 22.1087 17.624 23.0807 17.624C23.9927 17.624 24.4607 18.116 24.4607 18.92V19.184L22.4447 19.352C21.0287 19.472 20.3567 20.192 20.3567 21.296C20.3567 22.388 21.1487 23.144 22.3847 23.144ZM21.4607 21.248C21.4607 20.72 21.8087 20.324 22.6607 20.24L24.4487 20.072C24.3527 21.524 23.5007 22.184 22.5767 22.184C21.8447 22.184 21.4607 21.812 21.4607 21.248ZM29.968 23.144C31.48 23.144 32.584 22.232 32.776 20.9L31.672 20.636C31.492 21.5 30.976 22.112 29.968 22.112C28.744 22.112 28.048 21.26 28.048 19.88C28.048 18.5 28.756 17.648 29.968 17.648C30.976 17.648 31.516 18.26 31.684 19.112L32.788 18.932C32.584 17.528 31.48 16.616 29.968 16.616C28.204 16.616 26.872 17.9 26.872 19.88C26.872 21.86 28.192 23.144 29.968 23.144ZM34.0275 23H35.1555V19.88C35.1555 18.296 35.8395 17.648 36.8475 17.648C37.6395 17.648 38.1315 18.152 38.1315 19.208V23H39.2595V18.992C39.2595 17.48 38.3835 16.616 37.0515 16.616C36.2595 16.616 35.6715 16.928 35.2275 17.504H35.1555V14.36H34.0275V23ZM43.5598 23.144C44.9758 23.144 45.8758 22.496 46.2718 21.368L45.2278 21.008C44.9038 21.74 44.4118 22.112 43.5598 22.112C42.4798 22.112 41.8078 21.38 41.6998 20.204H46.4278V19.868C46.4278 17.78 45.2518 16.616 43.5718 16.616C41.8438 16.616 40.5478 17.936 40.5478 19.88C40.5478 21.86 41.7958 23.144 43.5598 23.144ZM41.7358 19.28C41.9398 18.176 42.6838 17.648 43.5718 17.648C44.5438 17.648 45.1678 18.356 45.2398 19.28H41.7358ZM47.8322 23H48.9602V14.36H47.8322V23ZM55.4447 24.968H56.5007C55.3847 23.24 54.7967 21.596 54.7967 19.664C54.7967 17.732 55.3847 16.076 56.5007 14.36H55.4447C54.4127 15.776 53.5967 17.456 53.5967 19.664C53.5967 21.872 54.4127 23.54 55.4447 24.968ZM57.5822 25.4H58.7102V22.184H58.7822C59.2262 22.76 59.8622 23.144 60.7862 23.144C62.3942 23.144 63.5822 21.848 63.5822 19.88C63.5822 17.912 62.3942 16.616 60.7502 16.616C59.8622 16.616 59.2022 17 58.7822 17.576H58.7102V16.76H57.5822V25.4ZM58.6742 19.88C58.6742 18.476 59.3822 17.648 60.5462 17.648C61.6742 17.648 62.4062 18.488 62.4062 19.88C62.4062 21.272 61.6742 22.112 60.5462 22.112C59.3822 22.112 58.6742 21.308 58.6742 19.88ZM64.965 23H66.093V20.108C66.093 18.548 66.813 17.768 67.977 17.768H68.493V16.616H68.145C67.125 16.616 66.501 17.12 66.165 17.768H66.093V16.76H64.965V23ZM72.0961 23.144C73.8721 23.144 75.1561 21.86 75.1561 19.88C75.1561 17.9 73.8721 16.616 72.0961 16.616C70.3081 16.616 69.0361 17.9 69.0361 19.88C69.0361 21.86 70.3081 23.144 72.0961 23.144ZM70.2121 19.88C70.2121 18.5 70.8601 17.648 72.0961 17.648C73.3081 17.648 73.9801 18.5 73.9801 19.88C73.9801 21.26 73.3081 22.112 72.0961 22.112C70.8601 22.112 70.2121 21.26 70.2121 19.88ZM79.0634 23.144C79.9514 23.144 80.6114 22.76 81.0314 22.184H81.1034V23H82.2314V14.36H81.1034V17.576H81.0314C80.5874 17 79.9514 16.616 79.0274 16.616C77.4194 16.616 76.2314 17.912 76.2314 19.88C76.2314 21.848 77.4194 23.144 79.0634 23.144ZM77.4074 19.88C77.4074 18.488 78.1394 17.648 79.2674 17.648C80.4314 17.648 81.1394 18.452 81.1394 19.88C81.1394 21.284 80.4314 22.112 79.2674 22.112C78.1394 22.112 77.4074 21.272 77.4074 19.88ZM89.0502 16.76H87.9222V19.88C87.9222 21.464 87.2382 22.112 86.2302 22.112C85.4382 22.112 84.9462 21.608 84.9462 20.564V16.76H83.8182V20.78C83.8182 22.28 84.6942 23.144 86.0262 23.144C86.8182 23.144 87.4062 22.832 87.8502 22.256H87.9222V23H89.0502V16.76ZM93.5305 23.144C95.0425 23.144 96.1465 22.232 96.3385 20.9L95.2345 20.636C95.0545 21.5 94.5385 22.112 93.5305 22.112C92.3065 22.112 91.6105 21.26 91.6105 19.88C91.6105 18.5 92.3185 17.648 93.5305 17.648C94.5385 17.648 95.0785 18.26 95.2465 19.112L96.3505 18.932C96.1465 17.528 95.0425 16.616 93.5305 16.616C91.7665 16.616 90.4345 17.9 90.4345 19.88C90.4345 21.86 91.7545 23.144 93.5305 23.144ZM99.606 23.024H100.734V21.992H99.762C99.306 21.992 99.102 21.8 99.102 21.368V17.744H100.614V16.76H99.102V15.056H97.974V16.76H96.81V17.744H97.974V21.476C97.974 22.436 98.538 23.024 99.606 23.024ZM101.209 24.968H102.265C103.297 23.552 104.113 21.872 104.113 19.664C104.113 17.456 103.297 15.788 102.265 14.36H101.209C102.325 16.088 102.913 17.732 102.913 19.664C102.913 21.596 102.325 23.252 101.209 24.968Z" fill="#161814"/>
<rect x="2" y="2" width="113" height="34" rx="10" stroke="#DBDBDB" stroke-opacity="0.5" stroke-width="4"/>
</svg>
