<svg width="94" height="38" viewBox="0 0 94 38" fill="none" xmlns="http://www.w3.org/2000/svg">
<rect x="4" y="4" width="86" height="30" rx="8" fill="white"/>
<path d="M12.888 23H14.016V15.716H14.124L18.36 23H20.112V14.36H18.984V21.752H18.876L14.532 14.36H12.888V23ZM21.84 23H22.968V16.76H21.84V23ZM21.708 14.9C21.708 15.284 21.984 15.584 22.404 15.584C22.824 15.584 23.1 15.284 23.1 14.9C23.1 14.504 22.824 14.216 22.404 14.216C21.984 14.216 21.708 14.504 21.708 14.9ZM24.6525 23H25.7805V21.524L26.8365 20.312L28.7205 23H30.1485L27.5565 19.508L29.9685 16.76H28.5405L25.8525 19.904H25.7805V14.36H24.6525V23ZM31.0627 23H32.1907V16.76H31.0627V23ZM30.9307 14.9C30.9307 15.284 31.2067 15.584 31.6267 15.584C32.0467 15.584 32.3227 15.284 32.3227 14.9C32.3227 14.504 32.0467 14.216 31.6267 14.216C31.2067 14.216 30.9307 14.504 30.9307 14.9ZM35.8912 23.024H37.0192V21.992H36.0472C35.5912 21.992 35.3872 21.8 35.3872 21.368V17.744H36.8992V16.76H35.3872V15.056H34.2592V16.76H33.0952V17.744H34.2592V21.476C34.2592 22.436 34.8232 23.024 35.8912 23.024ZM39.8339 23.144C40.6619 23.144 41.4659 22.808 41.8859 22.124H41.9579L41.9699 23H43.0619L43.0379 21.668V18.896C43.0379 17.516 42.1139 16.616 40.5299 16.616C38.9699 16.616 38.0339 17.492 37.9859 18.704H39.0659C39.1259 18.056 39.5579 17.624 40.5299 17.624C41.4419 17.624 41.9099 18.116 41.9099 18.92V19.184L39.8939 19.352C38.4779 19.472 37.8059 20.192 37.8059 21.296C37.8059 22.388 38.5979 23.144 39.8339 23.144ZM38.9099 21.248C38.9099 20.72 39.2579 20.324 40.1099 20.24L41.8979 20.072C41.8019 21.524 40.9499 22.184 40.0259 22.184C39.2939 22.184 38.9099 21.812 38.9099 21.248ZM49.4213 24.968H50.4773C49.3613 23.24 48.7733 21.596 48.7733 19.664C48.7733 17.732 49.3613 16.076 50.4773 14.36H49.4213C48.3893 15.776 47.5732 17.456 47.5732 19.664C47.5732 21.872 48.3893 23.54 49.4213 24.968ZM55.4348 23.144C57.6188 23.144 59.2508 21.752 59.2508 19.436V18.452H55.3388V19.556H58.0268C57.9908 21.14 57.0428 22.04 55.4588 22.04C53.5148 22.04 52.5308 20.756 52.5308 18.68C52.5308 16.604 53.5268 15.32 55.4588 15.32C56.7668 15.32 57.6068 15.908 57.8948 17L59.1068 16.736C58.7588 15.308 57.5228 14.216 55.4588 14.216C53.0228 14.216 51.2828 15.968 51.2828 18.68C51.2828 21.392 52.9988 23.144 55.4348 23.144ZM62.6072 23H63.7832V15.44H66.6872V14.36H59.7032V15.44H62.6072V23ZM67.9075 23H69.0355V15.716H69.1795L71.6515 23H73.1395L75.5995 15.716H75.7435V23H76.9195V14.36H74.9035L72.4915 21.584H72.3595L69.9355 14.36H67.9075V23ZM78.0525 24.968H79.1085C80.1405 23.552 80.9565 21.872 80.9565 19.664C80.9565 17.456 80.1405 15.788 79.1085 14.36H78.0525C79.1685 16.088 79.7565 17.732 79.7565 19.664C79.7565 21.596 79.1685 23.252 78.0525 24.968Z" fill="#161814"/>
<rect x="2" y="2" width="90" height="34" rx="10" stroke="#DBDBDB" stroke-opacity="0.5" stroke-width="4"/>
</svg>
