<svg width="154" height="38" viewBox="0 0 154 38" fill="none" xmlns="http://www.w3.org/2000/svg">
<rect x="4" y="4" width="146" height="30" rx="8" fill="white"/>
<path d="M12.048 23H13.32L14.112 20.84H17.988L18.78 23H20.1L16.776 14.36H15.372L12.048 23ZM14.52 19.736L15.972 15.776H16.116L17.58 19.736H14.52ZM20.9845 23H22.1125V20.108C22.1125 18.548 22.8325 17.768 23.9965 17.768H24.5125V16.616H24.1645C23.1445 16.616 22.5205 17.12 22.1845 17.768H22.1125V16.76H20.9845V23ZM25.59 23H26.718V16.76H25.59V23ZM25.458 14.9C25.458 15.284 25.734 15.584 26.154 15.584C26.574 15.584 26.85 15.284 26.85 14.9C26.85 14.504 26.574 14.216 26.154 14.216C25.734 14.216 25.458 14.504 25.458 14.9ZM31.1145 23.144C32.5305 23.144 33.4305 22.496 33.8265 21.368L32.7825 21.008C32.4585 21.74 31.9665 22.112 31.1145 22.112C30.0345 22.112 29.3625 21.38 29.2545 20.204H33.9825V19.868C33.9825 17.78 32.8065 16.616 31.1265 16.616C29.3985 16.616 28.1025 17.936 28.1025 19.88C28.1025 21.86 29.3505 23.144 31.1145 23.144ZM29.2905 19.28C29.4945 18.176 30.2385 17.648 31.1265 17.648C32.0985 17.648 32.7225 18.356 32.7945 19.28H29.2905ZM35.3869 23H36.5149V14.36H35.3869V23ZM42.9994 24.968H44.0554C42.9394 23.24 42.3514 21.596 42.3514 19.664C42.3514 17.732 42.9394 16.076 44.0554 14.36H42.9994C41.9674 15.776 41.1514 17.456 41.1514 19.664C41.1514 21.872 41.9674 23.54 42.9994 24.968ZM47.9329 23.144C49.4449 23.144 50.5489 22.232 50.7409 20.9L49.6369 20.636C49.4569 21.5 48.9409 22.112 47.9329 22.112C46.7089 22.112 46.0129 21.26 46.0129 19.88C46.0129 18.5 46.7209 17.648 47.9329 17.648C48.9409 17.648 49.4809 18.26 49.6489 19.112L50.7529 18.932C50.5489 17.528 49.4449 16.616 47.9329 16.616C46.1689 16.616 44.8369 17.9 44.8369 19.88C44.8369 21.86 46.1569 23.144 47.9329 23.144ZM51.9923 23H53.1203V14.36H51.9923V23ZM54.8048 23H55.9328V16.76H54.8048V23ZM54.6728 14.9C54.6728 15.284 54.9488 15.584 55.3688 15.584C55.7888 15.584 56.0648 15.284 56.0648 14.9C56.0648 14.504 55.7888 14.216 55.3688 14.216C54.9488 14.216 54.6728 14.504 54.6728 14.9ZM57.6173 23H58.7453V19.688C58.7453 18.248 59.3453 17.648 60.2933 17.648C61.0493 17.648 61.4933 18.152 61.4933 19.112V23H62.6213V19.688C62.6213 18.248 63.2213 17.648 64.1693 17.648C64.9253 17.648 65.3693 18.152 65.3693 19.112V23H66.4973V18.836C66.4973 17.48 65.6213 16.616 64.3733 16.616C63.4733 16.616 62.8733 16.976 62.4293 17.648H62.3693C62.0453 17 61.4093 16.616 60.5333 16.616C59.7533 16.616 59.2253 16.916 58.8173 17.468H58.7453V16.76H57.6173V23ZM69.8222 23.144C70.6502 23.144 71.4542 22.808 71.8742 22.124H71.9462L71.9582 23H73.0502L73.0262 21.668V18.896C73.0262 17.516 72.1022 16.616 70.5182 16.616C68.9582 16.616 68.0222 17.492 67.9742 18.704H69.0542C69.1142 18.056 69.5462 17.624 70.5182 17.624C71.4302 17.624 71.8982 18.116 71.8982 18.92V19.184L69.8822 19.352C68.4662 19.472 67.7942 20.192 67.7942 21.296C67.7942 22.388 68.5862 23.144 69.8222 23.144ZM68.8982 21.248C68.8982 20.72 69.2462 20.324 70.0982 20.24L71.8862 20.072C71.7902 21.524 70.9382 22.184 70.0142 22.184C69.2822 22.184 68.8982 21.812 68.8982 21.248ZM76.6255 23.024H77.7535V21.992H76.7815C76.3255 21.992 76.1215 21.8 76.1215 21.368V17.744H77.6335V16.76H76.1215V15.056H74.9935V16.76H73.8295V17.744H74.9935V21.476C74.9935 22.436 75.5575 23.024 76.6255 23.024ZM81.4231 23.144C82.8391 23.144 83.7391 22.496 84.1351 21.368L83.0911 21.008C82.7671 21.74 82.2751 22.112 81.4231 22.112C80.3431 22.112 79.6711 21.38 79.5631 20.204H84.2911V19.868C84.2911 17.78 83.1151 16.616 81.4351 16.616C79.7071 16.616 78.4111 17.936 78.4111 19.88C78.4111 21.86 79.6591 23.144 81.4231 23.144ZM79.5991 19.28C79.8031 18.176 80.5471 17.648 81.4351 17.648C82.4071 17.648 83.0311 18.356 83.1031 19.28H79.5991ZM90.9395 23.144C92.5475 23.144 93.4355 22.364 93.4355 21.272C93.4355 20.276 92.8475 19.592 91.6235 19.424L90.3515 19.244C89.8115 19.172 89.4875 18.908 89.4875 18.464C89.4875 18.032 89.8355 17.648 90.7235 17.648C91.5155 17.648 91.9355 17.996 92.1755 18.608L93.2555 18.26C92.9435 17.252 92.0675 16.616 90.7235 16.616C89.1875 16.616 88.3955 17.468 88.3955 18.464C88.3955 19.52 89.0435 20.096 90.2075 20.252L91.4915 20.42C92.0315 20.492 92.3435 20.828 92.3435 21.272C92.3435 21.764 91.9475 22.112 90.9395 22.112C89.9795 22.112 89.5115 21.704 89.2955 20.96L88.1795 21.284C88.5515 22.448 89.4035 23.144 90.9395 23.144ZM97.3734 23.144C99.1494 23.144 100.433 21.86 100.433 19.88C100.433 17.9 99.1494 16.616 97.3734 16.616C95.5854 16.616 94.3134 17.9 94.3134 19.88C94.3134 21.86 95.5854 23.144 97.3734 23.144ZM95.4894 19.88C95.4894 18.5 96.1374 17.648 97.3734 17.648C98.5854 17.648 99.2574 18.5 99.2574 19.88C99.2574 21.26 98.5854 22.112 97.3734 22.112C96.1374 22.112 95.4894 21.26 95.4894 19.88ZM101.809 23H102.937V14.36H101.809V23ZM109.757 16.76H108.629V19.88C108.629 21.464 107.945 22.112 106.937 22.112C106.145 22.112 105.653 21.608 105.653 20.564V16.76H104.525V20.78C104.525 22.28 105.401 23.144 106.733 23.144C107.525 23.144 108.113 22.832 108.557 22.256H108.629V23H109.757V16.76ZM113.458 23.024H114.586V21.992H113.614C113.158 21.992 112.954 21.8 112.954 21.368V17.744H114.466V16.76H112.954V15.056H111.826V16.76H110.662V17.744H111.826V21.476C111.826 22.436 112.39 23.024 113.458 23.024ZM115.66 23H116.788V16.76H115.66V23ZM115.528 14.9C115.528 15.284 115.804 15.584 116.224 15.584C116.644 15.584 116.92 15.284 116.92 14.9C116.92 14.504 116.644 14.216 116.224 14.216C115.804 14.216 115.528 14.504 115.528 14.9ZM121.233 23.144C123.009 23.144 124.293 21.86 124.293 19.88C124.293 17.9 123.009 16.616 121.233 16.616C119.445 16.616 118.173 17.9 118.173 19.88C118.173 21.86 119.445 23.144 121.233 23.144ZM119.349 19.88C119.349 18.5 119.997 17.648 121.233 17.648C122.445 17.648 123.117 18.5 123.117 19.88C123.117 21.26 122.445 22.112 121.233 22.112C119.997 22.112 119.349 21.26 119.349 19.88ZM125.668 23H126.796V19.88C126.796 18.296 127.48 17.648 128.488 17.648C129.28 17.648 129.772 18.152 129.772 19.196V23H130.9V18.98C130.9 17.48 130.024 16.616 128.692 16.616C127.9 16.616 127.312 16.928 126.868 17.504H126.796V16.76H125.668V23ZM134.732 23.144C136.34 23.144 137.228 22.364 137.228 21.272C137.228 20.276 136.64 19.592 135.416 19.424L134.144 19.244C133.604 19.172 133.28 18.908 133.28 18.464C133.28 18.032 133.628 17.648 134.516 17.648C135.308 17.648 135.728 17.996 135.968 18.608L137.048 18.26C136.736 17.252 135.86 16.616 134.516 16.616C132.98 16.616 132.188 17.468 132.188 18.464C132.188 19.52 132.836 20.096 134 20.252L135.284 20.42C135.824 20.492 136.136 20.828 136.136 21.272C136.136 21.764 135.74 22.112 134.732 22.112C133.772 22.112 133.304 21.704 133.088 20.96L131.972 21.284C132.344 22.448 133.196 23.144 134.732 23.144ZM137.806 24.968H138.862C139.894 23.552 140.71 21.872 140.71 19.664C140.71 17.456 139.894 15.788 138.862 14.36H137.806C138.922 16.088 139.51 17.732 139.51 19.664C139.51 21.596 138.922 23.252 137.806 24.968Z" fill="#161814"/>
<rect x="2" y="2" width="150" height="34" rx="10" stroke="#DBDBDB" stroke-opacity="0.5" stroke-width="4"/>
</svg>
