<svg width="370" height="188" viewBox="0 0 370 188" fill="none" xmlns="http://www.w3.org/2000/svg">
<path d="M118.73 72.9749C118.879 73.1179 119.055 73.2314 119.248 73.3088C119.442 73.3863 119.65 73.4262 119.86 73.4262C120.07 73.4262 120.277 73.3863 120.471 73.3088C120.665 73.2314 120.841 73.1179 120.989 72.9749L154.814 40.3967C154.962 40.2538 155.08 40.0843 155.16 39.8976C155.241 39.711 155.282 39.511 155.282 39.309C155.282 39.1069 155.241 38.9069 155.16 38.7203C155.08 38.5336 154.962 38.3641 154.814 38.2212C154.666 38.0784 154.49 37.965 154.296 37.8877C154.102 37.8104 153.894 37.7706 153.685 37.7706C153.475 37.7706 153.267 37.8104 153.073 37.8877C152.88 37.965 152.704 38.0784 152.555 38.2212L118.73 70.7993C118.579 70.9408 118.46 71.1099 118.378 71.2967C118.296 71.4835 118.253 71.6843 118.253 71.8871C118.253 72.0899 118.296 72.2907 118.378 72.4775C118.46 72.6643 118.579 72.8335 118.73 72.9749Z" fill="white"/>
<path d="M123.547 79.012C123.759 79.3653 124.108 79.6231 124.518 79.7287C124.927 79.8342 125.363 79.7789 125.73 79.5749L180.959 48.8623C181.146 48.7638 181.311 48.6303 181.443 48.4698C181.576 48.3092 181.673 48.1248 181.731 47.9273C181.788 47.7298 181.804 47.5233 181.777 47.3198C181.751 47.1163 181.682 46.92 181.576 46.7424C181.469 46.5648 181.327 46.4095 181.157 46.2856C180.988 46.1617 180.794 46.0718 180.588 46.021C180.381 45.9702 180.167 45.9596 179.956 45.9899C179.745 46.0202 179.543 46.0907 179.361 46.1973L124.132 76.9099C123.766 77.1151 123.5 77.4513 123.39 77.845C123.281 78.2388 123.337 78.6582 123.547 79.012Z" fill="white"/>
<path d="M68.0475 86.0524C68.1547 85.6584 68.0962 85.2395 67.8848 84.8867C67.6733 84.5339 67.326 84.2756 66.9181 84.1679L20.7209 72.2516C20.312 72.1452 19.876 72.1996 19.5088 72.4028C19.1416 72.6061 18.8732 72.9415 18.7628 73.3353C18.6523 73.7291 18.7088 74.149 18.9198 74.5027C19.1308 74.8563 19.4791 75.1148 19.8879 75.2211L66.0852 87.1375C66.4948 87.244 66.9315 87.1895 67.2994 86.9861C67.6674 86.7826 67.9364 86.4468 68.0475 86.0524Z" fill="white"/>
<path d="M147.191 95.1407H192.962C193.374 95.124 193.763 94.9547 194.048 94.6681C194.334 94.3816 194.493 93.9999 194.493 93.6029C194.493 93.2059 194.334 92.8242 194.048 92.5376C193.763 92.2511 193.374 92.0817 192.962 92.0651H136.18C139.914 92.9643 143.585 93.9895 147.191 95.1407Z" fill="white"/>
<path d="M112.454 68.3411C112.821 68.5443 113.257 68.5992 113.666 68.4937C114.075 68.3882 114.424 68.1309 114.636 67.7782L146.524 14.5844C146.635 14.4092 146.708 14.2145 146.74 14.0116C146.771 13.8088 146.76 13.602 146.707 13.4033C146.655 13.2046 146.561 13.018 146.433 12.8546C146.304 12.6912 146.143 12.5541 145.958 12.4516C145.774 12.349 145.57 12.283 145.359 12.2573C145.148 12.2317 144.933 12.2469 144.728 12.3023C144.523 12.3576 144.332 12.4518 144.165 12.5794C143.998 12.7069 143.86 12.8654 143.757 13.0453L111.869 66.239C111.657 66.5924 111.6 67.0124 111.71 67.4066C111.819 67.8008 112.087 68.1369 112.454 68.3411Z" fill="white"/>
<path d="M128.517 87.1375L174.715 75.2212C174.917 75.1685 175.107 75.0779 175.273 74.9546C175.439 74.8314 175.578 74.6778 175.683 74.5026C175.787 74.3275 175.855 74.1343 175.882 73.934C175.909 73.7337 175.894 73.5303 175.84 73.3353C175.785 73.1403 175.691 72.9576 175.563 72.7976C175.435 72.6376 175.276 72.5035 175.094 72.4029C174.912 72.3022 174.711 72.2371 174.503 72.2111C174.295 72.1852 174.084 72.1989 173.882 72.2516L127.684 84.1679C127.482 84.2196 127.291 84.3096 127.124 84.4324C126.958 84.5553 126.818 84.7087 126.713 84.8839C126.608 85.059 126.54 85.2524 126.513 85.453C126.486 85.6535 126.5 85.8573 126.555 86.0525C126.669 86.4452 126.938 86.7792 127.305 86.9822C127.673 87.1852 128.108 87.241 128.517 87.1375Z" fill="white"/>
<path d="M97.3262 64.4281C97.5362 64.4284 97.7441 64.3889 97.9382 64.3116C98.1323 64.2344 98.3086 64.1211 98.457 63.9781C98.6055 63.8351 98.7232 63.6653 98.8034 63.4784C98.8836 63.2915 98.9246 63.0911 98.9243 62.8889V1.47448C98.9069 1.07782 98.7312 0.70295 98.4336 0.428181C98.1361 0.153411 97.7398 0 97.3276 0C96.9154 0 96.5192 0.153411 96.2216 0.428181C95.9241 0.70295 95.7483 1.07782 95.731 1.47448V62.8916C95.731 63.2991 95.899 63.6899 96.1982 63.9781C96.4974 64.2662 96.9031 64.4281 97.3262 64.4281Z" fill="white"/>
<path d="M13.6703 48.873L68.9025 79.5856C69.2687 79.7788 69.6989 79.8262 70.1009 79.7177C70.503 79.6093 70.845 79.3536 71.0538 79.0054C71.2626 78.6572 71.3216 78.2441 71.2183 77.8545C71.1149 77.4648 70.8573 77.1297 70.5006 76.9207L15.2683 46.208C14.9021 46.0149 14.472 45.9675 14.0699 46.076C13.6679 46.1844 13.3259 46.4401 13.1171 46.7883C12.9082 47.1365 12.8492 47.5496 12.9526 47.9392C13.056 48.3288 13.3136 48.664 13.6703 48.873Z" fill="white"/>
<path d="M105.155 65.4262C105.564 65.5295 105.999 65.4732 106.366 65.2696C106.732 65.0659 107 64.7313 107.112 64.3385L119.484 19.844C119.595 19.4502 119.538 19.0303 119.327 18.6767C119.116 18.323 118.768 18.0645 118.359 17.9581C117.95 17.8518 117.514 17.9062 117.147 18.1094C116.78 18.3126 116.511 18.648 116.401 19.0418L104.029 63.5363C103.972 63.7316 103.957 63.9358 103.983 64.137C104.009 64.3381 104.077 64.5322 104.182 64.7081C104.287 64.8839 104.427 65.0379 104.594 65.1612C104.761 65.2845 104.952 65.3746 105.155 65.4262Z" fill="white"/>
<path d="M1.65947 95.1403H47.4275C51.0378 93.9927 54.7082 92.9712 58.439 92.0756H1.65947C1.44489 92.0669 1.23071 92.1 1.0298 92.1731C0.828886 92.2462 0.645399 92.3577 0.490374 92.5009C0.33535 92.644 0.211989 92.8159 0.127718 93.0061C0.0434468 93.1964 0 93.4011 0 93.6079C0 93.8148 0.0434468 94.0195 0.127718 94.2098C0.211989 94.4 0.33535 94.5719 0.490374 94.715C0.645399 94.8582 0.828886 94.9697 1.0298 95.0428C1.23071 95.1158 1.44489 95.149 1.65947 95.1403Z" fill="white"/>
<path d="M73.6379 72.9749C73.7862 73.1177 73.9623 73.231 74.156 73.3083C74.3498 73.3856 74.5575 73.4254 74.7673 73.4254C74.977 73.4254 75.1847 73.3856 75.3785 73.3083C75.5723 73.231 75.7483 73.1177 75.8966 72.9749C76.045 72.832 76.1626 72.6624 76.2429 72.4758C76.3231 72.2891 76.3644 72.0891 76.3644 71.8871C76.3644 71.6851 76.3231 71.485 76.2429 71.2984C76.1626 71.1118 76.045 70.9422 75.8966 70.7994L42.0718 38.2212C41.7722 37.9327 41.366 37.7706 40.9424 37.7706C40.5188 37.7706 40.1125 37.9327 39.813 38.2212C39.5135 38.5097 39.3452 38.901 39.3452 39.309C39.3452 39.7169 39.5135 40.1082 39.813 40.3967L73.6379 72.9749Z" fill="white"/>
<path d="M79.9935 67.7781C80.2105 68.1216 80.5585 68.3697 80.963 68.4693C81.3675 68.5689 81.7965 68.512 82.158 68.3109C82.5195 68.1098 82.785 67.7804 82.8976 67.3932C83.0102 67.0059 82.961 66.5916 82.7605 66.2389L50.8725 13.0452C50.6555 12.7016 50.3075 12.4536 49.903 12.354C49.4985 12.2544 49.0696 12.3112 48.708 12.5124C48.3465 12.7135 48.081 13.0429 47.9684 13.4301C47.8558 13.8173 47.905 14.2316 48.1055 14.5843L79.9935 67.7781Z" fill="white"/>
<path d="M87.5181 64.3411C87.6286 64.7349 87.8969 65.0703 88.2641 65.2735C88.6313 65.4767 89.0673 65.5311 89.4762 65.4247C89.885 65.3184 90.2333 65.0599 90.4443 64.7062C90.6553 64.3525 90.7118 63.9326 90.6013 63.5389L78.2205 19.0335C78.1658 18.8385 78.0718 18.6558 77.9438 18.4958C77.8158 18.3359 77.6563 18.2017 77.4745 18.1011C77.2927 18.0005 77.0921 17.9353 76.8841 17.9094C76.6761 17.8834 76.4649 17.8971 76.2625 17.9498C76.06 18.0025 75.8703 18.0931 75.7042 18.2163C75.5381 18.3396 75.3988 18.4932 75.2944 18.6683C75.1899 18.8435 75.1222 19.0367 75.0953 19.237C75.0683 19.4373 75.0826 19.6408 75.1373 19.8357L87.5181 64.3411Z" fill="white"/>
<path d="M177.473 115.069C153.344 100.836 125.6 93.3036 97.305 93.3036C69.0104 93.3036 41.2665 100.836 17.1375 115.069C16.7231 115.333 16.4313 115.741 16.3237 116.208C16.2162 116.675 16.3013 117.164 16.5612 117.572C16.821 117.98 17.2352 118.274 17.7163 118.393C18.1974 118.512 18.7076 118.446 19.1393 118.21C42.6649 104.33 69.7165 96.9844 97.305 96.9844C124.894 96.9844 151.945 104.33 175.471 118.21C175.902 118.446 176.413 118.512 176.894 118.393C177.375 118.274 177.789 117.98 178.049 117.572C178.309 117.164 178.394 116.675 178.286 116.208C178.179 115.741 177.887 115.333 177.473 115.069Z" fill="white"/>
<path d="M95.7197 124.309V175.509C95.7191 176.52 95.9255 177.52 96.3272 178.454C96.7288 179.387 97.3179 180.235 98.0604 180.948L99.3761 182.215C99.6756 182.504 100.082 182.666 100.505 182.666C100.929 182.666 101.335 182.504 101.635 182.215C101.934 181.927 102.103 181.536 102.103 181.128C102.103 180.72 101.934 180.328 101.635 180.04L100.319 178.773C99.4182 177.908 98.9105 176.734 98.9074 175.509V124.309C98.9164 124.102 98.882 123.896 98.8061 123.703C98.7302 123.509 98.6145 123.332 98.4659 123.183C98.3173 123.034 98.1388 122.915 97.9412 122.834C97.7437 122.753 97.5312 122.711 97.3164 122.711C97.1016 122.711 96.8891 122.753 96.6915 122.834C96.494 122.915 96.3156 123.034 96.1669 123.183C96.0183 123.332 95.9026 123.509 95.8267 123.703C95.7508 123.896 95.7163 124.102 95.7254 124.309H95.7197Z" fill="white"/>
<path d="M96.1809 171.468L102.288 177.35C103.189 178.214 103.697 179.388 103.7 180.613V185.747C103.717 186.144 103.893 186.519 104.19 186.793C104.488 187.068 104.884 187.222 105.296 187.222C105.709 187.222 106.105 187.068 106.402 186.793C106.7 186.519 106.876 186.144 106.893 185.747V180.613C106.894 179.603 106.687 178.602 106.286 177.669C105.884 176.736 105.295 175.888 104.552 175.174L98.4453 169.292C98.1458 169.004 97.7395 168.842 97.3159 168.842C96.8923 168.842 96.4861 169.004 96.1866 169.292C95.8871 169.581 95.7188 169.972 95.7188 170.38C95.7188 170.788 95.8871 171.179 96.1866 171.468H96.1809Z" fill="white"/>
<path d="M104.021 123.67L113.649 158.295C113.919 159.269 114.386 160.182 115.024 160.981C115.661 161.78 116.455 162.451 117.362 162.954L118.983 163.854C119.164 163.96 119.367 164.031 119.577 164.061C119.788 164.091 120.003 164.081 120.209 164.03C120.415 163.979 120.609 163.889 120.779 163.765C120.948 163.642 121.091 163.486 121.197 163.309C121.304 163.131 121.372 162.935 121.399 162.731C121.425 162.528 121.409 162.321 121.352 162.124C121.295 161.926 121.197 161.742 121.064 161.581C120.932 161.421 120.767 161.287 120.581 161.189L118.96 160.289C118.415 159.988 117.937 159.586 117.555 159.106C117.172 158.626 116.893 158.078 116.732 157.493L107.104 122.867C106.994 122.474 106.726 122.138 106.358 121.935C105.991 121.732 105.555 121.677 105.146 121.784C104.737 121.89 104.389 122.149 104.178 122.502C103.967 122.856 103.911 123.276 104.021 123.67Z" fill="white"/>
<path d="M113.019 154.274L120.499 158.434C121.044 158.735 121.521 159.137 121.904 159.617C122.286 160.097 122.566 160.645 122.726 161.23L124.11 166.193C124.22 166.586 124.489 166.922 124.856 167.125C125.223 167.328 125.659 167.383 126.068 167.276C126.477 167.17 126.825 166.911 127.036 166.558C127.247 166.204 127.304 165.784 127.193 165.39L125.81 160.427C125.539 159.454 125.072 158.541 124.435 157.742C123.798 156.943 123.003 156.272 122.097 155.769L114.617 151.609C114.251 151.415 113.821 151.368 113.419 151.476C113.017 151.585 112.675 151.841 112.466 152.189C112.257 152.537 112.198 152.95 112.302 153.34C112.405 153.729 112.663 154.065 113.019 154.274Z" fill="white"/>
<path d="M118.737 116.4L145.046 141.739C145.787 142.455 146.667 143.022 147.636 143.409C148.605 143.796 149.644 143.994 150.693 143.994H152.559C152.971 143.977 153.36 143.808 153.646 143.521C153.931 143.235 154.09 142.853 154.09 142.456C154.09 142.059 153.931 141.677 153.646 141.391C153.36 141.104 152.971 140.935 152.559 140.918H150.693C149.421 140.915 148.203 140.426 147.305 139.559L120.996 114.219C120.697 113.931 120.29 113.769 119.867 113.769C119.443 113.769 119.037 113.931 118.737 114.219C118.438 114.508 118.27 114.899 118.27 115.307C118.27 115.715 118.438 116.106 118.737 116.395V116.4Z" fill="white"/>
<path d="M142.403 138.572H151.032C152.303 138.575 153.522 139.064 154.42 139.931L158.189 143.562C158.489 143.85 158.895 144.012 159.318 144.012C159.742 144.012 160.148 143.85 160.448 143.562C160.747 143.273 160.916 142.882 160.916 142.474C160.916 142.066 160.747 141.675 160.448 141.386L156.678 137.756C155.938 137.041 155.057 136.473 154.088 136.086C153.119 135.7 152.081 135.501 151.032 135.501H142.403C142.189 135.493 141.974 135.526 141.773 135.599C141.573 135.672 141.389 135.783 141.234 135.927C141.079 136.07 140.956 136.242 140.871 136.432C140.787 136.622 140.744 136.827 140.744 137.034C140.744 137.241 140.787 137.445 140.871 137.636C140.956 137.826 141.079 137.998 141.234 138.141C141.389 138.284 141.573 138.395 141.773 138.469C141.974 138.542 142.189 138.575 142.403 138.566V138.572Z" fill="white"/>
<path d="M111.872 120.972L138.452 165.314C138.973 166.187 139.668 166.952 140.496 167.566C141.325 168.18 142.271 168.63 143.28 168.89L145.079 169.355C145.281 169.408 145.492 169.422 145.7 169.396C145.908 169.37 146.109 169.305 146.291 169.204C146.473 169.104 146.632 168.969 146.76 168.809C146.888 168.649 146.982 168.467 147.037 168.272C147.092 168.077 147.106 167.873 147.079 167.673C147.052 167.473 146.984 167.28 146.88 167.104C146.775 166.929 146.636 166.776 146.47 166.652C146.304 166.529 146.114 166.439 145.912 166.386L144.113 165.921C143.506 165.766 142.937 165.497 142.438 165.129C141.94 164.76 141.523 164.3 141.211 163.775L114.631 119.433C114.414 119.09 114.066 118.841 113.661 118.742C113.257 118.642 112.828 118.699 112.466 118.9C112.105 119.101 111.839 119.431 111.727 119.818C111.614 120.205 111.663 120.62 111.864 120.972H111.872Z" fill="white"/>
<path d="M136.757 161.578L145.091 163.734C145.699 163.889 146.268 164.158 146.766 164.526C147.264 164.895 147.682 165.355 147.994 165.88L150.659 170.32C150.761 170.5 150.9 170.659 151.067 170.786C151.233 170.914 151.425 171.008 151.63 171.063C151.835 171.119 152.049 171.134 152.261 171.108C152.472 171.083 152.676 171.017 152.86 170.914C153.045 170.811 153.206 170.674 153.334 170.511C153.463 170.348 153.557 170.161 153.609 169.962C153.662 169.764 153.673 169.557 153.642 169.354C153.61 169.151 153.537 168.956 153.426 168.781L150.761 164.34C150.239 163.467 149.543 162.701 148.713 162.088C147.883 161.474 146.935 161.024 145.924 160.765L137.589 158.608C137.181 158.502 136.745 158.556 136.377 158.759C136.01 158.962 135.742 159.298 135.631 159.692C135.521 160.086 135.577 160.505 135.788 160.859C135.999 161.213 136.348 161.471 136.757 161.578Z" fill="white"/>
<path d="M124.132 110.29L170.171 135.89C171.999 136.908 174.171 137.185 176.21 136.66L178.009 136.195C178.418 136.088 178.766 135.83 178.977 135.476C179.188 135.123 179.244 134.703 179.134 134.309C179.024 133.915 178.755 133.58 178.388 133.377C178.021 133.173 177.585 133.119 177.176 133.225L175.377 133.69C174.974 133.795 174.558 133.846 174.141 133.843C173.299 133.844 172.472 133.631 171.744 133.225L125.705 107.625C125.337 107.422 124.902 107.367 124.493 107.472C124.084 107.578 123.735 107.835 123.522 108.188C123.32 108.546 123.27 108.966 123.384 109.358C123.498 109.751 123.766 110.085 124.132 110.29Z" fill="white"/>
<path d="M166.752 133.473L175.087 131.316C175.49 131.212 175.906 131.16 176.324 131.164C177.165 131.163 177.992 131.376 178.721 131.781L183.331 134.348C183.698 134.541 184.128 134.589 184.53 134.48C184.932 134.372 185.274 134.116 185.483 133.768C185.692 133.42 185.751 133.007 185.647 132.617C185.544 132.227 185.286 131.892 184.929 131.683L180.319 129.116C178.491 128.099 176.319 127.822 174.279 128.346L165.945 130.503C165.536 130.606 165.186 130.862 164.973 131.214C164.76 131.565 164.701 131.984 164.808 132.378C164.916 132.772 165.181 133.108 165.546 133.314C165.911 133.519 166.346 133.576 166.755 133.473H166.752Z" fill="white"/>
<path d="M87.5203 122.867L77.8924 157.493C77.7319 158.078 77.4523 158.626 77.0698 159.106C76.6874 159.586 76.2098 159.988 75.6647 160.289L74.044 161.189C73.8572 161.287 73.6928 161.421 73.5603 161.581C73.4278 161.742 73.33 161.926 73.2726 162.124C73.2152 162.321 73.1993 162.528 73.2259 162.731C73.2525 162.935 73.3211 163.131 73.4276 163.309C73.5341 163.486 73.6764 163.642 73.8461 163.766C74.0158 163.889 74.2094 163.979 74.4157 164.03C74.622 164.081 74.8368 164.092 75.0474 164.061C75.258 164.031 75.4602 163.96 75.6421 163.854L77.2627 162.954C78.1697 162.451 78.9646 161.781 79.6018 160.981C80.2389 160.182 80.7058 159.269 80.9756 158.295L90.6035 123.67C90.714 123.276 90.6575 122.856 90.4465 122.502C90.2355 122.149 89.8872 121.89 89.4784 121.784C89.0695 121.677 88.6335 121.732 88.2663 121.935C87.8991 122.138 87.6308 122.474 87.5203 122.867Z" fill="white"/>
<path d="M80.0049 151.598L72.5256 155.758C71.6187 156.261 70.8238 156.931 70.1866 157.73C69.5494 158.53 69.0825 159.443 68.8128 160.416L67.4293 165.379C67.3188 165.773 67.3753 166.193 67.5863 166.547C67.7973 166.9 68.1456 167.159 68.5544 167.265C68.9633 167.372 69.3993 167.317 69.7665 167.114C70.1337 166.911 70.402 166.575 70.5125 166.182L71.896 161.219C72.0565 160.634 72.3361 160.086 72.7185 159.606C73.1009 159.126 73.5786 158.724 74.1237 158.423L81.603 154.263C81.9597 154.054 82.2173 153.718 82.3206 153.329C82.424 152.939 82.365 152.526 82.1562 152.178C81.9474 151.83 81.6054 151.574 81.2033 151.465C80.8013 151.357 80.3711 151.404 80.0049 151.598Z" fill="white"/>
<path d="M73.6411 114.233L47.3322 139.573C46.4345 140.44 45.2159 140.929 43.9441 140.932H42.0778C41.6659 140.949 41.2767 141.118 40.9914 141.405C40.7062 141.691 40.5469 142.073 40.5469 142.47C40.5469 142.867 40.7062 143.249 40.9914 143.535C41.2767 143.822 41.6659 143.991 42.0778 144.008H43.9441C44.9931 144.008 46.0318 143.81 47.0008 143.423C47.9698 143.036 48.8501 142.469 49.591 141.753L75.8999 116.414C76.1994 116.126 76.3677 115.735 76.3677 115.327C76.3677 114.919 76.1994 114.527 75.8999 114.239C75.6003 113.95 75.1941 113.788 74.7705 113.788C74.3469 113.788 73.9406 113.95 73.6411 114.239V114.233Z" fill="white"/>
<path d="M52.2224 135.499H43.594C42.545 135.498 41.5062 135.697 40.5372 136.084C39.5682 136.47 38.688 137.038 37.9471 137.753L34.1778 141.383C34.0295 141.526 33.9118 141.696 33.8315 141.882C33.7513 142.069 33.71 142.269 33.71 142.471C33.71 142.673 33.7513 142.873 33.8315 143.06C33.9118 143.246 34.0295 143.416 34.1778 143.559C34.3261 143.702 34.5021 143.815 34.6959 143.892C34.8897 143.97 35.0974 144.009 35.3072 144.009C35.5169 144.009 35.7246 143.97 35.9184 143.892C36.1121 143.815 36.2882 143.702 36.4365 143.559L40.2058 139.928C41.1036 139.061 42.3222 138.572 43.594 138.569H52.2224C52.437 138.577 52.6512 138.544 52.8521 138.471C53.053 138.398 53.2365 138.287 53.3915 138.143C53.5465 138 53.6699 137.828 53.7542 137.638C53.8384 137.448 53.8819 137.243 53.8819 137.036C53.8819 136.829 53.8384 136.625 53.7542 136.435C53.6699 136.244 53.5465 136.072 53.3915 135.929C53.2365 135.786 53.053 135.675 52.8521 135.602C52.6512 135.528 52.437 135.495 52.2224 135.504V135.499Z" fill="white"/>
<path d="M79.996 119.433L53.4161 163.775C53.104 164.3 52.6867 164.76 52.1884 165.129C51.6902 165.497 51.1209 165.766 50.5136 165.921L48.7151 166.386C48.5126 166.439 48.3229 166.529 48.1568 166.652C47.9907 166.776 47.8515 166.929 47.747 167.104C47.6425 167.28 47.5749 167.473 47.5479 167.673C47.521 167.873 47.5352 168.077 47.5899 168.272C47.6446 168.467 47.7387 168.649 47.8666 168.809C47.9946 168.969 48.1541 169.104 48.3359 169.204C48.5178 169.305 48.7184 169.37 48.9263 169.396C49.1343 169.422 49.3456 169.408 49.548 169.355L51.3465 168.89C52.3573 168.63 53.3048 168.18 54.1347 167.567C54.9647 166.953 55.6608 166.188 56.1831 165.314L82.763 120.972C82.9635 120.62 83.0127 120.205 82.9001 119.818C82.7875 119.431 82.5221 119.101 82.1605 118.9C81.799 118.699 81.37 118.642 80.9655 118.742C80.561 118.841 80.213 119.09 79.996 119.433Z" fill="white"/>
<path d="M57.0471 158.608L48.7123 160.764C47.7015 161.025 46.754 161.474 45.9241 162.088C45.0941 162.702 44.398 163.467 43.8757 164.34L41.2104 168.781C41.0997 168.956 41.0265 169.151 40.9951 169.354C40.9636 169.557 40.9746 169.763 41.0273 169.962C41.08 170.161 41.1734 170.347 41.3021 170.511C41.4307 170.674 41.592 170.811 41.7764 170.914C41.9607 171.016 42.1646 171.082 42.3758 171.108C42.5871 171.134 42.8015 171.118 43.0066 171.063C43.2116 171.008 43.4031 170.914 43.5698 170.786C43.7365 170.658 43.8751 170.5 43.9773 170.32L46.6427 165.879C46.9548 165.354 47.3721 164.894 47.8704 164.526C48.3686 164.158 48.9379 163.888 49.5452 163.734L57.88 161.577C58.083 161.526 58.2733 161.436 58.4401 161.313C58.6069 161.19 58.7468 161.036 58.8517 160.861C58.9567 160.686 59.0247 160.493 59.0517 160.292C59.0788 160.092 59.0644 159.888 59.0094 159.693C58.8957 159.3 58.6262 158.966 58.259 158.763C57.8919 158.56 57.4566 158.504 57.0471 158.608Z" fill="white"/>
<path d="M68.9032 107.623L22.8641 133.223C22.1359 133.629 21.3087 133.842 20.467 133.84C20.0499 133.838 19.6345 133.787 19.2303 133.688L17.4318 133.223C17.0229 133.116 16.5869 133.171 16.2197 133.374C15.8525 133.577 15.5842 133.913 15.4737 134.307C15.3633 134.7 15.4198 135.12 15.6308 135.474C15.8418 135.828 16.19 136.086 16.5989 136.192L18.3974 136.657C19.0684 136.834 19.7603 136.925 20.4557 136.929C21.8537 136.932 23.2275 136.577 24.4368 135.901L70.4984 110.301C70.8551 110.092 71.1127 109.757 71.2161 109.367C71.3195 108.978 71.2605 108.565 71.0517 108.217C70.8428 107.868 70.5008 107.613 70.0988 107.504C69.6967 107.396 69.2666 107.443 68.9004 107.636L68.9032 107.623Z" fill="white"/>
<path d="M28.6913 130.503L20.3564 128.347C19.6855 128.17 18.9936 128.079 18.2982 128.075C16.9001 128.072 15.5264 128.427 14.3171 129.103L9.70641 131.67C9.34972 131.879 9.09213 132.214 8.98874 132.604C8.88535 132.993 8.94437 133.406 9.15319 133.754C9.362 134.103 9.70401 134.358 10.1061 134.467C10.5081 134.575 10.9383 134.528 11.3045 134.335L15.9152 131.768C16.6433 131.361 17.4706 131.148 18.3123 131.15C18.7294 131.152 19.1447 131.203 19.5489 131.303L27.8837 133.459C28.0862 133.51 28.2971 133.523 28.5045 133.495C28.7119 133.468 28.9117 133.402 29.0925 133.3C29.2733 133.199 29.4315 133.064 29.5581 132.903C29.6848 132.742 29.7773 132.56 29.8305 132.365C29.8837 132.17 29.8965 131.966 29.8682 131.767C29.8399 131.567 29.771 131.374 29.6655 131.2C29.56 131.026 29.4199 130.874 29.2532 130.752C29.0865 130.63 28.8965 130.541 28.6941 130.49L28.6913 130.503Z" fill="white"/>
<path d="M312.857 82.9194C312.88 80.7797 313.381 78.6699 314.327 76.7334C315.272 74.7968 316.639 73.079 318.334 71.6965C321.217 69.4997 324.275 67.5256 327.48 65.7927C330.145 64.104 332.056 62.4561 332.056 60.1799C332.089 59.6063 331.994 59.0326 331.777 58.4976C331.559 57.9626 331.225 57.4788 330.797 57.0791C330.368 56.6794 329.856 56.373 329.294 56.1808C328.732 55.9885 328.133 55.9149 327.539 55.9649C323.021 55.9649 321.756 59.1058 321.711 62.7906H313.724C313.476 60.9574 313.654 59.0941 314.247 57.3356C314.839 55.5771 315.83 53.9675 317.148 52.6235C318.465 51.2795 320.077 50.2347 321.866 49.5648C323.655 48.8949 325.577 48.6167 327.491 48.7504C334.431 48.7504 340.606 52.2394 340.606 59.443C340.606 65.9314 335.78 68.349 330.65 71.4083C328.341 72.6507 326.212 74.1804 324.317 75.9578H340.953V82.9248H312.857V82.9194Z" fill="white"/>
<path d="M342.856 49.1824H368.335V55.8122C365.215 59.0021 362.682 62.6805 360.844 66.6897C358.443 71.7849 357.192 77.3128 357.174 82.9081H347.972C348.363 77.2574 349.935 71.7409 352.594 66.6897C354.242 62.9586 356.63 59.5731 359.624 56.7232V56.6253H342.845V49.1824H342.856Z" fill="white"/>
<path d="M211.566 111.144C211.566 112.749 212.86 113.366 214.333 113.366C215.302 113.366 216.764 113.094 216.764 111.87C216.764 110.571 214.898 110.353 213.052 109.877C211.205 109.401 209.327 108.719 209.327 106.453C209.376 105.916 209.536 105.393 209.799 104.916C210.062 104.439 210.422 104.018 210.858 103.678C211.294 103.338 211.796 103.087 212.335 102.938C212.874 102.789 213.438 102.746 213.995 102.812C216.603 102.812 219 103.9 219 106.69H216.346C216.256 105.238 215.189 104.871 213.884 104.871C213.006 104.871 211.996 105.227 211.996 106.23C211.996 107.163 212.591 107.269 215.72 108.05C216.632 108.267 219.432 108.83 219.432 111.55C219.432 113.76 217.634 115.406 214.235 115.406C211.468 115.406 208.87 114.095 208.915 111.125H211.569L211.566 111.144Z" fill="white"/>
<path d="M220.353 103.106H223.092V107.729H228.143V103.106H230.887V115.131H228.143V109.943H223.092V115.131H220.347L220.353 103.106Z" fill="white"/>
<path d="M236.729 103.106H239.552L244.22 115.131H241.362L240.416 112.455H235.738L234.758 115.131H231.98L236.729 103.106ZM236.447 110.484H239.691L238.115 106.076H238.081L236.447 110.484Z" fill="white"/>
<path d="M245.301 103.106H252.049C252.519 103.076 252.991 103.139 253.434 103.293C253.878 103.446 254.284 103.685 254.627 103.996C254.97 104.307 255.243 104.683 255.428 105.101C255.614 105.518 255.708 105.967 255.705 106.421C255.763 107.062 255.601 107.704 255.244 108.248C254.887 108.792 254.355 109.209 253.729 109.434V109.467C255.078 109.804 255.462 111.071 255.55 112.284C255.503 113.26 255.684 114.234 256.078 115.134H253.333C253.079 114.191 252.932 113.225 252.896 112.252C252.704 110.984 252.198 110.432 250.815 110.432H248.071V115.134H245.326V103.106H245.301ZM248.045 108.545H251.049C252.275 108.545 252.938 108.036 252.938 106.824C252.938 105.665 252.275 105.154 251.049 105.154H248.045V108.545Z" fill="white"/>
<path d="M257.236 103.106H261.104L264.029 111.384H264.063L266.83 103.106H270.698V115.131H268.123V106.606H268.089L265.028 115.131H262.914L259.853 106.701H259.819V115.131H257.244V103.106H257.236Z" fill="white"/>
<path d="M278.666 103.106H288.003V105.328H281.41V107.906H287.461V109.964H281.41V112.912H288.147V115.134H278.666V103.106Z" fill="white"/>
<path d="M289.643 103.106H292.387V112.909H298.472V115.131H289.643V103.106Z" fill="white"/>
<path d="M299.045 109.508H304.308V111.566H299.045V109.508Z" fill="white"/>
<path d="M308.314 111.144C308.314 112.749 309.608 113.366 311.081 113.366C312.05 113.366 313.512 113.094 313.512 111.87C313.512 110.571 311.646 110.353 309.8 109.877C307.953 109.401 306.075 108.719 306.075 106.453C306.124 105.916 306.284 105.393 306.547 104.916C306.81 104.439 307.171 104.018 307.606 103.678C308.042 103.338 308.544 103.087 309.083 102.938C309.622 102.789 310.186 102.746 310.743 102.812C313.351 102.812 315.749 103.9 315.749 106.69H313.094C313.004 105.238 311.937 104.871 310.632 104.871C309.754 104.871 308.744 105.227 308.744 106.23C308.744 107.163 309.339 107.269 312.468 108.05C313.38 108.267 316.181 108.83 316.181 111.55C316.181 113.76 314.382 115.406 310.983 115.406C308.216 115.406 305.618 114.095 305.663 111.125H308.317L308.314 111.144Z" fill="white"/>
<path d="M317.448 103.106H320.192V107.729H325.243V103.106H327.988V115.131H325.243V109.943H320.192V115.131H317.448V103.106Z" fill="white"/>
<path d="M329.71 103.106H339.048V105.328H332.455V107.906H338.505V109.964H332.455V112.912H339.192V115.134H329.71V103.106Z" fill="white"/>
<path d="M340.699 103.106H343.444V115.131H340.699V103.106Z" fill="white"/>
<path d="M345.155 103.106H347.899V108.082L352.781 103.097H356.223L351.341 107.854L356.706 115.133H353.264L349.506 109.727L347.93 111.266V115.152H345.186V103.106H345.155Z" fill="white"/>
<path d="M357.787 103.106H360.531V107.729H365.582V103.106H368.327V115.131H365.582V109.943H360.531V115.131H357.787V103.106Z" fill="white"/>
<path d="M300.191 139.126C300.206 137.911 300.491 136.712 301.026 135.611C301.562 134.51 302.336 133.533 303.297 132.744C304.935 131.495 306.673 130.372 308.495 129.386C310.014 128.42 311.092 127.482 311.092 126.19C311.111 125.864 311.057 125.537 310.933 125.233C310.809 124.928 310.618 124.653 310.374 124.426C310.129 124.199 309.837 124.025 309.517 123.917C309.196 123.808 308.855 123.767 308.517 123.797C305.954 123.797 305.234 125.584 305.211 127.675H300.665C300.523 126.633 300.623 125.573 300.96 124.573C301.296 123.573 301.86 122.658 302.61 121.894C303.36 121.13 304.277 120.537 305.295 120.158C306.313 119.779 307.406 119.623 308.495 119.702C312.43 119.702 315.951 121.684 315.951 125.78C315.951 129.464 313.207 130.84 310.305 132.578C308.992 133.285 307.782 134.156 306.705 135.167H316.152V139.132L300.191 139.126Z" fill="white"/>
<path d="M317.728 129.526C317.728 124.414 319.865 119.712 325.523 119.712C331.351 119.712 333.632 124.414 333.632 129.526C333.632 134.639 331.348 139.373 325.523 139.373C319.865 139.376 317.728 134.642 317.728 129.526ZM328.954 129.526C328.954 127.025 328.863 123.503 325.67 123.503C322.587 123.503 322.42 127.025 322.42 129.526C322.42 132.028 322.589 135.582 325.67 135.582C328.863 135.574 328.954 132.031 328.954 129.526Z" fill="white"/>
<path d="M334.981 139.126C334.996 137.91 335.281 136.712 335.816 135.611C336.352 134.51 337.126 133.532 338.087 132.744C339.726 131.495 341.464 130.372 343.285 129.385C344.804 128.42 345.882 127.482 345.882 126.19C345.901 125.863 345.847 125.537 345.723 125.232C345.599 124.928 345.408 124.653 345.164 124.426C344.919 124.198 344.627 124.025 344.307 123.916C343.986 123.808 343.645 123.767 343.307 123.797C340.744 123.797 340.024 125.583 340.001 127.675H335.455C335.313 126.632 335.413 125.573 335.75 124.573C336.086 123.573 336.65 122.657 337.4 121.894C338.15 121.13 339.067 120.537 340.085 120.158C341.103 119.778 342.196 119.623 343.285 119.701C347.221 119.701 350.741 121.684 350.741 125.779C350.741 129.464 347.997 130.84 345.095 132.578C343.782 133.285 342.572 134.155 341.495 135.167H350.942V139.131L334.981 139.126Z" fill="white"/>
<path d="M352.373 139.126C352.388 137.91 352.673 136.712 353.209 135.611C353.744 134.51 354.518 133.532 355.479 132.744C357.118 131.495 358.856 130.372 360.677 129.385C362.196 128.42 363.274 127.482 363.274 126.19C363.293 125.863 363.239 125.537 363.115 125.232C362.991 124.928 362.8 124.653 362.556 124.426C362.311 124.198 362.019 124.025 361.699 123.916C361.378 123.808 361.038 123.767 360.699 123.797C358.136 123.797 357.416 125.583 357.393 127.675H352.847C352.705 126.632 352.806 125.573 353.142 124.573C353.478 123.573 354.042 122.657 354.792 121.894C355.542 121.13 356.459 120.537 357.477 120.158C358.495 119.778 359.588 119.623 360.677 119.701C364.613 119.701 368.134 121.684 368.134 125.779C368.134 129.464 365.389 130.84 362.487 132.578C361.174 133.285 359.964 134.155 358.887 135.167H368.337V139.131L352.373 139.126Z" fill="white"/>
<path d="M208.912 95.14H368.335C368.55 95.1487 368.765 95.1154 368.967 95.042C369.168 94.9687 369.352 94.8568 369.508 94.7132C369.664 94.5695 369.787 94.397 369.872 94.2061C369.957 94.0152 370 93.8097 370 93.6022C370 93.3946 369.957 93.1892 369.872 92.9983C369.787 92.8073 369.664 92.6349 369.508 92.4912C369.352 92.3475 369.168 92.2357 368.967 92.1623C368.765 92.089 368.55 92.0556 368.335 92.0643H208.912C208.696 92.0556 208.482 92.089 208.28 92.1623C208.078 92.2357 207.894 92.3475 207.739 92.4912C207.583 92.6349 207.459 92.8073 207.375 92.9983C207.29 93.1892 207.247 93.3946 207.247 93.6022C207.247 93.8097 207.29 94.0152 207.375 94.2061C207.459 94.397 207.583 94.5695 207.739 94.7132C207.894 94.8568 208.078 94.9687 208.28 95.042C208.482 95.1154 208.696 95.1487 208.912 95.14Z" fill="white"/>
<path d="M208.912 120.091H224.289V123.968H213.941V127.232H223.399V130.979H213.941V134.514H224.554V138.675H208.912V120.091Z" fill="white"/>
<path d="M244.008 138.683H240.755L240.473 136.657C239.837 137.436 239.021 138.06 238.089 138.479C237.157 138.899 236.136 139.102 235.108 139.072C232.519 138.961 230.073 137.893 228.281 136.088C226.489 134.284 225.489 131.884 225.489 129.387C225.489 126.89 226.489 124.489 228.281 122.685C230.073 120.881 232.519 119.812 235.108 119.702C237.182 119.519 239.249 120.117 240.876 121.369C242.504 122.621 243.565 124.43 243.839 126.419H238.81C238.652 124.825 237.023 123.873 234.996 123.873C231.757 123.873 230.506 126.636 230.506 129.388C230.506 132.14 231.743 134.903 234.996 134.903C237.48 134.903 239.157 133.788 239.428 132.097H235.919V128.499H244.028V138.683H244.008Z" fill="white"/>
<path d="M255.279 131.76V138.683H250.25V131.76L243.22 120.102H248.923L252.76 127.653L256.597 120.102H262.301L255.279 131.76Z" fill="white"/>
<path d="M263.354 120.091H272.519C276.119 120.091 279.493 121.684 279.493 126.073C279.493 130.677 276.76 132.477 272.519 132.477H268.38V138.675H263.343V120.091H263.354ZM268.383 128.735H271.771C273.335 128.735 274.47 128.107 274.47 126.416C274.498 126.074 274.447 125.731 274.319 125.411C274.191 125.091 273.99 124.803 273.731 124.568C273.472 124.333 273.161 124.157 272.822 124.053C272.482 123.949 272.123 123.92 271.771 123.968H268.383V128.735Z" fill="white"/>
<path d="M297.02 124.262H291.261V138.675H286.235V124.262H280.475V120.102H297.009V124.262H297.02Z" fill="white"/>
<path d="M234.391 59.9762C234.042 58.2361 233.061 56.6724 231.625 55.5649C230.188 54.4573 228.389 53.8782 226.55 53.931C219.463 53.931 216.798 59.7369 216.798 65.7929C216.798 71.5553 219.463 77.3639 226.55 77.3639C231.375 77.3639 234.086 74.1686 234.693 69.6164H242.342C242.28 71.5461 241.822 73.445 240.994 75.2031C240.165 76.9612 238.983 78.5436 237.516 79.8587C236.048 81.1738 234.324 82.1955 232.444 82.8646C230.564 83.5338 228.564 83.8372 226.561 83.7571C215.46 83.7571 208.923 75.7731 208.923 65.8093C208.923 55.5491 215.46 47.565 226.561 47.565C230.309 47.3147 234.012 48.4692 236.897 50.7873C239.781 53.1053 241.624 56.4074 242.04 60.0034H234.402L234.391 59.9762Z" fill="white"/>
<path d="M281.779 48.3621H297.966C306.907 48.3621 310.372 53.8335 310.372 59.4463C310.372 65.0591 306.907 70.5305 297.966 70.5305H289.676V82.9254H281.79V48.3621H281.779ZM289.684 64.624H295.814C299.485 64.624 302.754 63.8544 302.754 59.4571C302.754 55.0599 299.493 54.2903 295.814 54.2903H289.684V64.624Z" fill="white"/>
<path d="M278.511 65.5978C278.511 74.3782 271.099 81.6231 261.796 81.6231C252.493 81.6231 245.081 74.3782 245.081 65.5978C245.081 56.8174 252.493 49.5725 261.796 49.5725C271.099 49.5725 278.511 56.8174 278.511 65.5978Z" stroke="white" stroke-width="4"/>
<path fill-rule="evenodd" clip-rule="evenodd" d="M278.252 62.4186C278.247 62.5019 278.247 62.5855 278.252 62.6688C278.207 62.6688 278.207 62.6688 278.106 62.7775C278.088 62.7695 278.069 62.7654 278.049 62.7654C278.029 62.7654 278.01 62.7696 277.993 62.7776C277.976 62.7393 277.965 62.699 277.959 62.6579C277.72 63.2966 277.437 63.9189 277.112 64.5207C277.093 64.5217 277.074 64.5217 277.055 64.5207C276.906 64.7171 276.948 64.9204 276.991 65.1247C277.02 65.2598 277.048 65.3953 277.021 65.5296C276.841 66.3862 276.841 66.3862 276.739 66.4841C276.723 66.4994 276.71 66.5185 276.702 66.539C276.694 66.5597 276.692 66.5818 276.694 66.6037V66.6472L276.649 66.7343C276.649 66.756 276.603 66.7995 276.558 66.7343C276.508 66.657 276.47 66.5729 276.445 66.4846L276.434 66.4841C276.291 65.8682 276.11 65.2608 275.895 64.6648C275.67 64.0357 275.538 63.3794 275.502 62.715C275.483 62.7161 275.465 62.7161 275.446 62.715L275.401 62.7585C275.401 62.9975 275.401 63.0305 275.322 63.1148C275.118 63.2671 274.782 62.9081 274.805 62.7259L274.818 62.7238C274.942 62.704 274.965 62.7004 275.008 62.5954L274.963 62.5519C274.814 62.6406 274.719 62.5366 274.621 62.4307C274.564 62.3678 274.505 62.3042 274.435 62.2799C274.299 61.9237 274.299 61.9237 273.828 61.8802C273.811 61.8973 273.792 61.9119 273.772 61.9237C273.577 61.8332 273.383 61.8656 273.192 61.8977C273.061 61.9196 272.931 61.9413 272.803 61.9237C272.387 61.854 272.267 61.8339 272.208 61.7653C272.184 61.7376 272.17 61.7019 272.151 61.6518C272.106 61.543 272.06 61.456 271.993 61.4342C271.878 61.4065 271.781 61.4493 271.684 61.4923C271.59 61.5337 271.497 61.5752 271.386 61.5539C271.26 61.5296 271.16 61.4414 271.074 61.366C271.006 61.3059 270.947 61.2541 270.892 61.2493C270.767 61.2384 270.307 60.5885 270.307 60.5885C270.307 60.5885 270.239 60.5885 270.217 60.6102C270.172 60.5657 270.112 60.5386 270.047 60.5341C270.047 60.5559 270.025 60.5994 270.014 60.6211L269.923 60.6537C269.936 60.6812 269.944 60.7107 269.946 60.7407C269.923 60.7634 269.904 60.789 269.889 60.8169C270.137 61.2675 270.427 61.6953 270.756 62.095C270.688 61.8774 270.733 61.8231 270.824 61.7496C270.893 61.8315 270.902 61.9321 270.911 62.0326C270.921 62.1457 270.931 62.2588 271.027 62.3452C271.067 62.3604 271.079 62.3543 271.117 62.3342C271.134 62.3257 271.155 62.3147 271.185 62.3017C271.253 62.2727 271.291 62.2823 271.328 62.292C271.347 62.2969 271.366 62.3017 271.389 62.3017C271.434 62.3071 271.479 62.3071 271.524 62.3017C271.569 62.28 271.569 62.2799 271.727 62.0306L271.727 62.0297L271.728 62.0288C271.785 61.9409 271.953 61.6817 271.964 61.6817C271.965 61.8247 271.988 61.9667 272.032 62.1032C272.098 62.2015 272.187 62.2835 272.292 62.3425C272.33 62.3586 272.369 62.3672 272.406 62.3756C272.471 62.3898 272.532 62.4032 272.574 62.4512L272.857 62.7449C272.857 62.7449 272.879 62.7667 272.879 62.8102C272.838 63.0046 272.757 63.1894 272.642 63.3541C272.62 63.3541 272.619 63.3541 272.597 63.3106C272.485 63.3591 272.501 63.4579 272.516 63.5544C272.532 63.6524 272.547 63.7481 272.428 63.7865C272.389 63.7958 272.354 63.8164 272.327 63.8457C272.301 63.8749 272.285 63.9112 272.281 63.9496C272.266 64.0367 272.2 64.0656 272.135 64.0946C272.103 64.1091 272.07 64.1236 272.044 64.1454C272.004 64.1779 271.998 64.2184 271.993 64.2576C271.987 64.2973 271.982 64.3356 271.942 64.363H271.874C271.795 64.363 271.772 64.363 271.504 64.4718C271.403 64.5153 271.346 64.5588 271.335 64.6349C271.312 64.7545 271.312 64.7546 271.222 64.798C270.604 65.1502 269.953 65.4444 269.277 65.6764C269.21 65.6581 268.704 64.4162 268.54 64.0139C268.509 63.9393 268.491 63.8932 268.489 63.8898L267.69 62.5029C267.63 62.4189 267.543 62.3573 267.441 62.3289L267.385 62.2962C266.721 61.2683 266.721 61.2683 266.586 61.2085C266.618 61.1205 266.618 61.0245 266.586 60.9366C266.518 61.2926 266.518 61.2928 266.518 61.3036C266.489 61.3204 266.459 61.3349 266.428 61.3472C266.312 61.2648 266.239 61.1515 266.166 61.0389C266.104 60.9433 266.043 60.8483 265.956 60.7734C265.956 60.7941 266.354 61.4542 266.645 61.9382L266.646 61.9391C266.814 62.2185 266.947 62.4391 266.947 62.4431L266.947 62.4449C266.943 62.4744 266.895 62.8332 268.127 64.9123C268.157 64.9062 268.188 64.9062 268.218 64.9123C268.301 65.0756 268.472 65.1617 268.643 65.2479C268.891 65.3726 269.138 65.4972 269.118 65.8559C269.068 65.897 269.03 65.9493 269.006 66.0082C269.111 66.0184 269.165 66.0953 269.219 66.172C269.28 66.2592 269.34 66.3461 269.477 66.3345C269.999 66.2189 270.511 66.0634 271.007 65.8695C271.031 65.8912 271.058 65.9095 271.086 65.9239C271.07 66.0169 271.058 66.1095 271.045 66.202L271.045 66.203C271.025 66.3588 271.005 66.5151 270.962 66.6717C270.701 67.3788 270.291 68.0266 269.759 68.5753C269.15 69.0733 268.603 69.6372 268.127 70.2559C267.926 70.5092 267.817 70.8193 267.817 71.1383C267.817 71.4573 267.926 71.7674 268.127 72.0208C268.175 72.5557 268.024 73.0895 267.701 73.5273C267.531 73.6959 267.313 73.8002 267.095 73.9044C266.825 74.0339 266.554 74.1635 266.374 74.4165C266.233 74.6198 266.281 74.822 266.329 75.0245C266.358 75.1471 266.387 75.2697 266.374 75.3928C266.351 75.5924 266.195 75.6645 266.037 75.737C265.888 75.8057 265.738 75.8749 265.699 76.0536C265.654 76.3037 265.654 76.3038 265.025 76.9972C264.878 77.1556 264.716 77.3004 264.542 77.4296C264.259 77.658 264.259 77.658 262.247 77.8292C262.262 77.7495 262.226 77.6795 262.191 77.6094C262.173 77.5743 262.156 77.5393 262.145 77.503L262.224 77.4595V77.3725C262.167 77.1224 262.167 77.1223 261.538 76.3347L261.538 76.3337C261.38 76.1285 261.356 75.8919 261.332 75.6552C261.313 75.4684 261.295 75.2815 261.21 75.1099L260.995 74.8054C260.501 74.1554 260.298 73.8835 260.479 73.4294C260.909 72.363 260.965 72.2258 260.919 72.1362C260.913 72.123 260.904 72.1108 260.894 72.0969C260.894 72.0829 260.88 72.0645 260.867 72.0474C260.86 72.0378 260.853 72.0286 260.849 72.0208C260.735 71.8198 260.681 71.5989 260.628 71.3781C260.575 71.1597 260.522 70.9414 260.411 70.7426C260.315 70.571 260.153 70.4479 259.991 70.325C259.736 70.1305 259.481 69.9365 259.488 69.5515C259.679 69.1474 259.719 68.6919 259.601 68.2626C259.514 68.2417 259.464 68.1855 259.413 68.1278C259.384 68.095 259.355 68.0617 259.318 68.0341C259.185 68.1267 259.034 68.14 258.882 68.1534C258.802 68.1605 258.722 68.1676 258.643 68.1864C258.452 68.0668 258.451 68.0667 258.406 67.9145C258.382 67.8235 258.327 67.7429 258.25 67.6857C258.172 67.6285 258.077 67.598 257.98 67.599C257.98 67.599 256.89 67.8492 256.879 67.871C256.873 67.8745 256.868 67.8776 256.863 67.8806C256.804 67.9148 256.726 67.9188 255.751 67.9688L255.749 67.9689C255.622 67.9774 255.508 68.0367 255.394 68.0958C255.217 68.1883 255.041 68.28 254.815 68.1755C254.206 67.8621 253.699 67.3912 253.352 66.8159L252.858 66.068C252.241 66.0806 252.379 65.582 252.533 65.0257C252.646 64.6201 252.767 64.1838 252.61 63.8925C252.723 63.6532 252.7 63.6206 252.508 63.384C252.734 62.5323 253.274 61.7889 254.027 61.2928C254.146 61.2093 254.259 61.1184 254.366 61.0208L254.682 60.2186C254.729 59.989 254.908 59.9025 255.092 59.8142C255.219 59.753 255.348 59.6909 255.436 59.5796C255.49 59.5117 255.529 59.4364 255.568 59.3598C255.611 59.2768 255.654 59.1924 255.718 59.1146C256.664 59.2777 256.664 59.2777 259.069 58.7475L259.149 58.7692C259.823 58.7475 259.824 58.7475 259.869 58.791C259.928 58.7743 259.991 58.7743 260.05 58.791C260.02 58.847 259.972 58.8927 259.914 58.9215V59.0194C260.038 59.139 260.038 59.1391 259.711 59.6471C260.169 59.8303 260.641 59.9789 261.122 60.0908C261.213 60.3301 262.17 60.6347 262.181 60.6347C262.224 60.6391 262.266 60.6336 262.306 60.6185C262.345 60.6035 262.381 60.5795 262.408 60.5484C262.436 60.5174 262.456 60.4803 262.465 60.4404C262.475 60.4005 262.474 60.3589 262.464 60.3192C262.373 59.8651 263.105 59.7754 263.297 60.0255C263.527 60.3018 263.831 60.305 264.134 60.3081C264.306 60.3099 264.477 60.3117 264.635 60.3628C264.849 60.4318 265.063 60.3997 265.276 60.3678C265.499 60.3343 265.721 60.3011 265.939 60.3845H266.018C266.738 60.4063 266.603 58.7692 266.583 58.7529C265.918 58.9614 265.201 58.9614 264.536 58.7529L264.604 58.6876H264.502C264.152 58.3317 264.152 58.3314 264.11 58.3314C264.11 58.3096 264.132 58.2661 264.144 58.2444C264.173 58.2504 264.204 58.2504 264.234 58.2444C264.24 58.1493 264.216 58.0547 264.166 57.9724C264.135 57.9745 264.104 57.9819 264.076 57.9942C264.063 57.9667 264.055 57.9372 264.053 57.9072C264.164 57.7505 264.326 57.731 264.489 57.7115C264.609 57.6971 264.729 57.6826 264.83 57.6135C264.815 57.5857 264.796 57.56 264.773 57.5373C266.281 57.2654 266.281 57.2654 266.484 57.3959C266.854 57.6679 267.732 57.5373 267.721 57.2328C267.703 56.8543 267.402 56.7928 267.094 56.7302C266.802 56.6708 266.505 56.6103 266.439 56.2783C266.509 56.2599 266.554 56.2068 266.6 56.1524C266.636 56.1103 266.672 56.0674 266.721 56.0389C266.674 55.997 266.632 55.9495 266.597 55.8976C266.71 55.8649 266.71 55.8649 266.834 55.7453L265.934 56.0498V56.1369C265.934 56.1572 265.874 56.1395 265.848 56.1193C265.945 56.2021 265.952 56.2034 266.348 56.2782C266.348 56.2922 266.335 56.3106 266.322 56.3278C266.315 56.3374 266.308 56.3466 266.304 56.3544C266.123 56.4029 265.95 56.4722 265.787 56.5611C265.763 56.5394 265.737 56.5211 265.708 56.5067C265.694 56.4283 265.64 56.3813 265.586 56.335C265.551 56.3042 265.516 56.2738 265.493 56.2347C265.541 56.1915 265.579 56.1398 265.606 56.0825C265.29 56.0825 265.29 56.0825 265.191 55.9302C265.027 56.0197 264.872 56.1254 264.731 56.2456C264.757 56.3775 264.696 56.4868 264.636 56.5954C264.592 56.6748 264.548 56.7539 264.539 56.8412C264.505 56.8629 264.505 56.863 264.347 57.1458C264.473 57.2795 264.608 57.4057 264.751 57.5237C264.509 57.59 264.275 57.6812 264.053 57.7957C264.068 57.7352 264.104 57.6815 264.155 57.6434H264.031C263.941 57.5793 263.83 57.5485 263.719 57.5565C263.607 57.5645 263.503 57.6107 263.424 57.6869C263.431 57.6941 263.44 57.7014 263.449 57.7086C263.466 57.7231 263.484 57.7377 263.491 57.7522C263.306 57.8257 263.3 57.8181 263.187 57.68L263.175 57.6651C263.119 57.7522 263.073 57.8283 263.243 57.9915C263.226 58.0531 263.2 58.1119 263.164 58.1655C263.239 58.2046 263.312 58.2495 263.372 58.2868C263.429 58.3221 263.475 58.3507 263.503 58.3613L263.435 58.4266H263.345L263.299 58.5136C263.311 58.5245 263.322 58.538 263.333 58.5516C263.345 58.5652 263.356 58.5788 263.367 58.5897C263.304 58.6006 263.239 58.6006 263.175 58.5897C263.189 58.6239 263.212 58.6623 263.233 58.697C263.246 58.7175 263.257 58.7367 263.265 58.7529C263.252 58.7812 263.241 58.8103 263.232 58.8399C263.22 58.8291 263.206 58.8182 263.192 58.8073C263.178 58.7964 263.164 58.7855 263.152 58.7747C263.139 58.7874 263.126 58.8039 263.115 58.8175C263.107 58.8272 263.101 58.8354 263.096 58.8399C263.072 58.7843 263.033 58.7356 262.983 58.6985C262.954 58.7152 262.924 58.7297 262.893 58.742C262.893 58.6223 262.893 58.6115 262.757 58.5244C262.757 58.5027 262.757 58.5027 263.229 58.3722C263.154 58.3337 263.071 58.3356 262.988 58.3375C262.883 58.3399 262.778 58.3423 262.689 58.2634C262.692 58.2333 262.699 58.2039 262.712 58.1764C262.481 58.0671 262.384 57.8495 262.288 57.6331C262.173 57.3757 262.059 57.12 261.721 57.0506C261.636 56.9035 261.498 56.8081 261.359 56.712C261.242 56.6304 261.123 56.5481 261.035 56.4333C260.971 56.4345 260.908 56.4534 260.854 56.4877C260.81 56.4651 260.775 56.4299 260.753 56.3871C260.73 56.3442 260.722 56.2957 260.73 56.2484C260.667 56.2671 260.606 56.2926 260.549 56.3245C260.38 56.4333 260.549 57.2355 261.314 57.3415C261.398 57.4745 261.536 57.5368 261.675 57.5999C261.798 57.6555 261.922 57.7117 262.012 57.8174L261.933 57.861C261.763 57.6978 261.628 57.7087 261.529 57.8827C261.579 57.9701 261.636 58.0537 261.698 58.1329C261.649 58.1726 261.605 58.2197 261.562 58.2661C261.488 58.3464 261.416 58.4247 261.317 58.4592C261.304 58.3903 261.324 58.3218 261.344 58.2533C261.375 58.149 261.406 58.0449 261.317 57.9398L259.832 56.7378C259.651 56.6399 259.595 56.6399 259.55 56.6508C259.411 56.6751 259.305 56.7572 259.2 56.8378C259.118 56.9013 259.037 56.9638 258.943 56.9962C258.85 57.028 258.744 57.0036 258.635 56.9781C258.491 56.9449 258.341 56.9099 258.2 56.9962C257.839 57.3982 257.526 57.8379 257.266 58.3069C257.153 58.3818 257.066 58.488 257.017 58.6115C256.792 58.6618 256.578 58.7467 256.364 58.8317C256.162 58.912 255.959 58.9924 255.747 59.0439C255.464 58.7937 255.464 58.7937 255.027 58.7502C255.104 58.4755 255.127 58.1904 255.151 57.9051C255.175 57.6058 255.2 57.3061 255.286 57.0179C255.591 56.8548 255.591 56.8548 256.415 56.9526C256.49 56.9447 256.564 56.9586 256.638 56.9725C256.766 56.9965 256.894 57.0205 257.023 56.9309C257.139 56.8503 257.163 56.7245 257.187 56.5971C257.206 56.501 257.224 56.404 257.283 56.3245C257.271 56.2633 257.271 56.2007 257.283 56.1396C257.082 56.0213 257.09 55.9455 257.102 55.8492L257.102 55.8459C256.972 55.7501 256.816 55.6933 256.653 55.6827L256.574 55.6283C256.585 55.6012 256.599 55.5712 256.613 55.5413C256.628 55.5114 256.642 55.4815 256.653 55.4543C256.869 55.4272 257.087 55.4164 257.305 55.4217V55.1497C257.305 55.1279 257.335 55.1352 257.365 55.1425C257.38 55.1461 257.396 55.1497 257.407 55.1497C257.42 55.178 257.431 55.2071 257.441 55.2367C257.572 55.2616 257.708 55.2503 257.833 55.2041C257.82 55.1914 257.807 55.1749 257.796 55.1612C257.788 55.1516 257.781 55.1433 257.777 55.1388C257.805 55.128 257.83 55.1198 257.864 55.1089C257.898 55.0981 257.94 55.0845 258.003 55.0627C258.1 55.0034 258.185 54.9306 258.271 54.8578C258.373 54.7705 258.475 54.6832 258.598 54.6194C258.599 54.6376 258.599 54.6557 258.598 54.6738C258.617 54.6749 258.636 54.6749 258.655 54.6738C258.655 54.6738 258.632 54.6412 258.621 54.6303C258.679 54.6223 258.736 54.6077 258.79 54.5868H258.621C258.677 54.5542 258.677 54.5542 258.88 54.2727L258.881 54.2714H258.937C258.916 54.3039 258.904 54.3416 258.903 54.3802L258.948 54.4128C259.039 54.2822 259.039 54.2822 258.982 54.217C259.039 54.1408 259.039 54.1408 259.42 54.1408C259.42 54.1408 259.386 54.1191 259.375 54.1082C259.397 54.083 259.412 54.0662 259.431 54.0576C259.47 54.0404 259.525 54.0572 259.691 54.1082C259.691 54.0429 259.691 54.0429 259.793 53.9668C259.792 53.9248 259.78 53.8836 259.759 53.8471L259.804 53.8145C259.788 53.7743 259.787 53.7318 259.786 53.6892C259.784 53.6394 259.783 53.5894 259.759 53.5425C259.74 53.5415 259.721 53.5415 259.702 53.5425C259.499 53.0884 260.185 52.9688 260.196 52.9688C260.196 53.0448 260.196 53.045 260.117 53.2407C260.117 53.2407 260.14 53.2734 260.151 53.2842C260.186 53.2854 260.221 53.2927 260.253 53.306C260.19 53.3991 260.114 53.4833 260.027 53.5562H260.061C260.083 53.5562 260.103 53.5507 260.123 53.5453C260.143 53.5398 260.162 53.5344 260.185 53.5344C260.192 53.5319 260.2 53.5319 260.208 53.5344C260.22 53.56 260.229 53.5865 260.237 53.6136L260.242 53.6112V53.6323C260.244 53.6394 260.244 53.6469 260.242 53.654L260.219 53.6758V53.6671C260.212 53.6705 260.204 53.6735 260.196 53.6758H260.129C260.121 53.6783 260.113 53.6783 260.106 53.6758V53.654H260.072C260.038 53.654 260.027 53.6214 260.05 53.5997C260.013 53.6334 259.979 53.6698 259.948 53.7084C259.957 53.7263 259.97 53.7422 259.985 53.7553C260.001 53.7684 260.019 53.7783 260.038 53.7846C260.061 53.8825 260.061 53.8825 260.208 53.9043C260.208 53.9279 260.22 53.9572 260.23 53.9839C260.234 53.9942 260.238 54.004 260.242 54.013C260.362 53.9703 260.49 53.9521 260.618 53.9596C260.745 53.9671 260.87 54.0001 260.984 54.0565C261.283 53.9295 261.592 53.8241 261.907 53.7411C261.964 53.9151 262.514 53.6758 262.514 53.665L262.56 53.0041C262.658 52.9091 262.747 52.9697 262.838 53.032C262.913 53.0838 262.99 53.1366 263.076 53.102C263.105 52.9914 263.105 52.8755 263.076 52.7648C262.975 52.7866 262.975 52.7866 262.862 52.5799C262.862 52.5473 262.862 52.5473 263.672 52.4602C263.695 52.4276 263.695 52.4276 264.087 52.2972C264.042 52.2683 263.99 52.2563 263.939 52.2446C263.874 52.2297 263.81 52.215 263.76 52.1665C263.759 52.1484 263.759 52.1303 263.76 52.1122C263.605 52.1489 263.447 52.1707 263.288 52.1774C262.794 52.3079 262.794 52.308 262.771 52.3188C262.736 52.2697 262.675 52.2324 262.615 52.1952C262.5 52.1252 262.387 52.0555 262.444 51.9082C262.372 51.8139 262.336 51.6987 262.342 51.5819C262.408 51.4557 262.519 51.3749 262.632 51.2932C262.734 51.22 262.836 51.146 262.907 51.038C262.926 51.0391 262.945 51.0391 262.963 51.038C263.11 50.8096 262.537 50.7878 262.469 50.7878C262.452 50.8368 262.421 50.8803 262.39 50.9238C262.359 50.9673 262.328 51.0108 262.311 51.0598C262.334 51.09 262.353 51.1228 262.368 51.1577C262.3 51.1794 262.252 51.2229 262.204 51.2664C262.156 51.3099 262.108 51.3535 262.04 51.3752H262.018C261.931 51.4535 261.837 51.5228 261.735 51.5819C261.708 51.6933 261.662 51.7997 261.6 51.8973C261.623 51.9864 261.638 52.0775 261.645 52.1693C261.724 52.1367 261.724 52.1366 261.927 52.2998V52.3542C261.904 52.3811 261.883 52.4117 261.861 52.4429C261.83 52.4875 261.798 52.5334 261.758 52.5717C261.739 52.5728 261.72 52.5728 261.701 52.5717C261.543 52.7721 261.523 52.7967 261.529 52.8144C261.529 52.8169 261.53 52.8192 261.532 52.8218C261.474 52.9049 261.452 52.9986 261.432 53.0939C261.437 53.0832 261.443 53.0721 261.449 53.062C261.452 53.056 261.456 53.05 261.458 53.0449C261.47 53.0232 261.481 53.0123 261.492 53.0014C261.492 53.0194 261.465 53.0868 261.44 53.1474C261.429 53.175 261.418 53.2012 261.411 53.2207L261.43 53.2217C261.422 53.2242 261.414 53.2277 261.407 53.2322C261.404 53.2417 261.402 53.2484 261.402 53.2516C261.402 53.2634 261.395 53.272 261.387 53.2774C261.378 53.3074 261.366 53.337 261.351 53.3658C261.103 53.3658 261.012 53.3658 261.001 53.5072C261.001 53.5072 260.854 53.6269 260.719 53.5507C260.716 53.4937 260.692 53.4395 260.651 53.3984C260.696 53.2571 260.696 53.257 260.696 53.2353C260.696 53.2226 260.619 53.0689 260.554 52.9416C260.509 52.8517 260.47 52.7748 260.47 52.7703C260.47 52.7656 260.464 52.7649 260.455 52.764C260.443 52.7627 260.427 52.7609 260.414 52.7485C260.401 52.7364 260.403 52.7242 260.406 52.6932C260.409 52.6686 260.414 52.6321 260.414 52.5745C260.387 52.5611 260.363 52.5427 260.344 52.5202C260.324 52.4978 260.31 52.4719 260.301 52.4439C260.27 52.4887 260.244 52.536 260.222 52.5854C260.117 52.5959 260.043 52.6604 259.969 52.724C259.891 52.7912 259.814 52.8573 259.705 52.8573C259.705 52.8573 259.358 52.8573 259.313 52.6506C259.355 52.6112 259.4 52.5748 259.448 52.5418C259.449 52.5237 259.449 52.5055 259.448 52.4874L259.29 52.531C259.29 52.531 259.29 52.5309 259.471 52.3895C259.471 52.3895 259.437 52.3896 259.414 52.3678C259.448 52.346 259.476 52.3216 259.505 52.2971C259.533 52.2726 259.561 52.2481 259.595 52.2264L259.618 52.1829C259.539 52.2046 259.539 52.2046 259.426 52.3132C259.407 52.2906 259.396 52.2776 259.393 52.2628C259.388 52.2421 259.399 52.2183 259.426 52.1611H259.369C259.37 52.1225 259.382 52.0849 259.403 52.0524H259.493C259.64 52.0306 259.651 52.0306 259.731 52.0741C259.756 52.0467 259.786 52.0245 259.821 52.0088C259.821 52.0088 259.787 51.9871 259.776 51.9762C259.773 51.9732 259.75 51.9794 259.715 51.9885C259.627 52.0122 259.463 52.056 259.383 52.0088C259.396 51.9738 259.404 51.9372 259.406 51.9001C259.455 51.8682 259.508 51.8426 259.564 51.8239C259.527 51.8248 259.491 51.8132 259.462 51.7913C259.462 51.7913 259.496 51.7913 259.519 51.7695H259.598C259.626 51.7442 259.661 51.7289 259.699 51.726V51.6716C259.846 51.639 259.846 51.639 259.869 51.6173C259.87 51.5991 259.87 51.581 259.869 51.5628C259.903 51.5472 259.934 51.525 259.959 51.4976H260.095C260.115 51.4829 260.128 51.4639 260.142 51.4445C260.159 51.4205 260.176 51.3959 260.208 51.3779V51.4106C260.208 51.4106 260.242 51.4106 260.264 51.4323C260.28 51.4481 260.291 51.4297 260.3 51.4142C260.303 51.4082 260.306 51.4027 260.309 51.3997C260.347 51.4051 260.385 51.4051 260.422 51.3997C260.4 51.3779 260.366 51.3452 260.366 51.3127C260.592 51.1386 260.592 51.1386 260.648 51.1495C260.705 51.0081 260.705 51.0081 260.772 50.9864C260.785 50.9529 260.8 50.9201 260.818 50.8884C260.818 50.8884 260.851 50.9102 260.863 50.9211C260.863 50.8967 260.872 50.8745 260.881 50.8525C260.892 50.8255 260.903 50.7988 260.897 50.7688C260.889 50.7333 260.92 50.7256 260.949 50.7185C260.964 50.7147 260.979 50.7111 260.987 50.7035C261.015 50.6001 261.1 50.5402 261.184 50.4807C261.269 50.4213 261.353 50.3621 261.379 50.2603C261.392 50.2487 261.408 50.2412 261.425 50.2385C261.425 50.2385 261.458 50.2385 261.481 50.2603C261.488 50.2427 261.488 50.2235 261.481 50.2059C261.481 50.2059 261.515 50.1841 261.526 50.1732C261.564 50.1787 261.602 50.1787 261.639 50.1732L261.526 50.1298C261.673 50.0754 261.673 50.0754 261.696 49.9992C261.73 49.9827 261.758 49.956 261.775 49.9231L261.82 49.9557C261.82 49.9557 261.842 49.9231 261.854 49.9122C261.857 49.9087 261.863 49.9075 261.87 49.9081C261.849 49.8982 261.823 49.8931 261.752 49.8795C261.752 49.8795 261.786 49.8578 261.797 49.8469H261.82C261.839 49.8459 261.857 49.8459 261.876 49.8469C261.862 49.8321 261.854 49.8127 261.854 49.7925C261.873 49.7936 261.891 49.7936 261.91 49.7925C261.922 49.8286 261.941 49.8619 261.967 49.8905C261.967 49.8905 261.967 49.8578 261.989 49.8361H262.046C262.046 49.8361 262.046 49.8687 262.068 49.8905C262.08 49.8578 262.1 49.8281 262.125 49.8034L262.17 49.7817C262.202 49.8007 262.236 49.8153 262.272 49.8252C262.266 49.7876 262.254 49.751 262.238 49.7164C262.259 49.7167 262.279 49.7244 262.294 49.7382C262.294 49.7382 262.317 49.7055 262.328 49.6946C262.356 49.7227 262.386 49.7482 262.418 49.7708C262.43 49.7381 262.45 49.7084 262.475 49.6838V49.6294L262.52 49.6729C262.52 49.6729 262.543 49.6402 262.554 49.6294C262.553 49.6113 262.553 49.5931 262.554 49.575L262.723 49.5424C262.723 49.5678 262.713 49.5933 262.702 49.6194C262.686 49.6602 262.669 49.7026 262.689 49.749C262.726 49.685 262.771 49.6263 262.825 49.575C262.831 49.6126 262.842 49.6492 262.859 49.6838C262.915 49.6403 262.915 49.6403 262.949 49.5427C262.985 49.5473 263.019 49.5579 263.051 49.575C263.052 49.5931 263.052 49.6113 263.051 49.6294C263.051 49.6294 263.085 49.6294 263.107 49.6511C263.106 49.633 263.106 49.6149 263.107 49.5968C263.203 49.6108 263.298 49.6327 263.39 49.662V49.7164L263.22 49.7599C263.344 49.8142 263.345 49.8143 263.367 49.8469C263.41 49.8264 263.455 49.8252 263.5 49.824C263.551 49.8227 263.602 49.8213 263.649 49.7925C263.684 49.8082 263.715 49.8304 263.74 49.8578H263.683C263.73 49.8882 263.785 49.9035 263.841 49.9013L263.875 49.9339C264.386 49.9435 264.876 50.1276 265.259 50.4534C265.36 50.7253 264.674 50.7987 264 50.4534C264 50.4534 263.966 50.4751 263.954 50.486C264.46 50.8313 264.46 50.8313 264.471 50.8531C264.482 50.8748 264.909 51.4922 265.18 51.2012C265.146 51.1601 265.089 51.1377 265.034 51.1157C264.942 51.0794 264.854 51.0443 264.875 50.9292L264.916 50.9426C265.352 51.0834 265.442 51.1125 265.527 51.0598C265.29 50.8422 265.29 50.8422 265.482 50.5948C265.601 50.6244 265.718 50.6607 265.832 50.7035L265.831 50.7019C265.372 50.1189 265.372 50.1188 265.267 50.0536C265.65 50.121 265.736 50.1362 265.788 50.1851C265.804 50.1993 265.816 50.2164 265.832 50.2385L265.719 50.282C265.718 50.3002 265.718 50.3183 265.719 50.3364C265.934 50.4669 265.934 50.467 266.058 50.4887L266.092 50.2712C266.16 50.245 266.211 50.1992 266.264 50.1526C266.298 50.1217 266.334 50.0905 266.374 50.0645H266.476C266.464 50.0525 266.456 50.0373 266.453 50.021C266.481 50.0009 266.505 49.9749 266.521 49.9448L266.522 49.9457C266.724 50.108 266.724 50.108 266.803 50.1298V50.0862C266.827 50.0578 266.859 50.0373 266.896 50.0275C266.932 50.0178 266.971 50.0192 267.007 50.0318L267.029 49.9992C267.038 49.9797 267.054 49.9642 267.074 49.9557C267.106 49.9557 267.134 49.9694 267.163 49.9834C267.185 49.9943 267.208 50.0053 267.232 50.0101L267.278 50.0536C267.296 50.0579 267.315 50.0579 267.334 50.0536C270.323 51.0268 272.976 52.7738 275.002 55.1032C277.028 57.4325 278.349 60.2543 278.82 63.2589C278.436 62.5111 278.416 62.5002 278.269 62.4241L278.252 62.4186ZM271.33 56.1539V56.1321C271.33 56.1104 271.307 56.1104 271.296 56.1104C271.284 56.1104 271.239 56.1104 271.217 56.0887C271.194 56.0669 271.183 56.0125 271.251 56.0125C271.318 56.0125 271.318 55.9799 271.318 55.9799C271.318 55.9799 271.262 55.9472 271.194 55.9581H271.172L271.149 55.9146H271.115C271.126 55.9385 271.136 55.9576 271.143 55.9729C271.174 56.0342 271.174 56.0343 271.138 56.0343C271.106 56.0343 271.102 56.0184 271.099 56.0051C271.097 55.9993 271.096 55.994 271.092 55.9907L271.025 56.0343C271.025 56.0343 271.002 56.056 271.002 56.0669C271 56.0958 271 56.1249 271.002 56.1539V56.2518C271.002 56.2518 271.025 56.415 271.092 56.4476C271.16 56.4802 271.138 56.3606 271.138 56.3606C271.138 56.3171 271.119 56.2807 271.101 56.2453C271.088 56.2188 271.075 56.1928 271.07 56.1648C271.059 56.0995 271.07 56.0451 271.115 56.0887C271.148 56.1159 271.175 56.1492 271.194 56.1865C271.213 56.2238 271.225 56.2645 271.228 56.3062C271.228 56.4367 271.284 56.4911 271.307 56.502C271.33 56.5129 271.476 56.502 271.476 56.4585C271.476 56.4316 271.468 56.4054 271.454 56.3823L271.33 56.1539ZM270.338 57.4963C270.326 57.5165 270.31 57.5348 270.293 57.5507C270.315 57.6894 270.315 57.6894 270.504 57.7383L270.787 58.6058C270.703 58.6196 270.622 58.642 270.54 58.6649C270.493 58.6782 270.444 58.6917 270.394 58.7037H270.372C270.19 58.6727 270.019 58.5965 269.877 58.4825C269.735 58.3685 269.626 58.2207 269.561 58.0538C269.64 57.9478 269.641 57.9476 269.641 57.6975C269.669 57.6831 269.696 57.6648 269.72 57.6431C268.808 56.792 268.808 56.792 268.717 56.0117C268.78 56.028 268.846 56.0278 268.909 56.0115C268.9 55.7805 269.225 55.7312 269.364 55.7101C269.402 55.7043 269.426 55.7007 269.426 55.6961C269.426 55.6743 269.482 55.6961 269.482 55.6961C269.821 55.6743 270.236 56.1937 270.236 56.1937L270.191 56.2372C270.127 56.2226 270.06 56.2167 269.992 56.2108C269.908 56.2034 269.823 56.196 269.742 56.172C269.731 56.1828 269.708 56.2155 269.708 56.2155C269.68 56.2313 269.65 56.2423 269.618 56.2481C269.573 56.259 269.584 56.3025 269.641 56.3786C269.674 56.4113 269.674 56.4439 269.674 56.4439C269.659 56.4468 269.644 56.4468 269.629 56.4439C269.559 56.4114 269.479 56.4037 269.403 56.4222C269.444 56.4617 269.495 56.4983 269.543 56.5335C269.588 56.5661 269.631 56.5974 269.663 56.6288C269.731 56.6941 269.731 56.7158 269.731 56.7485C269.731 56.7569 269.733 56.7651 269.737 56.7727C269.741 56.7802 269.747 56.7868 269.754 56.792C269.76 56.7983 269.793 56.812 269.829 56.8267C269.855 56.8372 269.881 56.8482 269.9 56.8572C269.934 56.879 269.968 56.9116 270.183 57.2787C270.27 56.9334 270.62 57.3658 270.62 57.3658C270.688 57.4963 270.654 57.4963 270.338 57.4963Z" fill="white"/>
<path d="M260.219 53.6758V53.7084C260.219 53.7048 260.216 53.7024 260.214 53.7C260.209 53.6952 260.204 53.6903 260.219 53.6758Z" fill="white"/>
<path d="M260.27 53.6051C260.265 53.6051 260.255 53.6061 260.245 53.61L260.27 53.6051Z" fill="white"/>
<path d="M262.215 49.5859H262.283C262.283 49.5859 262.328 49.6076 262.328 49.6185L262.283 49.6402C262.268 49.639 262.253 49.639 262.238 49.6402C262.238 49.6402 262.204 49.6076 262.204 49.5968L262.215 49.5859Z" fill="white"/>
<path d="M262.396 49.662C262.418 49.6512 262.418 49.6294 262.418 49.6294H262.339C262.345 49.6411 262.353 49.6521 262.362 49.662C262.362 49.662 262.373 49.6729 262.396 49.662Z" fill="white"/>
<path d="M265.849 49.8252C265.82 49.8043 265.785 49.7928 265.75 49.7925C265.727 49.7928 265.705 49.8146 265.725 49.8578C265.746 49.9063 265.781 49.9479 265.826 49.9775C265.826 49.9666 265.821 49.9612 265.818 49.9584C265.815 49.9557 265.815 49.9557 265.826 49.9557C265.838 49.9557 265.846 49.9611 265.855 49.9666C265.863 49.972 265.871 49.9775 265.883 49.9775H265.905L265.962 49.9557V49.8795C265.948 49.8667 265.933 49.8558 265.917 49.8469C265.905 49.8469 265.894 49.8469 265.849 49.8252Z" fill="white"/>
<path d="M262.037 49.6963C262.032 49.6948 262.028 49.6942 262.023 49.6946L262.026 49.6865C262.003 49.6865 262.012 49.749 262.023 49.749C262.027 49.749 262.032 49.7515 262.037 49.7539C262.047 49.7587 262.057 49.7635 262.057 49.749V49.7273C262.057 49.7229 262.057 49.7185 262.055 49.7143C262.054 49.7102 262.051 49.7064 262.048 49.7033C262.045 49.7002 262.041 49.6978 262.037 49.6963Z" fill="white"/>
<path d="M261.944 49.6946C261.944 49.6946 261.967 49.6946 261.967 49.7164H261.938C261.931 49.7189 261.923 49.7189 261.916 49.7164C261.904 49.7026 261.892 49.6881 261.882 49.6729L261.938 49.7055L261.944 49.6946Z" fill="white"/>
<path d="M261.529 49.9013L261.532 49.9122C261.532 49.9231 261.495 49.9584 261.495 49.9584V50.0101C261.495 50.0101 261.54 50.0318 261.552 50.0101C261.563 49.9883 261.574 49.9883 261.585 49.9883H261.619C261.627 49.9841 261.634 49.9777 261.638 49.9699C261.642 49.9622 261.643 49.9534 261.642 49.9448C261.641 49.9351 261.638 49.9259 261.632 49.9181C261.626 49.9104 261.618 49.9045 261.608 49.9013H261.529Z" fill="white"/>
<path d="M261.303 49.9448C261.318 49.9398 261.334 49.9398 261.348 49.9448C261.361 49.9313 261.376 49.9203 261.394 49.9122C261.394 49.9122 261.394 49.9557 261.36 49.9666H261.281C261.288 49.9611 261.297 49.9582 261.306 49.9584L261.303 49.9448Z" fill="white"/>
<path d="M261.247 50.0427C261.235 50.0427 261.224 50.0482 261.213 50.0536C261.202 50.059 261.19 50.0645 261.179 50.0645C261.172 50.0645 261.169 50.0645 261.169 50.0638C261.169 50.0634 261.169 50.0628 261.17 50.0618C261.173 50.0591 261.179 50.0536 261.179 50.0427C261.179 50.0427 261.213 50.0427 261.235 50.021C261.249 50.0082 261.254 49.9992 261.259 49.9917C261.262 49.9865 261.265 49.982 261.269 49.9775C261.273 50.0021 261.285 50.0249 261.303 50.0427V50.021C261.303 49.9666 261.348 49.9883 261.348 49.9883C261.348 49.9883 261.371 50.021 261.348 50.0427C261.348 50.0427 261.394 50.0427 261.405 50.0101C261.416 49.9775 261.45 50.0101 261.45 50.0427V50.0645C261.445 50.0667 261.439 50.0679 261.433 50.0679C261.427 50.0679 261.421 50.0667 261.416 50.0645L261.394 50.0862H261.374C261.374 50.0862 261.374 50.108 261.351 50.108C261.34 50.108 261.334 50.1025 261.329 50.0971C261.323 50.0917 261.317 50.0862 261.306 50.0862C261.295 50.0862 261.286 50.0944 261.276 50.1039C261.266 50.1134 261.255 50.1243 261.238 50.1298H261.159C261.137 50.1298 261.114 50.1297 261.137 50.108C261.152 50.0942 261.172 50.0865 261.193 50.0862C261.217 50.0804 261.235 50.0738 261.248 50.0673L261.247 50.0645V50.0427Z" fill="white"/>
<path d="M259.524 51.658C259.524 51.658 259.547 51.6363 259.57 51.6363C259.57 51.6363 259.547 51.6689 259.524 51.6798V51.658Z" fill="white"/>
<path d="M259.299 51.9801V51.9735L259.304 51.9789C259.302 51.9789 259.3 51.9793 259.299 51.9801Z" fill="white"/>
<path d="M259.299 51.9801V51.9952C259.301 52.0023 259.301 52.01 259.299 52.017C259.299 52.017 259.276 52.0387 259.265 52.0387C259.254 52.0387 259.277 51.9884 259.299 51.9801Z" fill="white"/>
<path d="M259.332 52.2889V52.2962C259.326 52.2987 259.32 52.3021 259.315 52.3064C259.308 52.3119 259.303 52.3188 259.299 52.3265C259.295 52.3342 259.293 52.3427 259.293 52.3512C259.293 52.3597 259.295 52.3682 259.299 52.376C259.332 52.3651 259.332 52.3325 259.332 52.3107V52.2962L259.338 52.2944L259.332 52.2889Z" fill="white"/>
<path d="M258.096 52.1693V52.2019L258.101 52.2073C258.101 52.2193 258.089 52.223 258.075 52.2276C258.063 52.2313 258.049 52.2356 258.039 52.2454C258.017 52.2672 258.017 52.2454 258.039 52.2672L258.062 52.2889C258.066 52.3068 258.066 52.3254 258.062 52.3433C258.096 52.309 258.123 52.2683 258.141 52.2236C258.186 52.1475 258.152 52.1258 258.141 52.1258C258.13 52.1258 258.096 52.1584 258.096 52.1693Z" fill="white"/>
<path d="M257.658 52.5473C257.659 52.5417 257.661 52.5365 257.665 52.5325C257.67 52.5286 257.675 52.5261 257.681 52.5255L257.703 52.5473C257.715 52.5581 257.72 52.5581 257.724 52.5582C257.729 52.5582 257.731 52.5582 257.737 52.569H257.681C257.673 52.5669 257.665 52.5669 257.658 52.569C257.636 52.5908 257.624 52.6017 257.624 52.569C257.624 52.5592 257.625 52.56 257.626 52.5641C257.629 52.5737 257.637 52.601 257.661 52.5554L257.658 52.5473Z" fill="white"/>
<path d="M257.299 51.7016L257.302 51.7097C257.28 51.7097 257.254 51.7124 257.277 51.7342L257.299 51.7559V51.7777C257.303 51.7804 257.307 51.7819 257.311 51.7819C257.315 51.7819 257.319 51.7804 257.322 51.7777C257.322 51.7777 257.3 51.7559 257.322 51.7559H257.345C257.348 51.7542 257.35 51.7518 257.352 51.749C257.353 51.7461 257.354 51.7429 257.354 51.7396C257.354 51.7363 257.353 51.7331 257.352 51.7302C257.35 51.7274 257.348 51.725 257.345 51.7233H257.322C257.322 51.7016 257.322 51.7016 257.299 51.7016Z" fill="white"/>
<path d="M257.345 51.8103C257.345 51.8139 257.346 51.8175 257.346 51.8212L257.345 51.8212C257.333 51.8212 257.328 51.8212 257.325 51.8239C257.322 51.8266 257.322 51.832 257.322 51.8429C257.329 51.8454 257.337 51.8454 257.345 51.8429C257.346 51.8357 257.346 51.8284 257.346 51.8212C257.367 51.8207 257.347 51.8078 257.347 51.8185L257.345 51.8103Z" fill="white"/>
<path d="M257.277 51.8639V51.8538L257.28 51.862C257.279 51.862 257.278 51.8627 257.277 51.8639Z" fill="white"/>
<path d="M257.277 51.93V51.8639C257.27 51.875 257.277 51.93 257.277 51.93Z" fill="white"/>
<path d="M257.277 52.7213C257.3 52.6996 257.322 52.6887 257.604 52.6669C257.604 52.6995 257.604 52.6996 257.379 52.8736L257.378 52.8742C257.311 52.9171 257.311 52.9172 257.299 52.9388C257.293 52.9512 257.301 52.9495 257.32 52.9458C257.334 52.9429 257.354 52.9388 257.379 52.9388C257.514 52.8953 257.76 52.8736 257.782 52.9388C257.718 53.0406 257.638 53.1323 257.545 53.2108C257.545 53.2108 257.511 53.2325 257.511 53.2434V53.2978C257.511 53.3012 257.504 53.3025 257.493 53.3043C257.468 53.3083 257.429 53.3148 257.421 53.3522C257.452 53.3771 257.49 53.3883 257.527 53.3994C257.572 53.4125 257.616 53.4255 257.647 53.461C257.68 53.4988 257.686 53.544 257.692 53.588C257.696 53.6198 257.7 53.6511 257.715 53.6785C257.731 53.7112 257.754 53.7329 257.775 53.7533C257.796 53.7737 257.816 53.7927 257.828 53.8199C257.847 53.8542 257.863 53.8907 257.873 53.9287C257.884 53.945 257.878 53.9641 257.873 53.9831C257.867 54.0021 257.861 54.0212 257.873 54.0375C257.882 54.0517 257.894 54.0617 257.906 54.0712C257.92 54.0837 257.934 54.0952 257.94 54.1136C257.94 54.1571 257.94 54.1572 257.839 54.2333C257.851 54.2409 257.864 54.245 257.878 54.245C257.892 54.245 257.906 54.2409 257.918 54.2333C257.918 54.2333 258.245 54.1028 258.2 54.3312C258.182 54.4117 258.117 54.4466 258.053 54.481C257.996 54.5115 257.939 54.5416 257.918 54.6031C257.942 54.6263 257.969 54.6248 257.996 54.6232C258.02 54.6219 258.044 54.6205 258.065 54.6358C258.065 54.6901 257.952 54.7445 257.895 54.7554C257.788 54.7826 257.676 54.7935 257.563 54.8044C257.451 54.8152 257.339 54.8261 257.232 54.8533C257.017 54.8207 257.017 54.8207 256.995 54.8533C256.973 54.8825 256.96 54.9006 256.942 54.9123C256.913 54.9311 256.873 54.9336 256.769 54.9403C256.733 54.9403 256.702 54.9608 256.672 54.9815C256.625 55.013 256.577 55.045 256.509 55.0056C256.509 55.0056 256.837 54.6575 257.003 54.6684C257.046 54.6725 257.089 54.6643 257.127 54.645C257.165 54.6257 257.197 54.596 257.218 54.5596C257.189 54.5596 257.167 54.5678 257.144 54.5759C257.122 54.5841 257.099 54.5922 257.071 54.5922L256.913 54.5487L256.89 54.5052C256.867 54.5052 256.844 54.5127 256.822 54.5201C256.778 54.5345 256.735 54.5483 256.698 54.5052C256.698 54.4984 256.698 54.4937 256.7 54.4902C256.705 54.4824 256.719 54.4801 256.766 54.4726C257.127 54.3638 257.026 54.2006 256.969 54.2224H256.913C256.964 54.1537 257.041 54.107 257.127 54.0919C257.168 54.0973 257.209 54.0943 257.248 54.0831C257.287 54.0718 257.323 54.0525 257.353 54.0266C257.376 54.0049 257.368 53.9831 257.361 53.9614C257.357 53.9505 257.353 53.9396 257.353 53.9287C257.353 53.9084 257.362 53.8922 257.371 53.8751C257.377 53.8647 257.383 53.854 257.387 53.8417C257.206 53.8743 257.274 53.7112 257.274 53.7112L257.376 53.6459L257.048 53.6894C257.037 53.6894 257.031 53.6976 257.026 53.7057C257.02 53.7139 257.014 53.722 257.003 53.722C256.992 53.7045 256.988 53.6835 256.992 53.6634C256.996 53.6432 257.008 53.6253 257.026 53.6133C257.184 53.4501 257.139 53.3413 257.139 53.3413C257.139 53.3413 257.105 53.3413 257.037 53.4828C257.037 53.4502 257.037 53.4501 257.014 53.4501C257.004 53.4501 256.996 53.4618 256.986 53.4765C256.974 53.4935 256.959 53.5146 256.935 53.5262C256.935 53.4882 256.955 53.4555 256.975 53.4229C256.995 53.3903 257.014 53.3576 257.014 53.3196C256.99 53.3312 256.969 53.3567 256.948 53.3813C256.911 53.4255 256.877 53.4664 256.834 53.4175C256.845 53.3794 256.879 53.3604 256.913 53.3413C256.947 53.3223 256.981 53.3033 256.992 53.2652C256.981 53.2652 256.969 53.2676 256.958 53.27C256.935 53.2749 256.913 53.2797 256.89 53.2652C256.89 53.2434 256.89 53.2434 257.082 53.0694C257.118 53.0347 257.125 52.9877 257.133 52.9398C257.139 52.8977 257.146 52.8549 257.172 52.8192L257.277 52.7213Z" fill="white"/>
<path d="M255.758 54.5841C255.75 54.5918 255.74 54.5981 255.732 54.6041C255.716 54.6149 255.701 54.6244 255.701 54.6385L255.727 54.6466C255.749 54.6466 255.792 54.6494 255.792 54.6602C255.792 54.6639 255.788 54.6663 255.784 54.6687C255.777 54.6735 255.769 54.6784 255.792 54.6929C255.826 54.7146 256.006 54.6494 256.006 54.6494C256.049 54.6411 256.053 54.6266 256.057 54.6106C256.059 54.6055 256.06 54.6002 256.063 54.595C256.071 54.5801 256.094 54.5856 256.115 54.5905C256.125 54.5928 256.135 54.595 256.142 54.595C256.175 54.5897 256.203 54.5714 256.229 54.5541C256.256 54.5359 256.282 54.5188 256.311 54.5188H256.481C256.503 54.5188 256.503 54.4971 256.503 54.4971L256.616 54.3013C256.647 54.2366 256.655 54.164 256.639 54.0946V54.0511C256.647 54.0398 256.657 54.0302 256.668 54.0227C256.68 54.0152 256.693 54.0101 256.707 54.0076C256.765 53.99 256.814 53.9509 256.842 53.8988V53.877C256.842 53.8591 256.832 53.8477 256.823 53.8375C256.815 53.8292 256.808 53.8216 256.808 53.8118V53.7465C256.799 53.7305 256.788 53.7159 256.774 53.703C256.752 53.6867 256.749 53.6813 256.748 53.6785L256.747 53.6773C256.746 53.6757 256.743 53.6749 256.729 53.6705C256.71 53.6643 256.695 53.6719 256.679 53.6798C256.666 53.6859 256.654 53.6921 256.639 53.6921C256.62 53.6921 256.608 53.6822 256.598 53.6733C256.589 53.6661 256.581 53.6595 256.571 53.6595H256.424C256.353 53.6966 256.288 53.7443 256.232 53.8009C256.238 53.8226 256.26 53.8226 256.282 53.8227C256.303 53.8227 256.323 53.8227 256.323 53.8444C256.284 53.8815 256.238 53.9111 256.187 53.9314C256.15 53.9417 256.111 53.9417 256.074 53.9314C256.056 53.9314 256.043 53.9297 256.033 53.9283C256.018 53.9262 256.009 53.9249 255.995 53.9314C255.973 53.9423 255.939 53.975 255.939 53.9858C255.939 53.9882 255.939 53.99 255.938 53.9917C255.936 53.9977 255.926 54.0014 255.882 54.0184C255.894 54.051 255.939 54.0511 255.972 54.0511C255.972 54.062 255.961 54.0728 255.893 54.1055C255.871 54.1163 255.848 54.1272 255.848 54.149L255.916 54.2034C255.95 54.2251 255.995 54.2251 256.029 54.2251C256.02 54.2348 256.008 54.2423 255.995 54.2469C255.94 54.2801 255.894 54.3247 255.86 54.3774C255.885 54.4016 255.91 54.3922 255.935 54.3828C255.955 54.3753 255.975 54.3677 255.995 54.3774C255.966 54.3887 255.936 54.396 255.905 54.3992C255.886 54.3949 255.867 54.3949 255.848 54.3992C255.826 54.41 255.803 54.4318 255.78 54.4536C255.758 54.4753 255.724 54.4753 255.702 54.4753C255.69 54.4862 255.69 54.4862 255.735 54.5188C255.735 54.5406 255.705 54.5623 255.689 54.5744C255.68 54.5805 255.675 54.5841 255.679 54.5841H255.758Z" fill="white"/>
<path d="M256.916 53.9233L256.938 53.9015L257.006 53.8689C257.05 53.8368 257.051 53.8362 257.062 53.8362C257.068 53.8362 257.068 53.8362 257.067 53.8403C257.065 53.8444 257.062 53.8526 257.062 53.8689C257.062 53.9015 257.029 53.9233 257.017 53.9233L256.961 53.945C256.95 53.942 256.939 53.9374 256.93 53.9314L256.916 53.9233Z" fill="white"/>
<path d="M256.87 53.0123C256.868 53.0052 256.868 52.9976 256.87 52.9905C256.87 52.9905 256.904 52.9905 256.927 52.9688V52.947L256.949 52.9905C256.966 53.0218 256.959 53.0306 256.953 53.0371C256.951 53.0397 256.949 53.0418 256.949 53.0449H256.972V53.0884H256.949C256.949 53.0884 256.949 53.0667 256.927 53.0667H256.882V53.0241C256.872 53.0291 256.84 53.0232 256.859 53.0232C256.87 53.0232 256.876 53.0204 256.879 53.0191C256.88 53.0187 256.88 53.0184 256.881 53.0183L256.87 53.0123Z" fill="white"/>
<path d="M256.87 52.8165C256.893 52.8165 256.916 52.8165 256.927 52.7839L256.961 52.7512C257.028 52.7186 257.028 52.7186 257.04 52.7186C257.051 52.7186 257.04 52.7621 257.04 52.7621C257.04 52.7621 257.04 52.7839 257.017 52.7839C256.995 52.7839 256.995 52.7839 256.983 52.8056C256.979 52.8134 256.978 52.8184 256.977 52.8222C256.976 52.8288 256.975 52.8313 256.961 52.8383C256.952 52.8425 256.95 52.8434 256.95 52.843C256.95 52.8416 256.949 52.8383 256.938 52.8383H256.916C256.916 52.8383 256.893 52.8382 256.893 52.86C256.886 52.8621 256.878 52.8621 256.87 52.86C256.866 52.864 256.86 52.8662 256.853 52.8662C256.847 52.8662 256.841 52.864 256.836 52.86C256.836 52.86 256.856 52.8464 256.884 52.8246L256.87 52.8165Z" fill="white"/>
<path d="M256.724 52.9579C256.724 52.9905 256.825 52.9796 256.825 52.9579L256.839 52.9661C256.856 52.9497 256.836 52.9253 256.803 52.9253C256.769 52.9253 256.724 52.9253 256.724 52.9579Z" fill="white"/>
<path d="M255.453 51.1279C255.363 51.2148 255.351 51.2257 255.284 51.2474L255.301 51.2556C255.278 51.2638 255.261 51.2718 255.246 51.2787L255.239 51.282C255.194 51.2854 255.148 51.2847 255.103 51.28C255.179 51.3069 255.201 51.2999 255.239 51.282C255.247 51.2814 255.254 51.2808 255.261 51.28H255.329C255.341 51.2824 255.353 51.2876 255.362 51.2952C255.372 51.3028 255.38 51.3125 255.385 51.3235C255.408 51.3562 255.555 51.3888 255.555 51.3888C255.6 51.3843 255.646 51.3771 255.69 51.3671C255.747 51.3453 255.792 51.3236 255.837 51.3018L255.838 51.3015C255.973 51.2583 255.973 51.2583 255.995 51.2583C256.009 51.2598 256.023 51.2587 256.037 51.255C256.05 51.2513 256.063 51.245 256.074 51.2365C256.108 51.2257 256.136 51.2066 256.164 51.1876C256.193 51.1686 256.221 51.1495 256.255 51.1386C256.266 51.1386 256.266 51.1386 256.3 51.1713C256.339 51.1553 256.376 51.1372 256.413 51.1169C256.436 51.0951 256.447 51.0733 256.458 51.0516C256.462 51.0441 256.465 51.0391 256.469 51.0359C256.476 51.0299 256.489 51.0299 256.526 51.0299C256.568 51.0117 256.607 50.9858 256.639 50.9537L256.673 50.8341C256.673 50.8178 256.676 50.8096 256.677 50.8055C256.678 50.8014 256.678 50.8014 256.673 50.8014H256.639V50.7797C256.639 50.7797 256.628 50.8123 256.616 50.7797C256.609 50.7579 256.631 50.7362 256.644 50.7241C256.65 50.718 256.654 50.7144 256.65 50.7144H256.616C256.631 50.6955 256.65 50.6849 256.668 50.6744C256.693 50.6607 256.716 50.6473 256.729 50.6165C256.701 50.6165 256.678 50.6301 256.656 50.6437C256.633 50.6573 256.611 50.6709 256.582 50.6709C256.558 50.6239 256.551 50.6107 256.541 50.6071C256.537 50.6057 256.532 50.6057 256.526 50.6057C256.495 50.6107 256.475 50.6319 256.456 50.6533C256.433 50.6783 256.41 50.7035 256.368 50.7035V50.6818C256.357 50.6818 256.356 50.6818 256.289 50.7253C256.278 50.7303 256.273 50.7193 256.266 50.707C256.259 50.6924 256.251 50.6759 256.232 50.6818C256.21 50.689 256.207 50.6963 256.205 50.7035C256.203 50.7072 256.202 50.7108 256.198 50.7144C256.194 50.7182 256.186 50.7325 256.178 50.7481C256.161 50.7775 256.142 50.8119 256.142 50.7906V50.6818C256.029 50.7361 256.029 50.7362 256.007 50.7579C255.995 50.7752 255.979 50.79 255.961 50.8014C255.961 50.7901 255.963 50.7762 255.964 50.7629C255.966 50.7377 255.969 50.7144 255.961 50.7144C255.95 50.7144 255.939 50.7253 255.916 50.7579C255.826 50.8776 255.803 50.845 255.803 50.845C255.747 50.8885 255.718 50.9184 255.704 50.9334C255.697 50.9412 255.693 50.945 255.692 50.9443C255.69 50.9437 255.69 50.9397 255.69 50.932C255.69 50.9193 255.697 50.9082 255.704 50.8968C255.715 50.8791 255.727 50.8606 255.713 50.8341C255.723 50.8242 255.735 50.8153 255.748 50.8065C255.776 50.7863 255.803 50.7665 255.803 50.7362C255.803 50.7057 255.759 50.654 255.717 50.6405C255.717 50.6393 255.716 50.6392 255.714 50.6398C255.697 50.6349 255.681 50.6366 255.668 50.6491C255.69 50.6491 255.704 50.6437 255.711 50.641L255.714 50.6398L255.717 50.6405C255.717 50.6419 255.715 50.6445 255.713 50.6491C255.706 50.6617 255.692 50.6634 255.681 50.6647C255.674 50.6656 255.668 50.6663 255.668 50.6709C255.668 50.6745 255.666 50.6781 255.665 50.6818C255.663 50.689 255.66 50.6963 255.668 50.7035C255.679 50.7144 255.645 50.7688 255.622 50.747V50.7253C255.612 50.7253 255.607 50.7187 255.6 50.7114C255.593 50.7026 255.585 50.6927 255.566 50.6927C255.534 50.7116 255.507 50.7377 255.487 50.7688C255.487 50.7786 255.491 50.7774 255.496 50.776C255.503 50.7744 255.509 50.7726 255.509 50.7906C255.509 50.8232 255.498 50.8232 255.464 50.8232C255.43 50.8232 255.43 50.7906 255.43 50.7906L255.422 50.8109C255.407 50.8476 255.405 50.8543 255.385 50.845C255.363 50.8341 255.34 50.8341 255.306 50.8667C255.368 50.8883 255.436 50.8883 255.498 50.8667C255.543 50.8341 255.543 50.8341 255.634 50.8667C255.617 50.8878 255.593 50.8961 255.569 50.9041C255.545 50.9125 255.521 50.9205 255.509 50.9428C255.524 50.9642 255.544 50.9576 255.565 50.9505C255.576 50.9468 255.588 50.9428 255.6 50.9428C255.586 50.9582 255.568 50.9702 255.549 50.9778C255.529 50.9853 255.508 50.9883 255.487 50.9864C255.487 50.9864 255.261 50.9972 255.227 51.0625C255.25 51.0625 255.272 51.06 255.293 51.0575C255.335 51.0527 255.374 51.0481 255.419 51.0625C255.419 51.0734 255.411 51.0897 255.404 51.1032C255.397 51.1168 255.391 51.1277 255.397 51.1277L255.453 51.1279Z" fill="white"/>
<path d="M253.573 61.0372V61.0411C253.532 61.057 253.463 61.1163 253.482 61.1351C253.505 61.1568 253.573 61.0807 253.573 61.0589V61.0411C253.579 61.0386 253.585 61.0372 253.589 61.0372H253.573Z" fill="white"/>
<path d="M253.382 61.2699C253.37 61.283 253.358 61.296 253.358 61.3091L253.375 61.32C253.375 61.32 253.313 61.32 253.324 61.3309C253.335 61.3418 253.437 61.3091 253.437 61.2438C253.46 61.2221 253.437 61.1895 253.437 61.1895C253.431 61.2003 253.426 61.2085 253.42 61.2166C253.414 61.2248 253.409 61.2329 253.403 61.2438C253.399 61.2525 253.391 61.2612 253.382 61.2699Z" fill="white"/>
<path d="M253.008 61.3418H253.053C253.056 61.3486 253.058 61.356 253.058 61.3635C253.058 61.371 253.056 61.3784 253.053 61.3852C253.053 61.4396 252.985 61.4723 252.963 61.4505C252.94 61.4288 252.994 61.3526 253.028 61.3526L253.008 61.3418Z" fill="white"/>
<path d="M252.884 61.2221C252.841 61.2298 252.802 61.2486 252.771 61.2765L252.79 61.2874C252.757 61.32 252.759 61.3091 252.759 61.3091C252.759 61.3091 252.759 61.3418 252.805 61.3418C252.813 61.3416 252.822 61.3395 252.83 61.3357C252.838 61.332 252.844 61.3266 252.85 61.32C252.852 61.3129 252.852 61.3053 252.85 61.2982V61.2656C252.86 61.2504 252.871 61.2359 252.884 61.2221Z" fill="white"/>
<path d="M248.043 55.7789C248.066 55.7492 248.09 55.7183 248.115 55.6854L248.124 55.6737C248.153 55.6361 248.174 55.6083 248.205 55.5984C248.205 55.6419 248.174 55.6691 248.143 55.6963C248.112 55.7235 248.081 55.7507 248.081 55.7942C248.098 55.7942 248.109 55.7815 248.118 55.7707C248.121 55.7673 248.123 55.7642 248.126 55.7616C248.129 55.7588 248.13 55.7574 248.131 55.7577C248.131 55.7579 248.131 55.7596 248.13 55.7629C248.129 55.7697 248.126 55.7833 248.126 55.8051C248.069 55.8927 247.996 55.97 247.912 56.0335C247.919 56.02 247.927 56.0076 247.934 55.9956C247.952 55.9688 247.968 55.9439 247.968 55.9139L247.957 55.8921C247.982 55.8551 248.012 55.818 248.043 55.7789Z" fill="white"/>
<path d="M249.261 75.1997C249.213 75.2256 249.159 75.2268 249.107 75.228C249.049 75.2294 248.992 75.2307 248.945 75.265C248.836 75.3793 248.765 75.5223 248.742 75.6756C248.719 75.8387 248.719 75.8388 249.047 76.456L249.137 76.7715C246.624 74.141 245.068 70.7945 244.704 67.2374C244.714 67.2667 244.727 67.296 244.74 67.3283C244.757 67.3679 244.776 67.4119 244.794 67.4658H244.828C244.853 67.4977 244.872 67.534 244.891 67.5704C244.923 67.6332 244.956 67.6964 245.02 67.7377C245.066 67.7669 245.127 67.77 245.193 67.7732C245.274 67.7773 245.362 67.7816 245.435 67.8356C245.497 67.8812 245.546 67.9481 245.596 68.0172C245.653 68.0964 245.712 68.1787 245.797 68.2353C245.802 68.2331 245.808 68.2319 245.814 68.2319C245.82 68.2319 245.825 68.2331 245.831 68.2353C245.944 68.442 246.181 68.9505 246.113 69.1681L246.104 69.1953C245.998 69.4992 245.97 69.5818 246.09 69.6875C246.1 69.6523 246.088 69.6152 246.077 69.5778C246.06 69.5229 246.043 69.4673 246.09 69.4156C246.104 69.4613 246.114 69.5079 246.123 69.5549C246.11 69.3607 246.362 69.4241 246.407 69.4455C246.452 69.4672 246.61 69.78 246.271 69.8779V69.9105C246.309 69.9149 246.347 69.9149 246.384 69.9105C246.384 69.9105 246.407 69.9105 246.418 69.9323C246.418 69.9803 246.418 69.9981 246.427 70.0101C246.432 70.0171 246.439 70.0222 246.452 70.0301C246.576 69.4863 246.576 69.4863 247.036 69.8343C247.036 69.8343 247.059 69.8343 247.07 69.8126C247.133 69.8458 247.161 69.9014 247.189 69.9553C247.215 70.0074 247.24 70.0578 247.296 70.0845C247.31 70.0845 247.323 70.0728 247.337 70.061C247.346 70.0532 247.355 70.0454 247.364 70.041C248.072 70.2259 248.072 70.226 248.152 70.2803C248.235 70.3363 248.305 70.4066 248.373 70.4763C248.425 70.5284 248.476 70.5803 248.533 70.6257C248.597 70.6772 248.671 70.6966 248.742 70.7155C248.818 70.7354 248.891 70.7547 248.948 70.8106C249.047 70.9629 249.127 71.1264 249.185 71.2974C249.247 71.5753 249.227 71.8644 249.128 72.1322C249.004 72.3573 248.938 72.6086 248.938 72.8638C248.938 73.1189 249.004 73.3702 249.128 73.5953C249.26 74.1191 249.312 74.6588 249.281 75.197L249.261 75.1997Z" fill="white"/>
<path d="M250.882 58.4293H250.803C250.803 58.4293 250.837 58.3858 250.871 58.3858C250.904 58.3858 250.927 58.4184 250.916 58.4293C250.91 58.4351 250.909 58.4339 250.909 58.4316C250.908 58.4295 250.907 58.4266 250.902 58.4266L250.882 58.4293Z" fill="white"/>
<path d="M250.882 58.3314C250.882 58.3314 250.916 58.3749 250.938 58.3749L250.958 58.3722L250.965 58.3722L250.966 58.3722C250.964 58.3711 250.954 58.3667 250.961 58.3532C250.972 58.3314 250.95 58.3096 250.927 58.3096C250.904 58.3096 250.882 58.3314 250.882 58.3314Z" fill="white"/>
<path d="M251.074 58.3422C251.071 58.3366 251.07 58.3303 251.07 58.3241C251.07 58.3178 251.072 58.3117 251.076 58.3063C251.079 58.3009 251.084 58.2964 251.089 58.2932C251.095 58.29 251.101 58.2882 251.108 58.2879C251.13 58.2879 251.153 58.3096 251.142 58.3314C251.13 58.3531 251.105 58.3885 251.094 58.3395L251.074 58.3422Z" fill="white"/>
<path d="M251.341 58.6046C251.353 58.6102 251.366 58.6135 251.379 58.6142L251.396 58.6224C251.429 58.6041 251.458 58.579 251.48 58.5489H251.458C251.379 58.5489 251.311 58.549 251.311 58.5816C251.319 58.5912 251.33 58.599 251.341 58.6046Z" fill="white"/>
<path d="M251.943 52.1584L251.751 52.2889C251.815 52.2448 251.874 52.199 251.932 52.1535C252.017 52.0868 252.101 52.0208 252.2 51.9626L251.943 52.1584Z" fill="white"/>
<path d="M270.098 73.2853C270.11 73.2853 270.132 73.2744 270.155 73.1982L270.169 73.2037C270.214 72.997 270.157 72.4341 270.045 72.4015C269.932 72.4232 269.932 72.4667 269.932 72.532C269.901 72.6265 269.847 72.7125 269.773 72.7822C269.694 72.7604 269.694 72.7604 269.694 72.7604C269.689 72.7745 269.689 72.7898 269.694 72.8039C269.698 72.8297 269.693 72.8559 269.681 72.8791C269.669 72.9024 269.65 72.9217 269.627 72.9345C269.589 72.9639 269.602 72.9982 269.615 73.0308C269.621 73.0465 269.627 73.0618 269.627 73.0759C269.548 73.1085 269.536 73.0868 269.514 73.0433C269.483 73.0734 269.472 73.1102 269.461 73.1481C269.452 73.1786 269.444 73.2099 269.423 73.239C269.401 73.2064 269.299 73.1302 269.277 73.3587C269.245 73.3832 269.22 73.3663 269.195 73.3488C269.175 73.3352 269.154 73.3213 269.13 73.326C269.103 73.3311 269.082 73.3479 269.061 73.3645C269.037 73.3835 269.013 73.4022 268.983 73.4022H268.96C268.806 73.3836 268.802 73.3909 268.645 73.7049L268.633 73.7285C268.597 73.8742 268.597 74.0261 268.633 74.1718C268.667 74.2697 268.667 74.2806 268.633 74.3241C268.432 74.5715 268.252 74.8326 268.252 74.8435C268.252 74.8471 268.248 74.8591 268.243 74.8752C268.233 74.9075 268.218 74.9559 268.218 74.9849V75.4716C268.235 75.5301 268.268 75.5832 268.314 75.6252C268.36 75.6673 268.416 75.6969 268.478 75.7109C268.632 75.6764 268.78 75.6176 268.915 75.5369C268.926 75.526 269.805 73.9352 269.861 73.7285C269.911 73.5628 269.971 73.4003 270.042 73.2417H270.064C270.074 73.2576 270.085 73.2723 270.098 73.2853Z" fill="white"/>
<path d="M277.016 67.338C276.903 67.3924 276.891 66.7941 276.914 66.7533C276.927 66.7306 276.932 66.723 276.937 66.7171C276.94 66.7123 276.943 66.7086 276.948 66.6989C276.948 66.6228 276.948 66.5357 276.97 66.4596C276.983 66.4246 276.991 66.388 276.993 66.3508V66.2856L276.993 66.2791L276.993 66.2763C276.993 66.2742 276.994 66.2725 276.994 66.271C276.994 66.2697 276.995 66.2687 276.996 66.2678C276.999 66.2638 277.008 66.2638 277.027 66.2638C277.174 66.472 277.257 66.7164 277.264 66.9681C277.245 67.2401 277.125 67.2977 277.035 67.3409L277.03 67.3434L277.016 67.338Z" fill="white"/>
<path d="M257.556 58.1927C257.571 58.1757 257.591 58.1642 257.613 58.1601C257.636 58.1601 257.636 58.1818 257.636 58.1927C257.634 58.2021 257.63 58.211 257.624 58.2186C257.618 58.2262 257.611 58.2323 257.602 58.2362H257.568C257.559 58.2199 257.559 58.209 257.571 58.1981L257.556 58.1927Z" fill="white"/>
<path d="M258.053 57.9207C258.048 57.9262 258.042 57.9289 258.014 57.9426C257.985 57.9563 257.934 57.9808 257.839 58.0295L257.861 58.073H257.94C257.953 58.0865 257.969 58.0976 257.986 58.1057C257.997 58.109 258.008 58.109 258.019 58.1057L258.024 58.1059C258.041 58.1071 258.087 58.1102 258.087 58.0513C258.094 58.0337 258.094 58.0145 258.087 57.9969C258.08 57.9766 258.069 57.9731 258.061 57.9708C258.057 57.9694 258.053 57.9684 258.053 57.9643V57.9207Z" fill="white"/>
<path d="M258.209 57.9099C258.209 57.9099 258.276 57.8881 258.288 57.8881C258.299 57.8881 258.333 57.9643 258.333 57.9643C258.333 57.9643 258.333 57.986 258.31 57.986C258.305 57.9794 258.298 57.9741 258.29 57.9703C258.282 57.9665 258.274 57.9645 258.265 57.9643C258.26 57.962 258.254 57.9609 258.248 57.9609C258.242 57.9609 258.237 57.962 258.231 57.9643C258.233 57.9484 258.23 57.9324 258.223 57.918L258.209 57.9099Z" fill="white"/>
<path d="M259.592 57.5428C259.568 57.545 259.545 57.5524 259.524 57.5645L259.538 57.5727C259.504 57.5928 259.479 57.6235 259.465 57.6597C259.454 57.6613 259.442 57.6613 259.431 57.6597H259.375C259.352 57.6597 259.352 57.6923 259.352 57.7032C259.352 57.7141 259.352 57.7141 259.397 57.7794C259.408 57.8148 259.408 57.8527 259.397 57.8881V57.9643C259.381 58.0137 259.381 58.0671 259.397 58.1166C259.398 58.1355 259.403 58.1542 259.411 58.1715C259.419 58.1888 259.431 58.2043 259.445 58.2172C259.451 58.2265 259.459 58.2338 259.47 58.2378C259.48 58.2417 259.491 58.2421 259.502 58.2389C259.528 58.2306 259.54 58.2098 259.555 58.1859C259.559 58.1784 259.564 58.1706 259.57 58.1628C259.582 58.1445 259.598 58.1433 259.616 58.142C259.63 58.1409 259.645 58.1398 259.66 58.1302L259.683 58.1084C259.704 58.049 259.711 57.986 259.705 57.9235V57.7603C259.705 57.6951 259.671 57.5428 259.592 57.5428Z" fill="white"/>
<path d="M259.468 57.2491V57.1621C259.475 57.1599 259.483 57.1599 259.49 57.1621L259.581 57.1294C259.599 57.1294 259.602 57.1162 259.609 57.0948C259.61 57.0888 259.612 57.0822 259.615 57.075C259.619 57.0642 259.62 57.0569 259.621 57.0521C259.622 57.0424 259.622 57.0424 259.637 57.0424C259.649 57.0424 259.649 57.0424 259.646 57.0451C259.643 57.0479 259.637 57.0533 259.637 57.0642L259.671 57.2817C259.65 57.359 259.615 57.4324 259.57 57.4992C259.57 57.521 259.502 57.4993 259.502 57.4775C259.502 57.4638 259.484 57.4416 259.468 57.4216C259.458 57.4097 259.45 57.3986 259.445 57.3905C259.434 57.3687 259.485 57.2572 259.485 57.2572L259.468 57.2491Z" fill="white"/>
<path d="M261.117 58.81C261.128 58.81 261.162 58.7556 261.162 58.723L261.125 58.6577C261.111 58.6037 261.141 58.5623 261.171 58.5204C261.189 58.4948 261.207 58.4691 261.216 58.4402C261.216 58.4293 261.216 58.4075 261.182 58.4075C261.128 58.4123 261.076 58.4257 261.023 58.4391C260.958 58.456 260.892 58.4728 260.823 58.4728C260.793 58.4791 260.763 58.4791 260.733 58.4728C260.706 58.4639 260.679 58.453 260.654 58.4402H260.405C260.383 58.451 260.394 58.549 260.405 58.5707C260.417 58.5925 260.428 58.5925 260.473 58.5925C260.492 58.5882 260.511 58.5882 260.53 58.5925C260.609 58.6142 260.688 58.6577 260.733 58.6903C260.758 58.7086 260.78 58.7098 260.804 58.7112C260.823 58.7123 260.844 58.7134 260.868 58.723C260.897 58.7339 260.916 58.7502 260.936 58.7665C260.956 58.7828 260.976 58.7991 261.004 58.81C261.041 58.8195 261.08 58.8195 261.117 58.81Z" fill="white"/>
<path d="M260.981 59.0684C260.981 59.0741 260.979 59.0796 260.975 59.0837C260.97 59.0878 260.965 59.0901 260.959 59.0901C260.95 59.0912 260.941 59.0897 260.933 59.0859C260.925 59.082 260.918 59.0759 260.913 59.0684C260.88 59.0357 260.891 59.0031 260.913 59.0031C260.936 59.0031 261.001 59.0547 261.001 59.0765L260.981 59.0684Z" fill="white"/>
<path d="M262.557 58.3314L262.523 58.364L262.543 58.3722C262.543 58.383 262.547 58.3948 262.557 58.4075C262.571 58.4125 262.587 58.4125 262.602 58.4075C262.613 58.4293 262.636 58.4293 262.636 58.4293C262.643 58.4314 262.651 58.4314 262.658 58.4293C262.658 58.4184 262.602 58.3096 262.579 58.3096C262.557 58.3096 262.557 58.3314 262.557 58.3314Z" fill="white"/>
<path d="M263.625 58.3637C263.632 58.3615 263.64 58.3617 263.647 58.364V58.4728C263.633 58.4728 263.628 58.4653 263.623 58.4591C263.62 58.4548 263.617 58.451 263.613 58.451L263.556 58.4293L263.534 58.4075C263.5 58.3426 263.5 58.3422 263.477 58.3314C263.468 58.3271 263.461 58.3262 263.454 58.3253C263.444 58.324 263.434 58.3228 263.421 58.3096C263.396 58.2984 263.373 58.2837 263.353 58.2661C263.333 58.2485 263.31 58.2339 263.285 58.2226C263.257 58.2123 263.23 58.1976 263.206 58.1791V58.1573C263.206 58.1356 263.251 58.1138 263.274 58.1138C263.285 58.1138 263.285 58.1138 263.291 58.1206C263.297 58.1274 263.308 58.141 263.342 58.1682L263.359 58.1824C263.378 58.1979 263.386 58.2039 263.394 58.2072C263.4 58.2094 263.406 58.2104 263.415 58.2121C263.426 58.214 263.441 58.2167 263.466 58.2226C263.489 58.2226 263.511 58.2226 263.511 58.2444C263.511 58.2661 263.511 58.2879 263.534 58.3096C263.546 58.3243 263.561 58.3365 263.578 58.3454C263.595 58.3542 263.613 58.3597 263.633 58.3613L263.625 58.3637Z" fill="white"/>
<path d="M263.624 57.6271C263.568 57.6271 263.568 57.6814 263.568 57.6814L263.59 57.6787C263.601 57.6896 263.613 57.6923 263.635 57.6923C263.658 57.6923 263.658 57.6597 263.658 57.6597C263.658 57.651 263.654 57.6428 263.648 57.6366C263.642 57.6305 263.633 57.6271 263.624 57.6271Z" fill="white"/>
<path d="M263.545 59.12L263.522 59.1227H263.568C263.573 59.1233 263.579 59.1258 263.583 59.1298C263.587 59.1337 263.59 59.1389 263.59 59.1445C263.602 59.156 263.616 59.1649 263.632 59.1706C263.647 59.1762 263.664 59.1784 263.681 59.1771C263.729 59.1713 263.779 59.1713 263.827 59.1771C263.864 59.1896 263.902 59.1969 263.94 59.1989C263.97 59.1928 264.001 59.1928 264.031 59.1989C264.045 59.2038 264.061 59.2038 264.076 59.1989H264.155C264.166 59.1989 264.166 59.1989 264.163 59.2016C264.16 59.2043 264.155 59.2098 264.155 59.2206C264.155 59.2424 264.155 59.275 264.132 59.275H264.11C264.103 59.275 264.097 59.2733 264.09 59.2713C264.071 59.2662 264.045 59.2594 263.997 59.275C263.96 59.2875 263.922 59.2949 263.884 59.2968L263.793 59.3294C263.692 59.2315 263.681 59.2315 263.477 59.2424C263.421 59.2424 263.421 59.2424 263.421 59.1554C263.438 59.1317 263.461 59.1129 263.489 59.101C263.489 59.101 263.522 59.1091 263.545 59.12Z" fill="white"/>
<path d="M263.771 58.4837C263.793 58.4728 263.771 58.451 263.771 58.451L263.791 58.4483C263.762 58.4437 263.732 58.4446 263.703 58.451V58.4946L263.726 58.5163V58.5381C263.733 58.5405 263.741 58.5405 263.748 58.5381C263.76 58.5272 263.76 58.5163 263.76 58.5068C263.76 58.4973 263.76 58.4891 263.771 58.4837Z" fill="white"/>
<path d="M263.714 57.8664C263.74 57.8561 263.766 57.8488 263.793 57.8446C263.816 57.8446 263.827 57.8446 263.816 57.8664C263.818 57.8735 263.818 57.881 263.816 57.8881L263.771 57.9207H263.748L263.726 57.8773L263.714 57.8664Z" fill="white"/>
<path d="M263.952 58.6795C263.952 58.6686 263.952 58.6469 263.929 58.6469L263.949 58.6441C263.937 58.6419 263.925 58.643 263.914 58.6474C263.902 58.6517 263.893 58.6591 263.886 58.6686C263.879 58.6781 263.875 58.6893 263.875 58.7009C263.874 58.7125 263.878 58.724 263.884 58.7339C263.895 58.7556 263.952 58.6903 263.952 58.6795Z" fill="white"/>
<path d="M263.985 58.2362C264.042 58.2362 264.053 58.258 264.053 58.2906V58.3559C264.053 58.3559 264.008 58.3776 263.997 58.3559V58.3015C263.997 58.2911 263.997 58.2856 263.994 58.2816C263.992 58.2772 263.986 58.2745 263.974 58.2689C263.972 58.2618 263.972 58.2541 263.974 58.2471C263.974 58.2471 263.971 58.2308 264.005 58.2308L263.985 58.2362Z" fill="white"/>
<path d="M264.065 58.0078C264.023 58.0169 263.984 58.0355 263.952 58.0622L263.971 58.0567C263.962 58.0749 263.986 58.0741 264.007 58.0733L264.019 58.073H264.087V58.1057C264.087 58.1166 264.081 58.122 264.079 58.1247C264.078 58.1257 264.077 58.1263 264.077 58.1267C264.077 58.1274 264.08 58.1274 264.087 58.1274H264.166C264.166 58.1166 264.121 58.0078 264.065 58.0078Z" fill="white"/>
<path d="M264.516 58.9296C264.531 58.9109 264.55 58.8954 264.571 58.8842C264.593 58.8729 264.616 58.8662 264.64 58.8644C264.64 58.8644 264.674 58.8644 264.674 58.897C264.676 58.9141 264.671 58.931 264.66 58.9449C264.65 58.9588 264.635 58.9688 264.618 58.9732C264.595 58.9732 264.539 59.0167 264.55 59.0384C264.534 59.0051 264.532 58.9671 264.544 58.9324L264.516 58.9296Z" fill="white"/>
<path d="M265.809 59.2125C265.771 59.2151 265.735 59.2305 265.708 59.256L265.739 59.2506C265.739 59.2551 265.739 59.2549 265.742 59.2539C265.745 59.2525 265.751 59.2497 265.764 59.256C265.776 59.2614 265.781 59.2669 265.788 59.2737C265.795 59.2804 265.804 59.2886 265.821 59.2995C265.855 59.3212 265.979 59.3212 265.979 59.3212C265.992 59.3078 266.007 59.2967 266.024 59.2886H266.103L266.182 59.2451C266.196 59.2318 266.197 59.2185 266.198 59.2028C266.199 59.1927 266.2 59.1817 266.205 59.1689C266.212 59.1492 266.227 59.1335 266.242 59.117C266.253 59.1061 266.263 59.0949 266.272 59.0819C266.295 59.0493 266.295 59.0276 266.295 59.0276C266.286 59.0374 266.274 59.0448 266.261 59.0493C266.222 59.0817 266.176 59.1042 266.126 59.1146C266.088 59.125 266.052 59.1304 266.018 59.1356C265.982 59.1413 265.946 59.1467 265.911 59.1581H265.888C265.874 59.1581 265.873 59.1624 265.872 59.1712C265.871 59.1762 265.87 59.1827 265.866 59.1907C265.855 59.2125 265.843 59.2125 265.809 59.2125Z" fill="white"/>
<path d="M260.377 53.3821H260.407L260.409 53.3842C260.414 53.3921 260.424 53.4055 260.411 53.4583L260.354 53.4909H260.287C260.287 53.5018 260.281 53.5018 260.278 53.5018C260.275 53.5018 260.275 53.5018 260.287 53.5127C260.309 53.5344 260.309 53.5561 260.309 53.5779C260.321 53.6105 260.321 53.6106 260.388 53.6106C260.4 53.6106 260.411 53.6187 260.422 53.6269C260.434 53.635 260.445 53.6432 260.456 53.6432H260.49C260.504 53.6362 260.505 53.6337 260.507 53.6271C260.507 53.6234 260.509 53.6184 260.513 53.6106C260.518 53.6006 260.528 53.5952 260.537 53.5901C260.548 53.5842 260.558 53.5788 260.558 53.567C260.563 53.5529 260.563 53.5376 260.558 53.5235C260.558 53.5127 260.563 53.5045 260.569 53.4963C260.575 53.4882 260.58 53.48 260.58 53.4691C260.583 53.448 260.582 53.4266 260.576 53.406C260.57 53.3854 260.56 53.3662 260.547 53.3495C260.547 53.3495 260.445 53.3169 260.479 53.3713C260.513 53.4256 260.501 53.4474 260.479 53.4256C260.456 53.4039 260.456 53.4256 260.456 53.4256C260.456 53.4039 260.456 53.3821 260.434 53.3821H260.407C260.406 53.3803 260.405 53.3787 260.405 53.3767L260.377 53.3821Z" fill="white"/>
<path d="M260.377 53.654C260.382 53.6518 260.388 53.6506 260.394 53.6506C260.396 53.6506 260.398 53.6507 260.399 53.651L260.377 53.654Z" fill="white"/>
<path d="M260.421 53.656C260.416 53.654 260.411 53.654 260.411 53.654C260.407 53.6525 260.403 53.6515 260.399 53.651L260.417 53.6486L260.421 53.656Z" fill="white"/>
<path d="M260.421 53.656C260.427 53.6585 260.434 53.6639 260.434 53.6758C260.434 53.6867 260.439 53.6867 260.445 53.6867C260.45 53.6867 260.456 53.6867 260.456 53.6976C260.456 53.6976 260.451 53.7138 260.443 53.7274C260.448 53.7303 260.45 53.7331 260.45 53.7357L260.438 53.7374C260.432 53.7453 260.426 53.7491 260.422 53.7411L260.422 53.7396L260.411 53.7411H260.287V53.7084H260.4C260.4 53.7084 260.408 53.7112 260.418 53.7152C260.419 53.7092 260.42 53.7033 260.422 53.6976V53.6758C260.422 53.665 260.424 53.6636 260.424 53.6622C260.424 53.6615 260.423 53.6607 260.422 53.6585L260.421 53.656Z" fill="white"/>
<path d="M260.727 53.7628L260.732 53.7631L260.716 53.7628H260.693C260.693 53.7628 260.671 53.7846 260.693 53.8172C260.716 53.8499 260.784 53.8172 260.784 53.8172V53.7628H260.727Z" fill="white"/>
<path d="M261.049 53.5784C261.034 53.5718 261.018 53.567 261.01 53.567L261.058 53.5616L261.054 53.5678L261.049 53.5784Z" fill="white"/>
<path d="M261.049 53.5784C261.074 53.5889 261.1 53.6038 261.1 53.6106C261.1 53.6214 261.066 53.6323 261.043 53.6323C261.026 53.6323 261.038 53.6019 261.049 53.5784Z" fill="white"/>
<path d="M261.741 52.9905V53.034L261.788 53.0314L261.741 53.0884C261.803 53.0946 261.798 53.0774 261.793 53.0546C261.791 53.0472 261.788 53.0393 261.788 53.0314L261.831 52.9796L261.854 52.9579C261.86 52.9403 261.86 52.9211 261.854 52.9035C261.85 52.8819 261.85 52.8599 261.854 52.8383C261.763 52.86 261.741 52.8926 261.741 52.9144C261.743 52.9397 261.743 52.9652 261.741 52.9905Z" fill="white"/>
<path d="M262.122 52.2536L262.099 52.2318L262.15 52.2291C262.146 52.2248 262.143 52.221 262.14 52.2177C262.129 52.2044 262.127 52.2013 262.077 52.2209H262.032C262.032 52.2318 262.054 52.2536 262.054 52.2536C262.069 52.2575 262.085 52.2575 262.099 52.2536H262.122Z" fill="white"/>
</svg>
