<svg width="517" height="494" viewBox="0 0 517 494" fill="none" xmlns="http://www.w3.org/2000/svg">
<ellipse cx="2" cy="2" rx="2" ry="2" transform="matrix(9.90949e-08 1 1 -9.90949e-08 58 327)" fill="white"/>
<path d="M60 336.5C64.1421 336.5 67.5 333.142 67.5 329C67.5 324.858 64.1421 321.5 60 321.5C55.8579 321.5 52.5 324.858 52.5 329C52.5 333.142 55.8579 336.5 60 336.5Z" stroke="white"/>
<ellipse cx="2" cy="2" rx="2" ry="2" transform="matrix(9.90949e-08 1 1 -9.90949e-08 162 350)" fill="white"/>
<path d="M164 359.5C168.142 359.5 171.5 356.142 171.5 352C171.5 347.858 168.142 344.5 164 344.5C159.858 344.5 156.5 347.858 156.5 352C156.5 356.142 159.858 359.5 164 359.5Z" stroke="white"/>
<ellipse cx="2" cy="2" rx="2" ry="2" transform="matrix(9.90949e-08 1 1 -9.90949e-08 266 382)" fill="white"/>
<path d="M268 391.5C272.142 391.5 275.5 388.142 275.5 384C275.5 379.858 272.142 376.5 268 376.5C263.858 376.5 260.5 379.858 260.5 384C260.5 388.142 263.858 391.5 268 391.5Z" stroke="white"/>
<ellipse cx="2" cy="2" rx="2" ry="2" transform="matrix(9.90949e-08 1 1 -9.90949e-08 370 350)" fill="white"/>
<path d="M372 359.5C376.142 359.5 379.5 356.142 379.5 352C379.5 347.858 376.142 344.5 372 344.5C367.858 344.5 364.5 347.858 364.5 352C364.5 356.142 367.858 359.5 372 359.5Z" stroke="white"/>
<ellipse cx="2" cy="2" rx="2" ry="2" transform="matrix(9.90949e-08 1 1 -9.90949e-08 474 327)" fill="white"/>
<path d="M476 336.5C480.142 336.5 483.5 333.142 483.5 329C483.5 324.858 480.142 321.5 476 321.5C471.858 321.5 468.5 324.858 468.5 329C468.5 333.142 471.858 336.5 476 336.5Z" stroke="white"/>
<path d="M372 344L372 334.809C372 307.061 357.621 281.295 334.007 266.725L305.993 249.441C282.379 234.871 268 209.105 268 181.357L268 167" stroke="white"/>
<path d="M268 376L268 156" stroke="white"/>
<path d="M60 321V321C60 292.884 77.6003 267.776 104.031 258.187L238.202 209.51C256.089 203.02 268 186.028 268 167V167" stroke="white"/>
<path d="M164 344L164 334.809C164 307.061 178.379 281.295 201.993 266.725L230.007 249.441C253.621 234.871 268 209.105 268 181.357L268 167" stroke="white"/>
<path d="M476 321V321C476 292.884 458.4 267.776 431.969 258.187L297.798 209.51C279.911 203.02 268 186.028 268 167V167" stroke="white"/>
<circle cx="268" cy="148" r="2" transform="rotate(-90 268 148)" fill="white"/>
<circle cx="268" cy="148" r="7.5" transform="rotate(-90 268 148)" stroke="white"/>
<g filter="url(#filter0_b_287_20988)">
<circle cx="268" cy="48" r="48" fill="#DBDBDB" fill-opacity="0.5"/>
</g>
<g filter="url(#filter1_b_287_20988)">
<rect x="222" y="104" width="89" height="22" rx="11" fill="#DBDBDB" fill-opacity="0.5"/>
<path d="M231.288 119H232.464V115.424H235.032C236.76 115.424 237.864 114.416 237.864 112.892C237.864 111.356 236.76 110.36 235.092 110.36H231.288V119ZM232.464 114.344V111.44H235.044C236.016 111.44 236.616 111.92 236.616 112.892C236.616 113.84 236.004 114.344 234.996 114.344H232.464ZM240.609 119.144C241.437 119.144 242.241 118.808 242.661 118.124H242.733L242.745 119H243.837L243.813 117.668V114.896C243.813 113.516 242.889 112.616 241.305 112.616C239.745 112.616 238.809 113.492 238.761 114.704H239.841C239.901 114.056 240.333 113.624 241.305 113.624C242.217 113.624 242.685 114.116 242.685 114.92V115.184L240.669 115.352C239.253 115.472 238.581 116.192 238.581 117.296C238.581 118.388 239.373 119.144 240.609 119.144ZM239.685 117.248C239.685 116.72 240.033 116.324 240.885 116.24L242.673 116.072C242.577 117.524 241.725 118.184 240.801 118.184C240.069 118.184 239.685 117.812 239.685 117.248ZM247.413 119.024H248.541V117.992H247.569C247.113 117.992 246.909 117.8 246.909 117.368V113.744H248.421V112.76H246.909V111.056H245.781V112.76H244.617V113.744H245.781V117.476C245.781 118.436 246.345 119.024 247.413 119.024ZM252.294 119.144C253.806 119.144 254.91 118.232 255.102 116.9L253.998 116.636C253.818 117.5 253.302 118.112 252.294 118.112C251.07 118.112 250.374 117.26 250.374 115.88C250.374 114.5 251.082 113.648 252.294 113.648C253.302 113.648 253.842 114.26 254.01 115.112L255.114 114.932C254.91 113.528 253.806 112.616 252.294 112.616C250.53 112.616 249.198 113.9 249.198 115.88C249.198 117.86 250.518 119.144 252.294 119.144ZM256.354 119H257.482V115.88C257.482 114.296 258.166 113.648 259.174 113.648C259.966 113.648 260.458 114.152 260.458 115.208V119H261.586V114.992C261.586 113.48 260.71 112.616 259.378 112.616C258.586 112.616 257.998 112.928 257.554 113.504H257.482V110.36H256.354V119ZM266.222 119H267.398V115.4H269.198L271.466 119H272.942L270.554 115.352C271.922 115.148 272.774 114.212 272.774 112.88C272.774 111.332 271.67 110.36 270.002 110.36H266.222V119ZM267.398 114.32V111.44H269.954C270.926 111.44 271.526 111.896 271.526 112.88C271.526 113.828 270.914 114.32 269.906 114.32H267.398ZM275.719 119.144C276.547 119.144 277.351 118.808 277.771 118.124H277.843L277.855 119H278.947L278.923 117.668V114.896C278.923 113.516 277.999 112.616 276.415 112.616C274.855 112.616 273.919 113.492 273.871 114.704H274.951C275.011 114.056 275.443 113.624 276.415 113.624C277.327 113.624 277.795 114.116 277.795 114.92V115.184L275.779 115.352C274.363 115.472 273.691 116.192 273.691 117.296C273.691 118.388 274.483 119.144 275.719 119.144ZM274.795 117.248C274.795 116.72 275.143 116.324 275.995 116.24L277.783 116.072C277.687 117.524 276.835 118.184 275.911 118.184C275.179 118.184 274.795 117.812 274.795 117.248ZM283.038 119.144C283.926 119.144 284.586 118.76 285.006 118.184H285.078V119H286.206V110.36H285.078V113.576H285.006C284.562 113 283.926 112.616 283.002 112.616C281.394 112.616 280.206 113.912 280.206 115.88C280.206 117.848 281.394 119.144 283.038 119.144ZM281.382 115.88C281.382 114.488 282.114 113.648 283.242 113.648C284.406 113.648 285.114 114.452 285.114 115.88C285.114 117.284 284.406 118.112 283.242 118.112C282.114 118.112 281.382 117.272 281.382 115.88ZM287.889 119H289.017V112.76H287.889V119ZM287.757 110.9C287.757 111.284 288.033 111.584 288.453 111.584C288.873 111.584 289.149 111.284 289.149 110.9C289.149 110.504 288.873 110.216 288.453 110.216C288.033 110.216 287.757 110.504 287.757 110.9ZM295.837 112.76H294.709V115.88C294.709 117.464 294.025 118.112 293.017 118.112C292.225 118.112 291.733 117.608 291.733 116.564V112.76H290.605V116.78C290.605 118.28 291.481 119.144 292.813 119.144C293.605 119.144 294.193 118.832 294.637 118.256H294.709V119H295.837V112.76ZM299.766 119.144C301.374 119.144 302.262 118.364 302.262 117.272C302.262 116.276 301.674 115.592 300.45 115.424L299.178 115.244C298.638 115.172 298.314 114.908 298.314 114.464C298.314 114.032 298.662 113.648 299.55 113.648C300.342 113.648 300.762 113.996 301.002 114.608L302.082 114.26C301.77 113.252 300.894 112.616 299.55 112.616C298.014 112.616 297.222 113.468 297.222 114.464C297.222 115.52 297.87 116.096 299.034 116.252L300.318 116.42C300.858 116.492 301.17 116.828 301.17 117.272C301.17 117.764 300.774 118.112 299.766 118.112C298.806 118.112 298.338 117.704 298.122 116.96L297.006 117.284C297.378 118.448 298.23 119.144 299.766 119.144Z" fill="white"/>
</g>
<circle cx="268" cy="48" r="40" fill="white"/>
<path fill-rule="evenodd" clip-rule="evenodd" d="M244 47.9999C244 34.7447 254.749 24 268 24C281.256 24 292 34.7447 292 47.9999C292 61.2553 281.251 72 268 72C254.749 72 244 61.2553 244 47.9999ZM277.133 62.9964C278.432 60.4906 280.494 58.4273 283.001 57.1286C286.3 55.4213 288.553 51.9727 288.553 47.9999C288.553 44.0272 286.3 40.5787 283.001 38.8713C280.494 37.5727 278.432 35.5094 277.133 33.0036C275.426 29.7043 271.979 27.4485 268.005 27.4485C264.03 27.4485 260.588 29.7043 258.877 33.0036C257.577 35.5094 255.516 37.5727 253.008 38.8713C249.71 40.5787 247.457 44.0272 247.457 47.9999C247.457 51.9727 249.71 55.4213 253.008 57.1286C255.516 58.4273 257.577 60.4906 258.877 62.9964C260.583 66.2957 264.03 68.5514 268.005 68.5514C271.979 68.5514 275.421 66.2957 277.133 62.9964Z" fill="#161814"/>
<g filter="url(#filter2_b_287_20988)">
<circle cx="372" cy="404" r="32" fill="#DBDBDB" fill-opacity="0.5"/>
</g>
<circle cx="372" cy="404" r="23.5" fill="white" stroke="white"/>
<path d="M372.5 401V406" stroke="#161814" stroke-linecap="square" stroke-linejoin="round"/>
<path d="M371.04 394.826L361.727 410.522C361.578 410.773 361.5 411.057 361.5 411.346C361.5 411.636 361.577 411.92 361.725 412.171C361.873 412.422 362.086 412.631 362.343 412.776C362.599 412.922 362.891 412.999 363.187 413H381.813C382.109 412.999 382.401 412.922 382.657 412.776C382.914 412.631 383.127 412.422 383.275 412.171C383.423 411.92 383.5 411.636 383.5 411.346C383.5 411.057 383.422 410.773 383.273 410.522L373.96 394.826C373.813 394.575 373.601 394.367 373.344 394.222C373.088 394.076 372.796 394 372.5 394C372.204 394 371.912 394.076 371.656 394.222C371.399 394.367 371.187 394.575 371.04 394.826V394.826Z" stroke="#161814" stroke-linecap="round"/>
<path d="M372.5 410C373.052 410 373.5 409.552 373.5 409C373.5 408.448 373.052 408 372.5 408C371.948 408 371.5 408.448 371.5 409C371.5 409.552 371.948 410 372.5 410Z" fill="#161814"/>
<g filter="url(#filter3_b_287_20988)">
<rect x="330" y="444" width="84" height="22" rx="11" fill="#DBDBDB" fill-opacity="0.5"/>
<path d="M339.103 459H340.279V455.4H342.079L344.347 459H345.823L343.435 455.352C344.803 455.148 345.655 454.212 345.655 452.88C345.655 451.332 344.551 450.36 342.883 450.36H339.103V459ZM340.279 454.32V451.44H342.835C343.807 451.44 344.407 451.896 344.407 452.88C344.407 453.828 343.795 454.32 342.787 454.32H340.279ZM349.443 459.144C350.859 459.144 351.759 458.496 352.155 457.368L351.111 457.008C350.787 457.74 350.295 458.112 349.443 458.112C348.363 458.112 347.691 457.38 347.583 456.204H352.311V455.868C352.311 453.78 351.135 452.616 349.455 452.616C347.727 452.616 346.431 453.936 346.431 455.88C346.431 457.86 347.679 459.144 349.443 459.144ZM347.619 455.28C347.823 454.176 348.567 453.648 349.455 453.648C350.427 453.648 351.051 454.356 351.123 455.28H347.619ZM355.731 459.024H356.859V457.992H355.887C355.431 457.992 355.227 457.8 355.227 457.368V453.744H356.739V452.76H355.227V451.056H354.099V452.76H352.935V453.744H354.099V457.476C354.099 458.436 354.663 459.024 355.731 459.024ZM357.934 459H359.062V452.76H357.934V459ZM357.802 450.9C357.802 451.284 358.078 451.584 358.498 451.584C358.918 451.584 359.194 451.284 359.194 450.9C359.194 450.504 358.918 450.216 358.498 450.216C358.078 450.216 357.802 450.504 357.802 450.9ZM360.746 459H361.874V456.108C361.874 454.548 362.594 453.768 363.758 453.768H364.274V452.616H363.926C362.906 452.616 362.282 453.12 361.946 453.768H361.874V452.76H360.746V459ZM367.829 459.144C369.245 459.144 370.145 458.496 370.541 457.368L369.497 457.008C369.173 457.74 368.681 458.112 367.829 458.112C366.749 458.112 366.077 457.38 365.969 456.204H370.697V455.868C370.697 453.78 369.521 452.616 367.841 452.616C366.113 452.616 364.817 453.936 364.817 455.88C364.817 457.86 366.065 459.144 367.829 459.144ZM366.005 455.28C366.209 454.176 366.953 453.648 367.841 453.648C368.813 453.648 369.437 454.356 369.509 455.28H366.005ZM372.102 459H373.23V455.688C373.23 454.248 373.83 453.648 374.778 453.648C375.534 453.648 375.978 454.152 375.978 455.112V459H377.106V455.688C377.106 454.248 377.706 453.648 378.654 453.648C379.41 453.648 379.854 454.152 379.854 455.112V459H380.982V454.836C380.982 453.48 380.106 452.616 378.858 452.616C377.958 452.616 377.358 452.976 376.914 453.648H376.854C376.53 453 375.894 452.616 375.018 452.616C374.238 452.616 373.71 452.916 373.302 453.468H373.23V452.76H372.102V459ZM385.279 459.144C386.695 459.144 387.595 458.496 387.991 457.368L386.947 457.008C386.623 457.74 386.131 458.112 385.279 458.112C384.199 458.112 383.527 457.38 383.419 456.204H388.147V455.868C388.147 453.78 386.971 452.616 385.291 452.616C383.563 452.616 382.267 453.936 382.267 455.88C382.267 457.86 383.515 459.144 385.279 459.144ZM383.455 455.28C383.659 454.176 384.403 453.648 385.291 453.648C386.263 453.648 386.887 454.356 386.959 455.28H383.455ZM389.551 459H390.679V455.88C390.679 454.296 391.363 453.648 392.371 453.648C393.163 453.648 393.655 454.152 393.655 455.196V459H394.783V454.98C394.783 453.48 393.907 452.616 392.575 452.616C391.783 452.616 391.195 452.928 390.751 453.504H390.679V452.76H389.551V459ZM398.387 459.024H399.515V457.992H398.543C398.087 457.992 397.883 457.8 397.883 457.368V453.744H399.395V452.76H397.883V451.056H396.755V452.76H395.591V453.744H396.755V457.476C396.755 458.436 397.319 459.024 398.387 459.024ZM402.951 459.144C404.559 459.144 405.447 458.364 405.447 457.272C405.447 456.276 404.859 455.592 403.635 455.424L402.363 455.244C401.823 455.172 401.499 454.908 401.499 454.464C401.499 454.032 401.847 453.648 402.735 453.648C403.527 453.648 403.947 453.996 404.187 454.608L405.267 454.26C404.955 453.252 404.079 452.616 402.735 452.616C401.199 452.616 400.407 453.468 400.407 454.464C400.407 455.52 401.055 456.096 402.219 456.252L403.503 456.42C404.043 456.492 404.355 456.828 404.355 457.272C404.355 457.764 403.959 458.112 402.951 458.112C401.991 458.112 401.523 457.704 401.307 456.96L400.191 457.284C400.563 458.448 401.415 459.144 402.951 459.144Z" fill="white"/>
</g>
<g filter="url(#filter4_b_287_20988)">
<circle cx="60" cy="376" r="32" fill="#DBDBDB" fill-opacity="0.5"/>
</g>
<circle cx="60" cy="376.5" r="23.5" fill="white" stroke="white"/>
<path d="M63.317 366.25C63.5094 365.917 63.9906 365.917 64.183 366.25L67.8636 372.625C68.0561 372.958 67.8155 373.375 67.4306 373.375H60.0694C59.6845 373.375 59.4439 372.958 59.6364 372.625L63.317 366.25Z" stroke="#161814" stroke-linecap="round" stroke-linejoin="round"/>
<rect x="51" y="375.25" width="7.5" height="7.5" rx="0.5" stroke="#161814" stroke-linecap="round" stroke-linejoin="round"/>
<circle cx="65.25" cy="381.25" r="3.75" stroke="#161814" stroke-linecap="round" stroke-linejoin="round"/>
<g filter="url(#filter5_b_287_20988)">
<rect y="416" width="120" height="22" rx="11" fill="#DBDBDB" fill-opacity="0.5"/>
<path d="M9.15558 431H10.3316V422.36H9.15558V431ZM12.0607 431H13.1887V427.88C13.1887 426.296 13.8727 425.648 14.8807 425.648C15.6727 425.648 16.1647 426.152 16.1647 427.196V431H17.2927V426.98C17.2927 425.48 16.4167 424.616 15.0847 424.616C14.2927 424.616 13.7047 424.928 13.2607 425.504H13.1887V424.76H12.0607V431ZM20.3953 431H21.7633L24.1393 424.76H22.9273L21.1753 429.632H21.0313L19.2793 424.76H18.0193L20.3953 431ZM27.6516 431.144C29.0676 431.144 29.9676 430.496 30.3636 429.368L29.3196 429.008C28.9956 429.74 28.5036 430.112 27.6516 430.112C26.5716 430.112 25.8996 429.38 25.7916 428.204H30.5196V427.868C30.5196 425.78 29.3436 424.616 27.6636 424.616C25.9356 424.616 24.6396 425.936 24.6396 427.88C24.6396 429.86 25.8876 431.144 27.6516 431.144ZM25.8276 427.28C26.0316 426.176 26.7756 425.648 27.6636 425.648C28.6356 425.648 29.2596 426.356 29.3316 427.28H25.8276ZM31.924 431H33.052V427.88C33.052 426.296 33.736 425.648 34.744 425.648C35.536 425.648 36.028 426.152 36.028 427.196V431H37.156V426.98C37.156 425.48 36.28 424.616 34.948 424.616C34.156 424.616 33.568 424.928 33.124 425.504H33.052V424.76H31.924V431ZM40.7603 431.024H41.8883V429.992H40.9163C40.4603 429.992 40.2563 429.8 40.2563 429.368V425.744H41.7683V424.76H40.2563V423.056H39.1283V424.76H37.9643V425.744H39.1283V429.476C39.1283 430.436 39.6923 431.024 40.7603 431.024ZM45.6059 431.144C47.3819 431.144 48.6659 429.86 48.6659 427.88C48.6659 425.9 47.3819 424.616 45.6059 424.616C43.8179 424.616 42.5459 425.9 42.5459 427.88C42.5459 429.86 43.8179 431.144 45.6059 431.144ZM43.7219 427.88C43.7219 426.5 44.3699 425.648 45.6059 425.648C46.8179 425.648 47.4899 426.5 47.4899 427.88C47.4899 429.26 46.8179 430.112 45.6059 430.112C44.3699 430.112 43.7219 429.26 43.7219 427.88ZM50.0412 431H51.1692V428.108C51.1692 426.548 51.8892 425.768 53.0532 425.768H53.5692V424.616H53.2212C52.2012 424.616 51.5772 425.12 51.2412 425.768H51.1692V424.76H50.0412V431ZM55.8139 433.4H56.9659L60.4819 424.76H59.2699L57.4459 429.452H57.3259L55.4779 424.76H54.2419L56.7979 431.072L55.8139 433.4ZM66.6406 431.144C68.2486 431.144 69.1366 430.364 69.1366 429.272C69.1366 428.276 68.5486 427.592 67.3246 427.424L66.0526 427.244C65.5126 427.172 65.1886 426.908 65.1886 426.464C65.1886 426.032 65.5366 425.648 66.4246 425.648C67.2166 425.648 67.6366 425.996 67.8766 426.608L68.9566 426.26C68.6446 425.252 67.7686 424.616 66.4246 424.616C64.8886 424.616 64.0966 425.468 64.0966 426.464C64.0966 427.52 64.7446 428.096 65.9086 428.252L67.1926 428.42C67.7326 428.492 68.0446 428.828 68.0446 429.272C68.0446 429.764 67.6486 430.112 66.6406 430.112C65.6806 430.112 65.2126 429.704 64.9966 428.96L63.8806 429.284C64.2526 430.448 65.1046 431.144 66.6406 431.144ZM73.0746 431.144C74.8506 431.144 76.1346 429.86 76.1346 427.88C76.1346 425.9 74.8506 424.616 73.0746 424.616C71.2866 424.616 70.0146 425.9 70.0146 427.88C70.0146 429.86 71.2866 431.144 73.0746 431.144ZM71.1906 427.88C71.1906 426.5 71.8386 425.648 73.0746 425.648C74.2866 425.648 74.9586 426.5 74.9586 427.88C74.9586 429.26 74.2866 430.112 73.0746 430.112C71.8386 430.112 71.1906 429.26 71.1906 427.88ZM82.6459 424.76H81.5179V427.88C81.5179 429.464 80.8339 430.112 79.8259 430.112C79.0339 430.112 78.5419 429.608 78.5419 428.564V424.76H77.4139V428.78C77.4139 430.28 78.2899 431.144 79.6219 431.144C80.4139 431.144 81.0019 430.832 81.4459 430.256H81.5179V431H82.6459V424.76ZM84.3302 431H85.4582V428.108C85.4582 426.548 86.1782 425.768 87.3422 425.768H87.8582V424.616H87.5102C86.4902 424.616 85.8662 425.12 85.5302 425.768H85.4582V424.76H84.3302V431ZM91.4973 431.144C93.0093 431.144 94.1133 430.232 94.3053 428.9L93.2013 428.636C93.0213 429.5 92.5053 430.112 91.4973 430.112C90.2733 430.112 89.5773 429.26 89.5773 427.88C89.5773 426.5 90.2853 425.648 91.4973 425.648C92.5053 425.648 93.0453 426.26 93.2133 427.112L94.3173 426.932C94.1133 425.528 93.0093 424.616 91.4973 424.616C89.7333 424.616 88.4013 425.9 88.4013 427.88C88.4013 429.86 89.7213 431.144 91.4973 431.144ZM95.5568 431H96.6848V424.76H95.5568V431ZM95.4248 422.9C95.4248 423.284 95.7008 423.584 96.1208 423.584C96.5408 423.584 96.8168 423.284 96.8168 422.9C96.8168 422.504 96.5408 422.216 96.1208 422.216C95.7008 422.216 95.4248 422.504 95.4248 422.9ZM98.3693 431H99.4973V427.88C99.4973 426.296 100.181 425.648 101.189 425.648C101.981 425.648 102.473 426.152 102.473 427.196V431H103.601V426.98C103.601 425.48 102.725 424.616 101.393 424.616C100.601 424.616 100.013 424.928 99.5693 425.504H99.4973V424.76H98.3693V431ZM107.95 433.544C109.75 433.544 110.89 432.524 110.89 430.964V424.76H109.762V425.576H109.69C109.222 424.964 108.55 424.616 107.722 424.616C106.078 424.616 104.89 425.9 104.89 427.76C104.89 429.632 106.042 430.904 107.686 430.904C108.55 430.904 109.27 430.532 109.69 429.944H109.762V430.904C109.762 431.864 109.114 432.536 107.95 432.536C106.882 432.536 106.33 432.116 106.126 431.408L104.998 431.744C105.31 432.788 106.258 433.544 107.95 433.544ZM106.066 427.76C106.066 426.44 106.798 425.648 107.926 425.648C109.03 425.648 109.798 426.428 109.798 427.76C109.798 429.116 109.03 429.872 107.926 429.872C106.798 429.872 106.066 429.08 106.066 427.76Z" fill="white"/>
</g>
<g filter="url(#filter6_b_287_20988)">
<circle cx="476" cy="376" r="32" fill="#DBDBDB" fill-opacity="0.5"/>
</g>
<circle cx="476" cy="376.5" r="23.5" fill="white" stroke="white"/>
<path d="M480 373.5L475.93 378.926C475.797 379.104 475.593 379.215 475.371 379.231C475.15 379.247 474.932 379.166 474.775 379.009L472.333 376.566" stroke="#161814" stroke-linecap="round" stroke-linejoin="round"/>
<path fill-rule="evenodd" clip-rule="evenodd" d="M474.7 365.121C475.016 364.726 475.494 364.496 476 364.496C476.506 364.496 476.984 364.726 477.3 365.121L478.845 367.044C479.201 367.487 479.759 367.718 480.324 367.656L482.776 367.389C483.278 367.336 483.776 367.512 484.133 367.869C484.489 368.226 484.664 368.725 484.61 369.226L484.343 371.677C484.282 372.242 484.513 372.8 484.956 373.156L486.878 374.7C487.273 375.016 487.502 375.494 487.502 376C487.502 376.506 487.273 376.984 486.878 377.3L484.956 378.845C484.513 379.201 484.282 379.758 484.343 380.323L484.61 382.775C484.665 383.277 484.489 383.776 484.132 384.133C483.775 384.49 483.276 384.666 482.774 384.611L480.322 384.344C479.757 384.283 479.199 384.514 478.843 384.957L477.3 386.877C476.984 387.272 476.506 387.502 476 387.502C475.494 387.502 475.016 387.272 474.7 386.877L473.157 384.955C472.801 384.512 472.243 384.281 471.678 384.342L469.226 384.609C468.724 384.664 468.225 384.488 467.868 384.131C467.511 383.774 467.335 383.275 467.39 382.773L467.657 380.321C467.719 379.756 467.487 379.199 467.044 378.843L465.122 377.3C464.728 376.984 464.498 376.506 464.498 376C464.498 375.494 464.728 375.016 465.122 374.7L467.044 373.156C467.487 372.8 467.719 372.242 467.657 371.677L467.39 369.226C467.336 368.724 467.512 368.225 467.868 367.868C468.225 367.511 468.724 367.335 469.226 367.389L471.678 367.656C472.243 367.718 472.801 367.487 473.157 367.044L474.7 365.121Z" stroke="#161814" stroke-linecap="round" stroke-linejoin="round"/>
<g filter="url(#filter7_b_287_20988)">
<rect x="435" y="416" width="82" height="22" rx="11" fill="#DBDBDB" fill-opacity="0.5"/>
<path d="M448.054 431.144C450.046 431.144 451.474 430.016 451.798 428.084L450.634 427.808C450.31 429.188 449.578 430.04 448.078 430.04C446.23 430.04 445.21 428.756 445.21 426.68C445.21 424.604 446.242 423.32 448.078 423.32C449.578 423.32 450.382 424.208 450.658 425.54L451.822 425.348C451.522 423.38 450.094 422.216 448.054 422.216C445.738 422.216 443.962 423.968 443.962 426.68C443.962 429.392 445.714 431.144 448.054 431.144ZM455.833 431.144C457.249 431.144 458.149 430.496 458.545 429.368L457.501 429.008C457.177 429.74 456.685 430.112 455.833 430.112C454.753 430.112 454.081 429.38 453.973 428.204H458.701V427.868C458.701 425.78 457.525 424.616 455.845 424.616C454.117 424.616 452.821 425.936 452.821 427.88C452.821 429.86 454.069 431.144 455.833 431.144ZM454.009 427.28C454.213 426.176 454.957 425.648 455.845 425.648C456.817 425.648 457.441 426.356 457.513 427.28H454.009ZM460.106 431H461.234V428.108C461.234 426.548 461.954 425.768 463.118 425.768H463.634V424.616H463.286C462.266 424.616 461.642 425.12 461.306 425.768H461.234V424.76H460.106V431ZM467.09 431.024H468.218V429.992H467.246C466.79 429.992 466.586 429.8 466.586 429.368V425.744H468.098V424.76H466.586V423.056H465.458V424.76H464.294V425.744H465.458V429.476C465.458 430.436 466.022 431.024 467.09 431.024ZM469.293 431H470.421V424.76H469.293V431ZM469.161 422.9C469.161 423.284 469.437 423.584 469.857 423.584C470.277 423.584 470.553 423.284 470.553 422.9C470.553 422.504 470.277 422.216 469.857 422.216C469.437 422.216 469.161 422.504 469.161 422.9ZM476.246 431H477.374V424.76H473.618V423.836C473.618 423.428 473.822 423.248 474.242 423.248H475.298V422.216H474.146C473.066 422.216 472.49 422.804 472.49 423.776V424.76H471.326V425.744H472.49V431H473.618V425.744H476.246V431ZM481.851 431.144C483.363 431.144 484.467 430.232 484.659 428.9L483.555 428.636C483.375 429.5 482.859 430.112 481.851 430.112C480.627 430.112 479.931 429.26 479.931 427.88C479.931 426.5 480.639 425.648 481.851 425.648C482.859 425.648 483.399 426.26 483.567 427.112L484.671 426.932C484.467 425.528 483.363 424.616 481.851 424.616C480.087 424.616 478.755 425.9 478.755 427.88C478.755 429.86 480.075 431.144 481.851 431.144ZM487.65 431.144C488.478 431.144 489.282 430.808 489.702 430.124H489.774L489.786 431H490.878L490.854 429.668V426.896C490.854 425.516 489.93 424.616 488.346 424.616C486.786 424.616 485.85 425.492 485.802 426.704H486.882C486.942 426.056 487.374 425.624 488.346 425.624C489.258 425.624 489.726 426.116 489.726 426.92V427.184L487.71 427.352C486.294 427.472 485.622 428.192 485.622 429.296C485.622 430.388 486.414 431.144 487.65 431.144ZM486.726 429.248C486.726 428.72 487.074 428.324 487.926 428.24L489.714 428.072C489.618 429.524 488.766 430.184 487.842 430.184C487.11 430.184 486.726 429.812 486.726 429.248ZM494.454 431.024H495.582V429.992H494.61C494.154 429.992 493.95 429.8 493.95 429.368V425.744H495.462V424.76H493.95V423.056H492.822V424.76H491.658V425.744H492.822V429.476C492.822 430.436 493.386 431.024 494.454 431.024ZM499.251 431.144C500.667 431.144 501.567 430.496 501.963 429.368L500.919 429.008C500.595 429.74 500.103 430.112 499.251 430.112C498.171 430.112 497.499 429.38 497.391 428.204H502.119V427.868C502.119 425.78 500.943 424.616 499.263 424.616C497.535 424.616 496.239 425.936 496.239 427.88C496.239 429.86 497.487 431.144 499.251 431.144ZM497.427 427.28C497.631 426.176 498.375 425.648 499.263 425.648C500.235 425.648 500.859 426.356 500.931 427.28H497.427ZM505.768 431.144C507.376 431.144 508.264 430.364 508.264 429.272C508.264 428.276 507.676 427.592 506.452 427.424L505.18 427.244C504.64 427.172 504.316 426.908 504.316 426.464C504.316 426.032 504.664 425.648 505.552 425.648C506.344 425.648 506.764 425.996 507.004 426.608L508.084 426.26C507.772 425.252 506.896 424.616 505.552 424.616C504.016 424.616 503.224 425.468 503.224 426.464C503.224 427.52 503.872 428.096 505.036 428.252L506.32 428.42C506.86 428.492 507.172 428.828 507.172 429.272C507.172 429.764 506.776 430.112 505.768 430.112C504.808 430.112 504.34 429.704 504.124 428.96L503.008 429.284C503.38 430.448 504.232 431.144 505.768 431.144Z" fill="white"/>
</g>
<g filter="url(#filter8_b_287_20988)">
<circle cx="164" cy="404" r="32" fill="#DBDBDB" fill-opacity="0.5"/>
</g>
<circle cx="164" cy="404.5" r="23.5" fill="white" stroke="white"/>
<path fill-rule="evenodd" clip-rule="evenodd" d="M153 397C153 396.448 153.448 396 154 396H173C173.552 396 174 396.448 174 397V413C174 413.552 173.552 414 173 414H154C153.448 414 153 413.552 153 413V397Z" stroke="#161814" stroke-linecap="round" stroke-linejoin="round"/>
<path d="M161.25 409.5L161.25 405.643" stroke="#161814" stroke-linecap="square" stroke-linejoin="round"/>
<path d="M157.5 409.5V406.928" stroke="#161814" stroke-linecap="square" stroke-linejoin="round"/>
<path d="M168.75 409.5V401.786" stroke="#161814" stroke-linecap="square" stroke-linejoin="round"/>
<path d="M165 409.5V400.5" stroke="#161814" stroke-linecap="square" stroke-linejoin="round"/>
<g filter="url(#filter9_b_287_20988)">
<rect x="136" y="444" width="56" height="22" rx="11" fill="#DBDBDB" fill-opacity="0.5"/>
<path d="M147.822 459H149.226L152.646 450.36H151.374L148.626 457.584H148.482L145.722 450.36H144.402L147.822 459ZM155.195 459.144C156.611 459.144 157.511 458.496 157.907 457.368L156.863 457.008C156.539 457.74 156.047 458.112 155.195 458.112C154.115 458.112 153.443 457.38 153.335 456.204H158.063V455.868C158.063 453.78 156.887 452.616 155.207 452.616C153.479 452.616 152.183 453.936 152.183 455.88C152.183 457.86 153.431 459.144 155.195 459.144ZM153.371 455.28C153.575 454.176 154.319 453.648 155.207 453.648C156.179 453.648 156.803 454.356 156.875 455.28H153.371ZM161.483 459.024H162.611V457.992H161.639C161.183 457.992 160.979 457.8 160.979 457.368V453.744H163.655V457.476C163.655 458.436 164.219 459.024 165.287 459.024H166.415V457.992H165.443C164.987 457.992 164.783 457.8 164.783 457.368V453.744H166.295V452.76H164.783V451.056H163.655V452.76H160.979V451.056H159.851V452.76H158.687V453.744H159.851V457.476C159.851 458.436 160.415 459.024 161.483 459.024ZM167.494 459H168.622V452.76H167.494V459ZM167.362 450.9C167.362 451.284 167.638 451.584 168.058 451.584C168.478 451.584 168.754 451.284 168.754 450.9C168.754 450.504 168.478 450.216 168.058 450.216C167.638 450.216 167.362 450.504 167.362 450.9ZM170.307 459H171.435V455.88C171.435 454.296 172.119 453.648 173.127 453.648C173.919 453.648 174.411 454.152 174.411 455.196V459H175.539V454.98C175.539 453.48 174.663 452.616 173.331 452.616C172.539 452.616 171.951 452.928 171.507 453.504H171.435V452.76H170.307V459ZM179.887 461.544C181.687 461.544 182.827 460.524 182.827 458.964V452.76H181.699V453.576H181.627C181.159 452.964 180.487 452.616 179.659 452.616C178.015 452.616 176.827 453.9 176.827 455.76C176.827 457.632 177.979 458.904 179.623 458.904C180.487 458.904 181.207 458.532 181.627 457.944H181.699V458.904C181.699 459.864 181.051 460.536 179.887 460.536C178.819 460.536 178.267 460.116 178.063 459.408L176.935 459.744C177.247 460.788 178.195 461.544 179.887 461.544ZM178.003 455.76C178.003 454.44 178.735 453.648 179.863 453.648C180.967 453.648 181.735 454.428 181.735 455.76C181.735 457.116 180.967 457.872 179.863 457.872C178.735 457.872 178.003 457.08 178.003 455.76Z" fill="white"/>
</g>
<g filter="url(#filter10_b_287_20988)">
<circle cx="268" cy="432" r="32" fill="#DBDBDB" fill-opacity="0.5"/>
</g>
<circle cx="268" cy="432.5" r="23.5" fill="white" stroke="white"/>
<path d="M260 440.853H260.5H260ZM260 427.623H259.5H260ZM276 424.147H276.5H276ZM276 440.853H275.5H276ZM273.353 443.5V444V443.5ZM262.647 443.5V443V443.5ZM260.69 425.84L261.06 426.177H261.06L260.69 425.84ZM263.858 422.364L263.488 422.027V422.027L263.858 422.364ZM265.814 421.5V421V421.5ZM273.353 421.5V422V421.5ZM266.588 422.731L266.591 422.231L265.591 422.226L265.588 422.726L266.588 422.731ZM266.062 427.348L266.064 427.848L266.559 427.845L266.562 427.351L266.062 427.348ZM261.439 426.875L260.939 426.877L260.944 427.877L261.444 427.875L261.439 426.875ZM260.5 440.853L260.5 427.623L259.5 427.623L259.5 440.853H260.5ZM275.5 424.147V440.853H276.5V424.147H275.5ZM273.353 443H262.647V444H273.353V443ZM261.06 426.177L264.227 422.701L263.488 422.027L260.321 425.503L261.06 426.177ZM265.814 422L273.353 422V421L265.814 421V422ZM264.227 422.701C264.634 422.254 265.21 422 265.814 422V421C264.929 421 264.085 421.373 263.488 422.027L264.227 422.701ZM275.5 440.853C275.5 442.039 274.539 443 273.353 443V444C275.091 444 276.5 442.591 276.5 440.853H275.5ZM276.5 424.147C276.5 422.409 275.091 421 273.353 421V422C274.539 422 275.5 422.961 275.5 424.147H276.5ZM260.5 427.623C260.5 427.088 260.7 426.572 261.06 426.177L260.321 425.503C259.793 426.083 259.5 426.839 259.5 427.623L260.5 427.623ZM259.5 440.853C259.5 442.591 260.909 444 262.647 444V443C261.461 443 260.5 442.039 260.5 440.853H259.5ZM265.588 422.726L265.562 427.345L266.562 427.351L266.588 422.731L265.588 422.726ZM266.059 426.848L261.439 426.875L261.444 427.875L266.064 427.848L266.059 426.848ZM263.5 432.25H272.5V431.25H263.5V432.25ZM263.5 435.25H272.5V434.25H263.5V435.25ZM263.5 438.25H272.5V437.25H263.5V438.25Z" fill="#161814"/>
<g filter="url(#filter11_b_287_20988)">
<rect x="240.5" y="472" width="55" height="22" rx="11" fill="#DBDBDB" fill-opacity="0.5"/>
<path d="M253.371 487.144C255.855 487.144 257.619 485.392 257.619 482.68C257.619 479.968 255.855 478.216 253.371 478.216C250.839 478.216 249.123 479.968 249.123 482.68C249.123 485.392 250.839 487.144 253.371 487.144ZM250.371 482.68C250.371 480.712 251.403 479.32 253.371 479.32C255.279 479.32 256.371 480.712 256.371 482.68C256.371 484.648 255.279 486.04 253.371 486.04C251.403 486.04 250.371 484.648 250.371 482.68ZM259.02 487H260.148V484.108C260.148 482.548 260.868 481.768 262.032 481.768H262.548V480.616H262.2C261.18 480.616 260.556 481.12 260.22 481.768H260.148V480.76H259.02V487ZM265.923 487.144C266.811 487.144 267.471 486.76 267.891 486.184H267.963V487H269.091V478.36H267.963V481.576H267.891C267.447 481 266.811 480.616 265.887 480.616C264.279 480.616 263.091 481.912 263.091 483.88C263.091 485.848 264.279 487.144 265.923 487.144ZM264.267 483.88C264.267 482.488 264.999 481.648 266.127 481.648C267.291 481.648 267.999 482.452 267.999 483.88C267.999 485.284 267.291 486.112 266.127 486.112C264.999 486.112 264.267 485.272 264.267 483.88ZM273.486 487.144C274.902 487.144 275.802 486.496 276.198 485.368L275.154 485.008C274.83 485.74 274.338 486.112 273.486 486.112C272.406 486.112 271.734 485.38 271.626 484.204H276.354V483.868C276.354 481.78 275.178 480.616 273.498 480.616C271.77 480.616 270.474 481.936 270.474 483.88C270.474 485.86 271.722 487.144 273.486 487.144ZM271.662 483.28C271.866 482.176 272.61 481.648 273.498 481.648C274.47 481.648 275.094 482.356 275.166 483.28H271.662ZM277.758 487H278.886V484.108C278.886 482.548 279.606 481.768 280.77 481.768H281.286V480.616H280.938C279.918 480.616 279.294 481.12 278.958 481.768H278.886V480.76H277.758V487ZM284.607 487.144C286.215 487.144 287.103 486.364 287.103 485.272C287.103 484.276 286.515 483.592 285.291 483.424L284.019 483.244C283.479 483.172 283.155 482.908 283.155 482.464C283.155 482.032 283.503 481.648 284.391 481.648C285.183 481.648 285.603 481.996 285.843 482.608L286.923 482.26C286.611 481.252 285.735 480.616 284.391 480.616C282.855 480.616 282.063 481.468 282.063 482.464C282.063 483.52 282.711 484.096 283.875 484.252L285.159 484.42C285.699 484.492 286.011 484.828 286.011 485.272C286.011 485.764 285.615 486.112 284.607 486.112C283.647 486.112 283.179 485.704 282.963 484.96L281.847 485.284C282.219 486.448 283.071 487.144 284.607 487.144Z" fill="white"/>
</g>
<defs>
<filter id="filter0_b_287_20988" x="163.81" y="-56.1905" width="208.381" height="208.381" filterUnits="userSpaceOnUse" color-interpolation-filters="sRGB">
<feFlood flood-opacity="0" result="BackgroundImageFix"/>
<feGaussianBlur in="BackgroundImageFix" stdDeviation="28.0952"/>
<feComposite in2="SourceAlpha" operator="in" result="effect1_backgroundBlur_287_20988"/>
<feBlend mode="normal" in="SourceGraphic" in2="effect1_backgroundBlur_287_20988" result="shape"/>
</filter>
<filter id="filter1_b_287_20988" x="165.81" y="47.8095" width="201.381" height="134.381" filterUnits="userSpaceOnUse" color-interpolation-filters="sRGB">
<feFlood flood-opacity="0" result="BackgroundImageFix"/>
<feGaussianBlur in="BackgroundImageFix" stdDeviation="28.0952"/>
<feComposite in2="SourceAlpha" operator="in" result="effect1_backgroundBlur_287_20988"/>
<feBlend mode="normal" in="SourceGraphic" in2="effect1_backgroundBlur_287_20988" result="shape"/>
</filter>
<filter id="filter2_b_287_20988" x="283.81" y="315.81" width="176.381" height="176.381" filterUnits="userSpaceOnUse" color-interpolation-filters="sRGB">
<feFlood flood-opacity="0" result="BackgroundImageFix"/>
<feGaussianBlur in="BackgroundImageFix" stdDeviation="28.0952"/>
<feComposite in2="SourceAlpha" operator="in" result="effect1_backgroundBlur_287_20988"/>
<feBlend mode="normal" in="SourceGraphic" in2="effect1_backgroundBlur_287_20988" result="shape"/>
</filter>
<filter id="filter3_b_287_20988" x="273.81" y="387.81" width="196.381" height="134.381" filterUnits="userSpaceOnUse" color-interpolation-filters="sRGB">
<feFlood flood-opacity="0" result="BackgroundImageFix"/>
<feGaussianBlur in="BackgroundImageFix" stdDeviation="28.0952"/>
<feComposite in2="SourceAlpha" operator="in" result="effect1_backgroundBlur_287_20988"/>
<feBlend mode="normal" in="SourceGraphic" in2="effect1_backgroundBlur_287_20988" result="shape"/>
</filter>
<filter id="filter4_b_287_20988" x="-28.1905" y="287.81" width="176.381" height="176.381" filterUnits="userSpaceOnUse" color-interpolation-filters="sRGB">
<feFlood flood-opacity="0" result="BackgroundImageFix"/>
<feGaussianBlur in="BackgroundImageFix" stdDeviation="28.0952"/>
<feComposite in2="SourceAlpha" operator="in" result="effect1_backgroundBlur_287_20988"/>
<feBlend mode="normal" in="SourceGraphic" in2="effect1_backgroundBlur_287_20988" result="shape"/>
</filter>
<filter id="filter5_b_287_20988" x="-56.1905" y="359.81" width="232.381" height="134.381" filterUnits="userSpaceOnUse" color-interpolation-filters="sRGB">
<feFlood flood-opacity="0" result="BackgroundImageFix"/>
<feGaussianBlur in="BackgroundImageFix" stdDeviation="28.0952"/>
<feComposite in2="SourceAlpha" operator="in" result="effect1_backgroundBlur_287_20988"/>
<feBlend mode="normal" in="SourceGraphic" in2="effect1_backgroundBlur_287_20988" result="shape"/>
</filter>
<filter id="filter6_b_287_20988" x="387.81" y="287.81" width="176.381" height="176.381" filterUnits="userSpaceOnUse" color-interpolation-filters="sRGB">
<feFlood flood-opacity="0" result="BackgroundImageFix"/>
<feGaussianBlur in="BackgroundImageFix" stdDeviation="28.0952"/>
<feComposite in2="SourceAlpha" operator="in" result="effect1_backgroundBlur_287_20988"/>
<feBlend mode="normal" in="SourceGraphic" in2="effect1_backgroundBlur_287_20988" result="shape"/>
</filter>
<filter id="filter7_b_287_20988" x="378.81" y="359.81" width="194.381" height="134.381" filterUnits="userSpaceOnUse" color-interpolation-filters="sRGB">
<feFlood flood-opacity="0" result="BackgroundImageFix"/>
<feGaussianBlur in="BackgroundImageFix" stdDeviation="28.0952"/>
<feComposite in2="SourceAlpha" operator="in" result="effect1_backgroundBlur_287_20988"/>
<feBlend mode="normal" in="SourceGraphic" in2="effect1_backgroundBlur_287_20988" result="shape"/>
</filter>
<filter id="filter8_b_287_20988" x="75.8095" y="315.81" width="176.381" height="176.381" filterUnits="userSpaceOnUse" color-interpolation-filters="sRGB">
<feFlood flood-opacity="0" result="BackgroundImageFix"/>
<feGaussianBlur in="BackgroundImageFix" stdDeviation="28.0952"/>
<feComposite in2="SourceAlpha" operator="in" result="effect1_backgroundBlur_287_20988"/>
<feBlend mode="normal" in="SourceGraphic" in2="effect1_backgroundBlur_287_20988" result="shape"/>
</filter>
<filter id="filter9_b_287_20988" x="79.8095" y="387.81" width="168.381" height="134.381" filterUnits="userSpaceOnUse" color-interpolation-filters="sRGB">
<feFlood flood-opacity="0" result="BackgroundImageFix"/>
<feGaussianBlur in="BackgroundImageFix" stdDeviation="28.0952"/>
<feComposite in2="SourceAlpha" operator="in" result="effect1_backgroundBlur_287_20988"/>
<feBlend mode="normal" in="SourceGraphic" in2="effect1_backgroundBlur_287_20988" result="shape"/>
</filter>
<filter id="filter10_b_287_20988" x="179.81" y="343.81" width="176.381" height="176.381" filterUnits="userSpaceOnUse" color-interpolation-filters="sRGB">
<feFlood flood-opacity="0" result="BackgroundImageFix"/>
<feGaussianBlur in="BackgroundImageFix" stdDeviation="28.0952"/>
<feComposite in2="SourceAlpha" operator="in" result="effect1_backgroundBlur_287_20988"/>
<feBlend mode="normal" in="SourceGraphic" in2="effect1_backgroundBlur_287_20988" result="shape"/>
</filter>
<filter id="filter11_b_287_20988" x="184.31" y="415.81" width="167.381" height="134.381" filterUnits="userSpaceOnUse" color-interpolation-filters="sRGB">
<feFlood flood-opacity="0" result="BackgroundImageFix"/>
<feGaussianBlur in="BackgroundImageFix" stdDeviation="28.0952"/>
<feComposite in2="SourceAlpha" operator="in" result="effect1_backgroundBlur_287_20988"/>
<feBlend mode="normal" in="SourceGraphic" in2="effect1_backgroundBlur_287_20988" result="shape"/>
</filter>
</defs>
</svg>
