<svg width="340" height="465" viewBox="0 0 340 465" fill="none" xmlns="http://www.w3.org/2000/svg">
<g clip-path="url(#clip0_440_15182)">
<rect width="339.6" height="464.4" rx="12" fill="white"/>
<rect x="21.2656" y="17.2656" width="19.6544" height="19.6544" rx="9.8272" fill="white"/>
<path d="M33.2014 25.8447C33.3407 25.7254 33.5503 25.7415 33.6696 25.8807C33.7889 26.0199 33.7728 26.2295 33.6336 26.3488L31.3096 28.3408C31.1852 28.4474 31.0018 28.4474 30.8774 28.3408L28.5534 26.3488C28.4142 26.2295 28.3981 26.0199 28.5174 25.8807C28.6368 25.7415 28.8464 25.7254 28.9856 25.8447L31.0935 27.6515L33.2014 25.8447Z" fill="#080807"/>
<rect x="21.2656" y="17.2656" width="19.6544" height="19.6544" rx="9.8272" stroke="#DBDBDB" stroke-width="0.5312"/>
<rect x="49.9502" y="17.2656" width="19.6544" height="19.6544" rx="9.8272" fill="white"/>
<path d="M57.6701 28.3408C57.5309 28.4602 57.3213 28.444 57.202 28.3048C57.0827 28.1656 57.0988 27.956 57.238 27.8367L59.562 25.8447C59.6863 25.7381 59.8698 25.7381 59.9941 25.8447L62.3181 27.8367C62.4574 27.956 62.4735 28.1656 62.3541 28.3048C62.2348 28.444 62.0252 28.4602 61.886 28.3408L59.7781 26.534L57.6701 28.3408Z" fill="#080807"/>
<rect x="49.9502" y="17.2656" width="19.6544" height="19.6544" rx="9.8272" stroke="#DBDBDB" stroke-width="0.5312"/>
<path fill-rule="evenodd" clip-rule="evenodd" d="M279.486 27.6638C279.616 27.5345 279.617 27.3243 279.488 27.1943C278.884 26.5873 278.884 25.6066 279.488 24.9998L280.875 23.6063C281.514 22.9639 282.55 22.9514 283.205 23.5782C283.226 23.5983 283.246 23.6191 283.266 23.6404C283.836 24.2533 283.802 25.2124 283.189 25.7827L281.686 27.1818C281.551 27.3067 281.544 27.5168 281.669 27.651C281.794 27.7852 282.004 27.7928 282.138 27.6679L283.642 26.2688C284.523 25.4486 284.572 24.0694 283.752 23.1881C283.724 23.1574 283.694 23.1275 283.664 23.0986C282.748 22.2216 281.299 22.2391 280.404 23.1379L279.017 24.5314C278.156 25.3972 278.156 26.7965 279.017 27.6625C279.146 27.7925 279.356 27.7931 279.486 27.6638ZM279.796 26.5217C279.666 26.651 279.666 26.8612 279.795 26.9912C280.398 27.5978 280.398 28.5781 279.793 29.1837L278.354 30.6262C277.753 31.2283 276.779 31.2323 276.173 30.6352C275.569 30.04 275.562 29.0682 276.158 28.4645L277.607 26.9938C277.736 26.8632 277.735 26.653 277.604 26.5243C277.473 26.3956 277.263 26.3971 277.135 26.5277L275.685 27.9984C274.832 28.8632 274.842 30.2555 275.707 31.1082C276.573 31.9615 277.965 31.9557 278.824 31.0952L280.263 29.6527C281.126 28.7882 281.127 27.3889 280.266 26.523C280.137 26.393 279.926 26.3924 279.796 26.5217Z" fill="#282B24"/>
<rect x="298.552" y="17.2656" width="19.6544" height="19.6544" rx="9.8272" fill="white"/>
<path d="M308.38 26.6233L311.133 23.8701C311.262 23.7404 311.473 23.7404 311.602 23.8701C311.732 23.9997 311.732 24.2099 311.602 24.3396L308.849 27.0928L311.602 29.8461C311.732 29.9757 311.732 30.1859 311.602 30.3156C311.473 30.4452 311.262 30.4452 311.133 30.3156L308.38 27.5623L305.626 30.3156C305.497 30.4452 305.286 30.4452 305.157 30.3156C305.027 30.1859 305.027 29.9757 305.157 29.8461L307.91 27.0928L305.157 24.3396C305.027 24.2099 305.027 23.9997 305.157 23.8701C305.286 23.7404 305.497 23.7404 305.626 23.8701L308.38 26.6233Z" fill="#282B24"/>
<rect x="298.552" y="17.2656" width="19.6544" height="19.6544" rx="9.8272" stroke="#DBDBDB" stroke-width="0.5312"/>
<path d="M21.085 74.184H23.9535L25.1434 70.8693H31.539L32.7501 74.184H35.6824L29.9879 58.8854H26.8007L21.085 74.184ZM26.0358 68.4045L28.2243 62.2851H28.4368L30.6466 68.4045H26.0358ZM42.0896 74.4389C45.0006 74.4389 46.7005 72.8241 47.1679 70.6568L44.6819 69.8919C44.3207 71.3367 43.4495 72.0592 42.0896 72.0592C40.2623 72.0592 39.1574 70.763 39.1574 68.6595C39.1574 66.5559 40.2411 65.2598 42.0896 65.2598C43.492 65.2598 44.3844 66.1735 44.6606 67.3846L47.1892 66.8322C46.7217 64.4311 44.8306 62.88 42.0896 62.88C38.9237 62.88 36.4802 65.1111 36.4802 68.6595C36.4802 72.2291 38.9237 74.4389 42.0896 74.4389ZM49.2331 74.184H51.7829V68.2345C51.7829 66.3434 52.7178 65.281 54.1626 65.281C55.2888 65.281 56.0325 65.961 56.0325 67.3634V74.184H58.5822V68.2345C58.5822 66.3434 59.5171 65.281 60.962 65.281C62.0882 65.281 62.8318 65.961 62.8318 67.3634V74.184H65.3816V66.8534C65.3816 64.3249 63.9155 62.88 61.6419 62.88C59.9846 62.88 58.9647 63.5812 58.306 64.7711H58.1785C57.5623 63.6237 56.4362 62.88 54.9276 62.88C53.504 62.88 52.5266 63.475 51.8254 64.6224H51.7191V63.135H49.2331V74.184ZM73.0234 74.4389C75.7644 74.4389 77.103 73.249 77.8042 71.5067L75.4457 70.593C74.957 71.5705 74.3195 72.1442 73.0234 72.1442C71.536 72.1442 70.5161 71.2517 70.2824 69.5094H78.1867V68.9994C78.1867 64.9411 76.1469 62.88 73.0447 62.88C69.8999 62.88 67.6052 65.3448 67.6052 68.6595C67.6052 72.2079 69.8574 74.4389 73.0234 74.4389ZM70.3037 67.6396C70.6011 65.9822 71.6423 65.1748 73.0234 65.1748C74.532 65.1748 75.3607 66.2585 75.4882 67.6396H70.3037ZM92.806 74.4389C96.6518 74.4389 99.0316 72.3566 99.7116 69.1694L97.0768 68.4682C96.4394 70.8268 95.1007 71.9317 92.8697 71.9317C89.9162 71.9317 88.1101 69.8919 88.1101 66.5559C88.1101 63.1987 89.8737 61.1377 92.8697 61.1377C95.1645 61.1377 96.5031 62.5401 97.0131 64.6436L99.7116 64.0699C99.0316 60.6702 96.6306 58.6304 92.806 58.6304C88.5989 58.6304 85.3054 61.6901 85.3054 66.5559C85.3054 71.4217 88.5989 74.4389 92.806 74.4389ZM106.87 74.4389C110.036 74.4389 112.437 72.2291 112.437 68.6595C112.437 65.1111 110.036 62.88 106.87 62.88C103.683 62.88 101.303 65.1111 101.303 68.6595C101.303 72.2291 103.683 74.4389 106.87 74.4389ZM103.98 68.6595C103.98 66.5559 105.022 65.2598 106.87 65.2598C108.697 65.2598 109.76 66.5559 109.76 68.6595C109.76 70.763 108.697 72.0592 106.87 72.0592C105.022 72.0592 103.98 70.763 103.98 68.6595ZM114.762 74.184H117.311V69.1482C117.311 66.6197 118.544 65.4723 120.626 65.4723H121.561V62.88H120.839C119.139 62.88 117.97 63.7937 117.375 65.0898H117.248V63.135H114.762V74.184ZM123.435 78.4336H125.985V72.6541H126.112C126.877 73.7378 127.897 74.4389 129.512 74.4389C132.211 74.4389 134.357 72.2291 134.357 68.6595C134.357 65.0898 132.211 62.88 129.512 62.88C127.918 62.88 126.814 63.4962 126.049 64.6649H125.921V63.135H123.435V78.4336ZM125.9 68.6595C125.9 66.5134 127.026 65.2173 128.832 65.2173C130.532 65.2173 131.722 66.5347 131.722 68.6595C131.722 70.7843 130.532 72.1017 128.832 72.1017C127.026 72.1017 125.9 70.8268 125.9 68.6595Z" fill="#282B24"/>
<rect x="21" y="90.808" width="52.7488" height="17.4992" rx="4.2496" fill="#ECEFFE"/>
<path d="M27.4085 102.058H28.5559L29.0319 100.732H31.5901L32.0746 102.058H33.2475L30.9697 95.9382H29.6948L27.4085 102.058ZM29.3888 99.7458L30.2642 97.2981H30.3492L31.2331 99.7458H29.3888ZM35.8104 102.16C36.9748 102.16 37.6547 101.514 37.8417 100.647L36.8473 100.341C36.7028 100.919 36.3543 101.208 35.8104 101.208C35.0794 101.208 34.6375 100.689 34.6375 99.8478C34.6375 99.0064 35.0709 98.488 35.8104 98.488C36.3713 98.488 36.7283 98.8534 36.8388 99.3379L37.8502 99.1169C37.6632 98.1565 36.9068 97.536 35.8104 97.536C34.544 97.536 33.5666 98.4285 33.5666 99.8478C33.5666 101.276 34.544 102.16 35.8104 102.16ZM40.6991 102.16C41.8635 102.16 42.5434 101.514 42.7304 100.647L41.736 100.341C41.5915 100.919 41.243 101.208 40.6991 101.208C39.9681 101.208 39.5262 100.689 39.5262 99.8478C39.5262 99.0064 39.9596 98.488 40.6991 98.488C41.26 98.488 41.617 98.8534 41.7275 99.3379L42.7389 99.1169C42.5519 98.1565 41.7955 97.536 40.6991 97.536C39.4327 97.536 38.4553 98.4285 38.4553 99.8478C38.4553 101.276 39.4327 102.16 40.6991 102.16ZM45.5113 102.16C46.6077 102.16 47.1431 101.684 47.4236 100.987L46.4802 100.621C46.2847 101.012 46.0297 101.242 45.5113 101.242C44.9163 101.242 44.5084 100.885 44.4149 100.188H47.5766V99.9838C47.5766 98.3605 46.7607 97.536 45.5198 97.536C44.2619 97.536 43.344 98.5219 43.344 99.8478C43.344 101.267 44.2449 102.16 45.5113 102.16ZM44.4234 99.4399C44.5424 98.7769 44.9588 98.454 45.5113 98.454C46.1147 98.454 46.4462 98.8874 46.4972 99.4399H44.4234ZM48.5033 103.757H49.5232V101.446H49.5742C49.8801 101.879 50.2881 102.16 50.934 102.16C52.0134 102.16 52.8718 101.276 52.8718 99.8478C52.8718 98.42 52.0134 97.536 50.934 97.536C50.2966 97.536 49.8546 97.7825 49.5487 98.25H49.4977V97.638H48.5033V103.757ZM49.4892 99.8478C49.4892 98.9894 49.9396 98.471 50.6621 98.471C51.342 98.471 51.8179 98.9979 51.8179 99.8478C51.8179 100.698 51.342 101.225 50.6621 101.225C49.9396 101.225 49.4892 100.715 49.4892 99.8478ZM55.337 102.075H56.1954V101.123H55.49C55.2095 101.123 55.082 100.995 55.082 100.723V98.488H56.1104V97.638H55.082V96.4311H54.0621V97.638H53.2802V98.488H54.0621V100.791C54.0621 101.607 54.4871 102.075 55.337 102.075ZM58.8245 102.16C59.9209 102.16 60.4563 101.684 60.7368 100.987L59.7934 100.621C59.5979 101.012 59.3429 101.242 58.8245 101.242C58.2295 101.242 57.8216 100.885 57.7281 100.188H60.8898V99.9838C60.8898 98.3605 60.0739 97.536 58.833 97.536C57.5751 97.536 56.6572 98.5219 56.6572 99.8478C56.6572 101.267 57.5581 102.16 58.8245 102.16ZM57.7366 99.4399C57.8556 98.7769 58.272 98.454 58.8245 98.454C59.4279 98.454 59.7594 98.8874 59.8104 99.4399H57.7366ZM63.5248 102.16C64.1622 102.16 64.6042 101.913 64.9102 101.446H64.9612V102.058H65.9556V95.9382H64.9357V98.25H64.8847C64.5787 97.8165 64.1707 97.536 63.5248 97.536C62.4454 97.536 61.587 98.42 61.587 99.8478C61.587 101.276 62.4454 102.16 63.5248 102.16ZM62.6409 99.8478C62.6409 98.9979 63.1168 98.471 63.7968 98.471C64.5192 98.471 64.9697 98.9809 64.9697 99.8478C64.9697 100.706 64.5192 101.225 63.7968 101.225C63.1168 101.225 62.6409 100.698 62.6409 99.8478Z" fill="#435AD6"/>
<path d="M21.7649 139.555H24.4528C26.9813 139.555 28.4262 138.057 28.4262 135.731C28.4262 133.404 26.9813 131.906 24.5378 131.906H21.7649V139.555ZM23.1036 138.323V133.138H24.5059C26.2376 133.138 27.0451 134.148 27.0451 135.731C27.0451 137.292 26.227 138.323 24.4209 138.323H23.1036ZM32.0613 139.683C33.4318 139.683 34.1011 139.088 34.4517 138.217L33.2725 137.76C33.0281 138.248 32.7094 138.535 32.0613 138.535C31.3176 138.535 30.8077 138.089 30.6908 137.218H34.643V136.963C34.643 134.934 33.6231 133.903 32.072 133.903C30.4996 133.903 29.3522 135.136 29.3522 136.793C29.3522 138.567 30.4784 139.683 32.0613 139.683ZM30.7015 136.283C30.8502 135.454 31.3708 135.051 32.0613 135.051C32.8156 135.051 33.23 135.592 33.2937 136.283H30.7015ZM37.7243 139.576H38.7973V138.387H37.9155C37.5649 138.387 37.4055 138.227 37.4055 137.887V135.093H38.691V134.031H37.4055V132.522H36.1307V134.031H35.1532V135.093H36.1307V137.972C36.1307 138.992 36.6619 139.576 37.7243 139.576ZM41.2949 139.683C41.9961 139.683 42.5485 139.406 42.9416 138.811H43.0266L43.0585 139.555H44.259L44.2271 138.344V135.932C44.2271 134.743 43.3985 133.903 41.9642 133.903C40.5194 133.903 39.6482 134.7 39.5951 135.773H40.8593C40.9124 135.391 41.2099 135.04 41.9323 135.04C42.6548 135.04 42.9523 135.433 42.9523 135.975V136.177L41.348 136.325C40.1369 136.432 39.4676 137.059 39.4676 138.036C39.4676 139.035 40.1688 139.683 41.2949 139.683ZM40.7425 137.951C40.7425 137.547 41.0081 137.292 41.5605 137.229L42.931 137.08C42.8248 138.163 42.2936 138.631 41.5711 138.631C41.0399 138.631 40.7425 138.344 40.7425 137.951ZM45.5642 139.555H46.8391V134.031H45.5642V139.555ZM45.4261 132.543C45.4261 132.968 45.7448 133.298 46.2016 133.298C46.6585 133.298 46.9772 132.968 46.9772 132.543C46.9772 132.097 46.6585 131.778 46.2016 131.778C45.7448 131.778 45.4261 132.097 45.4261 132.543ZM48.2824 139.555H49.5573V131.906H48.2824V139.555ZM53.083 139.683C54.5066 139.683 55.3459 139.024 55.3459 137.951C55.3459 136.952 54.7297 136.357 53.5611 136.24L52.488 136.134C52.095 136.092 51.8931 135.89 51.8931 135.603C51.8931 135.274 52.1481 135.04 52.7536 135.04C53.253 135.04 53.6673 135.252 53.9117 135.699L55.059 135.146C54.666 134.403 53.9329 133.903 52.7536 133.903C51.4469 133.903 50.6288 134.679 50.6288 135.646C50.6288 136.655 51.3088 137.175 52.3924 137.292L53.423 137.399C53.8798 137.441 54.0816 137.632 54.0816 137.962C54.0816 138.323 53.7098 138.546 53.083 138.546C52.4562 138.546 51.9568 138.27 51.7231 137.749L50.5438 138.291C50.9476 139.183 51.7656 139.683 53.083 139.683Z" fill="#282B24"/>
<rect x="21" y="152.243" width="27.6224" height="27.6224" rx="2.1248" fill="#ECEFFE"/>
<path fill-rule="evenodd" clip-rule="evenodd" d="M31.4914 162.07H38.1314C38.7428 162.07 39.2381 162.566 39.2381 163.177V168.932C39.2381 169.543 38.7428 170.038 38.1314 170.038H31.4914C30.8801 170.038 30.3848 169.543 30.3848 168.932V163.177C30.3848 162.566 30.8801 162.07 31.4914 162.07ZM38.7954 164.505C38.6104 164.366 38.3807 164.284 38.1314 164.284H37.888C37.7853 163.779 37.3386 163.398 36.8034 163.398H32.8194C32.2842 163.398 31.8376 163.779 31.7349 164.284H31.4914C31.1245 164.284 30.8274 163.987 30.8274 163.62V163.177C30.8274 162.81 31.1245 162.513 31.4914 162.513H38.1314C38.4984 162.513 38.7954 162.81 38.7954 163.177V164.505ZM32.1931 164.284C32.2842 164.026 32.5304 163.841 32.8194 163.841H36.8034C37.0925 163.841 37.3386 164.026 37.4298 164.284H32.1931ZM37.2461 166.054H38.7954V165.39C38.7954 165.024 38.4984 164.726 38.1314 164.726H31.4914C31.2422 164.726 31.0125 164.644 30.8274 164.505V168.932C30.8274 169.298 31.1245 169.596 31.4914 169.596H38.1314C38.4984 169.596 38.7954 169.298 38.7954 168.932V168.268H37.2461C36.6348 168.268 36.1394 167.772 36.1394 167.161C36.1394 166.55 36.6348 166.054 37.2461 166.054ZM38.7954 167.825H37.2461C36.8791 167.825 36.5821 167.528 36.5821 167.161C36.5821 166.794 36.8791 166.497 37.2461 166.497H38.7954V167.825Z" fill="#435AD6"/>
<path d="M57.0045 160.054H57.7333V155.369H59.533V154.7H55.2048V155.369H57.0045V160.054ZM62.7952 160.144C64.3346 160.144 65.4279 159.058 65.4279 157.377C65.4279 155.696 64.3346 154.611 62.7952 154.611C61.2261 154.611 60.1626 155.696 60.1626 157.377C60.1626 159.058 61.2261 160.144 62.7952 160.144ZM60.936 157.377C60.936 156.157 61.5756 155.295 62.7952 155.295C63.9777 155.295 64.6544 156.157 64.6544 157.377C64.6544 158.597 63.9777 159.459 62.7952 159.459C61.5756 159.459 60.936 158.597 60.936 157.377ZM67.8576 160.054H68.5864V155.369H70.3861V154.7H66.0579V155.369H67.8576V160.054ZM69.9551 160.054H70.7434L71.2343 158.716H73.6363L74.1272 160.054H74.9452L72.8852 154.7H72.0151L69.9551 160.054ZM71.4871 158.032L72.387 155.577H72.4762L73.3835 158.032H71.4871ZM75.895 160.054H79.2564V159.37H76.6238V154.7H75.895V160.054ZM82.6447 160.054H83.3735V154.7H82.6447V160.054ZM84.8467 160.054H85.5458V155.54H85.6127L88.2379 160.054H89.3237V154.7H88.6246V159.281H88.5577L85.8656 154.7H84.8467V160.054ZM92.41 160.054H93.2801L95.3996 154.7H94.6113L92.9082 159.177H92.819L91.1085 154.7H90.2905L92.41 160.054ZM96.368 160.054H100.086V159.37H97.0968V157.675H99.8112V156.99H97.0968V155.384H99.9971V154.7H96.368V160.054ZM103.286 160.144C104.573 160.144 105.324 159.541 105.324 158.597C105.324 157.712 104.766 157.139 103.785 157.02L102.788 156.901C102.208 156.834 101.911 156.574 101.911 156.12C101.911 155.615 102.335 155.295 103.078 155.295C103.77 155.295 104.238 155.629 104.424 156.239L105.168 156.061C104.93 155.116 104.149 154.611 103.078 154.611C101.926 154.611 101.16 155.22 101.16 156.135C101.16 156.953 101.665 157.518 102.669 157.637L103.695 157.756C104.231 157.816 104.573 158.106 104.573 158.597C104.573 159.117 104.112 159.459 103.286 159.459C102.483 159.459 101.978 159.132 101.792 158.396L101.041 158.56C101.316 159.578 102.015 160.144 103.286 160.144ZM107.822 160.054H108.55V155.369H110.35V154.7H106.022V155.369H107.822V160.054ZM111.478 160.054H115.197V159.37H112.207V157.675H114.922V156.99H112.207V155.384H115.107V154.7H111.478V160.054ZM116.404 160.054H118.211C120.011 160.054 120.94 159.006 120.94 157.377C120.94 155.756 120.011 154.7 118.27 154.7H116.404V160.054ZM117.133 159.37V155.384H118.27C119.602 155.384 120.174 156.165 120.174 157.377C120.174 158.574 119.594 159.37 118.211 159.37H117.133Z" fill="#747672"/>
<path d="M57.8969 177.542H58.6406V176.182C60.2873 176.118 61.2541 175.289 61.2541 174.036C61.2541 172.814 60.4361 172.092 59.1399 171.89L57.7694 171.677C57.0364 171.56 56.5371 171.242 56.5371 170.615C56.5371 169.914 57.1533 169.478 58.1519 169.478C59.1081 169.478 59.7561 169.935 60.0111 170.785L61.0416 170.53C60.7442 169.351 59.8305 168.671 58.5662 168.554V167.151H57.8226V168.543C56.4096 168.649 55.4959 169.457 55.4959 170.636C55.4959 171.741 56.229 172.485 57.5782 172.687L58.9806 172.899C59.7243 173.016 60.213 173.345 60.213 174.036C60.213 174.758 59.5755 175.236 58.4388 175.236C57.3232 175.236 56.6327 174.779 56.3671 173.76L55.3366 173.983C55.6765 175.247 56.4733 176.001 57.8969 176.15V177.542ZM64.8675 176.182C66.5036 176.182 67.566 175.056 67.566 173.558C67.566 172.049 66.5461 170.976 65.0588 170.976C64.4319 170.976 63.8901 171.199 63.5183 171.592H63.4545L63.667 169.616H67.0879V168.66H62.7958L62.4346 172.538L63.3483 172.687C63.6564 172.272 64.177 171.922 64.91 171.922C65.9299 171.922 66.5036 172.602 66.5036 173.568C66.5036 174.567 65.8981 175.236 64.8675 175.236C64.0495 175.236 63.4545 174.801 63.2633 174.121H62.2115C62.3921 175.428 63.4652 176.182 64.8675 176.182ZM69.0971 175.077V176.054H73.9204V175.098H70.117V175.034C70.117 174.482 70.3508 174.238 70.8182 173.983L72.1356 173.26C73.2405 172.655 73.7611 171.964 73.7611 170.934C73.7611 169.542 72.8261 168.533 71.3707 168.533C69.9895 168.533 68.9165 169.467 68.9165 170.902H69.9683C70.0002 169.956 70.5314 169.478 71.3707 169.478C72.1462 169.478 72.7093 169.977 72.7093 170.934C72.7093 171.571 72.4649 171.996 71.6469 172.442L70.4039 173.122C69.4371 173.653 69.0971 174.227 69.0971 175.077ZM75.7596 174.918L75.2603 177.659H76.0465L76.8539 174.918H75.7596ZM80.6679 176.182C82.3677 176.182 83.2602 175.279 83.2602 174.057C83.2602 173.08 82.7608 172.432 81.8578 172.187V172.102C82.559 171.815 82.9946 171.337 82.9946 170.583C82.9946 169.552 82.1765 168.533 80.6679 168.533C79.1912 168.533 78.3094 169.404 78.2669 170.604H79.2762C79.3399 169.892 79.7967 169.478 80.6679 169.478C81.4435 169.478 81.9322 169.892 81.9322 170.594C81.9322 171.284 81.4435 171.73 80.5085 171.73H79.7224V172.687H80.551C81.6028 172.687 82.1978 173.111 82.1978 173.961C82.1978 174.811 81.6028 175.236 80.6679 175.236C79.7117 175.236 79.1699 174.737 79.1274 173.961H78.0438C78.0969 175.279 79.0212 176.182 80.6679 176.182ZM88.1272 176.054H89.1471V174.28H90.1776V173.377H89.1471V168.66H88.1803L84.5575 173.451V174.28H88.1272V176.054ZM85.7155 173.377V173.313L88.0634 170.169H88.1272V173.377H85.7155ZM93.876 176.182C95.5121 176.182 96.5745 175.056 96.5745 173.558C96.5745 172.049 95.5546 170.976 94.0673 170.976C93.4404 170.976 92.8986 171.199 92.5268 171.592H92.463L92.6755 169.616H96.0964V168.66H91.8043L91.4431 172.538L92.3568 172.687C92.6649 172.272 93.1855 171.922 93.9185 171.922C94.9384 171.922 95.5121 172.602 95.5121 173.568C95.5121 174.567 94.9065 175.236 93.876 175.236C93.058 175.236 92.463 174.801 92.2718 174.121H91.22C91.4006 175.428 92.4737 176.182 93.876 176.182ZM97.8294 175.512C97.8294 175.895 98.1056 176.182 98.5093 176.182C98.913 176.182 99.1893 175.895 99.1893 175.512C99.1893 175.141 98.913 174.854 98.5093 174.854C98.1056 174.854 97.8294 175.141 97.8294 175.512ZM103.131 176.182C104.703 176.182 105.904 174.96 105.904 172.357C105.904 169.744 104.703 168.533 103.131 168.533C101.558 168.533 100.358 169.744 100.358 172.357C100.358 174.96 101.558 176.182 103.131 176.182ZM101.42 172.357C101.42 170.392 102.068 169.478 103.131 169.478C104.193 169.478 104.841 170.392 104.841 172.357C104.841 174.312 104.193 175.236 103.131 175.236C102.068 175.236 101.42 174.312 101.42 172.357ZM109.719 176.182C111.291 176.182 112.492 174.96 112.492 172.357C112.492 169.744 111.291 168.533 109.719 168.533C108.147 168.533 106.946 169.744 106.946 172.357C106.946 174.96 108.147 176.182 109.719 176.182ZM108.008 172.357C108.008 170.392 108.656 169.478 109.719 169.478C110.781 169.478 111.429 170.392 111.429 172.357C111.429 174.312 110.781 175.236 109.719 175.236C108.656 175.236 108.008 174.312 108.008 172.357Z" fill="#282B24"/>
<rect x="173.985" y="152.243" width="27.6224" height="27.6224" rx="2.1248" fill="#ECEFFE"/>
<g clip-path="url(#clip1_440_15182)">
<path fill-rule="evenodd" clip-rule="evenodd" d="M187.714 167.714C187.657 167.399 187.436 167.14 187.143 167.03L187.274 166.485C187.653 166.475 187.958 166.164 187.958 165.782C187.958 165.394 187.643 165.079 187.254 165.079C186.866 165.079 186.551 165.394 186.551 165.782C186.551 166.02 186.669 166.23 186.849 166.358L186.7 166.981C186.261 167.042 185.923 167.419 185.923 167.875C185.923 168.374 186.327 168.778 186.825 168.778C187.225 168.778 187.564 168.518 187.683 168.158L188.32 168.137C188.432 168.377 188.676 168.543 188.958 168.543C189.347 168.543 189.662 168.228 189.662 167.84C189.662 167.451 189.347 167.136 188.958 167.136C188.619 167.136 188.335 167.376 188.269 167.696L187.714 167.714ZM186.365 167.875C186.365 167.621 186.571 167.415 186.825 167.415C187.079 167.415 187.285 167.621 187.285 167.875C187.285 168.129 187.079 168.335 186.825 168.335C186.571 168.335 186.365 168.129 186.365 167.875ZM187.254 165.521C187.11 165.521 186.993 165.638 186.993 165.782C186.993 165.926 187.11 166.043 187.254 166.043C187.399 166.043 187.515 165.926 187.515 165.782C187.515 165.638 187.399 165.521 187.254 165.521ZM188.697 167.84C188.697 167.696 188.814 167.579 188.958 167.579C189.102 167.579 189.219 167.696 189.219 167.84C189.219 167.984 189.102 168.101 188.958 168.101C188.814 168.101 188.697 167.984 188.697 167.84Z" fill="#435AD6"/>
<path fill-rule="evenodd" clip-rule="evenodd" d="M186.383 163.684V164.11H186.02C185.747 164.108 185.483 164.208 185.279 164.389C185.075 164.571 184.945 164.822 184.915 165.094L184.406 169.638C184.399 169.701 184.419 169.763 184.461 169.81C184.503 169.857 184.563 169.884 184.626 169.884H190.954C191.016 169.884 191.076 169.857 191.118 169.81C191.16 169.763 191.18 169.701 191.173 169.638L190.665 165.094C190.634 164.822 190.505 164.571 190.301 164.389C190.096 164.208 189.832 164.108 189.559 164.11H189.339L189.339 163.685L189.339 163.684C189.337 163.293 189.182 162.919 188.907 162.642C188.631 162.364 188.258 162.207 187.867 162.203L187.865 162.424L187.864 162.203C187.472 162.204 187.096 162.36 186.818 162.638C186.541 162.916 186.384 163.292 186.383 163.684ZM187.864 162.645C187.589 162.646 187.326 162.756 187.131 162.951C186.936 163.146 186.826 163.41 186.825 163.685V164.11H188.896V163.685C188.895 163.411 188.786 163.148 188.593 162.953C188.4 162.759 188.138 162.648 187.864 162.645ZM186.019 164.552C185.854 164.551 185.696 164.611 185.573 164.72C185.451 164.829 185.373 164.98 185.355 165.143L184.873 169.442H190.706L190.225 165.143C190.219 165.092 190.208 165.042 190.19 164.994C190.153 164.889 190.09 164.795 190.006 164.72C189.884 164.611 189.725 164.551 189.561 164.552L189.56 164.552L188.108 164.552L186.019 164.552Z" fill="#435AD6"/>
</g>
<path d="M210.867 160.144C212.102 160.144 212.987 159.445 213.188 158.247L212.466 158.076C212.266 158.931 211.812 159.459 210.882 159.459C209.737 159.459 209.105 158.664 209.105 157.377C209.105 156.091 209.744 155.295 210.882 155.295C211.812 155.295 212.31 155.845 212.481 156.671L213.203 156.552C213.017 155.332 212.132 154.611 210.867 154.611C209.432 154.611 208.331 155.696 208.331 157.377C208.331 159.058 209.417 160.144 210.867 160.144ZM216.841 160.144C218.38 160.144 219.474 159.058 219.474 157.377C219.474 155.696 218.38 154.611 216.841 154.611C215.272 154.611 214.208 155.696 214.208 157.377C214.208 159.058 215.272 160.144 216.841 160.144ZM214.982 157.377C214.982 156.157 215.621 155.295 216.841 155.295C218.023 155.295 218.7 156.157 218.7 157.377C218.7 158.597 218.023 159.459 216.841 159.459C215.621 159.459 214.982 158.597 214.982 157.377ZM220.639 161.043V161.542H223.153V160.924H221.294V160.872C221.294 160.724 221.361 160.634 221.539 160.545L222.171 160.233C222.818 159.913 223.079 159.586 223.079 159.021C223.079 158.336 222.573 157.853 221.852 157.853C221.078 157.853 220.61 158.366 220.61 159.035H221.279C221.294 158.664 221.509 158.47 221.852 158.47C222.201 158.47 222.394 158.693 222.394 159.028C222.394 159.311 222.298 159.511 221.963 159.682L221.257 160.047C220.751 160.307 220.639 160.672 220.639 161.043ZM224.492 160.054H228.211V159.37H225.221V157.675H227.936V156.99H225.221V155.384H228.121V154.7H224.492V160.054Z" fill="#747672"/>
<path d="M211.233 176.182C212.933 176.182 213.825 175.279 213.825 174.057C213.825 173.08 213.326 172.432 212.423 172.187V172.102C213.124 171.815 213.56 171.337 213.56 170.583C213.56 169.552 212.741 168.533 211.233 168.533C209.756 168.533 208.874 169.404 208.832 170.604H209.841C209.905 169.892 210.362 169.478 211.233 169.478C212.008 169.478 212.497 169.892 212.497 170.594C212.497 171.284 212.008 171.73 211.074 171.73H210.287V172.687H211.116C212.168 172.687 212.763 173.111 212.763 173.961C212.763 174.811 212.168 175.236 211.233 175.236C210.277 175.236 209.735 174.737 209.692 173.961H208.609C208.662 175.279 209.586 176.182 211.233 176.182ZM217.863 176.182C219.436 176.182 220.636 174.96 220.636 172.357C220.636 169.744 219.436 168.533 217.863 168.533C216.291 168.533 215.091 169.744 215.091 172.357C215.091 174.96 216.291 176.182 217.863 176.182ZM216.153 172.357C216.153 170.392 216.801 169.478 217.863 169.478C218.926 169.478 219.574 170.392 219.574 172.357C219.574 174.312 218.926 175.236 217.863 175.236C216.801 175.236 216.153 174.312 216.153 172.357ZM224.409 176.182C226.109 176.182 227.001 175.279 227.001 174.057C227.001 173.08 226.502 172.432 225.599 172.187V172.102C226.3 171.815 226.736 171.337 226.736 170.583C226.736 169.552 225.918 168.533 224.409 168.533C222.932 168.533 222.051 169.404 222.008 170.604H223.017C223.081 169.892 223.538 169.478 224.409 169.478C225.185 169.478 225.673 169.892 225.673 170.594C225.673 171.284 225.185 171.73 224.25 171.73H223.464V172.687H224.292C225.344 172.687 225.939 173.111 225.939 173.961C225.939 174.811 225.344 175.236 224.409 175.236C223.453 175.236 222.911 174.737 222.869 173.961H221.785C221.838 175.279 222.762 176.182 224.409 176.182ZM231.868 176.054H232.888V174.28H233.919V173.377H232.888V168.66H231.922L228.299 173.451V174.28H231.868V176.054ZM229.457 173.377V173.313L231.805 170.169H231.868V173.377H229.457ZM234.982 175.512C234.982 175.895 235.259 176.182 235.662 176.182C236.066 176.182 236.342 175.895 236.342 175.512C236.342 175.141 236.066 174.854 235.662 174.854C235.259 174.854 234.982 175.141 234.982 175.512ZM240.284 176.182C241.856 176.182 243.057 174.96 243.057 172.357C243.057 169.744 241.856 168.533 240.284 168.533C238.712 168.533 237.511 169.744 237.511 172.357C237.511 174.96 238.712 176.182 240.284 176.182ZM238.573 172.357C238.573 170.392 239.221 169.478 240.284 169.478C241.346 169.478 241.994 170.392 241.994 172.357C241.994 174.312 241.346 175.236 240.284 175.236C239.221 175.236 238.573 174.312 238.573 172.357ZM246.872 176.182C248.444 176.182 249.645 174.96 249.645 172.357C249.645 169.744 248.444 168.533 246.872 168.533C245.3 168.533 244.099 169.744 244.099 172.357C244.099 174.96 245.3 176.182 246.872 176.182ZM245.162 172.357C245.162 170.392 245.81 169.478 246.872 169.478C247.934 169.478 248.582 170.392 248.582 172.357C248.582 174.312 247.934 175.236 246.872 175.236C245.81 175.236 245.162 174.312 245.162 172.357ZM253.46 176.182C255.032 176.182 256.233 174.96 256.233 172.357C256.233 169.744 255.032 168.533 253.46 168.533C251.888 168.533 250.687 169.744 250.687 172.357C250.687 174.96 251.888 176.182 253.46 176.182ZM251.75 172.357C251.75 170.392 252.398 169.478 253.46 169.478C254.523 169.478 255.171 170.392 255.171 172.357C255.171 174.312 254.523 175.236 253.46 175.236C252.398 175.236 251.75 174.312 251.75 172.357ZM261.939 176.076H262.938V175.162H262.077C261.674 175.162 261.493 174.992 261.493 174.609V171.401H262.832V170.53H261.493V169.021H260.494V170.53H259.464V171.401H260.494V174.705C260.494 175.555 260.994 176.076 261.939 176.076Z" fill="#282B24"/>
<path d="M25.3558 212.43C27.6081 212.43 29.2442 210.921 29.2442 208.478C29.2442 206.055 27.6081 204.526 25.3558 204.526C23.1142 204.526 21.4675 206.055 21.4675 208.478C21.4675 210.921 23.1142 212.43 25.3558 212.43ZM22.8698 208.478C22.8698 206.874 23.7729 205.769 25.3558 205.769C26.9388 205.769 27.8419 206.874 27.8419 208.478C27.8419 210.082 26.9388 211.187 25.3558 211.187C23.7729 211.187 22.8698 210.082 22.8698 208.478ZM30.4374 212.302H31.7123V209.784C31.7123 208.52 32.3285 207.947 33.3697 207.947H33.8371V206.65H33.4759C32.626 206.65 32.0417 207.107 31.7442 207.755H31.6804V206.778H30.4374V212.302ZM36.8059 212.43C37.6027 212.43 38.1551 212.122 38.5376 211.537H38.6013V212.302H39.8443V204.653H38.5694V207.543H38.5057C38.1232 207.001 37.6133 206.65 36.8059 206.65C35.4566 206.65 34.3836 207.755 34.3836 209.54C34.3836 211.325 35.4566 212.43 36.8059 212.43ZM35.701 209.54C35.701 208.478 36.2959 207.819 37.1458 207.819C38.0489 207.819 38.6119 208.456 38.6119 209.54C38.6119 210.613 38.0489 211.261 37.1458 211.261C36.2959 211.261 35.701 210.603 35.701 209.54ZM43.7332 212.43C45.1037 212.43 45.773 211.835 46.1236 210.964L44.9443 210.507C44.7 210.996 44.3813 211.282 43.7332 211.282C42.9895 211.282 42.4796 210.836 42.3627 209.965H46.3148V209.71C46.3148 207.681 45.2949 206.65 43.7438 206.65C42.1715 206.65 41.0241 207.883 41.0241 209.54C41.0241 211.314 42.1502 212.43 43.7332 212.43ZM42.3733 209.03C42.5221 208.202 43.0426 207.798 43.7332 207.798C44.4875 207.798 44.9018 208.34 44.9656 209.03H42.3733ZM47.4732 212.302H48.7481V209.784C48.7481 208.52 49.3643 207.947 50.4054 207.947H50.8729V206.65H50.5116C49.6617 206.65 49.0774 207.107 48.7799 207.755H48.7162V206.778H47.4732V212.302ZM54.4659 212.302H55.7408V209.476C55.7408 208.425 56.272 207.851 56.9838 207.851C57.5788 207.851 57.9612 208.202 57.9612 208.956V212.302H59.2361V208.722C59.2361 207.394 58.4606 206.65 57.3557 206.65C56.6545 206.65 56.1233 206.98 55.8046 207.522H55.7408V204.653H54.4659V212.302ZM60.6183 212.302H61.8932V206.778H60.6183V212.302ZM60.4802 205.291C60.4802 205.715 60.7989 206.045 61.2557 206.045C61.7126 206.045 62.0313 205.715 62.0313 205.291C62.0313 204.844 61.7126 204.526 61.2557 204.526C60.7989 204.526 60.4802 204.844 60.4802 205.291ZM65.4189 212.43C66.8425 212.43 67.6818 211.771 67.6818 210.698C67.6818 209.699 67.0656 209.105 65.8969 208.988L64.8239 208.881C64.4308 208.839 64.229 208.637 64.229 208.35C64.229 208.021 64.4839 207.787 65.0895 207.787C65.5888 207.787 66.0032 208 66.2475 208.446L67.3949 207.893C67.0018 207.15 66.2688 206.65 65.0895 206.65C63.7828 206.65 62.9647 207.426 62.9647 208.393C62.9647 209.402 63.6447 209.923 64.7283 210.039L65.7588 210.146C66.2157 210.188 66.4175 210.379 66.4175 210.709C66.4175 211.07 66.0457 211.293 65.4189 211.293C64.792 211.293 64.2927 211.017 64.059 210.496L62.8797 211.038C63.2834 211.931 64.1015 212.43 65.4189 212.43ZM70.6026 212.324H71.6756V211.134H70.7939C70.4433 211.134 70.2839 210.974 70.2839 210.634V207.84H71.5694V206.778H70.2839V205.269H69.009V206.778H68.0316V207.84H69.009V210.719C69.009 211.739 69.5402 212.324 70.6026 212.324ZM75.0363 212.43C76.6193 212.43 77.8198 211.325 77.8198 209.54C77.8198 207.766 76.6193 206.65 75.0363 206.65C73.4427 206.65 72.2528 207.766 72.2528 209.54C72.2528 211.325 73.4427 212.43 75.0363 212.43ZM73.5915 209.54C73.5915 208.488 74.112 207.84 75.0363 207.84C75.95 207.84 76.4812 208.488 76.4812 209.54C76.4812 210.592 75.95 211.24 75.0363 211.24C74.112 211.24 73.5915 210.592 73.5915 209.54ZM78.9821 212.302H80.2569V209.784C80.2569 208.52 80.8731 207.947 81.9143 207.947H82.3817V206.65H82.0205C81.1706 206.65 80.5863 207.107 80.2888 207.755H80.2251V206.778H78.9821V212.302ZM84.2779 214.427H85.6271L88.7612 206.778H87.3801L85.8821 210.688H85.7971L84.3947 206.778H82.9605L85.1703 212.345L84.2779 214.427Z" fill="#1A1B17"/>
<g clip-path="url(#clip2_440_15182)">
<rect x="21" y="223.802" width="297.472" height="110.49" rx="4.2496" fill="white"/>
<g clip-path="url(#clip3_440_15182)">
<mask id="path-27-inside-1_440_15182" fill="white">
<path d="M21 223.802H318.472V245.05H21V223.802Z"/>
</mask>
<path d="M21 223.802H318.472V245.05H21V223.802Z" fill="#F7F7F7"/>
<path d="M21 224.333H318.472V223.27H21V224.333ZM318.472 244.518H21V245.581H318.472V244.518Z" fill="#DBDBDB" mask="url(#path-27-inside-1_440_15182)"/>
<mask id="path-29-inside-2_440_15182" fill="white">
<path d="M21 245.05H318.472V274.797H21V245.05Z"/>
</mask>
<path d="M21 245.05H318.472V274.797H21V245.05Z" fill="white"/>
<path d="M318.472 274.266H21V275.328H318.472V274.266Z" fill="#DBDBDB" mask="url(#path-29-inside-2_440_15182)"/>
<mask id="path-31-inside-3_440_15182" fill="white">
<path d="M21 274.797H318.472V304.544H21V274.797Z"/>
</mask>
<path d="M21 274.797H318.472V304.544H21V274.797Z" fill="white"/>
<path d="M318.472 304.013H21V305.075H318.472V304.013Z" fill="#DBDBDB" mask="url(#path-31-inside-3_440_15182)"/>
<mask id="path-33-inside-4_440_15182" fill="white">
<path d="M21 304.544H318.472V334.291H21V304.544Z"/>
</mask>
<path d="M21 304.544H318.472V334.291H21V304.544Z" fill="white"/>
<path d="M318.472 333.76H21V334.822H318.472V333.76Z" fill="#DBDBDB" mask="url(#path-33-inside-4_440_15182)"/>
<path d="M34.361 237.114H36.5113C38.5341 237.114 39.69 235.915 39.69 234.054C39.69 232.193 38.5341 230.994 36.5793 230.994H34.361V237.114ZM35.4319 236.128V231.98H36.5538C37.9391 231.98 38.5851 232.788 38.5851 234.054C38.5851 235.303 37.9306 236.128 36.4858 236.128H35.4319ZM41.8842 237.216C42.4451 237.216 42.8871 236.995 43.2015 236.519H43.2695L43.295 237.114H44.2554L44.2299 236.145V234.215C44.2299 233.264 43.567 232.592 42.4196 232.592C41.2637 232.592 40.5668 233.23 40.5243 234.088H41.5357C41.5782 233.782 41.8162 233.501 42.3941 233.501C42.972 233.501 43.21 233.816 43.21 234.249V234.411L41.9266 234.53C40.9577 234.615 40.4223 235.116 40.4223 235.898C40.4223 236.697 40.9832 237.216 41.8842 237.216ZM41.4422 235.83C41.4422 235.507 41.6547 235.303 42.0966 235.252L43.193 235.133C43.108 236 42.6831 236.374 42.1051 236.374C41.6802 236.374 41.4422 236.145 41.4422 235.83ZM46.8379 237.131H47.6963V236.179H46.9909C46.7104 236.179 46.5829 236.051 46.5829 235.779V233.544H47.6114V232.694H46.5829V231.487H45.563V232.694H44.7811V233.544H45.563V235.847C45.563 236.663 45.988 237.131 46.8379 237.131ZM50.3254 237.216C51.4218 237.216 51.9572 236.74 52.2377 236.043L51.2943 235.677C51.0988 236.068 50.8438 236.298 50.3254 236.298C49.7304 236.298 49.3225 235.941 49.229 235.244H52.3907V235.04C52.3907 233.416 51.5748 232.592 50.3339 232.592C49.076 232.592 48.1581 233.578 48.1581 234.904C48.1581 236.323 49.059 237.216 50.3254 237.216ZM49.2375 234.496C49.3565 233.833 49.7729 233.51 50.3254 233.51C50.9288 233.51 51.2603 233.943 51.3113 234.496H49.2375Z" fill="#747672"/>
<path d="M35.6783 263.027C36.6473 263.027 37.2592 262.432 37.2592 261.489V256.806H36.4263V261.472C36.4263 261.965 36.1458 262.245 35.6698 262.245C35.2024 262.245 34.9049 261.965 34.9049 261.472V260.63H34.089V261.489C34.089 262.432 34.7179 263.027 35.6783 263.027ZM39.6683 263.027C40.2547 263.027 40.8241 262.789 41.1216 262.304H41.1726L41.1811 262.925H41.9545L41.9375 261.982V260.018C41.9375 259.041 41.2831 258.403 40.1612 258.403C39.0563 258.403 38.3934 259.024 38.3594 259.882H39.1243C39.1668 259.423 39.4728 259.117 40.1612 259.117C40.8071 259.117 41.1386 259.466 41.1386 260.035V260.222L39.7107 260.341C38.7078 260.426 38.2319 260.936 38.2319 261.718C38.2319 262.491 38.7928 263.027 39.6683 263.027ZM39.0138 261.684C39.0138 261.31 39.2603 261.03 39.8637 260.97L41.1301 260.851C41.0621 261.88 40.4587 262.347 39.8042 262.347C39.2858 262.347 39.0138 262.084 39.0138 261.684ZM43.059 262.925H43.8579V260.715C43.8579 259.593 44.3423 259.134 45.0563 259.134C45.6172 259.134 45.9657 259.491 45.9657 260.231V262.925H46.7646V260.078C46.7646 259.015 46.1442 258.403 45.2008 258.403C44.6398 258.403 44.2234 258.624 43.9089 259.032H43.8579V258.505H43.059V262.925ZM51.5272 258.505H50.7283V260.715C50.7283 261.837 50.2438 262.296 49.5299 262.296C48.969 262.296 48.6205 261.939 48.6205 261.2V258.505H47.8216V261.353C47.8216 262.415 48.442 263.027 49.3854 263.027C49.9464 263.027 50.3628 262.806 50.6773 262.398H50.7283V262.925H51.5272V258.505ZM53.9526 263.027C54.539 263.027 55.1084 262.789 55.4059 262.304H55.4569L55.4654 262.925H56.2388L56.2218 261.982V260.018C56.2218 259.041 55.5674 258.403 54.4455 258.403C53.3406 258.403 52.6777 259.024 52.6437 259.882H53.4086C53.4511 259.423 53.7571 259.117 54.4455 259.117C55.0914 259.117 55.4229 259.466 55.4229 260.035V260.222L53.995 260.341C52.9921 260.426 52.5162 260.936 52.5162 261.718C52.5162 262.491 53.0771 263.027 53.9526 263.027ZM53.2981 261.684C53.2981 261.31 53.5446 261.03 54.148 260.97L55.4144 260.851C55.3464 261.88 54.743 262.347 54.0885 262.347C53.5701 262.347 53.2981 262.084 53.2981 261.684ZM57.3433 262.925H58.1422V260.877C58.1422 259.772 58.6521 259.219 59.4766 259.219H59.842V258.403H59.5956C58.8731 258.403 58.4312 258.76 58.1932 259.219H58.1422V258.505H57.3433V262.925ZM61.4319 264.625H62.2478L64.7381 258.505H63.8797L62.5878 261.829H62.5028L61.1939 258.505H60.3185L62.1288 262.976L61.4319 264.625ZM67.5958 262.925H71.6584V262.16H70.0945V257.009H69.5081C69.3466 257.664 68.9896 257.995 68.1992 257.995H67.7827V258.675H69.2786V262.16H67.5958V262.925ZM74.8126 263.027C76.1215 263.027 76.9714 262.126 76.9714 260.928C76.9714 259.721 76.1554 258.862 74.9656 258.862C74.4641 258.862 74.0306 259.041 73.7332 259.355H73.6822L73.8522 257.774H76.5889V257.009H73.1552L72.8663 260.112L73.5972 260.231C73.8437 259.899 74.2601 259.619 74.8466 259.619C75.6625 259.619 76.1215 260.163 76.1215 260.936C76.1215 261.735 75.637 262.27 74.8126 262.27C74.1581 262.27 73.6822 261.922 73.5292 261.378H72.6878C72.8323 262.423 73.6907 263.027 74.8126 263.027ZM78.2557 262.016L77.8563 264.208H78.4852L79.1312 262.016H78.2557ZM82.4459 262.143V262.925H86.3045V262.16H83.2618V262.109C83.2618 261.667 83.4488 261.472 83.8227 261.268L84.8766 260.69C85.7605 260.205 86.177 259.653 86.177 258.828C86.177 257.715 85.4291 256.907 84.2647 256.907C83.1598 256.907 82.3014 257.655 82.3014 258.803H83.1428C83.1683 258.046 83.5932 257.664 84.2647 257.664C84.8851 257.664 85.3356 258.063 85.3356 258.828C85.3356 259.338 85.1401 259.678 84.4857 260.035L83.4913 260.579C82.7178 261.004 82.4459 261.463 82.4459 262.143ZM89.6117 263.027C90.8696 263.027 91.83 262.05 91.83 259.967C91.83 257.876 90.8696 256.907 89.6117 256.907C88.3538 256.907 87.3934 257.876 87.3934 259.967C87.3934 262.05 88.3538 263.027 89.6117 263.027ZM88.2433 259.967C88.2433 258.395 88.7618 257.664 89.6117 257.664C90.4616 257.664 90.98 258.395 90.98 259.967C90.98 261.531 90.4616 262.27 89.6117 262.27C88.7618 262.27 88.2433 261.531 88.2433 259.967ZM92.9869 262.143V262.925H96.8455V262.16H93.8028V262.109C93.8028 261.667 93.9898 261.472 94.3637 261.268L95.4176 260.69C96.3015 260.205 96.718 259.653 96.718 258.828C96.718 257.715 95.9701 256.907 94.8057 256.907C93.7008 256.907 92.8424 257.655 92.8424 258.803H93.6838C93.7093 258.046 94.1342 257.664 94.8057 257.664C95.4261 257.664 95.8766 258.063 95.8766 258.828C95.8766 259.338 95.6811 259.678 95.0267 260.035L94.0323 260.579C93.2588 261.004 92.9869 261.463 92.9869 262.143ZM100.119 263.027C101.479 263.027 102.192 262.304 102.192 261.327C102.192 260.545 101.793 260.027 101.071 259.831V259.763C101.632 259.534 101.98 259.151 101.98 258.548C101.98 257.723 101.326 256.907 100.119 256.907C98.9373 256.907 98.2319 257.604 98.1979 258.565H99.0053C99.0563 257.995 99.4217 257.664 100.119 257.664C100.739 257.664 101.13 257.995 101.13 258.556C101.13 259.109 100.739 259.466 99.9912 259.466H99.3622V260.231H100.025C100.867 260.231 101.343 260.571 101.343 261.251C101.343 261.931 100.867 262.27 100.119 262.27C99.3537 262.27 98.9203 261.871 98.8863 261.251H98.0194C98.0619 262.304 98.8013 263.027 100.119 263.027Z" fill="#282B24"/>
<path d="M35.6783 293.025C36.6473 293.025 37.2592 292.43 37.2592 291.487V286.804H36.4263V291.47C36.4263 291.963 36.1458 292.243 35.6698 292.243C35.2024 292.243 34.9049 291.963 34.9049 291.47V290.629H34.089V291.487C34.089 292.43 34.7179 293.025 35.6783 293.025ZM42.0735 288.504H41.2746V290.714C41.2746 291.835 40.7901 292.294 40.0762 292.294C39.5153 292.294 39.1668 291.937 39.1668 291.198V288.504H38.3679V291.351C38.3679 292.413 38.9883 293.025 39.9317 293.025C40.4927 293.025 40.9091 292.804 41.2236 292.396H41.2746V292.923H42.0735V288.504ZM43.2665 292.923H44.0654V286.804H43.2665V292.923ZM45.8279 294.623H46.6438L49.1341 288.504H48.2757L46.9838 291.827H46.8988L45.5899 288.504H44.7145L46.5248 292.974L45.8279 294.623ZM52.0513 292.141V292.923H55.9099V292.158H52.8672V292.107C52.8672 291.665 53.0542 291.47 53.4281 291.266L54.482 290.688C55.3659 290.204 55.7824 289.651 55.7824 288.827C55.7824 287.713 55.0345 286.906 53.8701 286.906C52.7652 286.906 51.9068 287.654 51.9068 288.801H52.7482C52.7737 288.045 53.1986 287.662 53.8701 287.662C54.4905 287.662 54.941 288.062 54.941 288.827C54.941 289.337 54.7455 289.677 54.0911 290.034L53.0967 290.578C52.3232 291.003 52.0513 291.461 52.0513 292.141ZM57.3812 292.014L56.9818 294.207H57.6107L58.2567 292.014H57.3812ZM61.5714 292.141V292.923H65.43V292.158H62.3873V292.107C62.3873 291.665 62.5743 291.47 62.9482 291.266L64.0021 290.688C64.886 290.204 65.3025 289.651 65.3025 288.827C65.3025 287.713 64.5546 286.906 63.3902 286.906C62.2853 286.906 61.4269 287.654 61.4269 288.801H62.2683C62.2938 288.045 62.7187 287.662 63.3902 287.662C64.0106 287.662 64.4611 288.062 64.4611 288.827C64.4611 289.337 64.2656 289.677 63.6112 290.034L62.6168 290.578C61.8433 291.003 61.5714 291.461 61.5714 292.141ZM68.7372 293.025C69.9951 293.025 70.9555 292.048 70.9555 289.966C70.9555 287.875 69.9951 286.906 68.7372 286.906C67.4793 286.906 66.5189 287.875 66.5189 289.966C66.5189 292.048 67.4793 293.025 68.7372 293.025ZM67.3688 289.966C67.3688 288.393 67.8873 287.662 68.7372 287.662C69.5871 287.662 70.1055 288.393 70.1055 289.966C70.1055 291.529 69.5871 292.269 68.7372 292.269C67.8873 292.269 67.3688 291.529 67.3688 289.966ZM72.1124 292.141V292.923H75.971V292.158H72.9283V292.107C72.9283 291.665 73.1153 291.47 73.4892 291.266L74.5431 290.688C75.427 290.204 75.8435 289.651 75.8435 288.827C75.8435 287.713 75.0956 286.906 73.9312 286.906C72.8263 286.906 71.9679 287.654 71.9679 288.801H72.8093C72.8348 288.045 73.2597 287.662 73.9312 287.662C74.5516 287.662 75.0021 288.062 75.0021 288.827C75.0021 289.337 74.8066 289.677 74.1522 290.034L73.1578 290.578C72.3843 291.003 72.1124 291.461 72.1124 292.141ZM77.3829 292.141V292.923H81.2415V292.158H78.1988V292.107C78.1988 291.665 78.3858 291.47 78.7597 291.266L79.8136 290.688C80.6975 290.204 81.114 289.651 81.114 288.827C81.114 287.713 80.3661 286.906 79.2017 286.906C78.0968 286.906 77.2384 287.654 77.2384 288.801H78.0798C78.1053 288.045 78.5302 287.662 79.2017 287.662C79.8221 287.662 80.2726 288.062 80.2726 288.827C80.2726 289.337 80.0771 289.677 79.4227 290.034L78.4283 290.578C77.6548 291.003 77.3829 291.461 77.3829 292.141Z" fill="#282B24"/>
<path d="M35.6783 323.024C36.6473 323.024 37.2592 322.429 37.2592 321.485V316.802H36.4263V321.468C36.4263 321.961 36.1458 322.242 35.6698 322.242C35.2024 322.242 34.9049 321.961 34.9049 321.468V320.627H34.089V321.485C34.089 322.429 34.7179 323.024 35.6783 323.024ZM42.0735 318.502H41.2746V320.712C41.2746 321.834 40.7901 322.293 40.0762 322.293C39.5153 322.293 39.1668 321.936 39.1668 321.196V318.502H38.3679V321.349C38.3679 322.412 38.9883 323.024 39.9317 323.024C40.4927 323.024 40.9091 322.803 41.2236 322.395H41.2746V322.922H42.0735V318.502ZM43.2665 322.922H44.0654V316.802H43.2665V322.922ZM45.8279 324.622H46.6438L49.1341 318.502H48.2757L46.9838 321.825H46.8988L45.5899 318.502H44.7145L46.5248 322.973L45.8279 324.622ZM51.9918 322.922H56.0544V322.157H54.4905V317.006H53.9041C53.7426 317.661 53.3856 317.992 52.5952 317.992H52.1787V318.672H53.6746V322.157H51.9918V322.922ZM57.3812 322.012L56.9818 324.205H57.6107L58.2567 322.012H57.3812ZM61.5714 322.14V322.922H65.43V322.157H62.3873V322.106C62.3873 321.664 62.5743 321.468 62.9482 321.264L64.0021 320.686C64.886 320.202 65.3025 319.65 65.3025 318.825C65.3025 317.712 64.5546 316.904 63.3902 316.904C62.2853 316.904 61.4269 317.652 61.4269 318.8H62.2683C62.2938 318.043 62.7187 317.661 63.3902 317.661C64.0106 317.661 64.4611 318.06 64.4611 318.825C64.4611 319.335 64.2656 319.675 63.6112 320.032L62.6168 320.576C61.8433 321.001 61.5714 321.46 61.5714 322.14ZM68.7372 323.024C69.9951 323.024 70.9555 322.046 70.9555 319.964C70.9555 317.873 69.9951 316.904 68.7372 316.904C67.4793 316.904 66.5189 317.873 66.5189 319.964C66.5189 322.046 67.4793 323.024 68.7372 323.024ZM67.3688 319.964C67.3688 318.392 67.8873 317.661 68.7372 317.661C69.5871 317.661 70.1055 318.392 70.1055 319.964C70.1055 321.528 69.5871 322.267 68.7372 322.267C67.8873 322.267 67.3688 321.528 67.3688 319.964ZM72.1124 322.14V322.922H75.971V322.157H72.9283V322.106C72.9283 321.664 73.1153 321.468 73.4892 321.264L74.5431 320.686C75.427 320.202 75.8435 319.65 75.8435 318.825C75.8435 317.712 75.0956 316.904 73.9312 316.904C72.8263 316.904 71.9679 317.652 71.9679 318.8H72.8093C72.8348 318.043 73.2597 317.661 73.9312 317.661C74.5516 317.661 75.0021 318.06 75.0021 318.825C75.0021 319.335 74.8066 319.675 74.1522 320.032L73.1578 320.576C72.3843 321.001 72.1124 321.46 72.1124 322.14ZM77.3829 322.14V322.922H81.2415V322.157H78.1988V322.106C78.1988 321.664 78.3858 321.468 78.7597 321.264L79.8136 320.686C80.6975 320.202 81.114 319.65 81.114 318.825C81.114 317.712 80.3661 316.904 79.2017 316.904C78.0968 316.904 77.2384 317.652 77.2384 318.8H78.0798C78.1053 318.043 78.5302 317.661 79.2017 317.661C79.8221 317.661 80.2726 318.06 80.2726 318.825C80.2726 319.335 80.0771 319.675 79.4227 320.032L78.4283 320.576C77.6548 321.001 77.3829 321.46 77.3829 322.14Z" fill="#282B24"/>
<path d="M154.427 237.114H155.574L156.05 235.788H158.608L159.093 237.114H160.266L157.988 230.994H156.713L154.427 237.114ZM156.407 234.802L157.282 232.354H157.367L158.251 234.802H156.407ZM160.88 237.114H161.9V234.734C161.9 233.977 162.274 233.552 162.852 233.552C163.302 233.552 163.6 233.824 163.6 234.385V237.114H164.62V234.734C164.62 233.977 164.994 233.552 165.572 233.552C166.022 233.552 166.32 233.824 166.32 234.385V237.114H167.34V234.181C167.34 233.17 166.753 232.592 165.844 232.592C165.181 232.592 164.773 232.873 164.509 233.349H164.458C164.212 232.89 163.761 232.592 163.158 232.592C162.588 232.592 162.197 232.83 161.917 233.289H161.875V232.694H160.88V237.114ZM170.456 237.216C171.722 237.216 172.683 236.332 172.683 234.904C172.683 233.484 171.722 232.592 170.456 232.592C169.181 232.592 168.229 233.484 168.229 234.904C168.229 236.332 169.181 237.216 170.456 237.216ZM169.3 234.904C169.3 234.062 169.716 233.544 170.456 233.544C171.187 233.544 171.612 234.062 171.612 234.904C171.612 235.745 171.187 236.264 170.456 236.264C169.716 236.264 169.3 235.745 169.3 234.904ZM177.377 232.694H176.358V234.955C176.358 235.796 175.933 236.255 175.346 236.255C174.87 236.255 174.581 235.975 174.581 235.371V232.694H173.561V235.558C173.561 236.621 174.165 237.216 175.066 237.216C175.627 237.216 176.052 236.944 176.332 236.502H176.383V237.114H177.377V232.694ZM178.534 237.114H179.554V234.853C179.554 234.011 179.979 233.552 180.566 233.552C181.041 233.552 181.33 233.833 181.33 234.436V237.114H182.35V234.249C182.35 233.187 181.747 232.592 180.846 232.592C180.285 232.592 179.86 232.864 179.58 233.306H179.529V232.694H178.534V237.114ZM184.994 237.131H185.853V236.179H185.147C184.867 236.179 184.74 236.051 184.74 235.779V233.544H185.768V232.694H184.74V231.487H183.72V232.694H182.938V233.544H183.72V235.847C183.72 236.663 184.145 237.131 184.994 237.131Z" fill="#747672"/>
<path d="M168.027 263.027C169.387 263.027 170.101 262.262 170.101 261.31C170.101 260.605 169.719 260.069 169.064 259.806V259.738C169.6 259.508 169.889 259.075 169.889 258.531C169.889 257.732 169.234 256.907 168.027 256.907C166.82 256.907 166.166 257.732 166.166 258.531C166.166 259.075 166.438 259.508 166.982 259.738V259.806C166.327 260.069 165.954 260.605 165.954 261.31C165.954 262.262 166.667 263.027 168.027 263.027ZM166.803 261.234C166.803 260.554 167.279 260.197 168.027 260.197C168.775 260.197 169.251 260.554 169.251 261.234C169.251 261.888 168.775 262.27 168.027 262.27C167.279 262.27 166.803 261.888 166.803 261.234ZM167.016 258.539C167.016 258.004 167.407 257.664 168.027 257.664C168.648 257.664 169.039 258.004 169.039 258.539C169.039 259.092 168.648 259.44 168.027 259.44C167.407 259.44 167.016 259.092 167.016 258.539ZM173.204 263.027C174.36 263.027 175.474 262.296 175.474 259.882C175.474 258.199 174.828 256.907 173.213 256.907C171.929 256.907 171.114 257.766 171.114 258.862C171.114 260.01 171.955 260.817 173.06 260.817C173.782 260.817 174.284 260.477 174.573 259.993H174.624C174.624 261.837 173.986 262.27 173.196 262.27C172.465 262.27 172.15 261.922 172.082 261.438H171.25C171.343 262.406 172.023 263.027 173.204 263.027ZM171.963 258.862C171.963 258.14 172.448 257.664 173.213 257.664C173.986 257.664 174.462 258.14 174.462 258.862C174.462 259.576 173.986 260.061 173.213 260.061C172.439 260.061 171.963 259.576 171.963 258.862ZM178.56 263.027C179.869 263.027 180.719 262.126 180.719 260.928C180.719 259.721 179.903 258.862 178.713 258.862C178.211 258.862 177.778 259.041 177.48 259.355H177.429L177.599 257.774H180.336V257.009H176.902L176.614 260.112L177.344 260.231C177.591 259.899 178.007 259.619 178.594 259.619C179.41 259.619 179.869 260.163 179.869 260.936C179.869 261.735 179.384 262.27 178.56 262.27C177.905 262.27 177.429 261.922 177.276 261.378H176.435C176.58 262.423 177.438 263.027 178.56 263.027ZM185.352 262.942H186.151V262.211H185.462C185.139 262.211 184.995 262.075 184.995 261.769V259.202H186.066V258.505H184.995V257.298H184.196V258.505H183.371V259.202H184.196V261.846C184.196 262.525 184.595 262.942 185.352 262.942Z" fill="#282B24"/>
<path d="M158.132 292.141V292.923H161.991V292.158H158.948V292.107C158.948 291.665 159.135 291.47 159.509 291.266L160.563 290.688C161.447 290.204 161.863 289.651 161.863 288.827C161.863 287.713 161.115 286.906 159.951 286.906C158.846 286.906 157.988 287.654 157.988 288.801H158.829C158.854 288.045 159.279 287.662 159.951 287.662C160.571 287.662 161.022 288.062 161.022 288.827C161.022 289.337 160.826 289.677 160.172 290.034L159.177 290.578C158.404 291.003 158.132 291.461 158.132 292.141ZM163.462 292.014L163.063 294.207H163.691L164.337 292.014H163.462ZM167.423 293.025C168.681 293.025 169.641 292.048 169.641 289.966C169.641 287.875 168.681 286.906 167.423 286.906C166.165 286.906 165.204 287.875 165.204 289.966C165.204 292.048 166.165 293.025 167.423 293.025ZM166.054 289.966C166.054 288.393 166.573 287.662 167.423 287.662C168.273 287.662 168.791 288.393 168.791 289.966C168.791 291.529 168.273 292.269 167.423 292.269C166.573 292.269 166.054 291.529 166.054 289.966ZM170.738 292.923H174.801V292.158H173.237V287.008H172.651C172.489 287.662 172.132 287.994 171.342 287.994H170.925V288.674H172.421V292.158H170.738V292.923ZM178.627 292.923H179.442V291.504H180.267V290.782H179.442V287.008H178.669L175.771 290.841V291.504H178.627V292.923ZM176.697 290.782V290.731L178.576 288.215H178.627V290.782H176.697ZM184.747 292.94H185.546V292.209H184.857C184.535 292.209 184.39 292.073 184.39 291.767V289.201H185.461V288.504H184.39V287.297H183.591V288.504H182.767V289.201H183.591V291.844C183.591 292.524 183.991 292.94 184.747 292.94Z" fill="#282B24"/>
<path d="M166.073 322.922H170.135V322.157H168.571V317.006H167.985C167.823 317.661 167.466 317.992 166.676 317.992H166.259V318.672H167.755V322.157H166.073V322.922ZM171.403 322.14V322.922H175.261V322.157H172.218V322.106C172.218 321.664 172.405 321.468 172.779 321.264L173.833 320.686C174.717 320.202 175.134 319.65 175.134 318.825C175.134 317.712 174.386 316.904 173.221 316.904C172.116 316.904 171.258 317.652 171.258 318.8H172.099C172.125 318.043 172.55 317.661 173.221 317.661C173.842 317.661 174.292 318.06 174.292 318.825C174.292 319.335 174.097 319.675 173.442 320.032L172.448 320.576C171.674 321.001 171.403 321.46 171.403 322.14ZM178.56 323.024C179.869 323.024 180.719 322.123 180.719 320.924C180.719 319.718 179.903 318.859 178.713 318.859C178.211 318.859 177.778 319.038 177.48 319.352H177.429L177.599 317.771H180.336V317.006H176.902L176.614 320.109L177.344 320.228C177.591 319.896 178.007 319.616 178.594 319.616C179.41 319.616 179.869 320.16 179.869 320.933C179.869 321.732 179.384 322.267 178.56 322.267C177.905 322.267 177.429 321.919 177.276 321.375H176.435C176.58 322.42 177.438 323.024 178.56 323.024ZM185.352 322.939H186.151V322.208H185.462C185.139 322.208 184.995 322.072 184.995 321.766V319.199H186.066V318.502H184.995V317.295H184.196V318.502H183.371V319.199H184.196V321.842C184.196 322.522 184.595 322.939 185.352 322.939Z" fill="#282B24"/>
<path d="M239.986 237.216C241.516 237.216 242.4 236.519 242.4 235.414C242.4 234.326 241.737 233.68 240.53 233.544L239.442 233.425C238.864 233.366 238.617 233.085 238.617 232.694C238.617 232.244 239.008 231.895 239.748 231.895C240.428 231.895 240.878 232.21 241.099 232.779L242.145 232.414C241.822 231.487 241.006 230.892 239.748 230.892C238.413 230.892 237.513 231.717 237.513 232.72C237.513 233.773 238.218 234.385 239.272 234.496L240.479 234.623C241.006 234.683 241.303 234.929 241.303 235.414C241.303 235.89 240.878 236.213 239.986 236.213C239.229 236.213 238.719 235.856 238.507 235.244L237.402 235.626C237.802 236.672 238.617 237.216 239.986 237.216ZM244.789 237.131H245.647V236.179H244.942C244.661 236.179 244.534 236.051 244.534 235.779V233.544H245.562V232.694H244.534V231.487H243.514V232.694H242.732V233.544H243.514V235.847C243.514 236.663 243.939 237.131 244.789 237.131ZM247.645 237.216C248.206 237.216 248.648 236.995 248.963 236.519H249.031L249.056 237.114H250.016L249.991 236.145V234.215C249.991 233.264 249.328 232.592 248.181 232.592C247.025 232.592 246.328 233.23 246.285 234.088H247.297C247.339 233.782 247.577 233.501 248.155 233.501C248.733 233.501 248.971 233.816 248.971 234.249V234.411L247.688 234.53C246.719 234.615 246.183 235.116 246.183 235.898C246.183 236.697 246.744 237.216 247.645 237.216ZM247.203 235.83C247.203 235.507 247.416 235.303 247.858 235.252L248.954 235.133C248.869 236 248.444 236.374 247.866 236.374C247.441 236.374 247.203 236.145 247.203 235.83ZM252.599 237.131H253.457V236.179H252.752C252.471 236.179 252.344 236.051 252.344 235.779V233.544H253.372V232.694H252.344V231.487H251.324V232.694H250.542V233.544H251.324V235.847C251.324 236.663 251.749 237.131 252.599 237.131ZM257.98 232.694H256.96V234.955C256.96 235.796 256.535 236.255 255.948 236.255C255.472 236.255 255.183 235.975 255.183 235.371V232.694H254.164V235.558C254.164 236.621 254.767 237.216 255.668 237.216C256.229 237.216 256.654 236.944 256.934 236.502H256.985V237.114H257.98V232.694ZM260.802 237.216C261.941 237.216 262.613 236.689 262.613 235.83C262.613 235.031 262.12 234.555 261.185 234.462L260.326 234.377C260.012 234.343 259.85 234.181 259.85 233.952C259.85 233.688 260.054 233.501 260.539 233.501C260.938 233.501 261.27 233.671 261.465 234.028L262.383 233.586C262.069 232.992 261.482 232.592 260.539 232.592C259.493 232.592 258.839 233.213 258.839 233.986C258.839 234.793 259.383 235.21 260.25 235.303L261.074 235.388C261.44 235.422 261.601 235.575 261.601 235.839C261.601 236.128 261.304 236.306 260.802 236.306C260.301 236.306 259.901 236.085 259.714 235.669L258.771 236.102C259.094 236.816 259.748 237.216 260.802 237.216Z" fill="#747672"/>
<rect x="237.037" y="253.925" width="45.6864" height="13.2496" rx="2.1248" fill="#EDF8FF"/>
<rect x="240.489" y="259.222" width="2.656" height="2.656" rx="1.328" stroke="#0C67A4" stroke-width="0.5312"/>
<g clip-path="url(#clip4_440_15182)">
<rect x="240.736" y="259.22" width="1.0624" height="2.656" fill="#0C67A4" stroke="#0C67A4" stroke-width="0.5312"/>
</g>
<path d="M245.565 263.05H246.569L246.986 261.89H249.224L249.648 263.05H250.674L248.681 257.695H247.566L245.565 263.05ZM247.298 261.027L248.064 258.885H248.139L248.912 261.027H247.298ZM251.212 263.05H252.105V257.695H251.212V263.05ZM253.115 263.05H254.007V257.695H253.115V263.05ZM256.78 263.139C257.888 263.139 258.729 262.365 258.729 261.116C258.729 259.874 257.888 259.093 256.78 259.093C255.665 259.093 254.832 259.874 254.832 261.116C254.832 262.365 255.665 263.139 256.78 263.139ZM255.769 261.116C255.769 260.38 256.133 259.926 256.78 259.926C257.42 259.926 257.792 260.38 257.792 261.116C257.792 261.852 257.42 262.306 256.78 262.306C256.133 262.306 255.769 261.852 255.769 261.116ZM261.32 263.139C262.339 263.139 262.934 262.574 263.097 261.815L262.227 261.547C262.101 262.053 261.796 262.306 261.32 262.306C260.68 262.306 260.293 261.852 260.293 261.116C260.293 260.38 260.673 259.926 261.32 259.926C261.811 259.926 262.123 260.246 262.22 260.67L263.105 260.477C262.941 259.636 262.279 259.093 261.32 259.093C260.212 259.093 259.356 259.874 259.356 261.116C259.356 262.365 260.212 263.139 261.32 263.139ZM264.906 263.139C265.397 263.139 265.783 262.946 266.058 262.529H266.118L266.14 263.05H266.981L266.958 262.202V260.514C266.958 259.681 266.378 259.093 265.374 259.093C264.363 259.093 263.753 259.651 263.716 260.402H264.601C264.638 260.134 264.846 259.889 265.352 259.889C265.858 259.889 266.066 260.164 266.066 260.543V260.685L264.943 260.789C264.095 260.863 263.627 261.302 263.627 261.986C263.627 262.685 264.117 263.139 264.906 263.139ZM264.519 261.927C264.519 261.644 264.705 261.466 265.092 261.421L266.051 261.317C265.977 262.075 265.605 262.403 265.099 262.403C264.727 262.403 264.519 262.202 264.519 261.927ZM269.24 263.065H269.991V262.232H269.374C269.129 262.232 269.017 262.12 269.017 261.882V259.926H269.917V259.183H269.017V258.127H268.125V259.183H267.441V259.926H268.125V261.942C268.125 262.656 268.497 263.065 269.24 263.065ZM272.292 263.139C273.251 263.139 273.72 262.722 273.965 262.113L273.14 261.793C272.969 262.135 272.745 262.336 272.292 262.336C271.771 262.336 271.414 262.023 271.332 261.414H274.099V261.235C274.099 259.815 273.385 259.093 272.299 259.093C271.199 259.093 270.395 259.956 270.395 261.116C270.395 262.358 271.184 263.139 272.292 263.139ZM271.34 260.759C271.444 260.179 271.808 259.896 272.292 259.896C272.82 259.896 273.11 260.276 273.154 260.759H271.34ZM276.405 263.139C276.962 263.139 277.349 262.923 277.617 262.514H277.661V263.05H278.532V257.695H277.639V259.718H277.594C277.327 259.339 276.97 259.093 276.405 259.093C275.46 259.093 274.709 259.867 274.709 261.116C274.709 262.365 275.46 263.139 276.405 263.139ZM275.631 261.116C275.631 260.372 276.048 259.911 276.643 259.911C277.275 259.911 277.669 260.358 277.669 261.116C277.669 261.867 277.275 262.321 276.643 262.321C276.048 262.321 275.631 261.86 275.631 261.116Z" fill="#0C67A4"/>
<rect x="237.037" y="284.173" width="68.6864" height="13.2496" rx="2.1248" fill="#EAF5F2"/>
<rect x="240.489" y="289.47" width="2.656" height="2.656" rx="1.328" stroke="#154D3F" stroke-width="0.5312"/>
<g clip-path="url(#clip5_440_15182)">
<rect x="240.736" y="289.468" width="1.0624" height="2.656" fill="#154D3F" stroke="#154D3F" stroke-width="0.5312"/>
</g>
<path d="M246.071 293.298H247.008V291.215H248.473C249.574 291.215 250.288 290.531 250.288 289.564C250.288 288.605 249.574 287.943 248.51 287.943H246.071V293.298ZM247.008 290.353V288.806H248.466C248.986 288.806 249.321 289.066 249.321 289.579C249.321 290.085 248.979 290.353 248.436 290.353H247.008ZM251.949 293.387C252.44 293.387 252.827 293.194 253.102 292.777H253.162L253.184 293.298H254.024L254.002 292.45V290.762C254.002 289.929 253.422 289.341 252.418 289.341C251.407 289.341 250.797 289.899 250.76 290.65H251.645C251.682 290.383 251.89 290.137 252.396 290.137C252.901 290.137 253.11 290.412 253.11 290.792V290.933L251.987 291.037C251.139 291.111 250.67 291.55 250.67 292.234C250.67 292.933 251.161 293.387 251.949 293.387ZM251.563 292.175C251.563 291.892 251.749 291.714 252.135 291.669L253.095 291.565C253.02 292.324 252.648 292.651 252.143 292.651C251.771 292.651 251.563 292.45 251.563 292.175ZM254.938 293.298H255.83V291.535C255.83 290.65 256.262 290.249 256.99 290.249H257.318V289.341H257.065C256.47 289.341 256.061 289.661 255.853 290.115H255.808V289.431H254.938V293.298ZM259.545 293.313H260.296V292.48H259.679C259.433 292.48 259.322 292.368 259.322 292.13V290.174H260.222V289.431H259.322V288.375H258.429V289.431H257.745V290.174H258.429V292.19C258.429 292.904 258.801 293.313 259.545 293.313ZM260.959 293.298H261.851V289.431H260.959V293.298ZM260.862 288.389C260.862 288.687 261.085 288.917 261.405 288.917C261.725 288.917 261.948 288.687 261.948 288.389C261.948 288.077 261.725 287.854 261.405 287.854C261.085 287.854 260.862 288.077 260.862 288.389ZM263.947 293.387C264.438 293.387 264.825 293.194 265.1 292.777H265.159L265.182 293.298H266.022L266 292.45V290.762C266 289.929 265.42 289.341 264.416 289.341C263.404 289.341 262.794 289.899 262.757 290.65H263.642C263.679 290.383 263.888 290.137 264.393 290.137C264.899 290.137 265.107 290.412 265.107 290.792V290.933L263.984 291.037C263.136 291.111 262.668 291.55 262.668 292.234C262.668 292.933 263.159 293.387 263.947 293.387ZM263.56 292.175C263.56 291.892 263.746 291.714 264.133 291.669L265.092 291.565C265.018 292.324 264.646 292.651 264.14 292.651C263.769 292.651 263.56 292.45 263.56 292.175ZM266.936 293.298H267.828V287.943H266.936V293.298ZM268.838 293.298H269.731V287.943H268.838V293.298ZM271.187 294.785H272.132L274.326 289.431H273.359L272.31 292.167H272.251L271.269 289.431H270.265L271.812 293.327L271.187 294.785ZM276.949 289.022V289.431H276.264V290.174H276.949V293.298H277.841V290.174H278.89V289.431H277.841V289.089C277.841 288.813 277.953 288.687 278.213 288.687H278.89V287.854H278.109C277.335 287.854 276.949 288.278 276.949 289.022ZM282.794 289.431H281.902V291.409C281.902 292.145 281.53 292.547 281.017 292.547C280.6 292.547 280.347 292.301 280.347 291.773V289.431H279.455V291.937C279.455 292.866 279.983 293.387 280.771 293.387C281.262 293.387 281.634 293.149 281.879 292.762H281.924V293.298H282.794V289.431ZM283.806 293.298H284.699V287.943H283.806V293.298ZM288.267 293.298H289.16V289.431H286.832V289.089C286.832 288.813 286.944 288.687 287.204 288.687H287.881V287.854H287.1C286.326 287.854 285.94 288.278 285.94 289.022V289.431H285.255V290.174H285.94V293.298H286.832V290.174H288.267V293.298ZM290.168 293.298H291.061V287.943H290.168V293.298ZM292.071 293.298H292.963V287.943H292.071V293.298ZM295.684 293.387C296.644 293.387 297.112 292.971 297.358 292.361L296.532 292.041C296.361 292.383 296.138 292.584 295.684 292.584C295.164 292.584 294.807 292.271 294.725 291.662H297.491V291.483C297.491 290.063 296.778 289.341 295.692 289.341C294.591 289.341 293.788 290.204 293.788 291.364C293.788 292.606 294.576 293.387 295.684 293.387ZM294.732 291.007C294.837 290.427 295.201 290.145 295.684 290.145C296.212 290.145 296.502 290.524 296.547 291.007H294.732ZM299.797 293.387C300.355 293.387 300.742 293.171 301.009 292.762H301.054V293.298H301.924V287.943H301.032V289.966H300.987C300.719 289.587 300.362 289.341 299.797 289.341C298.853 289.341 298.102 290.115 298.102 291.364C298.102 292.614 298.853 293.387 299.797 293.387ZM299.024 291.364C299.024 290.62 299.44 290.159 300.035 290.159C300.667 290.159 301.061 290.606 301.061 291.364C301.061 292.115 300.667 292.569 300.035 292.569C299.44 292.569 299.024 292.108 299.024 291.364Z" fill="#154D3F"/>
<rect x="237.037" y="314.421" width="39.6864" height="13.2496" rx="2.1248" fill="#EAF5F2"/>
<g clip-path="url(#clip6_440_15182)">
<rect x="240.737" y="319.716" width="2.656" height="2.656" rx="1.328" fill="#154D3F" stroke="#154D3F" stroke-width="0.5312"/>
</g>
<path d="M246.071 323.546H247.008V321.248H249.492V320.385H247.008V319.054H249.789V318.191H246.071V323.546ZM253.766 319.679H252.874V321.657C252.874 322.393 252.502 322.795 251.989 322.795C251.572 322.795 251.319 322.549 251.319 322.021V319.679H250.427V322.185C250.427 323.114 250.955 323.635 251.743 323.635C252.234 323.635 252.606 323.397 252.851 323.01H252.896V323.546H253.766V319.679ZM254.778 323.546H255.671V318.191H254.778V323.546ZM259.239 323.546H260.132V319.679H257.804V319.336C257.804 319.061 257.915 318.935 258.176 318.935H258.852V318.102H258.072C257.298 318.102 256.911 318.526 256.911 319.269V319.679H256.227V320.422H256.911V323.546H257.804V320.422H259.239V323.546ZM261.14 323.546H262.032V318.191H261.14V323.546ZM263.043 323.546H263.935V318.191H263.043V323.546ZM266.656 323.635C267.615 323.635 268.084 323.218 268.329 322.609L267.504 322.289C267.333 322.631 267.11 322.832 266.656 322.832C266.136 322.832 265.779 322.519 265.697 321.91H268.463V321.731C268.463 320.311 267.749 319.589 266.664 319.589C265.563 319.589 264.76 320.452 264.76 321.612C264.76 322.854 265.548 323.635 266.656 323.635ZM265.704 321.255C265.808 320.675 266.173 320.392 266.656 320.392C267.184 320.392 267.474 320.772 267.519 321.255H265.704ZM270.769 323.635C271.327 323.635 271.713 323.419 271.981 323.01H272.026V323.546H272.896V318.191H272.003V320.214H271.959C271.691 319.835 271.334 319.589 270.769 319.589C269.824 319.589 269.073 320.363 269.073 321.612C269.073 322.861 269.824 323.635 270.769 323.635ZM269.995 321.612C269.995 320.868 270.412 320.407 271.007 320.407C271.639 320.407 272.033 320.854 272.033 321.612C272.033 322.363 271.639 322.817 271.007 322.817C270.412 322.817 269.995 322.356 269.995 321.612Z" fill="#154D3F"/>
</g>
</g>
<rect x="21.2656" y="224.067" width="296.941" height="109.958" rx="3.984" stroke="#DBDBDB" stroke-width="0.5312"/>
<rect x="21.2656" y="343.056" width="58.2176" height="24.9664" rx="1.8592" fill="white"/>
<path d="M30.7675 358.141C32.2378 358.141 33.0963 357.453 33.0963 356.373C33.0963 355.362 32.4588 354.707 31.3369 354.572L30.198 354.436C29.5351 354.359 29.1951 354.062 29.1951 353.543C29.1951 352.965 29.6796 352.6 30.5295 352.6C31.3199 352.6 31.8554 352.982 32.0679 353.679L32.9178 353.475C32.6458 352.396 31.7534 351.818 30.5295 351.818C29.2121 351.818 28.3367 352.515 28.3367 353.56C28.3367 354.495 28.9147 355.141 30.0621 355.277L31.2349 355.413C31.8469 355.481 32.2378 355.812 32.2378 356.373C32.2378 356.968 31.7109 357.359 30.7675 357.359C29.8496 357.359 29.2716 356.985 29.0591 356.144L28.2007 356.331C28.5152 357.495 29.3141 358.141 30.7675 358.141ZM34.0831 358.039H34.882V355.829C34.882 354.707 35.3665 354.249 36.0804 354.249C36.6414 354.249 36.9898 354.606 36.9898 355.353V358.039H37.7888V355.2C37.7888 354.13 37.1683 353.518 36.2249 353.518C35.664 353.518 35.2475 353.739 34.933 354.147H34.882V351.92H34.0831V358.039ZM40.8685 358.141C42.1264 358.141 43.0358 357.232 43.0358 355.829C43.0358 354.427 42.1264 353.518 40.8685 353.518C39.6021 353.518 38.7012 354.427 38.7012 355.829C38.7012 357.232 39.6021 358.141 40.8685 358.141ZM39.5341 355.829C39.5341 354.852 39.9931 354.249 40.8685 354.249C41.7269 354.249 42.2029 354.852 42.2029 355.829C42.2029 356.807 41.7269 357.41 40.8685 357.41C39.9931 357.41 39.5341 356.807 39.5341 355.829ZM44.7578 358.039H45.8117L46.7721 354.741H46.8401L47.809 358.039H48.8629L50.1633 353.62H49.3389L48.3615 357.045H48.285L47.3161 353.62H46.3302L45.3443 357.045H45.2593L44.3074 353.62H43.466L44.7578 358.039ZM52.9324 358.039H53.7313V355.693C53.7313 354.674 54.1563 354.249 54.8277 354.249C55.3632 354.249 55.6776 354.606 55.6776 355.285V358.039H56.4766V355.693C56.4766 354.674 56.9015 354.249 57.573 354.249C58.1084 354.249 58.4229 354.606 58.4229 355.285V358.039H59.2218V355.09C59.2218 354.13 58.6014 353.518 57.7175 353.518C57.08 353.518 56.6551 353.773 56.3406 354.249H56.2981C56.0686 353.79 55.6182 353.518 54.9977 353.518C54.4453 353.518 54.0713 353.73 53.7823 354.121H53.7313V353.62H52.9324V358.039ZM62.2991 358.141C63.557 358.141 64.4664 357.232 64.4664 355.829C64.4664 354.427 63.557 353.518 62.2991 353.518C61.0327 353.518 60.1318 354.427 60.1318 355.829C60.1318 357.232 61.0327 358.141 62.2991 358.141ZM60.9647 355.829C60.9647 354.852 61.4237 354.249 62.2991 354.249C63.1575 354.249 63.6335 354.852 63.6335 355.829C63.6335 356.807 63.1575 357.41 62.2991 357.41C61.4237 357.41 60.9647 356.807 60.9647 355.829ZM65.4405 358.039H66.2394V355.991C66.2394 354.886 66.7494 354.334 67.5738 354.334H67.9393V353.518H67.6928C66.9704 353.518 66.5284 353.875 66.2904 354.334H66.2394V353.62H65.4405V358.039ZM70.4572 358.141C71.4601 358.141 72.0976 357.682 72.378 356.883L71.6386 356.628C71.4091 357.147 71.0607 357.41 70.4572 357.41C69.6923 357.41 69.2163 356.892 69.1398 356.059H72.4885V355.821C72.4885 354.342 71.6556 353.518 70.4657 353.518C69.2418 353.518 68.3239 354.453 68.3239 355.829C68.3239 357.232 69.2078 358.141 70.4572 358.141ZM69.1653 355.404C69.3098 354.623 69.8368 354.249 70.4657 354.249C71.1542 354.249 71.5961 354.75 71.6471 355.404H69.1653Z" fill="#282B24"/>
<rect x="21.2656" y="343.056" width="58.2176" height="24.9664" rx="1.8592" stroke="#DBDBDB" stroke-width="0.5312"/>
<path d="M21.7649 399.536H24.4528C26.9813 399.536 28.4262 398.038 28.4262 395.711C28.4262 393.385 26.9813 391.887 24.5378 391.887H21.7649V399.536ZM23.1036 398.304V393.119H24.5059C26.2376 393.119 27.0451 394.128 27.0451 395.711C27.0451 397.273 26.227 398.304 24.4209 398.304H23.1036ZM29.6178 399.536H30.8927V397.018C30.8927 395.754 31.5089 395.18 32.55 395.18H33.0175V393.884H32.6563C31.8064 393.884 31.222 394.341 30.9246 394.989H30.8608V394.012H29.6178V399.536ZM35.2982 399.663C35.9993 399.663 36.5518 399.387 36.9449 398.792H37.0299L37.0617 399.536H38.2623L38.2304 398.325V395.913C38.2304 394.723 37.4017 393.884 35.9675 393.884C34.5226 393.884 33.6514 394.681 33.5983 395.754H34.8626C34.9157 395.371 35.2132 395.021 35.9356 395.021C36.658 395.021 36.9555 395.414 36.9555 395.956V396.158L35.3513 396.306C34.1401 396.413 33.4708 397.039 33.4708 398.017C33.4708 399.015 34.172 399.663 35.2982 399.663ZM34.7457 397.932C34.7457 397.528 35.0113 397.273 35.5638 397.209L36.9343 397.061C36.828 398.144 36.2968 398.612 35.5744 398.612C35.0432 398.612 34.7457 398.325 34.7457 397.932ZM39.8968 393.427V394.012H38.9194V395.074H39.8968V399.536H41.1717V395.074H42.6696V394.012H41.1717V393.523C41.1717 393.13 41.331 392.949 41.7029 392.949H42.6696V391.759H41.5541C40.4492 391.759 39.8968 392.365 39.8968 393.427ZM45.464 399.557H46.537V398.367H45.6552C45.3046 398.367 45.1453 398.208 45.1453 397.868V395.074H46.4308V394.012H45.1453V392.503H43.8704V394.012H42.893V395.074H43.8704V397.953C43.8704 398.973 44.4016 399.557 45.464 399.557ZM52.6574 399.663C54.2404 399.663 55.4409 398.559 55.4409 396.774C55.4409 395 54.2404 393.884 52.6574 393.884C51.0638 393.884 49.874 395 49.874 396.774C49.874 398.559 51.0638 399.663 52.6574 399.663ZM51.2126 396.774C51.2126 395.722 51.7332 395.074 52.6574 395.074C53.5711 395.074 54.1023 395.722 54.1023 396.774C54.1023 397.826 53.5711 398.474 52.6574 398.474C51.7332 398.474 51.2126 397.826 51.2126 396.774ZM56.6032 399.536H57.8781V397.018C57.8781 395.754 58.4943 395.18 59.5354 395.18H60.0029V393.884H59.6416C58.7917 393.884 58.2074 394.341 57.9099 394.989H57.8462V394.012H56.6032V399.536ZM62.9716 399.663C63.7684 399.663 64.3209 399.355 64.7033 398.771H64.7671V399.536H66.0101V391.887H64.7352V394.776H64.6714C64.289 394.235 63.779 393.884 62.9716 393.884C61.6224 393.884 60.5493 394.989 60.5493 396.774C60.5493 398.559 61.6224 399.663 62.9716 399.663ZM61.8667 396.774C61.8667 395.711 62.4617 395.053 63.3116 395.053C64.2146 395.053 64.7777 395.69 64.7777 396.774C64.7777 397.847 64.2146 398.495 63.3116 398.495C62.4617 398.495 61.8667 397.836 61.8667 396.774ZM69.8989 399.663C71.2694 399.663 71.9388 399.069 72.2893 398.197L71.1101 397.741C70.8657 398.229 70.547 398.516 69.8989 398.516C69.1553 398.516 68.6453 398.07 68.5285 397.199H72.4806V396.944C72.4806 394.915 71.4607 393.884 69.9096 393.884C68.3372 393.884 67.1898 395.116 67.1898 396.774C67.1898 398.548 68.316 399.663 69.8989 399.663ZM68.5391 396.264C68.6878 395.435 69.2084 395.031 69.8989 395.031C70.6533 395.031 71.0676 395.573 71.1313 396.264H68.5391ZM73.6389 399.536H74.9138V397.018C74.9138 395.754 75.53 395.18 76.5712 395.18H77.0386V393.884H76.6774C75.8275 393.884 75.2432 394.341 74.9457 394.989H74.8819V394.012H73.6389V399.536ZM80.1617 399.663C81.5854 399.663 82.4246 399.005 82.4246 397.932C82.4246 396.933 81.8085 396.338 80.6398 396.221L79.5668 396.115C79.1737 396.073 78.9718 395.871 78.9718 395.584C78.9718 395.255 79.2268 395.021 79.8324 395.021C80.3317 395.021 80.7461 395.233 80.9904 395.679L82.1378 395.127C81.7447 394.383 81.0117 393.884 79.8324 393.884C78.5256 393.884 77.7076 394.66 77.7076 395.626C77.7076 396.636 78.3875 397.156 79.4712 397.273L80.5017 397.379C80.9585 397.422 81.1604 397.613 81.1604 397.942C81.1604 398.304 80.7886 398.527 80.1617 398.527C79.5349 398.527 79.0356 398.251 78.8019 397.73L77.6226 398.272C78.0263 399.164 78.8444 399.663 80.1617 399.663Z" fill="#1A1B17"/>
<g clip-path="url(#clip7_440_15182)">
<rect x="21" y="411.035" width="297.472" height="110.49" rx="4.2496" fill="white"/>
<g clip-path="url(#clip8_440_15182)">
<mask id="path-63-inside-5_440_15182" fill="white">
<path d="M21 411.035H318.472V432.283H21V411.035Z"/>
</mask>
<path d="M21 411.035H318.472V432.283H21V411.035Z" fill="#F7F7F7"/>
<path d="M21 411.566H318.472V410.504H21V411.566ZM318.472 431.752H21V432.814H318.472V431.752Z" fill="#DBDBDB" mask="url(#path-63-inside-5_440_15182)"/>
<mask id="path-65-inside-6_440_15182" fill="white">
<path d="M21 432.283H318.472V462.03H21V432.283Z"/>
</mask>
<path d="M21 432.283H318.472V462.03H21V432.283Z" fill="white"/>
<path d="M318.472 461.499H21V462.562H318.472V461.499Z" fill="#DBDBDB" mask="url(#path-65-inside-6_440_15182)"/>
<mask id="path-67-inside-7_440_15182" fill="white">
<path d="M21 462.03H318.472V491.778H21V462.03Z"/>
</mask>
<path d="M21 462.03H318.472V491.778H21V462.03Z" fill="white"/>
<path d="M318.472 491.246H21V492.309H318.472V491.246Z" fill="#DBDBDB" mask="url(#path-67-inside-7_440_15182)"/>
<path d="M34.2845 424.347H37.7946V423.484H35.2215V418.993H34.2845V424.347ZM39.6544 424.436C40.1453 424.436 40.532 424.243 40.8071 423.826H40.8666L40.8889 424.347H41.7293L41.707 423.499V421.811C41.707 420.978 41.1269 420.391 40.1229 420.391C39.1115 420.391 38.5017 420.948 38.4645 421.7H39.3495C39.3867 421.432 39.5949 421.186 40.1006 421.186C40.6063 421.186 40.8146 421.462 40.8146 421.841V421.982L39.6916 422.086C38.8438 422.161 38.3753 422.599 38.3753 423.284C38.3753 423.983 38.8661 424.436 39.6544 424.436ZM39.2677 423.224C39.2677 422.941 39.4536 422.763 39.8403 422.718L40.7997 422.614C40.7253 423.373 40.3535 423.7 39.8478 423.7C39.4759 423.7 39.2677 423.499 39.2677 423.224ZM44.1005 424.436C45.0971 424.436 45.6846 423.975 45.6846 423.224C45.6846 422.525 45.2532 422.109 44.4352 422.027L43.6841 421.952C43.4089 421.923 43.2676 421.781 43.2676 421.581C43.2676 421.35 43.4461 421.186 43.87 421.186C44.2195 421.186 44.5095 421.335 44.6806 421.647L45.4838 421.261C45.2086 420.74 44.6955 420.391 43.87 420.391C42.9553 420.391 42.3826 420.934 42.3826 421.61C42.3826 422.317 42.8586 422.681 43.6171 422.763L44.3385 422.837C44.6583 422.867 44.7996 423.001 44.7996 423.232C44.7996 423.484 44.5393 423.641 44.1005 423.641C43.6618 423.641 43.3122 423.447 43.1486 423.083L42.3231 423.462C42.6057 424.087 43.1784 424.436 44.1005 424.436ZM47.7292 424.362H48.4803V423.529H47.863C47.6176 423.529 47.5061 423.417 47.5061 423.179V421.224H48.4059V420.48H47.5061V419.424H46.6136V420.48H45.9295V421.224H46.6136V423.239C46.6136 423.953 46.9855 424.362 47.7292 424.362ZM54.2966 420.48H53.4041V422.458C53.4041 423.194 53.0323 423.596 52.5192 423.596C52.1027 423.596 51.8498 423.351 51.8498 422.823V420.48H50.9574V422.986C50.9574 423.916 51.4854 424.436 52.2737 424.436C52.7646 424.436 53.1364 424.198 53.3818 423.812H53.4264V424.347H54.2966V420.48ZM55.3087 425.834H56.2011V423.812H56.2457C56.5135 424.191 56.8704 424.436 57.4356 424.436C58.3801 424.436 59.1312 423.663 59.1312 422.413C59.1312 421.164 58.3801 420.391 57.4356 420.391C56.8779 420.391 56.4912 420.606 56.2234 421.015H56.1788V420.48H55.3087V425.834ZM56.1714 422.413C56.1714 421.662 56.5655 421.209 57.1977 421.209C57.7926 421.209 58.2091 421.67 58.2091 422.413C58.2091 423.157 57.7926 423.618 57.1977 423.618C56.5655 423.618 56.1714 423.172 56.1714 422.413ZM61.437 424.436C61.9947 424.436 62.3815 424.221 62.6492 423.812H62.6938V424.347H63.5639V418.993H62.6715V421.015H62.6269C62.3591 420.636 62.0022 420.391 61.437 420.391C60.4925 420.391 59.7414 421.164 59.7414 422.413C59.7414 423.663 60.4925 424.436 61.437 424.436ZM60.6636 422.413C60.6636 421.67 61.08 421.209 61.675 421.209C62.3071 421.209 62.7012 421.655 62.7012 422.413C62.7012 423.165 62.3071 423.618 61.675 423.618C61.08 423.618 60.6636 423.157 60.6636 422.413ZM65.6614 424.436C66.1523 424.436 66.539 424.243 66.8141 423.826H66.8736L66.8959 424.347H67.7363L67.714 423.499V421.811C67.714 420.978 67.1339 420.391 66.13 420.391C65.1185 420.391 64.5087 420.948 64.4715 421.7H65.3565C65.3937 421.432 65.6019 421.186 66.1076 421.186C66.6133 421.186 66.8216 421.462 66.8216 421.841V421.982L65.6986 422.086C64.8508 422.161 64.3823 422.599 64.3823 423.284C64.3823 423.983 64.8731 424.436 65.6614 424.436ZM65.2747 423.224C65.2747 422.941 65.4606 422.763 65.8474 422.718L66.8067 422.614C66.7323 423.373 66.3605 423.7 65.8548 423.7C65.483 423.7 65.2747 423.499 65.2747 423.224ZM69.996 424.362H70.7471V423.529H70.1298C69.8844 423.529 69.7729 423.417 69.7729 423.179V421.224H70.6727V420.48H69.7729V419.424H68.8805V420.48H68.1963V421.224H68.8805V423.239C68.8805 423.953 69.2523 424.362 69.996 424.362ZM73.0475 424.436C74.0069 424.436 74.4754 424.02 74.7208 423.41L73.8953 423.09C73.7243 423.432 73.5012 423.633 73.0475 423.633C72.5269 423.633 72.17 423.321 72.0882 422.711H74.8547V422.532C74.8547 421.112 74.1407 420.391 73.0549 420.391C71.9543 420.391 71.1511 421.253 71.1511 422.413C71.1511 423.655 71.9394 424.436 73.0475 424.436ZM72.0956 422.057C72.1997 421.476 72.5641 421.194 73.0475 421.194C73.5755 421.194 73.8656 421.573 73.9102 422.057H72.0956ZM77.1603 424.436C77.7181 424.436 78.1048 424.221 78.3725 423.812H78.4171V424.347H79.2872V418.993H78.3948V421.015H78.3502C78.0825 420.636 77.7255 420.391 77.1603 420.391C76.2158 420.391 75.4647 421.164 75.4647 422.413C75.4647 423.663 76.2158 424.436 77.1603 424.436ZM76.3869 422.413C76.3869 421.67 76.8033 421.209 77.3983 421.209C78.0304 421.209 78.4245 421.655 78.4245 422.413C78.4245 423.165 78.0304 423.618 77.3983 423.618C76.8033 423.618 76.3869 423.157 76.3869 422.413Z" fill="#747672"/>
<path d="M35.6783 450.26C36.6473 450.26 37.2592 449.665 37.2592 448.722V444.039H36.4263V448.705C36.4263 449.198 36.1458 449.478 35.6698 449.478C35.2024 449.478 34.9049 449.198 34.9049 448.705V447.863H34.089V448.722C34.089 449.665 34.7179 450.26 35.6783 450.26ZM39.6683 450.26C40.2547 450.26 40.8241 450.022 41.1216 449.538H41.1726L41.1811 450.158H41.9545L41.9375 449.215V447.252C41.9375 446.274 41.2831 445.637 40.1612 445.637C39.0563 445.637 38.3934 446.257 38.3594 447.116H39.1243C39.1668 446.657 39.4728 446.351 40.1612 446.351C40.8071 446.351 41.1386 446.699 41.1386 447.269V447.456L39.7107 447.575C38.7078 447.659 38.2319 448.169 38.2319 448.951C38.2319 449.725 38.7928 450.26 39.6683 450.26ZM39.0138 448.917C39.0138 448.543 39.2603 448.263 39.8637 448.203L41.1301 448.084C41.0621 449.113 40.4587 449.58 39.8042 449.58C39.2858 449.58 39.0138 449.317 39.0138 448.917ZM43.059 450.158H43.8579V447.948C43.8579 446.827 44.3423 446.368 45.0563 446.368C45.6172 446.368 45.9657 446.725 45.9657 447.464V450.158H46.7646V447.311C46.7646 446.249 46.1442 445.637 45.2008 445.637C44.6398 445.637 44.2234 445.858 43.9089 446.266H43.8579V445.739H43.059V450.158ZM51.5272 445.739H50.7283V447.948C50.7283 449.07 50.2438 449.529 49.5299 449.529C48.969 449.529 48.6205 449.172 48.6205 448.433V445.739H47.8216V448.586C47.8216 449.648 48.442 450.26 49.3854 450.26C49.9464 450.26 50.3628 450.039 50.6773 449.631H50.7283V450.158H51.5272V445.739ZM53.9526 450.26C54.539 450.26 55.1084 450.022 55.4059 449.538H55.4569L55.4654 450.158H56.2388L56.2218 449.215V447.252C56.2218 446.274 55.5674 445.637 54.4455 445.637C53.3406 445.637 52.6777 446.257 52.6437 447.116H53.4086C53.4511 446.657 53.7571 446.351 54.4455 446.351C55.0914 446.351 55.4229 446.699 55.4229 447.269V447.456L53.995 447.575C52.9921 447.659 52.5162 448.169 52.5162 448.951C52.5162 449.725 53.0771 450.26 53.9526 450.26ZM53.2981 448.917C53.2981 448.543 53.5446 448.263 54.148 448.203L55.4144 448.084C55.3464 449.113 54.743 449.58 54.0885 449.58C53.5701 449.58 53.2981 449.317 53.2981 448.917ZM57.3433 450.158H58.1422V448.11C58.1422 447.005 58.6521 446.453 59.4766 446.453H59.842V445.637H59.5956C58.8731 445.637 58.4312 445.994 58.1932 446.453H58.1422V445.739H57.3433V450.158ZM61.4319 451.858H62.2478L64.7381 445.739H63.8797L62.5878 449.062H62.5028L61.1939 445.739H60.3185L62.1288 450.209L61.4319 451.858ZM67.5958 450.158H71.6584V449.393H70.0945V444.243H69.5081C69.3466 444.897 68.9896 445.229 68.1992 445.229H67.7827V445.909H69.2786V449.393H67.5958V450.158ZM74.8126 450.26C76.1215 450.26 76.9714 449.359 76.9714 448.161C76.9714 446.954 76.1554 446.096 74.9656 446.096C74.4641 446.096 74.0306 446.274 73.7332 446.589H73.6822L73.8522 445.008H76.5889V444.243H73.1552L72.8663 447.345L73.5972 447.464C73.8437 447.133 74.2601 446.852 74.8466 446.852C75.6625 446.852 76.1215 447.396 76.1215 448.169C76.1215 448.968 75.637 449.504 74.8126 449.504C74.1581 449.504 73.6822 449.155 73.5292 448.611H72.6878C72.8323 449.657 73.6907 450.26 74.8126 450.26ZM78.2557 449.249L77.8563 451.442H78.4852L79.1312 449.249H78.2557ZM82.4459 449.376V450.158H86.3045V449.393H83.2618V449.342C83.2618 448.9 83.4488 448.705 83.8227 448.501L84.8766 447.923C85.7605 447.439 86.177 446.886 86.177 446.062C86.177 444.948 85.4291 444.141 84.2647 444.141C83.1598 444.141 82.3014 444.889 82.3014 446.036H83.1428C83.1683 445.28 83.5932 444.897 84.2647 444.897C84.8851 444.897 85.3356 445.297 85.3356 446.062C85.3356 446.572 85.1401 446.912 84.4857 447.269L83.4913 447.812C82.7178 448.237 82.4459 448.696 82.4459 449.376ZM89.6117 450.26C90.8696 450.26 91.83 449.283 91.83 447.201C91.83 445.11 90.8696 444.141 89.6117 444.141C88.3538 444.141 87.3934 445.11 87.3934 447.201C87.3934 449.283 88.3538 450.26 89.6117 450.26ZM88.2433 447.201C88.2433 445.628 88.7618 444.897 89.6117 444.897C90.4616 444.897 90.98 445.628 90.98 447.201C90.98 448.764 90.4616 449.504 89.6117 449.504C88.7618 449.504 88.2433 448.764 88.2433 447.201ZM92.9869 449.376V450.158H96.8455V449.393H93.8028V449.342C93.8028 448.9 93.9898 448.705 94.3637 448.501L95.4176 447.923C96.3015 447.439 96.718 446.886 96.718 446.062C96.718 444.948 95.9701 444.141 94.8057 444.141C93.7008 444.141 92.8424 444.889 92.8424 446.036H93.6838C93.7093 445.28 94.1342 444.897 94.8057 444.897C95.4261 444.897 95.8766 445.297 95.8766 446.062C95.8766 446.572 95.6811 446.912 95.0267 447.269L94.0323 447.812C93.2588 448.237 92.9869 448.696 92.9869 449.376ZM100.119 450.26C101.479 450.26 102.192 449.538 102.192 448.56C102.192 447.778 101.793 447.26 101.071 447.065V446.997C101.632 446.767 101.98 446.385 101.98 445.781C101.98 444.957 101.326 444.141 100.119 444.141C98.9373 444.141 98.2319 444.838 98.1979 445.798H99.0053C99.0563 445.229 99.4217 444.897 100.119 444.897C100.739 444.897 101.13 445.229 101.13 445.79C101.13 446.342 100.739 446.699 99.9912 446.699H99.3622V447.464H100.025C100.867 447.464 101.343 447.804 101.343 448.484C101.343 449.164 100.867 449.504 100.119 449.504C99.3537 449.504 98.9203 449.104 98.8863 448.484H98.0194C98.0619 449.538 98.8013 450.26 100.119 450.26Z" fill="#282B24"/>
<path d="M170.766 424.347H171.77L172.186 423.187H174.424L174.848 424.347H175.875L173.882 418.993H172.766L170.766 424.347ZM172.498 422.324L173.264 420.182H173.339L174.112 422.324H172.498ZM176.412 424.347H177.305V422.265C177.305 421.603 177.632 421.231 178.138 421.231C178.532 421.231 178.792 421.469 178.792 421.96V424.347H179.685V422.265C179.685 421.603 180.012 421.231 180.518 421.231C180.912 421.231 181.172 421.469 181.172 421.96V424.347H182.064V421.781C182.064 420.896 181.551 420.391 180.756 420.391C180.175 420.391 179.818 420.636 179.588 421.053H179.543C179.328 420.651 178.934 420.391 178.406 420.391C177.907 420.391 177.565 420.599 177.32 421H177.283V420.48H176.412V424.347ZM184.791 424.436C185.899 424.436 186.74 423.663 186.74 422.413C186.74 421.172 185.899 420.391 184.791 420.391C183.676 420.391 182.843 421.172 182.843 422.413C182.843 423.663 183.676 424.436 184.791 424.436ZM183.78 422.413C183.78 421.677 184.144 421.224 184.791 421.224C185.431 421.224 185.803 421.677 185.803 422.413C185.803 423.15 185.431 423.603 184.791 423.603C184.144 423.603 183.78 423.15 183.78 422.413ZM190.848 420.48H189.955V422.458C189.955 423.194 189.583 423.596 189.07 423.596C188.654 423.596 188.401 423.351 188.401 422.823V420.48H187.508V422.986C187.508 423.916 188.037 424.436 188.825 424.436C189.316 424.436 189.687 424.198 189.933 423.812H189.978V424.347H190.848V420.48ZM191.86 424.347H192.752V422.369C192.752 421.633 193.124 421.231 193.637 421.231C194.054 421.231 194.306 421.476 194.306 422.004V424.347H195.199V421.841C195.199 420.911 194.671 420.391 193.883 420.391C193.392 420.391 193.02 420.629 192.775 421.015H192.73V420.48H191.86V424.347ZM197.513 424.362H198.264V423.529H197.646C197.401 423.529 197.289 423.417 197.289 423.179V421.224H198.189V420.48H197.289V419.424H196.397V420.48H195.713V421.224H196.397V423.239C196.397 423.953 196.769 424.362 197.513 424.362Z" fill="#747672"/>
<path d="M185.277 450.26C186.433 450.26 187.546 449.529 187.546 447.116C187.546 445.433 186.9 444.141 185.286 444.141C184.002 444.141 183.186 444.999 183.186 446.096C183.186 447.243 184.028 448.05 185.133 448.05C185.855 448.05 186.356 447.71 186.645 447.226H186.696C186.696 449.07 186.059 449.504 185.269 449.504C184.538 449.504 184.223 449.155 184.155 448.671H183.322C183.416 449.64 184.096 450.26 185.277 450.26ZM184.036 446.096C184.036 445.373 184.521 444.897 185.286 444.897C186.059 444.897 186.535 445.373 186.535 446.096C186.535 446.81 186.059 447.294 185.286 447.294C184.512 447.294 184.036 446.81 184.036 446.096ZM190.633 450.26C191.941 450.26 192.791 449.359 192.791 448.161C192.791 446.954 191.975 446.096 190.786 446.096C190.284 446.096 189.851 446.274 189.553 446.589H189.502L189.672 445.008H192.409V444.243H188.975L188.686 447.345L189.417 447.464C189.664 447.133 190.08 446.852 190.667 446.852C191.483 446.852 191.941 447.396 191.941 448.169C191.941 448.968 191.457 449.504 190.633 449.504C189.978 449.504 189.502 449.155 189.349 448.611H188.508C188.652 449.657 189.511 450.26 190.633 450.26ZM197.424 450.175H198.223V449.444H197.535C197.212 449.444 197.067 449.308 197.067 449.002V446.436H198.138V445.739H197.067V444.532H196.269V445.739H195.444V446.436H196.269V449.079C196.269 449.759 196.668 450.175 197.424 450.175Z" fill="#282B24"/>
<path d="M289.731 424.347H290.668V419.855H292.46V418.993H287.946V419.855H289.731V424.347ZM293.761 424.436C294.869 424.436 295.709 423.663 295.709 422.413C295.709 421.172 294.869 420.391 293.761 420.391C292.645 420.391 291.812 421.172 291.812 422.413C291.812 423.663 292.645 424.436 293.761 424.436ZM292.749 422.413C292.749 421.677 293.114 421.224 293.761 421.224C294.4 421.224 294.772 421.677 294.772 422.413C294.772 423.15 294.4 423.603 293.761 423.603C293.114 423.603 292.749 423.15 292.749 422.413ZM297.869 424.362H298.62V423.529H298.003C297.757 423.529 297.646 423.417 297.646 423.179V421.224H298.545V420.48H297.646V419.424H296.753V420.48H296.069V421.224H296.753V423.239C296.753 423.953 297.125 424.362 297.869 424.362ZM300.368 424.436C300.859 424.436 301.246 424.243 301.521 423.826H301.58L301.603 424.347H302.443L302.421 423.499V421.811C302.421 420.978 301.841 420.391 300.837 420.391C299.825 420.391 299.215 420.948 299.178 421.7H300.063C300.1 421.432 300.309 421.186 300.814 421.186C301.32 421.186 301.528 421.462 301.528 421.841V421.982L300.405 422.086C299.558 422.161 299.089 422.599 299.089 423.284C299.089 423.983 299.58 424.436 300.368 424.436ZM299.981 423.224C299.981 422.941 300.167 422.763 300.554 422.718L301.513 422.614C301.439 423.373 301.067 423.7 300.562 423.7C300.19 423.7 299.981 423.499 299.981 423.224ZM303.357 424.347H304.249V418.993H303.357V424.347Z" fill="#747672"/>
<path d="M268.043 451.348H268.638V450.26C269.956 450.209 270.729 449.546 270.729 448.543C270.729 447.566 270.075 446.988 269.038 446.827L267.941 446.657C267.355 446.563 266.956 446.308 266.956 445.807C266.956 445.246 267.448 444.897 268.247 444.897C269.012 444.897 269.531 445.263 269.735 445.943L270.559 445.739C270.321 444.795 269.59 444.251 268.579 444.158V443.036H267.984V444.149C266.854 444.234 266.123 444.88 266.123 445.824C266.123 446.708 266.709 447.303 267.788 447.464L268.91 447.634C269.505 447.727 269.896 447.991 269.896 448.543C269.896 449.121 269.386 449.504 268.477 449.504C267.584 449.504 267.032 449.138 266.82 448.322L265.995 448.501C266.267 449.512 266.905 450.116 268.043 450.235V451.348ZM271.674 450.158H275.736V449.393H274.172V444.243H273.586C273.424 444.897 273.067 445.229 272.277 445.229H271.861V445.909H273.356V449.393H271.674V450.158ZM278.984 450.26C280.267 450.26 281.083 449.402 281.083 448.305C281.083 447.158 280.242 446.351 279.137 446.351C278.414 446.351 277.913 446.691 277.624 447.175H277.573C277.573 445.331 278.244 444.897 279.001 444.897C279.681 444.897 280.012 445.246 280.08 445.73H280.913C280.82 444.761 280.123 444.141 278.992 444.141C277.87 444.141 276.723 444.872 276.723 447.286C276.723 448.968 277.369 450.26 278.984 450.26ZM277.735 448.305C277.735 447.592 278.21 447.107 278.984 447.107C279.757 447.107 280.233 447.592 280.233 448.305C280.233 449.028 279.749 449.504 278.984 449.504C278.21 449.504 277.735 449.028 277.735 448.305ZM282.215 450.158H286.277V449.393H284.713V444.243H284.127C283.965 444.897 283.608 445.229 282.818 445.229H282.402V445.909H283.897V449.393H282.215V450.158ZM289.431 450.26C290.74 450.26 291.59 449.359 291.59 448.161C291.59 446.954 290.774 446.096 289.584 446.096C289.083 446.096 288.649 446.274 288.352 446.589H288.301L288.471 445.008H291.208V444.243H287.774L287.485 447.345L288.216 447.464C288.462 447.133 288.879 446.852 289.465 446.852C290.281 446.852 290.74 447.396 290.74 448.169C290.74 448.968 290.256 449.504 289.431 449.504C288.777 449.504 288.301 449.155 288.148 448.611H287.307C287.451 449.657 288.31 450.26 289.431 450.26ZM292.594 449.725C292.594 450.031 292.815 450.26 293.138 450.26C293.461 450.26 293.682 450.031 293.682 449.725C293.682 449.427 293.461 449.198 293.138 449.198C292.815 449.198 292.594 449.427 292.594 449.725ZM296.835 450.26C298.093 450.26 299.053 449.283 299.053 447.201C299.053 445.11 298.093 444.141 296.835 444.141C295.577 444.141 294.617 445.11 294.617 447.201C294.617 449.283 295.577 450.26 296.835 450.26ZM295.467 447.201C295.467 445.628 295.985 444.897 296.835 444.897C297.685 444.897 298.204 445.628 298.204 447.201C298.204 448.764 297.685 449.504 296.835 449.504C295.985 449.504 295.467 448.764 295.467 447.201ZM302.106 450.26C303.364 450.26 304.324 449.283 304.324 447.201C304.324 445.11 303.364 444.141 302.106 444.141C300.848 444.141 299.887 445.11 299.887 447.201C299.887 449.283 300.848 450.26 302.106 450.26ZM300.737 447.201C300.737 445.628 301.256 444.897 302.106 444.897C302.956 444.897 303.474 445.628 303.474 447.201C303.474 448.764 302.956 449.504 302.106 449.504C301.256 449.504 300.737 448.764 300.737 447.201Z" fill="#282B24"/>
</g>
</g>
<rect x="21.2656" y="411.301" width="296.941" height="109.958" rx="3.984" stroke="#DBDBDB" stroke-width="0.5312"/>
</g>
<rect x="0.6" y="0.6" width="338.4" height="463.2" rx="11.4" stroke="#DBDBDB" stroke-width="1.2"/>
<defs>
<clipPath id="clip0_440_15182">
<rect width="339.6" height="464.4" rx="12" fill="white"/>
</clipPath>
<clipPath id="clip1_440_15182">
<rect width="10.624" height="10.624" fill="white" transform="translate(182.484 160.742)"/>
</clipPath>
<clipPath id="clip2_440_15182">
<rect x="21" y="223.802" width="297.472" height="110.49" rx="4.2496" fill="white"/>
</clipPath>
<clipPath id="clip3_440_15182">
<rect width="297.472" height="110.49" fill="white" transform="translate(21 223.802)"/>
</clipPath>
<clipPath id="clip4_440_15182">
<path d="M240.224 260.55C240.224 259.67 240.937 258.956 241.817 258.956V258.956V262.143V262.143C240.937 262.143 240.224 261.43 240.224 260.55V260.55Z" fill="white"/>
</clipPath>
<clipPath id="clip5_440_15182">
<path d="M240.224 290.798C240.224 289.918 240.937 289.204 241.817 289.204V289.204V292.391V292.391C240.937 292.391 240.224 291.678 240.224 290.798V290.798Z" fill="white"/>
</clipPath>
<clipPath id="clip6_440_15182">
<rect x="240.224" y="319.452" width="3.1872" height="3.1872" rx="1.5936" fill="white"/>
</clipPath>
<clipPath id="clip7_440_15182">
<rect x="21" y="411.035" width="297.472" height="110.49" rx="4.2496" fill="white"/>
</clipPath>
<clipPath id="clip8_440_15182">
<rect width="297.472" height="110.49" fill="white" transform="translate(21 411.035)"/>
</clipPath>
</defs>
</svg>
