<svg width="180" height="69" viewBox="0 0 180 69" fill="none" xmlns="http://www.w3.org/2000/svg">
<path fill-rule="evenodd" clip-rule="evenodd" d="M16.8115 42.8685C17.3019 41.6939 17.3044 40.3983 16.8212 39.2198L16.7063 38.9418L6.02201 43.3399C3.59434 44.3393 2.4309 47.1302 3.42962 49.5609L3.54395 49.839L14.2281 45.4413C15.4039 44.957 16.3211 44.0431 16.8115 42.8685ZM51.9176 29.6027L52.0321 29.8807L62.7168 25.4832C63.8933 24.9994 64.8105 24.0855 65.3001 22.9109C65.7899 21.7357 65.7938 20.4395 65.3099 19.2629L65.1956 18.9842L54.5107 23.3817C52.0831 24.3811 50.9196 27.1719 51.9176 29.6027ZM25.3568 50.2361L25.079 50.1196L20.6312 60.7945C20.141 61.9691 20.1371 63.2645 20.6203 64.4417C21.1041 65.6202 22.017 66.5393 23.19 67.0289L23.4672 67.1446L27.9169 56.4699C28.4072 55.2953 28.4105 53.9991 27.9273 52.8227C27.4433 51.6442 26.5306 50.7251 25.3568 50.2361ZM43.3821 18.587L43.6592 18.7034L48.1075 8.02934C48.5979 6.85412 48.6018 5.55858 48.1179 4.38141C47.6347 3.20359 46.7219 2.28449 45.5487 1.79487L45.2717 1.67844L40.822 12.3525C39.8117 14.778 40.9596 17.5754 43.3821 18.587ZM14.1719 28.3213C14.7844 28.3213 15.398 28.201 15.9813 27.9604C17.1578 27.4766 18.0751 26.5627 18.5641 25.3881L18.6804 25.1099L8.01943 20.6554C6.84501 20.1645 5.55237 20.1626 4.37536 20.6458C3.19963 21.1296 2.28167 22.0435 1.79264 23.2187L1.67702 23.4961L12.3373 27.9508C12.9284 28.1971 13.5505 28.3213 14.1719 28.3213ZM50.1748 43.4344L50.0585 43.7118L60.7195 48.167C61.317 48.4174 61.9371 48.5357 62.5463 48.5357C64.4113 48.5357 66.1845 47.4322 66.9462 45.6044L67.0619 45.3276L56.4015 40.8724C53.9785 39.8589 51.1851 41.0102 50.1748 43.4344ZM22.8819 3.44226C21.7087 2.95134 20.4156 2.94811 19.2391 3.43256L18.9614 3.54703L23.3535 14.2457C23.8367 15.4223 24.7495 16.3413 25.9233 16.8323C26.5131 17.0786 27.1345 17.2016 27.7561 17.2016C28.3697 17.2016 28.9821 17.0819 29.5661 16.8413L29.8439 16.7269L25.4518 6.02881C24.9686 4.85163 24.0558 3.93318 22.8819 3.44226ZM42.8156 51.9909C41.6431 51.5005 40.3485 51.4967 39.1728 51.9812L38.895 52.0956L43.2871 62.7944C43.7696 63.9708 44.6831 64.8899 45.8563 65.3801C46.4473 65.6273 47.0682 65.7502 47.6896 65.7502C48.3027 65.7502 48.9158 65.6299 49.4996 65.3893L49.7775 65.2755L45.3847 54.5781C44.9021 53.3997 43.9893 52.4811 42.8156 51.9909ZM16.3128 32.1794V31.878H4.76037C2.13567 31.878 0 34.0157 0 36.6444V36.9458H11.5524C14.1771 36.9458 16.3128 34.8068 16.3128 32.1794ZM52.4261 36.6444V36.9458H63.9784C66.6032 36.9458 68.7389 34.8068 68.7389 32.1794V31.878H57.1864C54.5618 31.878 52.4261 34.0157 52.4261 36.6444ZM20.0253 45.616L19.8122 45.4032L11.6435 53.5813C9.78689 55.4403 9.78689 58.4641 11.6435 60.3229L11.856 60.5351L20.0253 52.3575C21.8812 50.498 21.8812 47.4749 20.0253 45.616ZM48.7135 23.2071L48.9267 23.4193L57.0954 15.2412C58.952 13.3816 58.952 10.3585 57.0954 8.49892L56.8829 8.28677L48.7135 16.4655C46.8575 18.3245 46.8575 21.3476 48.7135 23.2071ZM19.8128 21.4433C21.0318 21.4433 22.2509 20.9782 23.1791 20.0501L23.3916 19.8366L15.2224 11.6579C14.3225 10.7575 13.1273 10.2615 11.856 10.2615C10.5841 10.2615 9.38831 10.7575 8.48908 11.6572L8.27719 11.8707L16.4459 20.0501C17.3741 20.9782 18.5932 21.4433 19.8128 21.4433ZM48.9267 47.3779C47.6555 47.3779 46.4602 47.874 45.5603 48.775L45.3486 48.9872L53.5165 57.1659C54.4448 58.0947 55.6638 58.5597 56.8834 58.5597C58.1025 58.5597 59.3215 58.0947 60.2498 57.1659L60.4617 56.9524L52.2936 48.7737C51.3944 47.874 50.1986 47.3779 48.9267 47.3779ZM32.1397 0H31.8387V11.566C31.8387 14.1946 33.9744 16.3329 36.5991 16.3329H36.9002V4.76625C36.9002 2.13767 34.7645 0 32.1397 0ZM32.1397 52.4909H31.8387V64.0576C31.8387 66.6855 33.9744 68.8238 36.5991 68.8238H36.9002V57.2571C36.9002 54.6292 34.7645 52.4909 32.1397 52.4909ZM173.936 49.4257V36.9865H170.722V52.4644H180V49.4257H173.936ZM162.989 46.832L160.735 40.1448L158.462 46.832H162.989ZM162.725 37.0408L168.294 52.4644H164.789L163.885 49.8254H157.586L156.685 52.4644H153.157L158.768 36.9865H162.705L162.725 37.0408ZM148.01 41.9829C148.01 40.7903 147.158 39.9572 145.939 39.9572H142.814V44.0094H145.939C147.158 44.0094 148.01 43.1763 148.01 41.9829ZM148.191 46.605L151.434 52.4644H147.742L144.924 46.9795H142.814V52.4644H139.6V36.9865H146.391C149.319 36.9865 151.288 39.0032 151.288 42.0063C151.288 44.7597 149.708 46.1787 148.191 46.605ZM125.341 40.0258H129.535V52.4644H132.769V40.0258H136.942V36.9865H125.341V40.0258ZM119.426 46.16C119.426 48.3953 118.255 49.6773 116.215 49.6773C114.146 49.6773 112.96 48.3953 112.96 46.16V36.9865H109.704V46.2751C109.704 50.3836 112.077 52.7398 116.215 52.7398C120.324 52.7398 122.682 50.3746 122.682 46.2512V36.9865H119.426V46.16ZM96.305 52.4644H106.615V49.471H99.5175V46.085H106.465V43.1142H99.5175V39.9572H106.615V36.9865H96.305V52.4644ZM89.5511 46.7215L83.0491 37.022L83.0259 36.9865H79.7655V52.4644H82.978V42.3646L89.697 52.4644H92.7643V36.9865H89.5511V46.7215ZM175.764 28.8588H168.129V25.4618H175.602V22.482H168.129V19.316H175.764V16.3362H164.674V31.8605H175.764V28.8588ZM154.323 31.8605H157.803V19.3845H162.291V16.3362H149.812V19.3845H154.323V31.8605ZM145.331 26.2115L142.907 19.5042L140.462 26.2115H145.331ZM146.295 29.214H139.52L138.549 31.8605H134.755L140.79 16.3362H145.026L145.048 16.3911L151.038 31.8605H147.267L146.295 29.214ZM129.156 31.8605H132.635V16.3362H127.865L124.175 25.7632L120.506 16.3905L120.485 16.3362H115.737V31.8605H119.193V21.1768L123.378 31.8063L123.399 31.8605H124.95L129.156 21.1768V31.8605ZM108.472 31.8605H111.929V16.3362H108.472V31.8605ZM106.367 28.8129H99.8431V16.3362H96.387V31.8605H106.367V28.8129ZM90.7261 26.8053L93.7075 28.2391L93.6609 28.3194C92.1886 30.8523 89.9528 32.1368 87.0168 32.1368C82.2751 32.1368 78.8339 28.7612 78.8339 24.11C78.8339 19.4595 82.2751 16.0833 87.0168 16.0833C90.7229 16.0833 92.6757 18.1473 93.6609 19.8787L93.7062 19.9576L90.7274 21.4155L90.6887 21.3417C89.9968 20.0132 88.5548 19.1549 87.0168 19.1549C84.3747 19.1549 82.3824 21.2855 82.3824 24.11C82.3824 26.9352 84.3747 29.0651 87.0168 29.0651C88.5917 29.0651 89.9981 28.2275 90.6887 26.879L90.7261 26.8053Z" fill="white"/>
</svg>
