<svg width="143" height="43" viewBox="0 0 143 43" fill="none" xmlns="http://www.w3.org/2000/svg">
<path d="M88.7516 41.3378L72.5648 25.1133L77.2152 20.4521L93.4019 36.6766L88.7516 41.3378ZM119.055 15.9239H125.632V40.6439H119.055V15.9239ZM2.06641 2.2329H8.64306V40.6439H2.06641V2.2329ZM15.7256 34.0519H39.1233V40.6439H15.7256V34.0519ZM15.7256 18.079H39.1233V24.671H15.7256V18.079ZM15.7256 2.2329H39.1233V8.82488H15.7256V2.2329ZM103.752 2.2329H140.935V8.82488H103.752V2.2329ZM60.2445 21.5018C60.2445 14.0224 66.3152 7.81073 73.9037 7.81073C81.4921 7.81073 87.4364 14.0224 87.4364 21.5018C87.4364 21.5018 87.4364 21.5018 87.4364 21.6285H94.0131C94.0131 21.6285 94.0131 21.6285 94.0131 21.5018C94.0131 10.3461 84.9069 1.21875 73.7772 1.21875C62.6475 1.21875 53.5413 10.3461 53.5413 21.5018C53.5413 32.6574 62.521 41.7848 73.6507 41.7848V35.1928C66.1888 35.066 60.2445 28.9811 60.2445 21.5018Z" fill="white"/>
</svg>
