<svg width="160" height="160" viewBox="0 0 160 160" fill="none" xmlns="http://www.w3.org/2000/svg">
<circle cx="80" cy="80" r="79.5" fill="#F9FAF5" stroke="#2F4000"/>
<rect x="30.5" y="63.5" width="100" height="32" rx="16" fill="white"/>
<path fill-rule="evenodd" clip-rule="evenodd" d="M46 72.5C46 71.9477 46.4477 71.5 47 71.5H61C61.5523 71.5 62 71.9477 62 72.5V86.5C62 87.0523 61.5523 87.5 61 87.5H47C46.4477 87.5 46 87.0523 46 86.5V72.5Z" stroke="#2F4000" stroke-linecap="round" stroke-linejoin="round"/>
<path d="M48.7826 83.7355V81.8531" stroke="#2F4000" stroke-linecap="round" stroke-linejoin="round"/>
<path d="M50.8696 83.7353V79.0294" stroke="#2F4000" stroke-linecap="round" stroke-linejoin="round"/>
<path d="M52.9568 83.7353V80.9117" stroke="#2F4000" stroke-linecap="round" stroke-linejoin="round"/>
<path d="M59.2175 83.7353V77.1471" stroke="#2F4000" stroke-linecap="round" stroke-linejoin="round"/>
<path d="M57.1305 83.7353V79.5" stroke="#2F4000" stroke-linecap="round" stroke-linejoin="round"/>
<path d="M55.0438 83.7354V75.2648" stroke="#2F4000" stroke-linecap="round" stroke-linejoin="round"/>
<path d="M71.036 85H72.408V80.8H74.508L77.154 85H78.876L76.09 80.744C77.686 80.506 78.68 79.414 78.68 77.86C78.68 76.054 77.392 74.92 75.446 74.92H71.036V85ZM72.408 79.54V76.18H75.39C76.524 76.18 77.224 76.712 77.224 77.86C77.224 78.966 76.51 79.54 75.334 79.54H72.408ZM83.0991 85.168C84.7511 85.168 85.8011 84.412 86.2631 83.096L85.0451 82.676C84.6671 83.53 84.0931 83.964 83.0991 83.964C81.8391 83.964 81.0551 83.11 80.9291 81.738H86.4451V81.346C86.4451 78.91 85.0731 77.552 83.1131 77.552C81.0971 77.552 79.5851 79.092 79.5851 81.36C79.5851 83.67 81.0411 85.168 83.0991 85.168ZM80.9711 80.66C81.2091 79.372 82.0771 78.756 83.1131 78.756C84.2471 78.756 84.9751 79.582 85.0591 80.66H80.9711ZM88.0835 87.8H89.3995V84.048H89.4835C90.0015 84.72 90.7435 85.168 91.8215 85.168C93.6975 85.168 95.0835 83.656 95.0835 81.36C95.0835 79.064 93.6975 77.552 91.7795 77.552C90.7435 77.552 89.9735 78 89.4835 78.672H89.3995V77.72H88.0835V87.8ZM89.3575 81.36C89.3575 79.722 90.1835 78.756 91.5415 78.756C92.8575 78.756 93.7115 79.736 93.7115 81.36C93.7115 82.984 92.8575 83.964 91.5415 83.964C90.1835 83.964 89.3575 83.026 89.3575 81.36ZM99.9168 85.168C101.989 85.168 103.487 83.67 103.487 81.36C103.487 79.05 101.989 77.552 99.9168 77.552C97.8308 77.552 96.3468 79.05 96.3468 81.36C96.3468 83.67 97.8308 85.168 99.9168 85.168ZM97.7188 81.36C97.7188 79.75 98.4748 78.756 99.9168 78.756C101.331 78.756 102.115 79.75 102.115 81.36C102.115 82.97 101.331 83.964 99.9168 83.964C98.4748 83.964 97.7188 82.97 97.7188 81.36ZM105.091 85H106.407V81.626C106.407 79.806 107.247 78.896 108.605 78.896H109.207V77.552H108.801C107.611 77.552 106.883 78.14 106.491 78.896H106.407V77.72H105.091V85ZM113.24 85.028H114.556V83.824H113.422C112.89 83.824 112.652 83.6 112.652 83.096V78.868H114.416V77.72H112.652V75.732H111.336V77.72H109.978V78.868H111.336V83.222C111.336 84.342 111.994 85.028 113.24 85.028Z" fill="#2F4000"/>
<rect x="30.5" y="63.5" width="100" height="32" rx="16" stroke="#2F4000"/>
</svg>
