<svg width="259" height="155" viewBox="0 0 259 155" fill="none" xmlns="http://www.w3.org/2000/svg">
<path d="M258.242 4C258.242 2.20927 256.791 0.757595 255 0.757595C253.209 0.757595 251.758 2.20927 251.758 4C251.758 5.79073 253.209 7.2424 255 7.2424C256.791 7.2424 258.242 5.79073 258.242 4ZM254.392 4V5.36506H255.608V4H254.392ZM254.392 8.09518V10.8253H255.608V8.09518H254.392ZM254.392 13.5554V16.2856H255.608V13.5554H254.392ZM254.392 19.0157V21.7458H255.608V19.0157H254.392ZM254.392 24.4759V25.841H255.608V24.4759H254.392ZM254.392 25.841C254.392 26.2236 254.373 26.6016 254.337 26.9744L255.547 27.0921C255.587 26.6803 255.608 26.263 255.608 25.841H254.392ZM253.898 29.1955C253.676 29.9257 253.385 30.6254 253.031 31.2867L254.102 31.8608C254.494 31.1296 254.817 30.3558 255.061 29.548L253.898 29.1955ZM251.771 33.1688C251.29 33.7535 250.753 34.2902 250.169 34.7707L250.941 35.7101C251.587 35.1794 252.179 34.5866 252.71 33.9406L251.771 33.1688ZM248.287 36.0305C247.625 36.3847 246.926 36.6764 246.195 36.8976L246.548 38.0613C247.356 37.8165 248.13 37.494 248.861 37.1024L248.287 36.0305ZM243.974 37.3372C243.602 37.3735 243.224 37.392 242.841 37.392V38.608C243.263 38.608 243.68 38.5875 244.092 38.5474L243.974 37.3372ZM242.841 37.392H241.632V38.608H242.841V37.392ZM239.215 37.392H236.798V38.608H239.215V37.392ZM234.381 37.392H231.964V38.608H234.381V37.392ZM229.546 37.392H227.129V38.608H229.546V37.392ZM224.712 37.392H222.295V38.608H224.712V37.392ZM219.877 37.392H217.46V38.608H219.877V37.392ZM215.043 37.392H212.626V38.608H215.043V37.392ZM210.209 37.392H209V38.608H210.209V37.392Z" fill="#B2BA9B"/>
<path d="M1.036 42H4.438C7.826 42 9.576 40.026 9.576 36.96C9.576 33.908 7.826 31.92 4.55 31.92H1.036V42ZM2.408 40.712V33.208H4.55C7.056 33.208 8.134 34.678 8.134 36.96C8.134 39.214 7.042 40.712 4.438 40.712H2.408ZM11.2202 42H12.5362V34.72H11.2202V42ZM11.0662 32.55C11.0662 32.998 11.3882 33.348 11.8782 33.348C12.3682 33.348 12.6902 32.998 12.6902 32.55C12.6902 32.088 12.3682 31.752 11.8782 31.752C11.3882 31.752 11.0662 32.088 11.0662 32.55ZM14.5015 42H15.8175V38.626C15.8175 36.806 16.6575 35.896 18.0155 35.896H18.6175V34.552H18.2115C17.0215 34.552 16.2935 35.14 15.9015 35.896H15.8175V34.72H14.5015V42ZM22.7651 42.168C24.4171 42.168 25.4671 41.412 25.9291 40.096L24.7111 39.676C24.3331 40.53 23.7591 40.964 22.7651 40.964C21.5051 40.964 20.7211 40.11 20.5951 38.738H26.1111V38.346C26.1111 35.91 24.7391 34.552 22.7791 34.552C20.7631 34.552 19.2511 36.092 19.2511 38.36C19.2511 40.67 20.7071 42.168 22.7651 42.168ZM20.6371 37.66C20.8751 36.372 21.7431 35.756 22.7791 35.756C23.9131 35.756 24.6411 36.582 24.7251 37.66H20.6371ZM31.0115 42.168C32.7755 42.168 34.0635 41.104 34.2875 39.55L32.9995 39.242C32.7895 40.25 32.1875 40.964 31.0115 40.964C29.5835 40.964 28.7715 39.97 28.7715 38.36C28.7715 36.75 29.5975 35.756 31.0115 35.756C32.1875 35.756 32.8175 36.47 33.0135 37.464L34.3015 37.254C34.0635 35.616 32.7755 34.552 31.0115 34.552C28.9535 34.552 27.3995 36.05 27.3995 38.36C27.3995 40.67 28.9395 42.168 31.0115 42.168ZM38.0996 42.028H39.4156V40.824H38.2816C37.7496 40.824 37.5116 40.6 37.5116 40.096V35.868H39.2756V34.72H37.5116V32.732H36.1956V34.72H34.8376V35.868H36.1956V40.222C36.1956 41.342 36.8536 42.028 38.0996 42.028ZM46.1995 42.168C47.1655 42.168 48.1035 41.776 48.5935 40.978H48.6775L48.6915 42H49.9655L49.9375 40.446V37.212C49.9375 35.602 48.8595 34.552 47.0115 34.552C45.1915 34.552 44.0995 35.574 44.0435 36.988H45.3035C45.3735 36.232 45.8775 35.728 47.0115 35.728C48.0755 35.728 48.6215 36.302 48.6215 37.24V37.548L46.2695 37.744C44.6175 37.884 43.8335 38.724 43.8335 40.012C43.8335 41.286 44.7575 42.168 46.1995 42.168ZM45.1215 39.956C45.1215 39.34 45.5275 38.878 46.5215 38.78L48.6075 38.584C48.4955 40.278 47.5015 41.048 46.4235 41.048C45.5695 41.048 45.1215 40.614 45.1215 39.956ZM51.7847 42H53.1007V34.72H51.7847V42ZM51.6307 32.55C51.6307 32.998 51.9527 33.348 52.4427 33.348C52.9327 33.348 53.2547 32.998 53.2547 32.55C53.2547 32.088 52.9327 31.752 52.4427 31.752C51.9527 31.752 51.6307 32.088 51.6307 32.55ZM55.0659 42H56.3819V38.626C56.3819 36.806 57.2219 35.896 58.5799 35.896H59.1819V34.552H58.7759C57.5859 34.552 56.8579 35.14 56.4659 35.896H56.3819V34.72H55.0659V42ZM67.201 42.168C68.965 42.168 70.253 41.104 70.477 39.55L69.189 39.242C68.979 40.25 68.377 40.964 67.201 40.964C65.773 40.964 64.961 39.97 64.961 38.36C64.961 36.75 65.787 35.756 67.201 35.756C68.377 35.756 69.007 36.47 69.203 37.464L70.491 37.254C70.253 35.616 68.965 34.552 67.201 34.552C65.143 34.552 63.589 36.05 63.589 38.36C63.589 40.67 65.129 42.168 67.201 42.168ZM73.967 42.168C74.933 42.168 75.871 41.776 76.361 40.978H76.445L76.459 42H77.733L77.705 40.446V37.212C77.705 35.602 76.627 34.552 74.779 34.552C72.959 34.552 71.867 35.574 71.811 36.988H73.071C73.141 36.232 73.645 35.728 74.779 35.728C75.843 35.728 76.389 36.302 76.389 37.24V37.548L74.037 37.744C72.385 37.884 71.601 38.724 71.601 40.012C71.601 41.286 72.525 42.168 73.967 42.168ZM72.889 39.956C72.889 39.34 73.295 38.878 74.289 38.78L76.375 38.584C76.263 40.278 75.269 41.048 74.191 41.048C73.337 41.048 72.889 40.614 72.889 39.956ZM79.5523 44.8H80.8683V41.048H80.9523C81.4703 41.72 82.2123 42.168 83.2903 42.168C85.1663 42.168 86.5523 40.656 86.5523 38.36C86.5523 36.064 85.1663 34.552 83.2483 34.552C82.2123 34.552 81.4423 35 80.9523 35.672H80.8683V34.72H79.5523V44.8ZM80.8263 38.36C80.8263 36.722 81.6523 35.756 83.0103 35.756C84.3263 35.756 85.1803 36.736 85.1803 38.36C85.1803 39.984 84.3263 40.964 83.0103 40.964C81.6523 40.964 80.8263 40.026 80.8263 38.36ZM90.5175 42.028H91.8335V40.824H90.6995C90.1675 40.824 89.9295 40.6 89.9295 40.096V35.868H91.6935V34.72H89.9295V32.732H88.6135V34.72H87.2555V35.868H88.6135V40.222C88.6135 41.342 89.2715 42.028 90.5175 42.028ZM99.0794 34.72H97.7634V38.36C97.7634 40.208 96.9654 40.964 95.7894 40.964C94.8654 40.964 94.2914 40.376 94.2914 39.158V34.72H92.9754V39.41C92.9754 41.16 93.9974 42.168 95.5514 42.168C96.4754 42.168 97.1614 41.804 97.6794 41.132H97.7634V42H99.0794V34.72ZM101.044 42H102.36V38.626C102.36 36.806 103.2 35.896 104.558 35.896H105.16V34.552H104.754C103.564 34.552 102.836 35.14 102.444 35.896H102.36V34.72H101.044V42ZM109.308 42.168C110.96 42.168 112.01 41.412 112.472 40.096L111.254 39.676C110.876 40.53 110.302 40.964 109.308 40.964C108.048 40.964 107.264 40.11 107.138 38.738H112.654V38.346C112.654 35.91 111.282 34.552 109.322 34.552C107.306 34.552 105.794 36.092 105.794 38.36C105.794 40.67 107.25 42.168 109.308 42.168ZM107.18 37.66C107.418 36.372 108.286 35.756 109.322 35.756C110.456 35.756 111.184 36.582 111.268 37.66H107.18ZM120.621 42H121.979L125.185 31.92H123.841L120.621 42ZM128.826 42.028H130.142V40.824H129.008C128.476 40.824 128.238 40.6 128.238 40.096V35.868H130.002V34.72H128.238V32.732H126.922V34.72H125.564V35.868H126.922V40.222C126.922 41.342 127.58 42.028 128.826 42.028ZM134.423 42.168C136.075 42.168 137.125 41.412 137.587 40.096L136.369 39.676C135.991 40.53 135.417 40.964 134.423 40.964C133.163 40.964 132.379 40.11 132.253 38.738H137.769V38.346C137.769 35.91 136.397 34.552 134.437 34.552C132.421 34.552 130.909 36.092 130.909 38.36C130.909 40.67 132.365 42.168 134.423 42.168ZM132.295 37.66C132.533 36.372 133.401 35.756 134.437 35.756C135.571 35.756 136.299 36.582 136.383 37.66H132.295ZM142.67 42.168C144.434 42.168 145.722 41.104 145.946 39.55L144.658 39.242C144.448 40.25 143.846 40.964 142.67 40.964C141.242 40.964 140.43 39.97 140.43 38.36C140.43 36.75 141.256 35.756 142.67 35.756C143.846 35.756 144.476 36.47 144.672 37.464L145.96 37.254C145.722 35.616 144.434 34.552 142.67 34.552C140.612 34.552 139.058 36.05 139.058 38.36C139.058 40.67 140.598 42.168 142.67 42.168ZM147.406 42H148.722V38.36C148.722 36.512 149.52 35.756 150.696 35.756C151.62 35.756 152.194 36.344 152.194 37.576V42H153.51V37.324C153.51 35.56 152.488 34.552 150.934 34.552C150.01 34.552 149.324 34.916 148.806 35.588H148.722V31.92H147.406V42ZM155.363 42H156.679V38.36C156.679 36.512 157.477 35.756 158.653 35.756C159.577 35.756 160.151 36.344 160.151 37.562V42H161.467V37.31C161.467 35.56 160.445 34.552 158.891 34.552C157.967 34.552 157.281 34.916 156.763 35.588H156.679V34.72H155.363V42ZM166.54 42.168C168.612 42.168 170.11 40.67 170.11 38.36C170.11 36.05 168.612 34.552 166.54 34.552C164.454 34.552 162.97 36.05 162.97 38.36C162.97 40.67 164.454 42.168 166.54 42.168ZM164.342 38.36C164.342 36.75 165.098 35.756 166.54 35.756C167.954 35.756 168.738 36.75 168.738 38.36C168.738 39.97 167.954 40.964 166.54 40.964C165.098 40.964 164.342 39.97 164.342 38.36ZM171.714 42H173.03V31.92H171.714V42ZM178.216 42.168C180.288 42.168 181.786 40.67 181.786 38.36C181.786 36.05 180.288 34.552 178.216 34.552C176.13 34.552 174.646 36.05 174.646 38.36C174.646 40.67 176.13 42.168 178.216 42.168ZM176.018 38.36C176.018 36.75 176.774 35.756 178.216 35.756C179.63 35.756 180.414 36.75 180.414 38.36C180.414 39.97 179.63 40.964 178.216 40.964C176.774 40.964 176.018 39.97 176.018 38.36ZM186.61 44.968C188.71 44.968 190.04 43.778 190.04 41.958V34.72H188.724V35.672H188.64C188.094 34.958 187.31 34.552 186.344 34.552C184.426 34.552 183.04 36.05 183.04 38.22C183.04 40.404 184.384 41.888 186.302 41.888C187.31 41.888 188.15 41.454 188.64 40.768H188.724V41.888C188.724 43.008 187.968 43.792 186.61 43.792C185.364 43.792 184.72 43.302 184.482 42.476L183.166 42.868C183.53 44.086 184.636 44.968 186.61 44.968ZM184.412 38.22C184.412 36.68 185.266 35.756 186.582 35.756C187.87 35.756 188.766 36.666 188.766 38.22C188.766 39.802 187.87 40.684 186.582 40.684C185.266 40.684 184.412 39.76 184.412 38.22ZM192.941 44.8H194.285L198.387 34.72H196.973L194.845 40.194H194.705L192.549 34.72H191.107L194.089 42.084L192.941 44.8ZM197.949 42H199.307L202.513 31.92H201.169L197.949 42Z" fill="#B2BA9B"/>
<path d="M0.112 67H1.148L2.212 64.172H6.916L7.98 67H9.058L5.208 56.92H3.962L0.112 67ZM2.548 63.248L4.494 58.068H4.634L6.58 63.248H2.548ZM11.942 67.028H13.16V66.146H12.068C11.466 66.146 11.186 65.894 11.186 65.306V60.574H13.02V59.72H11.186V57.732H10.248V59.72H8.82V60.574H10.248V65.432C10.248 66.426 10.85 67.028 11.942 67.028ZM14.4478 67H15.3858V63.108C15.3858 61.064 16.1838 60.406 17.3878 60.406C18.4378 60.406 19.0118 61.12 19.0118 62.38V67H19.9498V63.108C19.9498 61.064 20.7478 60.406 21.9518 60.406C23.0158 60.406 23.5758 61.12 23.5758 62.38V67H24.5138V62.114C24.5138 60.546 23.5198 59.552 22.0498 59.552C20.9858 59.552 20.2158 60.028 19.7398 60.854H19.6838C19.3618 60.098 18.6198 59.552 17.4998 59.552C16.5758 59.552 15.8898 59.944 15.4558 60.588H15.3858V59.72H14.4478V67ZM29.5737 67.168C31.6597 67.168 33.0597 65.642 33.0597 63.36C33.0597 61.078 31.6597 59.552 29.5737 59.552C27.4877 59.552 26.0877 61.078 26.0877 63.36C26.0877 65.642 27.4877 67.168 29.5737 67.168ZM27.0817 63.36C27.0817 61.596 27.9497 60.434 29.5737 60.434C31.1837 60.434 32.0797 61.596 32.0797 63.36C32.0797 65.124 31.1837 66.286 29.5737 66.286C27.9497 66.286 27.0817 65.124 27.0817 63.36ZM37.3125 67.168C39.2165 67.168 40.1405 66.23 40.1405 65.026C40.1405 63.836 39.4825 63.094 38.0545 62.912L36.5425 62.702C35.8285 62.618 35.3805 62.24 35.3805 61.61C35.3805 60.966 35.8845 60.434 37.0465 60.434C38.1245 60.434 38.7265 60.91 39.0485 61.834L39.9445 61.568C39.5805 60.322 38.5865 59.552 37.0465 59.552C35.3105 59.552 34.4565 60.532 34.4565 61.61C34.4565 62.744 35.1845 63.416 36.4025 63.584L37.9425 63.78C38.8105 63.878 39.2165 64.368 39.2165 65.026C39.2165 65.754 38.6005 66.286 37.3125 66.286C36.1085 66.286 35.4505 65.74 35.1425 64.704L34.2045 64.956C34.6385 66.398 35.6745 67.168 37.3125 67.168ZM41.6411 69.8H42.5791V65.908H42.6491C43.1531 66.636 43.9651 67.168 45.1411 67.168C47.1291 67.168 48.4871 65.642 48.4871 63.36C48.4871 61.078 47.1291 59.552 45.1271 59.552C43.9651 59.552 43.1391 60.084 42.6491 60.812H42.5791V59.72H41.6411V69.8ZM42.5511 63.36C42.5511 61.582 43.4191 60.42 45.0291 60.42C46.5691 60.42 47.4791 61.554 47.4791 63.36C47.4791 65.166 46.5691 66.3 45.0291 66.3C43.4191 66.3 42.5511 65.152 42.5511 63.36ZM50.1724 67H51.1104V63.5C51.1104 61.162 52.0344 60.406 53.4064 60.406C54.5824 60.406 55.1844 61.204 55.1844 62.66V67H56.1224V62.408C56.1224 60.63 55.1284 59.552 53.4904 59.552C52.4964 59.552 51.6984 59.958 51.1804 60.742H51.1104V56.92H50.1724V67ZM61.1271 67.168C62.7511 67.168 63.8011 66.384 64.2491 64.97L63.3671 64.704C62.9751 65.782 62.3031 66.286 61.1271 66.286C59.5871 66.286 58.7191 65.124 58.6631 63.528H64.3891V63.206C64.3891 60.924 63.0311 59.552 61.1411 59.552C59.2091 59.552 57.6971 61.008 57.6971 63.36C57.6971 65.642 59.0971 67.168 61.1271 67.168ZM58.7051 62.688C58.9431 61.162 59.9791 60.434 61.1411 60.434C62.4431 60.434 63.2831 61.4 63.3671 62.688H58.7051ZM66.1001 67H67.0381V63.43C67.0381 61.498 67.8501 60.504 69.2501 60.504H69.9641V59.552H69.4741C68.2421 59.552 67.5281 60.112 67.1081 60.868H67.0381V59.72H66.1001V67ZM71.2818 67H72.2198V59.72H71.2818V67ZM71.1138 57.382C71.1138 57.718 71.3658 57.998 71.7578 57.998C72.1358 57.998 72.3878 57.718 72.3878 57.382C72.3878 57.032 72.1358 56.752 71.7578 56.752C71.3658 56.752 71.1138 57.032 71.1138 57.382ZM77.3982 67.168C79.1622 67.168 80.4082 66.118 80.6462 64.494L79.7222 64.312C79.4842 65.53 78.7562 66.286 77.3982 66.286C75.8442 66.286 74.8922 65.124 74.8922 63.36C74.8922 61.596 75.8442 60.434 77.3982 60.434C78.7282 60.434 79.4982 61.19 79.7222 62.408L80.6462 62.268C80.4082 60.602 79.1202 59.552 77.3982 59.552C75.3682 59.552 73.8982 61.064 73.8982 63.36C73.8982 65.642 75.3402 67.168 77.3982 67.168ZM87.6119 67.168C88.7459 67.168 89.6419 66.748 90.1879 65.81H90.2439L90.2579 67H91.1819L91.1399 65.488V62.17C91.1399 60.616 90.0759 59.552 88.2839 59.552C86.4919 59.552 85.4979 60.602 85.4419 61.974H86.3519C86.4079 60.966 87.0799 60.42 88.2839 60.42C89.5719 60.42 90.2019 61.162 90.2019 62.156V62.59L87.6119 62.814C86.0579 62.94 85.2319 63.808 85.2319 65.026C85.2319 66.286 86.1419 67.168 87.6119 67.168ZM86.1699 65.012C86.1699 64.242 86.6739 63.682 87.7659 63.584L90.2019 63.374V63.388C90.2019 65.362 89.1519 66.328 87.7239 66.328C86.7299 66.328 86.1699 65.824 86.1699 65.012ZM93.0474 67H93.9854V59.72H93.0474V67ZM92.8794 57.382C92.8794 57.718 93.1314 57.998 93.5234 57.998C93.9014 57.998 94.1534 57.718 94.1534 57.382C94.1534 57.032 93.9014 56.752 93.5234 56.752C93.1314 56.752 92.8794 57.032 92.8794 57.382ZM96.0279 67H96.9659V63.43C96.9659 61.498 97.7779 60.504 99.1779 60.504H99.8919V59.552H99.4019C98.1699 59.552 97.4559 60.112 97.0359 60.868H96.9659V59.72H96.0279V67ZM104.71 69.8H105.648V65.908H105.718C106.222 66.636 107.034 67.168 108.21 67.168C110.198 67.168 111.556 65.642 111.556 63.36C111.556 61.078 110.198 59.552 108.196 59.552C107.034 59.552 106.208 60.084 105.718 60.812H105.648V59.72H104.71V69.8ZM105.62 63.36C105.62 61.582 106.488 60.42 108.098 60.42C109.638 60.42 110.548 61.554 110.548 63.36C110.548 65.166 109.638 66.3 108.098 66.3C106.488 66.3 105.62 65.152 105.62 63.36ZM115.243 67.168C116.377 67.168 117.273 66.748 117.819 65.81H117.875L117.889 67H118.813L118.771 65.488V62.17C118.771 60.616 117.707 59.552 115.915 59.552C114.123 59.552 113.129 60.602 113.073 61.974H113.983C114.039 60.966 114.711 60.42 115.915 60.42C117.203 60.42 117.833 61.162 117.833 62.156V62.59L115.243 62.814C113.689 62.94 112.863 63.808 112.863 65.026C112.863 66.286 113.773 67.168 115.243 67.168ZM113.801 65.012C113.801 64.242 114.305 63.682 115.397 63.584L117.833 63.374V63.388C117.833 65.362 116.783 66.328 115.355 66.328C114.361 66.328 113.801 65.824 113.801 65.012ZM123.24 67.168C125.144 67.168 126.068 66.23 126.068 65.026C126.068 63.836 125.41 63.094 123.982 62.912L122.47 62.702C121.756 62.618 121.308 62.24 121.308 61.61C121.308 60.966 121.812 60.434 122.974 60.434C124.052 60.434 124.654 60.91 124.976 61.834L125.872 61.568C125.508 60.322 124.514 59.552 122.974 59.552C121.238 59.552 120.384 60.532 120.384 61.61C120.384 62.744 121.112 63.416 122.33 63.584L123.87 63.78C124.738 63.878 125.144 64.368 125.144 65.026C125.144 65.754 124.528 66.286 123.24 66.286C122.036 66.286 121.378 65.74 121.07 64.704L120.132 64.956C120.566 66.398 121.602 67.168 123.24 67.168ZM130.131 67.168C132.035 67.168 132.959 66.23 132.959 65.026C132.959 63.836 132.301 63.094 130.873 62.912L129.361 62.702C128.647 62.618 128.199 62.24 128.199 61.61C128.199 60.966 128.703 60.434 129.865 60.434C130.943 60.434 131.545 60.91 131.867 61.834L132.763 61.568C132.399 60.322 131.405 59.552 129.865 59.552C128.129 59.552 127.275 60.532 127.275 61.61C127.275 62.744 128.003 63.416 129.221 63.584L130.761 63.78C131.629 63.878 132.035 64.368 132.035 65.026C132.035 65.754 131.419 66.286 130.131 66.286C128.927 66.286 128.269 65.74 127.961 64.704L127.023 64.956C127.457 66.398 128.493 67.168 130.131 67.168ZM137.526 67.168C139.15 67.168 140.2 66.384 140.648 64.97L139.766 64.704C139.374 65.782 138.702 66.286 137.526 66.286C135.986 66.286 135.118 65.124 135.062 63.528H140.788V63.206C140.788 60.924 139.43 59.552 137.54 59.552C135.608 59.552 134.096 61.008 134.096 63.36C134.096 65.642 135.495 67.168 137.526 67.168ZM135.104 62.688C135.342 61.162 136.378 60.434 137.54 60.434C138.842 60.434 139.682 61.4 139.766 62.688H135.104ZM145.061 67.168C146.965 67.168 147.889 66.23 147.889 65.026C147.889 63.836 147.231 63.094 145.803 62.912L144.291 62.702C143.577 62.618 143.129 62.24 143.129 61.61C143.129 60.966 143.633 60.434 144.795 60.434C145.873 60.434 146.475 60.91 146.797 61.834L147.693 61.568C147.329 60.322 146.335 59.552 144.795 59.552C143.059 59.552 142.205 60.532 142.205 61.61C142.205 62.744 142.933 63.416 144.151 63.584L145.691 63.78C146.559 63.878 146.965 64.368 146.965 65.026C146.965 65.754 146.349 66.286 145.061 66.286C143.857 66.286 143.199 65.74 142.891 64.704L141.953 64.956C142.387 66.398 143.423 67.168 145.061 67.168ZM155.059 67.028H156.277V66.146H155.185C154.583 66.146 154.303 65.894 154.303 65.306V60.574H156.137V59.72H154.303V57.732H153.365V59.72H151.937V60.574H153.365V65.432C153.365 66.426 153.967 67.028 155.059 67.028ZM157.565 67H158.503V63.5C158.503 61.162 159.427 60.406 160.799 60.406C161.975 60.406 162.577 61.204 162.577 62.66V67H163.515V62.408C163.515 60.63 162.521 59.552 160.883 59.552C159.889 59.552 159.091 59.958 158.573 60.742H158.503V56.92H157.565V67ZM165.454 67H166.392V63.43C166.392 61.498 167.204 60.504 168.604 60.504H169.318V59.552H168.828C167.596 59.552 166.882 60.112 166.462 60.868H166.392V59.72H165.454V67ZM173.388 67.168C175.474 67.168 176.874 65.642 176.874 63.36C176.874 61.078 175.474 59.552 173.388 59.552C171.302 59.552 169.902 61.078 169.902 63.36C169.902 65.642 171.302 67.168 173.388 67.168ZM170.896 63.36C170.896 61.596 171.764 60.434 173.388 60.434C174.998 60.434 175.894 61.596 175.894 63.36C175.894 65.124 174.998 66.286 173.388 66.286C171.764 66.286 170.896 65.124 170.896 63.36ZM184.403 59.72H183.465V63.22C183.465 65.558 182.541 66.314 181.169 66.314C179.993 66.314 179.391 65.516 179.391 64.074V59.72H178.453V64.312C178.453 66.09 179.447 67.168 181.085 67.168C182.079 67.168 182.877 66.762 183.395 65.992H183.465V67H184.403V59.72ZM189.618 69.968C191.634 69.968 192.964 68.764 192.964 66.986V59.72H192.026V60.812H191.97C191.452 60.056 190.612 59.552 189.478 59.552C187.42 59.552 186.09 61.106 186.09 63.248C186.09 65.39 187.392 66.944 189.464 66.944C190.612 66.944 191.48 66.426 191.97 65.67H192.026V66.888C192.026 68.204 191.158 69.1 189.618 69.1C188.134 69.1 187.476 68.54 187.196 67.574L186.272 67.854C186.636 69.072 187.602 69.968 189.618 69.968ZM187.084 63.248C187.084 61.54 187.994 60.42 189.576 60.42C191.13 60.42 192.054 61.498 192.054 63.248C192.054 65.026 191.13 66.076 189.576 66.076C187.994 66.076 187.084 64.956 187.084 63.248ZM195.012 67H195.95V63.5C195.95 61.162 196.874 60.406 198.246 60.406C199.422 60.406 200.024 61.204 200.024 62.66V67H200.962V62.408C200.962 60.63 199.968 59.552 198.33 59.552C197.336 59.552 196.538 59.958 196.02 60.742H195.95V56.92H195.012V67ZM4.158 84.168C5.922 84.168 7.168 83.118 7.406 81.494L6.482 81.312C6.244 82.53 5.516 83.286 4.158 83.286C2.604 83.286 1.652 82.124 1.652 80.36C1.652 78.596 2.604 77.434 4.158 77.434C5.488 77.434 6.258 78.19 6.482 79.408L7.406 79.268C7.168 77.602 5.88 76.552 4.158 76.552C2.128 76.552 0.658 78.064 0.658 80.36C0.658 82.642 2.1 84.168 4.158 84.168ZM8.86966 84H9.80766V80.5C9.80766 78.162 10.7317 77.406 12.1037 77.406C13.2797 77.406 13.8817 78.204 13.8817 79.66V84H14.8197V79.408C14.8197 77.63 13.8257 76.552 12.1877 76.552C11.1937 76.552 10.3957 76.958 9.87766 77.742H9.80766V73.92H8.86966V84ZM19.8243 84.168C21.4483 84.168 22.4983 83.384 22.9463 81.97L22.0643 81.704C21.6723 82.782 21.0003 83.286 19.8243 83.286C18.2843 83.286 17.4163 82.124 17.3603 80.528H23.0863V80.206C23.0863 77.924 21.7283 76.552 19.8383 76.552C17.9063 76.552 16.3943 78.008 16.3943 80.36C16.3943 82.642 17.7943 84.168 19.8243 84.168ZM17.4023 79.688C17.6403 78.162 18.6763 77.434 19.8383 77.434C21.1403 77.434 21.9803 78.4 22.0643 79.688H17.4023ZM24.7974 84H25.7354V80.108C25.7354 78.064 26.5334 77.406 27.7374 77.406C28.7874 77.406 29.3614 78.12 29.3614 79.38V84H30.2994V80.108C30.2994 78.064 31.0974 77.406 32.3014 77.406C33.3654 77.406 33.9254 78.12 33.9254 79.38V84H34.8634V79.114C34.8634 77.546 33.8694 76.552 32.3994 76.552C31.3354 76.552 30.5654 77.028 30.0894 77.854H30.0334C29.7114 77.098 28.9694 76.552 27.8494 76.552C26.9254 76.552 26.2394 76.944 25.8054 77.588H25.7354V76.72H24.7974V84ZM36.8013 84H37.7393V76.72H36.8013V84ZM36.6333 74.382C36.6333 74.718 36.8853 74.998 37.2773 74.998C37.6553 74.998 37.9073 74.718 37.9073 74.382C37.9073 74.032 37.6553 73.752 37.2773 73.752C36.8853 73.752 36.6333 74.032 36.6333 74.382ZM42.9178 84.168C44.6818 84.168 45.9278 83.118 46.1658 81.494L45.2418 81.312C45.0038 82.53 44.2758 83.286 42.9178 83.286C41.3638 83.286 40.4118 82.124 40.4118 80.36C40.4118 78.596 41.3638 77.434 42.9178 77.434C44.2478 77.434 45.0178 78.19 45.2418 79.408L46.1658 79.268C45.9278 77.602 44.6398 76.552 42.9178 76.552C40.8878 76.552 39.4178 78.064 39.4178 80.36C39.4178 82.642 40.8598 84.168 42.9178 84.168ZM49.6314 84.168C50.7654 84.168 51.6614 83.748 52.2074 82.81H52.2634L52.2774 84H53.2014L53.1594 82.488V79.17C53.1594 77.616 52.0954 76.552 50.3034 76.552C48.5114 76.552 47.5174 77.602 47.4614 78.974H48.3714C48.4274 77.966 49.0994 77.42 50.3034 77.42C51.5914 77.42 52.2214 78.162 52.2214 79.156V79.59L49.6314 79.814C48.0774 79.94 47.2514 80.808 47.2514 82.026C47.2514 83.286 48.1614 84.168 49.6314 84.168ZM48.1894 82.012C48.1894 81.242 48.6934 80.682 49.7854 80.584L52.2214 80.374V80.388C52.2214 82.362 51.1714 83.328 49.7434 83.328C48.7494 83.328 48.1894 82.824 48.1894 82.012ZM55.0669 84H56.0049V73.92H55.0669V84ZM64.6694 84.168C66.7554 84.168 68.1554 82.642 68.1554 80.36C68.1554 78.078 66.7554 76.552 64.6694 76.552C62.5834 76.552 61.1834 78.078 61.1834 80.36C61.1834 82.642 62.5834 84.168 64.6694 84.168ZM62.1774 80.36C62.1774 78.596 63.0454 77.434 64.6694 77.434C66.2794 77.434 67.1754 78.596 67.1754 80.36C67.1754 82.124 66.2794 83.286 64.6694 83.286C63.0454 83.286 62.1774 82.124 62.1774 80.36ZM69.8462 84H70.7842V80.43C70.7842 78.498 71.5962 77.504 72.9962 77.504H73.7102V76.552H73.2202C71.9882 76.552 71.2742 77.112 70.8542 77.868H70.7842V76.72H69.8462V84ZM81.5939 84.168C83.2179 84.168 84.2679 83.384 84.7159 81.97L83.8339 81.704C83.4419 82.782 82.7699 83.286 81.5939 83.286C80.0539 83.286 79.1859 82.124 79.1299 80.528H84.8559V80.206C84.8559 77.924 83.4979 76.552 81.6079 76.552C79.6759 76.552 78.1639 78.008 78.1639 80.36C78.1639 82.642 79.5639 84.168 81.5939 84.168ZM79.1719 79.688C79.4099 78.162 80.4459 77.434 81.6079 77.434C82.9099 77.434 83.7499 78.4 83.8339 79.688H79.1719ZM86.5669 84H87.5049V73.92H86.5669V84ZM92.6134 84.168C94.2374 84.168 95.2874 83.384 95.7354 81.97L94.8534 81.704C94.4614 82.782 93.7894 83.286 92.6134 83.286C91.0734 83.286 90.2054 82.124 90.1494 80.528H95.8754V80.206C95.8754 77.924 94.5174 76.552 92.6274 76.552C90.6954 76.552 89.1834 78.008 89.1834 80.36C89.1834 82.642 90.5834 84.168 92.6134 84.168ZM90.1914 79.688C90.4294 78.162 91.4654 77.434 92.6274 77.434C93.9294 77.434 94.7694 78.4 94.8534 79.688H90.1914ZM100.722 84.168C102.486 84.168 103.732 83.118 103.97 81.494L103.046 81.312C102.808 82.53 102.08 83.286 100.722 83.286C99.1685 83.286 98.2165 82.124 98.2165 80.36C98.2165 78.596 99.1685 77.434 100.722 77.434C102.052 77.434 102.822 78.19 103.046 79.408L103.97 79.268C103.732 77.602 102.444 76.552 100.722 76.552C98.6925 76.552 97.2225 78.064 97.2225 80.36C97.2225 82.642 98.6645 84.168 100.722 84.168ZM107.604 84.028H108.822V83.146H107.73C107.128 83.146 106.848 82.894 106.848 82.306V77.574H108.682V76.72H106.848V74.732H105.91V76.72H104.482V77.574H105.91V82.432C105.91 83.426 106.512 84.028 107.604 84.028ZM110.11 84H111.048V80.43C111.048 78.498 111.86 77.504 113.26 77.504H113.974V76.552H113.484C112.252 76.552 111.538 77.112 111.118 77.868H111.048V76.72H110.11V84ZM118.044 84.168C120.13 84.168 121.53 82.642 121.53 80.36C121.53 78.078 120.13 76.552 118.044 76.552C115.958 76.552 114.558 78.078 114.558 80.36C114.558 82.642 115.958 84.168 118.044 84.168ZM115.552 80.36C115.552 78.596 116.42 77.434 118.044 77.434C119.654 77.434 120.55 78.596 120.55 80.36C120.55 82.124 119.654 83.286 118.044 83.286C116.42 83.286 115.552 82.124 115.552 80.36ZM126.357 84.168C128.121 84.168 129.367 83.118 129.605 81.494L128.681 81.312C128.443 82.53 127.715 83.286 126.357 83.286C124.803 83.286 123.851 82.124 123.851 80.36C123.851 78.596 124.803 77.434 126.357 77.434C127.687 77.434 128.457 78.19 128.681 79.408L129.605 79.268C129.367 77.602 128.079 76.552 126.357 76.552C124.327 76.552 122.857 78.064 122.857 80.36C122.857 82.642 124.299 84.168 126.357 84.168ZM131.069 84H132.007V80.5C132.007 78.162 132.931 77.406 134.303 77.406C135.479 77.406 136.081 78.204 136.081 79.66V84H137.019V79.408C137.019 77.63 136.025 76.552 134.387 76.552C133.393 76.552 132.595 76.958 132.077 77.742H132.007V73.92H131.069V84ZM142.024 84.168C143.648 84.168 144.698 83.384 145.146 81.97L144.264 81.704C143.872 82.782 143.2 83.286 142.024 83.286C140.484 83.286 139.616 82.124 139.56 80.528H145.286V80.206C145.286 77.924 143.928 76.552 142.038 76.552C140.106 76.552 138.594 78.008 138.594 80.36C138.594 82.642 139.994 84.168 142.024 84.168ZM139.602 79.688C139.84 78.162 140.876 77.434 142.038 77.434C143.34 77.434 144.18 78.4 144.264 79.688H139.602ZM146.997 84H147.935V80.108C147.935 78.064 148.733 77.406 149.937 77.406C150.987 77.406 151.561 78.12 151.561 79.38V84H152.499V80.108C152.499 78.064 153.297 77.406 154.501 77.406C155.565 77.406 156.125 78.12 156.125 79.38V84H157.063V79.114C157.063 77.546 156.069 76.552 154.599 76.552C153.535 76.552 152.765 77.028 152.289 77.854H152.233C151.911 77.098 151.169 76.552 150.049 76.552C149.125 76.552 148.439 76.944 148.005 77.588H147.935V76.72H146.997V84ZM159.001 84H159.939V76.72H159.001V84ZM158.833 74.382C158.833 74.718 159.085 74.998 159.477 74.998C159.855 74.998 160.107 74.718 160.107 74.382C160.107 74.032 159.855 73.752 159.477 73.752C159.085 73.752 158.833 74.032 158.833 74.382ZM165.117 84.168C166.881 84.168 168.127 83.118 168.365 81.494L167.441 81.312C167.203 82.53 166.475 83.286 165.117 83.286C163.563 83.286 162.611 82.124 162.611 80.36C162.611 78.596 163.563 77.434 165.117 77.434C166.447 77.434 167.217 78.19 167.441 79.408L168.365 79.268C168.127 77.602 166.839 76.552 165.117 76.552C163.087 76.552 161.617 78.064 161.617 80.36C161.617 82.642 163.059 84.168 165.117 84.168ZM171.831 84.168C172.965 84.168 173.861 83.748 174.407 82.81H174.463L174.477 84H175.401L175.359 82.488V79.17C175.359 77.616 174.295 76.552 172.503 76.552C170.711 76.552 169.717 77.602 169.661 78.974H170.571C170.627 77.966 171.299 77.42 172.503 77.42C173.791 77.42 174.421 78.162 174.421 79.156V79.59L171.831 79.814C170.277 79.94 169.451 80.808 169.451 82.026C169.451 83.286 170.361 84.168 171.831 84.168ZM170.389 82.012C170.389 81.242 170.893 80.682 171.985 80.584L174.421 80.374V80.388C174.421 82.362 173.371 83.328 171.943 83.328C170.949 83.328 170.389 82.824 170.389 82.012ZM177.266 84H178.204V73.92H177.266V84ZM4.158 101.168C5.922 101.168 7.168 100.118 7.406 98.494L6.482 98.312C6.244 99.53 5.516 100.286 4.158 100.286C2.604 100.286 1.652 99.124 1.652 97.36C1.652 95.596 2.604 94.434 4.158 94.434C5.488 94.434 6.258 95.19 6.482 96.408L7.406 96.268C7.168 94.602 5.88 93.552 4.158 93.552C2.128 93.552 0.658 95.064 0.658 97.36C0.658 99.642 2.1 101.168 4.158 101.168ZM10.8717 101.168C12.0057 101.168 12.9017 100.748 13.4477 99.81H13.5037L13.5177 101H14.4417L14.3997 99.488V96.17C14.3997 94.616 13.3357 93.552 11.5437 93.552C9.75166 93.552 8.75766 94.602 8.70166 95.974H9.61166C9.66766 94.966 10.3397 94.42 11.5437 94.42C12.8317 94.42 13.4617 95.162 13.4617 96.156V96.59L10.8717 96.814C9.31766 96.94 8.49166 97.808 8.49166 99.026C8.49166 100.286 9.40166 101.168 10.8717 101.168ZM9.42966 99.012C9.42966 98.242 9.93366 97.682 11.0257 97.584L13.4617 97.374V97.388C13.4617 99.362 12.4117 100.328 10.9837 100.328C9.98966 100.328 9.42966 99.824 9.42966 99.012ZM16.3072 103.8H17.2452V99.908H17.3152C17.8192 100.636 18.6312 101.168 19.8072 101.168C21.7952 101.168 23.1532 99.642 23.1532 97.36C23.1532 95.078 21.7952 93.552 19.7932 93.552C18.6312 93.552 17.8052 94.084 17.3152 94.812H17.2452V93.72H16.3072V103.8ZM17.2172 97.36C17.2172 95.582 18.0852 94.42 19.6952 94.42C21.2352 94.42 22.1452 95.554 22.1452 97.36C22.1452 99.166 21.2352 100.3 19.6952 100.3C18.0852 100.3 17.2172 99.152 17.2172 97.36ZM27.0084 101.028H28.2264V100.146H27.1344C26.5324 100.146 26.2524 99.894 26.2524 99.306V94.574H28.0864V93.72H26.2524V91.732H25.3144V93.72H23.8864V94.574H25.3144V99.432C25.3144 100.426 25.9164 101.028 27.0084 101.028ZM35.3522 93.72H34.4142V97.22C34.4142 99.558 33.4902 100.314 32.1182 100.314C30.9422 100.314 30.3402 99.516 30.3402 98.074V93.72H29.4022V98.312C29.4022 100.09 30.3962 101.168 32.0342 101.168C33.0282 101.168 33.8262 100.762 34.3442 99.992H34.4142V101H35.3522V93.72ZM37.4029 101H38.3409V97.43C38.3409 95.498 39.1529 94.504 40.5529 94.504H41.2669V93.552H40.7769C39.5449 93.552 38.8309 94.112 38.4109 94.868H38.3409V93.72H37.4029V101ZM45.2814 101.168C46.9054 101.168 47.9554 100.384 48.4034 98.97L47.5214 98.704C47.1294 99.782 46.4574 100.286 45.2814 100.286C43.7414 100.286 42.8734 99.124 42.8174 97.528H48.5434V97.206C48.5434 94.924 47.1854 93.552 45.2954 93.552C43.3634 93.552 41.8514 95.008 41.8514 97.36C41.8514 99.642 43.2514 101.168 45.2814 101.168ZM42.8594 96.688C43.0974 95.162 44.1334 94.434 45.2954 94.434C46.5974 94.434 47.4374 95.4 47.5214 96.688H42.8594ZM53.7544 101H54.6924V97.108C54.6924 95.064 55.4904 94.406 56.6944 94.406C57.7444 94.406 58.3184 95.12 58.3184 96.38V101H59.2564V97.108C59.2564 95.064 60.0544 94.406 61.2584 94.406C62.3224 94.406 62.8824 95.12 62.8824 96.38V101H63.8204V96.114C63.8204 94.546 62.8264 93.552 61.3564 93.552C60.2924 93.552 59.5224 94.028 59.0464 94.854H58.9904C58.6684 94.098 57.9264 93.552 56.8064 93.552C55.8824 93.552 55.1964 93.944 54.7624 94.588H54.6924V93.72H53.7544V101ZM68.8243 101.168C70.4483 101.168 71.4983 100.384 71.9463 98.97L71.0643 98.704C70.6723 99.782 70.0003 100.286 68.8243 100.286C67.2843 100.286 66.4163 99.124 66.3603 97.528H72.0863V97.206C72.0863 94.924 70.7283 93.552 68.8383 93.552C66.9063 93.552 65.3943 95.008 65.3943 97.36C65.3943 99.642 66.7943 101.168 68.8243 101.168ZM66.4023 96.688C66.6403 95.162 67.6763 94.434 68.8383 94.434C70.1403 94.434 70.9803 95.4 71.0643 96.688H66.4023ZM76.9334 101.168C78.6974 101.168 79.9434 100.118 80.1814 98.494L79.2574 98.312C79.0194 99.53 78.2914 100.286 76.9334 100.286C75.3794 100.286 74.4274 99.124 74.4274 97.36C74.4274 95.596 75.3794 94.434 76.9334 94.434C78.2634 94.434 79.0334 95.19 79.2574 96.408L80.1814 96.268C79.9434 94.602 78.6554 93.552 76.9334 93.552C74.9034 93.552 73.4334 95.064 73.4334 97.36C73.4334 99.642 74.8754 101.168 76.9334 101.168ZM81.645 101H82.583V97.5C82.583 95.162 83.507 94.406 84.879 94.406C86.055 94.406 86.657 95.204 86.657 96.66V101H87.595V96.408C87.595 94.63 86.601 93.552 84.963 93.552C83.969 93.552 83.171 93.958 82.653 94.742H82.583V90.92H81.645V101ZM91.5357 101.168C92.6697 101.168 93.5657 100.748 94.1117 99.81H94.1677L94.1817 101H95.1057L95.0637 99.488V96.17C95.0637 94.616 93.9997 93.552 92.2077 93.552C90.4157 93.552 89.4217 94.602 89.3657 95.974H90.2757C90.3317 94.966 91.0037 94.42 92.2077 94.42C93.4957 94.42 94.1257 95.162 94.1257 96.156V96.59L91.5357 96.814C89.9817 96.94 89.1557 97.808 89.1557 99.026C89.1557 100.286 90.0657 101.168 91.5357 101.168ZM90.0937 99.012C90.0937 98.242 90.5977 97.682 91.6897 97.584L94.1257 97.374V97.388C94.1257 99.362 93.0757 100.328 91.6477 100.328C90.6537 100.328 90.0937 99.824 90.0937 99.012ZM96.9712 101H97.9092V97.5C97.9092 95.162 98.8332 94.406 100.205 94.406C101.381 94.406 101.983 95.204 101.983 96.646V101H102.921V96.408C102.921 94.63 101.927 93.552 100.289 93.552C99.2952 93.552 98.4972 93.958 97.9792 94.728H97.9092V93.72H96.9712V101ZM104.86 101H105.798V93.72H104.86V101ZM104.692 91.382C104.692 91.718 104.944 91.998 105.336 91.998C105.714 91.998 105.966 91.718 105.966 91.382C105.966 91.032 105.714 90.752 105.336 90.752C104.944 90.752 104.692 91.032 104.692 91.382ZM110.402 101.168C112.306 101.168 113.23 100.23 113.23 99.026C113.23 97.836 112.572 97.094 111.144 96.912L109.632 96.702C108.918 96.618 108.47 96.24 108.47 95.61C108.47 94.966 108.974 94.434 110.136 94.434C111.214 94.434 111.816 94.91 112.138 95.834L113.034 95.568C112.67 94.322 111.676 93.552 110.136 93.552C108.4 93.552 107.546 94.532 107.546 95.61C107.546 96.744 108.274 97.416 109.492 97.584L111.032 97.78C111.9 97.878 112.306 98.368 112.306 99.026C112.306 99.754 111.69 100.286 110.402 100.286C109.198 100.286 108.54 99.74 108.232 98.704L107.294 98.956C107.728 100.398 108.764 101.168 110.402 101.168ZM114.731 101H115.669V97.108C115.669 95.064 116.467 94.406 117.671 94.406C118.721 94.406 119.295 95.12 119.295 96.38V101H120.233V97.108C120.233 95.064 121.031 94.406 122.235 94.406C123.299 94.406 123.859 95.12 123.859 96.38V101H124.797V96.114C124.797 94.546 123.803 93.552 122.333 93.552C121.269 93.552 120.499 94.028 120.023 94.854H119.967C119.645 94.098 118.903 93.552 117.783 93.552C116.859 93.552 116.173 93.944 115.739 94.588H115.669V93.72H114.731V101ZM129.297 101.168C131.201 101.168 132.125 100.23 132.125 99.026C132.125 97.836 131.467 97.094 130.039 96.912L128.527 96.702C127.813 96.618 127.365 96.24 127.365 95.61C127.365 94.966 127.869 94.434 129.031 94.434C130.109 94.434 130.711 94.91 131.033 95.834L131.929 95.568C131.565 94.322 130.571 93.552 129.031 93.552C127.295 93.552 126.441 94.532 126.441 95.61C126.441 96.744 127.169 97.416 128.387 97.584L129.927 97.78C130.795 97.878 131.201 98.368 131.201 99.026C131.201 99.754 130.585 100.286 129.297 100.286C128.093 100.286 127.435 99.74 127.127 98.704L126.189 98.956C126.623 100.398 127.659 101.168 129.297 101.168ZM139.296 101.028H140.514V100.146H139.422C138.82 100.146 138.54 99.894 138.54 99.306V94.574H140.374V93.72H138.54V91.732H137.602V93.72H136.174V94.574H137.602V99.432C137.602 100.426 138.204 101.028 139.296 101.028ZM141.801 101H142.739V97.5C142.739 95.162 143.663 94.406 145.035 94.406C146.211 94.406 146.813 95.204 146.813 96.66V101H147.751V96.408C147.751 94.63 146.757 93.552 145.119 93.552C144.125 93.552 143.327 93.958 142.809 94.742H142.739V90.92H141.801V101ZM151.692 101.168C152.826 101.168 153.722 100.748 154.268 99.81H154.324L154.338 101H155.262L155.22 99.488V96.17C155.22 94.616 154.156 93.552 152.364 93.552C150.572 93.552 149.578 94.602 149.522 95.974H150.432C150.488 94.966 151.16 94.42 152.364 94.42C153.652 94.42 154.282 95.162 154.282 96.156V96.59L151.692 96.814C150.138 96.94 149.312 97.808 149.312 99.026C149.312 100.286 150.222 101.168 151.692 101.168ZM150.25 99.012C150.25 98.242 150.754 97.682 151.846 97.584L154.282 97.374V97.388C154.282 99.362 153.232 100.328 151.804 100.328C150.81 100.328 150.25 99.824 150.25 99.012ZM159.297 101.028H160.515V100.146H159.423C158.821 100.146 158.541 99.894 158.541 99.306V94.574H160.375V93.72H158.541V91.732H157.603V93.72H156.175V94.574H157.603V99.432C157.603 100.426 158.205 101.028 159.297 101.028ZM168.299 101.168C169.461 101.168 170.287 100.636 170.791 99.908H170.847V101H171.785V90.92H170.847V94.812H170.791C170.273 94.084 169.461 93.552 168.285 93.552C166.311 93.552 164.939 95.078 164.939 97.36C164.939 99.642 166.311 101.168 168.299 101.168ZM165.947 97.36C165.947 95.554 166.871 94.42 168.411 94.42C170.007 94.42 170.875 95.568 170.875 97.36C170.875 99.138 170.007 100.3 168.411 100.3C166.871 100.3 165.947 99.166 165.947 97.36ZM176.901 101.168C178.525 101.168 179.575 100.384 180.023 98.97L179.141 98.704C178.749 99.782 178.077 100.286 176.901 100.286C175.361 100.286 174.493 99.124 174.437 97.528H180.163V97.206C180.163 94.924 178.805 93.552 176.915 93.552C174.983 93.552 173.471 95.008 173.471 97.36C173.471 99.642 174.87 101.168 176.901 101.168ZM174.479 96.688C174.717 95.162 175.753 94.434 176.915 94.434C178.217 94.434 179.057 95.4 179.141 96.688H174.479ZM181.874 103.8H182.812V99.908H182.882C183.386 100.636 184.198 101.168 185.374 101.168C187.362 101.168 188.72 99.642 188.72 97.36C188.72 95.078 187.362 93.552 185.36 93.552C184.198 93.552 183.372 94.084 182.882 94.812H182.812V93.72H181.874V103.8ZM182.784 97.36C182.784 95.582 183.652 94.42 185.262 94.42C186.802 94.42 187.712 95.554 187.712 97.36C187.712 99.166 186.802 100.3 185.262 100.3C183.652 100.3 182.784 99.152 182.784 97.36ZM190.405 101H191.343V90.92H190.405V101ZM196.451 101.168C198.075 101.168 199.125 100.384 199.573 98.97L198.691 98.704C198.299 99.782 197.627 100.286 196.451 100.286C194.911 100.286 194.043 99.124 193.987 97.528H199.713V97.206C199.713 94.924 198.355 93.552 196.465 93.552C194.533 93.552 193.021 95.008 193.021 97.36C193.021 99.642 194.421 101.168 196.451 101.168ZM194.029 96.688C194.267 95.162 195.303 94.434 196.465 94.434C197.767 94.434 198.607 95.4 198.691 96.688H194.029ZM203.594 101.028H204.812V100.146H203.72C203.118 100.146 202.838 99.894 202.838 99.306V94.574H204.672V93.72H202.838V91.732H201.9V93.72H200.472V94.574H201.9V99.432C201.9 100.426 202.502 101.028 203.594 101.028ZM208.947 101.168C210.571 101.168 211.621 100.384 212.069 98.97L211.187 98.704C210.795 99.782 210.123 100.286 208.947 100.286C207.407 100.286 206.539 99.124 206.483 97.528H212.209V97.206C212.209 94.924 210.851 93.552 208.961 93.552C207.029 93.552 205.517 95.008 205.517 97.36C205.517 99.642 206.917 101.168 208.947 101.168ZM206.525 96.688C206.763 95.162 207.799 94.434 208.961 94.434C210.263 94.434 211.103 95.4 211.187 96.688H206.525ZM1.022 118H1.96V110.72H1.022V118ZM0.854 108.382C0.854 108.718 1.106 108.998 1.498 108.998C1.876 108.998 2.128 108.718 2.128 108.382C2.128 108.032 1.876 107.752 1.498 107.752C1.106 107.752 0.854 108.032 0.854 108.382ZM6.17247 118.028H7.39047V117.146H6.29847C5.69647 117.146 5.41647 116.894 5.41647 116.306V111.574H7.25047V110.72H5.41647V108.732H4.47847V110.72H3.05047V111.574H4.47847V116.432C4.47847 117.426 5.08047 118.028 6.17247 118.028ZM15.3003 118.168C17.3863 118.168 18.7863 116.642 18.7863 114.36C18.7863 112.078 17.3863 110.552 15.3003 110.552C13.2142 110.552 11.8143 112.078 11.8143 114.36C11.8143 116.642 13.2142 118.168 15.3003 118.168ZM12.8083 114.36C12.8083 112.596 13.6763 111.434 15.3003 111.434C16.9103 111.434 17.8063 112.596 17.8063 114.36C17.8063 116.124 16.9103 117.286 15.3003 117.286C13.6763 117.286 12.8083 116.124 12.8083 114.36ZM20.9531 109.334V110.72H19.5251V111.574H20.9531V118H21.8911V111.574H23.9211V110.72H21.8911V109.432C21.8911 108.872 22.1571 108.634 22.7451 108.634H23.9211V107.752H22.6471C21.5691 107.752 20.9531 108.354 20.9531 109.334ZM32.8418 118.168C35.1518 118.168 36.7198 116.824 37.0978 114.542L36.1458 114.332C35.7678 116.054 34.8018 117.244 32.8558 117.244C30.5598 117.244 29.2298 115.522 29.2298 112.946C29.2298 110.37 30.5598 108.676 32.8558 108.676C34.8018 108.676 35.8098 109.88 36.1598 111.574L37.1258 111.42C36.7478 109.11 35.1798 107.752 32.8418 107.752C30.0838 107.752 28.1938 109.838 28.1938 112.946C28.1938 116.04 30.0698 118.168 32.8418 118.168ZM43.2094 118.168C46.1774 118.168 48.0534 116.012 48.0534 112.96C48.0534 109.88 46.1774 107.752 43.2094 107.752C40.2274 107.752 38.3794 109.88 38.3794 112.96C38.3794 116.012 40.2274 118.168 43.2094 118.168ZM39.4154 112.96C39.4154 110.468 40.7454 108.676 43.2094 108.676C45.6594 108.676 47.0174 110.468 47.0174 112.96C47.0174 115.452 45.6594 117.244 43.2094 117.244C40.7454 117.244 39.4154 115.452 39.4154 112.96ZM50.0286 116.992V118H56.2026V117.09H50.9806V116.964C50.9806 116.012 51.3446 115.522 52.2406 115.032L53.7526 114.206C55.2786 113.366 55.9506 112.498 55.9506 111.098C55.9506 109.348 54.7746 108.088 52.9126 108.088C51.1206 108.088 49.8046 109.236 49.8046 111.154H50.7846C50.8126 109.74 51.6246 108.984 52.9126 108.984C54.0886 108.984 54.9566 109.712 54.9566 111.112C54.9566 112.134 54.4806 112.764 53.3606 113.38L51.7926 114.262C50.4486 115.004 50.0286 115.76 50.0286 116.992ZM58.9062 116.88L58.1082 120.464H58.8502L59.9562 116.88H58.9062ZM66.7042 118H67.9922L69.7842 111.938H69.8822L71.6882 118H72.9902L75.1602 110.72H74.1942L72.3882 116.866H72.2762L70.4702 110.72H69.2382L67.4182 116.866H67.3062L65.5002 110.72H64.5062L66.7042 118ZM76.2857 118H77.2237V114.5C77.2237 112.162 78.1477 111.406 79.5197 111.406C80.6957 111.406 81.2977 112.204 81.2977 113.66V118H82.2357V113.408C82.2357 111.63 81.2417 110.552 79.6037 110.552C78.6097 110.552 77.8117 110.958 77.2937 111.742H77.2237V107.92H76.2857V118ZM84.1743 118H85.1123V110.72H84.1743V118ZM84.0063 108.382C84.0063 108.718 84.2583 108.998 84.6503 108.998C85.0283 108.998 85.2803 108.718 85.2803 108.382C85.2803 108.032 85.0283 107.752 84.6503 107.752C84.2583 107.752 84.0063 108.032 84.0063 108.382ZM90.2908 118.168C92.0548 118.168 93.3008 117.118 93.5388 115.494L92.6148 115.312C92.3768 116.53 91.6488 117.286 90.2908 117.286C88.7368 117.286 87.7848 116.124 87.7848 114.36C87.7848 112.596 88.7368 111.434 90.2908 111.434C91.6208 111.434 92.3908 112.19 92.6148 113.408L93.5388 113.268C93.3008 111.602 92.0128 110.552 90.2908 110.552C88.2608 110.552 86.7908 112.064 86.7908 114.36C86.7908 116.642 88.2328 118.168 90.2908 118.168ZM95.0025 118H95.9405V114.5C95.9405 112.162 96.8645 111.406 98.2365 111.406C99.4125 111.406 100.014 112.204 100.014 113.66V118H100.952V113.408C100.952 111.63 99.9585 110.552 98.3205 110.552C97.3265 110.552 96.5285 110.958 96.0105 111.742H95.9405V107.92H95.0025V118ZM106.391 118H107.329V110.72H106.391V118ZM106.223 108.382C106.223 108.718 106.475 108.998 106.867 108.998C107.245 108.998 107.497 108.718 107.497 108.382C107.497 108.032 107.245 107.752 106.867 107.752C106.475 107.752 106.223 108.032 106.223 108.382ZM111.934 118.168C113.838 118.168 114.762 117.23 114.762 116.026C114.762 114.836 114.104 114.094 112.676 113.912L111.164 113.702C110.45 113.618 110.002 113.24 110.002 112.61C110.002 111.966 110.506 111.434 111.668 111.434C112.746 111.434 113.348 111.91 113.67 112.834L114.566 112.568C114.202 111.322 113.208 110.552 111.668 110.552C109.932 110.552 109.078 111.532 109.078 112.61C109.078 113.744 109.806 114.416 111.024 114.584L112.564 114.78C113.432 114.878 113.838 115.368 113.838 116.026C113.838 116.754 113.222 117.286 111.934 117.286C110.73 117.286 110.072 116.74 109.764 115.704L108.826 115.956C109.26 117.398 110.296 118.168 111.934 118.168ZM119.762 118H120.7V114.43C120.7 112.498 121.512 111.504 122.912 111.504H123.626V110.552H123.136C121.904 110.552 121.19 111.112 120.77 111.868H120.7V110.72H119.762V118ZM127.641 118.168C129.265 118.168 130.315 117.384 130.763 115.97L129.881 115.704C129.489 116.782 128.817 117.286 127.641 117.286C126.101 117.286 125.233 116.124 125.177 114.528H130.903V114.206C130.903 111.924 129.545 110.552 127.655 110.552C125.723 110.552 124.211 112.008 124.211 114.36C124.211 116.642 125.611 118.168 127.641 118.168ZM125.219 113.688C125.457 112.162 126.493 111.434 127.655 111.434C128.957 111.434 129.797 112.4 129.881 113.688H125.219ZM132.614 118H133.552V114.108C133.552 112.064 134.35 111.406 135.554 111.406C136.604 111.406 137.178 112.12 137.178 113.38V118H138.116V114.108C138.116 112.064 138.914 111.406 140.118 111.406C141.182 111.406 141.742 112.12 141.742 113.38V118H142.68V113.114C142.68 111.546 141.686 110.552 140.216 110.552C139.152 110.552 138.382 111.028 137.906 111.854H137.85C137.528 111.098 136.786 110.552 135.666 110.552C134.742 110.552 134.056 110.944 133.622 111.588H133.552V110.72H132.614V118ZM147.74 118.168C149.826 118.168 151.226 116.642 151.226 114.36C151.226 112.078 149.826 110.552 147.74 110.552C145.654 110.552 144.254 112.078 144.254 114.36C144.254 116.642 145.654 118.168 147.74 118.168ZM145.248 114.36C145.248 112.596 146.116 111.434 147.74 111.434C149.35 111.434 150.246 112.596 150.246 114.36C150.246 116.124 149.35 117.286 147.74 117.286C146.116 117.286 145.248 116.124 145.248 114.36ZM154.657 118H155.819L158.647 110.72H157.653L155.315 116.88H155.189L152.837 110.72H151.815L154.657 118ZM162.654 118.168C164.278 118.168 165.328 117.384 165.776 115.97L164.894 115.704C164.502 116.782 163.83 117.286 162.654 117.286C161.114 117.286 160.246 116.124 160.19 114.528H165.916V114.206C165.916 111.924 164.558 110.552 162.668 110.552C160.736 110.552 159.224 112.008 159.224 114.36C159.224 116.642 160.624 118.168 162.654 118.168ZM160.232 113.688C160.47 112.162 161.506 111.434 162.668 111.434C163.97 111.434 164.81 112.4 164.894 113.688H160.232ZM170.623 118.168C171.785 118.168 172.611 117.636 173.115 116.908H173.171V118H174.109V107.92H173.171V111.812H173.115C172.597 111.084 171.785 110.552 170.609 110.552C168.635 110.552 167.263 112.078 167.263 114.36C167.263 116.642 168.635 118.168 170.623 118.168ZM168.271 114.36C168.271 112.554 169.195 111.42 170.735 111.42C172.331 111.42 173.199 112.568 173.199 114.36C173.199 116.138 172.331 117.3 170.735 117.3C169.195 117.3 168.271 116.166 168.271 114.36ZM180.135 109.334V110.72H178.707V111.574H180.135V118H181.073V111.574H183.103V110.72H181.073V109.432C181.073 108.872 181.339 108.634 181.927 108.634H183.103V107.752H181.829C180.751 107.752 180.135 108.354 180.135 109.334ZM184.211 118H185.149V114.43C185.149 112.498 185.961 111.504 187.361 111.504H188.075V110.552H187.585C186.353 110.552 185.639 111.112 185.219 111.868H185.149V110.72H184.211V118ZM192.146 118.168C194.232 118.168 195.632 116.642 195.632 114.36C195.632 112.078 194.232 110.552 192.146 110.552C190.06 110.552 188.66 112.078 188.66 114.36C188.66 116.642 190.06 118.168 192.146 118.168ZM189.654 114.36C189.654 112.596 190.522 111.434 192.146 111.434C193.756 111.434 194.652 112.596 194.652 114.36C194.652 116.124 193.756 117.286 192.146 117.286C190.522 117.286 189.654 116.124 189.654 114.36ZM197.323 118H198.261V114.108C198.261 112.064 199.059 111.406 200.263 111.406C201.313 111.406 201.887 112.12 201.887 113.38V118H202.825V114.108C202.825 112.064 203.623 111.406 204.827 111.406C205.891 111.406 206.451 112.12 206.451 113.38V118H207.389V113.114C207.389 111.546 206.395 110.552 204.925 110.552C203.861 110.552 203.091 111.028 202.615 111.854H202.559C202.237 111.098 201.495 110.552 200.375 110.552C199.451 110.552 198.765 110.944 198.331 111.588H198.261V110.72H197.323V118ZM3.192 135.028H4.41V134.146H3.318C2.716 134.146 2.436 133.894 2.436 133.306V128.574H4.27V127.72H2.436V125.732H1.498V127.72H0.07V128.574H1.498V133.432C1.498 134.426 2.1 135.028 3.192 135.028ZM5.69778 135H6.63578V131.5C6.63578 129.162 7.55978 128.406 8.93178 128.406C10.1078 128.406 10.7098 129.204 10.7098 130.66V135H11.6478V130.408C11.6478 128.63 10.6538 127.552 9.01578 127.552C8.02178 127.552 7.22378 127.958 6.70578 128.742H6.63578V124.92H5.69778V135ZM16.6525 135.168C18.2765 135.168 19.3265 134.384 19.7745 132.97L18.8925 132.704C18.5005 133.782 17.8285 134.286 16.6525 134.286C15.1125 134.286 14.2445 133.124 14.1885 131.528H19.9145V131.206C19.9145 128.924 18.5565 127.552 16.6665 127.552C14.7345 127.552 13.2225 129.008 13.2225 131.36C13.2225 133.642 14.6225 135.168 16.6525 135.168ZM14.2305 130.688C14.4685 129.162 15.5045 128.434 16.6665 128.434C17.9685 128.434 18.8085 129.4 18.8925 130.688H14.2305ZM25.1255 135H26.0635V131.43C26.0635 129.498 26.8755 128.504 28.2755 128.504H28.9895V127.552H28.4995C27.2675 127.552 26.5535 128.112 26.1335 128.868H26.0635V127.72H25.1255V135ZM33.004 135.168C34.628 135.168 35.678 134.384 36.126 132.97L35.244 132.704C34.852 133.782 34.18 134.286 33.004 134.286C31.464 134.286 30.596 133.124 30.54 131.528H36.266V131.206C36.266 128.924 34.908 127.552 33.018 127.552C31.086 127.552 29.574 129.008 29.574 131.36C29.574 133.642 30.974 135.168 33.004 135.168ZM30.582 130.688C30.82 129.162 31.856 128.434 33.018 128.434C34.32 128.434 35.16 129.4 35.244 130.688H30.582ZM37.9771 135H38.9151V124.92H37.9771V135ZM44.0235 135.168C45.6475 135.168 46.6975 134.384 47.1455 132.97L46.2635 132.704C45.8715 133.782 45.1995 134.286 44.0235 134.286C42.4835 134.286 41.6155 133.124 41.5595 131.528H47.2855V131.206C47.2855 128.924 45.9275 127.552 44.0375 127.552C42.1055 127.552 40.5935 129.008 40.5935 131.36C40.5935 133.642 41.9935 135.168 44.0235 135.168ZM41.6015 130.688C41.8395 129.162 42.8755 128.434 44.0375 128.434C45.3395 128.434 46.1795 129.4 46.2635 130.688H41.6015ZM50.9986 135.168C52.1326 135.168 53.0286 134.748 53.5746 133.81H53.6306L53.6446 135H54.5686L54.5266 133.488V130.17C54.5266 128.616 53.4626 127.552 51.6706 127.552C49.8786 127.552 48.8846 128.602 48.8286 129.974H49.7386C49.7946 128.966 50.4666 128.42 51.6706 128.42C52.9586 128.42 53.5886 129.162 53.5886 130.156V130.59L50.9986 130.814C49.4446 130.94 48.6186 131.808 48.6186 133.026C48.6186 134.286 49.5286 135.168 50.9986 135.168ZM49.5566 133.012C49.5566 132.242 50.0606 131.682 51.1526 131.584L53.5886 131.374V131.388C53.5886 133.362 52.5386 134.328 51.1106 134.328C50.1166 134.328 49.5566 133.824 49.5566 133.012ZM58.9961 135.168C60.9001 135.168 61.8241 134.23 61.8241 133.026C61.8241 131.836 61.1661 131.094 59.7381 130.912L58.2261 130.702C57.5121 130.618 57.0641 130.24 57.0641 129.61C57.0641 128.966 57.5681 128.434 58.7301 128.434C59.8081 128.434 60.4101 128.91 60.7321 129.834L61.6281 129.568C61.2641 128.322 60.2701 127.552 58.7301 127.552C56.9941 127.552 56.1401 128.532 56.1401 129.61C56.1401 130.744 56.8681 131.416 58.0861 131.584L59.6261 131.78C60.4941 131.878 60.9001 132.368 60.9001 133.026C60.9001 133.754 60.2841 134.286 58.9961 134.286C57.7921 134.286 57.1341 133.74 56.8261 132.704L55.8881 132.956C56.3221 134.398 57.3581 135.168 58.9961 135.168ZM66.3907 135.168C68.0147 135.168 69.0647 134.384 69.5127 132.97L68.6307 132.704C68.2387 133.782 67.5667 134.286 66.3907 134.286C64.8507 134.286 63.9827 133.124 63.9267 131.528H69.6527V131.206C69.6527 128.924 68.2947 127.552 66.4047 127.552C64.4727 127.552 62.9607 129.008 62.9607 131.36C62.9607 133.642 64.3607 135.168 66.3907 135.168ZM63.9687 130.688C64.2067 129.162 65.2427 128.434 66.4047 128.434C67.7067 128.434 68.5467 129.4 68.6307 130.688H63.9687ZM74.3598 135.168C75.5218 135.168 76.3478 134.636 76.8518 133.908H76.9078V135H77.8458V124.92H76.9078V128.812H76.8518C76.3338 128.084 75.5218 127.552 74.3458 127.552C72.3718 127.552 70.9998 129.078 70.9998 131.36C70.9998 133.642 72.3718 135.168 74.3598 135.168ZM72.0078 131.36C72.0078 129.554 72.9318 128.42 74.4718 128.42C76.0678 128.42 76.9358 129.568 76.9358 131.36C76.9358 133.138 76.0678 134.3 74.4718 134.3C72.9318 134.3 72.0078 133.166 72.0078 131.36ZM85.397 135.168C86.531 135.168 87.427 134.748 87.973 133.81H88.029L88.043 135H88.967L88.925 133.488V130.17C88.925 128.616 87.861 127.552 86.069 127.552C84.277 127.552 83.283 128.602 83.227 129.974H84.137C84.193 128.966 84.865 128.42 86.069 128.42C87.357 128.42 87.987 129.162 87.987 130.156V130.59L85.397 130.814C83.843 130.94 83.017 131.808 83.017 133.026C83.017 134.286 83.927 135.168 85.397 135.168ZM83.955 133.012C83.955 132.242 84.459 131.682 85.551 131.584L87.987 131.374V131.388C87.987 133.362 86.937 134.328 85.509 134.328C84.515 134.328 83.955 133.824 83.955 133.012ZM90.8325 135H91.7705V127.72H90.8325V135ZM90.6645 125.382C90.6645 125.718 90.9165 125.998 91.3085 125.998C91.6865 125.998 91.9385 125.718 91.9385 125.382C91.9385 125.032 91.6865 124.752 91.3085 124.752C90.9165 124.752 90.6645 125.032 90.6645 125.382ZM93.813 135H94.751V131.43C94.751 129.498 95.563 128.504 96.963 128.504H97.677V127.552H97.187C95.955 127.552 95.241 128.112 94.821 128.868H94.751V127.72H93.813V135ZM104.497 135.168C105.631 135.168 106.527 134.748 107.073 133.81H107.129L107.143 135H108.067L108.025 133.488V130.17C108.025 128.616 106.961 127.552 105.169 127.552C103.377 127.552 102.383 128.602 102.327 129.974H103.237C103.293 128.966 103.965 128.42 105.169 128.42C106.457 128.42 107.087 129.162 107.087 130.156V130.59L104.497 130.814C102.943 130.94 102.117 131.808 102.117 133.026C102.117 134.286 103.027 135.168 104.497 135.168ZM103.055 133.012C103.055 132.242 103.559 131.682 104.651 131.584L107.087 131.374V131.388C107.087 133.362 106.037 134.328 104.609 134.328C103.615 134.328 103.055 133.824 103.055 133.012ZM109.932 135H110.87V131.5C110.87 129.162 111.794 128.406 113.166 128.406C114.342 128.406 114.944 129.204 114.944 130.646V135H115.882V130.408C115.882 128.63 114.888 127.552 113.25 127.552C112.256 127.552 111.458 127.958 110.94 128.728H110.87V127.72H109.932V135ZM120.817 135.168C121.979 135.168 122.805 134.636 123.309 133.908H123.365V135H124.303V124.92H123.365V128.812H123.309C122.791 128.084 121.979 127.552 120.803 127.552C118.829 127.552 117.457 129.078 117.457 131.36C117.457 133.642 118.829 135.168 120.817 135.168ZM118.465 131.36C118.465 129.554 119.389 128.42 120.929 128.42C122.525 128.42 123.393 129.568 123.393 131.36C123.393 133.138 122.525 134.3 120.929 134.3C119.389 134.3 118.465 133.166 118.465 131.36ZM129.852 137.8H130.79V133.908H130.86C131.364 134.636 132.176 135.168 133.352 135.168C135.34 135.168 136.698 133.642 136.698 131.36C136.698 129.078 135.34 127.552 133.338 127.552C132.176 127.552 131.35 128.084 130.86 128.812H130.79V127.72H129.852V137.8ZM130.762 131.36C130.762 129.582 131.63 128.42 133.24 128.42C134.78 128.42 135.69 129.554 135.69 131.36C135.69 133.166 134.78 134.3 133.24 134.3C131.63 134.3 130.762 133.152 130.762 131.36ZM141.449 135.168C143.073 135.168 144.123 134.384 144.571 132.97L143.689 132.704C143.297 133.782 142.625 134.286 141.449 134.286C139.909 134.286 139.041 133.124 138.985 131.528H144.711V131.206C144.711 128.924 143.353 127.552 141.463 127.552C139.531 127.552 138.019 129.008 138.019 131.36C138.019 133.642 139.419 135.168 141.449 135.168ZM139.027 130.688C139.265 129.162 140.301 128.434 141.463 128.434C142.765 128.434 143.605 129.4 143.689 130.688H139.027ZM146.422 135H147.36V131.43C147.36 129.498 148.172 128.504 149.572 128.504H150.286V127.552H149.796C148.564 127.552 147.85 128.112 147.43 128.868H147.36V127.72H146.422V135ZM151.604 135H152.542V131.108C152.542 129.064 153.34 128.406 154.544 128.406C155.594 128.406 156.168 129.12 156.168 130.38V135H157.106V131.108C157.106 129.064 157.904 128.406 159.108 128.406C160.172 128.406 160.732 129.12 160.732 130.38V135H161.67V130.114C161.67 128.546 160.676 127.552 159.206 127.552C158.142 127.552 157.372 128.028 156.896 128.854H156.84C156.518 128.098 155.776 127.552 154.656 127.552C153.732 127.552 153.046 127.944 152.612 128.588H152.542V127.72H151.604V135ZM165.61 135.168C166.744 135.168 167.64 134.748 168.186 133.81H168.242L168.256 135H169.18L169.138 133.488V130.17C169.138 128.616 168.074 127.552 166.282 127.552C164.49 127.552 163.496 128.602 163.44 129.974H164.35C164.406 128.966 165.078 128.42 166.282 128.42C167.57 128.42 168.2 129.162 168.2 130.156V130.59L165.61 130.814C164.056 130.94 163.23 131.808 163.23 133.026C163.23 134.286 164.14 135.168 165.61 135.168ZM164.168 133.012C164.168 132.242 164.672 131.682 165.764 131.584L168.2 131.374V131.388C168.2 133.362 167.15 134.328 165.722 134.328C164.728 134.328 164.168 133.824 164.168 133.012ZM171.045 135H171.983V131.5C171.983 129.162 172.907 128.406 174.279 128.406C175.455 128.406 176.057 129.204 176.057 130.646V135H176.995V130.408C176.995 128.63 176.001 127.552 174.363 127.552C173.369 127.552 172.571 127.958 172.053 128.728H171.983V127.72H171.045V135ZM182 135.168C183.624 135.168 184.674 134.384 185.122 132.97L184.24 132.704C183.848 133.782 183.176 134.286 182 134.286C180.46 134.286 179.592 133.124 179.536 131.528H185.262V131.206C185.262 128.924 183.904 127.552 182.014 127.552C180.082 127.552 178.57 129.008 178.57 131.36C178.57 133.642 179.97 135.168 182 135.168ZM179.578 130.688C179.816 129.162 180.852 128.434 182.014 128.434C183.316 128.434 184.156 129.4 184.24 130.688H179.578ZM186.973 135H187.911V131.5C187.911 129.162 188.835 128.406 190.207 128.406C191.383 128.406 191.985 129.204 191.985 130.646V135H192.923V130.408C192.923 128.63 191.929 127.552 190.291 127.552C189.297 127.552 188.499 127.958 187.981 128.728H187.911V127.72H186.973V135ZM197.032 135.028H198.25V134.146H197.158C196.556 134.146 196.276 133.894 196.276 133.306V128.574H198.11V127.72H196.276V125.732H195.338V127.72H193.91V128.574H195.338V133.432C195.338 134.426 195.94 135.028 197.032 135.028ZM199.538 135H200.476V124.92H199.538V135ZM203.372 137.8H204.394L208.468 127.72H207.46L205.094 133.684H204.982L202.63 127.72H201.594L204.534 135.07L203.372 137.8ZM3.584 152.168C5.488 152.168 6.412 151.23 6.412 150.026C6.412 148.836 5.754 148.094 4.326 147.912L2.814 147.702C2.1 147.618 1.652 147.24 1.652 146.61C1.652 145.966 2.156 145.434 3.318 145.434C4.396 145.434 4.998 145.91 5.32 146.834L6.216 146.568C5.852 145.322 4.858 144.552 3.318 144.552C1.582 144.552 0.728 145.532 0.728 146.61C0.728 147.744 1.456 148.416 2.674 148.584L4.214 148.78C5.082 148.878 5.488 149.368 5.488 150.026C5.488 150.754 4.872 151.286 3.584 151.286C2.38 151.286 1.722 150.74 1.414 149.704L0.476 149.956C0.91 151.398 1.946 152.168 3.584 152.168ZM10.9786 152.168C12.6026 152.168 13.6526 151.384 14.1006 149.97L13.2186 149.704C12.8266 150.782 12.1546 151.286 10.9786 151.286C9.43863 151.286 8.57063 150.124 8.51463 148.528H14.2406V148.206C14.2406 145.924 12.8826 144.552 10.9926 144.552C9.06063 144.552 7.54863 146.008 7.54863 148.36C7.54863 150.642 8.94862 152.168 10.9786 152.168ZM8.55663 147.688C8.79463 146.162 9.83063 145.434 10.9926 145.434C12.2946 145.434 13.1346 146.4 13.2186 147.688H8.55663ZM21.4957 154.8H22.4337V144.72H21.4957V145.812H21.4397C20.9357 145.084 20.1097 144.552 18.9477 144.552C16.9597 144.552 15.5877 146.078 15.5877 148.36C15.5877 150.642 16.9597 152.168 18.9337 152.168C20.1097 152.168 20.9217 151.636 21.4397 150.908H21.4957V154.8ZM16.5957 148.36C16.5957 146.554 17.5197 145.42 19.0597 145.42C20.6557 145.42 21.5237 146.582 21.5237 148.36C21.5237 150.152 20.6557 151.3 19.0597 151.3C17.5197 151.3 16.5957 150.166 16.5957 148.36ZM30.3209 144.72H29.3829V148.22C29.3829 150.558 28.4589 151.314 27.0869 151.314C25.9109 151.314 25.3089 150.516 25.3089 149.074V144.72H24.3709V149.312C24.3709 151.09 25.3649 152.168 27.0029 152.168C27.9969 152.168 28.7949 151.762 29.3129 150.992H29.3829V152H30.3209V144.72ZM35.4376 152.168C37.0616 152.168 38.1116 151.384 38.5596 149.97L37.6776 149.704C37.2856 150.782 36.6136 151.286 35.4376 151.286C33.8976 151.286 33.0296 150.124 32.9736 148.528H38.6996V148.206C38.6996 145.924 37.3416 144.552 35.4516 144.552C33.5196 144.552 32.0076 146.008 32.0076 148.36C32.0076 150.642 33.4076 152.168 35.4376 152.168ZM33.0156 147.688C33.2536 146.162 34.2896 145.434 35.4516 145.434C36.7536 145.434 37.5936 146.4 37.6776 147.688H33.0156ZM42.9727 152.168C44.8767 152.168 45.8007 151.23 45.8007 150.026C45.8007 148.836 45.1427 148.094 43.7147 147.912L42.2027 147.702C41.4887 147.618 41.0407 147.24 41.0407 146.61C41.0407 145.966 41.5447 145.434 42.7067 145.434C43.7847 145.434 44.3867 145.91 44.7087 146.834L45.6047 146.568C45.2407 145.322 44.2467 144.552 42.7067 144.552C40.9707 144.552 40.1167 145.532 40.1167 146.61C40.1167 147.744 40.8447 148.416 42.0627 148.584L43.6027 148.78C44.4707 148.878 44.8767 149.368 44.8767 150.026C44.8767 150.754 44.2607 151.286 42.9727 151.286C41.7687 151.286 41.1107 150.74 40.8027 149.704L39.8647 149.956C40.2987 151.398 41.3347 152.168 42.9727 152.168ZM49.4713 152.028H50.6893V151.146H49.5973C48.9953 151.146 48.7153 150.894 48.7153 150.306V145.574H50.5493V144.72H48.7153V142.732H47.7773V144.72H46.3493V145.574H47.7773V150.432C47.7773 151.426 48.3793 152.028 49.4713 152.028ZM54.8243 152.168C56.4483 152.168 57.4983 151.384 57.9463 149.97L57.0643 149.704C56.6723 150.782 56.0003 151.286 54.8243 151.286C53.2843 151.286 52.4163 150.124 52.3603 148.528H58.0863V148.206C58.0863 145.924 56.7283 144.552 54.8383 144.552C52.9063 144.552 51.3943 146.008 51.3943 148.36C51.3943 150.642 52.7943 152.168 54.8243 152.168ZM52.4023 147.688C52.6403 146.162 53.6763 145.434 54.8383 145.434C56.1403 145.434 56.9803 146.4 57.0643 147.688H52.4023ZM59.7974 152H60.7354V148.43C60.7354 146.498 61.5474 145.504 62.9474 145.504H63.6614V144.552H63.1714C61.9394 144.552 61.2254 145.112 60.8054 145.868H60.7354V144.72H59.7974V152ZM67.6759 152.168C69.2999 152.168 70.3499 151.384 70.7979 149.97L69.9159 149.704C69.5239 150.782 68.8519 151.286 67.6759 151.286C66.1359 151.286 65.2679 150.124 65.2119 148.528H70.9379V148.206C70.9379 145.924 69.5799 144.552 67.6899 144.552C65.7579 144.552 64.2459 146.008 64.2459 148.36C64.2459 150.642 65.6459 152.168 67.6759 152.168ZM65.2539 147.688C65.4919 146.162 66.5279 145.434 67.6899 145.434C68.9919 145.434 69.8319 146.4 69.9159 147.688H65.2539ZM75.645 152.168C76.807 152.168 77.633 151.636 78.137 150.908H78.193V152H79.131V141.92H78.193V145.812H78.137C77.619 145.084 76.807 144.552 75.631 144.552C73.657 144.552 72.285 146.078 72.285 148.36C72.285 150.642 73.657 152.168 75.645 152.168ZM73.293 148.36C73.293 146.554 74.217 145.42 75.757 145.42C77.353 145.42 78.221 146.568 78.221 148.36C78.221 150.138 77.353 151.3 75.757 151.3C74.217 151.3 73.293 150.166 73.293 148.36ZM81.1942 151.454C81.1942 151.86 81.4882 152.168 81.9082 152.168C82.3282 152.168 82.6222 151.86 82.6222 151.454C82.6222 151.076 82.3282 150.768 81.9082 150.768C81.4882 150.768 81.1942 151.076 81.1942 151.454Z" fill="#B2BA9B"/>
</svg>
