<svg width="160" height="160" viewBox="0 0 160 160" fill="none" xmlns="http://www.w3.org/2000/svg">
<circle cx="80" cy="80" r="79.5" fill="#F9FAF5" stroke="#2F4000"/>
<rect x="24.5" y="63.5" width="105" height="32" rx="16" fill="white"/>
<path d="M40.7273 86.8333C40.3256 86.8333 40 86.5348 40 86.1666" stroke="#2F4000" stroke-linecap="round" stroke-linejoin="round"/>
<path d="M46.5454 86.8333C46.9471 86.8333 47.2727 86.5348 47.2727 86.1666" stroke="#2F4000" stroke-linecap="round" stroke-linejoin="round"/>
<path d="M40 84.8333V84.1666" stroke="#2F4000" stroke-linecap="round" stroke-linejoin="round"/>
<path d="M42.9092 86.8334H42.1819" stroke="#2F4000" stroke-linecap="round" stroke-linejoin="round"/>
<path d="M42.9092 80.1666H42.1819" stroke="#2F4000" stroke-linecap="round" stroke-linejoin="round"/>
<path d="M45.0907 86.8334H44.3634" stroke="#2F4000" stroke-linecap="round" stroke-linejoin="round"/>
<path d="M45.0907 80.1666H44.3634" stroke="#2F4000" stroke-linecap="round" stroke-linejoin="round"/>
<path d="M46.5454 80.1666C46.9471 80.1666 47.2727 80.4651 47.2727 80.8333" stroke="#2F4000" stroke-linecap="round" stroke-linejoin="round"/>
<path d="M47.2726 82.1665V82.8332" stroke="#2F4000" stroke-linecap="round" stroke-linejoin="round"/>
<path d="M40.7273 80.1666C40.3256 80.1666 40 80.4651 40 80.8333" stroke="#2F4000" stroke-linecap="round" stroke-linejoin="round"/>
<path d="M40 82.1665V82.8332" stroke="#2F4000" stroke-linecap="round" stroke-linejoin="round"/>
<path d="M47.2726 84.1666V84.8333" stroke="#2F4000" stroke-linecap="round" stroke-linejoin="round"/>
<path fill-rule="evenodd" clip-rule="evenodd" d="M40 72.5C40 71.9477 40.4477 71.5 41 71.5H46.2727C46.825 71.5 47.2727 71.9477 47.2727 72.5V77.1667C47.2727 77.719 46.825 78.1667 46.2727 78.1667H41C40.4477 78.1667 40 77.719 40 77.1667V72.5Z" stroke="#2F4000" stroke-linecap="round" stroke-linejoin="round"/>
<path d="M55.9998 81.1553L53.0907 83.8219L50.1816 81.1553" stroke="#2F4000" stroke-linecap="round" stroke-linejoin="round"/>
<path d="M53.0907 73.4999V83.8219" stroke="#2F4000" stroke-linecap="round" stroke-linejoin="round"/>
<path d="M65.036 85H66.408V80.8H68.508L71.154 85H72.876L70.09 80.744C71.686 80.506 72.68 79.414 72.68 77.86C72.68 76.054 71.392 74.92 69.446 74.92H65.036V85ZM66.408 79.54V76.18H69.39C70.524 76.18 71.224 76.712 71.224 77.86C71.224 78.966 70.51 79.54 69.334 79.54H66.408ZM77.0991 85.168C78.7511 85.168 79.8011 84.412 80.2631 83.096L79.0451 82.676C78.6671 83.53 78.0931 83.964 77.0991 83.964C75.8391 83.964 75.0551 83.11 74.9291 81.738H80.4451V81.346C80.4451 78.91 79.0731 77.552 77.1131 77.552C75.0971 77.552 73.5851 79.092 73.5851 81.36C73.5851 83.67 75.0411 85.168 77.0991 85.168ZM74.9711 80.66C75.2091 79.372 76.0771 78.756 77.1131 78.756C78.2471 78.756 78.9751 79.582 79.0591 80.66H74.9711ZM85.0375 85.168C86.0735 85.168 86.8435 84.72 87.3335 84.048H87.4175V85H88.7335V74.92H87.4175V78.672H87.3335C86.8155 78 86.0735 77.552 84.9955 77.552C83.1195 77.552 81.7335 79.064 81.7335 81.36C81.7335 83.656 83.1195 85.168 85.0375 85.168ZM83.1055 81.36C83.1055 79.736 83.9595 78.756 85.2755 78.756C86.6335 78.756 87.4595 79.694 87.4595 81.36C87.4595 82.998 86.6335 83.964 85.2755 83.964C83.9595 83.964 83.1055 82.984 83.1055 81.36ZM96.6888 77.72H95.3728V81.36C95.3728 83.208 94.5748 83.964 93.3988 83.964C92.4748 83.964 91.9008 83.376 91.9008 82.158V77.72H90.5848V82.41C90.5848 84.16 91.6068 85.168 93.1608 85.168C94.0848 85.168 94.7708 84.804 95.2888 84.132H95.3728V85H96.6888V77.72ZM101.916 85.168C103.68 85.168 104.968 84.104 105.192 82.55L103.904 82.242C103.694 83.25 103.092 83.964 101.916 83.964C100.488 83.964 99.6758 82.97 99.6758 81.36C99.6758 79.75 100.502 78.756 101.916 78.756C103.092 78.756 103.722 79.47 103.918 80.464L105.206 80.254C104.968 78.616 103.68 77.552 101.916 77.552C99.8578 77.552 98.3038 79.05 98.3038 81.36C98.3038 83.67 99.8438 85.168 101.916 85.168ZM109.816 85.168C111.468 85.168 112.518 84.412 112.98 83.096L111.762 82.676C111.384 83.53 110.81 83.964 109.816 83.964C108.556 83.964 107.772 83.11 107.646 81.738H113.162V81.346C113.162 78.91 111.79 77.552 109.83 77.552C107.814 77.552 106.302 79.092 106.302 81.36C106.302 83.67 107.758 85.168 109.816 85.168ZM107.688 80.66C107.926 79.372 108.794 78.756 109.83 78.756C110.964 78.756 111.692 79.582 111.776 80.66H107.688Z" fill="#2F4000"/>
<rect x="24.5" y="63.5" width="105" height="32" rx="16" stroke="#2F4000"/>
</svg>
