<svg width="343" height="277" viewBox="0 0 343 277" fill="none" xmlns="http://www.w3.org/2000/svg">
<path d="M0.9 11.99L0.9 3.34999L6.576 3.34999L6.576 4.14199L1.728 4.14199L1.728 7.20199L6.264 7.20199V7.98199L1.728 7.98199L1.728 11.198L6.744 11.198V11.99L0.9 11.99ZM9.35813 11.99L6.92213 5.74999H7.79813L9.81413 11.03H9.92213L11.9261 5.74999H12.7781L10.3541 11.99H9.35813ZM15.9732 12.134C14.2332 12.134 13.0332 10.826 13.0332 8.86999C13.0332 6.85399 14.3292 5.60599 15.9852 5.60599C17.6052 5.60599 18.7692 6.78199 18.7692 8.73799V9.01399L13.8612 9.01399C13.9092 10.382 14.6532 11.378 15.9732 11.378C16.9812 11.378 17.5572 10.946 17.8932 10.022L18.6492 10.25C18.2652 11.462 17.3652 12.134 15.9732 12.134ZM13.8972 8.29399H17.8932C17.8212 7.18999 17.1012 6.36199 15.9852 6.36199C14.9892 6.36199 14.1012 6.98599 13.8972 8.29399ZM19.9958 11.99V5.74999H20.7998V6.61399H20.8598C21.3038 5.95399 21.9878 5.60599 22.8398 5.60599C24.2438 5.60599 25.0958 6.52999 25.0958 8.05399V11.99H24.2918V8.25799C24.2918 7.02199 23.7758 6.33799 22.7678 6.33799C21.5918 6.33799 20.7998 6.98599 20.7998 8.98999V11.99H19.9958ZM31.1376 12.014C30.2016 12.014 29.6856 11.498 29.6856 10.646V6.48199H28.4616V5.74999H29.6856V4.04599H30.4896V5.74999H32.0616V6.48199H30.4896V10.538C30.4896 11.042 30.7296 11.258 31.2456 11.258H32.1816V12.014H31.1376ZM33.0454 11.99V3.34999H33.8494V6.62599H33.9094C34.3534 5.95399 35.0374 5.60599 35.8894 5.60599C37.2934 5.60599 38.1454 6.52999 38.1454 8.05399V11.99H37.3414V8.26999C37.3414 7.02199 36.8254 6.33799 35.8174 6.33799C34.6414 6.33799 33.8494 6.98599 33.8494 8.98999V11.99H33.0454ZM42.1951 12.134C40.4551 12.134 39.2551 10.826 39.2551 8.86999C39.2551 6.85399 40.5511 5.60599 42.2071 5.60599C43.8271 5.60599 44.9911 6.78199 44.9911 8.73799V9.01399H40.0831C40.1311 10.382 40.8751 11.378 42.1951 11.378C43.2031 11.378 43.7791 10.946 44.1151 10.022L44.8711 10.25C44.4871 11.462 43.5871 12.134 42.1951 12.134ZM40.1191 8.29399H44.1151C44.0431 7.18999 43.3231 6.36199 42.2071 6.36199C41.2111 6.36199 40.3231 6.98599 40.1191 8.29399ZM48.9777 11.99V5.74999H49.7817V6.49399H49.8417C50.2137 5.94199 50.8017 5.60599 51.5937 5.60599C52.5537 5.60599 53.1897 6.07399 53.4657 6.72199H53.5137C53.9217 6.01399 54.5817 5.60599 55.4937 5.60599C56.7537 5.60599 57.6057 6.45799 57.6057 7.80199V11.99H56.8017V8.02999C56.8017 6.94999 56.3217 6.33799 55.4097 6.33799C54.3777 6.33799 53.6937 6.90199 53.6937 8.65399V11.99H52.8897V8.02999C52.8897 6.94999 52.3977 6.33799 51.4977 6.33799C50.4657 6.33799 49.7817 6.90199 49.7817 8.65399V11.99L48.9777 11.99ZM61.7028 12.134C59.9148 12.134 58.7148 10.826 58.7148 8.86999C58.7148 6.91399 59.9148 5.60599 61.7028 5.60599C63.4908 5.60599 64.6908 6.91399 64.6908 8.86999C64.6908 10.826 63.4908 12.134 61.7028 12.134ZM59.5668 8.86999C59.5668 10.382 60.3108 11.378 61.7028 11.378C63.0828 11.378 63.8508 10.382 63.8508 8.86999C63.8508 7.35799 63.0828 6.36199 61.7028 6.36199C60.3108 6.36199 59.5668 7.35799 59.5668 8.86999ZM68.0961 12.134C66.6921 12.134 65.8041 11.474 65.4321 10.238L66.2361 10.022C66.5001 10.91 67.0641 11.378 68.0961 11.378C69.2001 11.378 69.7281 10.922 69.7281 10.298C69.7281 9.73399 69.3801 9.31399 68.6361 9.22999L67.3161 9.06199C66.2721 8.91799 65.6481 8.34199 65.6481 7.36999C65.6481 6.44599 66.3801 5.60599 67.8681 5.60599C69.1881 5.60599 70.0401 6.26599 70.3521 7.33399L69.5841 7.56199C69.3081 6.76999 68.7921 6.36199 67.8681 6.36199C66.8721 6.36199 66.4401 6.81799 66.4401 7.36999C66.4401 7.90999 66.8241 8.23399 67.4361 8.30599L68.7321 8.48599C69.9561 8.64199 70.5201 9.27799 70.5201 10.298C70.5201 11.33 69.7281 12.134 68.0961 12.134ZM73.4263 12.014C72.4903 12.014 71.9743 11.498 71.9743 10.646V6.48199H70.7503V5.74999H71.9743V4.04599H72.7783V5.74999H74.3503V6.48199H72.7783V10.538C72.7783 11.042 73.0183 11.258 73.5343 11.258H74.4703V12.014H73.4263ZM80.7701 12.134C78.9821 12.134 77.7821 10.826 77.7821 8.86999C77.7821 6.91399 78.9821 5.60599 80.7701 5.60599C82.5581 5.60599 83.7581 6.91399 83.7581 8.86999C83.7581 10.826 82.5581 12.134 80.7701 12.134ZM78.6341 8.86999C78.6341 10.382 79.3781 11.378 80.7701 11.378C82.1501 11.378 82.9181 10.382 82.9181 8.86999C82.9181 7.35799 82.1501 6.36199 80.7701 6.36199C79.3781 6.36199 78.6341 7.35799 78.6341 8.86999ZM84.9674 14.39V5.74999L85.7714 5.74999V6.68599H85.8314C86.2514 6.06199 86.9594 5.60599 87.9554 5.60599C89.6714 5.60599 90.8354 6.91399 90.8354 8.86999C90.8354 10.826 89.6714 12.134 87.9674 12.134C86.9594 12.134 86.2634 11.678 85.8314 11.054H85.7714V14.39H84.9674ZM85.7474 8.86999C85.7474 10.406 86.4914 11.39 87.8714 11.39C89.1914 11.39 89.9714 10.418 89.9714 8.86999C89.9714 7.32199 89.1914 6.34999 87.8714 6.34999C86.4914 6.34999 85.7474 7.34599 85.7474 8.86999ZM93.8999 12.014C92.9639 12.014 92.4479 11.498 92.4479 10.646V6.48199H91.2239V5.74999H92.4479V4.04599L93.2519 4.04599V5.74999H94.8239V6.48199H93.2519V10.538C93.2519 11.042 93.4919 11.258 94.0079 11.258H94.9439V12.014H93.8999ZM95.8077 11.99V5.74999H96.6117V11.99H95.8077ZM95.6637 3.74599C95.6637 3.44599 95.8797 3.20599 96.2157 3.20599C96.5397 3.20599 96.7557 3.44599 96.7557 3.74599C96.7557 4.03399 96.5397 4.27399 96.2157 4.27399C95.8797 4.27399 95.6637 4.03399 95.6637 3.74599ZM98.1224 11.99V5.74999H98.9264V6.49399H98.9864C99.3584 5.94199 99.9464 5.60599 100.738 5.60599C101.698 5.60599 102.334 6.07399 102.61 6.72199H102.658C103.066 6.01399 103.726 5.60599 104.638 5.60599C105.898 5.60599 106.75 6.45799 106.75 7.80199V11.99H105.946V8.02999C105.946 6.94999 105.466 6.33799 104.554 6.33799C103.522 6.33799 102.838 6.90199 102.838 8.65399V11.99H102.034V8.02999C102.034 6.94999 101.542 6.33799 100.642 6.33799C99.6104 6.33799 98.9264 6.90199 98.9264 8.65399V11.99H98.1224ZM108.171 11.99V5.74999H108.975V11.99H108.171ZM108.027 3.74599C108.027 3.44599 108.243 3.20599 108.579 3.20599C108.903 3.20599 109.119 3.44599 109.119 3.74599C109.119 4.03399 108.903 4.27399 108.579 4.27399C108.243 4.27399 108.027 4.03399 108.027 3.74599ZM112.682 12.134C111.278 12.134 110.39 11.474 110.018 10.238L110.822 10.022C111.086 10.91 111.65 11.378 112.682 11.378C113.786 11.378 114.314 10.922 114.314 10.298C114.314 9.73399 113.966 9.31399 113.222 9.22999L111.902 9.06199C110.858 8.91799 110.234 8.34199 110.234 7.36999C110.234 6.44599 110.966 5.60599 112.454 5.60599C113.774 5.60599 114.626 6.26599 114.938 7.33399L114.17 7.56199C113.894 6.76999 113.378 6.36199 112.454 6.36199C111.458 6.36199 111.026 6.81799 111.026 7.36999C111.026 7.90999 111.41 8.23399 112.022 8.30599L113.318 8.48599C114.542 8.64199 115.106 9.27799 115.106 10.298C115.106 11.33 114.314 12.134 112.682 12.134ZM118.012 12.014C117.076 12.014 116.56 11.498 116.56 10.646V6.48199H115.336V5.74999H116.56V4.04599H117.364V5.74999L118.936 5.74999V6.48199L117.364 6.48199V10.538C117.364 11.042 117.604 11.258 118.12 11.258H119.056V12.014H118.012ZM119.92 11.99V5.74999H120.724V11.99H119.92ZM119.776 3.74599C119.776 3.44599 119.992 3.20599 120.328 3.20599C120.652 3.20599 120.868 3.44599 120.868 3.74599C120.868 4.03399 120.652 4.27399 120.328 4.27399C119.992 4.27399 119.776 4.03399 119.776 3.74599ZM124.923 12.134C123.159 12.134 121.923 10.826 121.923 8.86999C121.923 6.90199 123.183 5.60599 124.923 5.60599C126.399 5.60599 127.503 6.50599 127.707 7.93399L126.915 8.05399C126.723 7.00999 126.063 6.36199 124.923 6.36199C123.591 6.36199 122.775 7.35799 122.775 8.86999C122.775 10.382 123.591 11.378 124.923 11.378C126.087 11.378 126.711 10.73 126.915 9.68599L127.707 9.84199C127.503 11.234 126.435 12.134 124.923 12.134ZM133.677 12.134C132.273 12.134 131.385 11.474 131.013 10.238L131.817 10.022C132.081 10.91 132.645 11.378 133.677 11.378C134.781 11.378 135.309 10.922 135.309 10.298C135.309 9.73399 134.961 9.31399 134.217 9.22999L132.897 9.06199C131.853 8.91799 131.229 8.34199 131.229 7.36999C131.229 6.44599 131.961 5.60599 133.449 5.60599C134.769 5.60599 135.621 6.26599 135.933 7.33399L135.165 7.56199C134.889 6.76999 134.373 6.36199 133.449 6.36199C132.453 6.36199 132.021 6.81799 132.021 7.36999C132.021 7.90999 132.405 8.23399 133.017 8.30599L134.313 8.48599C135.537 8.64199 136.101 9.27799 136.101 10.298C136.101 11.33 135.309 12.134 133.677 12.134ZM139.836 12.134C138.072 12.134 136.836 10.826 136.836 8.86999C136.836 6.90199 138.096 5.60599 139.836 5.60599C141.312 5.60599 142.416 6.50599 142.62 7.93399L141.828 8.05399C141.636 7.00999 140.976 6.36199 139.836 6.36199C138.504 6.36199 137.688 7.35799 137.688 8.86999C137.688 10.382 138.504 11.378 139.836 11.378C141 11.378 141.624 10.73 141.828 9.68599L142.62 9.84199C142.416 11.234 141.348 12.134 139.836 12.134ZM146.262 12.134C144.522 12.134 143.322 10.826 143.322 8.86999C143.322 6.85399 144.618 5.60599 146.274 5.60599C147.894 5.60599 149.058 6.78199 149.058 8.73799V9.01399H144.15C144.198 10.382 144.942 11.378 146.262 11.378C147.27 11.378 147.846 10.946 148.182 10.022L148.938 10.25C148.554 11.462 147.654 12.134 146.262 12.134ZM144.186 8.29399L148.182 8.29399C148.11 7.18999 147.39 6.36199 146.274 6.36199C145.278 6.36199 144.39 6.98599 144.186 8.29399ZM150.285 11.99V5.74999H151.089V6.61399H151.149C151.593 5.95399 152.277 5.60599 153.129 5.60599C154.533 5.60599 155.385 6.52999 155.385 8.05399V11.99H154.581V8.25799C154.581 7.02199 154.065 6.33799 153.057 6.33799C151.881 6.33799 151.089 6.98599 151.089 8.98999V11.99H150.285ZM158.523 12.134C157.263 12.134 156.483 11.378 156.483 10.298C156.483 9.25399 157.191 8.50999 158.523 8.40199L160.743 8.20999V7.83799C160.743 6.98599 160.203 6.34999 159.099 6.34999C158.067 6.34999 157.491 6.81799 157.443 7.68199L156.663 7.68199C156.711 6.50599 157.563 5.60599 159.099 5.60599C160.635 5.60599 161.547 6.51799 161.547 7.84999V10.694L161.583 11.99H160.791L160.779 10.97H160.731C160.263 11.774 159.495 12.134 158.523 12.134ZM157.287 10.286C157.287 10.982 157.767 11.414 158.619 11.414C159.843 11.414 160.743 10.586 160.743 8.89399V8.88199L158.655 9.06199C157.719 9.14599 157.287 9.62599 157.287 10.286ZM162.942 11.99V5.74999H163.746V6.73399H163.806C164.166 6.08599 164.778 5.60599 165.834 5.60599H166.254V6.42199H165.642C164.442 6.42199 163.746 7.27399 163.746 8.92999V11.99H162.942ZM167.143 11.99V5.74999H167.947V11.99H167.143ZM166.999 3.74599C166.999 3.44599 167.215 3.20599 167.551 3.20599C167.875 3.20599 168.091 3.44599 168.091 3.74599C168.091 4.03399 167.875 4.27399 167.551 4.27399C167.215 4.27399 166.999 4.03399 166.999 3.74599ZM172.134 12.134C170.346 12.134 169.146 10.826 169.146 8.86999C169.146 6.91399 170.346 5.60599 172.134 5.60599C173.922 5.60599 175.122 6.91399 175.122 8.86999C175.122 10.826 173.922 12.134 172.134 12.134ZM169.998 8.86999C169.998 10.382 170.742 11.378 172.134 11.378C173.514 11.378 174.282 10.382 174.282 8.86999C174.282 7.35799 173.514 6.36199 172.134 6.36199C170.742 6.36199 169.998 7.35799 169.998 8.86999ZM178.155 8.68999C176.871 8.68999 176.139 8.01799 176.091 6.93799H176.895C176.943 7.59799 177.387 7.98199 178.155 7.98199C178.923 7.98199 179.367 7.59799 179.367 6.94999C179.367 6.27799 178.935 5.90599 178.059 5.90599H177.387V5.20999H177.999C178.767 5.20999 179.175 4.82599 179.175 4.28599C179.175 3.72199 178.779 3.36199 178.143 3.36199C177.411 3.36199 177.051 3.72199 177.015 4.29799H176.235C176.283 3.31399 176.991 2.64199 178.143 2.64199C179.295 2.64199 179.955 3.37399 179.955 4.24999C179.955 4.84999 179.631 5.22199 179.007 5.46199V5.52199C179.775 5.71399 180.183 6.25399 180.183 7.02199C180.183 8.00599 179.439 8.68999 178.155 8.68999ZM184.3 11.99V5.74999L185.104 5.74999V6.73399H185.164C185.524 6.08599 186.136 5.60599 187.192 5.60599H187.612V6.42199H187C185.8 6.42199 185.104 7.27399 185.104 8.92999V11.99H184.3ZM190.813 12.134C189.073 12.134 187.873 10.826 187.873 8.86999C187.873 6.85399 189.169 5.60599 190.825 5.60599C192.445 5.60599 193.609 6.78199 193.609 8.73799V9.01399L188.701 9.01399C188.749 10.382 189.493 11.378 190.813 11.378C191.821 11.378 192.397 10.946 192.733 10.022L193.489 10.25C193.105 11.462 192.205 12.134 190.813 12.134ZM188.737 8.29399L192.733 8.29399C192.661 7.18999 191.941 6.36199 190.825 6.36199C189.829 6.36199 188.941 6.98599 188.737 8.29399ZM199.588 14.39V11.054H199.54C199.096 11.678 198.4 12.134 197.392 12.134C195.7 12.134 194.524 10.826 194.524 8.86999C194.524 6.91399 195.7 5.60599 197.404 5.60599C198.4 5.60599 199.108 6.06199 199.54 6.68599H199.588V5.74999H200.392V14.39H199.588ZM195.388 8.86999C195.388 10.418 196.18 11.39 197.5 11.39C198.868 11.39 199.612 10.406 199.612 8.86999C199.612 7.34599 198.868 6.34999 197.5 6.34999C196.18 6.34999 195.388 7.32199 195.388 8.86999ZM206.912 5.74999V11.99H206.108V11.126H206.048C205.604 11.786 204.92 12.134 204.068 12.134C202.664 12.134 201.812 11.21 201.812 9.68599V5.74999H202.616V9.48199C202.616 10.718 203.132 11.402 204.14 11.402C205.316 11.402 206.108 10.754 206.108 8.74999V5.74999H206.912ZM208.43 11.99V5.74999H209.234V11.99H208.43ZM208.286 3.74599C208.286 3.44599 208.502 3.20599 208.838 3.20599C209.162 3.20599 209.378 3.44599 209.378 3.74599C209.378 4.03399 209.162 4.27399 208.838 4.27399C208.502 4.27399 208.286 4.03399 208.286 3.74599ZM210.745 11.99V5.74999H211.549V6.73399H211.609C211.969 6.08599 212.581 5.60599 213.637 5.60599H214.057V6.42199H213.445C212.245 6.42199 211.549 7.27399 211.549 8.92999V11.99H210.745ZM217.258 12.134C215.518 12.134 214.318 10.826 214.318 8.86999C214.318 6.85399 215.614 5.60599 217.27 5.60599C218.89 5.60599 220.054 6.78199 220.054 8.73799V9.01399L215.146 9.01399C215.194 10.382 215.938 11.378 217.258 11.378C218.266 11.378 218.842 10.946 219.178 10.022L219.934 10.25C219.55 11.462 218.65 12.134 217.258 12.134ZM215.182 8.29399H219.178C219.106 7.18999 218.386 6.36199 217.27 6.36199C216.274 6.36199 215.386 6.98599 215.182 8.29399ZM223.476 12.134C222.072 12.134 221.184 11.474 220.812 10.238L221.616 10.022C221.88 10.91 222.444 11.378 223.476 11.378C224.58 11.378 225.108 10.922 225.108 10.298C225.108 9.73399 224.76 9.31399 224.016 9.22999L222.696 9.06199C221.652 8.91799 221.028 8.34199 221.028 7.36999C221.028 6.44599 221.76 5.60599 223.248 5.60599C224.568 5.60599 225.42 6.26599 225.732 7.33399L224.964 7.56199C224.688 6.76999 224.172 6.36199 223.248 6.36199C222.252 6.36199 221.82 6.81799 221.82 7.36999C221.82 7.90999 222.204 8.23399 222.816 8.30599L224.112 8.48599C225.336 8.64199 225.9 9.27799 225.9 10.298C225.9 11.33 225.108 12.134 223.476 12.134ZM232.395 12.134C230.631 12.134 229.395 10.826 229.395 8.86999C229.395 6.90199 230.655 5.60599 232.395 5.60599C233.871 5.60599 234.975 6.50599 235.179 7.93399L234.387 8.05399C234.195 7.00999 233.535 6.36199 232.395 6.36199C231.063 6.36199 230.247 7.35799 230.247 8.86999C230.247 10.382 231.063 11.378 232.395 11.378C233.559 11.378 234.183 10.73 234.387 9.68599L235.179 9.84199C234.975 11.234 233.907 12.134 232.395 12.134ZM237.909 12.134C236.649 12.134 235.869 11.378 235.869 10.298C235.869 9.25399 236.577 8.50999 237.909 8.40199L240.129 8.20999V7.83799C240.129 6.98599 239.589 6.34999 238.485 6.34999C237.453 6.34999 236.877 6.81799 236.829 7.68199H236.049C236.097 6.50599 236.949 5.60599 238.485 5.60599C240.021 5.60599 240.933 6.51799 240.933 7.84999V10.694L240.969 11.99H240.177L240.165 10.97H240.117C239.649 11.774 238.881 12.134 237.909 12.134ZM236.673 10.286C236.673 10.982 237.153 11.414 238.005 11.414C239.229 11.414 240.129 10.586 240.129 8.89399V8.88199L238.041 9.06199C237.105 9.14599 236.673 9.62599 236.673 10.286ZM242.328 11.99V5.74999H243.132V6.73399H243.192C243.552 6.08599 244.164 5.60599 245.22 5.60599H245.64V6.42199H245.028C243.828 6.42199 243.132 7.27399 243.132 8.92999V11.99H242.328ZM249.518 12.134C248.522 12.134 247.814 11.678 247.394 11.054H247.334V11.99H246.53V3.34999L247.334 3.34999V6.68599H247.394C247.826 6.06199 248.522 5.60599 249.53 5.60599C251.234 5.60599 252.398 6.91399 252.398 8.86999C252.398 10.826 251.234 12.134 249.518 12.134ZM247.31 8.86999C247.31 10.394 248.054 11.39 249.434 11.39C250.754 11.39 251.534 10.418 251.534 8.86999C251.534 7.32199 250.754 6.34999 249.434 6.34999C248.054 6.34999 247.31 7.33399 247.31 8.86999ZM256.278 12.134C254.49 12.134 253.29 10.826 253.29 8.86999C253.29 6.91399 254.49 5.60599 256.278 5.60599C258.066 5.60599 259.266 6.91399 259.266 8.86999C259.266 10.826 258.066 12.134 256.278 12.134ZM254.142 8.86999C254.142 10.382 254.886 11.378 256.278 11.378C257.658 11.378 258.426 10.382 258.426 8.86999C258.426 7.35799 257.658 6.36199 256.278 6.36199C254.886 6.36199 254.142 7.35799 254.142 8.86999ZM260.475 11.99V5.74999H261.279V6.61399H261.339C261.783 5.95399 262.467 5.60599 263.319 5.60599C264.723 5.60599 265.575 6.52999 265.575 8.05399V11.99H264.771V8.25799C264.771 7.02199 264.255 6.33799 263.247 6.33799C262.071 6.33799 261.279 6.98599 261.279 8.98999V11.99H260.475ZM269.757 11.99V5.74999H270.561V6.73399H270.621C270.981 6.08599 271.593 5.60599 272.649 5.60599H273.069V6.42199H272.457C271.257 6.42199 270.561 7.27399 270.561 8.92999V11.99H269.757ZM276.27 12.134C274.53 12.134 273.33 10.826 273.33 8.86999C273.33 6.85399 274.626 5.60599 276.282 5.60599C277.902 5.60599 279.066 6.78199 279.066 8.73799V9.01399H274.158C274.206 10.382 274.95 11.378 276.27 11.378C277.278 11.378 277.854 10.946 278.19 10.022L278.946 10.25C278.562 11.462 277.662 12.134 276.27 12.134ZM274.194 8.29399H278.19C278.118 7.18999 277.398 6.36199 276.282 6.36199C275.286 6.36199 274.398 6.98599 274.194 8.29399ZM280.293 11.99V5.74999H281.097V6.49399H281.157C281.529 5.94199 282.117 5.60599 282.909 5.60599C283.869 5.60599 284.505 6.07399 284.781 6.72199H284.829C285.237 6.01399 285.897 5.60599 286.809 5.60599C288.069 5.60599 288.921 6.45799 288.921 7.80199V11.99H288.117V8.02999C288.117 6.94999 287.637 6.33799 286.725 6.33799C285.693 6.33799 285.009 6.90199 285.009 8.65399V11.99H284.205V8.02999C284.205 6.94999 283.713 6.33799 282.813 6.33799C281.781 6.33799 281.097 6.90199 281.097 8.65399V11.99H280.293ZM293.018 12.134C291.23 12.134 290.03 10.826 290.03 8.86999C290.03 6.91399 291.23 5.60599 293.018 5.60599C294.806 5.60599 296.006 6.91399 296.006 8.86999C296.006 10.826 294.806 12.134 293.018 12.134ZM290.882 8.86999C290.882 10.382 291.626 11.378 293.018 11.378C294.398 11.378 295.166 10.382 295.166 8.86999C295.166 7.35799 294.398 6.36199 293.018 6.36199C291.626 6.36199 290.882 7.35799 290.882 8.86999ZM298.707 11.99L296.271 5.74999H297.147L299.163 11.03H299.271L301.275 5.74999H302.127L299.703 11.99H298.707ZM304.328 12.134C303.068 12.134 302.288 11.378 302.288 10.298C302.288 9.25399 302.996 8.50999 304.328 8.40199L306.548 8.20999V7.83799C306.548 6.98599 306.008 6.34999 304.904 6.34999C303.872 6.34999 303.296 6.81799 303.248 7.68199H302.468C302.516 6.50599 303.368 5.60599 304.904 5.60599C306.44 5.60599 307.352 6.51799 307.352 7.84999V10.694L307.388 11.99H306.596L306.584 10.97H306.536C306.068 11.774 305.3 12.134 304.328 12.134ZM303.092 10.286C303.092 10.982 303.572 11.414 304.424 11.414C305.648 11.414 306.548 10.586 306.548 8.89399V8.88199L304.46 9.06199C303.524 9.14599 303.092 9.62599 303.092 10.286ZM308.747 11.99V3.34999H309.551V11.99H308.747ZM2.736 26.014C1.8 26.014 1.284 25.498 1.284 24.646L1.284 20.482H0.06L0.06 19.75H1.284L1.284 18.046H2.088L2.088 19.75H3.66V20.482H2.088L2.088 24.538C2.088 25.042 2.328 25.258 2.844 25.258H3.78V26.014H2.736ZM7.08431 26.134C5.34431 26.134 4.14431 24.826 4.14431 22.87C4.14431 20.854 5.44031 19.606 7.09631 19.606C8.71631 19.606 9.88031 20.782 9.88031 22.738V23.014H4.97231C5.02031 24.382 5.76431 25.378 7.08431 25.378C8.09231 25.378 8.66831 24.946 9.00431 24.022L9.76031 24.25C9.37631 25.462 8.47631 26.134 7.08431 26.134ZM5.00831 22.294H9.00431C8.93231 21.19 8.21231 20.362 7.09631 20.362C6.10031 20.362 5.21231 20.986 5.00831 22.294ZM13.7949 26.134C12.0309 26.134 10.7949 24.826 10.7949 22.87C10.7949 20.902 12.0549 19.606 13.7949 19.606C15.2709 19.606 16.3749 20.506 16.5789 21.934L15.7869 22.054C15.5949 21.01 14.9349 20.362 13.7949 20.362C12.4629 20.362 11.6469 21.358 11.6469 22.87C11.6469 24.382 12.4629 25.378 13.7949 25.378C14.9589 25.378 15.5829 24.73 15.7869 23.686L16.5789 23.842C16.3749 25.234 15.3069 26.134 13.7949 26.134ZM17.5935 25.99V17.35H18.3975V20.626H18.4575C18.9015 19.954 19.5855 19.606 20.4375 19.606C21.8415 19.606 22.6935 20.53 22.6935 22.054V25.99H21.8895V22.27C21.8895 21.022 21.3735 20.338 20.3655 20.338C19.1895 20.338 18.3975 20.986 18.3975 22.99V25.99H17.5935ZM24.1152 25.99V19.75H24.9192V20.614H24.9792C25.4232 19.954 26.1072 19.606 26.9592 19.606C28.3632 19.606 29.2152 20.53 29.2152 22.054V25.99H28.4112V22.258C28.4112 21.022 27.8952 20.338 26.8872 20.338C25.7112 20.338 24.9192 20.986 24.9192 22.99V25.99H24.1152ZM33.3129 26.134C31.5249 26.134 30.3249 24.826 30.3249 22.87C30.3249 20.914 31.5249 19.606 33.3129 19.606C35.1009 19.606 36.3009 20.914 36.3009 22.87C36.3009 24.826 35.1009 26.134 33.3129 26.134ZM31.1769 22.87C31.1769 24.382 31.9209 25.378 33.3129 25.378C34.6929 25.378 35.4609 24.382 35.4609 22.87C35.4609 21.358 34.6929 20.362 33.3129 20.362C31.9209 20.362 31.1769 21.358 31.1769 22.87ZM37.5102 25.99L37.5102 17.35H38.3142L38.3142 25.99H37.5102ZM42.5009 26.134C40.7129 26.134 39.5129 24.826 39.5129 22.87C39.5129 20.914 40.7129 19.606 42.5009 19.606C44.2889 19.606 45.4889 20.914 45.4889 22.87C45.4889 24.826 44.2889 26.134 42.5009 26.134ZM40.3649 22.87C40.3649 24.382 41.1089 25.378 42.5009 25.378C43.8809 25.378 44.6489 24.382 44.6489 22.87C44.6489 21.358 43.8809 20.362 42.5009 20.362C41.1089 20.362 40.3649 21.358 40.3649 22.87ZM49.4102 28.534C47.6822 28.534 46.8542 27.766 46.5422 26.722L47.3342 26.482C47.5742 27.31 48.1382 27.79 49.4102 27.79C50.7302 27.79 51.4742 27.022 51.4742 25.894V24.85H51.4262C51.0062 25.498 50.2622 25.942 49.2782 25.942C47.5022 25.942 46.3862 24.61 46.3862 22.774C46.3862 20.938 47.5262 19.606 49.2902 19.606C50.2622 19.606 50.9822 20.038 51.4262 20.686H51.4742V19.75H52.2782L52.2782 25.978C52.2782 27.502 51.1382 28.534 49.4102 28.534ZM47.2382 22.774C47.2382 24.238 48.0182 25.198 49.3742 25.198C50.7062 25.198 51.4982 24.298 51.4982 22.774C51.4982 21.274 50.7062 20.35 49.3742 20.35C48.0182 20.35 47.2382 21.31 47.2382 22.774ZM54.5261 28.39L55.5221 26.05L53.0021 19.75H53.8901L55.9061 24.862H56.0021L58.0301 19.75H58.8941L55.4021 28.39L54.5261 28.39Z" fill="#161814"/>
<path d="M3.104 39.086C1.544 39.086 0.376 37.918 0.376 36.11C0.376 34.302 1.56 33.134 3.104 33.134C4.464 33.134 5.416 33.91 5.616 35.222L4.84 35.35C4.656 34.462 4.12 33.87 3.12 33.87C1.896 33.87 1.208 34.726 1.208 36.11C1.208 37.494 1.888 38.35 3.12 38.35C4.12 38.35 4.608 37.782 4.824 36.862L5.6 37.046C5.384 38.334 4.432 39.086 3.104 39.086ZM9.12988 39.086C7.44188 39.086 6.29788 37.918 6.29788 36.11C6.29788 34.302 7.44188 33.134 9.12988 33.134C10.7859 33.134 11.9619 34.302 11.9619 36.11C11.9619 37.918 10.7859 39.086 9.12988 39.086ZM7.12988 36.11C7.12988 37.422 7.81788 38.35 9.12988 38.35C10.4019 38.35 11.1299 37.422 11.1299 36.11C11.1299 34.798 10.4019 33.87 9.12988 33.87C7.81788 33.87 7.12988 34.798 7.12988 36.11ZM12.8159 40.054C12.8159 39.654 12.9359 39.262 13.4799 38.982L14.2399 38.59C14.5999 38.406 14.7039 38.19 14.7039 37.886C14.7039 37.526 14.4959 37.286 14.1199 37.286C13.7519 37.286 13.5199 37.494 13.5039 37.894H12.7839C12.7839 37.174 13.2879 36.622 14.1199 36.622C14.8959 36.622 15.4399 37.142 15.4399 37.878C15.4399 38.486 15.1599 38.838 14.4639 39.182L13.7839 39.518C13.5919 39.614 13.5199 39.71 13.5199 39.87V39.926H15.5199V40.59H12.8159V40.054ZM20.3368 39.086C19.1608 39.086 18.3288 38.23 18.3288 36.91C18.3288 35.614 19.1928 34.734 20.3448 34.734C21.4648 34.734 22.2488 35.51 22.2488 36.902V37.126H19.0968C19.1688 37.91 19.6168 38.398 20.3368 38.398C20.9048 38.398 21.2328 38.15 21.4488 37.662L22.1448 37.902C21.8808 38.654 21.2808 39.086 20.3368 39.086ZM19.1208 36.51H21.4568C21.4088 35.894 20.9928 35.422 20.3448 35.422C19.7528 35.422 19.2568 35.774 19.1208 36.51ZM23.185 38.99V34.83L23.937 34.83V35.302H23.985C24.257 34.934 24.609 34.734 25.129 34.734C25.713 34.734 26.137 34.99 26.353 35.422H26.393C26.689 34.974 27.089 34.734 27.689 34.734C28.521 34.734 29.105 35.31 29.105 36.214V38.99H28.353V36.398C28.353 35.758 28.057 35.422 27.553 35.422C26.921 35.422 26.521 35.822 26.521 36.782V38.99H25.769V36.398C25.769 35.758 25.473 35.422 24.969 35.422C24.337 35.422 23.937 35.822 23.937 36.782V38.99H23.185ZM30.1616 38.99V34.83H30.9136V38.99H30.1616ZM30.0736 33.59C30.0736 33.326 30.2576 33.134 30.5376 33.134C30.8176 33.134 31.0016 33.326 31.0016 33.59C31.0016 33.846 30.8176 34.046 30.5376 34.046C30.2576 34.046 30.0736 33.846 30.0736 33.59ZM33.5326 39.086C32.5086 39.086 31.9406 38.622 31.6926 37.846L32.4366 37.63C32.5806 38.126 32.8926 38.398 33.5326 38.398C34.2046 38.398 34.4686 38.166 34.4686 37.838C34.4686 37.542 34.2606 37.318 33.9006 37.27L33.0446 37.158C32.2686 37.054 31.8366 36.67 31.8366 35.966C31.8366 35.302 32.3646 34.734 33.3886 34.734C34.2846 34.734 34.8686 35.158 35.0766 35.83L34.3566 36.062C34.1966 35.654 33.9166 35.422 33.3886 35.422C32.7966 35.422 32.5646 35.678 32.5646 35.966C32.5646 36.262 32.7806 36.438 33.1406 36.486L33.9886 36.606C34.8046 36.718 35.1966 37.174 35.1966 37.838C35.1966 38.566 34.6046 39.086 33.5326 39.086ZM37.4779 39.086C36.4539 39.086 35.8859 38.622 35.6379 37.846L36.3819 37.63C36.5259 38.126 36.8379 38.398 37.4779 38.398C38.1499 38.398 38.4139 38.166 38.4139 37.838C38.4139 37.542 38.2059 37.318 37.8459 37.27L36.9899 37.158C36.2139 37.054 35.7819 36.67 35.7819 35.966C35.7819 35.302 36.3099 34.734 37.3339 34.734C38.2299 34.734 38.8139 35.158 39.0219 35.83L38.3019 36.062C38.1419 35.654 37.8619 35.422 37.3339 35.422C36.7419 35.422 36.5099 35.678 36.5099 35.966C36.5099 36.262 36.7259 36.438 37.0859 36.486L37.9339 36.606C38.7499 36.718 39.1419 37.174 39.1419 37.838C39.1419 38.566 38.5499 39.086 37.4779 39.086ZM39.9272 38.99V34.83H40.6792V38.99H39.9272ZM39.8392 33.59C39.8392 33.326 40.0232 33.134 40.3032 33.134C40.5832 33.134 40.7672 33.326 40.7672 33.59C40.7672 33.846 40.5832 34.046 40.3032 34.046C40.0232 34.046 39.8392 33.846 39.8392 33.59ZM43.6422 39.086C42.4502 39.086 41.6022 38.23 41.6022 36.91C41.6022 35.59 42.4502 34.734 43.6422 34.734C44.8262 34.734 45.6822 35.59 45.6822 36.91C45.6822 38.23 44.8262 39.086 43.6422 39.086ZM42.3862 36.91C42.3862 37.83 42.8182 38.398 43.6422 38.398C44.4502 38.398 44.8982 37.83 44.8982 36.91C44.8982 35.99 44.4502 35.422 43.6422 35.422C42.8182 35.422 42.3862 35.99 42.3862 36.91ZM46.5991 38.99V34.83H47.3511V35.326H47.3991C47.6951 34.942 48.0871 34.734 48.6151 34.734C49.5031 34.734 50.0871 35.31 50.0871 36.31V38.99H49.3351V36.454C49.3351 35.758 49.0071 35.422 48.4791 35.422C47.8071 35.422 47.3511 35.854 47.3511 36.91V38.99H46.5991ZM52.6419 39.086C51.6179 39.086 51.0499 38.622 50.8019 37.846L51.5459 37.63C51.6899 38.126 52.0019 38.398 52.6419 38.398C53.3139 38.398 53.5779 38.166 53.5779 37.838C53.5779 37.542 53.3699 37.318 53.0099 37.27L52.1539 37.158C51.3779 37.054 50.9459 36.67 50.9459 35.966C50.9459 35.302 51.4739 34.734 52.4979 34.734C53.3939 34.734 53.9779 35.158 54.1859 35.83L53.4659 36.062C53.3059 35.654 53.0259 35.422 52.4979 35.422C51.9059 35.422 51.6739 35.678 51.6739 35.966C51.6739 36.262 51.8899 36.438 52.2499 36.486L53.0979 36.606C53.9139 36.718 54.3059 37.174 54.3059 37.838C54.3059 38.566 53.7139 39.086 52.6419 39.086ZM58.2913 40.302C57.6033 39.35 57.0592 38.238 57.0592 36.766C57.0592 35.294 57.6033 34.174 58.2913 33.23H58.9953C58.2513 34.374 57.8593 35.478 57.8593 36.766C57.8593 38.054 58.2513 39.15 58.9953 40.302H58.2913ZM61.5563 40.686C60.4283 40.686 59.7963 40.182 59.5883 39.486L60.3403 39.262C60.4763 39.734 60.8443 40.014 61.5563 40.014C62.3323 40.014 62.7643 39.566 62.7643 38.926V38.286H62.7163C62.4363 38.678 61.9563 38.926 61.3803 38.926C60.2843 38.926 59.5163 38.078 59.5163 36.83C59.5163 35.59 60.3083 34.734 61.4043 34.734C61.9563 34.734 62.4043 34.966 62.7163 35.374H62.7643V34.83H63.5163V38.966C63.5163 40.006 62.7563 40.686 61.5563 40.686ZM60.3003 36.83C60.3003 37.71 60.7883 38.238 61.5403 38.238C62.2763 38.238 62.7883 37.734 62.7883 36.83C62.7883 35.942 62.2763 35.422 61.5403 35.422C60.7883 35.422 60.3003 35.95 60.3003 36.83ZM64.6381 38.99V34.83L65.3901 34.83V38.99H64.6381ZM64.5501 33.59C64.5501 33.326 64.7341 33.134 65.0141 33.134C65.2941 33.134 65.4781 33.326 65.4781 33.59C65.4781 33.846 65.2941 34.046 65.0141 34.046C64.7341 34.046 64.5501 33.846 64.5501 33.59ZM68.3531 40.686C67.2251 40.686 66.5931 40.182 66.3851 39.486L67.1371 39.262C67.2731 39.734 67.6411 40.014 68.3531 40.014C69.1291 40.014 69.5611 39.566 69.5611 38.926V38.286H69.5131C69.2331 38.678 68.7531 38.926 68.1771 38.926C67.0811 38.926 66.3131 38.078 66.3131 36.83C66.3131 35.59 67.1051 34.734 68.2011 34.734C68.7531 34.734 69.2011 34.966 69.5131 35.374H69.5611V34.83H70.3131V38.966C70.3131 40.006 69.5531 40.686 68.3531 40.686ZM67.0971 36.83C67.0971 37.71 67.5851 38.238 68.3371 38.238C69.0731 38.238 69.5851 37.734 69.5851 36.83C69.5851 35.942 69.0731 35.422 68.3371 35.422C67.5851 35.422 67.0971 35.95 67.0971 36.83ZM72.595 39.086C71.771 39.086 71.243 38.582 71.243 37.854C71.243 37.118 71.691 36.638 72.635 36.558L73.979 36.446V36.27C73.979 35.734 73.667 35.406 73.059 35.406C72.411 35.406 72.123 35.694 72.083 36.126H71.363C71.395 35.318 72.019 34.734 73.059 34.734C74.115 34.734 74.731 35.334 74.731 36.254V38.102L74.747 38.99H74.019L74.011 38.406H73.963C73.683 38.862 73.147 39.086 72.595 39.086ZM71.979 37.822C71.979 38.198 72.235 38.446 72.723 38.446C73.339 38.446 73.907 38.006 73.971 37.038L72.779 37.15C72.211 37.206 71.979 37.47 71.979 37.822ZM77.1306 39.006C76.4186 39.006 76.0426 38.614 76.0426 37.974V35.486H75.2666V34.83H76.0426V33.694H76.7946V34.83H77.8026V35.486H76.7946V37.902C76.7946 38.19 76.9306 38.318 77.2346 38.318H77.8826V39.006H77.1306ZM80.3609 39.086C79.1689 39.086 78.3209 38.23 78.3209 36.91C78.3209 35.59 79.1689 34.734 80.3609 34.734C81.5449 34.734 82.4009 35.59 82.4009 36.91C82.4009 38.23 81.5449 39.086 80.3609 39.086ZM79.1049 36.91C79.1049 37.83 79.5369 38.398 80.3609 38.398C81.1689 38.398 81.6169 37.83 81.6169 36.91C81.6169 35.99 81.1689 35.422 80.3609 35.422C79.5369 35.422 79.1049 35.99 79.1049 36.91ZM83.3178 38.99V34.83H84.0698V35.326H84.1178C84.4138 34.942 84.8058 34.734 85.3338 34.734C86.2218 34.734 86.8058 35.31 86.8058 36.31V38.99H86.0538V36.454C86.0538 35.758 85.7258 35.422 85.1978 35.422C84.5258 35.422 84.0698 35.854 84.0698 36.91V38.99H83.3178ZM87.8647 38.99V34.83H88.6167V35.326H88.6647C88.9607 34.942 89.3527 34.734 89.8807 34.734C90.7687 34.734 91.3527 35.31 91.3527 36.31V38.99H90.6007V36.454C90.6007 35.758 90.2727 35.422 89.7447 35.422C89.0727 35.422 88.6167 35.854 88.6167 36.91V38.99H87.8647ZM94.2196 39.086C93.0436 39.086 92.2116 38.23 92.2116 36.91C92.2116 35.614 93.0756 34.734 94.2276 34.734C95.3476 34.734 96.1316 35.51 96.1316 36.902V37.126H92.9796C93.0516 37.91 93.4996 38.398 94.2196 38.398C94.7876 38.398 95.1156 38.15 95.3316 37.662L96.0276 37.902C95.7636 38.654 95.1636 39.086 94.2196 39.086ZM93.0036 36.51H95.3396C95.2916 35.894 94.8756 35.422 94.2276 35.422C93.6356 35.422 93.1396 35.774 93.0036 36.51ZM98.5638 39.086C97.5398 39.086 96.9718 38.622 96.7238 37.846L97.4678 37.63C97.6118 38.126 97.9238 38.398 98.5638 38.398C99.2358 38.398 99.4998 38.166 99.4998 37.838C99.4998 37.542 99.2918 37.318 98.9318 37.27L98.0758 37.158C97.2998 37.054 96.8678 36.67 96.8678 35.966C96.8678 35.302 97.3958 34.734 98.4198 34.734C99.3158 34.734 99.8998 35.158 100.108 35.83L99.3878 36.062C99.2278 35.654 98.9478 35.422 98.4198 35.422C97.8278 35.422 97.5958 35.678 97.5958 35.966C97.5958 36.262 97.8118 36.438 98.1718 36.486L99.0198 36.606C99.8358 36.718 100.228 37.174 100.228 37.838C100.228 38.566 99.6358 39.086 98.5638 39.086ZM100.613 40.302C101.357 39.158 101.749 38.054 101.749 36.766C101.749 35.478 101.357 34.382 100.613 33.23H101.317C102.005 34.182 102.549 35.294 102.549 36.766C102.549 38.238 102.005 39.358 101.317 40.302H100.613ZM107.478 39.086C106.286 39.086 105.438 38.23 105.438 36.91C105.438 35.59 106.286 34.734 107.478 34.734C108.662 34.734 109.518 35.59 109.518 36.91C109.518 38.23 108.662 39.086 107.478 39.086ZM106.222 36.91C106.222 37.83 106.654 38.398 107.478 38.398C108.286 38.398 108.734 37.83 108.734 36.91C108.734 35.99 108.286 35.422 107.478 35.422C106.654 35.422 106.222 35.99 106.222 36.91ZM113.859 34.83V38.99H113.107V38.494H113.059C112.763 38.878 112.371 39.086 111.843 39.086C110.955 39.086 110.371 38.51 110.371 37.51V34.83H111.123V37.366C111.123 38.062 111.451 38.398 111.979 38.398C112.651 38.398 113.107 37.966 113.107 36.91V34.83H113.859ZM116.326 39.006C115.614 39.006 115.238 38.614 115.238 37.974V35.486H114.462V34.83H115.238V33.694H115.99V34.83H116.998V35.486H115.99V37.902C115.99 38.19 116.126 38.318 116.43 38.318H117.078V39.006H116.326ZM117.794 38.99V33.23H118.546V38.99H117.794ZM119.669 38.99V34.83H120.421V38.99H119.669ZM119.581 33.59C119.581 33.326 119.765 33.134 120.045 33.134C120.325 33.134 120.509 33.326 120.509 33.59C120.509 33.846 120.325 34.046 120.045 34.046C119.765 34.046 119.581 33.846 119.581 33.59ZM121.544 38.99V34.83H122.296V35.326H122.344C122.64 34.942 123.032 34.734 123.56 34.734C124.448 34.734 125.032 35.31 125.032 36.31V38.99H124.28V36.454C124.28 35.758 123.952 35.422 123.424 35.422C122.752 35.422 122.296 35.854 122.296 36.91V38.99H121.544ZM127.899 39.086C126.723 39.086 125.891 38.23 125.891 36.91C125.891 35.614 126.755 34.734 127.907 34.734C129.027 34.734 129.811 35.51 129.811 36.902V37.126H126.659C126.731 37.91 127.179 38.398 127.899 38.398C128.467 38.398 128.795 38.15 129.011 37.662L129.707 37.902C129.443 38.654 128.843 39.086 127.899 39.086ZM126.683 36.51H129.019C128.971 35.894 128.555 35.422 127.907 35.422C127.315 35.422 126.819 35.774 126.683 36.51ZM132.436 39.086C131.34 39.086 130.548 38.222 130.548 36.91C130.548 35.598 131.34 34.734 132.412 34.734C133.028 34.734 133.452 34.99 133.748 35.374H133.796V33.23H134.548V38.99H133.796V38.446H133.748C133.468 38.83 133.028 39.086 132.436 39.086ZM131.332 36.91C131.332 37.838 131.82 38.398 132.572 38.398C133.348 38.398 133.82 37.846 133.82 36.91C133.82 35.958 133.348 35.422 132.572 35.422C131.82 35.422 131.332 35.982 131.332 36.91ZM137.669 38.99V34.83H138.421V38.99H137.669ZM137.581 33.59C137.581 33.326 137.765 33.134 138.045 33.134C138.325 33.134 138.509 33.326 138.509 33.59C138.509 33.846 138.325 34.046 138.045 34.046C137.765 34.046 137.581 33.846 137.581 33.59ZM139.544 38.99V34.83H140.296V35.326H140.344C140.64 34.942 141.032 34.734 141.56 34.734C142.448 34.734 143.032 35.31 143.032 36.31V38.99H142.28V36.454C142.28 35.758 141.952 35.422 141.424 35.422C140.752 35.422 140.296 35.854 140.296 36.91V38.99H139.544ZM148.267 39.086C146.899 39.086 146.147 38.478 145.851 37.382L146.659 37.206C146.859 37.998 147.403 38.35 148.267 38.35C149.155 38.35 149.651 37.982 149.651 37.422C149.651 36.894 149.283 36.582 148.707 36.518L147.603 36.39C146.523 36.262 145.979 35.654 145.979 34.774C145.979 33.79 146.803 33.134 148.043 33.134C149.195 33.134 150.035 33.678 150.291 34.694L149.491 34.886C149.291 34.23 148.787 33.87 148.043 33.87C147.243 33.87 146.787 34.214 146.787 34.758C146.787 35.246 147.107 35.526 147.731 35.598L148.803 35.726C149.859 35.854 150.459 36.47 150.459 37.422C150.459 38.438 149.651 39.086 148.267 39.086ZM153.564 39.086C152.196 39.086 151.444 38.478 151.148 37.382L151.956 37.206C152.156 37.998 152.7 38.35 153.564 38.35C154.452 38.35 154.948 37.982 154.948 37.422C154.948 36.894 154.58 36.582 154.004 36.518L152.9 36.39C151.82 36.262 151.276 35.654 151.276 34.774C151.276 33.79 152.1 33.134 153.34 33.134C154.492 33.134 155.332 33.678 155.588 34.694L154.788 34.886C154.588 34.23 154.084 33.87 153.34 33.87C152.54 33.87 152.084 34.214 152.084 34.758C152.084 35.246 152.404 35.526 153.028 35.598L154.1 35.726C155.156 35.854 155.756 36.47 155.756 37.422C155.756 38.438 154.948 39.086 153.564 39.086ZM156.717 38.99V33.23H159.253C160.365 33.23 161.101 33.894 161.101 34.918C161.101 35.934 160.365 36.606 159.213 36.606H157.501V38.99H156.717ZM157.501 35.886H159.189C159.861 35.886 160.269 35.55 160.269 34.918C160.269 34.27 159.869 33.95 159.221 33.95H157.501V35.886ZM162.093 38.99V38.27H163.677V34.99H162.269V34.35H162.661C163.405 34.35 163.741 34.038 163.893 33.422H164.445V38.27H165.917V38.99H162.093ZM166.902 38.582C166.902 38.302 167.11 38.086 167.414 38.086C167.718 38.086 167.926 38.302 167.926 38.582C167.926 38.87 167.718 39.086 167.414 39.086C167.11 39.086 166.902 38.87 166.902 38.582ZM169.054 38.99V38.27H170.638V34.99H169.23V34.35H169.622C170.366 34.35 170.702 34.038 170.854 33.422H171.406V38.27H172.878V38.99H169.054ZM173.495 37.23V36.59H175.255V37.23H173.495ZM177.767 39.086C176.655 39.086 176.015 38.502 175.927 37.59H176.711C176.775 38.046 177.071 38.374 177.759 38.374C178.503 38.374 179.103 37.966 179.103 36.23H179.055C178.783 36.686 178.311 37.006 177.631 37.006C176.591 37.006 175.799 36.246 175.799 35.166C175.799 34.134 176.567 33.326 177.775 33.326C179.295 33.326 179.903 34.542 179.903 36.126C179.903 38.398 178.855 39.086 177.767 39.086ZM176.599 35.166C176.599 35.838 177.047 36.294 177.775 36.294C178.503 36.294 178.951 35.838 178.951 35.166C178.951 34.486 178.503 34.038 177.775 34.038C177.055 34.038 176.599 34.486 176.599 35.166Z" fill="#161814"/>
<path d="M34.5697 65.9501C31.5021 67.8494 22.0103 71.5616 17.7312 73.0724V174.51H335.328V163.719C331.994 163.719 307.486 164.151 301.651 164.151C295.864 164.151 275.81 163.071 268.808 161.561C261.806 160.05 241.133 162.856 235.131 161.561C229.129 160.266 206.789 159.618 201.621 158.539C196.452 157.46 174.279 154.654 168.277 152.28C162.275 149.906 143.936 138.914 135.267 131.561C130.432 127.46 114.761 116.021 101.59 101.129C91.4093 89.6176 81.9174 52.7846 68.2466 53.0005C63.1111 53.0815 56.2429 53.6479 51.4081 54.9429C46.5733 56.2379 38.4042 63.576 34.5697 65.9501Z" fill="#F2A17E"/>
<path d="M133.706 174.51L101.59 174.51L17.7312 174.51L133.706 174.51L135.267 174.51C144.203 174.51 162.265 176.328 168.277 176.776C175.03 177.28 196.563 179.36 201.731 179.042C206.9 178.725 229.124 180.301 235.131 180.301C241.182 180.301 261.799 181.308 268.808 181.308C275.508 181.308 295.864 181.811 301.651 181.811H335.328V174.51H135.267L133.706 174.51Z" fill="#5B663D"/>
<path d="M101.59 174.51L133.706 174.51L17.7312 174.51L101.59 174.51Z" fill="#5B663D"/>
<line opacity="0.5" x1="17.7621" y1="52.2754" x2="335.328" y2="52.2754" stroke="#747672" stroke-width="0.521505"/>
<line opacity="0.5" x1="17.7621" y1="82.8607" x2="335.328" y2="82.8607" stroke="#747672" stroke-width="0.521505"/>
<line opacity="0.5" x1="17.7621" y1="113.446" x2="335.328" y2="113.446" stroke="#747672" stroke-width="0.521505"/>
<line opacity="0.5" x1="17.7621" y1="144.031" x2="335.328" y2="144.031" stroke="#747672" stroke-width="0.521505"/>
<line opacity="0.5" x1="17.7621" y1="174.617" x2="335.328" y2="174.617" stroke="#747672" stroke-width="0.521505"/>
<line opacity="0.5" x1="17.7621" y1="205.202" x2="335.328" y2="205.202" stroke="#747672" stroke-width="0.521505"/>
<line opacity="0.5" x1="17.7621" y1="235.787" x2="335.328" y2="235.787" stroke="#747672" stroke-width="0.521505"/>
<path d="M4.71431 53.99V53.1191H2.96205V52.7123L4.74038 50.3603H5.21495V52.6758H5.72081V53.1191H5.21495V53.99H4.71431ZM3.53049 52.6758H4.71431V51.1009H4.68301L3.53049 52.6445V52.6758ZM7.54147 54.0526C6.76965 54.0526 6.18035 53.4528 6.18035 52.1752C6.18035 50.8922 6.76965 50.2977 7.54147 50.2977C8.3133 50.2977 8.9026 50.8922 8.9026 52.1752C8.9026 53.4528 8.3133 54.0526 7.54147 54.0526ZM6.70185 52.1752C6.70185 53.1347 7.01997 53.5884 7.54147 53.5884C8.06298 53.5884 8.3811 53.1347 8.3811 52.1752C8.3811 51.2104 8.06298 50.7619 7.54147 50.7619C7.01997 50.7619 6.70185 51.2104 6.70185 52.1752Z" fill="#747672"/>
<path d="M4.28667 84.5633C3.47834 84.5633 3.02463 84.12 2.99855 83.4734H3.53049C3.55135 83.8541 3.81732 84.0992 4.28667 84.0992C4.7456 84.0992 5.03764 83.8906 5.03764 83.4734C5.03764 83.0562 4.7456 82.8476 4.22931 82.8476H3.82253V82.3782H4.20845C4.66737 82.3782 4.90726 82.1592 4.90726 81.8202C4.90726 81.476 4.66737 81.2726 4.28667 81.2726C3.85904 81.2726 3.63479 81.476 3.6035 81.8254H3.10807C3.12893 81.2361 3.56178 80.8085 4.28667 80.8085C5.02721 80.8085 5.42877 81.3091 5.42877 81.815C5.42877 82.1852 5.21495 82.4199 4.87076 82.5607V82.6025C5.31404 82.7224 5.55914 83.0405 5.55914 83.5203C5.55914 84.12 5.12108 84.5633 4.28667 84.5633ZM7.54147 84.5633C6.76965 84.5633 6.18035 83.9636 6.18035 82.6859C6.18035 81.403 6.76965 80.8085 7.54147 80.8085C8.3133 80.8085 8.9026 81.403 8.9026 82.6859C8.9026 83.9636 8.3133 84.5633 7.54147 84.5633ZM6.70185 82.6859C6.70185 83.6455 7.01997 84.0992 7.54147 84.0992C8.06298 84.0992 8.3811 83.6455 8.3811 82.6859C8.3811 81.7211 8.06298 81.2726 7.54147 81.2726C7.01997 81.2726 6.70185 81.7211 6.70185 82.6859Z" fill="#747672"/>
<path d="M3.14457 114.532C3.14457 114.114 3.31146 113.833 3.78603 113.572L4.39619 113.238C4.79775 113.019 4.91769 112.811 4.91769 112.498C4.91769 112.028 4.64129 111.783 4.2606 111.783C3.84861 111.783 3.58785 112.018 3.57221 112.482H3.05592C3.05592 111.778 3.58264 111.319 4.2606 111.319C4.97506 111.319 5.43398 111.815 5.43398 112.498C5.43398 113.004 5.17845 113.343 4.63608 113.64L3.98941 113.995C3.75995 114.12 3.64522 114.24 3.64522 114.511V114.542H5.51221V115.011H3.14457V114.532ZM7.54147 115.074C6.76965 115.074 6.18035 114.474 6.18035 113.197C6.18035 111.914 6.76965 111.319 7.54147 111.319C8.3133 111.319 8.9026 111.914 8.9026 113.197C8.9026 114.474 8.3133 115.074 7.54147 115.074ZM6.70185 113.197C6.70185 114.156 7.01997 114.61 7.54147 114.61C8.06298 114.61 8.3811 114.156 8.3811 113.197C8.3811 112.232 8.06298 111.783 7.54147 111.783C7.01997 111.783 6.70185 112.232 6.70185 113.197Z" fill="#747672"/>
<path d="M3.10807 145.522V145.053H4.14065V142.915H3.2228V142.497H3.47834C3.96334 142.497 4.18237 142.294 4.28146 141.893H4.64129V145.053H5.60086V145.522H3.10807ZM7.54147 145.585C6.76965 145.585 6.18035 144.985 6.18035 143.707C6.18035 142.424 6.76965 141.83 7.54147 141.83C8.3133 141.83 8.9026 142.424 8.9026 143.707C8.9026 144.985 8.3133 145.585 7.54147 145.585ZM6.70185 143.707C6.70185 144.667 7.01997 145.121 7.54147 145.121C8.06298 145.121 8.3811 144.667 8.3811 143.707C8.3811 142.743 8.06298 142.294 7.54147 142.294C7.01997 142.294 6.70185 142.743 6.70185 143.707Z" fill="#747672"/>
<path d="M7.54147 176.096C6.76965 176.096 6.18035 175.496 6.18035 174.218C6.18035 172.935 6.76965 172.341 7.54147 172.341C8.3133 172.341 8.9026 172.935 8.9026 174.218C8.9026 175.496 8.3133 176.096 7.54147 176.096ZM6.70185 174.218C6.70185 175.178 7.01997 175.631 7.54147 175.631C8.06298 175.631 8.3811 175.178 8.3811 174.218C8.3811 173.253 8.06298 172.805 7.54147 172.805C7.01997 172.805 6.70185 173.253 6.70185 174.218Z" fill="#747672"/>
<path d="M1.46533 205.396V204.979H2.61264V205.396H1.46533ZM3.10807 206.544V206.074H4.14065V203.936H3.2228V203.519H3.47834C3.96334 203.519 4.18237 203.316 4.28146 202.914H4.64129V206.074H5.60086V206.544H3.10807ZM7.54147 206.606C6.76965 206.606 6.18035 206.007 6.18035 204.729C6.18035 203.446 6.76965 202.851 7.54147 202.851C8.3133 202.851 8.9026 203.446 8.9026 204.729C8.9026 206.007 8.3133 206.606 7.54147 206.606ZM6.70185 204.729C6.70185 205.688 7.01997 206.142 7.54147 206.142C8.06298 206.142 8.3811 205.688 8.3811 204.729C8.3811 203.764 8.06298 203.316 7.54147 203.316C7.01997 203.316 6.70185 203.764 6.70185 204.729Z" fill="#747672"/>
<path d="M1.46533 235.907V235.49H2.61264V235.907H1.46533ZM3.14457 236.575C3.14457 236.157 3.31146 235.876 3.78603 235.615L4.39619 235.281C4.79775 235.062 4.91769 234.854 4.91769 234.541C4.91769 234.071 4.64129 233.826 4.2606 233.826C3.84861 233.826 3.58785 234.061 3.57221 234.525H3.05592C3.05592 233.821 3.58264 233.362 4.2606 233.362C4.97506 233.362 5.43398 233.858 5.43398 234.541C5.43398 235.047 5.17844 235.386 4.63608 235.683L3.98941 236.038C3.75995 236.163 3.64522 236.283 3.64522 236.554V236.585H5.51221V237.054H3.14457V236.575ZM7.54147 237.117C6.76965 237.117 6.18035 236.517 6.18035 235.24C6.18035 233.957 6.76965 233.362 7.54147 233.362C8.3133 233.362 8.9026 233.957 8.9026 235.24C8.9026 236.517 8.3133 237.117 7.54147 237.117ZM6.70185 235.24C6.70185 236.199 7.01997 236.653 7.54147 236.653C8.06298 236.653 8.3811 236.199 8.3811 235.24C8.3811 234.275 8.06298 233.826 7.54147 233.826C7.01997 233.826 6.70185 234.275 6.70185 235.24Z" fill="#747672"/>
<path d="M31.2546 245.644C31.2546 245.226 31.4215 244.945 31.8961 244.684L32.5062 244.35C32.9078 244.131 33.0277 243.923 33.0277 243.61C33.0277 243.14 32.7513 242.895 32.3706 242.895C31.9587 242.895 31.6979 243.13 31.6823 243.594H31.166C31.166 242.89 31.6927 242.431 32.3706 242.431C33.0851 242.431 33.544 242.926 33.544 243.61C33.544 244.115 33.2885 244.454 32.7461 244.752L32.0995 245.106C31.87 245.232 31.7553 245.351 31.7553 245.623V245.654H33.6223V246.123H31.2546V245.644ZM35.6515 246.186C34.8797 246.186 34.2904 245.586 34.2904 244.308C34.2904 243.026 34.8797 242.431 35.6515 242.431C36.4233 242.431 37.0127 243.026 37.0127 244.308C37.0127 245.586 36.4233 246.186 35.6515 246.186ZM34.8119 244.308C34.8119 245.268 35.13 245.722 35.6515 245.722C36.173 245.722 36.4911 245.268 36.4911 244.308C36.4911 243.344 36.173 242.895 35.6515 242.895C35.13 242.895 34.8119 243.344 34.8119 244.308ZM37.686 246.123V245.654H38.7186V243.516H37.8007V243.099H38.0563C38.5413 243.099 38.7603 242.895 38.8594 242.494H39.2192V245.654H40.1788V246.123H37.686ZM42.1194 246.186C41.3476 246.186 40.7583 245.586 40.7583 244.308C40.7583 243.026 41.3476 242.431 42.1194 242.431C42.8912 242.431 43.4805 243.026 43.4805 244.308C43.4805 245.586 42.8912 246.186 42.1194 246.186ZM41.2798 244.308C41.2798 245.268 41.5979 245.722 42.1194 245.722C42.6409 245.722 42.959 245.268 42.959 244.308C42.959 243.344 42.6409 242.895 42.1194 242.895C41.5979 242.895 41.2798 243.344 41.2798 244.308Z" fill="#747672"/>
<path d="M64.0718 245.644C64.0718 245.226 64.2387 244.945 64.7133 244.684L65.3234 244.35C65.725 244.131 65.8449 243.923 65.8449 243.61C65.8449 243.14 65.5685 242.895 65.1878 242.895C64.7759 242.895 64.5151 243.13 64.4995 243.594H63.9832C63.9832 242.89 64.5099 242.431 65.1878 242.431C65.9023 242.431 66.3612 242.926 66.3612 243.61C66.3612 244.115 66.1057 244.454 65.5633 244.752L64.9167 245.106C64.6872 245.232 64.5725 245.351 64.5725 245.623V245.654H66.4395V246.123H64.0718V245.644ZM68.4687 246.186C67.6969 246.186 67.1076 245.586 67.1076 244.308C67.1076 243.026 67.6969 242.431 68.4687 242.431C69.2405 242.431 69.8299 243.026 69.8299 244.308C69.8299 245.586 69.2405 246.186 68.4687 246.186ZM67.6291 244.308C67.6291 245.268 67.9472 245.722 68.4687 245.722C68.9902 245.722 69.3083 245.268 69.3083 244.308C69.3083 243.344 68.9902 242.895 68.4687 242.895C67.9472 242.895 67.6291 243.344 67.6291 244.308ZM70.5397 245.644C70.5397 245.226 70.7066 244.945 71.1812 244.684L71.7913 244.35C72.1929 244.131 72.3128 243.923 72.3128 243.61C72.3128 243.14 72.0364 242.895 71.6557 242.895C71.2437 242.895 70.983 243.13 70.9673 243.594H70.4511C70.4511 242.89 70.9778 242.431 71.6557 242.431C72.3702 242.431 72.8291 242.926 72.8291 243.61C72.8291 244.115 72.5736 244.454 72.0312 244.752L71.3845 245.106C71.1551 245.232 71.0404 245.351 71.0404 245.623V245.654H72.9073V246.123H70.5397V245.644ZM74.9366 246.186C74.1648 246.186 73.5755 245.586 73.5755 244.308C73.5755 243.026 74.1648 242.431 74.9366 242.431C75.7084 242.431 76.2977 243.026 76.2977 244.308C76.2977 245.586 75.7084 246.186 74.9366 246.186ZM74.097 244.308C74.097 245.268 74.4151 245.722 74.9366 245.722C75.4581 245.722 75.7762 245.268 75.7762 244.308C75.7762 243.344 75.4581 242.895 74.9366 242.895C74.4151 242.895 74.097 243.344 74.097 244.308Z" fill="#747672"/>
<path d="M96.889 245.644C96.889 245.226 97.0559 244.945 97.5305 244.684L98.1406 244.35C98.5422 244.131 98.6621 243.923 98.6621 243.61C98.6621 243.14 98.3857 242.895 98.005 242.895C97.5931 242.895 97.3323 243.13 97.3167 243.594H96.8004C96.8004 242.89 97.3271 242.431 98.005 242.431C98.7195 242.431 99.1784 242.926 99.1784 243.61C99.1784 244.115 98.9229 244.454 98.3805 244.752L97.7339 245.106C97.5044 245.232 97.3897 245.351 97.3897 245.623V245.654H99.2567V246.123H96.889V245.644ZM101.286 246.186C100.514 246.186 99.9248 245.586 99.9248 244.308C99.9248 243.026 100.514 242.431 101.286 242.431C102.058 242.431 102.647 243.026 102.647 244.308C102.647 245.586 102.058 246.186 101.286 246.186ZM100.446 244.308C100.446 245.268 100.764 245.722 101.286 245.722C101.807 245.722 102.126 245.268 102.126 244.308C102.126 243.344 101.807 242.895 101.286 242.895C100.764 242.895 100.446 243.344 100.446 244.308ZM104.499 246.186C103.691 246.186 103.237 245.743 103.211 245.096H103.743C103.764 245.477 104.03 245.722 104.499 245.722C104.958 245.722 105.25 245.513 105.25 245.096C105.25 244.679 104.958 244.47 104.442 244.47H104.035V244.001H104.421C104.88 244.001 105.12 243.782 105.12 243.443C105.12 243.099 104.88 242.895 104.499 242.895C104.071 242.895 103.847 243.099 103.816 243.448H103.32C103.341 242.859 103.774 242.431 104.499 242.431C105.24 242.431 105.641 242.932 105.641 243.438C105.641 243.808 105.427 244.042 105.083 244.183V244.225C105.526 244.345 105.771 244.663 105.771 245.143C105.771 245.743 105.333 246.186 104.499 246.186ZM107.754 246.186C106.982 246.186 106.393 245.586 106.393 244.308C106.393 243.026 106.982 242.431 107.754 242.431C108.526 242.431 109.115 243.026 109.115 244.308C109.115 245.586 108.526 246.186 107.754 246.186ZM106.914 244.308C106.914 245.268 107.232 245.722 107.754 245.722C108.275 245.722 108.593 245.268 108.593 244.308C108.593 243.344 108.275 242.895 107.754 242.895C107.232 242.895 106.914 243.344 106.914 244.308Z" fill="#747672"/>
<path d="M129.706 245.644C129.706 245.226 129.873 244.945 130.348 244.684L130.958 244.35C131.359 244.131 131.479 243.923 131.479 243.61C131.479 243.14 131.203 242.895 130.822 242.895C130.41 242.895 130.149 243.13 130.134 243.594H129.618C129.618 242.89 130.144 242.431 130.822 242.431C131.537 242.431 131.996 242.926 131.996 243.61C131.996 244.115 131.74 244.454 131.198 244.752L130.551 245.106C130.322 245.232 130.207 245.351 130.207 245.623V245.654H132.074V246.123H129.706V245.644ZM134.103 246.186C133.331 246.186 132.742 245.586 132.742 244.308C132.742 243.026 133.331 242.431 134.103 242.431C134.875 242.431 135.464 243.026 135.464 244.308C135.464 245.586 134.875 246.186 134.103 246.186ZM133.263 244.308C133.263 245.268 133.582 245.722 134.103 245.722C134.625 245.722 134.943 245.268 134.943 244.308C134.943 243.344 134.625 242.895 134.103 242.895C133.582 242.895 133.263 243.344 133.263 244.308ZM137.744 246.123V245.252H135.992V244.846L137.77 242.494H138.244V244.809H138.75V245.252H138.244V246.123H137.744ZM136.56 244.809H137.744V243.234H137.713L136.56 244.778V244.809ZM140.571 246.186C139.799 246.186 139.21 245.586 139.21 244.308C139.21 243.026 139.799 242.431 140.571 242.431C141.343 242.431 141.932 243.026 141.932 244.308C141.932 245.586 141.343 246.186 140.571 246.186ZM139.731 244.308C139.731 245.268 140.05 245.722 140.571 245.722C141.093 245.722 141.411 245.268 141.411 244.308C141.411 243.344 141.093 242.895 140.571 242.895C140.05 242.895 139.731 243.344 139.731 244.308Z" fill="#747672"/>
<path d="M162.523 245.644C162.523 245.226 162.69 244.945 163.165 244.684L163.775 244.35C164.177 244.131 164.297 243.923 164.297 243.61C164.297 243.14 164.02 242.895 163.639 242.895C163.227 242.895 162.967 243.13 162.951 243.594H162.435C162.435 242.89 162.961 242.431 163.639 242.431C164.354 242.431 164.813 242.926 164.813 243.61C164.813 244.115 164.557 244.454 164.015 244.752L163.368 245.106C163.139 245.232 163.024 245.351 163.024 245.623V245.654H164.891V246.123H162.523V245.644ZM166.92 246.186C166.148 246.186 165.559 245.586 165.559 244.308C165.559 243.026 166.148 242.431 166.92 242.431C167.692 242.431 168.281 243.026 168.281 244.308C168.281 245.586 167.692 246.186 166.92 246.186ZM166.081 244.308C166.081 245.268 166.399 245.722 166.92 245.722C167.442 245.722 167.76 245.268 167.76 244.308C167.76 243.344 167.442 242.895 166.92 242.895C166.399 242.895 166.081 243.344 166.081 244.308ZM170.149 246.186C169.461 246.186 168.934 245.816 168.845 245.174H169.362C169.455 245.508 169.747 245.722 170.149 245.722C170.655 245.722 170.952 245.393 170.952 244.903C170.952 244.428 170.671 244.095 170.17 244.095C169.81 244.095 169.555 244.267 169.403 244.47L168.955 244.397L169.132 242.494H171.239V242.963H169.56L169.455 243.933H169.487C169.669 243.74 169.935 243.63 170.243 243.63C170.973 243.63 171.474 244.157 171.474 244.898C171.474 245.633 170.952 246.186 170.149 246.186ZM173.388 246.186C172.616 246.186 172.027 245.586 172.027 244.308C172.027 243.026 172.616 242.431 173.388 242.431C174.16 242.431 174.749 243.026 174.749 244.308C174.749 245.586 174.16 246.186 173.388 246.186ZM172.549 244.308C172.549 245.268 172.867 245.722 173.388 245.722C173.91 245.722 174.228 245.268 174.228 244.308C174.228 243.344 173.91 242.895 173.388 242.895C172.867 242.895 172.549 243.344 172.549 244.308Z" fill="#747672"/>
<path d="M195.341 245.644C195.341 245.226 195.508 244.945 195.982 244.684L196.592 244.35C196.994 244.131 197.114 243.923 197.114 243.61C197.114 243.14 196.837 242.895 196.457 242.895C196.045 242.895 195.784 243.13 195.768 243.594H195.252C195.252 242.89 195.779 242.431 196.457 242.431C197.171 242.431 197.63 242.926 197.63 243.61C197.63 244.115 197.374 244.454 196.832 244.752L196.185 245.106C195.956 245.232 195.841 245.351 195.841 245.623V245.654H197.708V246.123H195.341V245.644ZM199.738 246.186C198.966 246.186 198.376 245.586 198.376 244.308C198.376 243.026 198.966 242.431 199.738 242.431C200.509 242.431 201.099 243.026 201.099 244.308C201.099 245.586 200.509 246.186 199.738 246.186ZM198.898 244.308C198.898 245.268 199.216 245.722 199.738 245.722C200.259 245.722 200.577 245.268 200.577 244.308C200.577 243.344 200.259 242.895 199.738 242.895C199.216 242.895 198.898 243.344 198.898 244.308ZM203.024 246.186C202.033 246.186 201.636 245.393 201.636 244.361C201.636 242.88 202.34 242.431 203.029 242.431C203.722 242.431 204.15 242.812 204.207 243.406H203.696C203.655 243.109 203.451 242.895 203.034 242.895C202.57 242.895 202.158 243.161 202.158 244.293H202.189C202.367 243.996 202.674 243.787 203.117 243.787C203.795 243.787 204.312 244.282 204.312 244.986C204.312 245.659 203.811 246.186 203.024 246.186ZM202.257 244.986C202.257 245.43 202.549 245.722 203.024 245.722C203.493 245.722 203.79 245.43 203.79 244.986C203.79 244.548 203.498 244.251 203.024 244.251C202.549 244.251 202.257 244.548 202.257 244.986ZM206.205 246.186C205.434 246.186 204.844 245.586 204.844 244.308C204.844 243.026 205.434 242.431 206.205 242.431C206.977 242.431 207.567 243.026 207.567 244.308C207.567 245.586 206.977 246.186 206.205 246.186ZM205.366 244.308C205.366 245.268 205.684 245.722 206.205 245.722C206.727 245.722 207.045 245.268 207.045 244.308C207.045 243.344 206.727 242.895 206.205 242.895C205.684 242.895 205.366 243.344 205.366 244.308Z" fill="#747672"/>
<path d="M228.158 245.644C228.158 245.226 228.325 244.945 228.799 244.684L229.409 244.35C229.811 244.131 229.931 243.923 229.931 243.61C229.931 243.14 229.655 242.895 229.274 242.895C228.862 242.895 228.601 243.13 228.585 243.594H228.069C228.069 242.89 228.596 242.431 229.274 242.431C229.988 242.431 230.447 242.926 230.447 243.61C230.447 244.115 230.192 244.454 229.649 244.752L229.003 245.106C228.773 245.232 228.658 245.351 228.658 245.623V245.654H230.525V246.123H228.158V245.644ZM232.555 246.186C231.783 246.186 231.194 245.586 231.194 244.308C231.194 243.026 231.783 242.431 232.555 242.431C233.327 242.431 233.916 243.026 233.916 244.308C233.916 245.586 233.327 246.186 232.555 246.186ZM231.715 244.308C231.715 245.268 232.033 245.722 232.555 245.722C233.076 245.722 233.394 245.268 233.394 244.308C233.394 243.344 233.076 242.895 232.555 242.895C232.033 242.895 231.715 243.344 231.715 244.308ZM235.288 246.123C235.288 244.72 235.554 244.016 236.592 243.005V242.963H234.438V242.494H237.155V243.057C236.023 244.225 235.841 244.7 235.841 246.123H235.288ZM239.023 246.186C238.251 246.186 237.661 245.586 237.661 244.308C237.661 243.026 238.251 242.431 239.023 242.431C239.794 242.431 240.384 243.026 240.384 244.308C240.384 245.586 239.794 246.186 239.023 246.186ZM238.183 244.308C238.183 245.268 238.501 245.722 239.023 245.722C239.544 245.722 239.862 245.268 239.862 244.308C239.862 243.344 239.544 242.895 239.023 242.895C238.501 242.895 238.183 243.344 238.183 244.308Z" fill="#747672"/>
<path d="M260.975 245.644C260.975 245.226 261.142 244.945 261.616 244.684L262.227 244.35C262.628 244.131 262.748 243.923 262.748 243.61C262.748 243.14 262.472 242.895 262.091 242.895C261.679 242.895 261.418 243.13 261.403 243.594H260.886C260.886 242.89 261.413 242.431 262.091 242.431C262.806 242.431 263.264 242.926 263.264 243.61C263.264 244.115 263.009 244.454 262.467 244.752L261.82 245.106C261.59 245.232 261.476 245.351 261.476 245.623V245.654H263.343V246.123H260.975V245.644ZM265.372 246.186C264.6 246.186 264.011 245.586 264.011 244.308C264.011 243.026 264.6 242.431 265.372 242.431C266.144 242.431 266.733 243.026 266.733 244.308C266.733 245.586 266.144 246.186 265.372 246.186ZM264.532 244.308C264.532 245.268 264.85 245.722 265.372 245.722C265.893 245.722 266.212 245.268 266.212 244.308C266.212 243.344 265.893 242.895 265.372 242.895C264.85 242.895 264.532 243.344 264.532 244.308ZM268.606 246.186C267.771 246.186 267.333 245.717 267.333 245.132C267.333 244.7 267.563 244.371 267.964 244.209V244.168C267.631 244.027 267.464 243.761 267.464 243.427C267.464 242.937 267.865 242.431 268.606 242.431C269.346 242.431 269.748 242.937 269.748 243.427C269.748 243.761 269.571 244.027 269.242 244.168V244.209C269.644 244.371 269.878 244.7 269.878 245.132C269.878 245.717 269.44 246.186 268.606 246.186ZM267.855 245.085C267.855 245.487 268.147 245.722 268.606 245.722C269.065 245.722 269.357 245.487 269.357 245.085C269.357 244.668 269.065 244.449 268.606 244.449C268.147 244.449 267.855 244.668 267.855 245.085ZM267.985 243.432C267.985 243.771 268.225 243.985 268.606 243.985C268.987 243.985 269.226 243.771 269.226 243.432C269.226 243.104 268.987 242.895 268.606 242.895C268.225 242.895 267.985 243.104 267.985 243.432ZM271.84 246.186C271.068 246.186 270.479 245.586 270.479 244.308C270.479 243.026 271.068 242.431 271.84 242.431C272.612 242.431 273.201 243.026 273.201 244.308C273.201 245.586 272.612 246.186 271.84 246.186ZM271 244.308C271 245.268 271.318 245.722 271.84 245.722C272.361 245.722 272.679 245.268 272.679 244.308C272.679 243.344 272.361 242.895 271.84 242.895C271.318 242.895 271 243.344 271 244.308Z" fill="#747672"/>
<path d="M293.792 245.644C293.792 245.226 293.959 244.945 294.434 244.684L295.044 244.35C295.445 244.131 295.565 243.923 295.565 243.61C295.565 243.14 295.289 242.895 294.908 242.895C294.496 242.895 294.235 243.13 294.22 243.594H293.704C293.704 242.89 294.23 242.431 294.908 242.431C295.623 242.431 296.082 242.926 296.082 243.61C296.082 244.115 295.826 244.454 295.284 244.752L294.637 245.106C294.408 245.232 294.293 245.351 294.293 245.623V245.654H296.16V246.123H293.792V245.644ZM298.189 246.186C297.417 246.186 296.828 245.586 296.828 244.308C296.828 243.026 297.417 242.431 298.189 242.431C298.961 242.431 299.55 243.026 299.55 244.308C299.55 245.586 298.961 246.186 298.189 246.186ZM297.349 244.308C297.349 245.268 297.668 245.722 298.189 245.722C298.711 245.722 299.029 245.268 299.029 244.308C299.029 243.344 298.711 242.895 298.189 242.895C297.668 242.895 297.349 243.344 297.349 244.308ZM301.366 246.186C300.641 246.186 300.224 245.805 300.166 245.211H300.677C300.719 245.508 300.912 245.722 301.36 245.722C301.845 245.722 302.237 245.456 302.237 244.324H302.205C302.028 244.621 301.72 244.83 301.277 244.83C300.599 244.83 300.083 244.335 300.083 243.63C300.083 242.958 300.583 242.431 301.371 242.431C302.362 242.431 302.758 243.224 302.758 244.256C302.758 245.737 302.075 246.186 301.366 246.186ZM300.604 243.63C300.604 244.069 300.896 244.366 301.371 244.366C301.845 244.366 302.138 244.069 302.138 243.63C302.138 243.187 301.845 242.895 301.371 242.895C300.902 242.895 300.604 243.187 300.604 243.63ZM304.657 246.186C303.885 246.186 303.296 245.586 303.296 244.308C303.296 243.026 303.885 242.431 304.657 242.431C305.429 242.431 306.018 243.026 306.018 244.308C306.018 245.586 305.429 246.186 304.657 246.186ZM303.817 244.308C303.817 245.268 304.136 245.722 304.657 245.722C305.179 245.722 305.497 245.268 305.497 244.308C305.497 243.344 305.179 242.895 304.657 242.895C304.136 242.895 303.817 243.344 303.817 244.308Z" fill="#747672"/>
<path d="M326.609 245.644C326.609 245.226 326.776 244.945 327.251 244.684L327.861 244.35C328.263 244.131 328.383 243.923 328.383 243.61C328.383 243.14 328.106 242.895 327.725 242.895C327.313 242.895 327.053 243.13 327.037 243.594H326.521C326.521 242.89 327.047 242.431 327.725 242.431C328.44 242.431 328.899 242.926 328.899 243.61C328.899 244.115 328.643 244.454 328.101 244.752L327.454 245.106C327.225 245.232 327.11 245.351 327.11 245.623V245.654H328.977V246.123H326.609V245.644ZM329.807 246.123V245.654H330.839V243.516H329.922V243.099H330.177C330.662 243.099 330.881 242.895 330.98 242.494H331.34V245.654H332.3V246.123H329.807ZM334.24 246.186C333.468 246.186 332.879 245.586 332.879 244.308C332.879 243.026 333.468 242.431 334.24 242.431C335.012 242.431 335.601 243.026 335.601 244.308C335.601 245.586 335.012 246.186 334.24 246.186ZM333.401 244.308C333.401 245.268 333.719 245.722 334.24 245.722C334.762 245.722 335.08 245.268 335.08 244.308C335.08 243.344 334.762 242.895 334.24 242.895C333.719 242.895 333.401 243.344 333.401 244.308ZM337.474 246.186C336.702 246.186 336.113 245.586 336.113 244.308C336.113 243.026 336.702 242.431 337.474 242.431C338.246 242.431 338.835 243.026 338.835 244.308C338.835 245.586 338.246 246.186 337.474 246.186ZM336.635 244.308C336.635 245.268 336.953 245.722 337.474 245.722C337.996 245.722 338.314 245.268 338.314 244.308C338.314 243.344 337.996 242.895 337.474 242.895C336.953 242.895 336.635 243.344 336.635 244.308Z" fill="#747672"/>
<line x1="17.789" y1="236.192" x2="17.789" y2="240.067" stroke="#DBDBDB" stroke-width="0.35226"/>
<line x1="36.8125" y1="236.048" x2="36.8125" y2="239.9" stroke="#DBDBDB" stroke-width="0.35226"/>
<line x1="235.498" y1="236.048" x2="235.498" y2="239.9" stroke="#DBDBDB" stroke-width="0.35226"/>
<line x1="136.155" y1="236.048" x2="136.155" y2="239.9" stroke="#DBDBDB" stroke-width="0.35226"/>
<line x1="334.841" y1="236.048" x2="334.841" y2="239.9" stroke="#DBDBDB" stroke-width="0.35226"/>
<line x1="69.9265" y1="236.048" x2="69.9265" y2="239.9" stroke="#DBDBDB" stroke-width="0.35226"/>
<line x1="268.612" y1="236.048" x2="268.612" y2="239.9" stroke="#DBDBDB" stroke-width="0.35226"/>
<line x1="169.27" y1="236.048" x2="169.27" y2="239.9" stroke="#DBDBDB" stroke-width="0.35226"/>
<line x1="103.041" y1="236.048" x2="103.041" y2="239.9" stroke="#DBDBDB" stroke-width="0.35226"/>
<line x1="301.727" y1="236.048" x2="301.727" y2="239.9" stroke="#DBDBDB" stroke-width="0.35226"/>
<line x1="202.384" y1="236.048" x2="202.384" y2="239.9" stroke="#DBDBDB" stroke-width="0.35226"/>
<ellipse cx="8.37147" cy="269.946" rx="6.25806" ry="6.25806" fill="#F2A17E"/>
<path d="M8.3437 270.63C8.50571 270.63 8.63705 270.499 8.63705 270.337C8.63705 270.175 8.50571 270.044 8.3437 270.044C8.18169 270.044 8.05035 270.175 8.05035 270.337C8.05035 270.499 8.18169 270.63 8.3437 270.63Z" fill="white"/>
<path d="M11.0486 270.804L9.66472 270.004C9.40234 269.852 9.2407 269.572 9.2407 269.268V267.667C9.2407 267.197 8.86102 266.817 8.39265 266.817C7.92429 266.817 7.54461 267.197 7.54461 267.667V269.268C7.54461 269.571 7.38296 269.852 7.12058 270.004L5.7366 270.804C5.33099 271.039 5.19201 271.559 5.4262 271.965C5.66038 272.372 6.17904 272.511 6.58464 272.276L7.96849 271.476C8.23086 271.324 8.55416 271.324 8.81653 271.476L10.2005 272.276C10.6061 272.511 11.1248 272.372 11.359 271.965C11.5931 271.559 11.4542 271.039 11.0486 270.805V270.804Z" stroke="white" stroke-width="0.521505" stroke-miterlimit="10"/>
<path d="M17.8335 271.946V268.191H19.4867C20.2116 268.191 20.6914 268.624 20.6914 269.291C20.6914 269.954 20.2116 270.392 19.4606 270.392H18.3446V271.946H17.8335ZM18.3446 269.922H19.445C19.8831 269.922 20.149 269.703 20.149 269.291C20.149 268.869 19.8883 268.66 19.4659 268.66H18.3446V269.922ZM22.3836 272.008C21.6066 272.008 21.0538 271.45 21.0538 270.59C21.0538 269.729 21.6066 269.171 22.3836 269.171C23.1554 269.171 23.7134 269.729 23.7134 270.59C23.7134 271.45 23.1554 272.008 22.3836 272.008ZM21.5648 270.59C21.5648 271.19 21.8464 271.56 22.3836 271.56C22.9103 271.56 23.2024 271.19 23.2024 270.59C23.2024 269.99 22.9103 269.62 22.3836 269.62C21.8464 269.62 21.5648 269.99 21.5648 270.59ZM25.2863 272.008C24.6188 272.008 24.2485 271.706 24.0869 271.2L24.5719 271.059C24.6658 271.383 24.8691 271.56 25.2863 271.56C25.7244 271.56 25.8965 271.409 25.8965 271.195C25.8965 271.002 25.7609 270.856 25.5262 270.825L24.9682 270.752C24.4624 270.684 24.1808 270.433 24.1808 269.975C24.1808 269.542 24.5249 269.171 25.1925 269.171C25.7766 269.171 26.1573 269.448 26.2929 269.886L25.8235 270.037C25.7192 269.771 25.5367 269.62 25.1925 269.62C24.8066 269.62 24.6553 269.787 24.6553 269.975C24.6553 270.167 24.7961 270.282 25.0308 270.313L25.5836 270.392C26.1155 270.465 26.3711 270.762 26.3711 271.195C26.3711 271.669 25.9852 272.008 25.2863 272.008ZM26.883 271.946V269.234H27.3732V271.946H26.883ZM26.8256 268.426C26.8256 268.254 26.9456 268.128 27.1281 268.128C27.3106 268.128 27.4306 268.254 27.4306 268.426C27.4306 268.593 27.3106 268.723 27.1281 268.723C26.9456 268.723 26.8256 268.593 26.8256 268.426ZM28.9814 271.956C28.5173 271.956 28.2722 271.701 28.2722 271.283V269.662H27.7663V269.234H28.2722V268.493H28.7624V269.234H29.4195V269.662H28.7624V271.237C28.7624 271.424 28.851 271.508 29.0492 271.508H29.4716V271.956H28.9814ZM29.9387 271.946V269.234H30.4289V271.946H29.9387ZM29.8813 268.426C29.8813 268.254 30.0013 268.128 30.1838 268.128C30.3663 268.128 30.4863 268.254 30.4863 268.426C30.4863 268.593 30.3663 268.723 30.1838 268.723C30.0013 268.723 29.8813 268.593 29.8813 268.426ZM31.8598 271.946L30.8272 269.234H31.3748L32.1362 271.351H32.1988L32.9602 269.234H33.4869L32.4543 271.946H31.8598ZM35.0133 272.008C34.2467 272.008 33.7043 271.45 33.7043 270.59C33.7043 269.745 34.2676 269.171 35.0185 269.171C35.7486 269.171 36.2597 269.677 36.2597 270.585V270.731H34.205C34.2519 271.242 34.544 271.56 35.0133 271.56C35.3836 271.56 35.5974 271.398 35.7382 271.08L36.1919 271.237C36.0198 271.727 35.6287 272.008 35.0133 272.008ZM34.2206 270.329H35.7434C35.7121 269.928 35.4409 269.62 35.0185 269.62C34.6326 269.62 34.3093 269.849 34.2206 270.329ZM39.3524 272.008C38.5858 272.008 38.0434 271.45 38.0434 270.59C38.0434 269.745 38.6066 269.171 39.3576 269.171C40.0877 269.171 40.5988 269.677 40.5988 270.585V270.731H38.5441C38.591 271.242 38.883 271.56 39.3524 271.56C39.7227 271.56 39.9365 271.398 40.0773 271.08L40.531 271.237C40.3589 271.727 39.9678 272.008 39.3524 272.008ZM38.5597 270.329H40.0825C40.0512 269.928 39.78 269.62 39.3576 269.62C38.9717 269.62 38.6484 269.849 38.5597 270.329ZM41.2091 271.946V269.234H41.6993V269.542H41.7306C41.9079 269.302 42.1374 269.171 42.4764 269.171C42.8571 269.171 43.1335 269.338 43.2743 269.62H43.3004C43.4933 269.328 43.7541 269.171 44.1452 269.171C44.6876 269.171 45.0683 269.547 45.0683 270.136V271.946H44.578V270.256C44.578 269.839 44.3851 269.62 44.0565 269.62C43.6446 269.62 43.3838 269.881 43.3838 270.506V271.946H42.8936V270.256C42.8936 269.839 42.7006 269.62 42.3721 269.62C41.9601 269.62 41.6993 269.881 41.6993 270.506V271.946H41.2091ZM45.757 271.946V269.234H46.2472V271.946H45.757ZM45.6997 268.426C45.6997 268.254 45.8196 268.128 46.0021 268.128C46.1847 268.128 46.3046 268.254 46.3046 268.426C46.3046 268.593 46.1847 268.723 46.0021 268.723C45.8196 268.723 45.6997 268.593 45.6997 268.426ZM47.9545 272.008C47.287 272.008 46.9167 271.706 46.755 271.2L47.24 271.059C47.3339 271.383 47.5373 271.56 47.9545 271.56C48.3926 271.56 48.5647 271.409 48.5647 271.195C48.5647 271.002 48.4291 270.856 48.1944 270.825L47.6364 270.752C47.1305 270.684 46.8489 270.433 46.8489 269.975C46.8489 269.542 47.1931 269.171 47.8606 269.171C48.4447 269.171 48.8254 269.448 48.961 269.886L48.4917 270.037C48.3874 269.771 48.2048 269.62 47.8606 269.62C47.4747 269.62 47.3235 269.787 47.3235 269.975C47.3235 270.167 47.4643 270.282 47.699 270.313L48.2518 270.392C48.7837 270.465 49.0392 270.762 49.0392 271.195C49.0392 271.669 48.6533 272.008 47.9545 272.008ZM50.5264 272.008C49.8589 272.008 49.4886 271.706 49.3269 271.2L49.8119 271.059C49.9058 271.383 50.1092 271.56 50.5264 271.56C50.9645 271.56 51.1365 271.409 51.1365 271.195C51.1365 271.002 51.001 270.856 50.7663 270.825L50.2083 270.752C49.7024 270.684 49.4208 270.433 49.4208 269.975C49.4208 269.542 49.765 269.171 50.4325 269.171C51.0166 269.171 51.3973 269.448 51.5329 269.886L51.0635 270.037C50.9592 269.771 50.7767 269.62 50.4325 269.62C50.0466 269.62 49.8954 269.787 49.8954 269.975C49.8954 270.167 50.0362 270.282 50.2709 270.313L50.8236 270.392C51.3556 270.465 51.6111 270.762 51.6111 271.195C51.6111 271.669 51.2252 272.008 50.5264 272.008ZM52.123 271.946V269.234H52.6133V271.946H52.123ZM52.0657 268.426C52.0657 268.254 52.1856 268.128 52.3682 268.128C52.5507 268.128 52.6706 268.254 52.6706 268.426C52.6706 268.593 52.5507 268.723 52.3682 268.723C52.1856 268.723 52.0657 268.593 52.0657 268.426ZM54.5448 272.008C53.7677 272.008 53.215 271.45 53.215 270.59C53.215 269.729 53.7677 269.171 54.5448 269.171C55.3166 269.171 55.8746 269.729 55.8746 270.59C55.8746 271.45 55.3166 272.008 54.5448 272.008ZM53.726 270.59C53.726 271.19 54.0076 271.56 54.5448 271.56C55.0715 271.56 55.3636 271.19 55.3636 270.59C55.3636 269.99 55.0715 269.62 54.5448 269.62C54.0076 269.62 53.726 269.99 53.726 270.59ZM56.4723 271.946V269.234H56.9625V269.557H56.9938C57.1868 269.307 57.4423 269.171 57.7865 269.171C58.3654 269.171 58.7461 269.547 58.7461 270.199V271.946H58.2559V270.293C58.2559 269.839 58.0421 269.62 57.6979 269.62C57.2598 269.62 56.9625 269.901 56.9625 270.59V271.946H56.4723ZM60.4116 272.008C59.744 272.008 59.3738 271.706 59.2121 271.2L59.6971 271.059C59.791 271.383 59.9944 271.56 60.4116 271.56C60.8496 271.56 61.0217 271.409 61.0217 271.195C61.0217 271.002 60.8861 270.856 60.6515 270.825L60.0934 270.752C59.5876 270.684 59.306 270.433 59.306 269.975C59.306 269.542 59.6502 269.171 60.3177 269.171C60.9018 269.171 61.2825 269.448 61.4181 269.886L60.9487 270.037C60.8444 269.771 60.6619 269.62 60.3177 269.62C59.9318 269.62 59.7805 269.787 59.7805 269.975C59.7805 270.167 59.9213 270.282 60.156 270.313L60.7088 270.392C61.2408 270.465 61.4963 270.762 61.4963 271.195C61.4963 271.669 61.1104 272.008 60.4116 272.008Z" fill="#161814"/>
<ellipse cx="82.7961" cy="269.946" rx="6.25806" ry="6.25806" fill="#5B663D"/>
<path d="M83.0051 270.239V273.075" stroke="white" stroke-width="0.521505" stroke-miterlimit="10"/>
<path d="M86.4275 269.841C86.4275 270.763 85.6722 271.51 84.7408 271.51H81.2694C80.3381 271.51 79.5827 270.763 79.5827 269.841C79.5827 268.919 80.338 268.172 81.2694 268.172C81.2955 268.172 81.3216 268.172 81.3476 268.174C81.4952 267.401 82.181 266.817 83.0045 266.817C83.828 266.817 84.5138 267.401 84.6614 268.174C84.6875 268.172 84.7147 268.172 84.7408 268.172C85.6721 268.172 86.4275 268.919 86.4275 269.841Z" stroke="white" stroke-width="0.521505" stroke-miterlimit="10"/>
<path d="M84.0807 269.261L83.054 270.337L82.0273 269.261" stroke="white" stroke-width="0.521505" stroke-miterlimit="10"/>
<path d="M92.2581 271.946V268.191H92.9726L94.8604 271.403H94.9074V268.191H95.3976V271.946H94.6362L92.7953 268.78H92.7483V271.946H92.2581ZM96.9047 272.008C96.3676 272.008 96.0234 271.68 96.0234 271.205C96.0234 270.725 96.3154 270.413 96.9308 270.36L97.8069 270.287V270.173C97.8069 269.823 97.6035 269.609 97.2072 269.609C96.7848 269.609 96.597 269.797 96.571 270.079H96.1016C96.1225 269.552 96.5292 269.171 97.2072 269.171C97.8956 269.171 98.2971 269.563 98.2971 270.162V271.367L98.3076 271.946H97.833L97.8278 271.565H97.7965C97.614 271.862 97.2646 272.008 96.9047 272.008ZM96.5032 271.184C96.5032 271.43 96.67 271.591 96.9882 271.591C97.3897 271.591 97.76 271.304 97.8017 270.673L97.0247 270.746C96.6544 270.783 96.5032 270.955 96.5032 271.184ZM99.8614 271.956C99.3972 271.956 99.1521 271.701 99.1521 271.283V269.662H98.6463V269.234H99.1521V268.493H99.6423V269.234H100.299V269.662H99.6423V271.237C99.6423 271.424 99.731 271.508 99.9292 271.508H100.352V271.956H99.8614ZM103.051 269.234V271.946H102.56V271.622H102.529C102.336 271.873 102.081 272.008 101.737 272.008C101.158 272.008 100.777 271.633 100.777 270.981V269.234H101.267V270.887C101.267 271.341 101.481 271.56 101.825 271.56C102.263 271.56 102.56 271.278 102.56 270.59V269.234H103.051ZM103.783 271.946V269.234H104.273V269.672H104.304C104.45 269.39 104.721 269.171 105.165 269.171H105.316V269.672H105.092C104.586 269.672 104.273 270.011 104.273 270.689V271.946H103.783ZM106.382 272.008C105.845 272.008 105.501 271.68 105.501 271.205C105.501 270.725 105.793 270.413 106.409 270.36L107.285 270.287V270.173C107.285 269.823 107.081 269.609 106.685 269.609C106.263 269.609 106.075 269.797 106.049 270.079H105.579C105.6 269.552 106.007 269.171 106.685 269.171C107.373 269.171 107.775 269.563 107.775 270.162V271.367L107.785 271.946H107.311L107.306 271.565H107.274C107.092 271.862 106.742 272.008 106.382 272.008ZM105.981 271.184C105.981 271.43 106.148 271.591 106.466 271.591C106.867 271.591 107.238 271.304 107.279 270.673L106.502 270.746C106.132 270.783 105.981 270.955 105.981 271.184ZM108.463 271.946V268.191H108.953V271.946H108.463ZM112.204 272.008C111.432 272.008 110.859 271.45 110.859 270.59C110.859 269.729 111.438 269.171 112.204 269.171C112.861 269.171 113.341 269.568 113.43 270.178L112.95 270.256C112.877 269.886 112.642 269.62 112.204 269.62C111.677 269.62 111.37 269.99 111.37 270.59C111.37 271.19 111.672 271.56 112.204 271.56C112.642 271.56 112.866 271.294 112.945 270.918L113.424 271.033C113.341 271.612 112.861 272.008 112.204 272.008ZM113.968 271.946V268.191H114.459V271.946H113.968ZM115.191 271.946V269.234H115.681V271.946H115.191ZM115.133 268.426C115.133 268.254 115.253 268.128 115.436 268.128C115.618 268.128 115.738 268.254 115.738 268.426C115.738 268.593 115.618 268.723 115.436 268.723C115.253 268.723 115.133 268.593 115.133 268.426ZM116.413 271.946V269.234H116.903V269.542H116.934C117.112 269.302 117.341 269.171 117.68 269.171C118.061 269.171 118.337 269.338 118.478 269.62H118.504C118.697 269.328 118.958 269.171 119.349 269.171C119.891 269.171 120.272 269.547 120.272 270.136V271.946H119.782V270.256C119.782 269.839 119.589 269.62 119.26 269.62C118.848 269.62 118.588 269.881 118.588 270.506V271.946H118.097V270.256C118.097 269.839 117.904 269.62 117.576 269.62C117.164 269.62 116.903 269.881 116.903 270.506V271.946H116.413ZM121.717 272.008C121.18 272.008 120.836 271.68 120.836 271.205C120.836 270.725 121.128 270.413 121.743 270.36L122.619 270.287V270.173C122.619 269.823 122.416 269.609 122.019 269.609C121.597 269.609 121.409 269.797 121.383 270.079H120.914C120.935 269.552 121.341 269.171 122.019 269.171C122.708 269.171 123.109 269.563 123.109 270.162V271.367L123.12 271.946H122.645L122.64 271.565H122.609C122.426 271.862 122.077 272.008 121.717 272.008ZM121.315 271.184C121.315 271.43 121.482 271.591 121.8 271.591C122.202 271.591 122.572 271.304 122.614 270.673L121.837 270.746C121.467 270.783 121.315 270.955 121.315 271.184ZM124.674 271.956C124.209 271.956 123.964 271.701 123.964 271.283V269.662H123.459V269.234H123.964V268.493H124.455V269.234H125.112V269.662H124.455V271.237C124.455 271.424 124.543 271.508 124.741 271.508H125.164V271.956H124.674ZM126.759 272.008C125.992 272.008 125.45 271.45 125.45 270.59C125.45 269.745 126.013 269.171 126.764 269.171C127.494 269.171 128.005 269.677 128.005 270.585V270.731H125.95C125.997 271.242 126.289 271.56 126.759 271.56C127.129 271.56 127.343 271.398 127.483 271.08L127.937 271.237C127.765 271.727 127.374 272.008 126.759 272.008ZM125.966 270.329H127.489C127.457 269.928 127.186 269.62 126.764 269.62C126.378 269.62 126.055 269.849 125.966 270.329ZM130.894 272.008C130.227 272.008 129.856 271.706 129.695 271.2L130.18 271.059C130.274 271.383 130.477 271.56 130.894 271.56C131.332 271.56 131.504 271.409 131.504 271.195C131.504 271.002 131.369 270.856 131.134 270.825L130.576 270.752C130.07 270.684 129.789 270.433 129.789 269.975C129.789 269.542 130.133 269.171 130.8 269.171C131.384 269.171 131.765 269.448 131.901 269.886L131.431 270.037C131.327 269.771 131.145 269.62 130.8 269.62C130.414 269.62 130.263 269.787 130.263 269.975C130.263 270.167 130.404 270.282 130.639 270.313L131.192 270.392C131.723 270.465 131.979 270.762 131.979 271.195C131.979 271.669 131.593 272.008 130.894 272.008ZM133.69 272.008C132.913 272.008 132.361 271.45 132.361 270.59C132.361 269.729 132.913 269.171 133.69 269.171C134.462 269.171 135.02 269.729 135.02 270.59C135.02 271.45 134.462 272.008 133.69 272.008ZM132.872 270.59C132.872 271.19 133.153 271.56 133.69 271.56C134.217 271.56 134.509 271.19 134.509 270.59C134.509 269.99 134.217 269.62 133.69 269.62C133.153 269.62 132.872 269.99 132.872 270.59ZM135.618 271.946V268.191H136.108V271.946H135.618ZM139.072 269.234V271.946H138.582V271.622H138.551C138.358 271.873 138.102 272.008 137.758 272.008C137.179 272.008 136.798 271.633 136.798 270.981V269.234H137.289V270.887C137.289 271.341 137.503 271.56 137.847 271.56C138.285 271.56 138.582 271.278 138.582 270.59V269.234H139.072ZM140.68 271.956C140.216 271.956 139.971 271.701 139.971 271.283V269.662H139.465V269.234H139.971V268.493H140.461V269.234H141.118V269.662H140.461V271.237C140.461 271.424 140.55 271.508 140.748 271.508H141.171V271.956H140.68ZM141.638 271.946V269.234H142.128V271.946H141.638ZM141.58 268.426C141.58 268.254 141.7 268.128 141.883 268.128C142.065 268.128 142.185 268.254 142.185 268.426C142.185 268.593 142.065 268.723 141.883 268.723C141.7 268.723 141.58 268.593 141.58 268.426ZM144.059 272.008C143.282 272.008 142.73 271.45 142.73 270.59C142.73 269.729 143.282 269.171 144.059 269.171C144.831 269.171 145.389 269.729 145.389 270.59C145.389 271.45 144.831 272.008 144.059 272.008ZM143.241 270.59C143.241 271.19 143.522 271.56 144.059 271.56C144.586 271.56 144.878 271.19 144.878 270.59C144.878 269.99 144.586 269.62 144.059 269.62C143.522 269.62 143.241 269.99 143.241 270.59ZM145.987 271.946V269.234H146.477V269.557H146.508C146.701 269.307 146.957 269.171 147.301 269.171C147.88 269.171 148.261 269.547 148.261 270.199V271.946H147.77V270.293C147.77 269.839 147.557 269.62 147.212 269.62C146.774 269.62 146.477 269.901 146.477 270.59V271.946H145.987ZM149.926 272.008C149.259 272.008 148.888 271.706 148.727 271.2L149.212 271.059C149.306 271.383 149.509 271.56 149.926 271.56C150.364 271.56 150.536 271.409 150.536 271.195C150.536 271.002 150.401 270.856 150.166 270.825L149.608 270.752C149.102 270.684 148.821 270.433 148.821 269.975C148.821 269.542 149.165 269.171 149.832 269.171C150.416 269.171 150.797 269.448 150.933 269.886L150.463 270.037C150.359 269.771 150.176 269.62 149.832 269.62C149.446 269.62 149.295 269.787 149.295 269.975C149.295 270.167 149.436 270.282 149.671 270.313L150.223 270.392C150.755 270.465 151.011 270.762 151.011 271.195C151.011 271.669 150.625 272.008 149.926 272.008Z" fill="#161814"/>
</svg>
