<svg width="343" height="276" viewBox="0 0 343 276" fill="none" xmlns="http://www.w3.org/2000/svg">
<path d="M0.9 11.2039L0.9 2.56386L6.576 2.56386L6.576 3.35586L1.728 3.35586L1.728 6.41586L6.264 6.41586V7.19586L1.728 7.19586L1.728 10.4119L6.744 10.4119V11.2039L0.9 11.2039ZM9.35813 11.2039L6.92213 4.96386H7.79813L9.81413 10.2439H9.92213L11.9261 4.96386H12.7781L10.3541 11.2039H9.35813ZM15.9732 11.3479C14.2332 11.3479 13.0332 10.0399 13.0332 8.08386C13.0332 6.06786 14.3292 4.81986 15.9852 4.81986C17.6052 4.81986 18.7692 5.99586 18.7692 7.95186V8.22786L13.8612 8.22786C13.9092 9.59586 14.6532 10.5919 15.9732 10.5919C16.9812 10.5919 17.5572 10.1599 17.8932 9.23586L18.6492 9.46386C18.2652 10.6759 17.3652 11.3479 15.9732 11.3479ZM13.8972 7.50786H17.8932C17.8212 6.40386 17.1012 5.57586 15.9852 5.57586C14.9892 5.57586 14.1012 6.19986 13.8972 7.50786ZM19.9958 11.2039V4.96386H20.7998V5.82786H20.8598C21.3038 5.16786 21.9878 4.81986 22.8398 4.81986C24.2438 4.81986 25.0958 5.74386 25.0958 7.26786V11.2039H24.2918V7.47186C24.2918 6.23586 23.7758 5.55186 22.7678 5.55186C21.5918 5.55186 20.7998 6.19986 20.7998 8.20386V11.2039H19.9958ZM31.1376 11.2279C30.2016 11.2279 29.6856 10.7119 29.6856 9.85986V5.69586H28.4616V4.96386H29.6856V3.25986H30.4896V4.96386H32.0616V5.69586H30.4896V9.75186C30.4896 10.2559 30.7296 10.4719 31.2456 10.4719H32.1816V11.2279H31.1376ZM33.0454 11.2039V2.56386H33.8494V5.83986H33.9094C34.3534 5.16786 35.0374 4.81986 35.8894 4.81986C37.2934 4.81986 38.1454 5.74386 38.1454 7.26786V11.2039H37.3414V7.48386C37.3414 6.23586 36.8254 5.55186 35.8174 5.55186C34.6414 5.55186 33.8494 6.19986 33.8494 8.20386V11.2039H33.0454ZM42.1951 11.3479C40.4551 11.3479 39.2551 10.0399 39.2551 8.08386C39.2551 6.06786 40.5511 4.81986 42.2071 4.81986C43.8271 4.81986 44.9911 5.99586 44.9911 7.95186V8.22786H40.0831C40.1311 9.59586 40.8751 10.5919 42.1951 10.5919C43.2031 10.5919 43.7791 10.1599 44.1151 9.23586L44.8711 9.46386C44.4871 10.6759 43.5871 11.3479 42.1951 11.3479ZM40.1191 7.50786L44.1151 7.50786C44.0431 6.40386 43.3231 5.57586 42.2071 5.57586C41.2111 5.57586 40.3231 6.19986 40.1191 7.50786ZM48.9777 11.2039V4.96386H49.7817V5.70786H49.8417C50.2137 5.15586 50.8017 4.81986 51.5937 4.81986C52.5537 4.81986 53.1897 5.28786 53.4657 5.93586H53.5137C53.9217 5.22786 54.5817 4.81986 55.4937 4.81986C56.7537 4.81986 57.6057 5.67186 57.6057 7.01586V11.2039H56.8017V7.24386C56.8017 6.16386 56.3217 5.55186 55.4097 5.55186C54.3777 5.55186 53.6937 6.11586 53.6937 7.86786V11.2039H52.8897V7.24386C52.8897 6.16386 52.3977 5.55186 51.4977 5.55186C50.4657 5.55186 49.7817 6.11586 49.7817 7.86786V11.2039L48.9777 11.2039ZM61.7028 11.3479C59.9148 11.3479 58.7148 10.0399 58.7148 8.08386C58.7148 6.12786 59.9148 4.81986 61.7028 4.81986C63.4908 4.81986 64.6908 6.12786 64.6908 8.08386C64.6908 10.0399 63.4908 11.3479 61.7028 11.3479ZM59.5668 8.08386C59.5668 9.59586 60.3108 10.5919 61.7028 10.5919C63.0828 10.5919 63.8508 9.59586 63.8508 8.08386C63.8508 6.57186 63.0828 5.57586 61.7028 5.57586C60.3108 5.57586 59.5668 6.57186 59.5668 8.08386ZM68.0961 11.3479C66.6921 11.3479 65.8041 10.6879 65.4321 9.45186L66.2361 9.23586C66.5001 10.1239 67.0641 10.5919 68.0961 10.5919C69.2001 10.5919 69.7281 10.1359 69.7281 9.51186C69.7281 8.94786 69.3801 8.52786 68.6361 8.44386L67.3161 8.27586C66.2721 8.13186 65.6481 7.55586 65.6481 6.58386C65.6481 5.65986 66.3801 4.81986 67.8681 4.81986C69.1881 4.81986 70.0401 5.47986 70.3521 6.54786L69.5841 6.77586C69.3081 5.98386 68.7921 5.57586 67.8681 5.57586C66.8721 5.57586 66.4401 6.03186 66.4401 6.58386C66.4401 7.12386 66.8241 7.44786 67.4361 7.51986L68.7321 7.69986C69.9561 7.85586 70.5201 8.49186 70.5201 9.51186C70.5201 10.5439 69.7281 11.3479 68.0961 11.3479ZM73.4263 11.2279C72.4903 11.2279 71.9743 10.7119 71.9743 9.85986V5.69586H70.7503V4.96386H71.9743V3.25986H72.7783V4.96386H74.3503V5.69586H72.7783V9.75186C72.7783 10.2559 73.0183 10.4719 73.5343 10.4719H74.4703V11.2279H73.4263ZM80.7701 11.3479C78.9821 11.3479 77.7821 10.0399 77.7821 8.08386C77.7821 6.12786 78.9821 4.81986 80.7701 4.81986C82.5581 4.81986 83.7581 6.12786 83.7581 8.08386C83.7581 10.0399 82.5581 11.3479 80.7701 11.3479ZM78.6341 8.08386C78.6341 9.59586 79.3781 10.5919 80.7701 10.5919C82.1501 10.5919 82.9181 9.59586 82.9181 8.08386C82.9181 6.57186 82.1501 5.57586 80.7701 5.57586C79.3781 5.57586 78.6341 6.57186 78.6341 8.08386ZM84.9674 13.6039V4.96386L85.7714 4.96386V5.89986H85.8314C86.2514 5.27586 86.9594 4.81986 87.9554 4.81986C89.6714 4.81986 90.8354 6.12786 90.8354 8.08386C90.8354 10.0399 89.6714 11.3479 87.9674 11.3479C86.9594 11.3479 86.2634 10.8919 85.8314 10.2679H85.7714V13.6039H84.9674ZM85.7474 8.08386C85.7474 9.61986 86.4914 10.6039 87.8714 10.6039C89.1914 10.6039 89.9714 9.63186 89.9714 8.08386C89.9714 6.53586 89.1914 5.56386 87.8714 5.56386C86.4914 5.56386 85.7474 6.55986 85.7474 8.08386ZM93.8999 11.2279C92.9639 11.2279 92.4479 10.7119 92.4479 9.85986V5.69586H91.2239V4.96386H92.4479V3.25986L93.2519 3.25986V4.96386H94.8239V5.69586H93.2519V9.75186C93.2519 10.2559 93.4919 10.4719 94.0079 10.4719H94.9439V11.2279H93.8999ZM95.8077 11.2039V4.96386H96.6117V11.2039H95.8077ZM95.6637 2.95986C95.6637 2.65986 95.8797 2.41986 96.2157 2.41986C96.5397 2.41986 96.7557 2.65986 96.7557 2.95986C96.7557 3.24786 96.5397 3.48786 96.2157 3.48786C95.8797 3.48786 95.6637 3.24786 95.6637 2.95986ZM98.1224 11.2039V4.96386H98.9264V5.70786H98.9864C99.3584 5.15586 99.9464 4.81986 100.738 4.81986C101.698 4.81986 102.334 5.28786 102.61 5.93586H102.658C103.066 5.22786 103.726 4.81986 104.638 4.81986C105.898 4.81986 106.75 5.67186 106.75 7.01586V11.2039H105.946V7.24386C105.946 6.16386 105.466 5.55186 104.554 5.55186C103.522 5.55186 102.838 6.11586 102.838 7.86786V11.2039H102.034V7.24386C102.034 6.16386 101.542 5.55186 100.642 5.55186C99.6104 5.55186 98.9264 6.11586 98.9264 7.86786V11.2039H98.1224ZM108.171 11.2039V4.96386H108.975V11.2039H108.171ZM108.027 2.95986C108.027 2.65986 108.243 2.41986 108.579 2.41986C108.903 2.41986 109.119 2.65986 109.119 2.95986C109.119 3.24786 108.903 3.48786 108.579 3.48786C108.243 3.48786 108.027 3.24786 108.027 2.95986ZM112.682 11.3479C111.278 11.3479 110.39 10.6879 110.018 9.45186L110.822 9.23586C111.086 10.1239 111.65 10.5919 112.682 10.5919C113.786 10.5919 114.314 10.1359 114.314 9.51186C114.314 8.94786 113.966 8.52786 113.222 8.44386L111.902 8.27586C110.858 8.13186 110.234 7.55586 110.234 6.58386C110.234 5.65986 110.966 4.81986 112.454 4.81986C113.774 4.81986 114.626 5.47986 114.938 6.54786L114.17 6.77586C113.894 5.98386 113.378 5.57586 112.454 5.57586C111.458 5.57586 111.026 6.03186 111.026 6.58386C111.026 7.12386 111.41 7.44786 112.022 7.51986L113.318 7.69986C114.542 7.85586 115.106 8.49186 115.106 9.51186C115.106 10.5439 114.314 11.3479 112.682 11.3479ZM118.012 11.2279C117.076 11.2279 116.56 10.7119 116.56 9.85986V5.69586H115.336V4.96386H116.56V3.25986H117.364V4.96386L118.936 4.96386V5.69586L117.364 5.69586V9.75186C117.364 10.2559 117.604 10.4719 118.12 10.4719H119.056V11.2279H118.012ZM119.92 11.2039V4.96386H120.724V11.2039H119.92ZM119.776 2.95986C119.776 2.65986 119.992 2.41986 120.328 2.41986C120.652 2.41986 120.868 2.65986 120.868 2.95986C120.868 3.24786 120.652 3.48786 120.328 3.48786C119.992 3.48786 119.776 3.24786 119.776 2.95986ZM124.923 11.3479C123.159 11.3479 121.923 10.0399 121.923 8.08386C121.923 6.11586 123.183 4.81986 124.923 4.81986C126.399 4.81986 127.503 5.71986 127.707 7.14786L126.915 7.26786C126.723 6.22386 126.063 5.57586 124.923 5.57586C123.591 5.57586 122.775 6.57186 122.775 8.08386C122.775 9.59586 123.591 10.5919 124.923 10.5919C126.087 10.5919 126.711 9.94386 126.915 8.89986L127.707 9.05586C127.503 10.4479 126.435 11.3479 124.923 11.3479ZM133.677 11.3479C132.273 11.3479 131.385 10.6879 131.013 9.45186L131.817 9.23586C132.081 10.1239 132.645 10.5919 133.677 10.5919C134.781 10.5919 135.309 10.1359 135.309 9.51186C135.309 8.94786 134.961 8.52786 134.217 8.44386L132.897 8.27586C131.853 8.13186 131.229 7.55586 131.229 6.58386C131.229 5.65986 131.961 4.81986 133.449 4.81986C134.769 4.81986 135.621 5.47986 135.933 6.54786L135.165 6.77586C134.889 5.98386 134.373 5.57586 133.449 5.57586C132.453 5.57586 132.021 6.03186 132.021 6.58386C132.021 7.12386 132.405 7.44786 133.017 7.51986L134.313 7.69986C135.537 7.85586 136.101 8.49186 136.101 9.51186C136.101 10.5439 135.309 11.3479 133.677 11.3479ZM139.836 11.3479C138.072 11.3479 136.836 10.0399 136.836 8.08386C136.836 6.11586 138.096 4.81986 139.836 4.81986C141.312 4.81986 142.416 5.71986 142.62 7.14786L141.828 7.26786C141.636 6.22386 140.976 5.57586 139.836 5.57586C138.504 5.57586 137.688 6.57186 137.688 8.08386C137.688 9.59586 138.504 10.5919 139.836 10.5919C141 10.5919 141.624 9.94386 141.828 8.89986L142.62 9.05586C142.416 10.4479 141.348 11.3479 139.836 11.3479ZM146.262 11.3479C144.522 11.3479 143.322 10.0399 143.322 8.08386C143.322 6.06786 144.618 4.81986 146.274 4.81986C147.894 4.81986 149.058 5.99586 149.058 7.95186V8.22786H144.15C144.198 9.59586 144.942 10.5919 146.262 10.5919C147.27 10.5919 147.846 10.1599 148.182 9.23586L148.938 9.46386C148.554 10.6759 147.654 11.3479 146.262 11.3479ZM144.186 7.50786L148.182 7.50786C148.11 6.40386 147.39 5.57586 146.274 5.57586C145.278 5.57586 144.39 6.19986 144.186 7.50786ZM150.285 11.2039V4.96386H151.089V5.82786H151.149C151.593 5.16786 152.277 4.81986 153.129 4.81986C154.533 4.81986 155.385 5.74386 155.385 7.26786V11.2039H154.581V7.47186C154.581 6.23586 154.065 5.55186 153.057 5.55186C151.881 5.55186 151.089 6.19986 151.089 8.20386V11.2039H150.285ZM158.523 11.3479C157.263 11.3479 156.483 10.5919 156.483 9.51186C156.483 8.46786 157.191 7.72386 158.523 7.61586L160.743 7.42386V7.05186C160.743 6.19986 160.203 5.56386 159.099 5.56386C158.067 5.56386 157.491 6.03186 157.443 6.89586L156.663 6.89586C156.711 5.71986 157.563 4.81986 159.099 4.81986C160.635 4.81986 161.547 5.73186 161.547 7.06386V9.90786L161.583 11.2039H160.791L160.779 10.1839H160.731C160.263 10.9879 159.495 11.3479 158.523 11.3479ZM157.287 9.49986C157.287 10.1959 157.767 10.6279 158.619 10.6279C159.843 10.6279 160.743 9.79986 160.743 8.10786V8.09586L158.655 8.27586C157.719 8.35986 157.287 8.83986 157.287 9.49986ZM162.942 11.2039V4.96386H163.746V5.94786H163.806C164.166 5.29986 164.778 4.81986 165.834 4.81986H166.254V5.63586H165.642C164.442 5.63586 163.746 6.48786 163.746 8.14386V11.2039H162.942ZM167.143 11.2039V4.96386H167.947V11.2039H167.143ZM166.999 2.95986C166.999 2.65986 167.215 2.41986 167.551 2.41986C167.875 2.41986 168.091 2.65986 168.091 2.95986C168.091 3.24786 167.875 3.48786 167.551 3.48786C167.215 3.48786 166.999 3.24786 166.999 2.95986ZM172.134 11.3479C170.346 11.3479 169.146 10.0399 169.146 8.08386C169.146 6.12786 170.346 4.81986 172.134 4.81986C173.922 4.81986 175.122 6.12786 175.122 8.08386C175.122 10.0399 173.922 11.3479 172.134 11.3479ZM169.998 8.08386C169.998 9.59586 170.742 10.5919 172.134 10.5919C173.514 10.5919 174.282 9.59586 174.282 8.08386C174.282 6.57186 173.514 5.57586 172.134 5.57586C170.742 5.57586 169.998 6.57186 169.998 8.08386ZM178.155 7.90386C176.871 7.90386 176.139 7.23186 176.091 6.15186H176.895C176.943 6.81186 177.387 7.19586 178.155 7.19586C178.923 7.19586 179.367 6.81186 179.367 6.16386C179.367 5.49186 178.935 5.11986 178.059 5.11986H177.387V4.42386H177.999C178.767 4.42386 179.175 4.03986 179.175 3.49986C179.175 2.93586 178.779 2.57586 178.143 2.57586C177.411 2.57586 177.051 2.93586 177.015 3.51186H176.235C176.283 2.52786 176.991 1.85586 178.143 1.85586C179.295 1.85586 179.955 2.58786 179.955 3.46386C179.955 4.06386 179.631 4.43586 179.007 4.67586V4.73586C179.775 4.92786 180.183 5.46786 180.183 6.23586C180.183 7.21986 179.439 7.90386 178.155 7.90386ZM184.3 11.2039V4.96386L185.104 4.96386V5.94786H185.164C185.524 5.29986 186.136 4.81986 187.192 4.81986H187.612V5.63586H187C185.8 5.63586 185.104 6.48786 185.104 8.14386V11.2039H184.3ZM190.813 11.3479C189.073 11.3479 187.873 10.0399 187.873 8.08386C187.873 6.06786 189.169 4.81986 190.825 4.81986C192.445 4.81986 193.609 5.99586 193.609 7.95186V8.22786L188.701 8.22786C188.749 9.59586 189.493 10.5919 190.813 10.5919C191.821 10.5919 192.397 10.1599 192.733 9.23586L193.489 9.46386C193.105 10.6759 192.205 11.3479 190.813 11.3479ZM188.737 7.50786L192.733 7.50786C192.661 6.40386 191.941 5.57586 190.825 5.57586C189.829 5.57586 188.941 6.19986 188.737 7.50786ZM199.588 13.6039V10.2679H199.54C199.096 10.8919 198.4 11.3479 197.392 11.3479C195.7 11.3479 194.524 10.0399 194.524 8.08386C194.524 6.12786 195.7 4.81986 197.404 4.81986C198.4 4.81986 199.108 5.27586 199.54 5.89986H199.588V4.96386H200.392V13.6039H199.588ZM195.388 8.08386C195.388 9.63186 196.18 10.6039 197.5 10.6039C198.868 10.6039 199.612 9.61986 199.612 8.08386C199.612 6.55986 198.868 5.56386 197.5 5.56386C196.18 5.56386 195.388 6.53586 195.388 8.08386ZM206.912 4.96386V11.2039H206.108V10.3399H206.048C205.604 10.9999 204.92 11.3479 204.068 11.3479C202.664 11.3479 201.812 10.4239 201.812 8.89986V4.96386H202.616V8.69586C202.616 9.93186 203.132 10.6159 204.14 10.6159C205.316 10.6159 206.108 9.96786 206.108 7.96386V4.96386H206.912ZM208.43 11.2039V4.96386H209.234V11.2039H208.43ZM208.286 2.95986C208.286 2.65986 208.502 2.41986 208.838 2.41986C209.162 2.41986 209.378 2.65986 209.378 2.95986C209.378 3.24786 209.162 3.48786 208.838 3.48786C208.502 3.48786 208.286 3.24786 208.286 2.95986ZM210.745 11.2039V4.96386H211.549V5.94786H211.609C211.969 5.29986 212.581 4.81986 213.637 4.81986H214.057V5.63586H213.445C212.245 5.63586 211.549 6.48786 211.549 8.14386V11.2039H210.745ZM217.258 11.3479C215.518 11.3479 214.318 10.0399 214.318 8.08386C214.318 6.06786 215.614 4.81986 217.27 4.81986C218.89 4.81986 220.054 5.99586 220.054 7.95186V8.22786L215.146 8.22786C215.194 9.59586 215.938 10.5919 217.258 10.5919C218.266 10.5919 218.842 10.1599 219.178 9.23586L219.934 9.46386C219.55 10.6759 218.65 11.3479 217.258 11.3479ZM215.182 7.50786L219.178 7.50786C219.106 6.40386 218.386 5.57586 217.27 5.57586C216.274 5.57586 215.386 6.19986 215.182 7.50786ZM223.476 11.3479C222.072 11.3479 221.184 10.6879 220.812 9.45186L221.616 9.23586C221.88 10.1239 222.444 10.5919 223.476 10.5919C224.58 10.5919 225.108 10.1359 225.108 9.51186C225.108 8.94786 224.76 8.52786 224.016 8.44386L222.696 8.27586C221.652 8.13186 221.028 7.55586 221.028 6.58386C221.028 5.65986 221.76 4.81986 223.248 4.81986C224.568 4.81986 225.42 5.47986 225.732 6.54786L224.964 6.77586C224.688 5.98386 224.172 5.57586 223.248 5.57586C222.252 5.57586 221.82 6.03186 221.82 6.58386C221.82 7.12386 222.204 7.44786 222.816 7.51986L224.112 7.69986C225.336 7.85586 225.9 8.49186 225.9 9.51186C225.9 10.5439 225.108 11.3479 223.476 11.3479ZM232.395 11.3479C230.631 11.3479 229.395 10.0399 229.395 8.08386C229.395 6.11586 230.655 4.81986 232.395 4.81986C233.871 4.81986 234.975 5.71986 235.179 7.14786L234.387 7.26786C234.195 6.22386 233.535 5.57586 232.395 5.57586C231.063 5.57586 230.247 6.57186 230.247 8.08386C230.247 9.59586 231.063 10.5919 232.395 10.5919C233.559 10.5919 234.183 9.94386 234.387 8.89986L235.179 9.05586C234.975 10.4479 233.907 11.3479 232.395 11.3479ZM237.909 11.3479C236.649 11.3479 235.869 10.5919 235.869 9.51186C235.869 8.46786 236.577 7.72386 237.909 7.61586L240.129 7.42386V7.05186C240.129 6.19986 239.589 5.56386 238.485 5.56386C237.453 5.56386 236.877 6.03186 236.829 6.89586H236.049C236.097 5.71986 236.949 4.81986 238.485 4.81986C240.021 4.81986 240.933 5.73186 240.933 7.06386V9.90786L240.969 11.2039H240.177L240.165 10.1839H240.117C239.649 10.9879 238.881 11.3479 237.909 11.3479ZM236.673 9.49986C236.673 10.1959 237.153 10.6279 238.005 10.6279C239.229 10.6279 240.129 9.79986 240.129 8.10786V8.09586L238.041 8.27586C237.105 8.35986 236.673 8.83986 236.673 9.49986ZM242.328 11.2039V4.96386H243.132V5.94786H243.192C243.552 5.29986 244.164 4.81986 245.22 4.81986H245.64V5.63586H245.028C243.828 5.63586 243.132 6.48786 243.132 8.14386V11.2039H242.328ZM249.518 11.3479C248.522 11.3479 247.814 10.8919 247.394 10.2679H247.334V11.2039H246.53V2.56386L247.334 2.56386V5.89986H247.394C247.826 5.27586 248.522 4.81986 249.53 4.81986C251.234 4.81986 252.398 6.12786 252.398 8.08386C252.398 10.0399 251.234 11.3479 249.518 11.3479ZM247.31 8.08386C247.31 9.60786 248.054 10.6039 249.434 10.6039C250.754 10.6039 251.534 9.63186 251.534 8.08386C251.534 6.53586 250.754 5.56386 249.434 5.56386C248.054 5.56386 247.31 6.54786 247.31 8.08386ZM256.278 11.3479C254.49 11.3479 253.29 10.0399 253.29 8.08386C253.29 6.12786 254.49 4.81986 256.278 4.81986C258.066 4.81986 259.266 6.12786 259.266 8.08386C259.266 10.0399 258.066 11.3479 256.278 11.3479ZM254.142 8.08386C254.142 9.59586 254.886 10.5919 256.278 10.5919C257.658 10.5919 258.426 9.59586 258.426 8.08386C258.426 6.57186 257.658 5.57586 256.278 5.57586C254.886 5.57586 254.142 6.57186 254.142 8.08386ZM260.475 11.2039V4.96386H261.279V5.82786H261.339C261.783 5.16786 262.467 4.81986 263.319 4.81986C264.723 4.81986 265.575 5.74386 265.575 7.26786V11.2039H264.771V7.47186C264.771 6.23586 264.255 5.55186 263.247 5.55186C262.071 5.55186 261.279 6.19986 261.279 8.20386V11.2039H260.475ZM269.757 11.2039V4.96386H270.561V5.94786H270.621C270.981 5.29986 271.593 4.81986 272.649 4.81986H273.069V5.63586H272.457C271.257 5.63586 270.561 6.48786 270.561 8.14386V11.2039H269.757ZM276.27 11.3479C274.53 11.3479 273.33 10.0399 273.33 8.08386C273.33 6.06786 274.626 4.81986 276.282 4.81986C277.902 4.81986 279.066 5.99586 279.066 7.95186V8.22786H274.158C274.206 9.59586 274.95 10.5919 276.27 10.5919C277.278 10.5919 277.854 10.1599 278.19 9.23586L278.946 9.46386C278.562 10.6759 277.662 11.3479 276.27 11.3479ZM274.194 7.50786H278.19C278.118 6.40386 277.398 5.57586 276.282 5.57586C275.286 5.57586 274.398 6.19986 274.194 7.50786ZM280.293 11.2039V4.96386H281.097V5.70786H281.157C281.529 5.15586 282.117 4.81986 282.909 4.81986C283.869 4.81986 284.505 5.28786 284.781 5.93586H284.829C285.237 5.22786 285.897 4.81986 286.809 4.81986C288.069 4.81986 288.921 5.67186 288.921 7.01586V11.2039H288.117V7.24386C288.117 6.16386 287.637 5.55186 286.725 5.55186C285.693 5.55186 285.009 6.11586 285.009 7.86786V11.2039H284.205V7.24386C284.205 6.16386 283.713 5.55186 282.813 5.55186C281.781 5.55186 281.097 6.11586 281.097 7.86786V11.2039H280.293ZM293.018 11.3479C291.23 11.3479 290.03 10.0399 290.03 8.08386C290.03 6.12786 291.23 4.81986 293.018 4.81986C294.806 4.81986 296.006 6.12786 296.006 8.08386C296.006 10.0399 294.806 11.3479 293.018 11.3479ZM290.882 8.08386C290.882 9.59586 291.626 10.5919 293.018 10.5919C294.398 10.5919 295.166 9.59586 295.166 8.08386C295.166 6.57186 294.398 5.57586 293.018 5.57586C291.626 5.57586 290.882 6.57186 290.882 8.08386ZM298.707 11.2039L296.271 4.96386H297.147L299.163 10.2439H299.271L301.275 4.96386H302.127L299.703 11.2039H298.707ZM304.328 11.3479C303.068 11.3479 302.288 10.5919 302.288 9.51186C302.288 8.46786 302.996 7.72386 304.328 7.61586L306.548 7.42386V7.05186C306.548 6.19986 306.008 5.56386 304.904 5.56386C303.872 5.56386 303.296 6.03186 303.248 6.89586H302.468C302.516 5.71986 303.368 4.81986 304.904 4.81986C306.44 4.81986 307.352 5.73186 307.352 7.06386V9.90786L307.388 11.2039H306.596L306.584 10.1839H306.536C306.068 10.9879 305.3 11.3479 304.328 11.3479ZM303.092 9.49986C303.092 10.1959 303.572 10.6279 304.424 10.6279C305.648 10.6279 306.548 9.79986 306.548 8.10786V8.09586L304.46 8.27586C303.524 8.35986 303.092 8.83986 303.092 9.49986ZM308.747 11.2039V2.56386H309.551V11.2039H308.747ZM2.736 25.2279C1.8 25.2279 1.284 24.7119 1.284 23.8599L1.284 19.6959H0.06L0.06 18.9639H1.284L1.284 17.2599H2.088L2.088 18.9639H3.66V19.6959H2.088L2.088 23.7519C2.088 24.2559 2.328 24.4719 2.844 24.4719H3.78V25.2279H2.736ZM7.08431 25.3479C5.34431 25.3479 4.14431 24.0399 4.14431 22.0839C4.14431 20.0679 5.44031 18.8199 7.09631 18.8199C8.71631 18.8199 9.88031 19.9959 9.88031 21.9519V22.2279H4.97231C5.02031 23.5959 5.76431 24.5919 7.08431 24.5919C8.09231 24.5919 8.66831 24.1599 9.00431 23.2359L9.76031 23.4639C9.37631 24.6759 8.47631 25.3479 7.08431 25.3479ZM5.00831 21.5079H9.00431C8.93231 20.4039 8.21231 19.5759 7.09631 19.5759C6.10031 19.5759 5.21231 20.1999 5.00831 21.5079ZM13.7949 25.3479C12.0309 25.3479 10.7949 24.0399 10.7949 22.0839C10.7949 20.1159 12.0549 18.8199 13.7949 18.8199C15.2709 18.8199 16.3749 19.7199 16.5789 21.1479L15.7869 21.2679C15.5949 20.2239 14.9349 19.5759 13.7949 19.5759C12.4629 19.5759 11.6469 20.5719 11.6469 22.0839C11.6469 23.5959 12.4629 24.5919 13.7949 24.5919C14.9589 24.5919 15.5829 23.9439 15.7869 22.8999L16.5789 23.0559C16.3749 24.4479 15.3069 25.3479 13.7949 25.3479ZM17.5935 25.2039V16.5639H18.3975V19.8399H18.4575C18.9015 19.1679 19.5855 18.8199 20.4375 18.8199C21.8415 18.8199 22.6935 19.7439 22.6935 21.2679V25.2039H21.8895V21.4839C21.8895 20.2359 21.3735 19.5519 20.3655 19.5519C19.1895 19.5519 18.3975 20.1999 18.3975 22.2039V25.2039H17.5935ZM24.1152 25.2039V18.9639H24.9192V19.8279H24.9792C25.4232 19.1679 26.1072 18.8199 26.9592 18.8199C28.3632 18.8199 29.2152 19.7439 29.2152 21.2679V25.2039H28.4112V21.4719C28.4112 20.2359 27.8952 19.5519 26.8872 19.5519C25.7112 19.5519 24.9192 20.1999 24.9192 22.2039V25.2039H24.1152ZM33.3129 25.3479C31.5249 25.3479 30.3249 24.0399 30.3249 22.0839C30.3249 20.1279 31.5249 18.8199 33.3129 18.8199C35.1009 18.8199 36.3009 20.1279 36.3009 22.0839C36.3009 24.0399 35.1009 25.3479 33.3129 25.3479ZM31.1769 22.0839C31.1769 23.5959 31.9209 24.5919 33.3129 24.5919C34.6929 24.5919 35.4609 23.5959 35.4609 22.0839C35.4609 20.5719 34.6929 19.5759 33.3129 19.5759C31.9209 19.5759 31.1769 20.5719 31.1769 22.0839ZM37.5102 25.2039L37.5102 16.5639H38.3142L38.3142 25.2039H37.5102ZM42.5009 25.3479C40.7129 25.3479 39.5129 24.0399 39.5129 22.0839C39.5129 20.1279 40.7129 18.8199 42.5009 18.8199C44.2889 18.8199 45.4889 20.1279 45.4889 22.0839C45.4889 24.0399 44.2889 25.3479 42.5009 25.3479ZM40.3649 22.0839C40.3649 23.5959 41.1089 24.5919 42.5009 24.5919C43.8809 24.5919 44.6489 23.5959 44.6489 22.0839C44.6489 20.5719 43.8809 19.5759 42.5009 19.5759C41.1089 19.5759 40.3649 20.5719 40.3649 22.0839ZM49.4102 27.7479C47.6822 27.7479 46.8542 26.9799 46.5422 25.9359L47.3342 25.6959C47.5742 26.5239 48.1382 27.0039 49.4102 27.0039C50.7302 27.0039 51.4742 26.2359 51.4742 25.1079V24.0639H51.4262C51.0062 24.7119 50.2622 25.1559 49.2782 25.1559C47.5022 25.1559 46.3862 23.8239 46.3862 21.9879C46.3862 20.1519 47.5262 18.8199 49.2902 18.8199C50.2622 18.8199 50.9822 19.2519 51.4262 19.8999H51.4742V18.9639H52.2782L52.2782 25.1919C52.2782 26.7159 51.1382 27.7479 49.4102 27.7479ZM47.2382 21.9879C47.2382 23.4519 48.0182 24.4119 49.3742 24.4119C50.7062 24.4119 51.4982 23.5119 51.4982 21.9879C51.4982 20.4879 50.7062 19.5639 49.3742 19.5639C48.0182 19.5639 47.2382 20.5239 47.2382 21.9879ZM54.5261 27.6039L55.5221 25.2639L53.0021 18.9639H53.8901L55.9061 24.0759H56.0021L58.0301 18.9639H58.8941L55.4021 27.6039L54.5261 27.6039Z" fill="#161814"/>
<path d="M3.104 38.2999C1.544 38.2999 0.376 37.1319 0.376 35.3239C0.376 33.5159 1.56 32.3479 3.104 32.3479C4.464 32.3479 5.416 33.1239 5.616 34.4359L4.84 34.5639C4.656 33.6759 4.12 33.0839 3.12 33.0839C1.896 33.0839 1.208 33.9399 1.208 35.3239C1.208 36.7079 1.888 37.5639 3.12 37.5639C4.12 37.5639 4.608 36.9959 4.824 36.0759L5.6 36.2599C5.384 37.5479 4.432 38.2999 3.104 38.2999ZM9.12988 38.2999C7.44188 38.2999 6.29788 37.1319 6.29788 35.3239C6.29788 33.5159 7.44188 32.3479 9.12988 32.3479C10.7859 32.3479 11.9619 33.5159 11.9619 35.3239C11.9619 37.1319 10.7859 38.2999 9.12988 38.2999ZM7.12988 35.3239C7.12988 36.6359 7.81788 37.5639 9.12988 37.5639C10.4019 37.5639 11.1299 36.6359 11.1299 35.3239C11.1299 34.0119 10.4019 33.0839 9.12988 33.0839C7.81788 33.0839 7.12988 34.0119 7.12988 35.3239ZM12.8159 39.2679C12.8159 38.8679 12.9359 38.4759 13.4799 38.1959L14.2399 37.8039C14.5999 37.6199 14.7039 37.4039 14.7039 37.0999C14.7039 36.7399 14.4959 36.4999 14.1199 36.4999C13.7519 36.4999 13.5199 36.7079 13.5039 37.1079H12.7839C12.7839 36.3879 13.2879 35.8359 14.1199 35.8359C14.8959 35.8359 15.4399 36.3559 15.4399 37.0919C15.4399 37.6999 15.1599 38.0519 14.4639 38.3959L13.7839 38.7319C13.5919 38.8279 13.5199 38.9239 13.5199 39.0839V39.1399H15.5199V39.8039H12.8159V39.2679ZM20.3368 38.2999C19.1608 38.2999 18.3288 37.4439 18.3288 36.1239C18.3288 34.8279 19.1928 33.9479 20.3448 33.9479C21.4648 33.9479 22.2488 34.7239 22.2488 36.1159V36.3399H19.0968C19.1688 37.1239 19.6168 37.6119 20.3368 37.6119C20.9048 37.6119 21.2328 37.3639 21.4488 36.8759L22.1448 37.1159C21.8808 37.8679 21.2808 38.2999 20.3368 38.2999ZM19.1208 35.7239H21.4568C21.4088 35.1079 20.9928 34.6359 20.3448 34.6359C19.7528 34.6359 19.2568 34.9879 19.1208 35.7239ZM23.185 38.2039V34.0439L23.937 34.0439V34.5159H23.985C24.257 34.1479 24.609 33.9479 25.129 33.9479C25.713 33.9479 26.137 34.2039 26.353 34.6359H26.393C26.689 34.1879 27.089 33.9479 27.689 33.9479C28.521 33.9479 29.105 34.5239 29.105 35.4279V38.2039H28.353V35.6119C28.353 34.9719 28.057 34.6359 27.553 34.6359C26.921 34.6359 26.521 35.0359 26.521 35.9959V38.2039H25.769V35.6119C25.769 34.9719 25.473 34.6359 24.969 34.6359C24.337 34.6359 23.937 35.0359 23.937 35.9959V38.2039H23.185ZM30.1616 38.2039V34.0439H30.9136V38.2039H30.1616ZM30.0736 32.8039C30.0736 32.5399 30.2576 32.3479 30.5376 32.3479C30.8176 32.3479 31.0016 32.5399 31.0016 32.8039C31.0016 33.0599 30.8176 33.2599 30.5376 33.2599C30.2576 33.2599 30.0736 33.0599 30.0736 32.8039ZM33.5326 38.2999C32.5086 38.2999 31.9406 37.8359 31.6926 37.0599L32.4366 36.8439C32.5806 37.3399 32.8926 37.6119 33.5326 37.6119C34.2046 37.6119 34.4686 37.3799 34.4686 37.0519C34.4686 36.7559 34.2606 36.5319 33.9006 36.4839L33.0446 36.3719C32.2686 36.2679 31.8366 35.8839 31.8366 35.1799C31.8366 34.5159 32.3646 33.9479 33.3886 33.9479C34.2846 33.9479 34.8686 34.3719 35.0766 35.0439L34.3566 35.2759C34.1966 34.8679 33.9166 34.6359 33.3886 34.6359C32.7966 34.6359 32.5646 34.8919 32.5646 35.1799C32.5646 35.4759 32.7806 35.6519 33.1406 35.6999L33.9886 35.8199C34.8046 35.9319 35.1966 36.3879 35.1966 37.0519C35.1966 37.7799 34.6046 38.2999 33.5326 38.2999ZM37.4779 38.2999C36.4539 38.2999 35.8859 37.8359 35.6379 37.0599L36.3819 36.8439C36.5259 37.3399 36.8379 37.6119 37.4779 37.6119C38.1499 37.6119 38.4139 37.3799 38.4139 37.0519C38.4139 36.7559 38.2059 36.5319 37.8459 36.4839L36.9899 36.3719C36.2139 36.2679 35.7819 35.8839 35.7819 35.1799C35.7819 34.5159 36.3099 33.9479 37.3339 33.9479C38.2299 33.9479 38.8139 34.3719 39.0219 35.0439L38.3019 35.2759C38.1419 34.8679 37.8619 34.6359 37.3339 34.6359C36.7419 34.6359 36.5099 34.8919 36.5099 35.1799C36.5099 35.4759 36.7259 35.6519 37.0859 35.6999L37.9339 35.8199C38.7499 35.9319 39.1419 36.3879 39.1419 37.0519C39.1419 37.7799 38.5499 38.2999 37.4779 38.2999ZM39.9272 38.2039V34.0439H40.6792V38.2039H39.9272ZM39.8392 32.8039C39.8392 32.5399 40.0232 32.3479 40.3032 32.3479C40.5832 32.3479 40.7672 32.5399 40.7672 32.8039C40.7672 33.0599 40.5832 33.2599 40.3032 33.2599C40.0232 33.2599 39.8392 33.0599 39.8392 32.8039ZM43.6422 38.2999C42.4502 38.2999 41.6022 37.4439 41.6022 36.1239C41.6022 34.8039 42.4502 33.9479 43.6422 33.9479C44.8262 33.9479 45.6822 34.8039 45.6822 36.1239C45.6822 37.4439 44.8262 38.2999 43.6422 38.2999ZM42.3862 36.1239C42.3862 37.0439 42.8182 37.6119 43.6422 37.6119C44.4502 37.6119 44.8982 37.0439 44.8982 36.1239C44.8982 35.2039 44.4502 34.6359 43.6422 34.6359C42.8182 34.6359 42.3862 35.2039 42.3862 36.1239ZM46.5991 38.2039V34.0439H47.3511V34.5399H47.3991C47.6951 34.1559 48.0871 33.9479 48.6151 33.9479C49.5031 33.9479 50.0871 34.5239 50.0871 35.5239V38.2039H49.3351V35.6679C49.3351 34.9719 49.0071 34.6359 48.4791 34.6359C47.8071 34.6359 47.3511 35.0679 47.3511 36.1239V38.2039H46.5991ZM52.6419 38.2999C51.6179 38.2999 51.0499 37.8359 50.8019 37.0599L51.5459 36.8439C51.6899 37.3399 52.0019 37.6119 52.6419 37.6119C53.3139 37.6119 53.5779 37.3799 53.5779 37.0519C53.5779 36.7559 53.3699 36.5319 53.0099 36.4839L52.1539 36.3719C51.3779 36.2679 50.9459 35.8839 50.9459 35.1799C50.9459 34.5159 51.4739 33.9479 52.4979 33.9479C53.3939 33.9479 53.9779 34.3719 54.1859 35.0439L53.4659 35.2759C53.3059 34.8679 53.0259 34.6359 52.4979 34.6359C51.9059 34.6359 51.6739 34.8919 51.6739 35.1799C51.6739 35.4759 51.8899 35.6519 52.2499 35.6999L53.0979 35.8199C53.9139 35.9319 54.3059 36.3879 54.3059 37.0519C54.3059 37.7799 53.7139 38.2999 52.6419 38.2999ZM58.2913 39.5159C57.6033 38.5639 57.0592 37.4519 57.0592 35.9799C57.0592 34.5079 57.6033 33.3879 58.2913 32.4439H58.9953C58.2513 33.5879 57.8593 34.6919 57.8593 35.9799C57.8593 37.2679 58.2513 38.3639 58.9953 39.5159H58.2913ZM61.5563 39.8999C60.4283 39.8999 59.7963 39.3959 59.5883 38.6999L60.3403 38.4759C60.4763 38.9479 60.8443 39.2279 61.5563 39.2279C62.3323 39.2279 62.7643 38.7799 62.7643 38.1399V37.4999H62.7163C62.4363 37.8919 61.9563 38.1399 61.3803 38.1399C60.2843 38.1399 59.5163 37.2919 59.5163 36.0439C59.5163 34.8039 60.3083 33.9479 61.4043 33.9479C61.9563 33.9479 62.4043 34.1799 62.7163 34.5879H62.7643V34.0439H63.5163V38.1799C63.5163 39.2199 62.7563 39.8999 61.5563 39.8999ZM60.3003 36.0439C60.3003 36.9239 60.7883 37.4519 61.5403 37.4519C62.2763 37.4519 62.7883 36.9479 62.7883 36.0439C62.7883 35.1559 62.2763 34.6359 61.5403 34.6359C60.7883 34.6359 60.3003 35.1639 60.3003 36.0439ZM64.6381 38.2039V34.0439L65.3901 34.0439V38.2039H64.6381ZM64.5501 32.8039C64.5501 32.5399 64.7341 32.3479 65.0141 32.3479C65.2941 32.3479 65.4781 32.5399 65.4781 32.8039C65.4781 33.0599 65.2941 33.2599 65.0141 33.2599C64.7341 33.2599 64.5501 33.0599 64.5501 32.8039ZM68.3531 39.8999C67.2251 39.8999 66.5931 39.3959 66.3851 38.6999L67.1371 38.4759C67.2731 38.9479 67.6411 39.2279 68.3531 39.2279C69.1291 39.2279 69.5611 38.7799 69.5611 38.1399V37.4999H69.5131C69.2331 37.8919 68.7531 38.1399 68.1771 38.1399C67.0811 38.1399 66.3131 37.2919 66.3131 36.0439C66.3131 34.8039 67.1051 33.9479 68.2011 33.9479C68.7531 33.9479 69.2011 34.1799 69.5131 34.5879H69.5611V34.0439H70.3131V38.1799C70.3131 39.2199 69.5531 39.8999 68.3531 39.8999ZM67.0971 36.0439C67.0971 36.9239 67.5851 37.4519 68.3371 37.4519C69.0731 37.4519 69.5851 36.9479 69.5851 36.0439C69.5851 35.1559 69.0731 34.6359 68.3371 34.6359C67.5851 34.6359 67.0971 35.1639 67.0971 36.0439ZM72.595 38.2999C71.771 38.2999 71.243 37.7959 71.243 37.0679C71.243 36.3319 71.691 35.8519 72.635 35.7719L73.979 35.6599V35.4839C73.979 34.9479 73.667 34.6199 73.059 34.6199C72.411 34.6199 72.123 34.9079 72.083 35.3399H71.363C71.395 34.5319 72.019 33.9479 73.059 33.9479C74.115 33.9479 74.731 34.5479 74.731 35.4679V37.3159L74.747 38.2039H74.019L74.011 37.6199H73.963C73.683 38.0759 73.147 38.2999 72.595 38.2999ZM71.979 37.0359C71.979 37.4119 72.235 37.6599 72.723 37.6599C73.339 37.6599 73.907 37.2199 73.971 36.2519L72.779 36.3639C72.211 36.4199 71.979 36.6839 71.979 37.0359ZM77.1306 38.2199C76.4186 38.2199 76.0426 37.8279 76.0426 37.1879V34.6999H75.2666V34.0439H76.0426V32.9079H76.7946V34.0439H77.8026V34.6999H76.7946V37.1159C76.7946 37.4039 76.9306 37.5319 77.2346 37.5319H77.8826V38.2199H77.1306ZM80.3609 38.2999C79.1689 38.2999 78.3209 37.4439 78.3209 36.1239C78.3209 34.8039 79.1689 33.9479 80.3609 33.9479C81.5449 33.9479 82.4009 34.8039 82.4009 36.1239C82.4009 37.4439 81.5449 38.2999 80.3609 38.2999ZM79.1049 36.1239C79.1049 37.0439 79.5369 37.6119 80.3609 37.6119C81.1689 37.6119 81.6169 37.0439 81.6169 36.1239C81.6169 35.2039 81.1689 34.6359 80.3609 34.6359C79.5369 34.6359 79.1049 35.2039 79.1049 36.1239ZM83.3178 38.2039V34.0439H84.0698V34.5399H84.1178C84.4138 34.1559 84.8058 33.9479 85.3338 33.9479C86.2218 33.9479 86.8058 34.5239 86.8058 35.5239V38.2039H86.0538V35.6679C86.0538 34.9719 85.7258 34.6359 85.1978 34.6359C84.5258 34.6359 84.0698 35.0679 84.0698 36.1239V38.2039H83.3178ZM87.8647 38.2039V34.0439H88.6167V34.5399H88.6647C88.9607 34.1559 89.3527 33.9479 89.8807 33.9479C90.7687 33.9479 91.3527 34.5239 91.3527 35.5239V38.2039H90.6007V35.6679C90.6007 34.9719 90.2727 34.6359 89.7447 34.6359C89.0727 34.6359 88.6167 35.0679 88.6167 36.1239V38.2039H87.8647ZM94.2196 38.2999C93.0436 38.2999 92.2116 37.4439 92.2116 36.1239C92.2116 34.8279 93.0756 33.9479 94.2276 33.9479C95.3476 33.9479 96.1316 34.7239 96.1316 36.1159V36.3399H92.9796C93.0516 37.1239 93.4996 37.6119 94.2196 37.6119C94.7876 37.6119 95.1156 37.3639 95.3316 36.8759L96.0276 37.1159C95.7636 37.8679 95.1636 38.2999 94.2196 38.2999ZM93.0036 35.7239H95.3396C95.2916 35.1079 94.8756 34.6359 94.2276 34.6359C93.6356 34.6359 93.1396 34.9879 93.0036 35.7239ZM98.5638 38.2999C97.5398 38.2999 96.9718 37.8359 96.7238 37.0599L97.4678 36.8439C97.6118 37.3399 97.9238 37.6119 98.5638 37.6119C99.2358 37.6119 99.4998 37.3799 99.4998 37.0519C99.4998 36.7559 99.2918 36.5319 98.9318 36.4839L98.0758 36.3719C97.2998 36.2679 96.8678 35.8839 96.8678 35.1799C96.8678 34.5159 97.3958 33.9479 98.4198 33.9479C99.3158 33.9479 99.8998 34.3719 100.108 35.0439L99.3878 35.2759C99.2278 34.8679 98.9478 34.6359 98.4198 34.6359C97.8278 34.6359 97.5958 34.8919 97.5958 35.1799C97.5958 35.4759 97.8118 35.6519 98.1718 35.6999L99.0198 35.8199C99.8358 35.9319 100.228 36.3879 100.228 37.0519C100.228 37.7799 99.6358 38.2999 98.5638 38.2999ZM100.613 39.5159C101.357 38.3719 101.749 37.2679 101.749 35.9799C101.749 34.6919 101.357 33.5959 100.613 32.4439H101.317C102.005 33.3959 102.549 34.5079 102.549 35.9799C102.549 37.4519 102.005 38.5719 101.317 39.5159H100.613ZM107.478 38.2999C106.286 38.2999 105.438 37.4439 105.438 36.1239C105.438 34.8039 106.286 33.9479 107.478 33.9479C108.662 33.9479 109.518 34.8039 109.518 36.1239C109.518 37.4439 108.662 38.2999 107.478 38.2999ZM106.222 36.1239C106.222 37.0439 106.654 37.6119 107.478 37.6119C108.286 37.6119 108.734 37.0439 108.734 36.1239C108.734 35.2039 108.286 34.6359 107.478 34.6359C106.654 34.6359 106.222 35.2039 106.222 36.1239ZM113.859 34.0439V38.2039H113.107V37.7079H113.059C112.763 38.0919 112.371 38.2999 111.843 38.2999C110.955 38.2999 110.371 37.7239 110.371 36.7239V34.0439H111.123V36.5799C111.123 37.2759 111.451 37.6119 111.979 37.6119C112.651 37.6119 113.107 37.1799 113.107 36.1239V34.0439H113.859ZM116.326 38.2199C115.614 38.2199 115.238 37.8279 115.238 37.1879V34.6999H114.462V34.0439H115.238V32.9079H115.99V34.0439H116.998V34.6999H115.99V37.1159C115.99 37.4039 116.126 37.5319 116.43 37.5319H117.078V38.2199H116.326ZM117.794 38.2039V32.4439H118.546V38.2039H117.794ZM119.669 38.2039V34.0439H120.421V38.2039H119.669ZM119.581 32.8039C119.581 32.5399 119.765 32.3479 120.045 32.3479C120.325 32.3479 120.509 32.5399 120.509 32.8039C120.509 33.0599 120.325 33.2599 120.045 33.2599C119.765 33.2599 119.581 33.0599 119.581 32.8039ZM121.544 38.2039V34.0439H122.296V34.5399H122.344C122.64 34.1559 123.032 33.9479 123.56 33.9479C124.448 33.9479 125.032 34.5239 125.032 35.5239V38.2039H124.28V35.6679C124.28 34.9719 123.952 34.6359 123.424 34.6359C122.752 34.6359 122.296 35.0679 122.296 36.1239V38.2039H121.544ZM127.899 38.2999C126.723 38.2999 125.891 37.4439 125.891 36.1239C125.891 34.8279 126.755 33.9479 127.907 33.9479C129.027 33.9479 129.811 34.7239 129.811 36.1159V36.3399H126.659C126.731 37.1239 127.179 37.6119 127.899 37.6119C128.467 37.6119 128.795 37.3639 129.011 36.8759L129.707 37.1159C129.443 37.8679 128.843 38.2999 127.899 38.2999ZM126.683 35.7239H129.019C128.971 35.1079 128.555 34.6359 127.907 34.6359C127.315 34.6359 126.819 34.9879 126.683 35.7239ZM132.436 38.2999C131.34 38.2999 130.548 37.4359 130.548 36.1239C130.548 34.8119 131.34 33.9479 132.412 33.9479C133.028 33.9479 133.452 34.2039 133.748 34.5879H133.796V32.4439H134.548V38.2039H133.796V37.6599H133.748C133.468 38.0439 133.028 38.2999 132.436 38.2999ZM131.332 36.1239C131.332 37.0519 131.82 37.6119 132.572 37.6119C133.348 37.6119 133.82 37.0599 133.82 36.1239C133.82 35.1719 133.348 34.6359 132.572 34.6359C131.82 34.6359 131.332 35.1959 131.332 36.1239ZM137.669 38.2039V34.0439H138.421V38.2039H137.669ZM137.581 32.8039C137.581 32.5399 137.765 32.3479 138.045 32.3479C138.325 32.3479 138.509 32.5399 138.509 32.8039C138.509 33.0599 138.325 33.2599 138.045 33.2599C137.765 33.2599 137.581 33.0599 137.581 32.8039ZM139.544 38.2039V34.0439H140.296V34.5399H140.344C140.64 34.1559 141.032 33.9479 141.56 33.9479C142.448 33.9479 143.032 34.5239 143.032 35.5239V38.2039H142.28V35.6679C142.28 34.9719 141.952 34.6359 141.424 34.6359C140.752 34.6359 140.296 35.0679 140.296 36.1239V38.2039H139.544ZM148.267 38.2999C146.899 38.2999 146.147 37.6919 145.851 36.5959L146.659 36.4199C146.859 37.2119 147.403 37.5639 148.267 37.5639C149.155 37.5639 149.651 37.1959 149.651 36.6359C149.651 36.1079 149.283 35.7959 148.707 35.7319L147.603 35.6039C146.523 35.4759 145.979 34.8679 145.979 33.9879C145.979 33.0039 146.803 32.3479 148.043 32.3479C149.195 32.3479 150.035 32.8919 150.291 33.9079L149.491 34.0999C149.291 33.4439 148.787 33.0839 148.043 33.0839C147.243 33.0839 146.787 33.4279 146.787 33.9719C146.787 34.4599 147.107 34.7399 147.731 34.8119L148.803 34.9399C149.859 35.0679 150.459 35.6839 150.459 36.6359C150.459 37.6519 149.651 38.2999 148.267 38.2999ZM153.564 38.2999C152.196 38.2999 151.444 37.6919 151.148 36.5959L151.956 36.4199C152.156 37.2119 152.7 37.5639 153.564 37.5639C154.452 37.5639 154.948 37.1959 154.948 36.6359C154.948 36.1079 154.58 35.7959 154.004 35.7319L152.9 35.6039C151.82 35.4759 151.276 34.8679 151.276 33.9879C151.276 33.0039 152.1 32.3479 153.34 32.3479C154.492 32.3479 155.332 32.8919 155.588 33.9079L154.788 34.0999C154.588 33.4439 154.084 33.0839 153.34 33.0839C152.54 33.0839 152.084 33.4279 152.084 33.9719C152.084 34.4599 152.404 34.7399 153.028 34.8119L154.1 34.9399C155.156 35.0679 155.756 35.6839 155.756 36.6359C155.756 37.6519 154.948 38.2999 153.564 38.2999ZM156.717 38.2039V32.4439H159.253C160.365 32.4439 161.101 33.1079 161.101 34.1319C161.101 35.1479 160.365 35.8199 159.213 35.8199H157.501V38.2039H156.717ZM157.501 35.0999H159.189C159.861 35.0999 160.269 34.7639 160.269 34.1319C160.269 33.4839 159.869 33.1639 159.221 33.1639H157.501V35.0999ZM162.093 38.2039V37.4839H163.677V34.2039H162.269V33.5639H162.661C163.405 33.5639 163.741 33.2519 163.893 32.6359H164.445V37.4839H165.917V38.2039H162.093ZM166.902 37.7959C166.902 37.5159 167.11 37.2999 167.414 37.2999C167.718 37.2999 167.926 37.5159 167.926 37.7959C167.926 38.0839 167.718 38.2999 167.414 38.2999C167.11 38.2999 166.902 38.0839 166.902 37.7959ZM169.054 38.2039V37.4839H170.638V34.2039H169.23V33.5639H169.622C170.366 33.5639 170.702 33.2519 170.854 32.6359H171.406V37.4839H172.878V38.2039H169.054ZM173.495 36.4439V35.8039H175.255V36.4439H173.495ZM177.767 38.2999C176.655 38.2999 176.015 37.7159 175.927 36.8039H176.711C176.775 37.2599 177.071 37.5879 177.759 37.5879C178.503 37.5879 179.103 37.1799 179.103 35.4439H179.055C178.783 35.8999 178.311 36.2199 177.631 36.2199C176.591 36.2199 175.799 35.4599 175.799 34.3799C175.799 33.3479 176.567 32.5399 177.775 32.5399C179.295 32.5399 179.903 33.7559 179.903 35.3399C179.903 37.6119 178.855 38.2999 177.767 38.2999ZM176.599 34.3799C176.599 35.0519 177.047 35.5079 177.775 35.5079C178.503 35.5079 178.951 35.0519 178.951 34.3799C178.951 33.6999 178.503 33.2519 177.775 33.2519C177.055 33.2519 176.599 33.6999 176.599 34.3799Z" fill="#161814"/>
<path d="M34.5697 65.1641C31.5021 67.0633 22.0103 70.7756 17.7312 72.2864V173.724H335.328V162.933C331.994 162.933 307.486 163.365 301.651 163.365C295.864 163.365 275.81 162.285 268.808 160.775C261.806 159.264 241.133 162.07 235.131 160.775C229.129 159.48 206.789 158.832 201.621 157.753C196.452 156.674 174.279 153.868 168.277 151.494C162.275 149.12 143.936 138.128 135.267 130.775C130.432 126.674 114.761 115.235 101.59 100.343C91.4093 88.8316 81.9174 51.9986 68.2466 52.2144C63.1111 52.2955 56.2429 52.8619 51.4081 54.1569C46.5733 55.4519 38.4042 62.79 34.5697 65.1641Z" fill="#F2A17E"/>
<path d="M133.706 173.724L101.59 173.724L17.7312 173.724L133.706 173.724L135.267 173.724C144.203 173.724 162.265 175.542 168.277 175.99C175.03 176.494 196.563 178.573 201.731 178.256C206.9 177.938 229.124 179.515 235.131 179.515C241.182 179.515 261.799 180.522 268.808 180.522C275.508 180.522 295.864 181.025 301.651 181.025H335.328V173.724H135.267L133.706 173.724Z" fill="#5B663D"/>
<path d="M101.59 173.724L133.706 173.724L17.7312 173.724L101.59 173.724Z" fill="#5B663D"/>
<line opacity="0.5" x1="17.7621" y1="51.4891" x2="335.328" y2="51.4891" stroke="#747672" stroke-width="0.521505"/>
<line opacity="0.5" x1="17.7621" y1="82.0745" x2="335.328" y2="82.0745" stroke="#747672" stroke-width="0.521505"/>
<line opacity="0.5" x1="17.7621" y1="112.66" x2="335.328" y2="112.66" stroke="#747672" stroke-width="0.521505"/>
<line opacity="0.5" x1="17.7621" y1="143.245" x2="335.328" y2="143.245" stroke="#747672" stroke-width="0.521505"/>
<line opacity="0.5" x1="17.7621" y1="173.83" x2="335.328" y2="173.83" stroke="#747672" stroke-width="0.521505"/>
<line opacity="0.5" x1="17.7621" y1="204.416" x2="335.328" y2="204.416" stroke="#747672" stroke-width="0.521505"/>
<line opacity="0.5" x1="17.7621" y1="235.001" x2="335.328" y2="235.001" stroke="#747672" stroke-width="0.521505"/>
<path d="M4.71431 53.2039V52.3329H2.96205V51.9262L4.74038 49.5742H5.21495V51.8897H5.72081V52.3329H5.21495V53.2039H4.71431ZM3.53049 51.8897H4.71431V50.3147H4.68301L3.53049 51.8584V51.8897ZM7.54147 53.2664C6.76965 53.2664 6.18035 52.6667 6.18035 51.389C6.18035 50.1061 6.76965 49.5116 7.54147 49.5116C8.3133 49.5116 8.9026 50.1061 8.9026 51.389C8.9026 52.6667 8.3133 53.2664 7.54147 53.2664ZM6.70185 51.389C6.70185 52.3486 7.01997 52.8023 7.54147 52.8023C8.06298 52.8023 8.3811 52.3486 8.3811 51.389C8.3811 50.4242 8.06298 49.9757 7.54147 49.9757C7.01997 49.9757 6.70185 50.4242 6.70185 51.389Z" fill="#747672"/>
<path d="M4.28667 83.7772C3.47834 83.7772 3.02463 83.3339 2.99855 82.6872H3.53049C3.55135 83.0679 3.81732 83.313 4.28667 83.313C4.7456 83.313 5.03764 83.1044 5.03764 82.6872C5.03764 82.27 4.7456 82.0614 4.22931 82.0614H3.82253V81.5921H4.20845C4.66737 81.5921 4.90726 81.373 4.90726 81.0341C4.90726 80.6899 4.66737 80.4865 4.28667 80.4865C3.85904 80.4865 3.63479 80.6899 3.6035 81.0393H3.10807C3.12893 80.45 3.56178 80.0223 4.28667 80.0223C5.02721 80.0223 5.42877 80.523 5.42877 81.0288C5.42877 81.3991 5.21495 81.6338 4.87076 81.7746V81.8163C5.31404 81.9363 5.55914 82.2544 5.55914 82.7342C5.55914 83.3339 5.12108 83.7772 4.28667 83.7772ZM7.54147 83.7772C6.76965 83.7772 6.18035 83.1774 6.18035 81.8998C6.18035 80.6169 6.76965 80.0223 7.54147 80.0223C8.3133 80.0223 8.9026 80.6169 8.9026 81.8998C8.9026 83.1774 8.3133 83.7772 7.54147 83.7772ZM6.70185 81.8998C6.70185 82.8593 7.01997 83.313 7.54147 83.313C8.06298 83.313 8.3811 82.8593 8.3811 81.8998C8.3811 80.935 8.06298 80.4865 7.54147 80.4865C7.01997 80.4865 6.70185 80.935 6.70185 81.8998Z" fill="#747672"/>
<path d="M3.14457 113.746C3.14457 113.328 3.31146 113.047 3.78603 112.786L4.39619 112.452C4.79775 112.233 4.91769 112.025 4.91769 111.712C4.91769 111.242 4.64129 110.997 4.2606 110.997C3.84861 110.997 3.58785 111.232 3.57221 111.696H3.05592C3.05592 110.992 3.58264 110.533 4.2606 110.533C4.97506 110.533 5.43398 111.029 5.43398 111.712C5.43398 112.218 5.17845 112.557 4.63608 112.854L3.98941 113.208C3.75995 113.334 3.64522 113.454 3.64522 113.725V113.756H5.51221V114.225H3.14457V113.746ZM7.54147 114.288C6.76965 114.288 6.18035 113.688 6.18035 112.411C6.18035 111.128 6.76965 110.533 7.54147 110.533C8.3133 110.533 8.9026 111.128 8.9026 112.411C8.9026 113.688 8.3133 114.288 7.54147 114.288ZM6.70185 112.411C6.70185 113.37 7.01997 113.824 7.54147 113.824C8.06298 113.824 8.3811 113.37 8.3811 112.411C8.3811 111.446 8.06298 110.997 7.54147 110.997C7.01997 110.997 6.70185 111.446 6.70185 112.411Z" fill="#747672"/>
<path d="M3.10807 144.736V144.267H4.14065V142.129H3.2228V141.711H3.47834C3.96334 141.711 4.18237 141.508 4.28146 141.106H4.64129V144.267H5.60086V144.736H3.10807ZM7.54147 144.799C6.76965 144.799 6.18035 144.199 6.18035 142.921C6.18035 141.638 6.76965 141.044 7.54147 141.044C8.3133 141.044 8.9026 141.638 8.9026 142.921C8.9026 144.199 8.3133 144.799 7.54147 144.799ZM6.70185 142.921C6.70185 143.881 7.01997 144.335 7.54147 144.335C8.06298 144.335 8.3811 143.881 8.3811 142.921C8.3811 141.956 8.06298 141.508 7.54147 141.508C7.01997 141.508 6.70185 141.956 6.70185 142.921Z" fill="#747672"/>
<path d="M7.54147 175.309C6.76965 175.309 6.18035 174.71 6.18035 173.432C6.18035 172.149 6.76965 171.555 7.54147 171.555C8.3133 171.555 8.9026 172.149 8.9026 173.432C8.9026 174.71 8.3133 175.309 7.54147 175.309ZM6.70185 173.432C6.70185 174.392 7.01997 174.845 7.54147 174.845C8.06298 174.845 8.3811 174.392 8.3811 173.432C8.3811 172.467 8.06298 172.019 7.54147 172.019C7.01997 172.019 6.70185 172.467 6.70185 173.432Z" fill="#747672"/>
<path d="M1.46533 204.61V204.193H2.61264V204.61H1.46533ZM3.10807 205.758V205.288H4.14065V203.15H3.2228V202.733H3.47834C3.96334 202.733 4.18237 202.529 4.28146 202.128H4.64129V205.288H5.60086V205.758H3.10807ZM7.54147 205.82C6.76965 205.82 6.18035 205.22 6.18035 203.943C6.18035 202.66 6.76965 202.065 7.54147 202.065C8.3133 202.065 8.9026 202.66 8.9026 203.943C8.9026 205.22 8.3133 205.82 7.54147 205.82ZM6.70185 203.943C6.70185 204.902 7.01997 205.356 7.54147 205.356C8.06298 205.356 8.3811 204.902 8.3811 203.943C8.3811 202.978 8.06298 202.529 7.54147 202.529C7.01997 202.529 6.70185 202.978 6.70185 203.943Z" fill="#747672"/>
<path d="M1.46533 235.121V234.704H2.61264V235.121H1.46533ZM3.14457 235.789C3.14457 235.371 3.31146 235.09 3.78603 234.829L4.39619 234.495C4.79775 234.276 4.91769 234.068 4.91769 233.755C4.91769 233.285 4.64129 233.04 4.2606 233.04C3.84861 233.04 3.58785 233.275 3.57221 233.739H3.05592C3.05592 233.035 3.58264 232.576 4.2606 232.576C4.97506 232.576 5.43398 233.071 5.43398 233.755C5.43398 234.261 5.17844 234.599 4.63608 234.897L3.98941 235.251C3.75995 235.377 3.64522 235.496 3.64522 235.768V235.799H5.51221V236.268H3.14457V235.789ZM7.54147 236.331C6.76965 236.331 6.18035 235.731 6.18035 234.453C6.18035 233.171 6.76965 232.576 7.54147 232.576C8.3133 232.576 8.9026 233.171 8.9026 234.453C8.9026 235.731 8.3133 236.331 7.54147 236.331ZM6.70185 234.453C6.70185 235.413 7.01997 235.867 7.54147 235.867C8.06298 235.867 8.3811 235.413 8.3811 234.453C8.3811 233.489 8.06298 233.04 7.54147 233.04C7.01997 233.04 6.70185 233.489 6.70185 234.453Z" fill="#747672"/>
<path d="M31.2546 244.857C31.2546 244.44 31.4215 244.159 31.8961 243.898L32.5062 243.564C32.9078 243.345 33.0277 243.136 33.0277 242.824C33.0277 242.354 32.7513 242.109 32.3706 242.109C31.9587 242.109 31.6979 242.344 31.6823 242.808H31.166C31.166 242.104 31.6927 241.645 32.3706 241.645C33.0851 241.645 33.544 242.14 33.544 242.824C33.544 243.329 33.2885 243.668 32.7461 243.966L32.0995 244.32C31.87 244.445 31.7553 244.565 31.7553 244.837V244.868H33.6223V245.337H31.2546V244.857ZM35.6515 245.4C34.8797 245.4 34.2904 244.8 34.2904 243.522C34.2904 242.239 34.8797 241.645 35.6515 241.645C36.4233 241.645 37.0127 242.239 37.0127 243.522C37.0127 244.8 36.4233 245.4 35.6515 245.4ZM34.8119 243.522C34.8119 244.482 35.13 244.936 35.6515 244.936C36.173 244.936 36.4911 244.482 36.4911 243.522C36.4911 242.558 36.173 242.109 35.6515 242.109C35.13 242.109 34.8119 242.558 34.8119 243.522ZM37.686 245.337V244.868H38.7186V242.73H37.8007V242.312H38.0563C38.5413 242.312 38.7603 242.109 38.8594 241.707H39.2192V244.868H40.1788V245.337H37.686ZM42.1194 245.4C41.3476 245.4 40.7583 244.8 40.7583 243.522C40.7583 242.239 41.3476 241.645 42.1194 241.645C42.8912 241.645 43.4805 242.239 43.4805 243.522C43.4805 244.8 42.8912 245.4 42.1194 245.4ZM41.2798 243.522C41.2798 244.482 41.5979 244.936 42.1194 244.936C42.6409 244.936 42.959 244.482 42.959 243.522C42.959 242.558 42.6409 242.109 42.1194 242.109C41.5979 242.109 41.2798 242.558 41.2798 243.522Z" fill="#747672"/>
<path d="M64.0718 244.857C64.0718 244.44 64.2387 244.159 64.7133 243.898L65.3234 243.564C65.725 243.345 65.8449 243.136 65.8449 242.824C65.8449 242.354 65.5685 242.109 65.1878 242.109C64.7759 242.109 64.5151 242.344 64.4995 242.808H63.9832C63.9832 242.104 64.5099 241.645 65.1878 241.645C65.9023 241.645 66.3612 242.14 66.3612 242.824C66.3612 243.329 66.1057 243.668 65.5633 243.966L64.9167 244.32C64.6872 244.445 64.5725 244.565 64.5725 244.837V244.868H66.4395V245.337H64.0718V244.857ZM68.4687 245.4C67.6969 245.4 67.1076 244.8 67.1076 243.522C67.1076 242.239 67.6969 241.645 68.4687 241.645C69.2405 241.645 69.8299 242.239 69.8299 243.522C69.8299 244.8 69.2405 245.4 68.4687 245.4ZM67.6291 243.522C67.6291 244.482 67.9472 244.936 68.4687 244.936C68.9902 244.936 69.3083 244.482 69.3083 243.522C69.3083 242.558 68.9902 242.109 68.4687 242.109C67.9472 242.109 67.6291 242.558 67.6291 243.522ZM70.5397 244.857C70.5397 244.44 70.7066 244.159 71.1812 243.898L71.7913 243.564C72.1929 243.345 72.3128 243.136 72.3128 242.824C72.3128 242.354 72.0364 242.109 71.6557 242.109C71.2437 242.109 70.983 242.344 70.9673 242.808H70.4511C70.4511 242.104 70.9778 241.645 71.6557 241.645C72.3702 241.645 72.8291 242.14 72.8291 242.824C72.8291 243.329 72.5736 243.668 72.0312 243.966L71.3845 244.32C71.1551 244.445 71.0404 244.565 71.0404 244.837V244.868H72.9073V245.337H70.5397V244.857ZM74.9366 245.4C74.1648 245.4 73.5755 244.8 73.5755 243.522C73.5755 242.239 74.1648 241.645 74.9366 241.645C75.7084 241.645 76.2977 242.239 76.2977 243.522C76.2977 244.8 75.7084 245.4 74.9366 245.4ZM74.097 243.522C74.097 244.482 74.4151 244.936 74.9366 244.936C75.4581 244.936 75.7762 244.482 75.7762 243.522C75.7762 242.558 75.4581 242.109 74.9366 242.109C74.4151 242.109 74.097 242.558 74.097 243.522Z" fill="#747672"/>
<path d="M96.889 244.857C96.889 244.44 97.0559 244.159 97.5305 243.898L98.1406 243.564C98.5422 243.345 98.6621 243.136 98.6621 242.824C98.6621 242.354 98.3857 242.109 98.005 242.109C97.5931 242.109 97.3323 242.344 97.3167 242.808H96.8004C96.8004 242.104 97.3271 241.645 98.005 241.645C98.7195 241.645 99.1784 242.14 99.1784 242.824C99.1784 243.329 98.9229 243.668 98.3805 243.966L97.7339 244.32C97.5044 244.445 97.3897 244.565 97.3897 244.837V244.868H99.2567V245.337H96.889V244.857ZM101.286 245.4C100.514 245.4 99.9248 244.8 99.9248 243.522C99.9248 242.239 100.514 241.645 101.286 241.645C102.058 241.645 102.647 242.239 102.647 243.522C102.647 244.8 102.058 245.4 101.286 245.4ZM100.446 243.522C100.446 244.482 100.764 244.936 101.286 244.936C101.807 244.936 102.126 244.482 102.126 243.522C102.126 242.558 101.807 242.109 101.286 242.109C100.764 242.109 100.446 242.558 100.446 243.522ZM104.499 245.4C103.691 245.4 103.237 244.956 103.211 244.31H103.743C103.764 244.69 104.03 244.936 104.499 244.936C104.958 244.936 105.25 244.727 105.25 244.31C105.25 243.893 104.958 243.684 104.442 243.684H104.035V243.215H104.421C104.88 243.215 105.12 242.996 105.12 242.657C105.12 242.312 104.88 242.109 104.499 242.109C104.071 242.109 103.847 242.312 103.816 242.662H103.32C103.341 242.073 103.774 241.645 104.499 241.645C105.24 241.645 105.641 242.146 105.641 242.651C105.641 243.022 105.427 243.256 105.083 243.397V243.439C105.526 243.559 105.771 243.877 105.771 244.357C105.771 244.956 105.333 245.4 104.499 245.4ZM107.754 245.4C106.982 245.4 106.393 244.8 106.393 243.522C106.393 242.239 106.982 241.645 107.754 241.645C108.526 241.645 109.115 242.239 109.115 243.522C109.115 244.8 108.526 245.4 107.754 245.4ZM106.914 243.522C106.914 244.482 107.232 244.936 107.754 244.936C108.275 244.936 108.593 244.482 108.593 243.522C108.593 242.558 108.275 242.109 107.754 242.109C107.232 242.109 106.914 242.558 106.914 243.522Z" fill="#747672"/>
<path d="M129.706 244.857C129.706 244.44 129.873 244.159 130.348 243.898L130.958 243.564C131.359 243.345 131.479 243.136 131.479 242.824C131.479 242.354 131.203 242.109 130.822 242.109C130.41 242.109 130.149 242.344 130.134 242.808H129.618C129.618 242.104 130.144 241.645 130.822 241.645C131.537 241.645 131.996 242.14 131.996 242.824C131.996 243.329 131.74 243.668 131.198 243.966L130.551 244.32C130.322 244.445 130.207 244.565 130.207 244.837V244.868H132.074V245.337H129.706V244.857ZM134.103 245.4C133.331 245.4 132.742 244.8 132.742 243.522C132.742 242.239 133.331 241.645 134.103 241.645C134.875 241.645 135.464 242.239 135.464 243.522C135.464 244.8 134.875 245.4 134.103 245.4ZM133.263 243.522C133.263 244.482 133.582 244.936 134.103 244.936C134.625 244.936 134.943 244.482 134.943 243.522C134.943 242.558 134.625 242.109 134.103 242.109C133.582 242.109 133.263 242.558 133.263 243.522ZM137.744 245.337V244.466H135.992V244.059L137.77 241.707H138.244V244.023H138.75V244.466H138.244V245.337H137.744ZM136.56 244.023H137.744V242.448H137.713L136.56 243.992V244.023ZM140.571 245.4C139.799 245.4 139.21 244.8 139.21 243.522C139.21 242.239 139.799 241.645 140.571 241.645C141.343 241.645 141.932 242.239 141.932 243.522C141.932 244.8 141.343 245.4 140.571 245.4ZM139.731 243.522C139.731 244.482 140.05 244.936 140.571 244.936C141.093 244.936 141.411 244.482 141.411 243.522C141.411 242.558 141.093 242.109 140.571 242.109C140.05 242.109 139.731 242.558 139.731 243.522Z" fill="#747672"/>
<path d="M162.523 244.857C162.523 244.44 162.69 244.159 163.165 243.898L163.775 243.564C164.177 243.345 164.297 243.136 164.297 242.824C164.297 242.354 164.02 242.109 163.639 242.109C163.227 242.109 162.967 242.344 162.951 242.808H162.435C162.435 242.104 162.961 241.645 163.639 241.645C164.354 241.645 164.813 242.14 164.813 242.824C164.813 243.329 164.557 243.668 164.015 243.966L163.368 244.32C163.139 244.445 163.024 244.565 163.024 244.837V244.868H164.891V245.337H162.523V244.857ZM166.92 245.4C166.148 245.4 165.559 244.8 165.559 243.522C165.559 242.239 166.148 241.645 166.92 241.645C167.692 241.645 168.281 242.239 168.281 243.522C168.281 244.8 167.692 245.4 166.92 245.4ZM166.081 243.522C166.081 244.482 166.399 244.936 166.92 244.936C167.442 244.936 167.76 244.482 167.76 243.522C167.76 242.558 167.442 242.109 166.92 242.109C166.399 242.109 166.081 242.558 166.081 243.522ZM170.149 245.4C169.461 245.4 168.934 245.029 168.845 244.388H169.362C169.455 244.722 169.747 244.936 170.149 244.936C170.655 244.936 170.952 244.607 170.952 244.117C170.952 243.642 170.671 243.309 170.17 243.309C169.81 243.309 169.555 243.481 169.403 243.684L168.955 243.611L169.132 241.707H171.239V242.177H169.56L169.455 243.147H169.487C169.669 242.954 169.935 242.844 170.243 242.844C170.973 242.844 171.474 243.371 171.474 244.112C171.474 244.847 170.952 245.4 170.149 245.4ZM173.388 245.4C172.616 245.4 172.027 244.8 172.027 243.522C172.027 242.239 172.616 241.645 173.388 241.645C174.16 241.645 174.749 242.239 174.749 243.522C174.749 244.8 174.16 245.4 173.388 245.4ZM172.549 243.522C172.549 244.482 172.867 244.936 173.388 244.936C173.91 244.936 174.228 244.482 174.228 243.522C174.228 242.558 173.91 242.109 173.388 242.109C172.867 242.109 172.549 242.558 172.549 243.522Z" fill="#747672"/>
<path d="M195.341 244.857C195.341 244.44 195.508 244.159 195.982 243.898L196.592 243.564C196.994 243.345 197.114 243.136 197.114 242.824C197.114 242.354 196.837 242.109 196.457 242.109C196.045 242.109 195.784 242.344 195.768 242.808H195.252C195.252 242.104 195.779 241.645 196.457 241.645C197.171 241.645 197.63 242.14 197.63 242.824C197.63 243.329 197.374 243.668 196.832 243.966L196.185 244.32C195.956 244.445 195.841 244.565 195.841 244.837V244.868H197.708V245.337H195.341V244.857ZM199.738 245.4C198.966 245.4 198.376 244.8 198.376 243.522C198.376 242.239 198.966 241.645 199.738 241.645C200.509 241.645 201.099 242.239 201.099 243.522C201.099 244.8 200.509 245.4 199.738 245.4ZM198.898 243.522C198.898 244.482 199.216 244.936 199.738 244.936C200.259 244.936 200.577 244.482 200.577 243.522C200.577 242.558 200.259 242.109 199.738 242.109C199.216 242.109 198.898 242.558 198.898 243.522ZM203.024 245.4C202.033 245.4 201.636 244.607 201.636 243.574C201.636 242.093 202.34 241.645 203.029 241.645C203.722 241.645 204.15 242.026 204.207 242.62H203.696C203.655 242.323 203.451 242.109 203.034 242.109C202.57 242.109 202.158 242.375 202.158 243.507H202.189C202.367 243.209 202.674 243.001 203.117 243.001C203.795 243.001 204.312 243.496 204.312 244.2C204.312 244.873 203.811 245.4 203.024 245.4ZM202.257 244.2C202.257 244.644 202.549 244.936 203.024 244.936C203.493 244.936 203.79 244.644 203.79 244.2C203.79 243.762 203.498 243.465 203.024 243.465C202.549 243.465 202.257 243.762 202.257 244.2ZM206.205 245.4C205.434 245.4 204.844 244.8 204.844 243.522C204.844 242.239 205.434 241.645 206.205 241.645C206.977 241.645 207.567 242.239 207.567 243.522C207.567 244.8 206.977 245.4 206.205 245.4ZM205.366 243.522C205.366 244.482 205.684 244.936 206.205 244.936C206.727 244.936 207.045 244.482 207.045 243.522C207.045 242.558 206.727 242.109 206.205 242.109C205.684 242.109 205.366 242.558 205.366 243.522Z" fill="#747672"/>
<path d="M228.158 244.857C228.158 244.44 228.325 244.159 228.799 243.898L229.409 243.564C229.811 243.345 229.931 243.136 229.931 242.824C229.931 242.354 229.655 242.109 229.274 242.109C228.862 242.109 228.601 242.344 228.585 242.808H228.069C228.069 242.104 228.596 241.645 229.274 241.645C229.988 241.645 230.447 242.14 230.447 242.824C230.447 243.329 230.192 243.668 229.649 243.966L229.003 244.32C228.773 244.445 228.658 244.565 228.658 244.837V244.868H230.525V245.337H228.158V244.857ZM232.555 245.4C231.783 245.4 231.194 244.8 231.194 243.522C231.194 242.239 231.783 241.645 232.555 241.645C233.327 241.645 233.916 242.239 233.916 243.522C233.916 244.8 233.327 245.4 232.555 245.4ZM231.715 243.522C231.715 244.482 232.033 244.936 232.555 244.936C233.076 244.936 233.394 244.482 233.394 243.522C233.394 242.558 233.076 242.109 232.555 242.109C232.033 242.109 231.715 242.558 231.715 243.522ZM235.288 245.337C235.288 243.934 235.554 243.23 236.592 242.219V242.177H234.438V241.707H237.155V242.271C236.023 243.439 235.841 243.913 235.841 245.337H235.288ZM239.023 245.4C238.251 245.4 237.661 244.8 237.661 243.522C237.661 242.239 238.251 241.645 239.023 241.645C239.794 241.645 240.384 242.239 240.384 243.522C240.384 244.8 239.794 245.4 239.023 245.4ZM238.183 243.522C238.183 244.482 238.501 244.936 239.023 244.936C239.544 244.936 239.862 244.482 239.862 243.522C239.862 242.558 239.544 242.109 239.023 242.109C238.501 242.109 238.183 242.558 238.183 243.522Z" fill="#747672"/>
<path d="M260.975 244.857C260.975 244.44 261.142 244.159 261.616 243.898L262.227 243.564C262.628 243.345 262.748 243.136 262.748 242.824C262.748 242.354 262.472 242.109 262.091 242.109C261.679 242.109 261.418 242.344 261.403 242.808H260.886C260.886 242.104 261.413 241.645 262.091 241.645C262.806 241.645 263.264 242.14 263.264 242.824C263.264 243.329 263.009 243.668 262.467 243.966L261.82 244.32C261.59 244.445 261.476 244.565 261.476 244.837V244.868H263.343V245.337H260.975V244.857ZM265.372 245.4C264.6 245.4 264.011 244.8 264.011 243.522C264.011 242.239 264.6 241.645 265.372 241.645C266.144 241.645 266.733 242.239 266.733 243.522C266.733 244.8 266.144 245.4 265.372 245.4ZM264.532 243.522C264.532 244.482 264.85 244.936 265.372 244.936C265.893 244.936 266.212 244.482 266.212 243.522C266.212 242.558 265.893 242.109 265.372 242.109C264.85 242.109 264.532 242.558 264.532 243.522ZM268.606 245.4C267.771 245.4 267.333 244.93 267.333 244.346C267.333 243.913 267.563 243.585 267.964 243.423V243.382C267.631 243.241 267.464 242.975 267.464 242.641C267.464 242.151 267.865 241.645 268.606 241.645C269.346 241.645 269.748 242.151 269.748 242.641C269.748 242.975 269.571 243.241 269.242 243.382V243.423C269.644 243.585 269.878 243.913 269.878 244.346C269.878 244.93 269.44 245.4 268.606 245.4ZM267.855 244.299C267.855 244.701 268.147 244.936 268.606 244.936C269.065 244.936 269.357 244.701 269.357 244.299C269.357 243.882 269.065 243.663 268.606 243.663C268.147 243.663 267.855 243.882 267.855 244.299ZM267.985 242.646C267.985 242.985 268.225 243.199 268.606 243.199C268.987 243.199 269.226 242.985 269.226 242.646C269.226 242.318 268.987 242.109 268.606 242.109C268.225 242.109 267.985 242.318 267.985 242.646ZM271.84 245.4C271.068 245.4 270.479 244.8 270.479 243.522C270.479 242.239 271.068 241.645 271.84 241.645C272.612 241.645 273.201 242.239 273.201 243.522C273.201 244.8 272.612 245.4 271.84 245.4ZM271 243.522C271 244.482 271.318 244.936 271.84 244.936C272.361 244.936 272.679 244.482 272.679 243.522C272.679 242.558 272.361 242.109 271.84 242.109C271.318 242.109 271 242.558 271 243.522Z" fill="#747672"/>
<path d="M293.792 244.857C293.792 244.44 293.959 244.159 294.434 243.898L295.044 243.564C295.445 243.345 295.565 243.136 295.565 242.824C295.565 242.354 295.289 242.109 294.908 242.109C294.496 242.109 294.235 242.344 294.22 242.808H293.704C293.704 242.104 294.23 241.645 294.908 241.645C295.623 241.645 296.082 242.14 296.082 242.824C296.082 243.329 295.826 243.668 295.284 243.966L294.637 244.32C294.408 244.445 294.293 244.565 294.293 244.837V244.868H296.16V245.337H293.792V244.857ZM298.189 245.4C297.417 245.4 296.828 244.8 296.828 243.522C296.828 242.239 297.417 241.645 298.189 241.645C298.961 241.645 299.55 242.239 299.55 243.522C299.55 244.8 298.961 245.4 298.189 245.4ZM297.349 243.522C297.349 244.482 297.668 244.936 298.189 244.936C298.711 244.936 299.029 244.482 299.029 243.522C299.029 242.558 298.711 242.109 298.189 242.109C297.668 242.109 297.349 242.558 297.349 243.522ZM301.366 245.4C300.641 245.4 300.224 245.019 300.166 244.425H300.677C300.719 244.722 300.912 244.936 301.36 244.936C301.845 244.936 302.237 244.67 302.237 243.538H302.205C302.028 243.835 301.72 244.044 301.277 244.044C300.599 244.044 300.083 243.548 300.083 242.844C300.083 242.172 300.583 241.645 301.371 241.645C302.362 241.645 302.758 242.438 302.758 243.47C302.758 244.951 302.075 245.4 301.366 245.4ZM300.604 242.844C300.604 243.282 300.896 243.58 301.371 243.58C301.845 243.58 302.138 243.282 302.138 242.844C302.138 242.401 301.845 242.109 301.371 242.109C300.902 242.109 300.604 242.401 300.604 242.844ZM304.657 245.4C303.885 245.4 303.296 244.8 303.296 243.522C303.296 242.239 303.885 241.645 304.657 241.645C305.429 241.645 306.018 242.239 306.018 243.522C306.018 244.8 305.429 245.4 304.657 245.4ZM303.817 243.522C303.817 244.482 304.136 244.936 304.657 244.936C305.179 244.936 305.497 244.482 305.497 243.522C305.497 242.558 305.179 242.109 304.657 242.109C304.136 242.109 303.817 242.558 303.817 243.522Z" fill="#747672"/>
<path d="M326.609 244.857C326.609 244.44 326.776 244.159 327.251 243.898L327.861 243.564C328.263 243.345 328.383 243.136 328.383 242.824C328.383 242.354 328.106 242.109 327.725 242.109C327.313 242.109 327.053 242.344 327.037 242.808H326.521C326.521 242.104 327.047 241.645 327.725 241.645C328.44 241.645 328.899 242.14 328.899 242.824C328.899 243.329 328.643 243.668 328.101 243.966L327.454 244.32C327.225 244.445 327.11 244.565 327.11 244.837V244.868H328.977V245.337H326.609V244.857ZM329.807 245.337V244.868H330.839V242.73H329.922V242.312H330.177C330.662 242.312 330.881 242.109 330.98 241.707H331.34V244.868H332.3V245.337H329.807ZM334.24 245.4C333.468 245.4 332.879 244.8 332.879 243.522C332.879 242.239 333.468 241.645 334.24 241.645C335.012 241.645 335.601 242.239 335.601 243.522C335.601 244.8 335.012 245.4 334.24 245.4ZM333.401 243.522C333.401 244.482 333.719 244.936 334.24 244.936C334.762 244.936 335.08 244.482 335.08 243.522C335.08 242.558 334.762 242.109 334.24 242.109C333.719 242.109 333.401 242.558 333.401 243.522ZM337.474 245.4C336.702 245.4 336.113 244.8 336.113 243.522C336.113 242.239 336.702 241.645 337.474 241.645C338.246 241.645 338.835 242.239 338.835 243.522C338.835 244.8 338.246 245.4 337.474 245.4ZM336.635 243.522C336.635 244.482 336.953 244.936 337.474 244.936C337.996 244.936 338.314 244.482 338.314 243.522C338.314 242.558 337.996 242.109 337.474 242.109C336.953 242.109 336.635 242.558 336.635 243.522Z" fill="#747672"/>
<line x1="17.789" y1="235.406" x2="17.789" y2="239.28" stroke="#DBDBDB" stroke-width="0.35226"/>
<line x1="36.8125" y1="235.262" x2="36.8125" y2="239.114" stroke="#DBDBDB" stroke-width="0.35226"/>
<line x1="235.498" y1="235.262" x2="235.498" y2="239.114" stroke="#DBDBDB" stroke-width="0.35226"/>
<line x1="136.155" y1="235.262" x2="136.155" y2="239.114" stroke="#DBDBDB" stroke-width="0.35226"/>
<line x1="334.841" y1="235.262" x2="334.841" y2="239.114" stroke="#DBDBDB" stroke-width="0.35226"/>
<line x1="69.9265" y1="235.262" x2="69.9265" y2="239.114" stroke="#DBDBDB" stroke-width="0.35226"/>
<line x1="268.612" y1="235.262" x2="268.612" y2="239.114" stroke="#DBDBDB" stroke-width="0.35226"/>
<line x1="169.27" y1="235.262" x2="169.27" y2="239.114" stroke="#DBDBDB" stroke-width="0.35226"/>
<line x1="103.041" y1="235.262" x2="103.041" y2="239.114" stroke="#DBDBDB" stroke-width="0.35226"/>
<line x1="301.727" y1="235.262" x2="301.727" y2="239.114" stroke="#DBDBDB" stroke-width="0.35226"/>
<line x1="202.384" y1="235.262" x2="202.384" y2="239.114" stroke="#DBDBDB" stroke-width="0.35226"/>
<path d="M17.7312 72.3693C22.0103 70.8523 31.5021 67.1247 34.5697 65.2175C38.4042 62.8336 46.5733 55.4652 51.4081 54.1648C56.2429 52.8645 63.1111 52.2958 68.2466 52.2144C81.9174 51.9976 91.507 92.3074 101.59 104.01C106.258 109.428 130.432 137.819 135.267 141.936C140.102 146.054 162.275 165.559 168.277 167.943C174.279 170.326 196.452 177.695 201.621 178.778C206.789 179.862 229.129 186.364 235.131 187.664C241.133 188.964 261.806 195.032 268.808 196.549C275.81 198.067 295.816 204.568 301.484 206.085C307.153 207.602 332.327 215.404 335.328 216.488" stroke="#EA642B" stroke-width="1.04301"/>
<ellipse cx="8.37147" cy="269.16" rx="6.25806" ry="6.25806" fill="#F2A17E"/>
<path d="M8.3437 269.844C8.50571 269.844 8.63705 269.713 8.63705 269.551C8.63705 269.389 8.50571 269.257 8.3437 269.257C8.18169 269.257 8.05035 269.389 8.05035 269.551C8.05035 269.713 8.18169 269.844 8.3437 269.844Z" fill="white"/>
<path d="M11.0486 270.018L9.66472 269.218C9.40234 269.066 9.2407 268.785 9.2407 268.482V266.88C9.2407 266.411 8.86102 266.031 8.39265 266.031C7.92429 266.031 7.54461 266.411 7.54461 266.88V268.482C7.54461 268.785 7.38296 269.066 7.12058 269.218L5.7366 270.018C5.33099 270.253 5.19201 270.773 5.4262 271.179C5.66038 271.585 6.17904 271.725 6.58464 271.49L7.96849 270.69C8.23086 270.538 8.55416 270.538 8.81653 270.69L10.2005 271.49C10.6061 271.725 11.1248 271.586 11.359 271.179C11.5931 270.773 11.4542 270.253 11.0486 270.018V270.018Z" stroke="white" stroke-width="0.521505" stroke-miterlimit="10"/>
<path d="M17.8335 271.16V267.405H19.4867C20.2116 267.405 20.6914 267.838 20.6914 268.505C20.6914 269.168 20.2116 269.606 19.4606 269.606H18.3446V271.16H17.8335ZM18.3446 269.136H19.445C19.8831 269.136 20.149 268.917 20.149 268.505C20.149 268.083 19.8883 267.874 19.4659 267.874H18.3446V269.136ZM22.3836 271.222C21.6066 271.222 21.0538 270.664 21.0538 269.804C21.0538 268.943 21.6066 268.385 22.3836 268.385C23.1554 268.385 23.7134 268.943 23.7134 269.804C23.7134 270.664 23.1554 271.222 22.3836 271.222ZM21.5648 269.804C21.5648 270.403 21.8464 270.774 22.3836 270.774C22.9103 270.774 23.2024 270.403 23.2024 269.804C23.2024 269.204 22.9103 268.834 22.3836 268.834C21.8464 268.834 21.5648 269.204 21.5648 269.804ZM25.2863 271.222C24.6188 271.222 24.2485 270.92 24.0869 270.414L24.5719 270.273C24.6658 270.596 24.8691 270.774 25.2863 270.774C25.7244 270.774 25.8965 270.623 25.8965 270.409C25.8965 270.216 25.7609 270.07 25.5262 270.038L24.9682 269.965C24.4624 269.898 24.1808 269.647 24.1808 269.188C24.1808 268.756 24.5249 268.385 25.1925 268.385C25.7766 268.385 26.1573 268.662 26.2929 269.1L25.8235 269.251C25.7192 268.985 25.5367 268.834 25.1925 268.834C24.8066 268.834 24.6553 269.001 24.6553 269.188C24.6553 269.381 24.7961 269.496 25.0308 269.527L25.5836 269.606C26.1155 269.679 26.3711 269.976 26.3711 270.409C26.3711 270.883 25.9852 271.222 25.2863 271.222ZM26.883 271.16V268.448H27.3732V271.16H26.883ZM26.8256 267.64C26.8256 267.467 26.9456 267.342 27.1281 267.342C27.3106 267.342 27.4306 267.467 27.4306 267.64C27.4306 267.806 27.3106 267.937 27.1281 267.937C26.9456 267.937 26.8256 267.806 26.8256 267.64ZM28.9814 271.17C28.5173 271.17 28.2722 270.915 28.2722 270.497V268.875H27.7663V268.448H28.2722V267.707H28.7624V268.448H29.4195V268.875H28.7624V270.45C28.7624 270.638 28.851 270.722 29.0492 270.722H29.4716V271.17H28.9814ZM29.9387 271.16V268.448H30.4289V271.16H29.9387ZM29.8813 267.64C29.8813 267.467 30.0013 267.342 30.1838 267.342C30.3663 267.342 30.4863 267.467 30.4863 267.64C30.4863 267.806 30.3663 267.937 30.1838 267.937C30.0013 267.937 29.8813 267.806 29.8813 267.64ZM31.8598 271.16L30.8272 268.448H31.3748L32.1362 270.565H32.1988L32.9602 268.448H33.4869L32.4543 271.16H31.8598ZM35.0133 271.222C34.2467 271.222 33.7043 270.664 33.7043 269.804C33.7043 268.959 34.2676 268.385 35.0185 268.385C35.7486 268.385 36.2597 268.891 36.2597 269.799V269.945H34.205C34.2519 270.456 34.544 270.774 35.0133 270.774C35.3836 270.774 35.5974 270.612 35.7382 270.294L36.1919 270.45C36.0198 270.941 35.6287 271.222 35.0133 271.222ZM34.2206 269.543H35.7434C35.7121 269.141 35.4409 268.834 35.0185 268.834C34.6326 268.834 34.3093 269.063 34.2206 269.543ZM39.3524 271.222C38.5858 271.222 38.0434 270.664 38.0434 269.804C38.0434 268.959 38.6066 268.385 39.3576 268.385C40.0877 268.385 40.5988 268.891 40.5988 269.799V269.945H38.5441C38.591 270.456 38.883 270.774 39.3524 270.774C39.7227 270.774 39.9365 270.612 40.0773 270.294L40.531 270.45C40.3589 270.941 39.9678 271.222 39.3524 271.222ZM38.5597 269.543H40.0825C40.0512 269.141 39.78 268.834 39.3576 268.834C38.9717 268.834 38.6484 269.063 38.5597 269.543ZM41.2091 271.16V268.448H41.6993V268.756H41.7306C41.9079 268.516 42.1374 268.385 42.4764 268.385C42.8571 268.385 43.1335 268.552 43.2743 268.834H43.3004C43.4933 268.542 43.7541 268.385 44.1452 268.385C44.6876 268.385 45.0683 268.761 45.0683 269.35V271.16H44.578V269.47C44.578 269.053 44.3851 268.834 44.0565 268.834C43.6446 268.834 43.3838 269.095 43.3838 269.72V271.16H42.8936V269.47C42.8936 269.053 42.7006 268.834 42.3721 268.834C41.9601 268.834 41.6993 269.095 41.6993 269.72V271.16H41.2091ZM45.757 271.16V268.448H46.2472V271.16H45.757ZM45.6997 267.64C45.6997 267.467 45.8196 267.342 46.0021 267.342C46.1847 267.342 46.3046 267.467 46.3046 267.64C46.3046 267.806 46.1847 267.937 46.0021 267.937C45.8196 267.937 45.6997 267.806 45.6997 267.64ZM47.9545 271.222C47.287 271.222 46.9167 270.92 46.755 270.414L47.24 270.273C47.3339 270.596 47.5373 270.774 47.9545 270.774C48.3926 270.774 48.5647 270.623 48.5647 270.409C48.5647 270.216 48.4291 270.07 48.1944 270.038L47.6364 269.965C47.1305 269.898 46.8489 269.647 46.8489 269.188C46.8489 268.756 47.1931 268.385 47.8606 268.385C48.4447 268.385 48.8254 268.662 48.961 269.1L48.4917 269.251C48.3874 268.985 48.2048 268.834 47.8606 268.834C47.4747 268.834 47.3235 269.001 47.3235 269.188C47.3235 269.381 47.4643 269.496 47.699 269.527L48.2518 269.606C48.7837 269.679 49.0392 269.976 49.0392 270.409C49.0392 270.883 48.6533 271.222 47.9545 271.222ZM50.5264 271.222C49.8589 271.222 49.4886 270.92 49.3269 270.414L49.8119 270.273C49.9058 270.596 50.1092 270.774 50.5264 270.774C50.9645 270.774 51.1365 270.623 51.1365 270.409C51.1365 270.216 51.001 270.07 50.7663 270.038L50.2083 269.965C49.7024 269.898 49.4208 269.647 49.4208 269.188C49.4208 268.756 49.765 268.385 50.4325 268.385C51.0166 268.385 51.3973 268.662 51.5329 269.1L51.0635 269.251C50.9592 268.985 50.7767 268.834 50.4325 268.834C50.0466 268.834 49.8954 269.001 49.8954 269.188C49.8954 269.381 50.0362 269.496 50.2709 269.527L50.8236 269.606C51.3556 269.679 51.6111 269.976 51.6111 270.409C51.6111 270.883 51.2252 271.222 50.5264 271.222ZM52.123 271.16V268.448H52.6133V271.16H52.123ZM52.0657 267.64C52.0657 267.467 52.1856 267.342 52.3682 267.342C52.5507 267.342 52.6706 267.467 52.6706 267.64C52.6706 267.806 52.5507 267.937 52.3682 267.937C52.1856 267.937 52.0657 267.806 52.0657 267.64ZM54.5448 271.222C53.7677 271.222 53.215 270.664 53.215 269.804C53.215 268.943 53.7677 268.385 54.5448 268.385C55.3166 268.385 55.8746 268.943 55.8746 269.804C55.8746 270.664 55.3166 271.222 54.5448 271.222ZM53.726 269.804C53.726 270.403 54.0076 270.774 54.5448 270.774C55.0715 270.774 55.3636 270.403 55.3636 269.804C55.3636 269.204 55.0715 268.834 54.5448 268.834C54.0076 268.834 53.726 269.204 53.726 269.804ZM56.4723 271.16V268.448H56.9625V268.771H56.9938C57.1868 268.521 57.4423 268.385 57.7865 268.385C58.3654 268.385 58.7461 268.761 58.7461 269.413V271.16H58.2559V269.506C58.2559 269.053 58.0421 268.834 57.6979 268.834C57.2598 268.834 56.9625 269.115 56.9625 269.804V271.16H56.4723ZM60.4116 271.222C59.744 271.222 59.3738 270.92 59.2121 270.414L59.6971 270.273C59.791 270.596 59.9944 270.774 60.4116 270.774C60.8496 270.774 61.0217 270.623 61.0217 270.409C61.0217 270.216 60.8861 270.07 60.6515 270.038L60.0934 269.965C59.5876 269.898 59.306 269.647 59.306 269.188C59.306 268.756 59.6502 268.385 60.3177 268.385C60.9018 268.385 61.2825 268.662 61.4181 269.1L60.9487 269.251C60.8444 268.985 60.6619 268.834 60.3177 268.834C59.9318 268.834 59.7805 269.001 59.7805 269.188C59.7805 269.381 59.9213 269.496 60.156 269.527L60.7088 269.606C61.2408 269.679 61.4963 269.976 61.4963 270.409C61.4963 270.883 61.1104 271.222 60.4116 271.222Z" fill="#161814"/>
<ellipse cx="82.7961" cy="269.16" rx="6.25806" ry="6.25806" fill="#5B663D"/>
<path d="M83.0051 269.453V272.289" stroke="white" stroke-width="0.521505" stroke-miterlimit="10"/>
<path d="M86.4275 269.055C86.4275 269.977 85.6722 270.724 84.7408 270.724H81.2694C80.3381 270.724 79.5827 269.977 79.5827 269.055C79.5827 268.133 80.338 267.386 81.2694 267.386C81.2955 267.386 81.3216 267.386 81.3476 267.388C81.4952 266.615 82.181 266.031 83.0045 266.031C83.828 266.031 84.5138 266.615 84.6614 267.388C84.6875 267.386 84.7147 267.386 84.7408 267.386C85.6721 267.386 86.4275 268.133 86.4275 269.055Z" stroke="white" stroke-width="0.521505" stroke-miterlimit="10"/>
<path d="M84.0807 268.475L83.054 269.551L82.0273 268.475" stroke="white" stroke-width="0.521505" stroke-miterlimit="10"/>
<path d="M92.2581 271.16V267.405H92.9726L94.8604 270.617H94.9074V267.405H95.3976V271.16H94.6362L92.7953 267.994H92.7483V271.16H92.2581ZM96.9047 271.222C96.3676 271.222 96.0234 270.894 96.0234 270.419C96.0234 269.939 96.3154 269.626 96.9308 269.574L97.8069 269.501V269.387C97.8069 269.037 97.6035 268.823 97.2072 268.823C96.7848 268.823 96.597 269.011 96.571 269.293H96.1016C96.1225 268.766 96.5292 268.385 97.2072 268.385C97.8956 268.385 98.2971 268.776 98.2971 269.376V270.581L98.3076 271.16H97.833L97.8278 270.779H97.7965C97.614 271.076 97.2646 271.222 96.9047 271.222ZM96.5032 270.398C96.5032 270.643 96.67 270.805 96.9882 270.805C97.3897 270.805 97.76 270.518 97.8017 269.887L97.0247 269.96C96.6544 269.997 96.5032 270.169 96.5032 270.398ZM99.8614 271.17C99.3972 271.17 99.1521 270.915 99.1521 270.497V268.875H98.6463V268.448H99.1521V267.707H99.6423V268.448H100.299V268.875H99.6423V270.45C99.6423 270.638 99.731 270.722 99.9292 270.722H100.352V271.17H99.8614ZM103.051 268.448V271.16H102.56V270.836H102.529C102.336 271.087 102.081 271.222 101.737 271.222C101.158 271.222 100.777 270.847 100.777 270.195V268.448H101.267V270.101C101.267 270.555 101.481 270.774 101.825 270.774C102.263 270.774 102.56 270.492 102.56 269.804V268.448H103.051ZM103.783 271.16V268.448H104.273V268.886H104.304C104.45 268.604 104.721 268.385 105.165 268.385H105.316V268.886H105.092C104.586 268.886 104.273 269.225 104.273 269.903V271.16H103.783ZM106.382 271.222C105.845 271.222 105.501 270.894 105.501 270.419C105.501 269.939 105.793 269.626 106.409 269.574L107.285 269.501V269.387C107.285 269.037 107.081 268.823 106.685 268.823C106.263 268.823 106.075 269.011 106.049 269.293H105.579C105.6 268.766 106.007 268.385 106.685 268.385C107.373 268.385 107.775 268.776 107.775 269.376V270.581L107.785 271.16H107.311L107.306 270.779H107.274C107.092 271.076 106.742 271.222 106.382 271.222ZM105.981 270.398C105.981 270.643 106.148 270.805 106.466 270.805C106.867 270.805 107.238 270.518 107.279 269.887L106.502 269.96C106.132 269.997 105.981 270.169 105.981 270.398ZM108.463 271.16V267.405H108.953V271.16H108.463ZM112.204 271.222C111.432 271.222 110.859 270.664 110.859 269.804C110.859 268.943 111.438 268.385 112.204 268.385C112.861 268.385 113.341 268.782 113.43 269.392L112.95 269.47C112.877 269.1 112.642 268.834 112.204 268.834C111.677 268.834 111.37 269.204 111.37 269.804C111.37 270.403 111.672 270.774 112.204 270.774C112.642 270.774 112.866 270.508 112.945 270.132L113.424 270.247C113.341 270.826 112.861 271.222 112.204 271.222ZM113.968 271.16V267.405H114.459V271.16H113.968ZM115.191 271.16V268.448H115.681V271.16H115.191ZM115.133 267.64C115.133 267.467 115.253 267.342 115.436 267.342C115.618 267.342 115.738 267.467 115.738 267.64C115.738 267.806 115.618 267.937 115.436 267.937C115.253 267.937 115.133 267.806 115.133 267.64ZM116.413 271.16V268.448H116.903V268.756H116.934C117.112 268.516 117.341 268.385 117.68 268.385C118.061 268.385 118.337 268.552 118.478 268.834H118.504C118.697 268.542 118.958 268.385 119.349 268.385C119.891 268.385 120.272 268.761 120.272 269.35V271.16H119.782V269.47C119.782 269.053 119.589 268.834 119.26 268.834C118.848 268.834 118.588 269.095 118.588 269.72V271.16H118.097V269.47C118.097 269.053 117.904 268.834 117.576 268.834C117.164 268.834 116.903 269.095 116.903 269.72V271.16H116.413ZM121.717 271.222C121.18 271.222 120.836 270.894 120.836 270.419C120.836 269.939 121.128 269.626 121.743 269.574L122.619 269.501V269.387C122.619 269.037 122.416 268.823 122.019 268.823C121.597 268.823 121.409 269.011 121.383 269.293H120.914C120.935 268.766 121.341 268.385 122.019 268.385C122.708 268.385 123.109 268.776 123.109 269.376V270.581L123.12 271.16H122.645L122.64 270.779H122.609C122.426 271.076 122.077 271.222 121.717 271.222ZM121.315 270.398C121.315 270.643 121.482 270.805 121.8 270.805C122.202 270.805 122.572 270.518 122.614 269.887L121.837 269.96C121.467 269.997 121.315 270.169 121.315 270.398ZM124.674 271.17C124.209 271.17 123.964 270.915 123.964 270.497V268.875H123.459V268.448H123.964V267.707H124.455V268.448H125.112V268.875H124.455V270.45C124.455 270.638 124.543 270.722 124.741 270.722H125.164V271.17H124.674ZM126.759 271.222C125.992 271.222 125.45 270.664 125.45 269.804C125.45 268.959 126.013 268.385 126.764 268.385C127.494 268.385 128.005 268.891 128.005 269.799V269.945H125.95C125.997 270.456 126.289 270.774 126.759 270.774C127.129 270.774 127.343 270.612 127.483 270.294L127.937 270.45C127.765 270.941 127.374 271.222 126.759 271.222ZM125.966 269.543H127.489C127.457 269.141 127.186 268.834 126.764 268.834C126.378 268.834 126.055 269.063 125.966 269.543ZM130.894 271.222C130.227 271.222 129.856 270.92 129.695 270.414L130.18 270.273C130.274 270.596 130.477 270.774 130.894 270.774C131.332 270.774 131.504 270.623 131.504 270.409C131.504 270.216 131.369 270.07 131.134 270.038L130.576 269.965C130.07 269.898 129.789 269.647 129.789 269.188C129.789 268.756 130.133 268.385 130.8 268.385C131.384 268.385 131.765 268.662 131.901 269.1L131.431 269.251C131.327 268.985 131.145 268.834 130.8 268.834C130.414 268.834 130.263 269.001 130.263 269.188C130.263 269.381 130.404 269.496 130.639 269.527L131.192 269.606C131.723 269.679 131.979 269.976 131.979 270.409C131.979 270.883 131.593 271.222 130.894 271.222ZM133.69 271.222C132.913 271.222 132.361 270.664 132.361 269.804C132.361 268.943 132.913 268.385 133.69 268.385C134.462 268.385 135.02 268.943 135.02 269.804C135.02 270.664 134.462 271.222 133.69 271.222ZM132.872 269.804C132.872 270.403 133.153 270.774 133.69 270.774C134.217 270.774 134.509 270.403 134.509 269.804C134.509 269.204 134.217 268.834 133.69 268.834C133.153 268.834 132.872 269.204 132.872 269.804ZM135.618 271.16V267.405H136.108V271.16H135.618ZM139.072 268.448V271.16H138.582V270.836H138.551C138.358 271.087 138.102 271.222 137.758 271.222C137.179 271.222 136.798 270.847 136.798 270.195V268.448H137.289V270.101C137.289 270.555 137.503 270.774 137.847 270.774C138.285 270.774 138.582 270.492 138.582 269.804V268.448H139.072ZM140.68 271.17C140.216 271.17 139.971 270.915 139.971 270.497V268.875H139.465V268.448H139.971V267.707H140.461V268.448H141.118V268.875H140.461V270.45C140.461 270.638 140.55 270.722 140.748 270.722H141.171V271.17H140.68ZM141.638 271.16V268.448H142.128V271.16H141.638ZM141.58 267.64C141.58 267.467 141.7 267.342 141.883 267.342C142.065 267.342 142.185 267.467 142.185 267.64C142.185 267.806 142.065 267.937 141.883 267.937C141.7 267.937 141.58 267.806 141.58 267.64ZM144.059 271.222C143.282 271.222 142.73 270.664 142.73 269.804C142.73 268.943 143.282 268.385 144.059 268.385C144.831 268.385 145.389 268.943 145.389 269.804C145.389 270.664 144.831 271.222 144.059 271.222ZM143.241 269.804C143.241 270.403 143.522 270.774 144.059 270.774C144.586 270.774 144.878 270.403 144.878 269.804C144.878 269.204 144.586 268.834 144.059 268.834C143.522 268.834 143.241 269.204 143.241 269.804ZM145.987 271.16V268.448H146.477V268.771H146.508C146.701 268.521 146.957 268.385 147.301 268.385C147.88 268.385 148.261 268.761 148.261 269.413V271.16H147.77V269.506C147.77 269.053 147.557 268.834 147.212 268.834C146.774 268.834 146.477 269.115 146.477 269.804V271.16H145.987ZM149.926 271.222C149.259 271.222 148.888 270.92 148.727 270.414L149.212 270.273C149.306 270.596 149.509 270.774 149.926 270.774C150.364 270.774 150.536 270.623 150.536 270.409C150.536 270.216 150.401 270.07 150.166 270.038L149.608 269.965C149.102 269.898 148.821 269.647 148.821 269.188C148.821 268.756 149.165 268.385 149.832 268.385C150.416 268.385 150.797 268.662 150.933 269.1L150.463 269.251C150.359 268.985 150.176 268.834 149.832 268.834C149.446 268.834 149.295 269.001 149.295 269.188C149.295 269.381 149.436 269.496 149.671 269.527L150.223 269.606C150.755 269.679 151.011 269.976 151.011 270.409C151.011 270.883 150.625 271.222 149.926 271.222Z" fill="#161814"/>
<ellipse cx="172.221" cy="269.16" rx="6.25806" ry="6.25806" fill="#B2BA9B"/>
<g clip-path="url(#clip0_724_8377)">
<path d="M175.1 269.16C175.1 270.744 173.816 272.028 172.232 272.028C170.648 272.028 169.364 270.744 169.364 269.16C169.364 267.576 170.648 266.291 172.232 266.291C173.816 266.291 175.1 267.576 175.1 269.16Z" stroke="white" stroke-width="0.521505" stroke-miterlimit="10"/>
<line x1="171.254" y1="269.094" x2="173.21" y2="269.094" stroke="white" stroke-width="0.521505"/>
</g>
<path d="M181.318 271.16L182.762 267.405H183.372L184.817 271.16H184.243L183.899 270.221H182.215L181.87 271.16H181.318ZM182.392 269.741H183.722L183.086 268.02H183.023L182.392 269.741ZM185.201 271.16V268.448H185.692V268.886H185.723C185.869 268.604 186.14 268.385 186.583 268.385H186.735V268.886H186.51C186.004 268.886 185.692 269.225 185.692 269.903V271.16H185.201ZM188.237 271.17C187.773 271.17 187.528 270.915 187.528 270.497V268.875H187.022V268.448H187.528V267.707H188.018V268.448H188.675V268.875H188.018L188.018 270.45C188.018 270.638 188.106 270.722 188.305 270.722H188.727V271.17H188.237ZM189.194 271.16V268.448H189.684V271.16H189.194ZM189.137 267.64C189.137 267.467 189.257 267.342 189.439 267.342C189.622 267.342 189.742 267.467 189.742 267.64C189.742 267.806 189.622 267.937 189.439 267.937C189.257 267.937 189.137 267.806 189.137 267.64ZM192.216 271.16V268.875H191.074V271.16H190.583V268.875H190.077V268.448H190.583V268.02C190.583 267.598 190.834 267.342 191.303 267.342H191.804V267.791H191.345C191.162 267.791 191.074 267.869 191.074 268.046V268.448H192.706V271.16H192.216ZM194.652 271.222C193.88 271.222 193.306 270.664 193.306 269.804C193.306 268.943 193.885 268.385 194.652 268.385C195.309 268.385 195.788 268.782 195.877 269.392L195.397 269.47C195.324 269.1 195.09 268.834 194.652 268.834C194.125 268.834 193.817 269.204 193.817 269.804C193.817 270.403 194.12 270.774 194.652 270.774C195.09 270.774 195.314 270.508 195.392 270.132L195.872 270.247C195.788 270.826 195.309 271.222 194.652 271.222ZM196.416 271.16V268.448H196.906V271.16H196.416ZM196.358 267.64C196.358 267.467 196.478 267.342 196.661 267.342C196.843 267.342 196.963 267.467 196.963 267.64C196.963 267.806 196.843 267.937 196.661 267.937C196.478 267.937 196.358 267.806 196.358 267.64ZM198.394 271.222C197.857 271.222 197.513 270.894 197.513 270.419C197.513 269.939 197.805 269.626 198.42 269.574L199.296 269.501V269.387C199.296 269.037 199.093 268.823 198.697 268.823C198.274 268.823 198.087 269.011 198.06 269.293H197.591C197.612 268.766 198.019 268.385 198.697 268.385C199.385 268.385 199.787 268.776 199.787 269.376V270.581L199.797 271.16H199.322L199.317 270.779H199.286C199.103 271.076 198.754 271.222 198.394 271.222ZM197.993 270.398C197.993 270.643 198.16 270.805 198.478 270.805C198.879 270.805 199.249 270.518 199.291 269.887L198.514 269.96C198.144 269.997 197.993 270.169 197.993 270.398ZM200.475 271.16V267.405H200.965V271.16H200.475ZM204.216 271.222C203.444 271.222 202.87 270.664 202.87 269.804C202.87 268.943 203.449 268.385 204.216 268.385C204.873 268.385 205.353 268.782 205.441 269.392L204.962 269.47C204.889 269.1 204.654 268.834 204.216 268.834C203.689 268.834 203.381 269.204 203.381 269.804C203.381 270.403 203.684 270.774 204.216 270.774C204.654 270.774 204.878 270.508 204.956 270.132L205.436 270.247C205.353 270.826 204.873 271.222 204.216 271.222ZM206.736 271.222C206.199 271.222 205.855 270.894 205.855 270.419C205.855 269.939 206.147 269.626 206.762 269.574L207.638 269.501V269.387C207.638 269.037 207.435 268.823 207.039 268.823C206.616 268.823 206.429 269.011 206.402 269.293H205.933C205.954 268.766 206.361 268.385 207.039 268.385C207.727 268.385 208.129 268.776 208.129 269.376V270.581L208.139 271.16H207.665L207.659 270.779H207.628C207.446 271.076 207.096 271.222 206.736 271.222ZM206.335 270.398C206.335 270.643 206.502 270.805 206.82 270.805C207.221 270.805 207.592 270.518 207.633 269.887L206.856 269.96C206.486 269.997 206.335 270.169 206.335 270.398ZM208.817 271.16V268.448H209.307V268.886H209.338C209.484 268.604 209.755 268.385 210.199 268.385H210.35V268.886H210.126C209.62 268.886 209.307 269.225 209.307 269.903V271.16H208.817ZM212.195 271.222C211.809 271.222 211.522 271.055 211.34 270.805H211.308V271.16H210.818V267.405H211.308V268.802H211.34C211.533 268.552 211.809 268.385 212.211 268.385C212.909 268.385 213.426 268.948 213.426 269.804C213.426 270.659 212.909 271.222 212.195 271.222ZM211.293 269.804C211.293 270.414 211.601 270.774 212.106 270.774C212.597 270.774 212.915 270.409 212.915 269.804C212.915 269.199 212.597 268.834 212.106 268.834C211.601 268.834 211.293 269.183 211.293 269.804ZM215.226 271.222C214.449 271.222 213.896 270.664 213.896 269.804C213.896 268.943 214.449 268.385 215.226 268.385C215.998 268.385 216.556 268.943 216.556 269.804C216.556 270.664 215.998 271.222 215.226 271.222ZM214.407 269.804C214.407 270.403 214.689 270.774 215.226 270.774C215.753 270.774 216.045 270.403 216.045 269.804C216.045 269.204 215.753 268.834 215.226 268.834C214.689 268.834 214.407 269.204 214.407 269.804ZM217.154 271.16V268.448H217.644V268.771H217.675C217.868 268.521 218.124 268.385 218.468 268.385C219.047 268.385 219.428 268.761 219.428 269.413V271.16H218.937V269.506C218.937 269.053 218.723 268.834 218.379 268.834C217.941 268.834 217.644 269.115 217.644 269.804V271.16H217.154ZM221.422 271.16V268.448H221.912V268.886H221.943C222.089 268.604 222.36 268.385 222.804 268.385H222.955V268.886H222.731C222.225 268.886 221.912 269.225 221.912 269.903V271.16H221.422ZM224.5 271.222C223.733 271.222 223.191 270.664 223.191 269.804C223.191 268.959 223.754 268.385 224.505 268.385C225.235 268.385 225.746 268.891 225.746 269.799V269.945H223.691C223.738 270.456 224.03 270.774 224.5 270.774C224.87 270.774 225.084 270.612 225.225 270.294L225.678 270.45C225.506 270.941 225.115 271.222 224.5 271.222ZM223.707 269.543H225.23C225.199 269.141 224.927 268.834 224.505 268.834C224.119 268.834 223.796 269.063 223.707 269.543ZM226.356 271.16V268.448H226.847V268.756H226.878C227.055 268.516 227.285 268.385 227.624 268.385C228.004 268.385 228.281 268.552 228.422 268.834H228.448C228.641 268.542 228.901 268.385 229.293 268.385C229.835 268.385 230.216 268.761 230.216 269.35V271.16H229.725V269.47C229.725 269.053 229.532 268.834 229.204 268.834C228.792 268.834 228.531 269.095 228.531 269.72V271.16H228.041V269.47C228.041 269.053 227.848 268.834 227.519 268.834C227.107 268.834 226.847 269.095 226.847 269.72V271.16H226.356ZM232.104 271.222C231.327 271.222 230.774 270.664 230.774 269.804C230.774 268.943 231.327 268.385 232.104 268.385C232.876 268.385 233.434 268.943 233.434 269.804C233.434 270.664 232.876 271.222 232.104 271.222ZM231.285 269.804C231.285 270.403 231.567 270.774 232.104 270.774C232.631 270.774 232.923 270.403 232.923 269.804C232.923 269.204 232.631 268.834 232.104 268.834C231.567 268.834 231.285 269.204 231.285 269.804ZM234.679 271.16L233.647 268.448H234.194L234.956 270.565H235.018L235.78 268.448H236.306L235.274 271.16H234.679ZM237.359 271.222C236.822 271.222 236.478 270.894 236.478 270.419C236.478 269.939 236.77 269.626 237.385 269.574L238.262 269.501V269.387C238.262 269.037 238.058 268.823 237.662 268.823C237.239 268.823 237.052 269.011 237.026 269.293H236.556C236.577 268.766 236.984 268.385 237.662 268.385C238.35 268.385 238.752 268.776 238.752 269.376V270.581L238.762 271.16H238.288L238.282 270.779H238.251C238.069 271.076 237.719 271.222 237.359 271.222ZM236.958 270.398C236.958 270.643 237.125 270.805 237.443 270.805C237.844 270.805 238.215 270.518 238.256 269.887L237.479 269.96C237.109 269.997 236.958 270.169 236.958 270.398ZM239.44 271.16V267.405H239.93V271.16H239.44Z" fill="#161814"/>
<line x1="255.387" y1="268.638" x2="261.728" y2="268.638" stroke="#EA642B" stroke-width="1.04301"/>
<path d="M265.954 271.16V267.874H264.692V267.405H267.727V267.874H266.465V271.16H265.954ZM268.55 271.222C267.773 271.222 267.22 270.664 267.22 269.804C267.22 268.943 267.773 268.385 268.55 268.385C269.322 268.385 269.88 268.943 269.88 269.804C269.88 270.664 269.322 271.222 268.55 271.222ZM267.731 269.804C267.731 270.403 268.013 270.774 268.55 270.774C269.077 270.774 269.369 270.403 269.369 269.804C269.369 269.204 269.077 268.834 268.55 268.834C268.013 268.834 267.731 269.204 267.731 269.804ZM271.354 271.17C270.889 271.17 270.644 270.915 270.644 270.497V268.875H270.138V268.448H270.644V267.707H271.135V268.448H271.792V268.875H271.135V270.45C271.135 270.638 271.223 270.722 271.421 270.722H271.844V271.17H271.354ZM273.067 271.222C272.53 271.222 272.186 270.894 272.186 270.419C272.186 269.939 272.478 269.626 273.093 269.574L273.969 269.501V269.387C273.969 269.037 273.766 268.823 273.369 268.823C272.947 268.823 272.759 269.011 272.733 269.293H272.264C272.285 268.766 272.692 268.385 273.369 268.385C274.058 268.385 274.459 268.776 274.459 269.376V270.581L274.47 271.16H273.995L273.99 270.779H273.959C273.776 271.076 273.427 271.222 273.067 271.222ZM272.665 270.398C272.665 270.643 272.832 270.805 273.15 270.805C273.552 270.805 273.922 270.518 273.964 269.887L273.187 269.96C272.817 269.997 272.665 270.169 272.665 270.398ZM275.148 271.16V267.405H275.638V271.16H275.148ZM279.332 271.222C278.315 271.222 277.554 270.461 277.554 269.282C277.554 268.104 278.325 267.342 279.332 267.342C280.219 267.342 280.839 267.848 280.969 268.703L280.464 268.787C280.344 268.208 279.994 267.822 279.342 267.822C278.544 267.822 278.096 268.38 278.096 269.282C278.096 270.184 278.539 270.742 279.342 270.742C279.994 270.742 280.312 270.372 280.453 269.772L280.959 269.892C280.818 270.732 280.198 271.222 279.332 271.222ZM283.26 271.222C282.16 271.222 281.414 270.461 281.414 269.282C281.414 268.104 282.16 267.342 283.26 267.342C284.34 267.342 285.106 268.104 285.106 269.282C285.106 270.461 284.34 271.222 283.26 271.222ZM281.956 269.282C281.956 270.138 282.405 270.742 283.26 270.742C284.089 270.742 284.564 270.138 284.564 269.282C284.564 268.427 284.089 267.822 283.26 267.822C282.405 267.822 281.956 268.427 281.956 269.282ZM285.663 271.853C285.663 271.593 285.741 271.337 286.096 271.154L286.591 270.899C286.826 270.779 286.894 270.638 286.894 270.44C286.894 270.205 286.758 270.049 286.513 270.049C286.273 270.049 286.122 270.184 286.111 270.445H285.642C285.642 269.976 285.971 269.616 286.513 269.616C287.019 269.616 287.374 269.955 287.374 270.435C287.374 270.831 287.191 271.061 286.737 271.285L286.294 271.504C286.169 271.566 286.122 271.629 286.122 271.733V271.77H287.426V272.203H285.663V271.853Z" fill="#161814"/>
<defs>
<clipPath id="clip0_724_8377">
<rect width="6.25806" height="6.25806" fill="white" transform="translate(169.103 266.031)"/>
</clipPath>
</defs>
</svg>
