<svg width="343" height="276" viewBox="0 0 343 276" fill="none" xmlns="http://www.w3.org/2000/svg">
<path d="M0.9 11L0.9 2.36L6.576 2.36L6.576 3.152L1.728 3.152L1.728 6.212L6.264 6.212V6.992L1.728 6.992L1.728 10.208L6.744 10.208V11L0.9 11ZM9.35813 11L6.92213 4.76H7.79813L9.81413 10.04H9.92213L11.9261 4.76H12.7781L10.3541 11H9.35813ZM15.9732 11.144C14.2332 11.144 13.0332 9.836 13.0332 7.88C13.0332 5.864 14.3292 4.616 15.9852 4.616C17.6052 4.616 18.7692 5.792 18.7692 7.748V8.024L13.8612 8.024C13.9092 9.392 14.6532 10.388 15.9732 10.388C16.9812 10.388 17.5572 9.956 17.8932 9.032L18.6492 9.26C18.2652 10.472 17.3652 11.144 15.9732 11.144ZM13.8972 7.304H17.8932C17.8212 6.2 17.1012 5.372 15.9852 5.372C14.9892 5.372 14.1012 5.996 13.8972 7.304ZM19.9958 11V4.76H20.7998V5.624H20.8598C21.3038 4.964 21.9878 4.616 22.8398 4.616C24.2438 4.616 25.0958 5.54 25.0958 7.064V11H24.2918V7.268C24.2918 6.032 23.7758 5.348 22.7678 5.348C21.5918 5.348 20.7998 5.996 20.7998 8V11H19.9958ZM31.1376 11.024C30.2016 11.024 29.6856 10.508 29.6856 9.656V5.492H28.4616V4.76H29.6856V3.056H30.4896V4.76H32.0616V5.492H30.4896V9.548C30.4896 10.052 30.7296 10.268 31.2456 10.268H32.1816V11.024H31.1376ZM33.0454 11V2.36H33.8494V5.636H33.9094C34.3534 4.964 35.0374 4.616 35.8894 4.616C37.2934 4.616 38.1454 5.54 38.1454 7.064V11H37.3414V7.28C37.3414 6.032 36.8254 5.348 35.8174 5.348C34.6414 5.348 33.8494 5.996 33.8494 8V11H33.0454ZM42.1951 11.144C40.4551 11.144 39.2551 9.836 39.2551 7.88C39.2551 5.864 40.5511 4.616 42.2071 4.616C43.8271 4.616 44.9911 5.792 44.9911 7.748V8.024H40.0831C40.1311 9.392 40.8751 10.388 42.1951 10.388C43.2031 10.388 43.7791 9.956 44.1151 9.032L44.8711 9.26C44.4871 10.472 43.5871 11.144 42.1951 11.144ZM40.1191 7.304L44.1151 7.304C44.0431 6.2 43.3231 5.372 42.2071 5.372C41.2111 5.372 40.3231 5.996 40.1191 7.304ZM48.9777 11V4.76H49.7817V5.504H49.8417C50.2137 4.952 50.8017 4.616 51.5937 4.616C52.5537 4.616 53.1897 5.084 53.4657 5.732H53.5137C53.9217 5.024 54.5817 4.616 55.4937 4.616C56.7537 4.616 57.6057 5.468 57.6057 6.812V11H56.8017V7.04C56.8017 5.96 56.3217 5.348 55.4097 5.348C54.3777 5.348 53.6937 5.912 53.6937 7.664V11H52.8897V7.04C52.8897 5.96 52.3977 5.348 51.4977 5.348C50.4657 5.348 49.7817 5.912 49.7817 7.664V11L48.9777 11ZM61.7028 11.144C59.9148 11.144 58.7148 9.836 58.7148 7.88C58.7148 5.924 59.9148 4.616 61.7028 4.616C63.4908 4.616 64.6908 5.924 64.6908 7.88C64.6908 9.836 63.4908 11.144 61.7028 11.144ZM59.5668 7.88C59.5668 9.392 60.3108 10.388 61.7028 10.388C63.0828 10.388 63.8508 9.392 63.8508 7.88C63.8508 6.368 63.0828 5.372 61.7028 5.372C60.3108 5.372 59.5668 6.368 59.5668 7.88ZM68.0961 11.144C66.6921 11.144 65.8041 10.484 65.4321 9.248L66.2361 9.032C66.5001 9.92 67.0641 10.388 68.0961 10.388C69.2001 10.388 69.7281 9.932 69.7281 9.308C69.7281 8.744 69.3801 8.324 68.6361 8.24L67.3161 8.072C66.2721 7.928 65.6481 7.352 65.6481 6.38C65.6481 5.456 66.3801 4.616 67.8681 4.616C69.1881 4.616 70.0401 5.276 70.3521 6.344L69.5841 6.572C69.3081 5.78 68.7921 5.372 67.8681 5.372C66.8721 5.372 66.4401 5.828 66.4401 6.38C66.4401 6.92 66.8241 7.244 67.4361 7.316L68.7321 7.496C69.9561 7.652 70.5201 8.288 70.5201 9.308C70.5201 10.34 69.7281 11.144 68.0961 11.144ZM73.4263 11.024C72.4903 11.024 71.9743 10.508 71.9743 9.656V5.492H70.7503V4.76H71.9743V3.056H72.7783V4.76H74.3503V5.492H72.7783V9.548C72.7783 10.052 73.0183 10.268 73.5343 10.268H74.4703V11.024H73.4263ZM80.7701 11.144C78.9821 11.144 77.7821 9.836 77.7821 7.88C77.7821 5.924 78.9821 4.616 80.7701 4.616C82.5581 4.616 83.7581 5.924 83.7581 7.88C83.7581 9.836 82.5581 11.144 80.7701 11.144ZM78.6341 7.88C78.6341 9.392 79.3781 10.388 80.7701 10.388C82.1501 10.388 82.9181 9.392 82.9181 7.88C82.9181 6.368 82.1501 5.372 80.7701 5.372C79.3781 5.372 78.6341 6.368 78.6341 7.88ZM84.9674 13.4V4.76L85.7714 4.76V5.696H85.8314C86.2514 5.072 86.9594 4.616 87.9554 4.616C89.6714 4.616 90.8354 5.924 90.8354 7.88C90.8354 9.836 89.6714 11.144 87.9674 11.144C86.9594 11.144 86.2634 10.688 85.8314 10.064H85.7714V13.4H84.9674ZM85.7474 7.88C85.7474 9.416 86.4914 10.4 87.8714 10.4C89.1914 10.4 89.9714 9.428 89.9714 7.88C89.9714 6.332 89.1914 5.36 87.8714 5.36C86.4914 5.36 85.7474 6.356 85.7474 7.88ZM93.8999 11.024C92.9639 11.024 92.4479 10.508 92.4479 9.656V5.492H91.2239V4.76H92.4479V3.056L93.2519 3.056V4.76H94.8239V5.492H93.2519V9.548C93.2519 10.052 93.4919 10.268 94.0079 10.268H94.9439V11.024H93.8999ZM95.8077 11V4.76H96.6117V11H95.8077ZM95.6637 2.756C95.6637 2.456 95.8797 2.216 96.2157 2.216C96.5397 2.216 96.7557 2.456 96.7557 2.756C96.7557 3.044 96.5397 3.284 96.2157 3.284C95.8797 3.284 95.6637 3.044 95.6637 2.756ZM98.1224 11V4.76H98.9264V5.504H98.9864C99.3584 4.952 99.9464 4.616 100.738 4.616C101.698 4.616 102.334 5.084 102.61 5.732H102.658C103.066 5.024 103.726 4.616 104.638 4.616C105.898 4.616 106.75 5.468 106.75 6.812V11H105.946V7.04C105.946 5.96 105.466 5.348 104.554 5.348C103.522 5.348 102.838 5.912 102.838 7.664V11H102.034V7.04C102.034 5.96 101.542 5.348 100.642 5.348C99.6104 5.348 98.9264 5.912 98.9264 7.664V11H98.1224ZM108.171 11V4.76H108.975V11H108.171ZM108.027 2.756C108.027 2.456 108.243 2.216 108.579 2.216C108.903 2.216 109.119 2.456 109.119 2.756C109.119 3.044 108.903 3.284 108.579 3.284C108.243 3.284 108.027 3.044 108.027 2.756ZM112.682 11.144C111.278 11.144 110.39 10.484 110.018 9.248L110.822 9.032C111.086 9.92 111.65 10.388 112.682 10.388C113.786 10.388 114.314 9.932 114.314 9.308C114.314 8.744 113.966 8.324 113.222 8.24L111.902 8.072C110.858 7.928 110.234 7.352 110.234 6.38C110.234 5.456 110.966 4.616 112.454 4.616C113.774 4.616 114.626 5.276 114.938 6.344L114.17 6.572C113.894 5.78 113.378 5.372 112.454 5.372C111.458 5.372 111.026 5.828 111.026 6.38C111.026 6.92 111.41 7.244 112.022 7.316L113.318 7.496C114.542 7.652 115.106 8.288 115.106 9.308C115.106 10.34 114.314 11.144 112.682 11.144ZM118.012 11.024C117.076 11.024 116.56 10.508 116.56 9.656V5.492H115.336V4.76H116.56V3.056H117.364V4.76L118.936 4.76V5.492L117.364 5.492V9.548C117.364 10.052 117.604 10.268 118.12 10.268H119.056V11.024H118.012ZM119.92 11V4.76H120.724V11H119.92ZM119.776 2.756C119.776 2.456 119.992 2.216 120.328 2.216C120.652 2.216 120.868 2.456 120.868 2.756C120.868 3.044 120.652 3.284 120.328 3.284C119.992 3.284 119.776 3.044 119.776 2.756ZM124.923 11.144C123.159 11.144 121.923 9.836 121.923 7.88C121.923 5.912 123.183 4.616 124.923 4.616C126.399 4.616 127.503 5.516 127.707 6.944L126.915 7.064C126.723 6.02 126.063 5.372 124.923 5.372C123.591 5.372 122.775 6.368 122.775 7.88C122.775 9.392 123.591 10.388 124.923 10.388C126.087 10.388 126.711 9.74 126.915 8.696L127.707 8.852C127.503 10.244 126.435 11.144 124.923 11.144ZM133.677 11.144C132.273 11.144 131.385 10.484 131.013 9.248L131.817 9.032C132.081 9.92 132.645 10.388 133.677 10.388C134.781 10.388 135.309 9.932 135.309 9.308C135.309 8.744 134.961 8.324 134.217 8.24L132.897 8.072C131.853 7.928 131.229 7.352 131.229 6.38C131.229 5.456 131.961 4.616 133.449 4.616C134.769 4.616 135.621 5.276 135.933 6.344L135.165 6.572C134.889 5.78 134.373 5.372 133.449 5.372C132.453 5.372 132.021 5.828 132.021 6.38C132.021 6.92 132.405 7.244 133.017 7.316L134.313 7.496C135.537 7.652 136.101 8.288 136.101 9.308C136.101 10.34 135.309 11.144 133.677 11.144ZM139.836 11.144C138.072 11.144 136.836 9.836 136.836 7.88C136.836 5.912 138.096 4.616 139.836 4.616C141.312 4.616 142.416 5.516 142.62 6.944L141.828 7.064C141.636 6.02 140.976 5.372 139.836 5.372C138.504 5.372 137.688 6.368 137.688 7.88C137.688 9.392 138.504 10.388 139.836 10.388C141 10.388 141.624 9.74 141.828 8.696L142.62 8.852C142.416 10.244 141.348 11.144 139.836 11.144ZM146.262 11.144C144.522 11.144 143.322 9.836 143.322 7.88C143.322 5.864 144.618 4.616 146.274 4.616C147.894 4.616 149.058 5.792 149.058 7.748V8.024H144.15C144.198 9.392 144.942 10.388 146.262 10.388C147.27 10.388 147.846 9.956 148.182 9.032L148.938 9.26C148.554 10.472 147.654 11.144 146.262 11.144ZM144.186 7.304L148.182 7.304C148.11 6.2 147.39 5.372 146.274 5.372C145.278 5.372 144.39 5.996 144.186 7.304ZM150.285 11V4.76H151.089V5.624H151.149C151.593 4.964 152.277 4.616 153.129 4.616C154.533 4.616 155.385 5.54 155.385 7.064V11H154.581V7.268C154.581 6.032 154.065 5.348 153.057 5.348C151.881 5.348 151.089 5.996 151.089 8V11H150.285ZM158.523 11.144C157.263 11.144 156.483 10.388 156.483 9.308C156.483 8.264 157.191 7.52 158.523 7.412L160.743 7.22V6.848C160.743 5.996 160.203 5.36 159.099 5.36C158.067 5.36 157.491 5.828 157.443 6.692L156.663 6.692C156.711 5.516 157.563 4.616 159.099 4.616C160.635 4.616 161.547 5.528 161.547 6.86V9.704L161.583 11H160.791L160.779 9.98H160.731C160.263 10.784 159.495 11.144 158.523 11.144ZM157.287 9.296C157.287 9.992 157.767 10.424 158.619 10.424C159.843 10.424 160.743 9.596 160.743 7.904V7.892L158.655 8.072C157.719 8.156 157.287 8.636 157.287 9.296ZM162.942 11V4.76H163.746V5.744H163.806C164.166 5.096 164.778 4.616 165.834 4.616H166.254V5.432H165.642C164.442 5.432 163.746 6.284 163.746 7.94V11H162.942ZM167.143 11V4.76H167.947V11H167.143ZM166.999 2.756C166.999 2.456 167.215 2.216 167.551 2.216C167.875 2.216 168.091 2.456 168.091 2.756C168.091 3.044 167.875 3.284 167.551 3.284C167.215 3.284 166.999 3.044 166.999 2.756ZM172.134 11.144C170.346 11.144 169.146 9.836 169.146 7.88C169.146 5.924 170.346 4.616 172.134 4.616C173.922 4.616 175.122 5.924 175.122 7.88C175.122 9.836 173.922 11.144 172.134 11.144ZM169.998 7.88C169.998 9.392 170.742 10.388 172.134 10.388C173.514 10.388 174.282 9.392 174.282 7.88C174.282 6.368 173.514 5.372 172.134 5.372C170.742 5.372 169.998 6.368 169.998 7.88ZM178.155 7.7C176.871 7.7 176.139 7.028 176.091 5.948H176.895C176.943 6.608 177.387 6.992 178.155 6.992C178.923 6.992 179.367 6.608 179.367 5.96C179.367 5.288 178.935 4.916 178.059 4.916H177.387V4.22H177.999C178.767 4.22 179.175 3.836 179.175 3.296C179.175 2.732 178.779 2.372 178.143 2.372C177.411 2.372 177.051 2.732 177.015 3.308H176.235C176.283 2.324 176.991 1.652 178.143 1.652C179.295 1.652 179.955 2.384 179.955 3.26C179.955 3.86 179.631 4.232 179.007 4.472V4.532C179.775 4.724 180.183 5.264 180.183 6.032C180.183 7.016 179.439 7.7 178.155 7.7ZM184.3 11V4.76L185.104 4.76V5.744H185.164C185.524 5.096 186.136 4.616 187.192 4.616H187.612V5.432H187C185.8 5.432 185.104 6.284 185.104 7.94V11H184.3ZM190.813 11.144C189.073 11.144 187.873 9.836 187.873 7.88C187.873 5.864 189.169 4.616 190.825 4.616C192.445 4.616 193.609 5.792 193.609 7.748V8.024L188.701 8.024C188.749 9.392 189.493 10.388 190.813 10.388C191.821 10.388 192.397 9.956 192.733 9.032L193.489 9.26C193.105 10.472 192.205 11.144 190.813 11.144ZM188.737 7.304L192.733 7.304C192.661 6.2 191.941 5.372 190.825 5.372C189.829 5.372 188.941 5.996 188.737 7.304ZM199.588 13.4V10.064H199.54C199.096 10.688 198.4 11.144 197.392 11.144C195.7 11.144 194.524 9.836 194.524 7.88C194.524 5.924 195.7 4.616 197.404 4.616C198.4 4.616 199.108 5.072 199.54 5.696H199.588V4.76H200.392V13.4H199.588ZM195.388 7.88C195.388 9.428 196.18 10.4 197.5 10.4C198.868 10.4 199.612 9.416 199.612 7.88C199.612 6.356 198.868 5.36 197.5 5.36C196.18 5.36 195.388 6.332 195.388 7.88ZM206.912 4.76V11H206.108V10.136H206.048C205.604 10.796 204.92 11.144 204.068 11.144C202.664 11.144 201.812 10.22 201.812 8.696V4.76H202.616V8.492C202.616 9.728 203.132 10.412 204.14 10.412C205.316 10.412 206.108 9.764 206.108 7.76V4.76H206.912ZM208.43 11V4.76H209.234V11H208.43ZM208.286 2.756C208.286 2.456 208.502 2.216 208.838 2.216C209.162 2.216 209.378 2.456 209.378 2.756C209.378 3.044 209.162 3.284 208.838 3.284C208.502 3.284 208.286 3.044 208.286 2.756ZM210.745 11V4.76H211.549V5.744H211.609C211.969 5.096 212.581 4.616 213.637 4.616H214.057V5.432H213.445C212.245 5.432 211.549 6.284 211.549 7.94V11H210.745ZM217.258 11.144C215.518 11.144 214.318 9.836 214.318 7.88C214.318 5.864 215.614 4.616 217.27 4.616C218.89 4.616 220.054 5.792 220.054 7.748V8.024L215.146 8.024C215.194 9.392 215.938 10.388 217.258 10.388C218.266 10.388 218.842 9.956 219.178 9.032L219.934 9.26C219.55 10.472 218.65 11.144 217.258 11.144ZM215.182 7.304L219.178 7.304C219.106 6.2 218.386 5.372 217.27 5.372C216.274 5.372 215.386 5.996 215.182 7.304ZM223.476 11.144C222.072 11.144 221.184 10.484 220.812 9.248L221.616 9.032C221.88 9.92 222.444 10.388 223.476 10.388C224.58 10.388 225.108 9.932 225.108 9.308C225.108 8.744 224.76 8.324 224.016 8.24L222.696 8.072C221.652 7.928 221.028 7.352 221.028 6.38C221.028 5.456 221.76 4.616 223.248 4.616C224.568 4.616 225.42 5.276 225.732 6.344L224.964 6.572C224.688 5.78 224.172 5.372 223.248 5.372C222.252 5.372 221.82 5.828 221.82 6.38C221.82 6.92 222.204 7.244 222.816 7.316L224.112 7.496C225.336 7.652 225.9 8.288 225.9 9.308C225.9 10.34 225.108 11.144 223.476 11.144ZM232.395 11.144C230.631 11.144 229.395 9.836 229.395 7.88C229.395 5.912 230.655 4.616 232.395 4.616C233.871 4.616 234.975 5.516 235.179 6.944L234.387 7.064C234.195 6.02 233.535 5.372 232.395 5.372C231.063 5.372 230.247 6.368 230.247 7.88C230.247 9.392 231.063 10.388 232.395 10.388C233.559 10.388 234.183 9.74 234.387 8.696L235.179 8.852C234.975 10.244 233.907 11.144 232.395 11.144ZM237.909 11.144C236.649 11.144 235.869 10.388 235.869 9.308C235.869 8.264 236.577 7.52 237.909 7.412L240.129 7.22V6.848C240.129 5.996 239.589 5.36 238.485 5.36C237.453 5.36 236.877 5.828 236.829 6.692H236.049C236.097 5.516 236.949 4.616 238.485 4.616C240.021 4.616 240.933 5.528 240.933 6.86V9.704L240.969 11H240.177L240.165 9.98H240.117C239.649 10.784 238.881 11.144 237.909 11.144ZM236.673 9.296C236.673 9.992 237.153 10.424 238.005 10.424C239.229 10.424 240.129 9.596 240.129 7.904V7.892L238.041 8.072C237.105 8.156 236.673 8.636 236.673 9.296ZM242.328 11V4.76H243.132V5.744H243.192C243.552 5.096 244.164 4.616 245.22 4.616H245.64V5.432H245.028C243.828 5.432 243.132 6.284 243.132 7.94V11H242.328ZM249.518 11.144C248.522 11.144 247.814 10.688 247.394 10.064H247.334V11H246.53V2.36L247.334 2.36V5.696H247.394C247.826 5.072 248.522 4.616 249.53 4.616C251.234 4.616 252.398 5.924 252.398 7.88C252.398 9.836 251.234 11.144 249.518 11.144ZM247.31 7.88C247.31 9.404 248.054 10.4 249.434 10.4C250.754 10.4 251.534 9.428 251.534 7.88C251.534 6.332 250.754 5.36 249.434 5.36C248.054 5.36 247.31 6.344 247.31 7.88ZM256.278 11.144C254.49 11.144 253.29 9.836 253.29 7.88C253.29 5.924 254.49 4.616 256.278 4.616C258.066 4.616 259.266 5.924 259.266 7.88C259.266 9.836 258.066 11.144 256.278 11.144ZM254.142 7.88C254.142 9.392 254.886 10.388 256.278 10.388C257.658 10.388 258.426 9.392 258.426 7.88C258.426 6.368 257.658 5.372 256.278 5.372C254.886 5.372 254.142 6.368 254.142 7.88ZM260.475 11V4.76H261.279V5.624H261.339C261.783 4.964 262.467 4.616 263.319 4.616C264.723 4.616 265.575 5.54 265.575 7.064V11H264.771V7.268C264.771 6.032 264.255 5.348 263.247 5.348C262.071 5.348 261.279 5.996 261.279 8V11H260.475ZM269.757 11V4.76H270.561V5.744H270.621C270.981 5.096 271.593 4.616 272.649 4.616H273.069V5.432H272.457C271.257 5.432 270.561 6.284 270.561 7.94V11H269.757ZM276.27 11.144C274.53 11.144 273.33 9.836 273.33 7.88C273.33 5.864 274.626 4.616 276.282 4.616C277.902 4.616 279.066 5.792 279.066 7.748V8.024H274.158C274.206 9.392 274.95 10.388 276.27 10.388C277.278 10.388 277.854 9.956 278.19 9.032L278.946 9.26C278.562 10.472 277.662 11.144 276.27 11.144ZM274.194 7.304H278.19C278.118 6.2 277.398 5.372 276.282 5.372C275.286 5.372 274.398 5.996 274.194 7.304ZM280.293 11V4.76H281.097V5.504H281.157C281.529 4.952 282.117 4.616 282.909 4.616C283.869 4.616 284.505 5.084 284.781 5.732H284.829C285.237 5.024 285.897 4.616 286.809 4.616C288.069 4.616 288.921 5.468 288.921 6.812V11H288.117V7.04C288.117 5.96 287.637 5.348 286.725 5.348C285.693 5.348 285.009 5.912 285.009 7.664V11H284.205V7.04C284.205 5.96 283.713 5.348 282.813 5.348C281.781 5.348 281.097 5.912 281.097 7.664V11H280.293ZM293.018 11.144C291.23 11.144 290.03 9.836 290.03 7.88C290.03 5.924 291.23 4.616 293.018 4.616C294.806 4.616 296.006 5.924 296.006 7.88C296.006 9.836 294.806 11.144 293.018 11.144ZM290.882 7.88C290.882 9.392 291.626 10.388 293.018 10.388C294.398 10.388 295.166 9.392 295.166 7.88C295.166 6.368 294.398 5.372 293.018 5.372C291.626 5.372 290.882 6.368 290.882 7.88ZM298.707 11L296.271 4.76H297.147L299.163 10.04H299.271L301.275 4.76H302.127L299.703 11H298.707ZM304.328 11.144C303.068 11.144 302.288 10.388 302.288 9.308C302.288 8.264 302.996 7.52 304.328 7.412L306.548 7.22V6.848C306.548 5.996 306.008 5.36 304.904 5.36C303.872 5.36 303.296 5.828 303.248 6.692H302.468C302.516 5.516 303.368 4.616 304.904 4.616C306.44 4.616 307.352 5.528 307.352 6.86V9.704L307.388 11H306.596L306.584 9.98H306.536C306.068 10.784 305.3 11.144 304.328 11.144ZM303.092 9.296C303.092 9.992 303.572 10.424 304.424 10.424C305.648 10.424 306.548 9.596 306.548 7.904V7.892L304.46 8.072C303.524 8.156 303.092 8.636 303.092 9.296ZM308.747 11V2.36H309.551V11H308.747ZM2.736 25.024C1.8 25.024 1.284 24.508 1.284 23.656L1.284 19.492H0.06L0.06 18.76H1.284L1.284 17.056H2.088L2.088 18.76H3.66V19.492H2.088L2.088 23.548C2.088 24.052 2.328 24.268 2.844 24.268H3.78V25.024H2.736ZM7.08431 25.144C5.34431 25.144 4.14431 23.836 4.14431 21.88C4.14431 19.864 5.44031 18.616 7.09631 18.616C8.71631 18.616 9.88031 19.792 9.88031 21.748V22.024H4.97231C5.02031 23.392 5.76431 24.388 7.08431 24.388C8.09231 24.388 8.66831 23.956 9.00431 23.032L9.76031 23.26C9.37631 24.472 8.47631 25.144 7.08431 25.144ZM5.00831 21.304H9.00431C8.93231 20.2 8.21231 19.372 7.09631 19.372C6.10031 19.372 5.21231 19.996 5.00831 21.304ZM13.7949 25.144C12.0309 25.144 10.7949 23.836 10.7949 21.88C10.7949 19.912 12.0549 18.616 13.7949 18.616C15.2709 18.616 16.3749 19.516 16.5789 20.944L15.7869 21.064C15.5949 20.02 14.9349 19.372 13.7949 19.372C12.4629 19.372 11.6469 20.368 11.6469 21.88C11.6469 23.392 12.4629 24.388 13.7949 24.388C14.9589 24.388 15.5829 23.74 15.7869 22.696L16.5789 22.852C16.3749 24.244 15.3069 25.144 13.7949 25.144ZM17.5935 25V16.36H18.3975V19.636H18.4575C18.9015 18.964 19.5855 18.616 20.4375 18.616C21.8415 18.616 22.6935 19.54 22.6935 21.064V25H21.8895V21.28C21.8895 20.032 21.3735 19.348 20.3655 19.348C19.1895 19.348 18.3975 19.996 18.3975 22V25H17.5935ZM24.1152 25V18.76H24.9192V19.624H24.9792C25.4232 18.964 26.1072 18.616 26.9592 18.616C28.3632 18.616 29.2152 19.54 29.2152 21.064V25H28.4112V21.268C28.4112 20.032 27.8952 19.348 26.8872 19.348C25.7112 19.348 24.9192 19.996 24.9192 22V25H24.1152ZM33.3129 25.144C31.5249 25.144 30.3249 23.836 30.3249 21.88C30.3249 19.924 31.5249 18.616 33.3129 18.616C35.1009 18.616 36.3009 19.924 36.3009 21.88C36.3009 23.836 35.1009 25.144 33.3129 25.144ZM31.1769 21.88C31.1769 23.392 31.9209 24.388 33.3129 24.388C34.6929 24.388 35.4609 23.392 35.4609 21.88C35.4609 20.368 34.6929 19.372 33.3129 19.372C31.9209 19.372 31.1769 20.368 31.1769 21.88ZM37.5102 25L37.5102 16.36H38.3142L38.3142 25H37.5102ZM42.5009 25.144C40.7129 25.144 39.5129 23.836 39.5129 21.88C39.5129 19.924 40.7129 18.616 42.5009 18.616C44.2889 18.616 45.4889 19.924 45.4889 21.88C45.4889 23.836 44.2889 25.144 42.5009 25.144ZM40.3649 21.88C40.3649 23.392 41.1089 24.388 42.5009 24.388C43.8809 24.388 44.6489 23.392 44.6489 21.88C44.6489 20.368 43.8809 19.372 42.5009 19.372C41.1089 19.372 40.3649 20.368 40.3649 21.88ZM49.4102 27.544C47.6822 27.544 46.8542 26.776 46.5422 25.732L47.3342 25.492C47.5742 26.32 48.1382 26.8 49.4102 26.8C50.7302 26.8 51.4742 26.032 51.4742 24.904V23.86H51.4262C51.0062 24.508 50.2622 24.952 49.2782 24.952C47.5022 24.952 46.3862 23.62 46.3862 21.784C46.3862 19.948 47.5262 18.616 49.2902 18.616C50.2622 18.616 50.9822 19.048 51.4262 19.696H51.4742V18.76H52.2782L52.2782 24.988C52.2782 26.512 51.1382 27.544 49.4102 27.544ZM47.2382 21.784C47.2382 23.248 48.0182 24.208 49.3742 24.208C50.7062 24.208 51.4982 23.308 51.4982 21.784C51.4982 20.284 50.7062 19.36 49.3742 19.36C48.0182 19.36 47.2382 20.32 47.2382 21.784ZM54.5261 27.4L55.5221 25.06L53.0021 18.76H53.8901L55.9061 23.872H56.0021L58.0301 18.76H58.8941L55.4021 27.4L54.5261 27.4Z" fill="#161814"/>
<path d="M3.104 38.096C1.544 38.096 0.376 36.928 0.376 35.12C0.376 33.312 1.56 32.144 3.104 32.144C4.464 32.144 5.416 32.92 5.616 34.232L4.84 34.36C4.656 33.472 4.12 32.88 3.12 32.88C1.896 32.88 1.208 33.736 1.208 35.12C1.208 36.504 1.888 37.36 3.12 37.36C4.12 37.36 4.608 36.792 4.824 35.872L5.6 36.056C5.384 37.344 4.432 38.096 3.104 38.096ZM9.12988 38.096C7.44188 38.096 6.29788 36.928 6.29788 35.12C6.29788 33.312 7.44188 32.144 9.12988 32.144C10.7859 32.144 11.9619 33.312 11.9619 35.12C11.9619 36.928 10.7859 38.096 9.12988 38.096ZM7.12988 35.12C7.12988 36.432 7.81788 37.36 9.12988 37.36C10.4019 37.36 11.1299 36.432 11.1299 35.12C11.1299 33.808 10.4019 32.88 9.12988 32.88C7.81788 32.88 7.12988 33.808 7.12988 35.12ZM12.8159 39.064C12.8159 38.664 12.9359 38.272 13.4799 37.992L14.2399 37.6C14.5999 37.416 14.7039 37.2 14.7039 36.896C14.7039 36.536 14.4959 36.296 14.1199 36.296C13.7519 36.296 13.5199 36.504 13.5039 36.904H12.7839C12.7839 36.184 13.2879 35.632 14.1199 35.632C14.8959 35.632 15.4399 36.152 15.4399 36.888C15.4399 37.496 15.1599 37.848 14.4639 38.192L13.7839 38.528C13.5919 38.624 13.5199 38.72 13.5199 38.88V38.936H15.5199V39.6H12.8159V39.064ZM20.3368 38.096C19.1608 38.096 18.3288 37.24 18.3288 35.92C18.3288 34.624 19.1928 33.744 20.3448 33.744C21.4648 33.744 22.2488 34.52 22.2488 35.912V36.136H19.0968C19.1688 36.92 19.6168 37.408 20.3368 37.408C20.9048 37.408 21.2328 37.16 21.4488 36.672L22.1448 36.912C21.8808 37.664 21.2808 38.096 20.3368 38.096ZM19.1208 35.52H21.4568C21.4088 34.904 20.9928 34.432 20.3448 34.432C19.7528 34.432 19.2568 34.784 19.1208 35.52ZM23.185 38V33.84L23.937 33.84V34.312H23.985C24.257 33.944 24.609 33.744 25.129 33.744C25.713 33.744 26.137 34 26.353 34.432H26.393C26.689 33.984 27.089 33.744 27.689 33.744C28.521 33.744 29.105 34.32 29.105 35.224V38H28.353V35.408C28.353 34.768 28.057 34.432 27.553 34.432C26.921 34.432 26.521 34.832 26.521 35.792V38H25.769V35.408C25.769 34.768 25.473 34.432 24.969 34.432C24.337 34.432 23.937 34.832 23.937 35.792V38H23.185ZM30.1616 38V33.84H30.9136V38H30.1616ZM30.0736 32.6C30.0736 32.336 30.2576 32.144 30.5376 32.144C30.8176 32.144 31.0016 32.336 31.0016 32.6C31.0016 32.856 30.8176 33.056 30.5376 33.056C30.2576 33.056 30.0736 32.856 30.0736 32.6ZM33.5326 38.096C32.5086 38.096 31.9406 37.632 31.6926 36.856L32.4366 36.64C32.5806 37.136 32.8926 37.408 33.5326 37.408C34.2046 37.408 34.4686 37.176 34.4686 36.848C34.4686 36.552 34.2606 36.328 33.9006 36.28L33.0446 36.168C32.2686 36.064 31.8366 35.68 31.8366 34.976C31.8366 34.312 32.3646 33.744 33.3886 33.744C34.2846 33.744 34.8686 34.168 35.0766 34.84L34.3566 35.072C34.1966 34.664 33.9166 34.432 33.3886 34.432C32.7966 34.432 32.5646 34.688 32.5646 34.976C32.5646 35.272 32.7806 35.448 33.1406 35.496L33.9886 35.616C34.8046 35.728 35.1966 36.184 35.1966 36.848C35.1966 37.576 34.6046 38.096 33.5326 38.096ZM37.4779 38.096C36.4539 38.096 35.8859 37.632 35.6379 36.856L36.3819 36.64C36.5259 37.136 36.8379 37.408 37.4779 37.408C38.1499 37.408 38.4139 37.176 38.4139 36.848C38.4139 36.552 38.2059 36.328 37.8459 36.28L36.9899 36.168C36.2139 36.064 35.7819 35.68 35.7819 34.976C35.7819 34.312 36.3099 33.744 37.3339 33.744C38.2299 33.744 38.8139 34.168 39.0219 34.84L38.3019 35.072C38.1419 34.664 37.8619 34.432 37.3339 34.432C36.7419 34.432 36.5099 34.688 36.5099 34.976C36.5099 35.272 36.7259 35.448 37.0859 35.496L37.9339 35.616C38.7499 35.728 39.1419 36.184 39.1419 36.848C39.1419 37.576 38.5499 38.096 37.4779 38.096ZM39.9272 38V33.84H40.6792V38H39.9272ZM39.8392 32.6C39.8392 32.336 40.0232 32.144 40.3032 32.144C40.5832 32.144 40.7672 32.336 40.7672 32.6C40.7672 32.856 40.5832 33.056 40.3032 33.056C40.0232 33.056 39.8392 32.856 39.8392 32.6ZM43.6422 38.096C42.4502 38.096 41.6022 37.24 41.6022 35.92C41.6022 34.6 42.4502 33.744 43.6422 33.744C44.8262 33.744 45.6822 34.6 45.6822 35.92C45.6822 37.24 44.8262 38.096 43.6422 38.096ZM42.3862 35.92C42.3862 36.84 42.8182 37.408 43.6422 37.408C44.4502 37.408 44.8982 36.84 44.8982 35.92C44.8982 35 44.4502 34.432 43.6422 34.432C42.8182 34.432 42.3862 35 42.3862 35.92ZM46.5991 38V33.84H47.3511V34.336H47.3991C47.6951 33.952 48.0871 33.744 48.6151 33.744C49.5031 33.744 50.0871 34.32 50.0871 35.32V38H49.3351V35.464C49.3351 34.768 49.0071 34.432 48.4791 34.432C47.8071 34.432 47.3511 34.864 47.3511 35.92V38H46.5991ZM52.6419 38.096C51.6179 38.096 51.0499 37.632 50.8019 36.856L51.5459 36.64C51.6899 37.136 52.0019 37.408 52.6419 37.408C53.3139 37.408 53.5779 37.176 53.5779 36.848C53.5779 36.552 53.3699 36.328 53.0099 36.28L52.1539 36.168C51.3779 36.064 50.9459 35.68 50.9459 34.976C50.9459 34.312 51.4739 33.744 52.4979 33.744C53.3939 33.744 53.9779 34.168 54.1859 34.84L53.4659 35.072C53.3059 34.664 53.0259 34.432 52.4979 34.432C51.9059 34.432 51.6739 34.688 51.6739 34.976C51.6739 35.272 51.8899 35.448 52.2499 35.496L53.0979 35.616C53.9139 35.728 54.3059 36.184 54.3059 36.848C54.3059 37.576 53.7139 38.096 52.6419 38.096ZM58.2913 39.312C57.6033 38.36 57.0592 37.248 57.0592 35.776C57.0592 34.304 57.6033 33.184 58.2913 32.24H58.9953C58.2513 33.384 57.8593 34.488 57.8593 35.776C57.8593 37.064 58.2513 38.16 58.9953 39.312H58.2913ZM61.5563 39.696C60.4283 39.696 59.7963 39.192 59.5883 38.496L60.3403 38.272C60.4763 38.744 60.8443 39.024 61.5563 39.024C62.3323 39.024 62.7643 38.576 62.7643 37.936V37.296H62.7163C62.4363 37.688 61.9563 37.936 61.3803 37.936C60.2843 37.936 59.5163 37.088 59.5163 35.84C59.5163 34.6 60.3083 33.744 61.4043 33.744C61.9563 33.744 62.4043 33.976 62.7163 34.384H62.7643V33.84H63.5163V37.976C63.5163 39.016 62.7563 39.696 61.5563 39.696ZM60.3003 35.84C60.3003 36.72 60.7883 37.248 61.5403 37.248C62.2763 37.248 62.7883 36.744 62.7883 35.84C62.7883 34.952 62.2763 34.432 61.5403 34.432C60.7883 34.432 60.3003 34.96 60.3003 35.84ZM64.6381 38V33.84L65.3901 33.84V38H64.6381ZM64.5501 32.6C64.5501 32.336 64.7341 32.144 65.0141 32.144C65.2941 32.144 65.4781 32.336 65.4781 32.6C65.4781 32.856 65.2941 33.056 65.0141 33.056C64.7341 33.056 64.5501 32.856 64.5501 32.6ZM68.3531 39.696C67.2251 39.696 66.5931 39.192 66.3851 38.496L67.1371 38.272C67.2731 38.744 67.6411 39.024 68.3531 39.024C69.1291 39.024 69.5611 38.576 69.5611 37.936V37.296H69.5131C69.2331 37.688 68.7531 37.936 68.1771 37.936C67.0811 37.936 66.3131 37.088 66.3131 35.84C66.3131 34.6 67.1051 33.744 68.2011 33.744C68.7531 33.744 69.2011 33.976 69.5131 34.384H69.5611V33.84H70.3131V37.976C70.3131 39.016 69.5531 39.696 68.3531 39.696ZM67.0971 35.84C67.0971 36.72 67.5851 37.248 68.3371 37.248C69.0731 37.248 69.5851 36.744 69.5851 35.84C69.5851 34.952 69.0731 34.432 68.3371 34.432C67.5851 34.432 67.0971 34.96 67.0971 35.84ZM72.595 38.096C71.771 38.096 71.243 37.592 71.243 36.864C71.243 36.128 71.691 35.648 72.635 35.568L73.979 35.456V35.28C73.979 34.744 73.667 34.416 73.059 34.416C72.411 34.416 72.123 34.704 72.083 35.136H71.363C71.395 34.328 72.019 33.744 73.059 33.744C74.115 33.744 74.731 34.344 74.731 35.264V37.112L74.747 38H74.019L74.011 37.416H73.963C73.683 37.872 73.147 38.096 72.595 38.096ZM71.979 36.832C71.979 37.208 72.235 37.456 72.723 37.456C73.339 37.456 73.907 37.016 73.971 36.048L72.779 36.16C72.211 36.216 71.979 36.48 71.979 36.832ZM77.1306 38.016C76.4186 38.016 76.0426 37.624 76.0426 36.984V34.496H75.2666V33.84H76.0426V32.704H76.7946V33.84H77.8026V34.496H76.7946V36.912C76.7946 37.2 76.9306 37.328 77.2346 37.328H77.8826V38.016H77.1306ZM80.3609 38.096C79.1689 38.096 78.3209 37.24 78.3209 35.92C78.3209 34.6 79.1689 33.744 80.3609 33.744C81.5449 33.744 82.4009 34.6 82.4009 35.92C82.4009 37.24 81.5449 38.096 80.3609 38.096ZM79.1049 35.92C79.1049 36.84 79.5369 37.408 80.3609 37.408C81.1689 37.408 81.6169 36.84 81.6169 35.92C81.6169 35 81.1689 34.432 80.3609 34.432C79.5369 34.432 79.1049 35 79.1049 35.92ZM83.3178 38V33.84H84.0698V34.336H84.1178C84.4138 33.952 84.8058 33.744 85.3338 33.744C86.2218 33.744 86.8058 34.32 86.8058 35.32V38H86.0538V35.464C86.0538 34.768 85.7258 34.432 85.1978 34.432C84.5258 34.432 84.0698 34.864 84.0698 35.92V38H83.3178ZM87.8647 38V33.84H88.6167V34.336H88.6647C88.9607 33.952 89.3527 33.744 89.8807 33.744C90.7687 33.744 91.3527 34.32 91.3527 35.32V38H90.6007V35.464C90.6007 34.768 90.2727 34.432 89.7447 34.432C89.0727 34.432 88.6167 34.864 88.6167 35.92V38H87.8647ZM94.2196 38.096C93.0436 38.096 92.2116 37.24 92.2116 35.92C92.2116 34.624 93.0756 33.744 94.2276 33.744C95.3476 33.744 96.1316 34.52 96.1316 35.912V36.136H92.9796C93.0516 36.92 93.4996 37.408 94.2196 37.408C94.7876 37.408 95.1156 37.16 95.3316 36.672L96.0276 36.912C95.7636 37.664 95.1636 38.096 94.2196 38.096ZM93.0036 35.52H95.3396C95.2916 34.904 94.8756 34.432 94.2276 34.432C93.6356 34.432 93.1396 34.784 93.0036 35.52ZM98.5638 38.096C97.5398 38.096 96.9718 37.632 96.7238 36.856L97.4678 36.64C97.6118 37.136 97.9238 37.408 98.5638 37.408C99.2358 37.408 99.4998 37.176 99.4998 36.848C99.4998 36.552 99.2918 36.328 98.9318 36.28L98.0758 36.168C97.2998 36.064 96.8678 35.68 96.8678 34.976C96.8678 34.312 97.3958 33.744 98.4198 33.744C99.3158 33.744 99.8998 34.168 100.108 34.84L99.3878 35.072C99.2278 34.664 98.9478 34.432 98.4198 34.432C97.8278 34.432 97.5958 34.688 97.5958 34.976C97.5958 35.272 97.8118 35.448 98.1718 35.496L99.0198 35.616C99.8358 35.728 100.228 36.184 100.228 36.848C100.228 37.576 99.6358 38.096 98.5638 38.096ZM100.613 39.312C101.357 38.168 101.749 37.064 101.749 35.776C101.749 34.488 101.357 33.392 100.613 32.24H101.317C102.005 33.192 102.549 34.304 102.549 35.776C102.549 37.248 102.005 38.368 101.317 39.312H100.613ZM107.478 38.096C106.286 38.096 105.438 37.24 105.438 35.92C105.438 34.6 106.286 33.744 107.478 33.744C108.662 33.744 109.518 34.6 109.518 35.92C109.518 37.24 108.662 38.096 107.478 38.096ZM106.222 35.92C106.222 36.84 106.654 37.408 107.478 37.408C108.286 37.408 108.734 36.84 108.734 35.92C108.734 35 108.286 34.432 107.478 34.432C106.654 34.432 106.222 35 106.222 35.92ZM113.859 33.84V38H113.107V37.504H113.059C112.763 37.888 112.371 38.096 111.843 38.096C110.955 38.096 110.371 37.52 110.371 36.52V33.84H111.123V36.376C111.123 37.072 111.451 37.408 111.979 37.408C112.651 37.408 113.107 36.976 113.107 35.92V33.84H113.859ZM116.326 38.016C115.614 38.016 115.238 37.624 115.238 36.984V34.496H114.462V33.84H115.238V32.704H115.99V33.84H116.998V34.496H115.99V36.912C115.99 37.2 116.126 37.328 116.43 37.328H117.078V38.016H116.326ZM117.794 38V32.24H118.546V38H117.794ZM119.669 38V33.84H120.421V38H119.669ZM119.581 32.6C119.581 32.336 119.765 32.144 120.045 32.144C120.325 32.144 120.509 32.336 120.509 32.6C120.509 32.856 120.325 33.056 120.045 33.056C119.765 33.056 119.581 32.856 119.581 32.6ZM121.544 38V33.84H122.296V34.336H122.344C122.64 33.952 123.032 33.744 123.56 33.744C124.448 33.744 125.032 34.32 125.032 35.32V38H124.28V35.464C124.28 34.768 123.952 34.432 123.424 34.432C122.752 34.432 122.296 34.864 122.296 35.92V38H121.544ZM127.899 38.096C126.723 38.096 125.891 37.24 125.891 35.92C125.891 34.624 126.755 33.744 127.907 33.744C129.027 33.744 129.811 34.52 129.811 35.912V36.136H126.659C126.731 36.92 127.179 37.408 127.899 37.408C128.467 37.408 128.795 37.16 129.011 36.672L129.707 36.912C129.443 37.664 128.843 38.096 127.899 38.096ZM126.683 35.52H129.019C128.971 34.904 128.555 34.432 127.907 34.432C127.315 34.432 126.819 34.784 126.683 35.52ZM132.436 38.096C131.34 38.096 130.548 37.232 130.548 35.92C130.548 34.608 131.34 33.744 132.412 33.744C133.028 33.744 133.452 34 133.748 34.384H133.796V32.24H134.548V38H133.796V37.456H133.748C133.468 37.84 133.028 38.096 132.436 38.096ZM131.332 35.92C131.332 36.848 131.82 37.408 132.572 37.408C133.348 37.408 133.82 36.856 133.82 35.92C133.82 34.968 133.348 34.432 132.572 34.432C131.82 34.432 131.332 34.992 131.332 35.92ZM137.669 38V33.84H138.421V38H137.669ZM137.581 32.6C137.581 32.336 137.765 32.144 138.045 32.144C138.325 32.144 138.509 32.336 138.509 32.6C138.509 32.856 138.325 33.056 138.045 33.056C137.765 33.056 137.581 32.856 137.581 32.6ZM139.544 38V33.84H140.296V34.336H140.344C140.64 33.952 141.032 33.744 141.56 33.744C142.448 33.744 143.032 34.32 143.032 35.32V38H142.28V35.464C142.28 34.768 141.952 34.432 141.424 34.432C140.752 34.432 140.296 34.864 140.296 35.92V38H139.544ZM148.267 38.096C146.899 38.096 146.147 37.488 145.851 36.392L146.659 36.216C146.859 37.008 147.403 37.36 148.267 37.36C149.155 37.36 149.651 36.992 149.651 36.432C149.651 35.904 149.283 35.592 148.707 35.528L147.603 35.4C146.523 35.272 145.979 34.664 145.979 33.784C145.979 32.8 146.803 32.144 148.043 32.144C149.195 32.144 150.035 32.688 150.291 33.704L149.491 33.896C149.291 33.24 148.787 32.88 148.043 32.88C147.243 32.88 146.787 33.224 146.787 33.768C146.787 34.256 147.107 34.536 147.731 34.608L148.803 34.736C149.859 34.864 150.459 35.48 150.459 36.432C150.459 37.448 149.651 38.096 148.267 38.096ZM153.564 38.096C152.196 38.096 151.444 37.488 151.148 36.392L151.956 36.216C152.156 37.008 152.7 37.36 153.564 37.36C154.452 37.36 154.948 36.992 154.948 36.432C154.948 35.904 154.58 35.592 154.004 35.528L152.9 35.4C151.82 35.272 151.276 34.664 151.276 33.784C151.276 32.8 152.1 32.144 153.34 32.144C154.492 32.144 155.332 32.688 155.588 33.704L154.788 33.896C154.588 33.24 154.084 32.88 153.34 32.88C152.54 32.88 152.084 33.224 152.084 33.768C152.084 34.256 152.404 34.536 153.028 34.608L154.1 34.736C155.156 34.864 155.756 35.48 155.756 36.432C155.756 37.448 154.948 38.096 153.564 38.096ZM156.717 38V32.24H159.253C160.365 32.24 161.101 32.904 161.101 33.928C161.101 34.944 160.365 35.616 159.213 35.616H157.501V38H156.717ZM157.501 34.896H159.189C159.861 34.896 160.269 34.56 160.269 33.928C160.269 33.28 159.869 32.96 159.221 32.96H157.501V34.896ZM162.093 38V37.28H163.677V34H162.269V33.36H162.661C163.405 33.36 163.741 33.048 163.893 32.432H164.445V37.28H165.917V38H162.093ZM166.902 37.592C166.902 37.312 167.11 37.096 167.414 37.096C167.718 37.096 167.926 37.312 167.926 37.592C167.926 37.88 167.718 38.096 167.414 38.096C167.11 38.096 166.902 37.88 166.902 37.592ZM169.054 38V37.28H170.638V34H169.23V33.36H169.622C170.366 33.36 170.702 33.048 170.854 32.432H171.406V37.28H172.878V38H169.054ZM173.495 36.24V35.6H175.255V36.24H173.495ZM177.767 38.096C176.655 38.096 176.015 37.512 175.927 36.6H176.711C176.775 37.056 177.071 37.384 177.759 37.384C178.503 37.384 179.103 36.976 179.103 35.24H179.055C178.783 35.696 178.311 36.016 177.631 36.016C176.591 36.016 175.799 35.256 175.799 34.176C175.799 33.144 176.567 32.336 177.775 32.336C179.295 32.336 179.903 33.552 179.903 35.136C179.903 37.408 178.855 38.096 177.767 38.096ZM176.599 34.176C176.599 34.848 177.047 35.304 177.775 35.304C178.503 35.304 178.951 34.848 178.951 34.176C178.951 33.496 178.503 33.048 177.775 33.048C177.055 33.048 176.599 33.496 176.599 34.176Z" fill="#161814"/>
<path d="M34.6877 65.0182C31.6096 66.924 22.0854 70.6489 17.7917 72.1649V173.949H336.473V163.121C333.128 163.121 308.536 163.554 302.681 163.554C296.874 163.554 276.752 162.471 269.726 160.955C262.7 159.439 241.956 162.255 235.934 160.955C229.912 159.656 207.495 159.006 202.309 157.923C197.123 156.841 174.874 154.025 168.852 151.643C162.829 149.261 144.428 138.231 135.729 130.853C130.878 126.738 115.153 115.26 101.937 100.317C91.7215 88.7666 82.1972 51.8078 68.4797 52.0244C63.3266 52.1057 56.435 52.6741 51.5837 53.9735C46.7324 55.2729 38.5353 62.636 34.6877 65.0182Z" fill="#F2A17E"/>
<line opacity="0.5" x1="17.8228" y1="51.297" x2="336.473" y2="51.297" stroke="#747672" stroke-width="0.523287"/>
<line opacity="0.5" x1="17.8228" y1="81.9866" x2="336.473" y2="81.9866" stroke="#747672" stroke-width="0.523287"/>
<line opacity="0.5" x1="17.8228" y1="112.677" x2="336.473" y2="112.677" stroke="#747672" stroke-width="0.523287"/>
<line opacity="0.5" x1="17.8228" y1="143.366" x2="336.473" y2="143.366" stroke="#747672" stroke-width="0.523287"/>
<line opacity="0.5" x1="17.8228" y1="174.056" x2="336.473" y2="174.056" stroke="#747672" stroke-width="0.523287"/>
<line opacity="0.5" x1="17.8228" y1="204.746" x2="336.473" y2="204.746" stroke="#747672" stroke-width="0.523287"/>
<line opacity="0.5" x1="17.8228" y1="235.435" x2="336.473" y2="235.435" stroke="#747672" stroke-width="0.523287"/>
<path d="M4.73038 53V52.1261H2.97213V51.7179L4.75654 49.3579H5.23273V51.6813H5.74032V52.1261H5.23273V53H4.73038ZM3.54251 51.6813H4.73038V50.101H4.69898L3.54251 51.6499V51.6813ZM7.5672 53.0628C6.79274 53.0628 6.20142 52.461 6.20142 51.179C6.20142 49.8917 6.79274 49.2951 7.5672 49.2951C8.34167 49.2951 8.93298 49.8917 8.93298 51.179C8.93298 52.461 8.34167 53.0628 7.5672 53.0628ZM6.72471 51.179C6.72471 52.1418 7.04391 52.5971 7.5672 52.5971C8.09049 52.5971 8.40969 52.1418 8.40969 51.179C8.40969 50.2109 8.09049 49.7609 7.5672 49.7609C7.04391 49.7609 6.72471 50.2109 6.72471 51.179Z" fill="#747672"/>
<path d="M4.30128 83.6573C3.49019 83.6573 3.03493 83.2125 3.00876 82.5636H3.54251C3.56345 82.9456 3.83032 83.1916 4.30128 83.1916C4.76177 83.1916 5.05481 82.9822 5.05481 82.5636C5.05481 82.145 4.76177 81.9357 4.24372 81.9357H3.83556V81.4647H4.22279C4.68328 81.4647 4.92399 81.2449 4.92399 80.9048C4.92399 80.5594 4.68328 80.3553 4.30128 80.3553C3.87219 80.3553 3.64717 80.5594 3.61578 80.91H3.11865C3.13958 80.3187 3.57391 79.8896 4.30128 79.8896C5.04435 79.8896 5.44728 80.392 5.44728 80.8996C5.44728 81.2711 5.23273 81.5066 4.88736 81.6479V81.6897C5.33215 81.8101 5.5781 82.1293 5.5781 82.6107C5.5781 83.2125 5.13854 83.6573 4.30128 83.6573ZM7.5672 83.6573C6.79274 83.6573 6.20142 83.0555 6.20142 81.7734C6.20142 80.4862 6.79274 79.8896 7.5672 79.8896C8.34167 79.8896 8.93298 80.4862 8.93298 81.7734C8.93298 83.0555 8.34167 83.6573 7.5672 83.6573ZM6.72471 81.7734C6.72471 82.7363 7.04391 83.1916 7.5672 83.1916C8.09049 83.1916 8.40969 82.7363 8.40969 81.7734C8.40969 80.8054 8.09049 80.3553 7.5672 80.3553C7.04391 80.3553 6.72471 80.8054 6.72471 81.7734Z" fill="#747672"/>
<path d="M3.15528 113.708C3.15528 113.289 3.32273 113.006 3.79893 112.745L4.41117 112.41C4.8141 112.19 4.93446 111.981 4.93446 111.667C4.93446 111.196 4.65712 110.95 4.27512 110.95C3.86172 110.95 3.60008 111.185 3.58438 111.651H3.06632C3.06632 110.945 3.59484 110.484 4.27512 110.484C4.99202 110.484 5.45251 110.981 5.45251 111.667C5.45251 112.174 5.1961 112.514 4.65188 112.813L4.00301 113.169C3.77276 113.294 3.65764 113.415 3.65764 113.687V113.718H5.531V114.189H3.15528V113.708ZM7.5672 114.252C6.79274 114.252 6.20142 113.65 6.20142 112.368C6.20142 111.081 6.79274 110.484 7.5672 110.484C8.34167 110.484 8.93298 111.081 8.93298 112.368C8.93298 113.65 8.34167 114.252 7.5672 114.252ZM6.72471 112.368C6.72471 113.331 7.04391 113.786 7.5672 113.786C8.09049 113.786 8.40969 113.331 8.40969 112.368C8.40969 111.4 8.09049 110.95 7.5672 110.95C7.04391 110.95 6.72471 111.4 6.72471 112.368Z" fill="#747672"/>
<path d="M3.11865 144.783V144.312H4.15476V142.167H3.23378V141.748H3.49019C3.97684 141.748 4.19662 141.544 4.29605 141.141H4.65712V144.312H5.61996V144.783H3.11865ZM7.5672 144.846C6.79274 144.846 6.20142 144.244 6.20142 142.962C6.20142 141.675 6.79274 141.079 7.5672 141.079C8.34167 141.079 8.93298 141.675 8.93298 142.962C8.93298 144.244 8.34167 144.846 7.5672 144.846ZM6.72471 142.962C6.72471 143.925 7.04391 144.381 7.5672 144.381C8.09049 144.381 8.40969 143.925 8.40969 142.962C8.40969 141.994 8.09049 141.544 7.5672 141.544C7.04391 141.544 6.72471 141.994 6.72471 142.962Z" fill="#747672"/>
<path d="M7.5672 175.441C6.79274 175.441 6.20142 174.839 6.20142 173.557C6.20142 172.27 6.79274 171.673 7.5672 171.673C8.34167 171.673 8.93298 172.27 8.93298 173.557C8.93298 174.839 8.34167 175.441 7.5672 175.441ZM6.72471 173.557C6.72471 174.52 7.04391 174.975 7.5672 174.975C8.09049 174.975 8.40969 174.52 8.40969 173.557C8.40969 172.589 8.09049 172.139 7.5672 172.139C7.04391 172.139 6.72471 172.589 6.72471 173.557Z" fill="#747672"/>
<path d="M1.4703 204.821V204.403H2.62153V204.821H1.4703ZM3.11865 205.972V205.501H4.15476V203.356H3.23378V202.937H3.49019C3.97684 202.937 4.19662 202.733 4.29605 202.33H4.65712V205.501H5.61996V205.972H3.11865ZM7.5672 206.035C6.79274 206.035 6.20142 205.433 6.20142 204.151C6.20142 202.864 6.79274 202.268 7.5672 202.268C8.34167 202.268 8.93298 202.864 8.93298 204.151C8.93298 205.433 8.34167 206.035 7.5672 206.035ZM6.72471 204.151C6.72471 205.114 7.04391 205.569 7.5672 205.569C8.09049 205.569 8.40969 205.114 8.40969 204.151C8.40969 203.183 8.09049 202.733 7.5672 202.733C7.04391 202.733 6.72471 203.183 6.72471 204.151Z" fill="#747672"/>
<path d="M1.4703 235.416V234.997H2.62153V235.416H1.4703ZM3.15528 236.085C3.15528 235.667 3.32273 235.384 3.79893 235.123L4.41117 234.788C4.8141 234.568 4.93446 234.359 4.93446 234.045C4.93446 233.574 4.65712 233.328 4.27512 233.328C3.86172 233.328 3.60008 233.563 3.58438 234.029H3.06632C3.06632 233.323 3.59484 232.862 4.27512 232.862C4.99202 232.862 5.45251 233.359 5.45251 234.045C5.45251 234.552 5.1961 234.892 4.65188 235.191L4.00301 235.546C3.77276 235.672 3.65764 235.792 3.65764 236.065V236.096H5.531V236.567H3.15528V236.085ZM7.5672 236.63C6.79274 236.63 6.20142 236.028 6.20142 234.746C6.20142 233.459 6.79274 232.862 7.5672 232.862C8.34167 232.862 8.93298 233.459 8.93298 234.746C8.93298 236.028 8.34167 236.63 7.5672 236.63ZM6.72471 234.746C6.72471 235.709 7.04391 236.164 7.5672 236.164C8.09049 236.164 8.40969 235.709 8.40969 234.746C8.40969 233.778 8.09049 233.328 7.5672 233.328C7.04391 233.328 6.72471 233.778 6.72471 234.746Z" fill="#747672"/>
<path d="M31.3391 245.308C31.3391 244.89 31.5066 244.607 31.9828 244.346L32.595 244.011C32.9979 243.791 33.1183 243.582 33.1183 243.268C33.1183 242.797 32.841 242.551 32.459 242.551C32.0456 242.551 31.7839 242.786 31.7682 243.252H31.2502C31.2502 242.545 31.7787 242.085 32.459 242.085C33.1759 242.085 33.6363 242.582 33.6363 243.268C33.6363 243.775 33.3799 244.115 32.8357 244.414L32.1868 244.769C31.9566 244.895 31.8415 245.015 31.8415 245.287V245.319H33.7148V245.79H31.3391V245.308ZM35.751 245.853C34.9766 245.853 34.3853 245.251 34.3853 243.969C34.3853 242.681 34.9766 242.085 35.751 242.085C36.5255 242.085 37.1168 242.681 37.1168 243.969C37.1168 245.251 36.5255 245.853 35.751 245.853ZM34.9085 243.969C34.9085 244.932 35.2278 245.387 35.751 245.387C36.2743 245.387 36.5935 244.932 36.5935 243.969C36.5935 243.001 36.2743 242.551 35.751 242.551C35.2278 242.551 34.9085 243.001 34.9085 243.969ZM37.7925 245.79V245.319H38.8286V243.173H37.9076V242.755H38.164C38.6507 242.755 38.8704 242.551 38.9699 242.148H39.3309V245.319H40.2938V245.79H37.7925ZM42.241 245.853C41.4666 245.853 40.8752 245.251 40.8752 243.969C40.8752 242.681 41.4666 242.085 42.241 242.085C43.0155 242.085 43.6068 242.681 43.6068 243.969C43.6068 245.251 43.0155 245.853 42.241 245.853ZM41.3985 243.969C41.3985 244.932 41.7177 245.387 42.241 245.387C42.7643 245.387 43.0835 244.932 43.0835 243.969C43.0835 243.001 42.7643 242.551 42.241 242.551C41.7177 242.551 41.3985 243.001 41.3985 243.969Z" fill="#747672"/>
<path d="M64.224 245.308C64.224 244.89 64.3915 244.607 64.8677 244.346L65.4799 244.011C65.8828 243.791 66.0032 243.582 66.0032 243.268C66.0032 242.797 65.7258 242.551 65.3438 242.551C64.9304 242.551 64.6688 242.786 64.6531 243.252H64.135C64.135 242.545 64.6636 242.085 65.3438 242.085C66.0607 242.085 66.5212 242.582 66.5212 243.268C66.5212 243.775 66.2648 244.115 65.7206 244.414L65.0717 244.769C64.8415 244.895 64.7264 245.015 64.7264 245.287V245.319H66.5997V245.79H64.224V245.308ZM68.6359 245.853C67.8615 245.853 67.2701 245.251 67.2701 243.969C67.2701 242.681 67.8615 242.085 68.6359 242.085C69.4104 242.085 70.0017 242.681 70.0017 243.969C70.0017 245.251 69.4104 245.853 68.6359 245.853ZM67.7934 243.969C67.7934 244.932 68.1126 245.387 68.6359 245.387C69.1592 245.387 69.4784 244.932 69.4784 243.969C69.4784 243.001 69.1592 242.551 68.6359 242.551C68.1126 242.551 67.7934 243.001 67.7934 243.969ZM70.714 245.308C70.714 244.89 70.8814 244.607 71.3576 244.346L71.9699 244.011C72.3728 243.791 72.4932 243.582 72.4932 243.268C72.4932 242.797 72.2158 242.551 71.8338 242.551C71.4204 242.551 71.1588 242.786 71.1431 243.252H70.625C70.625 242.545 71.1535 242.085 71.8338 242.085C72.5507 242.085 73.0112 242.582 73.0112 243.268C73.0112 243.775 72.7548 244.115 72.2106 244.414L71.5617 244.769C71.3315 244.895 71.2163 245.015 71.2163 245.287V245.319H73.0897V245.79H70.714V245.308ZM75.1259 245.853C74.3514 245.853 73.7601 245.251 73.7601 243.969C73.7601 242.681 74.3514 242.085 75.1259 242.085C75.9004 242.085 76.4917 242.681 76.4917 243.969C76.4917 245.251 75.9004 245.853 75.1259 245.853ZM74.2834 243.969C74.2834 244.932 74.6026 245.387 75.1259 245.387C75.6492 245.387 75.9684 244.932 75.9684 243.969C75.9684 243.001 75.6492 242.551 75.1259 242.551C74.6026 242.551 74.2834 243.001 74.2834 243.969Z" fill="#747672"/>
<path d="M97.1089 245.308C97.1089 244.89 97.2763 244.607 97.7525 244.346L98.3648 244.011C98.7677 243.791 98.8881 243.582 98.8881 243.268C98.8881 242.797 98.6107 242.551 98.2287 242.551C97.8153 242.551 97.5537 242.786 97.538 243.252H97.0199C97.0199 242.545 97.5485 242.085 98.2287 242.085C98.9456 242.085 99.4061 242.582 99.4061 243.268C99.4061 243.775 99.1497 244.115 98.6055 244.414L97.9566 244.769C97.7264 244.895 97.6113 245.015 97.6113 245.287V245.319H99.4846V245.79H97.1089V245.308ZM101.521 245.853C100.746 245.853 100.155 245.251 100.155 243.969C100.155 242.681 100.746 242.085 101.521 242.085C102.295 242.085 102.887 242.681 102.887 243.969C102.887 245.251 102.295 245.853 101.521 245.853ZM100.678 243.969C100.678 244.932 100.998 245.387 101.521 245.387C102.044 245.387 102.363 244.932 102.363 243.969C102.363 243.001 102.044 242.551 101.521 242.551C100.998 242.551 100.678 243.001 100.678 243.969ZM104.745 245.853C103.934 245.853 103.479 245.408 103.452 244.759H103.986C104.007 245.141 104.274 245.387 104.745 245.387C105.205 245.387 105.498 245.178 105.498 244.759C105.498 244.34 105.205 244.131 104.687 244.131H104.279V243.66H104.666C105.127 243.66 105.368 243.44 105.368 243.1C105.368 242.755 105.127 242.551 104.745 242.551C104.316 242.551 104.091 242.755 104.059 243.105H103.562C103.583 242.514 104.018 242.085 104.745 242.085C105.488 242.085 105.891 242.587 105.891 243.095C105.891 243.466 105.676 243.702 105.331 243.843V243.885C105.776 244.005 106.022 244.325 106.022 244.806C106.022 245.408 105.582 245.853 104.745 245.853ZM108.011 245.853C107.236 245.853 106.645 245.251 106.645 243.969C106.645 242.681 107.236 242.085 108.011 242.085C108.785 242.085 109.377 242.681 109.377 243.969C109.377 245.251 108.785 245.853 108.011 245.853ZM107.168 243.969C107.168 244.932 107.488 245.387 108.011 245.387C108.534 245.387 108.853 244.932 108.853 243.969C108.853 243.001 108.534 242.551 108.011 242.551C107.488 242.551 107.168 243.001 107.168 243.969Z" fill="#747672"/>
<path d="M129.994 245.308C129.994 244.89 130.161 244.607 130.637 244.346L131.25 244.011C131.653 243.791 131.773 243.582 131.773 243.268C131.773 242.797 131.496 242.551 131.114 242.551C130.7 242.551 130.439 242.786 130.423 243.252H129.905C129.905 242.545 130.433 242.085 131.114 242.085C131.831 242.085 132.291 242.582 132.291 243.268C132.291 243.775 132.035 244.115 131.49 244.414L130.842 244.769C130.611 244.895 130.496 245.015 130.496 245.287V245.319H132.37V245.79H129.994V245.308ZM134.406 245.853C133.631 245.853 133.04 245.251 133.04 243.969C133.04 242.681 133.631 242.085 134.406 242.085C135.18 242.085 135.771 242.681 135.771 243.969C135.771 245.251 135.18 245.853 134.406 245.853ZM133.563 243.969C133.563 244.932 133.882 245.387 134.406 245.387C134.929 245.387 135.248 244.932 135.248 243.969C135.248 243.001 134.929 242.551 134.406 242.551C133.882 242.551 133.563 243.001 133.563 243.969ZM138.059 245.79V244.916H136.301V244.508L138.085 242.148H138.561V244.471H139.069V244.916H138.561V245.79H138.059ZM136.871 244.471H138.059V242.891H138.027L136.871 244.44V244.471ZM140.896 245.853C140.121 245.853 139.53 245.251 139.53 243.969C139.53 242.681 140.121 242.085 140.896 242.085C141.67 242.085 142.261 242.681 142.261 243.969C142.261 245.251 141.67 245.853 140.896 245.853ZM140.053 243.969C140.053 244.932 140.372 245.387 140.896 245.387C141.419 245.387 141.738 244.932 141.738 243.969C141.738 243.001 141.419 242.551 140.896 242.551C140.372 242.551 140.053 243.001 140.053 243.969Z" fill="#747672"/>
<path d="M162.879 245.308C162.879 244.89 163.046 244.607 163.522 244.346L164.135 244.011C164.537 243.791 164.658 243.582 164.658 243.268C164.658 242.797 164.381 242.551 163.999 242.551C163.585 242.551 163.323 242.786 163.308 243.252H162.79C162.79 242.545 163.318 242.085 163.999 242.085C164.715 242.085 165.176 242.582 165.176 243.268C165.176 243.775 164.919 244.115 164.375 244.414L163.726 244.769C163.496 244.895 163.381 245.015 163.381 245.287V245.319H165.254V245.79H162.879V245.308ZM167.291 245.853C166.516 245.853 165.925 245.251 165.925 243.969C165.925 242.681 166.516 242.085 167.291 242.085C168.065 242.085 168.656 242.681 168.656 243.969C168.656 245.251 168.065 245.853 167.291 245.853ZM166.448 243.969C166.448 244.932 166.767 245.387 167.291 245.387C167.814 245.387 168.133 244.932 168.133 243.969C168.133 243.001 167.814 242.551 167.291 242.551C166.767 242.551 166.448 243.001 166.448 243.969ZM170.53 245.853C169.84 245.853 169.311 245.481 169.222 244.837H169.74C169.834 245.172 170.127 245.387 170.53 245.387C171.038 245.387 171.336 245.057 171.336 244.565C171.336 244.089 171.054 243.754 170.551 243.754C170.19 243.754 169.934 243.927 169.782 244.131L169.332 244.058L169.51 242.148H171.624V242.619H169.939L169.834 243.592H169.866C170.049 243.398 170.316 243.288 170.625 243.288C171.357 243.288 171.859 243.817 171.859 244.56C171.859 245.298 171.336 245.853 170.53 245.853ZM173.781 245.853C173.006 245.853 172.415 245.251 172.415 243.969C172.415 242.681 173.006 242.085 173.781 242.085C174.555 242.085 175.146 242.681 175.146 243.969C175.146 245.251 174.555 245.853 173.781 245.853ZM172.938 243.969C172.938 244.932 173.257 245.387 173.781 245.387C174.304 245.387 174.623 244.932 174.623 243.969C174.623 243.001 174.304 242.551 173.781 242.551C173.257 242.551 172.938 243.001 172.938 243.969Z" fill="#747672"/>
<path d="M195.764 245.308C195.764 244.89 195.931 244.607 196.407 244.346L197.019 244.011C197.422 243.791 197.543 243.582 197.543 243.268C197.543 242.797 197.265 242.551 196.883 242.551C196.47 242.551 196.208 242.786 196.193 243.252H195.675C195.675 242.545 196.203 242.085 196.883 242.085C197.6 242.085 198.061 242.582 198.061 243.268C198.061 243.775 197.804 244.115 197.26 244.414L196.611 244.769C196.381 244.895 196.266 245.015 196.266 245.287V245.319H198.139V245.79H195.764V245.308ZM200.175 245.853C199.401 245.853 198.81 245.251 198.81 243.969C198.81 242.681 199.401 242.085 200.175 242.085C200.95 242.085 201.541 242.681 201.541 243.969C201.541 245.251 200.95 245.853 200.175 245.853ZM199.333 243.969C199.333 244.932 199.652 245.387 200.175 245.387C200.699 245.387 201.018 244.932 201.018 243.969C201.018 243.001 200.699 242.551 200.175 242.551C199.652 242.551 199.333 243.001 199.333 243.969ZM203.473 245.853C202.479 245.853 202.081 245.057 202.081 244.021C202.081 242.535 202.787 242.085 203.478 242.085C204.174 242.085 204.603 242.467 204.661 243.063H204.148C204.106 242.765 203.902 242.551 203.483 242.551C203.018 242.551 202.604 242.818 202.604 243.953H202.636C202.813 243.655 203.122 243.445 203.567 243.445C204.247 243.445 204.765 243.943 204.765 244.649C204.765 245.324 204.263 245.853 203.473 245.853ZM202.704 244.649C202.704 245.094 202.997 245.387 203.473 245.387C203.944 245.387 204.242 245.094 204.242 244.649C204.242 244.209 203.949 243.911 203.473 243.911C202.997 243.911 202.704 244.209 202.704 244.649ZM206.665 245.853C205.891 245.853 205.3 245.251 205.3 243.969C205.3 242.681 205.891 242.085 206.665 242.085C207.44 242.085 208.031 242.681 208.031 243.969C208.031 245.251 207.44 245.853 206.665 245.853ZM205.823 243.969C205.823 244.932 206.142 245.387 206.665 245.387C207.189 245.387 207.508 244.932 207.508 243.969C207.508 243.001 207.189 242.551 206.665 242.551C206.142 242.551 205.823 243.001 205.823 243.969Z" fill="#747672"/>
<path d="M228.648 245.308C228.648 244.89 228.816 244.607 229.292 244.346L229.904 244.011C230.307 243.791 230.428 243.582 230.428 243.268C230.428 242.797 230.15 242.551 229.768 242.551C229.355 242.551 229.093 242.786 229.078 243.252H228.559C228.559 242.545 229.088 242.085 229.768 242.085C230.485 242.085 230.946 242.582 230.946 243.268C230.946 243.775 230.689 244.115 230.145 244.414L229.496 244.769C229.266 244.895 229.151 245.015 229.151 245.287V245.319H231.024V245.79H228.648V245.308ZM233.06 245.853C232.286 245.853 231.695 245.251 231.695 243.969C231.695 242.681 232.286 242.085 233.06 242.085C233.835 242.085 234.426 242.681 234.426 243.969C234.426 245.251 233.835 245.853 233.06 245.853ZM232.218 243.969C232.218 244.932 232.537 245.387 233.06 245.387C233.584 245.387 233.903 244.932 233.903 243.969C233.903 243.001 233.584 242.551 233.06 242.551C232.537 242.551 232.218 243.001 232.218 243.969ZM235.803 245.79C235.803 244.382 236.07 243.676 237.111 242.661V242.619H234.95V242.148H237.676V242.713C236.541 243.885 236.358 244.361 236.358 245.79H235.803ZM239.55 245.853C238.776 245.853 238.185 245.251 238.185 243.969C238.185 242.681 238.776 242.085 239.55 242.085C240.325 242.085 240.916 242.681 240.916 243.969C240.916 245.251 240.325 245.853 239.55 245.853ZM238.708 243.969C238.708 244.932 239.027 245.387 239.55 245.387C240.074 245.387 240.393 244.932 240.393 243.969C240.393 243.001 240.074 242.551 239.55 242.551C239.027 242.551 238.708 243.001 238.708 243.969Z" fill="#747672"/>
<path d="M261.533 245.308C261.533 244.89 261.701 244.607 262.177 244.346L262.789 244.011C263.192 243.791 263.313 243.582 263.313 243.268C263.313 242.797 263.035 242.551 262.653 242.551C262.24 242.551 261.978 242.786 261.962 243.252H261.444C261.444 242.545 261.973 242.085 262.653 242.085C263.37 242.085 263.831 242.582 263.831 243.268C263.831 243.775 263.574 244.115 263.03 244.414L262.381 244.769C262.151 244.895 262.036 245.015 262.036 245.287V245.319H263.909V245.79H261.533V245.308ZM265.945 245.853C265.171 245.853 264.579 245.251 264.579 243.969C264.579 242.681 265.171 242.085 265.945 242.085C266.72 242.085 267.311 242.681 267.311 243.969C267.311 245.251 266.72 245.853 265.945 245.853ZM265.103 243.969C265.103 244.932 265.422 245.387 265.945 245.387C266.469 245.387 266.788 244.932 266.788 243.969C266.788 243.001 266.469 242.551 265.945 242.551C265.422 242.551 265.103 243.001 265.103 243.969ZM269.19 245.853C268.353 245.853 267.913 245.382 267.913 244.796C267.913 244.361 268.144 244.032 268.547 243.869V243.827C268.212 243.686 268.044 243.419 268.044 243.084C268.044 242.593 268.447 242.085 269.19 242.085C269.933 242.085 270.336 242.593 270.336 243.084C270.336 243.419 270.158 243.686 269.829 243.827V243.869C270.232 244.032 270.467 244.361 270.467 244.796C270.467 245.382 270.028 245.853 269.19 245.853ZM268.437 244.748C268.437 245.151 268.73 245.387 269.19 245.387C269.651 245.387 269.944 245.151 269.944 244.748C269.944 244.33 269.651 244.11 269.19 244.11C268.73 244.11 268.437 244.33 268.437 244.748ZM268.568 243.09C268.568 243.43 268.808 243.644 269.19 243.644C269.572 243.644 269.813 243.43 269.813 243.09C269.813 242.76 269.572 242.551 269.19 242.551C268.808 242.551 268.568 242.76 268.568 243.09ZM272.435 245.853C271.661 245.853 271.069 245.251 271.069 243.969C271.069 242.681 271.661 242.085 272.435 242.085C273.21 242.085 273.801 242.681 273.801 243.969C273.801 245.251 273.21 245.853 272.435 245.853ZM271.593 243.969C271.593 244.932 271.912 245.387 272.435 245.387C272.959 245.387 273.278 244.932 273.278 243.969C273.278 243.001 272.959 242.551 272.435 242.551C271.912 242.551 271.593 243.001 271.593 243.969Z" fill="#747672"/>
<path d="M294.418 245.308C294.418 244.89 294.586 244.607 295.062 244.346L295.674 244.011C296.077 243.791 296.197 243.582 296.197 243.268C296.197 242.797 295.92 242.551 295.538 242.551C295.125 242.551 294.863 242.786 294.847 243.252H294.329C294.329 242.545 294.858 242.085 295.538 242.085C296.255 242.085 296.715 242.582 296.715 243.268C296.715 243.775 296.459 244.115 295.915 244.414L295.266 244.769C295.036 244.895 294.921 245.015 294.921 245.287V245.319H296.794V245.79H294.418V245.308ZM298.83 245.853C298.056 245.853 297.464 245.251 297.464 243.969C297.464 242.681 298.056 242.085 298.83 242.085C299.605 242.085 300.196 242.681 300.196 243.969C300.196 245.251 299.605 245.853 298.83 245.853ZM297.988 243.969C297.988 244.932 298.307 245.387 298.83 245.387C299.353 245.387 299.673 244.932 299.673 243.969C299.673 243.001 299.353 242.551 298.83 242.551C298.307 242.551 297.988 243.001 297.988 243.969ZM302.018 245.853C301.29 245.853 300.872 245.471 300.814 244.874H301.327C301.369 245.172 301.562 245.387 302.012 245.387C302.499 245.387 302.891 245.12 302.891 243.984H302.86C302.682 244.283 302.373 244.492 301.929 244.492C301.248 244.492 300.73 243.995 300.73 243.288C300.73 242.613 301.233 242.085 302.023 242.085C303.017 242.085 303.415 242.88 303.415 243.916C303.415 245.403 302.729 245.853 302.018 245.853ZM301.254 243.288C301.254 243.728 301.547 244.026 302.023 244.026C302.499 244.026 302.792 243.728 302.792 243.288C302.792 242.844 302.499 242.551 302.023 242.551C301.552 242.551 301.254 242.844 301.254 243.288ZM305.32 245.853C304.546 245.853 303.954 245.251 303.954 243.969C303.954 242.681 304.546 242.085 305.32 242.085C306.095 242.085 306.686 242.681 306.686 243.969C306.686 245.251 306.095 245.853 305.32 245.853ZM304.478 243.969C304.478 244.932 304.797 245.387 305.32 245.387C305.843 245.387 306.163 244.932 306.163 243.969C306.163 243.001 305.843 242.551 305.32 242.551C304.797 242.551 304.478 243.001 304.478 243.969Z" fill="#747672"/>
<path d="M327.303 245.308C327.303 244.89 327.471 244.607 327.947 244.346L328.559 244.011C328.962 243.791 329.082 243.582 329.082 243.268C329.082 242.797 328.805 242.551 328.423 242.551C328.01 242.551 327.748 242.786 327.732 243.252H327.214C327.214 242.545 327.743 242.085 328.423 242.085C329.14 242.085 329.6 242.582 329.6 243.268C329.6 243.775 329.344 244.115 328.8 244.414L328.151 244.769C327.921 244.895 327.805 245.015 327.805 245.287V245.319H329.679V245.79H327.303V245.308ZM330.511 245.79V245.319H331.548V243.173H330.627V242.755H330.883C331.37 242.755 331.589 242.551 331.689 242.148H332.05V245.319H333.013V245.79H330.511ZM334.96 245.853C334.186 245.853 333.594 245.251 333.594 243.969C333.594 242.681 334.186 242.085 334.96 242.085C335.734 242.085 336.326 242.681 336.326 243.969C336.326 245.251 335.734 245.853 334.96 245.853ZM334.118 243.969C334.118 244.932 334.437 245.387 334.96 245.387C335.483 245.387 335.803 244.932 335.803 243.969C335.803 243.001 335.483 242.551 334.96 242.551C334.437 242.551 334.118 243.001 334.118 243.969ZM338.205 245.853C337.431 245.853 336.839 245.251 336.839 243.969C336.839 242.681 337.431 242.085 338.205 242.085C338.979 242.085 339.571 242.681 339.571 243.969C339.571 245.251 338.979 245.853 338.205 245.853ZM337.363 243.969C337.363 244.932 337.682 245.387 338.205 245.387C338.728 245.387 339.047 244.932 339.047 243.969C339.047 243.001 338.728 242.551 338.205 242.551C337.682 242.551 337.363 243.001 337.363 243.969Z" fill="#747672"/>
<line x1="17.8498" y1="235.841" x2="17.8498" y2="239.729" stroke="#DBDBDB" stroke-width="0.353463"/>
<line x1="36.9382" y1="235.697" x2="36.9382" y2="239.563" stroke="#DBDBDB" stroke-width="0.353463"/>
<line x1="236.302" y1="235.697" x2="236.302" y2="239.563" stroke="#DBDBDB" stroke-width="0.353463"/>
<line x1="136.62" y1="235.697" x2="136.62" y2="239.563" stroke="#DBDBDB" stroke-width="0.353463"/>
<line x1="335.984" y1="235.697" x2="335.984" y2="239.563" stroke="#DBDBDB" stroke-width="0.353463"/>
<line x1="70.1654" y1="235.697" x2="70.1654" y2="239.563" stroke="#DBDBDB" stroke-width="0.353463"/>
<line x1="269.53" y1="235.697" x2="269.53" y2="239.563" stroke="#DBDBDB" stroke-width="0.353463"/>
<line x1="169.848" y1="235.697" x2="169.848" y2="239.563" stroke="#DBDBDB" stroke-width="0.353463"/>
<line x1="103.393" y1="235.697" x2="103.393" y2="239.563" stroke="#DBDBDB" stroke-width="0.353463"/>
<line x1="302.757" y1="235.697" x2="302.757" y2="239.563" stroke="#DBDBDB" stroke-width="0.353463"/>
<line x1="203.075" y1="235.697" x2="203.075" y2="239.563" stroke="#DBDBDB" stroke-width="0.353463"/>
<circle cx="8.40005" cy="269.711" r="6.27944" fill="#F2A17E"/>
<path d="M8.37211 270.397C8.53467 270.397 8.66646 270.266 8.66646 270.103C8.66646 269.94 8.53467 269.809 8.37211 269.809C8.20954 269.809 8.07776 269.94 8.07776 270.103C8.07776 270.266 8.20954 270.397 8.37211 270.397Z" fill="white"/>
<path d="M11.0862 270.572L9.69765 269.769C9.43438 269.616 9.27218 269.335 9.27218 269.03V267.423C9.27218 266.953 8.8912 266.571 8.42124 266.571C7.95127 266.571 7.5703 266.953 7.5703 267.423V269.03C7.5703 269.335 7.4081 269.616 7.14483 269.769L5.75611 270.572C5.34912 270.807 5.20967 271.329 5.44465 271.737C5.67963 272.145 6.20006 272.284 6.60705 272.049L7.99563 271.246C8.2589 271.093 8.58329 271.093 8.84657 271.246L10.2353 272.049C10.6423 272.285 11.1627 272.145 11.3977 271.737C11.6327 271.329 11.4932 270.808 11.0862 270.572V270.572Z" stroke="white" stroke-width="0.523287" stroke-miterlimit="10"/>
<path d="M17.8944 271.711V267.943H19.5533C20.2806 267.943 20.762 268.377 20.762 269.047C20.762 269.712 20.2806 270.151 19.5271 270.151H18.4073V271.711H17.8944ZM18.4073 269.68H19.5114C19.951 269.68 20.2178 269.461 20.2178 269.047C20.2178 268.623 19.9562 268.414 19.5323 268.414H18.4073V269.68ZM22.46 271.773C21.6803 271.773 21.1256 271.214 21.1256 270.35C21.1256 269.487 21.6803 268.927 22.46 268.927C23.2345 268.927 23.7944 269.487 23.7944 270.35C23.7944 271.214 23.2345 271.773 22.46 271.773ZM21.6385 270.35C21.6385 270.952 21.921 271.323 22.46 271.323C22.9885 271.323 23.2816 270.952 23.2816 270.35C23.2816 269.748 22.9885 269.377 22.46 269.377C21.921 269.377 21.6385 269.748 21.6385 270.35ZM25.3727 271.773C24.7029 271.773 24.3313 271.47 24.1691 270.962L24.6558 270.821C24.75 271.146 24.9541 271.323 25.3727 271.323C25.8122 271.323 25.9849 271.172 25.9849 270.957C25.9849 270.764 25.8489 270.617 25.6134 270.586L25.0535 270.512C24.5459 270.444 24.2633 270.193 24.2633 269.733C24.2633 269.298 24.6087 268.927 25.2785 268.927C25.8646 268.927 26.2466 269.204 26.3826 269.644L25.9117 269.795C25.807 269.529 25.6239 269.377 25.2785 269.377C24.8913 269.377 24.7395 269.544 24.7395 269.733C24.7395 269.926 24.8808 270.041 25.1163 270.073L25.671 270.151C26.2047 270.225 26.4611 270.523 26.4611 270.957C26.4611 271.433 26.0739 271.773 25.3727 271.773ZM26.9748 271.711V268.99H27.4667V271.711H26.9748ZM26.9172 268.179C26.9172 268.006 27.0376 267.88 27.2207 267.88C27.4039 267.88 27.5243 268.006 27.5243 268.179C27.5243 268.346 27.4039 268.477 27.2207 268.477C27.0376 268.477 26.9172 268.346 26.9172 268.179ZM29.0804 271.721C28.6147 271.721 28.3687 271.465 28.3687 271.046V269.419H27.8611V268.99H28.3687V268.247H28.8606V268.99H29.5199V269.419H28.8606V270.999C28.8606 271.187 28.9496 271.271 29.1484 271.271H29.5723V271.721H29.0804ZM30.0409 271.711V268.99H30.5328V271.711H30.0409ZM29.9834 268.179C29.9834 268.006 30.1037 267.88 30.2869 267.88C30.47 267.88 30.5904 268.006 30.5904 268.179C30.5904 268.346 30.47 268.477 30.2869 268.477C30.1037 268.477 29.9834 268.346 29.9834 268.179ZM31.9686 271.711L30.9325 268.99H31.4819L32.2459 271.114H32.3087L33.0727 268.99H33.6012L32.5651 271.711H31.9686ZM35.1329 271.773C34.3637 271.773 33.8194 271.214 33.8194 270.35C33.8194 269.502 34.3846 268.927 35.1381 268.927C35.8707 268.927 36.3835 269.434 36.3835 270.345V270.491H34.3218C34.3689 271.004 34.6619 271.323 35.1329 271.323C35.5044 271.323 35.719 271.161 35.8603 270.842L36.3155 270.999C36.1428 271.491 35.7504 271.773 35.1329 271.773ZM34.3375 270.089H35.8655C35.8341 269.686 35.562 269.377 35.1381 269.377C34.7509 269.377 34.4264 269.607 34.3375 270.089ZM39.4868 271.773C38.7176 271.773 38.1733 271.214 38.1733 270.35C38.1733 269.502 38.7385 268.927 39.492 268.927C40.2246 268.927 40.7374 269.434 40.7374 270.345V270.491H38.6757C38.7228 271.004 39.0158 271.323 39.4868 271.323C39.8583 271.323 40.0729 271.161 40.2142 270.842L40.6694 270.999C40.4967 271.491 40.1043 271.773 39.4868 271.773ZM38.6914 270.089H40.2194C40.188 269.686 39.9159 269.377 39.492 269.377C39.1048 269.377 38.7804 269.607 38.6914 270.089ZM41.3499 271.711V268.99H41.8417V269.298H41.8731C42.0511 269.058 42.2813 268.927 42.6214 268.927C43.0034 268.927 43.2808 269.094 43.4221 269.377H43.4482C43.6418 269.084 43.9035 268.927 44.296 268.927C44.8402 268.927 45.2222 269.304 45.2222 269.895V271.711H44.7303V270.015C44.7303 269.597 44.5367 269.377 44.207 269.377C43.7936 269.377 43.532 269.638 43.532 270.266V271.711H43.0401V270.015C43.0401 269.597 42.8465 269.377 42.5168 269.377C42.1034 269.377 41.8417 269.638 41.8417 270.266V271.711H41.3499ZM45.9133 271.711V268.99H46.4052V271.711H45.9133ZM45.8557 268.179C45.8557 268.006 45.9761 267.88 46.1592 267.88C46.3424 267.88 46.4627 268.006 46.4627 268.179C46.4627 268.346 46.3424 268.477 46.1592 268.477C45.9761 268.477 45.8557 268.346 45.8557 268.179ZM48.1183 271.773C47.4485 271.773 47.0769 271.47 46.9147 270.962L47.4014 270.821C47.4956 271.146 47.6996 271.323 48.1183 271.323C48.5578 271.323 48.7305 271.172 48.7305 270.957C48.7305 270.764 48.5945 270.617 48.359 270.586L47.7991 270.512C47.2915 270.444 47.0089 270.193 47.0089 269.733C47.0089 269.298 47.3543 268.927 48.0241 268.927C48.6102 268.927 48.9922 269.204 49.1282 269.644L48.6573 269.795C48.5526 269.529 48.3695 269.377 48.0241 269.377C47.6369 269.377 47.4851 269.544 47.4851 269.733C47.4851 269.926 47.6264 270.041 47.8619 270.073L48.4165 270.151C48.9503 270.225 49.2067 270.523 49.2067 270.957C49.2067 271.433 48.8195 271.773 48.1183 271.773ZM50.6989 271.773C50.0291 271.773 49.6576 271.47 49.4954 270.962L49.982 270.821C50.0762 271.146 50.2803 271.323 50.6989 271.323C51.1385 271.323 51.3112 271.172 51.3112 270.957C51.3112 270.764 51.1751 270.617 50.9396 270.586L50.3797 270.512C49.8721 270.444 49.5896 270.193 49.5896 269.733C49.5896 269.298 49.9349 268.927 50.6047 268.927C51.1908 268.927 51.5728 269.204 51.7089 269.644L51.2379 269.795C51.1333 269.529 50.9501 269.377 50.6047 269.377C50.2175 269.377 50.0658 269.544 50.0658 269.733C50.0658 269.926 50.207 270.041 50.4425 270.073L50.9972 270.151C51.531 270.225 51.7874 270.523 51.7874 270.957C51.7874 271.433 51.4001 271.773 50.6989 271.773ZM52.3011 271.711V268.99H52.7929V271.711H52.3011ZM52.2435 268.179C52.2435 268.006 52.3638 267.88 52.547 267.88C52.7301 267.88 52.8505 268.006 52.8505 268.179C52.8505 268.346 52.7301 268.477 52.547 268.477C52.3638 268.477 52.2435 268.346 52.2435 268.179ZM54.7311 271.773C53.9514 271.773 53.3967 271.214 53.3967 270.35C53.3967 269.487 53.9514 268.927 54.7311 268.927C55.5055 268.927 56.0654 269.487 56.0654 270.35C56.0654 271.214 55.5055 271.773 54.7311 271.773ZM53.9095 270.35C53.9095 270.952 54.1921 271.323 54.7311 271.323C55.2596 271.323 55.5526 270.952 55.5526 270.35C55.5526 269.748 55.2596 269.377 54.7311 269.377C54.1921 269.377 53.9095 269.748 53.9095 270.35ZM56.6652 271.711V268.99H57.1571V269.314H57.1885C57.3821 269.063 57.6385 268.927 57.9839 268.927C58.5647 268.927 58.9467 269.304 58.9467 269.958V271.711H58.4548V270.052C58.4548 269.597 58.2403 269.377 57.8949 269.377C57.4553 269.377 57.1571 269.659 57.1571 270.35V271.711H56.6652ZM60.6179 271.773C59.9481 271.773 59.5765 271.47 59.4143 270.962L59.901 270.821C59.9952 271.146 60.1992 271.323 60.6179 271.323C61.0574 271.323 61.2301 271.172 61.2301 270.957C61.2301 270.764 61.0941 270.617 60.8586 270.586L60.2987 270.512C59.7911 270.444 59.5085 270.193 59.5085 269.733C59.5085 269.298 59.8539 268.927 60.5237 268.927C61.1098 268.927 61.4918 269.204 61.6278 269.644L61.1569 269.795C61.0522 269.529 60.869 269.377 60.5237 269.377C60.1364 269.377 59.9847 269.544 59.9847 269.733C59.9847 269.926 60.126 270.041 60.3615 270.073L60.9161 270.151C61.4499 270.225 61.7063 270.523 61.7063 270.957C61.7063 271.433 61.3191 271.773 60.6179 271.773Z" fill="#161814"/>
</svg>
