<svg width="274" height="93" viewBox="0 0 274 93" fill="none" xmlns="http://www.w3.org/2000/svg">
<path d="M273.242 56C273.242 57.7907 271.791 59.2424 270 59.2424C268.209 59.2424 266.758 57.7907 266.758 56C266.758 54.2093 268.209 52.7576 270 52.7576C271.791 52.7576 273.242 54.2093 273.242 56ZM269.392 56V54.7914H270.608V56H269.392ZM269.392 52.3742V49.957H270.608V52.3742H269.392ZM269.392 47.5398V45.1225H270.608V47.5398H269.392ZM269.392 42.7053V40.2881H270.608V42.7053H269.392ZM269.392 37.8709V35.4537H270.608V37.8709H269.392ZM269.392 33.0365V30.6193H270.608V33.0365H269.392ZM269.392 28.202V25.7848H270.608V28.202H269.392ZM269.392 23.3676V22.159H270.608V23.3676H269.392ZM269.392 22.159C269.392 21.7764 269.373 21.3984 269.337 21.0256L270.547 20.9079C270.587 21.3197 270.608 21.737 270.608 22.159H269.392ZM268.898 18.8045C268.676 18.0743 268.385 17.3746 268.031 16.7133L269.102 16.1392C269.494 16.8704 269.817 17.6442 270.061 18.452L268.898 18.8045ZM266.771 14.8312C266.29 14.2465 265.753 13.7098 265.169 13.2293L265.941 12.2899C266.587 12.8206 267.179 13.4134 267.71 14.0594L266.771 14.8312ZM263.287 11.9695C262.625 11.6153 261.926 11.3236 261.195 11.1024L261.548 9.93873C262.356 10.1835 263.13 10.506 263.861 10.8976L263.287 11.9695ZM258.974 10.6628C258.602 10.6265 258.224 10.608 257.841 10.608V9.39205C258.263 9.39205 258.68 9.41254 259.092 9.45262L258.974 10.6628ZM257.841 10.608H256.597V9.39205H257.841V10.608ZM254.108 10.608H251.619V9.39205H254.108V10.608ZM249.131 10.608H246.642V9.39205H249.131V10.608ZM244.153 10.608H241.665V9.39205H244.153V10.608ZM239.176 10.608H236.688V9.39205H239.176V10.608ZM234.199 10.608H231.71V9.39205H234.199V10.608ZM229.222 10.608H226.733V9.39205H229.222V10.608ZM224.244 10.608H223V9.39205H224.244V10.608Z" fill="#B2BA9B"/>
<path d="M1.036 14H7.364V12.712H2.408V3.92H1.036V14ZM10.8166 14.168C11.7826 14.168 12.7206 13.776 13.2106 12.978H13.2946L13.3086 14H14.5826L14.5546 12.446V9.212C14.5546 7.602 13.4766 6.552 11.6286 6.552C9.80864 6.552 8.71664 7.574 8.66064 8.988H9.92064C9.99064 8.232 10.4946 7.728 11.6286 7.728C12.6926 7.728 13.2386 8.302 13.2386 9.24V9.548L10.8866 9.744C9.23464 9.884 8.45064 10.724 8.45064 12.012C8.45064 13.286 9.37464 14.168 10.8166 14.168ZM9.73864 11.956C9.73864 11.34 10.1446 10.878 11.1386 10.78L13.2246 10.584C13.1126 12.278 12.1186 13.048 11.0406 13.048C10.1866 13.048 9.73864 12.614 9.73864 11.956ZM16.4019 14H17.7179V10.36C17.7179 8.512 18.5159 7.756 19.6919 7.756C20.6159 7.756 21.1899 8.344 21.1899 9.562V14H22.5059V9.31C22.5059 7.56 21.4839 6.552 19.9299 6.552C19.0059 6.552 18.3199 6.916 17.8019 7.588H17.7179V6.72H16.4019V14ZM27.3129 14.168C28.3489 14.168 29.1189 13.72 29.6089 13.048H29.6929V14H31.0089V3.92H29.6929V7.672H29.6089C29.0909 7 28.3489 6.552 27.2709 6.552C25.3949 6.552 24.0089 8.064 24.0089 10.36C24.0089 12.656 25.3949 14.168 27.3129 14.168ZM25.3809 10.36C25.3809 8.736 26.2349 7.756 27.5509 7.756C28.9089 7.756 29.7349 8.694 29.7349 10.36C29.7349 11.998 28.9089 12.964 27.5509 12.964C26.2349 12.964 25.3809 11.984 25.3809 10.36ZM37.8022 14H39.1182V6.72H34.7362V5.642C34.7362 5.166 34.9742 4.956 35.4642 4.956H36.6962V3.752H35.3522C34.0922 3.752 33.4202 4.438 33.4202 5.572V6.72H32.0622V7.868H33.4202V14H34.7362V7.868H37.8022V14ZM41.0796 14H42.3956V3.92H41.0796V14ZM44.3609 14H45.6769V3.92H44.3609V14ZM54.3621 16.968C56.4621 16.968 57.7921 15.778 57.7921 13.958V6.72H56.4761V7.672H56.3921C55.8461 6.958 55.0621 6.552 54.0961 6.552C52.1781 6.552 50.7921 8.05 50.7921 10.22C50.7921 12.404 52.1361 13.888 54.0541 13.888C55.0621 13.888 55.9021 13.454 56.3921 12.768H56.4761V13.888C56.4761 15.008 55.7201 15.792 54.3621 15.792C53.1161 15.792 52.4721 15.302 52.2341 14.476L50.9181 14.868C51.2821 16.086 52.3881 16.968 54.3621 16.968ZM52.1641 10.22C52.1641 8.68 53.0181 7.756 54.3341 7.756C55.6221 7.756 56.5181 8.666 56.5181 10.22C56.5181 11.802 55.6221 12.684 54.3341 12.684C53.0181 12.684 52.1641 11.76 52.1641 10.22ZM61.7854 14.168C62.7514 14.168 63.6894 13.776 64.1794 12.978H64.2634L64.2774 14H65.5514L65.5234 12.446V9.212C65.5234 7.602 64.4454 6.552 62.5974 6.552C60.7774 6.552 59.6854 7.574 59.6294 8.988H60.8894C60.9594 8.232 61.4634 7.728 62.5974 7.728C63.6614 7.728 64.2074 8.302 64.2074 9.24V9.548L61.8554 9.744C60.2034 9.884 59.4194 10.724 59.4194 12.012C59.4194 13.286 60.3434 14.168 61.7854 14.168ZM60.7074 11.956C60.7074 11.34 61.1134 10.878 62.1074 10.78L64.1934 10.584C64.0814 12.278 63.0874 13.048 62.0094 13.048C61.1554 13.048 60.7074 12.614 60.7074 11.956ZM69.9886 14.168C71.8646 14.168 72.9006 13.258 72.9006 11.984C72.9006 10.822 72.2146 10.024 70.7866 9.828L69.3026 9.618C68.6726 9.534 68.2946 9.226 68.2946 8.708C68.2946 8.204 68.7006 7.756 69.7366 7.756C70.6606 7.756 71.1506 8.162 71.4306 8.876L72.6906 8.47C72.3266 7.294 71.3046 6.552 69.7366 6.552C67.9446 6.552 67.0206 7.546 67.0206 8.708C67.0206 9.94 67.7766 10.612 69.1346 10.794L70.6326 10.99C71.2626 11.074 71.6266 11.466 71.6266 11.984C71.6266 12.558 71.1646 12.964 69.9886 12.964C68.8686 12.964 68.3226 12.488 68.0706 11.62L66.7686 11.998C67.2026 13.356 68.1966 14.168 69.9886 14.168ZM81.0369 14.168C82.8009 14.168 84.0889 13.104 84.3129 11.55L83.0249 11.242C82.8149 12.25 82.2129 12.964 81.0369 12.964C79.6089 12.964 78.7969 11.97 78.7969 10.36C78.7969 8.75 79.6229 7.756 81.0369 7.756C82.2129 7.756 82.8429 8.47 83.0389 9.464L84.3269 9.254C84.0889 7.616 82.8009 6.552 81.0369 6.552C78.9789 6.552 77.4249 8.05 77.4249 10.36C77.4249 12.67 78.9649 14.168 81.0369 14.168ZM87.803 14.168C88.769 14.168 89.707 13.776 90.197 12.978H90.281L90.295 14H91.569L91.541 12.446V9.212C91.541 7.602 90.463 6.552 88.615 6.552C86.795 6.552 85.703 7.574 85.647 8.988H86.907C86.977 8.232 87.481 7.728 88.615 7.728C89.679 7.728 90.225 8.302 90.225 9.24V9.548L87.873 9.744C86.221 9.884 85.437 10.724 85.437 12.012C85.437 13.286 86.361 14.168 87.803 14.168ZM86.725 11.956C86.725 11.34 87.131 10.878 88.125 10.78L90.211 10.584C90.099 12.278 89.105 13.048 88.027 13.048C87.173 13.048 86.725 12.614 86.725 11.956ZM93.3882 16.8H94.7042V13.048H94.7882C95.3062 13.72 96.0482 14.168 97.1262 14.168C99.0022 14.168 100.388 12.656 100.388 10.36C100.388 8.064 99.0022 6.552 97.0842 6.552C96.0482 6.552 95.2782 7 94.7882 7.672H94.7042V6.72H93.3882V16.8ZM94.6622 10.36C94.6622 8.722 95.4882 7.756 96.8462 7.756C98.1622 7.756 99.0162 8.736 99.0162 10.36C99.0162 11.984 98.1622 12.964 96.8462 12.964C95.4882 12.964 94.6622 12.026 94.6622 10.36ZM104.353 14.028H105.669V12.824H104.535C104.003 12.824 103.765 12.6 103.765 12.096V7.868H105.529V6.72H103.765V4.732H102.449V6.72H101.091V7.868H102.449V12.222C102.449 13.342 103.107 14.028 104.353 14.028ZM112.915 6.72H111.599V10.36C111.599 12.208 110.801 12.964 109.625 12.964C108.701 12.964 108.127 12.376 108.127 11.158V6.72H106.811V11.41C106.811 13.16 107.833 14.168 109.387 14.168C110.311 14.168 110.997 13.804 111.515 13.132H111.599V14H112.915V6.72ZM114.88 14H116.196V10.626C116.196 8.806 117.036 7.896 118.394 7.896H118.996V6.552H118.59C117.4 6.552 116.672 7.14 116.28 7.896H116.196V6.72H114.88V14ZM123.144 14.168C124.796 14.168 125.846 13.412 126.308 12.096L125.09 11.676C124.712 12.53 124.138 12.964 123.144 12.964C121.884 12.964 121.1 12.11 120.974 10.738H126.49V10.346C126.49 7.91 125.118 6.552 123.158 6.552C121.142 6.552 119.63 8.092 119.63 10.36C119.63 12.67 121.086 14.168 123.144 14.168ZM121.016 9.66C121.254 8.372 122.122 7.756 123.158 7.756C124.292 7.756 125.02 8.582 125.104 9.66H121.016ZM134.456 14H135.814L139.02 3.92H137.676L134.456 14ZM142.662 14.028H143.978V12.824H142.844C142.312 12.824 142.074 12.6 142.074 12.096V7.868H143.838V6.72H142.074V4.732H140.758V6.72H139.4V7.868H140.758V12.222C140.758 13.342 141.416 14.028 142.662 14.028ZM148.259 14.168C149.911 14.168 150.961 13.412 151.423 12.096L150.205 11.676C149.827 12.53 149.253 12.964 148.259 12.964C146.999 12.964 146.215 12.11 146.089 10.738H151.605V10.346C151.605 7.91 150.233 6.552 148.273 6.552C146.257 6.552 144.745 8.092 144.745 10.36C144.745 12.67 146.201 14.168 148.259 14.168ZM146.131 9.66C146.369 8.372 147.237 7.756 148.273 7.756C149.407 7.756 150.135 8.582 150.219 9.66H146.131ZM156.506 14.168C158.27 14.168 159.558 13.104 159.782 11.55L158.494 11.242C158.284 12.25 157.682 12.964 156.506 12.964C155.078 12.964 154.266 11.97 154.266 10.36C154.266 8.75 155.092 7.756 156.506 7.756C157.682 7.756 158.312 8.47 158.508 9.464L159.796 9.254C159.558 7.616 158.27 6.552 156.506 6.552C154.448 6.552 152.894 8.05 152.894 10.36C152.894 12.67 154.434 14.168 156.506 14.168ZM161.242 14H162.558V10.36C162.558 8.512 163.356 7.756 164.532 7.756C165.456 7.756 166.03 8.344 166.03 9.576V14H167.346V9.324C167.346 7.56 166.324 6.552 164.77 6.552C163.846 6.552 163.16 6.916 162.642 7.588H162.558V3.92H161.242V14ZM169.199 14H170.515V10.36C170.515 8.512 171.313 7.756 172.489 7.756C173.413 7.756 173.987 8.344 173.987 9.562V14H175.303V9.31C175.303 7.56 174.281 6.552 172.727 6.552C171.803 6.552 171.117 6.916 170.599 7.588H170.515V6.72H169.199V14ZM180.376 14.168C182.448 14.168 183.946 12.67 183.946 10.36C183.946 8.05 182.448 6.552 180.376 6.552C178.29 6.552 176.806 8.05 176.806 10.36C176.806 12.67 178.29 14.168 180.376 14.168ZM178.178 10.36C178.178 8.75 178.934 7.756 180.376 7.756C181.79 7.756 182.574 8.75 182.574 10.36C182.574 11.97 181.79 12.964 180.376 12.964C178.934 12.964 178.178 11.97 178.178 10.36ZM185.55 14H186.866V3.92H185.55V14ZM192.052 14.168C194.124 14.168 195.622 12.67 195.622 10.36C195.622 8.05 194.124 6.552 192.052 6.552C189.966 6.552 188.482 8.05 188.482 10.36C188.482 12.67 189.966 14.168 192.052 14.168ZM189.854 10.36C189.854 8.75 190.61 7.756 192.052 7.756C193.466 7.756 194.25 8.75 194.25 10.36C194.25 11.97 193.466 12.964 192.052 12.964C190.61 12.964 189.854 11.97 189.854 10.36ZM200.446 16.968C202.546 16.968 203.876 15.778 203.876 13.958V6.72H202.56V7.672H202.476C201.93 6.958 201.146 6.552 200.18 6.552C198.262 6.552 196.876 8.05 196.876 10.22C196.876 12.404 198.22 13.888 200.138 13.888C201.146 13.888 201.986 13.454 202.476 12.768H202.56V13.888C202.56 15.008 201.804 15.792 200.446 15.792C199.2 15.792 198.556 15.302 198.318 14.476L197.002 14.868C197.366 16.086 198.472 16.968 200.446 16.968ZM198.248 10.22C198.248 8.68 199.102 7.756 200.418 7.756C201.706 7.756 202.602 8.666 202.602 10.22C202.602 11.802 201.706 12.684 200.418 12.684C199.102 12.684 198.248 11.76 198.248 10.22ZM206.777 16.8H208.121L212.223 6.72H210.809L208.681 12.194H208.541L206.385 6.72H204.943L207.925 14.084L206.777 16.8ZM211.785 14H213.143L216.349 3.92H215.005L211.785 14Z" fill="#B2BA9B"/>
<path d="M5.334 39.168C7.644 39.168 9.212 37.824 9.59 35.542L8.638 35.332C8.26 37.054 7.294 38.244 5.348 38.244C3.052 38.244 1.722 36.522 1.722 33.946C1.722 31.37 3.052 29.676 5.348 29.676C7.294 29.676 8.302 30.88 8.652 32.574L9.618 32.42C9.24 30.11 7.672 28.752 5.334 28.752C2.576 28.752 0.686 30.838 0.686 33.946C0.686 37.04 2.562 39.168 5.334 39.168ZM13.2095 39.168C14.3435 39.168 15.2395 38.748 15.7855 37.81H15.8415L15.8555 39H16.7795L16.7375 37.488V34.17C16.7375 32.616 15.6735 31.552 13.8815 31.552C12.0895 31.552 11.0955 32.602 11.0395 33.974H11.9495C12.0055 32.966 12.6775 32.42 13.8815 32.42C15.1695 32.42 15.7995 33.162 15.7995 34.156V34.59L13.2095 34.814C11.6555 34.94 10.8295 35.808 10.8295 37.026C10.8295 38.286 11.7395 39.168 13.2095 39.168ZM11.7675 37.012C11.7675 36.242 12.2715 35.682 13.3635 35.584L15.7995 35.374V35.388C15.7995 37.362 14.7495 38.328 13.3215 38.328C12.3275 38.328 11.7675 37.824 11.7675 37.012ZM18.645 41.8H19.583V37.908H19.653C20.157 38.636 20.969 39.168 22.145 39.168C24.133 39.168 25.491 37.642 25.491 35.36C25.491 33.078 24.133 31.552 22.131 31.552C20.969 31.552 20.143 32.084 19.653 32.812H19.583V31.72H18.645V41.8ZM19.555 35.36C19.555 33.582 20.423 32.42 22.033 32.42C23.573 32.42 24.483 33.554 24.483 35.36C24.483 37.166 23.573 38.3 22.033 38.3C20.423 38.3 19.555 37.152 19.555 35.36ZM29.3463 39.028H30.5643V38.146H29.4723C28.8703 38.146 28.5903 37.894 28.5903 37.306V32.574H30.4243V31.72H28.5903V29.732H27.6523V31.72H26.2243V32.574H27.6523V37.432C27.6523 38.426 28.2543 39.028 29.3463 39.028ZM37.6901 31.72H36.7521V35.22C36.7521 37.558 35.8281 38.314 34.4561 38.314C33.2801 38.314 32.6781 37.516 32.6781 36.074V31.72H31.7401V36.312C31.7401 38.09 32.7341 39.168 34.3721 39.168C35.3661 39.168 36.1641 38.762 36.6821 37.992H36.7521V39H37.6901V31.72ZM39.7408 39H40.6788V35.43C40.6788 33.498 41.4908 32.504 42.8908 32.504H43.6048V31.552H43.1148C41.8828 31.552 41.1688 32.112 40.7488 32.868H40.6788V31.72H39.7408V39ZM44.9224 39H45.8604V31.72H44.9224V39ZM44.7544 29.382C44.7544 29.718 45.0064 29.998 45.3984 29.998C45.7764 29.998 46.0284 29.718 46.0284 29.382C46.0284 29.032 45.7764 28.752 45.3984 28.752C45.0064 28.752 44.7544 29.032 44.7544 29.382ZM47.9029 39H48.8409V35.5C48.8409 33.162 49.7649 32.406 51.1369 32.406C52.3129 32.406 52.9149 33.204 52.9149 34.646V39H53.8529V34.408C53.8529 32.63 52.8589 31.552 51.2209 31.552C50.2269 31.552 49.4289 31.958 48.9109 32.728H48.8409V31.72H47.9029V39ZM58.9555 41.968C60.9715 41.968 62.3015 40.764 62.3015 38.986V31.72H61.3635V32.812H61.3075C60.7895 32.056 59.9495 31.552 58.8155 31.552C56.7575 31.552 55.4275 33.106 55.4275 35.248C55.4275 37.39 56.7295 38.944 58.8015 38.944C59.9495 38.944 60.8175 38.426 61.3075 37.67H61.3635V38.888C61.3635 40.204 60.4955 41.1 58.9555 41.1C57.4715 41.1 56.8135 40.54 56.5335 39.574L55.6095 39.854C55.9735 41.072 56.9395 41.968 58.9555 41.968ZM56.4215 35.248C56.4215 33.54 57.3315 32.42 58.9135 32.42C60.4675 32.42 61.3915 33.498 61.3915 35.248C61.3915 37.026 60.4675 38.076 58.9135 38.076C57.3315 38.076 56.4215 36.956 56.4215 35.248ZM67.8501 39H68.7881V35.108C68.7881 33.064 69.5861 32.406 70.7901 32.406C71.8401 32.406 72.4141 33.12 72.4141 34.38V39H73.3521V35.108C73.3521 33.064 74.1501 32.406 75.3541 32.406C76.4181 32.406 76.9781 33.12 76.9781 34.38V39H77.9161V34.114C77.9161 32.546 76.9221 31.552 75.4521 31.552C74.3881 31.552 73.6181 32.028 73.1421 32.854H73.0861C72.7641 32.098 72.0221 31.552 70.9021 31.552C69.9781 31.552 69.2921 31.944 68.8581 32.588H68.7881V31.72H67.8501V39ZM82.92 39.168C84.544 39.168 85.594 38.384 86.042 36.97L85.16 36.704C84.768 37.782 84.096 38.286 82.92 38.286C81.38 38.286 80.512 37.124 80.456 35.528H86.182V35.206C86.182 32.924 84.824 31.552 82.934 31.552C81.002 31.552 79.49 33.008 79.49 35.36C79.49 37.642 80.89 39.168 82.92 39.168ZM80.498 34.688C80.736 33.162 81.772 32.434 82.934 32.434C84.236 32.434 85.076 33.4 85.16 34.688H80.498ZM90.0631 39.028H91.2811V38.146H90.1891C89.5871 38.146 89.3071 37.894 89.3071 37.306V32.574H91.1411V31.72H89.3071V29.732H88.3691V31.72H86.9411V32.574H88.3691V37.432C88.3691 38.426 88.9711 39.028 90.0631 39.028ZM92.5689 39H93.5069V35.5C93.5069 33.162 94.4309 32.406 95.8029 32.406C96.9789 32.406 97.5809 33.204 97.5809 34.66V39H98.5189V34.408C98.5189 32.63 97.5249 31.552 95.8869 31.552C94.8929 31.552 94.0949 31.958 93.5769 32.742H93.5069V28.92H92.5689V39ZM102.46 39.168C103.594 39.168 104.49 38.748 105.036 37.81H105.092L105.106 39H106.03L105.988 37.488V34.17C105.988 32.616 104.924 31.552 103.132 31.552C101.34 31.552 100.346 32.602 100.29 33.974H101.2C101.256 32.966 101.928 32.42 103.132 32.42C104.42 32.42 105.05 33.162 105.05 34.156V34.59L102.46 34.814C100.906 34.94 100.08 35.808 100.08 37.026C100.08 38.286 100.99 39.168 102.46 39.168ZM101.018 37.012C101.018 36.242 101.522 35.682 102.614 35.584L105.05 35.374V35.388C105.05 37.362 104 38.328 102.572 38.328C101.578 38.328 101.018 37.824 101.018 37.012ZM107.895 39H108.833V35.5C108.833 33.162 109.757 32.406 111.129 32.406C112.305 32.406 112.907 33.204 112.907 34.646V39H113.845V34.408C113.845 32.63 112.851 31.552 111.213 31.552C110.219 31.552 109.421 31.958 108.903 32.728H108.833V31.72H107.895V39ZM118.85 39.168C120.474 39.168 121.524 38.384 121.972 36.97L121.09 36.704C120.698 37.782 120.026 38.286 118.85 38.286C117.31 38.286 116.442 37.124 116.386 35.528H122.112V35.206C122.112 32.924 120.754 31.552 118.864 31.552C116.932 31.552 115.42 33.008 115.42 35.36C115.42 37.642 116.82 39.168 118.85 39.168ZM116.428 34.688C116.666 33.162 117.702 32.434 118.864 32.434C120.166 32.434 121.006 33.4 121.09 34.688H116.428ZM130.487 41.968C132.503 41.968 133.833 40.764 133.833 38.986V31.72H132.895V32.812H132.839C132.321 32.056 131.481 31.552 130.347 31.552C128.289 31.552 126.959 33.106 126.959 35.248C126.959 37.39 128.261 38.944 130.333 38.944C131.481 38.944 132.349 38.426 132.839 37.67H132.895V38.888C132.895 40.204 132.027 41.1 130.487 41.1C129.003 41.1 128.345 40.54 128.065 39.574L127.141 39.854C127.505 41.072 128.471 41.968 130.487 41.968ZM127.953 35.248C127.953 33.54 128.863 32.42 130.445 32.42C131.999 32.42 132.923 33.498 132.923 35.248C132.923 37.026 131.999 38.076 130.445 38.076C128.863 38.076 127.953 36.956 127.953 35.248ZM137.883 39.168C139.017 39.168 139.913 38.748 140.459 37.81H140.515L140.529 39H141.453L141.411 37.488V34.17C141.411 32.616 140.347 31.552 138.555 31.552C136.763 31.552 135.769 32.602 135.713 33.974H136.623C136.679 32.966 137.351 32.42 138.555 32.42C139.843 32.42 140.473 33.162 140.473 34.156V34.59L137.883 34.814C136.329 34.94 135.503 35.808 135.503 37.026C135.503 38.286 136.413 39.168 137.883 39.168ZM136.441 37.012C136.441 36.242 136.945 35.682 138.037 35.584L140.473 35.374V35.388C140.473 37.362 139.423 38.328 137.995 38.328C137.001 38.328 136.441 37.824 136.441 37.012ZM145.881 39.168C147.785 39.168 148.709 38.23 148.709 37.026C148.709 35.836 148.051 35.094 146.623 34.912L145.111 34.702C144.397 34.618 143.949 34.24 143.949 33.61C143.949 32.966 144.453 32.434 145.615 32.434C146.693 32.434 147.295 32.91 147.617 33.834L148.513 33.568C148.149 32.322 147.155 31.552 145.615 31.552C143.879 31.552 143.025 32.532 143.025 33.61C143.025 34.744 143.753 35.416 144.971 35.584L146.511 35.78C147.379 35.878 147.785 36.368 147.785 37.026C147.785 37.754 147.169 38.286 145.881 38.286C144.677 38.286 144.019 37.74 143.711 36.704L142.773 36.956C143.207 38.398 144.243 39.168 145.881 39.168ZM153.71 39H154.648V35.43C154.648 33.498 155.46 32.504 156.86 32.504H157.574V31.552H157.084C155.852 31.552 155.138 32.112 154.718 32.868H154.648V31.72H153.71V39ZM161.588 39.168C163.212 39.168 164.262 38.384 164.71 36.97L163.828 36.704C163.436 37.782 162.764 38.286 161.588 38.286C160.048 38.286 159.18 37.124 159.124 35.528H164.85V35.206C164.85 32.924 163.492 31.552 161.602 31.552C159.67 31.552 158.158 33.008 158.158 35.36C158.158 37.642 159.558 39.168 161.588 39.168ZM159.166 34.688C159.404 33.162 160.44 32.434 161.602 32.434C162.904 32.434 163.744 33.4 163.828 34.688H159.166ZM166.561 39H167.499V28.92H166.561V39ZM172.608 39.168C174.232 39.168 175.282 38.384 175.73 36.97L174.848 36.704C174.456 37.782 173.784 38.286 172.608 38.286C171.068 38.286 170.2 37.124 170.144 35.528H175.87V35.206C175.87 32.924 174.512 31.552 172.622 31.552C170.69 31.552 169.178 33.008 169.178 35.36C169.178 37.642 170.578 39.168 172.608 39.168ZM170.186 34.688C170.424 33.162 171.46 32.434 172.622 32.434C173.924 32.434 174.764 33.4 174.848 34.688H170.186ZM179.583 39.168C180.717 39.168 181.613 38.748 182.159 37.81H182.215L182.229 39H183.153L183.111 37.488V34.17C183.111 32.616 182.047 31.552 180.255 31.552C178.463 31.552 177.469 32.602 177.413 33.974H178.323C178.379 32.966 179.051 32.42 180.255 32.42C181.543 32.42 182.173 33.162 182.173 34.156V34.59L179.583 34.814C178.029 34.94 177.203 35.808 177.203 37.026C177.203 38.286 178.113 39.168 179.583 39.168ZM178.141 37.012C178.141 36.242 178.645 35.682 179.737 35.584L182.173 35.374V35.388C182.173 37.362 181.123 38.328 179.695 38.328C178.701 38.328 178.141 37.824 178.141 37.012ZM187.58 39.168C189.484 39.168 190.408 38.23 190.408 37.026C190.408 35.836 189.75 35.094 188.322 34.912L186.81 34.702C186.096 34.618 185.648 34.24 185.648 33.61C185.648 32.966 186.152 32.434 187.314 32.434C188.392 32.434 188.994 32.91 189.316 33.834L190.212 33.568C189.848 32.322 188.854 31.552 187.314 31.552C185.578 31.552 184.724 32.532 184.724 33.61C184.724 34.744 185.452 35.416 186.67 35.584L188.21 35.78C189.078 35.878 189.484 36.368 189.484 37.026C189.484 37.754 188.868 38.286 187.58 38.286C186.376 38.286 185.718 37.74 185.41 36.704L184.472 36.956C184.906 38.398 185.942 39.168 187.58 39.168ZM194.975 39.168C196.599 39.168 197.649 38.384 198.097 36.97L197.215 36.704C196.823 37.782 196.151 38.286 194.975 38.286C193.435 38.286 192.567 37.124 192.511 35.528H198.237V35.206C198.237 32.924 196.879 31.552 194.989 31.552C193.057 31.552 191.545 33.008 191.545 35.36C191.545 37.642 192.945 39.168 194.975 39.168ZM192.553 34.688C192.791 33.162 193.827 32.434 194.989 32.434C196.291 32.434 197.131 33.4 197.215 34.688H192.553ZM202.944 39.168C204.106 39.168 204.932 38.636 205.436 37.908H205.492V39H206.43V28.92H205.492V32.812H205.436C204.918 32.084 204.106 31.552 202.93 31.552C200.956 31.552 199.584 33.078 199.584 35.36C199.584 37.642 200.956 39.168 202.944 39.168ZM200.592 35.36C200.592 33.554 201.516 32.42 203.056 32.42C204.652 32.42 205.52 33.568 205.52 35.36C205.52 37.138 204.652 38.3 203.056 38.3C201.516 38.3 200.592 37.166 200.592 35.36ZM4.508 56.168C6.51 56.168 7.868 54.642 7.868 52.36C7.868 50.078 6.51 48.552 4.522 48.552C3.346 48.552 2.534 49.084 2.03 49.812H1.96V45.92H1.022V56H1.96V54.908H2.03C2.52 55.636 3.346 56.168 4.508 56.168ZM1.932 52.36C1.932 50.568 2.8 49.42 4.41 49.42C5.95 49.42 6.86 50.554 6.86 52.36C6.86 54.166 5.95 55.3 4.41 55.3C2.8 55.3 1.932 54.138 1.932 52.36ZM10.2295 58.8H11.2515L15.3255 48.72H14.3175L11.9515 54.684H11.8395L9.48752 48.72H8.45152L11.3915 56.07L10.2295 58.8ZM19.9439 56H20.8819V45.92H19.9439V56ZM24.9263 56.168C26.0603 56.168 26.9563 55.748 27.5023 54.81H27.5583L27.5723 56H28.4963L28.4543 54.488V51.17C28.4543 49.616 27.3903 48.552 25.5983 48.552C23.8063 48.552 22.8123 49.602 22.7563 50.974H23.6663C23.7223 49.966 24.3943 49.42 25.5983 49.42C26.8863 49.42 27.5163 50.162 27.5163 51.156V51.59L24.9263 51.814C23.3723 51.94 22.5463 52.808 22.5463 54.026C22.5463 55.286 23.4563 56.168 24.9263 56.168ZM23.4843 54.012C23.4843 53.242 23.9883 52.682 25.0803 52.584L27.5163 52.374V52.388C27.5163 54.362 26.4663 55.328 25.0383 55.328C24.0443 55.328 23.4843 54.824 23.4843 54.012ZM30.3618 56H31.2998V52.5C31.2998 50.162 32.2238 49.406 33.5958 49.406C34.7718 49.406 35.3738 50.204 35.3738 51.646V56H36.3118V51.408C36.3118 49.63 35.3178 48.552 33.6798 48.552C32.6858 48.552 31.8878 48.958 31.3698 49.728H31.2998V48.72H30.3618V56ZM41.2465 56.168C42.4085 56.168 43.2345 55.636 43.7385 54.908H43.7945V56H44.7325V45.92H43.7945V49.812H43.7385C43.2205 49.084 42.4085 48.552 41.2325 48.552C39.2585 48.552 37.8865 50.078 37.8865 52.36C37.8865 54.642 39.2585 56.168 41.2465 56.168ZM38.8945 52.36C38.8945 50.554 39.8185 49.42 41.3585 49.42C42.9545 49.42 43.8225 50.568 43.8225 52.36C43.8225 54.138 42.9545 55.3 41.3585 55.3C39.8185 55.3 38.8945 54.166 38.8945 52.36ZM51.3318 56H52.2698V48.72H48.1958V47.432C48.1958 46.872 48.4618 46.634 49.0498 46.634H50.2258V45.752H48.9518C47.8738 45.752 47.2578 46.354 47.2578 47.334V48.72H45.8298V49.574H47.2578V56H48.1958V49.574H51.3318V56ZM54.315 56H55.253V45.92H54.315V56ZM57.2954 56H58.2334V45.92H57.2954V56ZM62.8379 56.168C64.7419 56.168 65.6659 55.23 65.6659 54.026C65.6659 52.836 65.0079 52.094 63.5799 51.912L62.0679 51.702C61.3539 51.618 60.9059 51.24 60.9059 50.61C60.9059 49.966 61.4099 49.434 62.5719 49.434C63.6499 49.434 64.2519 49.91 64.5739 50.834L65.4699 50.568C65.1059 49.322 64.1119 48.552 62.5719 48.552C60.8359 48.552 59.9819 49.532 59.9819 50.61C59.9819 51.744 60.7099 52.416 61.9279 52.584L63.4679 52.78C64.3359 52.878 64.7419 53.368 64.7419 54.026C64.7419 54.754 64.1259 55.286 62.8379 55.286C61.6339 55.286 60.9759 54.74 60.6679 53.704L59.7299 53.956C60.1639 55.398 61.1999 56.168 62.8379 56.168ZM76.5045 48.72H75.5665V52.22C75.5665 54.558 74.6425 55.314 73.2705 55.314C72.0945 55.314 71.4925 54.516 71.4925 53.074V48.72H70.5545V53.312C70.5545 55.09 71.5485 56.168 73.1865 56.168C74.1805 56.168 74.9785 55.762 75.4965 54.992H75.5665V56H76.5045V48.72ZM81.1172 56.168C83.0212 56.168 83.9452 55.23 83.9452 54.026C83.9452 52.836 83.2872 52.094 81.8592 51.912L80.3472 51.702C79.6332 51.618 79.1852 51.24 79.1852 50.61C79.1852 49.966 79.6892 49.434 80.8512 49.434C81.9292 49.434 82.5312 49.91 82.8532 50.834L83.7492 50.568C83.3852 49.322 82.3912 48.552 80.8512 48.552C79.1152 48.552 78.2612 49.532 78.2612 50.61C78.2612 51.744 78.9892 52.416 80.2072 52.584L81.7472 52.78C82.6152 52.878 83.0212 53.368 83.0212 54.026C83.0212 54.754 82.4052 55.286 81.1172 55.286C79.9132 55.286 79.2552 54.74 78.9472 53.704L78.0092 53.956C78.4432 55.398 79.4792 56.168 81.1172 56.168ZM85.4458 56H86.3838V48.72H85.4458V56ZM85.2778 46.382C85.2778 46.718 85.5298 46.998 85.9218 46.998C86.2998 46.998 86.5518 46.718 86.5518 46.382C86.5518 46.032 86.2998 45.752 85.9218 45.752C85.5298 45.752 85.2778 46.032 85.2778 46.382ZM88.4263 56H89.3643V52.5C89.3643 50.162 90.2883 49.406 91.6603 49.406C92.8363 49.406 93.4383 50.204 93.4383 51.646V56H94.3763V51.408C94.3763 49.63 93.3823 48.552 91.7443 48.552C90.7503 48.552 89.9523 48.958 89.4343 49.728H89.3643V48.72H88.4263V56ZM99.479 58.968C101.495 58.968 102.825 57.764 102.825 55.986V48.72H101.887V49.812H101.831C101.313 49.056 100.473 48.552 99.339 48.552C97.281 48.552 95.951 50.106 95.951 52.248C95.951 54.39 97.253 55.944 99.325 55.944C100.473 55.944 101.341 55.426 101.831 54.67H101.887V55.888C101.887 57.204 101.019 58.1 99.479 58.1C97.995 58.1 97.337 57.54 97.057 56.574L96.133 56.854C96.497 58.072 97.463 58.968 99.479 58.968ZM96.945 52.248C96.945 50.54 97.855 49.42 99.437 49.42C100.991 49.42 101.915 50.498 101.915 52.248C101.915 54.026 100.991 55.076 99.437 55.076C97.855 55.076 96.945 53.956 96.945 52.248ZM110.376 56.168C111.51 56.168 112.406 55.748 112.952 54.81H113.008L113.022 56H113.946L113.904 54.488V51.17C113.904 49.616 112.84 48.552 111.048 48.552C109.256 48.552 108.262 49.602 108.206 50.974H109.116C109.172 49.966 109.844 49.42 111.048 49.42C112.336 49.42 112.966 50.162 112.966 51.156V51.59L110.376 51.814C108.822 51.94 107.996 52.808 107.996 54.026C107.996 55.286 108.906 56.168 110.376 56.168ZM108.934 54.012C108.934 53.242 109.438 52.682 110.53 52.584L112.966 52.374V52.388C112.966 54.362 111.916 55.328 110.488 55.328C109.494 55.328 108.934 54.824 108.934 54.012ZM121.873 56.168C123.777 56.168 124.701 55.23 124.701 54.026C124.701 52.836 124.043 52.094 122.615 51.912L121.103 51.702C120.389 51.618 119.941 51.24 119.941 50.61C119.941 49.966 120.445 49.434 121.607 49.434C122.685 49.434 123.287 49.91 123.609 50.834L124.505 50.568C124.141 49.322 123.147 48.552 121.607 48.552C119.871 48.552 119.017 49.532 119.017 50.61C119.017 51.744 119.745 52.416 120.963 52.584L122.503 52.78C123.371 52.878 123.777 53.368 123.777 54.026C123.777 54.754 123.161 55.286 121.873 55.286C120.669 55.286 120.011 54.74 119.703 53.704L118.765 53.956C119.199 55.398 120.235 56.168 121.873 56.168ZM129.268 56.168C130.892 56.168 131.942 55.384 132.39 53.97L131.508 53.704C131.116 54.782 130.444 55.286 129.268 55.286C127.728 55.286 126.86 54.124 126.804 52.528H132.53V52.206C132.53 49.924 131.172 48.552 129.282 48.552C127.35 48.552 125.838 50.008 125.838 52.36C125.838 54.642 127.238 56.168 129.268 56.168ZM126.846 51.688C127.084 50.162 128.12 49.434 129.282 49.434C130.584 49.434 131.424 50.4 131.508 51.688H126.846ZM134.241 56H135.179V52.43C135.179 50.498 135.991 49.504 137.391 49.504H138.105V48.552H137.615C136.383 48.552 135.669 49.112 135.249 49.868H135.179V48.72H134.241V56ZM139.422 56H140.36V48.72H139.422V56ZM139.254 46.382C139.254 46.718 139.506 46.998 139.898 46.998C140.276 46.998 140.528 46.718 140.528 46.382C140.528 46.032 140.276 45.752 139.898 45.752C139.506 45.752 139.254 46.032 139.254 46.382ZM145.469 56.168C147.093 56.168 148.143 55.384 148.591 53.97L147.709 53.704C147.317 54.782 146.645 55.286 145.469 55.286C143.929 55.286 143.061 54.124 143.005 52.528H148.731V52.206C148.731 49.924 147.373 48.552 145.483 48.552C143.551 48.552 142.039 50.008 142.039 52.36C142.039 54.642 143.439 56.168 145.469 56.168ZM143.047 51.688C143.285 50.162 144.321 49.434 145.483 49.434C146.785 49.434 147.625 50.4 147.709 51.688H143.047ZM153.004 56.168C154.908 56.168 155.832 55.23 155.832 54.026C155.832 52.836 155.174 52.094 153.746 51.912L152.234 51.702C151.52 51.618 151.072 51.24 151.072 50.61C151.072 49.966 151.576 49.434 152.738 49.434C153.816 49.434 154.418 49.91 154.74 50.834L155.636 50.568C155.272 49.322 154.278 48.552 152.738 48.552C151.002 48.552 150.148 49.532 150.148 50.61C150.148 51.744 150.876 52.416 152.094 52.584L153.634 52.78C154.502 52.878 154.908 53.368 154.908 54.026C154.908 54.754 154.292 55.286 153.004 55.286C151.8 55.286 151.142 54.74 150.834 53.704L149.896 53.956C150.33 55.398 151.366 56.168 153.004 56.168ZM163.955 56.168C166.041 56.168 167.441 54.642 167.441 52.36C167.441 50.078 166.041 48.552 163.955 48.552C161.869 48.552 160.469 50.078 160.469 52.36C160.469 54.642 161.869 56.168 163.955 56.168ZM161.463 52.36C161.463 50.596 162.331 49.434 163.955 49.434C165.565 49.434 166.461 50.596 166.461 52.36C166.461 54.124 165.565 55.286 163.955 55.286C162.331 55.286 161.463 54.124 161.463 52.36ZM169.607 47.334V48.72H168.179V49.574H169.607V56H170.545V49.574H172.575V48.72H170.545V47.432C170.545 46.872 170.811 46.634 171.399 46.634H172.575V45.752H171.301C170.223 45.752 169.607 46.354 169.607 47.334ZM4.508 73.168C6.51 73.168 7.868 71.642 7.868 69.36C7.868 67.078 6.51 65.552 4.522 65.552C3.346 65.552 2.534 66.084 2.03 66.812H1.96V62.92H1.022V73H1.96V71.908H2.03C2.52 72.636 3.346 73.168 4.508 73.168ZM1.932 69.36C1.932 67.568 2.8 66.42 4.41 66.42C5.95 66.42 6.86 67.554 6.86 69.36C6.86 71.166 5.95 72.3 4.41 72.3C2.8 72.3 1.932 71.138 1.932 69.36ZM15.3913 65.72H14.4533V69.22C14.4533 71.558 13.5293 72.314 12.1573 72.314C10.9813 72.314 10.3792 71.516 10.3792 70.074V65.72H9.44125V70.312C9.44125 72.09 10.4353 73.168 12.0733 73.168C13.0673 73.168 13.8653 72.762 14.3833 71.992H14.4533V73H15.3913V65.72ZM17.4419 73H18.3799V69.43C18.3799 67.498 19.1919 66.504 20.5919 66.504H21.3059V65.552H20.8159C19.5839 65.552 18.8699 66.112 18.4499 66.868H18.3799V65.72H17.4419V73ZM22.6236 73H23.5616V65.72H22.6236V73ZM22.4556 63.382C22.4556 63.718 22.7076 63.998 23.0996 63.998C23.4776 63.998 23.7296 63.718 23.7296 63.382C23.7296 63.032 23.4776 62.752 23.0996 62.752C22.7076 62.752 22.4556 63.032 22.4556 63.382ZM28.67 73.168C30.294 73.168 31.344 72.384 31.792 70.97L30.91 70.704C30.518 71.782 29.846 72.286 28.67 72.286C27.13 72.286 26.262 71.124 26.206 69.528H31.932V69.206C31.932 66.924 30.574 65.552 28.684 65.552C26.752 65.552 25.24 67.008 25.24 69.36C25.24 71.642 26.64 73.168 28.67 73.168ZM26.248 68.688C26.486 67.162 27.522 66.434 28.684 66.434C29.986 66.434 30.826 67.4 30.91 68.688H26.248ZM36.6391 73.168C37.8011 73.168 38.6271 72.636 39.1311 71.908H39.1871V73H40.1251V62.92H39.1871V66.812H39.1311C38.6131 66.084 37.8011 65.552 36.6251 65.552C34.6511 65.552 33.2791 67.078 33.2791 69.36C33.2791 71.642 34.6511 73.168 36.6391 73.168ZM34.2871 69.36C34.2871 67.554 35.2111 66.42 36.7511 66.42C38.3471 66.42 39.2151 67.568 39.2151 69.36C39.2151 71.138 38.3471 72.3 36.7511 72.3C35.2111 72.3 34.2871 71.166 34.2871 69.36ZM45.6743 75.8H46.6123V71.908H46.6823C47.1863 72.636 47.9983 73.168 49.1743 73.168C51.1623 73.168 52.5203 71.642 52.5203 69.36C52.5203 67.078 51.1623 65.552 49.1603 65.552C47.9983 65.552 47.1723 66.084 46.6823 66.812H46.6123V65.72H45.6743V75.8ZM46.5843 69.36C46.5843 67.582 47.4523 66.42 49.0623 66.42C50.6023 66.42 51.5123 67.554 51.5123 69.36C51.5123 71.166 50.6023 72.3 49.0623 72.3C47.4523 72.3 46.5843 71.152 46.5843 69.36ZM54.2056 73H55.1436V65.72H54.2056V73ZM54.0376 63.382C54.0376 63.718 54.2896 63.998 54.6816 63.998C55.0596 63.998 55.3116 63.718 55.3116 63.382C55.3116 63.032 55.0596 62.752 54.6816 62.752C54.2896 62.752 54.0376 63.032 54.0376 63.382ZM57.1861 75.8H58.1241V71.908H58.1941C58.6981 72.636 59.5101 73.168 60.6861 73.168C62.6741 73.168 64.0321 71.642 64.0321 69.36C64.0321 67.078 62.6741 65.552 60.6721 65.552C59.5101 65.552 58.6841 66.084 58.1941 66.812H58.1241V65.72H57.1861V75.8ZM58.0961 69.36C58.0961 67.582 58.9641 66.42 60.5741 66.42C62.1141 66.42 63.0241 67.554 63.0241 69.36C63.0241 71.166 62.1141 72.3 60.5741 72.3C58.9641 72.3 58.0961 71.152 58.0961 69.36ZM68.7833 73.168C70.4073 73.168 71.4573 72.384 71.9053 70.97L71.0233 70.704C70.6313 71.782 69.9593 72.286 68.7833 72.286C67.2433 72.286 66.3753 71.124 66.3193 69.528H72.0453V69.206C72.0453 66.924 70.6873 65.552 68.7973 65.552C66.8653 65.552 65.3533 67.008 65.3533 69.36C65.3533 71.642 66.7533 73.168 68.7833 73.168ZM66.3613 68.688C66.5993 67.162 67.6353 66.434 68.7973 66.434C70.0993 66.434 70.9393 67.4 71.0233 68.688H66.3613ZM76.3184 73.168C78.2224 73.168 79.1464 72.23 79.1464 71.026C79.1464 69.836 78.4884 69.094 77.0604 68.912L75.5484 68.702C74.8344 68.618 74.3864 68.24 74.3864 67.61C74.3864 66.966 74.8904 66.434 76.0524 66.434C77.1304 66.434 77.7324 66.91 78.0544 67.834L78.9504 67.568C78.5864 66.322 77.5924 65.552 76.0524 65.552C74.3164 65.552 73.4624 66.532 73.4624 67.61C73.4624 68.744 74.1904 69.416 75.4084 69.584L76.9484 69.78C77.8164 69.878 78.2224 70.368 78.2224 71.026C78.2224 71.754 77.6064 72.286 76.3184 72.286C75.1144 72.286 74.4564 71.74 74.1484 70.704L73.2104 70.956C73.6444 72.398 74.6804 73.168 76.3184 73.168ZM86.149 73.168C87.283 73.168 88.179 72.748 88.725 71.81H88.781L88.795 73H89.719L89.677 71.488V68.17C89.677 66.616 88.613 65.552 86.821 65.552C85.029 65.552 84.035 66.602 83.979 67.974H84.889C84.945 66.966 85.617 66.42 86.821 66.42C88.109 66.42 88.739 67.162 88.739 68.156V68.59L86.149 68.814C84.595 68.94 83.769 69.808 83.769 71.026C83.769 72.286 84.679 73.168 86.149 73.168ZM84.707 71.012C84.707 70.242 85.211 69.682 86.303 69.584L88.739 69.374V69.388C88.739 71.362 87.689 72.328 86.261 72.328C85.267 72.328 84.707 71.824 84.707 71.012ZM91.5845 73H92.5225V69.5C92.5225 67.162 93.4465 66.406 94.8185 66.406C95.9945 66.406 96.5965 67.204 96.5965 68.646V73H97.5345V68.408C97.5345 66.63 96.5405 65.552 94.9025 65.552C93.9085 65.552 93.1105 65.958 92.5925 66.728H92.5225V65.72H91.5845V73ZM102.469 73.168C103.631 73.168 104.457 72.636 104.961 71.908H105.017V73H105.955V62.92H105.017V66.812H104.961C104.443 66.084 103.631 65.552 102.455 65.552C100.481 65.552 99.1092 67.078 99.1092 69.36C99.1092 71.642 100.481 73.168 102.469 73.168ZM100.117 69.36C100.117 67.554 101.041 66.42 102.581 66.42C104.177 66.42 105.045 67.568 105.045 69.36C105.045 71.138 104.177 72.3 102.581 72.3C101.041 72.3 100.117 71.166 100.117 69.36ZM111.504 75.8H112.442V71.908H112.512C113.016 72.636 113.828 73.168 115.004 73.168C116.992 73.168 118.35 71.642 118.35 69.36C118.35 67.078 116.992 65.552 114.99 65.552C113.828 65.552 113.002 66.084 112.512 66.812H112.442V65.72H111.504V75.8ZM112.414 69.36C112.414 67.582 113.282 66.42 114.892 66.42C116.432 66.42 117.342 67.554 117.342 69.36C117.342 71.166 116.432 72.3 114.892 72.3C113.282 72.3 112.414 71.152 112.414 69.36ZM120.036 73H120.974V69.43C120.974 67.498 121.786 66.504 123.186 66.504H123.9V65.552H123.41C122.178 65.552 121.464 66.112 121.044 66.868H120.974V65.72H120.036V73ZM127.97 73.168C130.056 73.168 131.456 71.642 131.456 69.36C131.456 67.078 130.056 65.552 127.97 65.552C125.884 65.552 124.484 67.078 124.484 69.36C124.484 71.642 125.884 73.168 127.97 73.168ZM125.478 69.36C125.478 67.596 126.346 66.434 127.97 66.434C129.58 66.434 130.476 67.596 130.476 69.36C130.476 71.124 129.58 72.286 127.97 72.286C126.346 72.286 125.478 71.124 125.478 69.36ZM136.283 73.168C138.047 73.168 139.293 72.118 139.531 70.494L138.607 70.312C138.369 71.53 137.641 72.286 136.283 72.286C134.729 72.286 133.777 71.124 133.777 69.36C133.777 67.596 134.729 66.434 136.283 66.434C137.613 66.434 138.383 67.19 138.607 68.408L139.531 68.268C139.293 66.602 138.005 65.552 136.283 65.552C134.253 65.552 132.783 67.064 132.783 69.36C132.783 71.642 134.225 73.168 136.283 73.168ZM144.061 73.168C145.685 73.168 146.735 72.384 147.183 70.97L146.301 70.704C145.909 71.782 145.237 72.286 144.061 72.286C142.521 72.286 141.653 71.124 141.597 69.528H147.323V69.206C147.323 66.924 145.965 65.552 144.075 65.552C142.143 65.552 140.631 67.008 140.631 69.36C140.631 71.642 142.031 73.168 144.061 73.168ZM141.639 68.688C141.877 67.162 142.913 66.434 144.075 66.434C145.377 66.434 146.217 67.4 146.301 68.688H141.639ZM151.596 73.168C153.5 73.168 154.424 72.23 154.424 71.026C154.424 69.836 153.766 69.094 152.338 68.912L150.826 68.702C150.112 68.618 149.664 68.24 149.664 67.61C149.664 66.966 150.168 66.434 151.33 66.434C152.408 66.434 153.01 66.91 153.332 67.834L154.228 67.568C153.864 66.322 152.87 65.552 151.33 65.552C149.594 65.552 148.74 66.532 148.74 67.61C148.74 68.744 149.468 69.416 150.686 69.584L152.226 69.78C153.094 69.878 153.5 70.368 153.5 71.026C153.5 71.754 152.884 72.286 151.596 72.286C150.392 72.286 149.734 71.74 149.426 70.704L148.488 70.956C148.922 72.398 149.958 73.168 151.596 73.168ZM158.486 73.168C160.39 73.168 161.314 72.23 161.314 71.026C161.314 69.836 160.656 69.094 159.228 68.912L157.716 68.702C157.002 68.618 156.554 68.24 156.554 67.61C156.554 66.966 157.058 66.434 158.22 66.434C159.298 66.434 159.9 66.91 160.222 67.834L161.118 67.568C160.754 66.322 159.76 65.552 158.22 65.552C156.484 65.552 155.63 66.532 155.63 67.61C155.63 68.744 156.358 69.416 157.576 69.584L159.116 69.78C159.984 69.878 160.39 70.368 160.39 71.026C160.39 71.754 159.774 72.286 158.486 72.286C157.282 72.286 156.624 71.74 156.316 70.704L155.378 70.956C155.812 72.398 156.848 73.168 158.486 73.168ZM162.815 73H163.753V65.72H162.815V73ZM162.647 63.382C162.647 63.718 162.899 63.998 163.291 63.998C163.669 63.998 163.921 63.718 163.921 63.382C163.921 63.032 163.669 62.752 163.291 62.752C162.899 62.752 162.647 63.032 162.647 63.382ZM165.795 73H166.733V69.5C166.733 67.162 167.657 66.406 169.029 66.406C170.205 66.406 170.807 67.204 170.807 68.646V73H171.745V68.408C171.745 66.63 170.751 65.552 169.113 65.552C168.119 65.552 167.321 65.958 166.803 66.728H166.733V65.72H165.795V73ZM176.848 75.968C178.864 75.968 180.194 74.764 180.194 72.986V65.72H179.256V66.812H179.2C178.682 66.056 177.842 65.552 176.708 65.552C174.65 65.552 173.32 67.106 173.32 69.248C173.32 71.39 174.622 72.944 176.694 72.944C177.842 72.944 178.71 72.426 179.2 71.67H179.256V72.888C179.256 74.204 178.388 75.1 176.848 75.1C175.364 75.1 174.706 74.54 174.426 73.574L173.502 73.854C173.866 75.072 174.832 75.968 176.848 75.968ZM174.314 69.248C174.314 67.54 175.224 66.42 176.806 66.42C178.36 66.42 179.284 67.498 179.284 69.248C179.284 71.026 178.36 72.076 176.806 72.076C175.224 72.076 174.314 70.956 174.314 69.248ZM4.088 90.168C5.712 90.168 6.762 89.384 7.21 87.97L6.328 87.704C5.936 88.782 5.264 89.286 4.088 89.286C2.548 89.286 1.68 88.124 1.624 86.528H7.35V86.206C7.35 83.924 5.992 82.552 4.102 82.552C2.17 82.552 0.658 84.008 0.658 86.36C0.658 88.642 2.058 90.168 4.088 90.168ZM1.666 85.688C1.904 84.162 2.94 83.434 4.102 83.434C5.404 83.434 6.244 84.4 6.328 85.688H1.666ZM14.6051 92.8H15.5431V82.72H14.6051V83.812H14.5491C14.0451 83.084 13.2191 82.552 12.0571 82.552C10.0691 82.552 8.69706 84.078 8.69706 86.36C8.69706 88.642 10.0691 90.168 12.0431 90.168C13.2191 90.168 14.0311 89.636 14.5491 88.908H14.6051V92.8ZM9.70506 86.36C9.70506 84.554 10.6291 83.42 12.1691 83.42C13.7651 83.42 14.6331 84.582 14.6331 86.36C14.6331 88.152 13.7651 89.3 12.1691 89.3C10.6291 89.3 9.70506 88.166 9.70506 86.36ZM23.4303 82.72H22.4923V86.22C22.4923 88.558 21.5683 89.314 20.1963 89.314C19.0203 89.314 18.4183 88.516 18.4183 87.074V82.72H17.4803V87.312C17.4803 89.09 18.4743 90.168 20.1123 90.168C21.1063 90.168 21.9043 89.762 22.4223 88.992H22.4923V90H23.4303V82.72ZM25.481 90H26.419V82.72H25.481V90ZM25.313 80.382C25.313 80.718 25.565 80.998 25.957 80.998C26.335 80.998 26.587 80.718 26.587 80.382C26.587 80.032 26.335 79.752 25.957 79.752C25.565 79.752 25.313 80.032 25.313 80.382ZM28.4615 92.8H29.3995V88.908H29.4695C29.9735 89.636 30.7855 90.168 31.9615 90.168C33.9495 90.168 35.3075 88.642 35.3075 86.36C35.3075 84.078 33.9495 82.552 31.9475 82.552C30.7855 82.552 29.9595 83.084 29.4695 83.812H29.3995V82.72H28.4615V92.8ZM29.3715 86.36C29.3715 84.582 30.2395 83.42 31.8495 83.42C33.3895 83.42 34.2995 84.554 34.2995 86.36C34.2995 88.166 33.3895 89.3 31.8495 89.3C30.2395 89.3 29.3715 88.152 29.3715 86.36ZM36.9927 90H37.9307V86.108C37.9307 84.064 38.7287 83.406 39.9327 83.406C40.9827 83.406 41.5567 84.12 41.5567 85.38V90H42.4947V86.108C42.4947 84.064 43.2927 83.406 44.4967 83.406C45.5607 83.406 46.1207 84.12 46.1207 85.38V90H47.0587V85.114C47.0587 83.546 46.0647 82.552 44.5947 82.552C43.5307 82.552 42.7607 83.028 42.2847 83.854H42.2287C41.9067 83.098 41.1647 82.552 40.0447 82.552C39.1207 82.552 38.4347 82.944 38.0007 83.588H37.9307V82.72H36.9927V90ZM52.0626 90.168C53.6866 90.168 54.7366 89.384 55.1846 87.97L54.3026 87.704C53.9106 88.782 53.2386 89.286 52.0626 89.286C50.5226 89.286 49.6546 88.124 49.5986 86.528H55.3246V86.206C55.3246 83.924 53.9666 82.552 52.0766 82.552C50.1446 82.552 48.6326 84.008 48.6326 86.36C48.6326 88.642 50.0326 90.168 52.0626 90.168ZM49.6406 85.688C49.8786 84.162 50.9146 83.434 52.0766 83.434C53.3786 83.434 54.2186 84.4 54.3026 85.688H49.6406ZM57.0357 90H57.9737V86.5C57.9737 84.162 58.8977 83.406 60.2697 83.406C61.4457 83.406 62.0477 84.204 62.0477 85.646V90H62.9857V85.408C62.9857 83.63 61.9917 82.552 60.3537 82.552C59.3597 82.552 58.5617 82.958 58.0437 83.728H57.9737V82.72H57.0357V90ZM67.0943 90.028H68.3123V89.146H67.2203C66.6183 89.146 66.3383 88.894 66.3383 88.306V83.574H68.1723V82.72H66.3383V80.732H65.4003V82.72H63.9723V83.574H65.4003V88.432C65.4003 89.426 66.0023 90.028 67.0943 90.028ZM69.8876 89.454C69.8876 89.86 70.1816 90.168 70.6016 90.168C71.0216 90.168 71.3156 89.86 71.3156 89.454C71.3156 89.076 71.0216 88.768 70.6016 88.768C70.1816 88.768 69.8876 89.076 69.8876 89.454Z" fill="#B2BA9B"/>
</svg>
