<svg width="104" height="104" viewBox="0 0 104 104" fill="none" xmlns="http://www.w3.org/2000/svg">
<circle cx="52" cy="52" r="51.35" fill="white" stroke="#DBDBDB" stroke-width="1.3"/>
<path fill-rule="evenodd" clip-rule="evenodd" d="M20 51.9999C20 34.3263 34.3315 20 52 20C69.6747 20 84 34.3263 84 51.9999C84 69.6737 69.6683 84 52 84C34.3315 84 20 69.6737 20 51.9999ZM64.1774 71.9952C65.9097 68.6542 68.6584 65.903 72.0016 64.1714C76.3994 61.895 79.4038 57.2969 79.4038 51.9999C79.4038 46.7029 76.3994 42.105 72.0016 39.8284C68.6584 38.097 65.9097 35.3458 64.1774 32.0048C61.9017 27.6057 57.3057 24.5979 52.0064 24.5979C46.7071 24.5979 42.1175 27.6057 39.8354 32.0048C38.1031 35.3458 35.3544 38.097 32.0112 39.8284C27.6132 42.105 24.6088 46.7029 24.6088 51.9999C24.6088 57.2969 27.6132 61.895 32.0112 64.1714C35.3544 65.903 38.1031 68.6542 39.8354 71.9952C42.1111 76.3943 46.7071 79.4019 52.0064 79.4019C57.3057 79.4019 61.8953 76.3943 64.1774 71.9952Z" fill="#161814"/>
</svg>
