<svg width="319" height="207" viewBox="0 0 319 207" fill="none" xmlns="http://www.w3.org/2000/svg">
<path d="M129.908 236.504L129.908 200.668C129.908 182.811 144.384 168.335 162.241 168.335L188 168.335" stroke="#535450"/>
<path d="M100.7 236.504L100.7 203.766C100.7 168.052 129.653 139.1 165.367 139.1L188 139.1" stroke="#535450"/>
<path d="M71.6007 236.504L71.6007 198.916C71.6006 149.809 111.41 110 160.517 110L188 110" stroke="#535450"/>
<rect x="198" y="98" width="87.75" height="22" rx="4" fill="white"/>
<path d="M208.611 112.096C207.243 112.096 206.491 111.488 206.195 110.392L207.003 110.216C207.203 111.008 207.747 111.36 208.611 111.36C209.499 111.36 209.995 110.992 209.995 110.432C209.995 109.904 209.627 109.592 209.051 109.528L207.947 109.4C206.867 109.272 206.323 108.664 206.323 107.784C206.323 106.8 207.147 106.144 208.387 106.144C209.539 106.144 210.379 106.688 210.635 107.704L209.835 107.896C209.635 107.24 209.131 106.88 208.387 106.88C207.587 106.88 207.131 107.224 207.131 107.768C207.131 108.256 207.451 108.536 208.075 108.608L209.147 108.736C210.203 108.864 210.803 109.48 210.803 110.432C210.803 111.448 209.995 112.096 208.611 112.096ZM212.81 112.096C211.986 112.096 211.458 111.592 211.458 110.864C211.458 110.128 211.906 109.648 212.85 109.568L214.194 109.456V109.28C214.194 108.744 213.882 108.416 213.274 108.416C212.626 108.416 212.338 108.704 212.298 109.136H211.578C211.61 108.328 212.234 107.744 213.274 107.744C214.33 107.744 214.946 108.344 214.946 109.264V111.112L214.962 112H214.234L214.226 111.416H214.178C213.898 111.872 213.362 112.096 212.81 112.096ZM212.194 110.832C212.194 111.208 212.45 111.456 212.938 111.456C213.554 111.456 214.122 111.016 214.186 110.048L212.994 110.16C212.426 110.216 212.194 110.48 212.194 110.832ZM215.842 112V106.24H216.594V112H215.842ZM219.365 112.096C218.189 112.096 217.357 111.24 217.357 109.92C217.357 108.624 218.221 107.744 219.373 107.744C220.493 107.744 221.277 108.52 221.277 109.912V110.136H218.125C218.197 110.92 218.645 111.408 219.365 111.408C219.933 111.408 220.261 111.16 220.477 110.672L221.173 110.912C220.909 111.664 220.309 112.096 219.365 112.096ZM218.149 109.52H220.485C220.437 108.904 220.021 108.432 219.373 108.432C218.781 108.432 218.285 108.784 218.149 109.52ZM223.893 112V107.84H224.645V108.312H224.693C224.965 107.944 225.317 107.744 225.837 107.744C226.421 107.744 226.845 108 227.061 108.432H227.101C227.397 107.984 227.797 107.744 228.397 107.744C229.229 107.744 229.813 108.32 229.813 109.224V112H229.061V109.408C229.061 108.768 228.765 108.432 228.261 108.432C227.629 108.432 227.229 108.832 227.229 109.792V112H226.477V109.408C226.477 108.768 226.181 108.432 225.677 108.432C225.045 108.432 224.645 108.832 224.645 109.792V112H223.893ZM231.869 112.096C231.045 112.096 230.517 111.592 230.517 110.864C230.517 110.128 230.965 109.648 231.909 109.568L233.253 109.456V109.28C233.253 108.744 232.941 108.416 232.333 108.416C231.685 108.416 231.397 108.704 231.357 109.136H230.637C230.669 108.328 231.293 107.744 232.333 107.744C233.389 107.744 234.005 108.344 234.005 109.264V111.112L234.021 112H233.293L233.285 111.416H233.237C232.957 111.872 232.421 112.096 231.869 112.096ZM231.253 110.832C231.253 111.208 231.509 111.456 231.997 111.456C232.613 111.456 233.181 111.016 233.245 110.048L232.053 110.16C231.485 110.216 231.253 110.48 231.253 110.832ZM234.901 112V107.84H235.653V108.512H235.701C235.925 108.08 236.341 107.744 237.021 107.744H237.253V108.512H236.909C236.133 108.512 235.653 109.032 235.653 110.072V112H234.901ZM237.811 112V106.24H238.563V109.936H238.611L240.403 107.84H241.355L239.747 109.672L241.475 112H240.523L239.267 110.208L238.563 111.016V112H237.811ZM243.334 112.096C242.158 112.096 241.326 111.24 241.326 109.92C241.326 108.624 242.19 107.744 243.342 107.744C244.462 107.744 245.246 108.52 245.246 109.912V110.136H242.094C242.166 110.92 242.614 111.408 243.334 111.408C243.902 111.408 244.23 111.16 244.446 110.672L245.142 110.912C244.878 111.664 244.278 112.096 243.334 112.096ZM242.118 109.52H244.454C244.406 108.904 243.99 108.432 243.342 108.432C242.75 108.432 242.254 108.784 242.118 109.52ZM247.711 112.096C246.615 112.096 245.823 111.232 245.823 109.92C245.823 108.608 246.615 107.744 247.687 107.744C248.303 107.744 248.727 108 249.023 108.384H249.071V106.24H249.823V112H249.071V111.456H249.023C248.743 111.84 248.303 112.096 247.711 112.096ZM246.607 109.92C246.607 110.848 247.095 111.408 247.847 111.408C248.623 111.408 249.095 110.856 249.095 109.92C249.095 108.968 248.623 108.432 247.847 108.432C247.095 108.432 246.607 108.992 246.607 109.92ZM253.784 112.096C252.96 112.096 252.432 111.592 252.432 110.864C252.432 110.128 252.88 109.648 253.824 109.568L255.168 109.456V109.28C255.168 108.744 254.856 108.416 254.248 108.416C253.6 108.416 253.312 108.704 253.272 109.136H252.552C252.584 108.328 253.208 107.744 254.248 107.744C255.304 107.744 255.92 108.344 255.92 109.264V111.112L255.936 112H255.208L255.2 111.416H255.152C254.872 111.872 254.336 112.096 253.784 112.096ZM253.168 110.832C253.168 111.208 253.424 111.456 253.912 111.456C254.528 111.456 255.096 111.016 255.16 110.048L253.968 110.16C253.4 110.216 253.168 110.48 253.168 110.832ZM258.312 112.096C257.288 112.096 256.72 111.632 256.472 110.856L257.216 110.64C257.36 111.136 257.672 111.408 258.312 111.408C258.984 111.408 259.248 111.176 259.248 110.848C259.248 110.552 259.04 110.328 258.68 110.28L257.824 110.168C257.048 110.064 256.616 109.68 256.616 108.976C256.616 108.312 257.144 107.744 258.168 107.744C259.064 107.744 259.648 108.168 259.856 108.84L259.136 109.072C258.976 108.664 258.696 108.432 258.168 108.432C257.576 108.432 257.344 108.688 257.344 108.976C257.344 109.272 257.56 109.448 257.92 109.496L258.768 109.616C259.584 109.728 259.976 110.184 259.976 110.848C259.976 111.576 259.384 112.096 258.312 112.096ZM263.145 112L261.929 107.84H262.721L263.617 111.064H263.697L264.625 107.84H265.553L266.465 111.064H266.537L267.457 107.84H268.233L267.009 112H266.017L265.105 108.896H265.041L264.137 112H263.145ZM270.52 112.096C269.328 112.096 268.48 111.24 268.48 109.92C268.48 108.6 269.328 107.744 270.52 107.744C271.704 107.744 272.56 108.6 272.56 109.92C272.56 111.24 271.704 112.096 270.52 112.096ZM269.264 109.92C269.264 110.84 269.696 111.408 270.52 111.408C271.328 111.408 271.776 110.84 271.776 109.92C271.776 109 271.328 108.432 270.52 108.432C269.696 108.432 269.264 109 269.264 109.92ZM273.317 112V107.84H274.069V108.336H274.117C274.413 107.952 274.805 107.744 275.333 107.744C276.221 107.744 276.805 108.32 276.805 109.32V112H276.053V109.464C276.053 108.768 275.725 108.432 275.197 108.432C274.525 108.432 274.069 108.864 274.069 109.92V112H273.317Z" fill="#161814"/>
<rect x="198" y="128" width="87.75" height="22" rx="4" fill="white"/>
<path d="M209.967 142V136.24H212.503C213.615 136.24 214.351 136.904 214.351 137.928C214.351 138.944 213.615 139.616 212.463 139.616H210.751V142H209.967ZM210.751 138.896H212.439C213.111 138.896 213.519 138.56 213.519 137.928C213.519 137.28 213.119 136.96 212.471 136.96H210.751V138.896ZM216.021 142.096C215.197 142.096 214.669 141.592 214.669 140.864C214.669 140.128 215.117 139.648 216.061 139.568L217.405 139.456V139.28C217.405 138.744 217.093 138.416 216.485 138.416C215.837 138.416 215.549 138.704 215.509 139.136H214.789C214.821 138.328 215.445 137.744 216.485 137.744C217.541 137.744 218.157 138.344 218.157 139.264V141.112L218.173 142H217.445L217.437 141.416H217.389C217.109 141.872 216.573 142.096 216.021 142.096ZM215.405 140.832C215.405 141.208 215.661 141.456 216.149 141.456C216.765 141.456 217.333 141.016 217.397 140.048L216.205 140.16C215.637 140.216 215.405 140.48 215.405 140.832ZM219.526 143.6L220.182 142.048L218.478 137.84H219.302L220.534 140.968H220.614L221.83 137.84H222.638L220.294 143.6H219.526ZM223.088 142V137.84H223.84V138.312H223.888C224.16 137.944 224.512 137.744 225.032 137.744C225.616 137.744 226.04 138 226.256 138.432H226.296C226.592 137.984 226.992 137.744 227.592 137.744C228.424 137.744 229.008 138.32 229.008 139.224V142H228.256V139.408C228.256 138.768 227.96 138.432 227.456 138.432C226.824 138.432 226.424 138.832 226.424 139.792V142H225.672V139.408C225.672 138.768 225.376 138.432 224.872 138.432C224.24 138.432 223.84 138.832 223.84 139.792V142H223.088ZM231.712 142.096C230.536 142.096 229.704 141.24 229.704 139.92C229.704 138.624 230.568 137.744 231.72 137.744C232.84 137.744 233.624 138.52 233.624 139.912V140.136H230.472C230.544 140.92 230.992 141.408 231.712 141.408C232.28 141.408 232.608 141.16 232.824 140.672L233.52 140.912C233.256 141.664 232.656 142.096 231.712 142.096ZM230.496 139.52H232.832C232.784 138.904 232.368 138.432 231.72 138.432C231.128 138.432 230.632 138.784 230.496 139.52ZM234.401 142V137.84H235.153V138.336H235.201C235.497 137.952 235.889 137.744 236.417 137.744C237.305 137.744 237.889 138.32 237.889 139.32V142H237.137V139.464C237.137 138.768 236.809 138.432 236.281 138.432C235.609 138.432 235.153 138.864 235.153 139.92V142H234.401ZM240.132 142.016C239.42 142.016 239.044 141.624 239.044 140.984V138.496H238.268V137.84H239.044V136.704H239.796V137.84H240.804V138.496H239.796V140.912C239.796 141.2 239.932 141.328 240.236 141.328H240.884V142.016H240.132ZM243.28 142V137.84H244.032V138.512H244.08C244.304 138.08 244.72 137.744 245.4 137.744H245.632V138.512H245.288C244.512 138.512 244.032 139.032 244.032 140.072V142H243.28ZM247.842 142.096C246.666 142.096 245.834 141.24 245.834 139.92C245.834 138.624 246.698 137.744 247.85 137.744C248.97 137.744 249.754 138.52 249.754 139.912V140.136H246.602C246.674 140.92 247.122 141.408 247.842 141.408C248.41 141.408 248.738 141.16 248.954 140.672L249.65 140.912C249.386 141.664 248.786 142.096 247.842 142.096ZM246.626 139.52H248.962C248.914 138.904 248.498 138.432 247.85 138.432C247.258 138.432 246.762 138.784 246.626 139.52ZM252.394 142.096C251.21 142.096 250.33 141.24 250.33 139.92C250.33 138.6 251.218 137.744 252.394 137.744C253.402 137.744 254.138 138.352 254.274 139.288L253.538 139.408C253.426 138.84 253.066 138.432 252.394 138.432C251.586 138.432 251.114 139 251.114 139.92C251.114 140.84 251.578 141.408 252.394 141.408C253.066 141.408 253.41 141 253.53 140.424L254.266 140.6C254.138 141.488 253.402 142.096 252.394 142.096ZM256.749 142.096C255.573 142.096 254.741 141.24 254.741 139.92C254.741 138.624 255.605 137.744 256.757 137.744C257.877 137.744 258.661 138.52 258.661 139.912V140.136H255.509C255.581 140.92 256.029 141.408 256.749 141.408C257.317 141.408 257.645 141.16 257.861 140.672L258.557 140.912C258.293 141.664 257.693 142.096 256.749 142.096ZM255.533 139.52H257.869C257.821 138.904 257.405 138.432 256.757 138.432C256.165 138.432 255.669 138.784 255.533 139.52ZM259.437 142V137.84H260.189V142H259.437ZM259.349 136.6C259.349 136.336 259.533 136.144 259.813 136.144C260.093 136.144 260.277 136.336 260.277 136.6C260.277 136.856 260.093 137.056 259.813 137.056C259.533 137.056 259.349 136.856 259.349 136.6ZM262.224 142L260.64 137.84H261.48L262.648 141.088H262.744L263.912 137.84H264.72L263.136 142H262.224ZM266.901 142.096C265.725 142.096 264.893 141.24 264.893 139.92C264.893 138.624 265.757 137.744 266.909 137.744C268.029 137.744 268.813 138.52 268.813 139.912V140.136H265.661C265.733 140.92 266.181 141.408 266.901 141.408C267.469 141.408 267.797 141.16 268.013 140.672L268.709 140.912C268.445 141.664 267.845 142.096 266.901 142.096ZM265.685 139.52H268.021C267.973 138.904 267.557 138.432 266.909 138.432C266.317 138.432 265.821 138.784 265.685 139.52ZM271.278 142.096C270.182 142.096 269.39 141.232 269.39 139.92C269.39 138.608 270.182 137.744 271.254 137.744C271.87 137.744 272.294 138 272.59 138.384H272.638V136.24H273.39V142H272.638V141.456H272.59C272.31 141.84 271.87 142.096 271.278 142.096ZM270.174 139.92C270.174 140.848 270.662 141.408 271.414 141.408C272.19 141.408 272.662 140.856 272.662 139.92C272.662 138.968 272.19 138.432 271.414 138.432C270.662 138.432 270.174 138.992 270.174 139.92Z" fill="#161814"/>
<rect x="198" y="158" width="87.75" height="22" rx="4" fill="white"/>
<path d="M212.015 172V171.28H213.599V168H212.191V167.36H212.583C213.327 167.36 213.663 167.048 213.815 166.432H214.367V171.28H215.839V172H212.015ZM216.928 171.144H217.752L217.144 173.208H216.552L216.928 171.144ZM220.488 172.096C219.432 172.096 218.624 171.528 218.488 170.544H219.28C219.424 171.056 219.872 171.384 220.488 171.384C221.264 171.384 221.72 170.88 221.72 170.128C221.72 169.4 221.288 168.888 220.52 168.888C219.968 168.888 219.576 169.152 219.344 169.464L218.656 169.352L218.928 166.432H222.16V167.152H219.584L219.424 168.64H219.472C219.752 168.344 220.16 168.176 220.632 168.176C221.752 168.176 222.52 168.984 222.52 170.12C222.52 171.248 221.72 172.096 220.488 172.096ZM225.297 172.096C224.113 172.096 223.209 171.176 223.209 169.216C223.209 167.248 224.113 166.336 225.297 166.336C226.481 166.336 227.385 167.248 227.385 169.216C227.385 171.176 226.481 172.096 225.297 172.096ZM224.009 169.216C224.009 170.688 224.497 171.384 225.297 171.384C226.097 171.384 226.585 170.688 226.585 169.216C226.585 167.736 226.097 167.048 225.297 167.048C224.497 167.048 224.009 167.736 224.009 169.216ZM230.098 172.096C228.914 172.096 228.01 171.176 228.01 169.216C228.01 167.248 228.914 166.336 230.098 166.336C231.282 166.336 232.186 167.248 232.186 169.216C232.186 171.176 231.282 172.096 230.098 172.096ZM228.81 169.216C228.81 170.688 229.298 171.384 230.098 171.384C230.898 171.384 231.386 170.688 231.386 169.216C231.386 167.736 230.898 167.048 230.098 167.048C229.298 167.048 228.81 167.736 228.81 169.216ZM236.163 172.016C235.451 172.016 235.075 171.624 235.075 170.984V168.496H234.299V167.84H235.075V166.704H235.827V167.84H236.835V168.496H235.827V170.912C235.827 171.2 235.963 171.328 236.267 171.328H236.915V172.016H236.163ZM240.999 172.096C239.903 172.096 239.111 171.232 239.111 169.92C239.111 168.608 239.903 167.744 240.975 167.744C241.591 167.744 242.015 168 242.311 168.384H242.359V166.24H243.111V172H242.359V171.456H242.311C242.031 171.84 241.591 172.096 240.999 172.096ZM239.895 169.92C239.895 170.848 240.383 171.408 241.135 171.408C241.911 171.408 242.383 170.856 242.383 169.92C242.383 168.968 241.911 168.432 241.135 168.432C240.383 168.432 239.895 168.992 239.895 169.92ZM245.881 172.096C244.705 172.096 243.873 171.24 243.873 169.92C243.873 168.624 244.737 167.744 245.889 167.744C247.009 167.744 247.793 168.52 247.793 169.912V170.136H244.641C244.713 170.92 245.161 171.408 245.881 171.408C246.449 171.408 246.777 171.16 246.993 170.672L247.689 170.912C247.425 171.664 246.825 172.096 245.881 172.096ZM244.665 169.52H247.001C246.953 168.904 246.537 168.432 245.889 168.432C245.297 168.432 244.801 168.784 244.665 169.52ZM248.569 172V166.24H249.321V172H248.569ZM250.284 172V167.84H251.036V172H250.284ZM250.196 166.6C250.196 166.336 250.38 166.144 250.66 166.144C250.94 166.144 251.124 166.336 251.124 166.6C251.124 166.856 250.94 167.056 250.66 167.056C250.38 167.056 250.196 166.856 250.196 166.6ZM253.071 172L251.487 167.84H252.327L253.495 171.088H253.591L254.759 167.84H255.567L253.983 172H253.071ZM257.749 172.096C256.573 172.096 255.741 171.24 255.741 169.92C255.741 168.624 256.605 167.744 257.757 167.744C258.877 167.744 259.661 168.52 259.661 169.912V170.136H256.509C256.581 170.92 257.029 171.408 257.749 171.408C258.317 171.408 258.645 171.16 258.861 170.672L259.557 170.912C259.293 171.664 258.693 172.096 257.749 172.096ZM256.533 169.52H258.869C258.821 168.904 258.405 168.432 257.757 168.432C257.165 168.432 256.669 168.784 256.533 169.52ZM260.437 172V167.84H261.189V168.512H261.237C261.461 168.08 261.877 167.744 262.557 167.744H262.789V168.512H262.445C261.669 168.512 261.189 169.032 261.189 170.072V172H260.437ZM264.999 172.096C263.823 172.096 262.991 171.24 262.991 169.92C262.991 168.624 263.855 167.744 265.007 167.744C266.127 167.744 266.911 168.52 266.911 169.912V170.136H263.759C263.831 170.92 264.279 171.408 264.999 171.408C265.567 171.408 265.895 171.16 266.111 170.672L266.807 170.912C266.543 171.664 265.943 172.096 264.999 172.096ZM263.783 169.52H266.119C266.071 168.904 265.655 168.432 265.007 168.432C264.415 168.432 263.919 168.784 263.783 169.52ZM269.376 172.096C268.28 172.096 267.488 171.232 267.488 169.92C267.488 168.608 268.28 167.744 269.352 167.744C269.968 167.744 270.392 168 270.688 168.384H270.736V166.24H271.488V172H270.736V171.456H270.688C270.408 171.84 269.968 172.096 269.376 172.096ZM268.272 169.92C268.272 170.848 268.76 171.408 269.512 171.408C270.288 171.408 270.76 170.856 270.76 169.92C270.76 168.968 270.288 168.432 269.512 168.432C268.76 168.432 268.272 168.992 268.272 169.92Z" fill="#161814"/>
<rect x="296.25" y="98" width="22" height="22" rx="11" fill="#5B663D"/>
<path d="M309.25 107.5L306.248 110.5L304.75 109" stroke="white" stroke-width="0.5" stroke-linecap="square"/>
<path d="M307.25 114C310.011 114 312.25 111.761 312.25 109C312.25 106.239 310.011 104 307.25 104C304.489 104 302.25 106.239 302.25 109C302.25 111.761 304.489 114 307.25 114Z" stroke="white" stroke-width="0.5" stroke-linecap="round" stroke-linejoin="round"/>
<rect x="296.25" y="128" width="22" height="22" rx="11" fill="#5B663D"/>
<path d="M309.25 137.5L306.248 140.5L304.75 139" stroke="white" stroke-width="0.5" stroke-linecap="square"/>
<path d="M307.25 144C310.011 144 312.25 141.761 312.25 139C312.25 136.239 310.011 134 307.25 134C304.489 134 302.25 136.239 302.25 139C302.25 141.761 304.489 144 307.25 144Z" stroke="white" stroke-width="0.5" stroke-linecap="round" stroke-linejoin="round"/>
<rect x="296.25" y="158" width="22" height="22" rx="11" fill="#5B663D"/>
<path d="M309.25 167.5L306.248 170.5L304.75 169" stroke="white" stroke-width="0.5" stroke-linecap="square"/>
<path d="M307.25 174C310.011 174 312.25 171.761 312.25 169C312.25 166.239 310.011 164 307.25 164C304.489 164 302.25 166.239 302.25 169C302.25 171.761 304.489 174 307.25 174Z" stroke="white" stroke-width="0.5" stroke-linecap="round" stroke-linejoin="round"/>
<path d="M279.5 29C273.977 29 269.5 33.4772 269.5 39C269.5 44.5228 273.977 49 279.5 49C285.023 49 289.5 44.5228 289.5 39C289.5 33.4772 285.023 29 279.5 29Z" fill="#5B663D"/>
<path d="M243 8.74225e-07C237.477 1.35705e-06 233 4.47715 233 10C233 15.5228 237.477 20 243 20C248.523 20 253 15.5228 253 10C253 4.47715 248.523 3.91404e-07 243 8.74225e-07Z" fill="#435AD6"/>
<path d="M205.904 49L214.73 49C215.572 49 216.349 48.5524 216.77 47.8221L221.184 40.1779C221.605 39.4476 221.605 38.5524 221.184 37.8221L216.77 30.1779C216.349 29.4476 215.572 29 214.73 29L205.904 29C205.062 29 204.285 29.4476 203.864 30.1779L199.45 37.8221C199.029 38.5524 199.029 39.4476 199.45 40.1779L203.864 47.8221C204.285 48.5524 205.062 49 205.904 49Z" fill="#2F4000"/>
<path d="M274.904 20L283.73 20C284.572 20 285.349 19.5524 285.77 18.8221L290.184 11.1779C290.605 10.4476 290.605 9.55242 290.184 8.82215L285.77 1.17786C285.349 0.447587 284.572 5.18269e-07 283.73 5.91893e-07L274.904 1.3634e-06C274.062 1.43703e-06 273.285 0.447588 272.864 1.17786L268.45 8.82215C268.029 9.55242 268.029 10.4476 268.45 11.1779L272.864 18.8221C273.285 19.5524 274.062 20 274.904 20Z" fill="#187CC0"/>
<path d="M302.579 49L316.28 49C317.222 49 317.804 47.9813 317.333 47.1705L312.967 39.6098C312.753 39.2356 312.753 38.7644 312.967 38.3902L317.333 30.8295C317.804 30.0187 317.215 29 316.28 29L302.579 29C301.637 29 301.055 30.0187 301.526 30.8295L305.892 38.3902C306.107 38.7644 306.107 39.2356 305.892 39.6098L301.526 47.1705C301.055 47.9813 301.644 49 302.579 49Z" fill="#2F4000"/>
<path d="M233.837 33.7838L241.218 46.5741C242.123 48.142 244.39 48.142 245.301 46.5741L252.682 33.7838C253.587 32.2159 252.453 30.25 250.644 30.25L235.876 30.25C234.061 30.25 232.927 32.2099 233.837 33.7838Z" fill="#5B663D"/>
<path d="M214.301 17.5505C215.053 16.2813 216.281 15.0606 217.551 14.3007C219.014 13.4277 220 11.827 220 10C220 8.173 219.014 6.57234 217.551 5.69926C216.281 4.94745 215.061 3.71867 214.301 2.44947C213.428 0.986256 211.827 7.14505e-07 210 8.74226e-07C208.173 1.03395e-06 206.572 0.986257 205.699 2.44948C204.947 3.71868 203.719 4.93936 202.449 5.69927C200.986 6.57235 200 8.173 200 10C200 11.827 200.986 13.4277 202.449 14.3007C203.719 15.0526 204.939 16.2813 205.699 17.5505C206.572 19.0137 208.173 20 210 20C211.827 20 213.428 19.0137 214.301 17.5505Z" fill="#435AD6"/>
<path d="M274.905 78L283.73 78C284.572 78 285.349 77.5524 285.77 76.8221L290.184 69.1779C290.605 68.4476 290.605 67.5524 290.184 66.8221L285.77 59.1779C285.349 58.4476 284.572 58 283.73 58L274.905 58C274.062 58 273.285 58.4476 272.864 59.1779L268.45 66.8221C268.029 67.5524 268.029 68.4476 268.45 69.1779L272.864 76.8221C273.285 77.5524 274.062 78 274.905 78Z" fill="#CB8E00"/>
<path d="M203.73 78L217.431 78C218.373 78 218.955 76.9813 218.484 76.1705L214.118 68.6098C213.903 68.2356 213.903 67.7644 214.118 67.3902L218.484 59.8295C218.955 59.0187 218.366 58 217.431 58L203.73 58C202.788 58 202.206 59.0187 202.677 59.8295L207.043 67.3902C207.257 67.7644 207.257 68.2356 207.043 68.6098L202.677 76.1705C202.206 76.9813 202.795 78 203.73 78Z" fill="#CB8E00"/>
<path d="M233.972 62.7838L241.353 75.5741C242.257 77.142 244.525 77.142 245.435 75.5741L252.816 62.7838C253.721 61.2159 252.587 59.25 250.778 59.25L236.01 59.25C234.195 59.25 233.061 61.2099 233.972 62.7838Z" fill="#EA642B"/>
<line x1="188" y1="39.5" x2="4.37114e-08" y2="39.5" stroke="#535450"/>
<line x1="188" y1="68.5" x2="4.37114e-08" y2="68.5" stroke="#535450"/>
<line x1="188" y1="10.5" x2="4.37114e-08" y2="10.5" stroke="#535450"/>
</svg>
