<svg width="313" height="38" viewBox="0 0 313 38" fill="none" xmlns="http://www.w3.org/2000/svg">
<rect x="4" y="4" width="305" height="30" rx="8" fill="white"/>
<rect x="2" y="2" width="309" height="34" rx="10" stroke="#DBDBDB" stroke-opacity="0.5" stroke-width="4"/>
<path d="M12.888 23V14.36H16.692C18.36 14.36 19.464 15.356 19.464 16.892C19.464 18.416 18.36 19.424 16.632 19.424H14.064V23H12.888ZM14.064 18.344H16.596C17.604 18.344 18.216 17.84 18.216 16.892C18.216 15.92 17.616 15.44 16.644 15.44H14.064V18.344ZM22.2089 23.144C20.9729 23.144 20.1809 22.388 20.1809 21.296C20.1809 20.192 20.8529 19.472 22.2689 19.352L24.2849 19.184V18.92C24.2849 18.116 23.8169 17.624 22.9049 17.624C21.9329 17.624 21.5009 18.056 21.4409 18.704H20.3609C20.4089 17.492 21.3449 16.616 22.9049 16.616C24.4889 16.616 25.4129 17.516 25.4129 18.896V21.668L25.4369 23H24.3449L24.3329 22.124H24.2609C23.8409 22.808 23.0369 23.144 22.2089 23.144ZM21.2849 21.248C21.2849 21.812 21.6689 22.184 22.4009 22.184C23.3249 22.184 24.1769 21.524 24.2729 20.072L22.4849 20.24C21.6329 20.324 21.2849 20.72 21.2849 21.248ZM29.0123 23.024C27.9443 23.024 27.3803 22.436 27.3803 21.476V17.744H26.2163V16.76H27.3803V15.056H28.5083V16.76H30.0203V17.744H28.5083V21.368C28.5083 21.8 28.7123 21.992 29.1683 21.992H30.1403V23.024H29.0123ZM33.8938 23.144C32.1178 23.144 30.7978 21.86 30.7978 19.88C30.7978 17.9 32.1298 16.616 33.8938 16.616C35.4058 16.616 36.5098 17.528 36.7138 18.932L35.6098 19.112C35.4418 18.26 34.9018 17.648 33.8938 17.648C32.6818 17.648 31.9738 18.5 31.9738 19.88C31.9738 21.26 32.6698 22.112 33.8938 22.112C34.9018 22.112 35.4178 21.5 35.5978 20.636L36.7018 20.9C36.5098 22.232 35.4058 23.144 33.8938 23.144ZM37.9533 23V14.36H39.0813V17.504H39.1533C39.5973 16.928 40.1853 16.616 40.9773 16.616C42.3093 16.616 43.1853 17.48 43.1853 18.992V23H42.0573V19.208C42.0573 18.152 41.5653 17.648 40.7733 17.648C39.7653 17.648 39.0813 18.296 39.0813 19.88V23H37.9533ZM51.5896 23.144C49.2496 23.144 47.4976 21.392 47.4976 18.68C47.4976 15.968 49.2736 14.216 51.5896 14.216C53.6296 14.216 55.0576 15.38 55.3576 17.348L54.1936 17.54C53.9176 16.208 53.1136 15.32 51.6136 15.32C49.7776 15.32 48.7456 16.604 48.7456 18.68C48.7456 20.756 49.7656 22.04 51.6136 22.04C53.1136 22.04 53.8456 21.188 54.1696 19.808L55.3336 20.084C55.0096 22.016 53.5816 23.144 51.5896 23.144ZM56.7044 23V14.36H62.5604V15.464H57.8804V18.056H62.2604V19.16H57.8804V21.896H62.7044V23H56.7044ZM67.7417 23.144C65.2097 23.144 63.4937 21.392 63.4937 18.68C63.4937 15.968 65.2097 14.216 67.7417 14.216C70.2257 14.216 71.9897 15.968 71.9897 18.68C71.9897 21.392 70.2257 23.144 67.7417 23.144ZM64.7417 18.68C64.7417 20.648 65.7737 22.04 67.7417 22.04C69.6497 22.04 70.7417 20.648 70.7417 18.68C70.7417 16.712 69.6497 15.32 67.7417 15.32C65.7737 15.32 64.7417 16.712 64.7417 18.68ZM76.4388 23V14.36H80.0868C81.6588 14.36 82.6788 15.248 82.6788 16.604C82.6788 17.54 82.1148 18.056 81.3708 18.344V18.416C82.3188 18.62 83.0868 19.268 83.0868 20.564C83.0868 22.004 82.0788 23 80.2908 23H76.4388ZM77.6148 21.896H80.2788C81.2628 21.896 81.8508 21.368 81.8508 20.468C81.8508 19.532 81.2388 19.04 80.2788 19.04H77.6148V21.896ZM77.6148 17.936H80.0388C80.8788 17.936 81.4668 17.492 81.4668 16.688C81.4668 15.884 80.8908 15.464 80.0388 15.464H77.6148V17.936ZM84.465 23V16.76H85.593V17.768H85.665C86.001 17.12 86.625 16.616 87.645 16.616H87.993V17.768H87.477C86.313 17.768 85.593 18.548 85.593 20.108V23H84.465ZM91.5481 23.144C89.7841 23.144 88.5361 21.86 88.5361 19.88C88.5361 17.936 89.8321 16.616 91.5601 16.616C93.2401 16.616 94.4161 17.78 94.4161 19.868V20.204H89.6881C89.7961 21.38 90.4681 22.112 91.5481 22.112C92.4001 22.112 92.8921 21.74 93.2161 21.008L94.2601 21.368C93.8641 22.496 92.9641 23.144 91.5481 23.144ZM89.7241 19.28H93.2281C93.1561 18.356 92.5321 17.648 91.5601 17.648C90.6721 17.648 89.9281 18.176 89.7241 19.28ZM95.8205 23V16.76H96.9485V17.504H97.0205C97.4645 16.928 98.0525 16.616 98.8445 16.616C100.176 16.616 101.052 17.48 101.052 18.98V23H99.9245V19.196C99.9245 18.152 99.4325 17.648 98.6405 17.648C97.6325 17.648 96.9485 18.296 96.9485 19.88V23H95.8205ZM102.641 23V16.76H103.769V17.504H103.841C104.285 16.928 104.873 16.616 105.665 16.616C106.997 16.616 107.873 17.48 107.873 18.98V23H106.745V19.196C106.745 18.152 106.253 17.648 105.461 17.648C104.453 17.648 103.769 18.296 103.769 19.88V23H102.641ZM111.201 23.144C109.965 23.144 109.173 22.388 109.173 21.296C109.173 20.192 109.845 19.472 111.261 19.352L113.277 19.184V18.92C113.277 18.116 112.809 17.624 111.897 17.624C110.925 17.624 110.493 18.056 110.433 18.704H109.353C109.401 17.492 110.337 16.616 111.897 16.616C113.481 16.616 114.405 17.516 114.405 18.896V21.668L114.429 23H113.337L113.325 22.124H113.253C112.833 22.808 112.029 23.144 111.201 23.144ZM110.277 21.248C110.277 21.812 110.661 22.184 111.393 22.184C112.317 22.184 113.169 21.524 113.265 20.072L111.477 20.24C110.625 20.324 110.277 20.72 110.277 21.248ZM115.988 23V16.76H117.116V17.504H117.188C117.632 16.928 118.22 16.616 119.012 16.616C120.344 16.616 121.22 17.48 121.22 18.98V23H120.092V19.196C120.092 18.152 119.6 17.648 118.808 17.648C117.8 17.648 117.116 18.296 117.116 19.88V23H115.988ZM129.073 23.144C127.021 23.144 125.893 22.232 125.449 20.588L126.661 20.324C126.961 21.512 127.777 22.04 129.073 22.04C130.405 22.04 131.149 21.488 131.149 20.648C131.149 19.856 130.597 19.388 129.733 19.292L128.077 19.1C126.457 18.908 125.641 17.996 125.641 16.676C125.641 15.2 126.877 14.216 128.737 14.216C130.465 14.216 131.725 15.032 132.109 16.556L130.909 16.844C130.609 15.86 129.853 15.32 128.737 15.32C127.537 15.32 126.853 15.836 126.853 16.652C126.853 17.384 127.333 17.804 128.269 17.912L129.877 18.104C131.461 18.296 132.361 19.22 132.361 20.648C132.361 22.172 131.149 23.144 129.073 23.144ZM133.754 25.4V16.76H134.882V17.576H134.954C135.374 17 136.034 16.616 136.922 16.616C138.566 16.616 139.754 17.912 139.754 19.88C139.754 21.848 138.566 23.144 136.958 23.144C136.034 23.144 135.398 22.76 134.954 22.184H134.882V25.4H133.754ZM134.846 19.88C134.846 21.308 135.554 22.112 136.718 22.112C137.846 22.112 138.578 21.272 138.578 19.88C138.578 18.488 137.846 17.648 136.718 17.648C135.554 17.648 134.846 18.476 134.846 19.88ZM143.849 23.144C142.085 23.144 140.837 21.86 140.837 19.88C140.837 17.936 142.133 16.616 143.861 16.616C145.541 16.616 146.717 17.78 146.717 19.868V20.204H141.989C142.097 21.38 142.769 22.112 143.849 22.112C144.701 22.112 145.193 21.74 145.517 21.008L146.561 21.368C146.165 22.496 145.265 23.144 143.849 23.144ZM142.025 19.28H145.529C145.457 18.356 144.833 17.648 143.861 17.648C142.973 17.648 142.229 18.176 142.025 19.28ZM148.121 23V14.36H149.249V23H148.121ZM150.934 23V14.36H152.062V23H150.934ZM155.486 23.144C154.25 23.144 153.458 22.388 153.458 21.296C153.458 20.192 154.13 19.472 155.546 19.352L157.562 19.184V18.92C157.562 18.116 157.094 17.624 156.182 17.624C155.21 17.624 154.778 18.056 154.718 18.704H153.638C153.686 17.492 154.622 16.616 156.182 16.616C157.766 16.616 158.69 17.516 158.69 18.896V21.668L158.714 23H157.622L157.61 22.124H157.538C157.118 22.808 156.314 23.144 155.486 23.144ZM154.562 21.248C154.562 21.812 154.946 22.184 155.678 22.184C156.602 22.184 157.454 21.524 157.55 20.072L155.762 20.24C154.91 20.324 154.562 20.72 154.562 21.248ZM163.07 23.144C161.294 23.144 159.974 21.86 159.974 19.88C159.974 17.9 161.306 16.616 163.07 16.616C164.582 16.616 165.686 17.528 165.89 18.932L164.786 19.112C164.618 18.26 164.078 17.648 163.07 17.648C161.858 17.648 161.15 18.5 161.15 19.88C161.15 21.26 161.846 22.112 163.07 22.112C164.078 22.112 164.594 21.5 164.774 20.636L165.878 20.9C165.686 22.232 164.582 23.144 163.07 23.144ZM167.816 25.4L168.8 23.072L166.244 16.76H167.48L169.328 21.452H169.448L171.272 16.76H172.484L168.968 25.4H167.816ZM176.399 23V16.76H177.527V23H176.399ZM176.267 14.9C176.267 14.504 176.543 14.216 176.963 14.216C177.383 14.216 177.659 14.504 177.659 14.9C177.659 15.284 177.383 15.584 176.963 15.584C176.543 15.584 176.267 15.284 176.267 14.9ZM179.211 23V16.76H180.339V17.504H180.411C180.855 16.928 181.443 16.616 182.235 16.616C183.567 16.616 184.443 17.48 184.443 18.98V23H183.315V19.196C183.315 18.152 182.823 17.648 182.031 17.648C181.023 17.648 180.339 18.296 180.339 19.88V23H179.211ZM189.079 23V14.36H194.947V15.464H190.255V18.056H194.479V19.16H190.255V23H189.079ZM198.623 23.144C196.835 23.144 195.563 21.86 195.563 19.88C195.563 17.9 196.835 16.616 198.623 16.616C200.399 16.616 201.683 17.9 201.683 19.88C201.683 21.86 200.399 23.144 198.623 23.144ZM196.739 19.88C196.739 21.26 197.387 22.112 198.623 22.112C199.835 22.112 200.507 21.26 200.507 19.88C200.507 18.5 199.835 17.648 198.623 17.648C197.387 17.648 196.739 18.5 196.739 19.88ZM203.059 23V16.76H204.187V17.768H204.259C204.595 17.12 205.219 16.616 206.239 16.616H206.587V17.768H206.071C204.907 17.768 204.187 18.548 204.187 20.108V23H203.059ZM210.832 23.144C209.944 23.144 209.284 22.76 208.864 22.184H208.792V23H207.664V14.36H208.792V17.576H208.864C209.308 17 209.944 16.616 210.868 16.616C212.476 16.616 213.664 17.912 213.664 19.88C213.664 21.848 212.476 23.144 210.832 23.144ZM208.756 19.88C208.756 21.284 209.464 22.112 210.628 22.112C211.756 22.112 212.488 21.272 212.488 19.88C212.488 18.488 211.756 17.648 210.628 17.648C209.464 17.648 208.756 18.452 208.756 19.88ZM217.759 23.144C215.995 23.144 214.747 21.86 214.747 19.88C214.747 17.936 216.043 16.616 217.771 16.616C219.451 16.616 220.627 17.78 220.627 19.868V20.204H215.899C216.007 21.38 216.679 22.112 217.759 22.112C218.611 22.112 219.103 21.74 219.427 21.008L220.471 21.368C220.075 22.496 219.175 23.144 217.759 23.144ZM215.935 19.28H219.439C219.367 18.356 218.743 17.648 217.771 17.648C216.883 17.648 216.139 18.176 215.935 19.28ZM224.275 23.144C222.739 23.144 221.887 22.448 221.515 21.284L222.631 20.96C222.847 21.704 223.315 22.112 224.275 22.112C225.283 22.112 225.679 21.764 225.679 21.272C225.679 20.828 225.367 20.492 224.827 20.42L223.543 20.252C222.379 20.096 221.731 19.52 221.731 18.464C221.731 17.468 222.523 16.616 224.059 16.616C225.403 16.616 226.279 17.252 226.591 18.26L225.511 18.608C225.271 17.996 224.851 17.648 224.059 17.648C223.171 17.648 222.823 18.032 222.823 18.464C222.823 18.908 223.147 19.172 223.687 19.244L224.959 19.424C226.183 19.592 226.771 20.276 226.771 21.272C226.771 22.364 225.883 23.144 224.275 23.144ZM233.781 23.144C231.921 23.144 230.877 22.124 230.817 20.636H232.041C232.089 21.512 232.701 22.076 233.781 22.076C234.837 22.076 235.509 21.596 235.509 20.636C235.509 19.676 234.837 19.196 233.649 19.196H232.713V18.116H233.601C234.657 18.116 235.209 17.612 235.209 16.832C235.209 16.04 234.657 15.572 233.781 15.572C232.797 15.572 232.281 16.04 232.209 16.844H231.069C231.117 15.488 232.113 14.504 233.781 14.504C235.485 14.504 236.409 15.656 236.409 16.82C236.409 17.672 235.917 18.212 235.125 18.536V18.632C236.145 18.908 236.709 19.64 236.709 20.744C236.709 22.124 235.701 23.144 233.781 23.144ZM241.271 23.144C239.495 23.144 238.139 21.764 238.139 18.824C238.139 15.872 239.495 14.504 241.271 14.504C243.047 14.504 244.403 15.872 244.403 18.824C244.403 21.764 243.047 23.144 241.271 23.144ZM239.339 18.824C239.339 21.032 240.071 22.076 241.271 22.076C242.471 22.076 243.203 21.032 243.203 18.824C243.203 16.604 242.471 15.572 241.271 15.572C240.071 15.572 239.339 16.604 239.339 18.824ZM252.264 23.144C250.068 23.144 248.808 21.884 248.808 19.892V14.36H249.984V19.808C249.984 21.2 250.752 22.004 252.264 22.004C253.776 22.004 254.568 21.2 254.568 19.808V14.36H255.696V19.892C255.696 21.884 254.436 23.144 252.264 23.144ZM257.352 23V16.76H258.48V17.504H258.552C258.996 16.928 259.584 16.616 260.376 16.616C261.708 16.616 262.584 17.48 262.584 18.98V23H261.456V19.196C261.456 18.152 260.964 17.648 260.172 17.648C259.164 17.648 258.48 18.296 258.48 19.88V23H257.352ZM266.704 23.144C265.06 23.144 263.872 21.848 263.872 19.88C263.872 17.912 265.06 16.616 266.668 16.616C267.592 16.616 268.228 17 268.672 17.576H268.744V14.36H269.872V23H268.744V22.184H268.672C268.252 22.76 267.592 23.144 266.704 23.144ZM265.048 19.88C265.048 21.272 265.78 22.112 266.908 22.112C268.072 22.112 268.78 21.284 268.78 19.88C268.78 18.452 268.072 17.648 266.908 17.648C265.78 17.648 265.048 18.488 265.048 19.88ZM274.267 23.144C272.503 23.144 271.255 21.86 271.255 19.88C271.255 17.936 272.551 16.616 274.279 16.616C275.959 16.616 277.135 17.78 277.135 19.868V20.204H272.407C272.515 21.38 273.187 22.112 274.267 22.112C275.119 22.112 275.611 21.74 275.935 21.008L276.979 21.368C276.583 22.496 275.683 23.144 274.267 23.144ZM272.443 19.28H275.947C275.875 18.356 275.251 17.648 274.279 17.648C273.391 17.648 272.647 18.176 272.443 19.28ZM278.539 23V16.76H279.667V17.768H279.739C280.075 17.12 280.699 16.616 281.719 16.616H282.067V17.768H281.551C280.387 17.768 279.667 18.548 279.667 20.108V23H278.539ZM288.977 23.144C287.117 23.144 286.073 22.124 286.013 20.636H287.237C287.285 21.512 287.897 22.076 288.977 22.076C290.033 22.076 290.705 21.596 290.705 20.636C290.705 19.676 290.033 19.196 288.845 19.196H287.909V18.116H288.797C289.853 18.116 290.405 17.612 290.405 16.832C290.405 16.04 289.853 15.572 288.977 15.572C287.993 15.572 287.477 16.04 287.405 16.844H286.265C286.313 15.488 287.309 14.504 288.977 14.504C290.681 14.504 291.605 15.656 291.605 16.82C291.605 17.672 291.113 18.212 290.321 18.536V18.632C291.341 18.908 291.905 19.64 291.905 20.744C291.905 22.124 290.897 23.144 288.977 23.144ZM296.466 23.144C294.69 23.144 293.334 21.764 293.334 18.824C293.334 15.872 294.69 14.504 296.466 14.504C298.242 14.504 299.598 15.872 299.598 18.824C299.598 21.764 298.242 23.144 296.466 23.144ZM294.534 18.824C294.534 21.032 295.266 22.076 296.466 22.076C297.666 22.076 298.398 21.032 298.398 18.824C298.398 16.604 297.666 15.572 296.466 15.572C295.266 15.572 294.534 16.604 294.534 18.824Z" fill="#161814"/>
</svg>
