<svg width="288" height="38" viewBox="0 0 288 38" fill="none" xmlns="http://www.w3.org/2000/svg">
<rect x="4" y="4" width="280" height="30" rx="8" fill="white"/>
<rect x="2" y="2" width="284" height="34" rx="10" stroke="#DBDBDB" stroke-opacity="0.5" stroke-width="4"/>
<path d="M16.656 23.144C14.316 23.144 12.564 21.392 12.564 18.68C12.564 15.968 14.34 14.216 16.656 14.216C18.696 14.216 20.124 15.38 20.424 17.348L19.26 17.54C18.984 16.208 18.18 15.32 16.68 15.32C14.844 15.32 13.812 16.604 13.812 18.68C13.812 20.756 14.832 22.04 16.68 22.04C18.18 22.04 18.912 21.188 19.236 19.808L20.4 20.084C20.076 22.016 18.648 23.144 16.656 23.144ZM21.7228 23V14.36H22.8508V17.504H22.9228C23.3668 16.928 23.9548 16.616 24.7468 16.616C26.0788 16.616 26.9548 17.48 26.9548 18.992V23H25.8268V19.208C25.8268 18.152 25.3348 17.648 24.5428 17.648C23.5348 17.648 22.8508 18.296 22.8508 19.88V23H21.7228ZM30.2831 23.144C29.0471 23.144 28.2551 22.388 28.2551 21.296C28.2551 20.192 28.9271 19.472 30.3431 19.352L32.3591 19.184V18.92C32.3591 18.116 31.8911 17.624 30.9791 17.624C30.0071 17.624 29.5751 18.056 29.5151 18.704H28.4351C28.4831 17.492 29.4191 16.616 30.9791 16.616C32.5631 16.616 33.4871 17.516 33.4871 18.896V21.668L33.5111 23H32.4191L32.4071 22.124H32.3351C31.9151 22.808 31.1111 23.144 30.2831 23.144ZM29.3591 21.248C29.3591 21.812 29.7431 22.184 30.4751 22.184C31.3991 22.184 32.2511 21.524 32.3471 20.072L30.5591 20.24C29.7071 20.324 29.3591 20.72 29.3591 21.248ZM35.0705 23V16.76H36.1985V17.768H36.2705C36.6065 17.12 37.2305 16.616 38.2505 16.616H38.5985V17.768H38.0825C36.9185 17.768 36.1985 18.548 36.1985 20.108V23H35.0705ZM39.6759 23V16.76H40.8039V17.468H40.8759C41.2839 16.916 41.8119 16.616 42.5919 16.616C43.4679 16.616 44.1039 17 44.4279 17.648H44.4879C44.9319 16.976 45.5319 16.616 46.4319 16.616C47.6799 16.616 48.5559 17.48 48.5559 18.836V23H47.4279V19.112C47.4279 18.152 46.9839 17.648 46.2279 17.648C45.2799 17.648 44.6799 18.248 44.6799 19.688V23H43.5519V19.112C43.5519 18.152 43.1079 17.648 42.3519 17.648C41.4039 17.648 40.8039 18.248 40.8039 19.688V23H39.6759ZM53.1888 23V14.36H54.3648V23H53.1888ZM56.0939 23V16.76H57.2219V17.504H57.2939C57.7379 16.928 58.3259 16.616 59.1179 16.616C60.4499 16.616 61.3259 17.48 61.3259 18.98V23H60.1979V19.196C60.1979 18.152 59.7059 17.648 58.9139 17.648C57.9059 17.648 57.2219 18.296 57.2219 19.88V23H56.0939ZM65.4462 23.144C63.8022 23.144 62.6142 21.848 62.6142 19.88C62.6142 17.912 63.8022 16.616 65.4102 16.616C66.3342 16.616 66.9702 17 67.4142 17.576H67.4862V14.36H68.6142V23H67.4862V22.184H67.4142C66.9942 22.76 66.3342 23.144 65.4462 23.144ZM63.7902 19.88C63.7902 21.272 64.5222 22.112 65.6502 22.112C66.8142 22.112 67.5222 21.284 67.5222 19.88C67.5222 18.452 66.8142 17.648 65.6502 17.648C64.5222 17.648 63.7902 18.488 63.7902 19.88ZM75.433 16.76V23H74.305V22.256H74.233C73.789 22.832 73.201 23.144 72.409 23.144C71.077 23.144 70.201 22.28 70.201 20.78V16.76H71.329V20.564C71.329 21.608 71.821 22.112 72.613 22.112C73.621 22.112 74.305 21.464 74.305 19.88V16.76H75.433ZM79.3613 23.144C77.8253 23.144 76.9733 22.448 76.6013 21.284L77.7173 20.96C77.9333 21.704 78.4013 22.112 79.3613 22.112C80.3693 22.112 80.7653 21.764 80.7653 21.272C80.7653 20.828 80.4533 20.492 79.9133 20.42L78.6293 20.252C77.4653 20.096 76.8173 19.52 76.8173 18.464C76.8173 17.468 77.6093 16.616 79.1453 16.616C80.4893 16.616 81.3653 17.252 81.6773 18.26L80.5973 18.608C80.3573 17.996 79.9373 17.648 79.1453 17.648C78.2573 17.648 77.9093 18.032 77.9093 18.464C77.9093 18.908 78.2333 19.172 78.7733 19.244L80.0453 19.424C81.2693 19.592 81.8573 20.276 81.8573 21.272C81.8573 22.364 80.9693 23.144 79.3613 23.144ZM85.0513 23.024C83.9833 23.024 83.4193 22.436 83.4193 21.476V17.744H82.2553V16.76H83.4193V15.056H84.5473V16.76H86.0593V17.744H84.5473V21.368C84.5473 21.8 84.7513 21.992 85.2073 21.992H86.1793V23.024H85.0513ZM87.2541 23V16.76H88.3821V17.768H88.4541C88.7901 17.12 89.4141 16.616 90.4341 16.616H90.7821V17.768H90.2661C89.1021 17.768 88.3821 18.548 88.3821 20.108V23H87.2541ZM91.8595 23V16.76H92.9875V23H91.8595ZM91.7275 14.9C91.7275 14.504 92.0035 14.216 92.4235 14.216C92.8435 14.216 93.1195 14.504 93.1195 14.9C93.1195 15.284 92.8435 15.584 92.4235 15.584C92.0035 15.584 91.7275 15.284 91.7275 14.9ZM96.412 23.144C95.176 23.144 94.384 22.388 94.384 21.296C94.384 20.192 95.056 19.472 96.472 19.352L98.488 19.184V18.92C98.488 18.116 98.02 17.624 97.108 17.624C96.136 17.624 95.704 18.056 95.644 18.704H94.564C94.612 17.492 95.548 16.616 97.108 16.616C98.692 16.616 99.616 17.516 99.616 18.896V21.668L99.64 23H98.548L98.536 22.124H98.464C98.044 22.808 97.24 23.144 96.412 23.144ZM95.488 21.248C95.488 21.812 95.872 22.184 96.604 22.184C97.528 22.184 98.38 21.524 98.476 20.072L96.688 20.24C95.836 20.324 95.488 20.72 95.488 21.248ZM101.199 23V14.36H102.327V23H101.199ZM107.06 23V14.36H110.708C112.28 14.36 113.3 15.248 113.3 16.604C113.3 17.54 112.736 18.056 111.992 18.344V18.416C112.94 18.62 113.708 19.268 113.708 20.564C113.708 22.004 112.7 23 110.912 23H107.06ZM108.236 21.896H110.9C111.884 21.896 112.472 21.368 112.472 20.468C112.472 19.532 111.86 19.04 110.9 19.04H108.236V21.896ZM108.236 17.936H110.66C111.5 17.936 112.088 17.492 112.088 16.688C112.088 15.884 111.512 15.464 110.66 15.464H108.236V17.936ZM115.086 23V16.76H116.214V23H115.086ZM114.954 14.9C114.954 14.504 115.23 14.216 115.65 14.216C116.07 14.216 116.346 14.504 116.346 14.9C116.346 15.284 116.07 15.584 115.65 15.584C115.23 15.584 114.954 15.284 114.954 14.9ZM120.659 23.144C118.871 23.144 117.599 21.86 117.599 19.88C117.599 17.9 118.871 16.616 120.659 16.616C122.435 16.616 123.719 17.9 123.719 19.88C123.719 21.86 122.435 23.144 120.659 23.144ZM118.775 19.88C118.775 21.26 119.423 22.112 120.659 22.112C121.871 22.112 122.543 21.26 122.543 19.88C122.543 18.5 121.871 17.648 120.659 17.648C119.423 17.648 118.775 18.5 118.775 19.88ZM127.89 23.144C126.114 23.144 124.794 21.86 124.794 19.88C124.794 17.9 126.126 16.616 127.89 16.616C129.402 16.616 130.506 17.528 130.71 18.932L129.606 19.112C129.438 18.26 128.898 17.648 127.89 17.648C126.678 17.648 125.97 18.5 125.97 19.88C125.97 21.26 126.666 22.112 127.89 22.112C128.898 22.112 129.414 21.5 129.594 20.636L130.698 20.9C130.506 22.232 129.402 23.144 127.89 23.144ZM131.949 23V14.36H133.077V17.504H133.149C133.593 16.928 134.181 16.616 134.973 16.616C136.305 16.616 137.181 17.48 137.181 18.992V23H136.053V19.208C136.053 18.152 135.561 17.648 134.769 17.648C133.761 17.648 133.077 18.296 133.077 19.88V23H131.949ZM140.51 23.144C139.274 23.144 138.482 22.388 138.482 21.296C138.482 20.192 139.154 19.472 140.57 19.352L142.586 19.184V18.92C142.586 18.116 142.118 17.624 141.206 17.624C140.234 17.624 139.802 18.056 139.742 18.704H138.662C138.71 17.492 139.646 16.616 141.206 16.616C142.79 16.616 143.714 17.516 143.714 18.896V21.668L143.738 23H142.646L142.634 22.124H142.562C142.142 22.808 141.338 23.144 140.51 23.144ZM139.586 21.248C139.586 21.812 139.97 22.184 140.702 22.184C141.626 22.184 142.478 21.524 142.574 20.072L140.786 20.24C139.934 20.324 139.586 20.72 139.586 21.248ZM145.297 23V16.76H146.425V17.768H146.497C146.833 17.12 147.457 16.616 148.477 16.616H148.825V17.768H148.309C147.145 17.768 146.425 18.548 146.425 20.108V23H145.297ZM154.643 23.144C153.407 23.144 152.615 22.388 152.615 21.296C152.615 20.192 153.287 19.472 154.703 19.352L156.719 19.184V18.92C156.719 18.116 156.251 17.624 155.339 17.624C154.367 17.624 153.935 18.056 153.875 18.704H152.795C152.843 17.492 153.779 16.616 155.339 16.616C156.923 16.616 157.847 17.516 157.847 18.896V21.668L157.871 23H156.779L156.767 22.124H156.695C156.275 22.808 155.471 23.144 154.643 23.144ZM153.719 21.248C153.719 21.812 154.103 22.184 154.835 22.184C155.759 22.184 156.611 21.524 156.707 20.072L154.919 20.24C154.067 20.324 153.719 20.72 153.719 21.248ZM159.43 23V16.76H160.558V17.504H160.63C161.074 16.928 161.662 16.616 162.454 16.616C163.786 16.616 164.662 17.48 164.662 18.98V23H163.534V19.196C163.534 18.152 163.042 17.648 162.25 17.648C161.242 17.648 160.558 18.296 160.558 19.88V23H159.43ZM168.782 23.144C167.138 23.144 165.95 21.848 165.95 19.88C165.95 17.912 167.138 16.616 168.746 16.616C169.67 16.616 170.306 17 170.75 17.576H170.822V14.36H171.95V23H170.822V22.184H170.75C170.33 22.76 169.67 23.144 168.782 23.144ZM167.126 19.88C167.126 21.272 167.858 22.112 168.986 22.112C170.15 22.112 170.858 21.284 170.858 19.88C170.858 18.452 170.15 17.648 168.986 17.648C167.858 17.648 167.126 18.488 167.126 19.88ZM176.681 23V14.36H180.329C181.901 14.36 182.921 15.248 182.921 16.604C182.921 17.54 182.357 18.056 181.613 18.344V18.416C182.561 18.62 183.329 19.268 183.329 20.564C183.329 22.004 182.321 23 180.533 23H176.681ZM177.857 21.896H180.521C181.505 21.896 182.093 21.368 182.093 20.468C182.093 19.532 181.481 19.04 180.521 19.04H177.857V21.896ZM177.857 17.936H180.281C181.121 17.936 181.709 17.492 181.709 16.688C181.709 15.884 181.133 15.464 180.281 15.464H177.857V17.936ZM184.707 23V16.76H185.835V23H184.707ZM184.575 14.9C184.575 14.504 184.851 14.216 185.271 14.216C185.691 14.216 185.967 14.504 185.967 14.9C185.967 15.284 185.691 15.584 185.271 15.584C184.851 15.584 184.575 15.284 184.575 14.9ZM190.28 23.144C188.492 23.144 187.22 21.86 187.22 19.88C187.22 17.9 188.492 16.616 190.28 16.616C192.056 16.616 193.34 17.9 193.34 19.88C193.34 21.86 192.056 23.144 190.28 23.144ZM188.396 19.88C188.396 21.26 189.044 22.112 190.28 22.112C191.492 22.112 192.164 21.26 192.164 19.88C192.164 18.5 191.492 17.648 190.28 17.648C189.044 17.648 188.396 18.5 188.396 19.88ZM194.289 20.36V19.4H196.929V20.36H194.289ZM200.944 23.144C199.156 23.144 197.884 21.86 197.884 19.88C197.884 17.9 199.156 16.616 200.944 16.616C202.72 16.616 204.004 17.9 204.004 19.88C204.004 21.86 202.72 23.144 200.944 23.144ZM199.06 19.88C199.06 21.26 199.708 22.112 200.944 22.112C202.156 22.112 202.828 21.26 202.828 19.88C202.828 18.5 202.156 17.648 200.944 17.648C199.708 17.648 199.06 18.5 199.06 19.88ZM205.379 23V16.76H206.507V23H205.379ZM205.247 14.9C205.247 14.504 205.523 14.216 205.943 14.216C206.363 14.216 206.639 14.504 206.639 14.9C206.639 15.284 206.363 15.584 205.943 15.584C205.523 15.584 205.247 15.284 205.247 14.9ZM208.192 23V14.36H209.32V23H208.192ZM214.388 15.776C214.388 14.804 214.964 14.216 216.044 14.216H217.196V15.248H216.14C215.72 15.248 215.516 15.428 215.516 15.836V16.76H217.196V17.744H215.516V23H214.388V17.744H213.224V16.76H214.388V15.776ZM219.764 23.144C218.528 23.144 217.736 22.388 217.736 21.296C217.736 20.192 218.408 19.472 219.824 19.352L221.84 19.184V18.92C221.84 18.116 221.372 17.624 220.46 17.624C219.488 17.624 219.056 18.056 218.996 18.704H217.916C217.964 17.492 218.9 16.616 220.46 16.616C222.044 16.616 222.968 17.516 222.968 18.896V21.668L222.992 23H221.9L221.888 22.124H221.816C221.396 22.808 220.592 23.144 219.764 23.144ZM218.84 21.248C218.84 21.812 219.224 22.184 219.956 22.184C220.88 22.184 221.732 21.524 221.828 20.072L220.04 20.24C219.188 20.324 218.84 20.72 218.84 21.248ZM227.347 23.144C225.571 23.144 224.251 21.86 224.251 19.88C224.251 17.9 225.583 16.616 227.347 16.616C228.859 16.616 229.963 17.528 230.167 18.932L229.063 19.112C228.895 18.26 228.355 17.648 227.347 17.648C226.135 17.648 225.427 18.5 225.427 19.88C225.427 21.26 226.123 22.112 227.347 22.112C228.355 22.112 228.871 21.5 229.051 20.636L230.155 20.9C229.963 22.232 228.859 23.144 227.347 23.144ZM231.406 23V16.76H232.534V23H231.406ZM231.274 14.9C231.274 14.504 231.55 14.216 231.97 14.216C232.39 14.216 232.666 14.504 232.666 14.9C232.666 15.284 232.39 15.584 231.97 15.584C231.55 15.584 231.274 15.284 231.274 14.9ZM234.219 23V14.36H235.347V23H234.219ZM237.031 23V16.76H238.159V23H237.031ZM236.899 14.9C236.899 14.504 237.175 14.216 237.595 14.216C238.015 14.216 238.291 14.504 238.291 14.9C238.291 15.284 238.015 15.584 237.595 15.584C237.175 15.584 236.899 15.284 236.899 14.9ZM241.86 23.024C240.792 23.024 240.228 22.436 240.228 21.476V17.744H239.064V16.76H240.228V15.056H241.356V16.76H242.868V17.744H241.356V21.368C241.356 21.8 241.56 21.992 242.016 21.992H242.988V23.024H241.86ZM244.984 25.4L245.968 23.072L243.412 16.76H244.648L246.496 21.452H246.616L248.44 16.76H249.652L246.136 25.4H244.984ZM255.583 23.024C254.515 23.024 253.951 22.436 253.951 21.476V17.744H252.787V16.76H253.951V15.056H255.079V16.76H256.591V17.744H255.079V21.368C255.079 21.8 255.283 21.992 255.739 21.992H256.711V23.024H255.583ZM260.428 23.144C258.64 23.144 257.368 21.86 257.368 19.88C257.368 17.9 258.64 16.616 260.428 16.616C262.204 16.616 263.488 17.9 263.488 19.88C263.488 21.86 262.204 23.144 260.428 23.144ZM258.544 19.88C258.544 21.26 259.192 22.112 260.428 22.112C261.64 22.112 262.312 21.26 262.312 19.88C262.312 18.5 261.64 17.648 260.428 17.648C259.192 17.648 258.544 18.5 258.544 19.88ZM269.999 16.76V23H268.871V22.256H268.799C268.355 22.832 267.767 23.144 266.975 23.144C265.643 23.144 264.767 22.28 264.767 20.78V16.76H265.895V20.564C265.895 21.608 266.387 22.112 267.179 22.112C268.187 22.112 268.871 21.464 268.871 19.88V16.76H269.999ZM271.684 23V16.76H272.812V17.768H272.884C273.22 17.12 273.844 16.616 274.864 16.616H275.212V17.768H274.696C273.532 17.768 272.812 18.548 272.812 20.108V23H271.684Z" fill="#161814"/>
</svg>
