<svg width="76" height="24" viewBox="0 0 76 24" fill="none" xmlns="http://www.w3.org/2000/svg">
<g clip-path="url(#clip0_4514_3840)">
<path d="M14.6637 5.49723L22.7421 11.9763C22.7456 11.979 22.7485 11.9824 22.7506 11.9864C22.7526 11.9903 22.7537 11.9947 22.7539 11.9991C22.7541 12.0035 22.7533 12.0079 22.7516 12.012C22.7499 12.0161 22.7473 12.0198 22.744 12.0228L9.32396 23.9497C9.32 23.9531 9.31523 23.9554 9.31012 23.9565C9.305 23.9575 9.29971 23.9572 9.29475 23.9555C9.2898 23.9539 9.28534 23.951 9.28181 23.9472C9.27829 23.9434 9.27581 23.9387 9.27463 23.9336L8.11826 18.516C8.11682 18.5093 8.11314 18.5033 8.10783 18.499L0.0351011 12.0228C0.0315898 12.0201 0.0287145 12.0166 0.0266775 12.0127C0.0246404 12.0087 0.023491 12.0044 0.0233102 12C0.0231293 11.9955 0.0239214 11.9911 0.0256307 11.987C0.02734 11.9829 0.029925 11.9793 0.0332039 11.9763L13.4315 0.0512238C13.4355 0.0475818 13.4404 0.0450798 13.4457 0.0439775C13.451 0.0428752 13.4565 0.0432127 13.4616 0.044955C13.4668 0.0466974 13.4713 0.049781 13.4749 0.0538859C13.4784 0.0579908 13.4808 0.0629673 13.4817 0.0682989L14.6533 5.48016C14.6547 5.48686 14.6584 5.49288 14.6637 5.49723ZM9.6038 15.4994C9.60971 15.5042 9.61374 15.5109 9.61518 15.5184L10.2479 18.4079C10.2492 18.4133 10.2518 18.4182 10.2556 18.4222C10.2593 18.4263 10.264 18.4293 10.2692 18.431C10.2745 18.4327 10.28 18.4331 10.2854 18.432C10.2908 18.4309 10.2959 18.4285 10.3001 18.425L17.4963 12.0266C17.4998 12.0235 17.5026 12.0196 17.5045 12.0153C17.5064 12.011 17.5074 12.0064 17.5073 12.0017C17.5072 11.997 17.5061 11.9924 17.504 11.9881C17.502 11.9839 17.499 11.9802 17.4953 11.9772L13.1497 8.49391C13.1438 8.48913 13.1398 8.48241 13.1383 8.47494L12.5255 5.59304C12.5243 5.58752 12.5217 5.58241 12.5179 5.57823C12.5141 5.57405 12.5093 5.57093 12.5039 5.5692C12.4985 5.56747 12.4928 5.56719 12.4872 5.56838C12.4817 5.56956 12.4766 5.57218 12.4724 5.57597L5.27905 11.9744C5.27552 11.9775 5.2727 11.9813 5.2708 11.9856C5.2689 11.9899 5.26796 11.9946 5.26805 11.9993C5.26815 12.004 5.26926 12.0086 5.27133 12.0128C5.27339 12.017 5.27635 12.0208 5.28 12.0237L9.6038 15.4994Z" fill="white"/>
<path d="M38.0205 16.8569L37.0871 19.256C37.085 19.2615 37.0812 19.2664 37.0763 19.2697C37.0714 19.2731 37.0656 19.2749 37.0596 19.2749L26.732 19.2892C26.7242 19.2892 26.7167 19.2861 26.7112 19.2806C26.7057 19.275 26.7026 19.2676 26.7026 19.2598V16.8436C26.7027 16.8371 26.7051 16.8307 26.7092 16.8256L34.153 7.28063C34.1564 7.27632 34.1585 7.27115 34.159 7.26572C34.1596 7.26029 34.1587 7.2548 34.1563 7.24988C34.154 7.24495 34.1503 7.24078 34.1457 7.23784C34.1411 7.23489 34.1357 7.23329 34.1303 7.2332H26.8326C26.8278 7.2332 26.8231 7.23205 26.8189 7.22984C26.8147 7.22763 26.8111 7.22442 26.8084 7.2205C26.8056 7.21658 26.8039 7.21206 26.8034 7.20734C26.8028 7.20261 26.8034 7.19781 26.8051 7.19336L27.7404 4.81423C27.7425 4.80865 27.7463 4.80384 27.7512 4.80045C27.7561 4.79707 27.7619 4.79525 27.7679 4.79526L38.0101 4.77628C38.0179 4.77628 38.0254 4.77938 38.0309 4.7849C38.0364 4.79041 38.0395 4.79789 38.0395 4.80569V7.18862C38.0394 7.1952 38.0371 7.20154 38.0329 7.20664L30.5312 16.7934C30.5278 16.7977 30.5257 16.803 30.5252 16.8085C30.5246 16.814 30.5257 16.8196 30.5282 16.8245C30.5306 16.8295 30.5345 16.8337 30.5392 16.8365C30.5439 16.8394 30.5494 16.8409 30.5549 16.8408L37.994 16.8171C37.9987 16.8172 38.0033 16.8185 38.0073 16.8208C38.0114 16.823 38.0149 16.8263 38.0175 16.8302C38.0201 16.8341 38.0218 16.8385 38.0223 16.8432C38.0228 16.8478 38.0222 16.8525 38.0205 16.8569Z" fill="white"/>
<path d="M42.9429 13.1772L42.9448 16.8114C42.9448 16.8182 42.9474 16.8247 42.9521 16.8295C42.9567 16.8343 42.9629 16.837 42.9695 16.837H51.009C51.0508 16.837 51.064 16.8566 51.0489 16.8958L50.1638 19.2171C50.1537 19.243 50.135 19.256 50.1078 19.256C47.3442 19.2579 44.5673 19.2579 41.7771 19.256C41.077 19.2553 40.5644 18.9774 40.2394 18.4221C40.0819 18.1537 40.0515 17.8055 40.0515 17.4953C40.0534 13.2373 40.0538 9.01534 40.0525 4.82941C40.0525 4.79146 40.0715 4.77249 40.1094 4.77249L51.1039 4.77629C51.1292 4.77629 51.1374 4.78799 51.1285 4.81138L50.1866 7.18293C50.1733 7.21644 50.1486 7.2332 50.1126 7.2332H43.0198C42.9806 7.2332 42.961 7.25281 42.961 7.29202V10.5809C42.961 10.6226 42.9818 10.6435 43.0236 10.6435H47.409C47.4305 10.6435 47.4375 10.6536 47.4299 10.6738L46.487 13.0643C46.4737 13.0979 46.449 13.1146 46.413 13.1146H43.0046C42.9635 13.1146 42.9429 13.1355 42.9429 13.1772Z" fill="white"/>
<path d="M57.0024 7.20095H52.2043C52.1993 7.201 52.1943 7.19982 52.1899 7.19751C52.1855 7.1952 52.1817 7.19183 52.1789 7.1877C52.1761 7.18357 52.1743 7.17881 52.1738 7.17384C52.1732 7.16887 52.1739 7.16384 52.1758 7.15921L53.1131 4.79336C53.1153 4.78771 53.1193 4.78287 53.1244 4.77949C53.1294 4.7761 53.1354 4.77433 53.1415 4.77439L65.2506 4.77534C65.2555 4.77544 65.2603 4.77673 65.2646 4.77911C65.2689 4.78149 65.2726 4.78487 65.2753 4.78898C65.278 4.79309 65.2797 4.79779 65.2802 4.80268C65.2807 4.80758 65.28 4.81252 65.2781 4.81708L64.3238 7.18293C64.3215 7.18858 64.3176 7.19342 64.3125 7.1968C64.3074 7.20019 64.3014 7.20196 64.2953 7.2019L59.8293 7.20095C59.8253 7.20095 59.8213 7.20174 59.8176 7.20326C59.814 7.20479 59.8106 7.20702 59.8078 7.20984C59.805 7.21266 59.8027 7.21601 59.8012 7.21969C59.7997 7.22337 59.7989 7.22732 59.7989 7.23131V19.2266C59.7989 19.2305 59.7981 19.2345 59.7966 19.2382C59.7951 19.2419 59.7928 19.2452 59.79 19.248C59.7872 19.2508 59.7838 19.2531 59.7802 19.2546C59.7765 19.2561 59.7725 19.2569 59.7685 19.2569H57.0621C57.0541 19.2569 57.0464 19.2537 57.0407 19.248C57.035 19.2423 57.0318 19.2346 57.0318 19.2266L57.0327 7.23131C57.0327 7.22326 57.0295 7.21553 57.0238 7.20984C57.0181 7.20415 57.0104 7.20095 57.0024 7.20095Z" fill="white"/>
<path d="M75.8893 19.2787C75.8893 19.2825 75.8893 19.286 75.8893 19.2892H72.9581C72.9353 19.2892 72.9198 19.2784 72.9116 19.2569L71.6338 15.9349C71.6225 15.9045 71.6006 15.8893 71.5684 15.8893H66.2362C66.2014 15.8893 66.178 15.9055 66.166 15.9377L64.8968 19.2398C64.8828 19.2753 64.8569 19.293 64.819 19.293H61.9494C61.9456 19.2929 61.9418 19.2919 61.9385 19.2901C61.9351 19.2883 61.9322 19.2857 61.9301 19.2825C61.9279 19.2794 61.9266 19.2757 61.9261 19.2719C61.9257 19.2681 61.9262 19.2643 61.9276 19.2607L67.5614 4.85692C67.5785 4.81328 67.6104 4.79146 67.6572 4.79146C68.0974 4.79273 68.5059 4.79431 68.8828 4.79621C69.4931 4.8 69.9813 5.00648 70.3475 5.41565C70.5176 5.60601 70.738 6.05059 71.0087 6.74941C72.6277 10.9233 74.2545 15.0998 75.8893 19.2787ZM66.9714 13.385C66.9697 13.3894 66.9691 13.3942 66.9697 13.399C66.9703 13.4037 66.972 13.4082 66.9747 13.4121C66.9774 13.416 66.981 13.4192 66.9852 13.4215C66.9894 13.4237 66.9941 13.4248 66.9989 13.4248L70.8493 13.4447C70.8541 13.4447 70.8588 13.4436 70.863 13.4414C70.8672 13.4392 70.8708 13.436 70.8735 13.432C70.8762 13.4281 70.878 13.4236 70.8785 13.4189C70.8791 13.4142 70.8785 13.4094 70.8768 13.4049L68.9787 8.26245C68.9765 8.25686 68.9728 8.25205 68.9679 8.24865C68.963 8.24525 68.9571 8.24343 68.9511 8.24343C68.9452 8.24343 68.9393 8.24525 68.9344 8.24865C68.9295 8.25205 68.9257 8.25686 68.9236 8.26245L66.9714 13.385Z" fill="white"/>
</g>
<defs>
<clipPath id="clip0_4514_3840">
<rect width="75.8893" height="24" fill="white"/>
</clipPath>
</defs>
</svg>
