<svg width="153" height="18" viewBox="0 0 153 18" fill="none" xmlns="http://www.w3.org/2000/svg">
<g clip-path="url(#clip0_4514_3826)">
<path d="M37.6 14.488C36.6751 14.4967 35.7579 14.3206 34.902 13.97C34.0886 13.6344 33.3502 13.1402 32.73 12.516C32.1101 11.8882 31.6194 11.1448 31.286 10.328C30.935 9.46181 30.7596 8.53453 30.77 7.6C30.7607 6.66667 30.9368 5.74077 31.288 4.876C31.6214 4.05916 32.1121 3.31576 32.732 2.688C33.3518 2.06338 34.0903 1.56903 34.904 1.234C36.6376 0.542753 38.5704 0.542753 40.304 1.234C41.1175 1.56835 41.8554 2.06281 42.474 2.688C43.0952 3.31515 43.5866 4.05868 43.92 4.876C44.2706 5.74091 44.4459 6.6668 44.436 7.6C44.4455 8.53399 44.2694 9.46057 43.918 10.326C43.5846 11.1433 43.0932 11.8868 42.472 12.514C41.8528 13.1384 41.115 13.6327 40.302 13.968C39.445 14.3198 38.5263 14.4966 37.6 14.488ZM37.6 12.274C38.3832 12.2889 39.1545 12.0808 39.824 11.674C40.4788 11.2667 41.011 10.6896 41.364 10.004C41.7468 9.26273 41.9399 8.43815 41.926 7.604C41.9399 6.76985 41.7468 5.94527 41.364 5.204C41.0089 4.52251 40.477 3.94912 39.824 3.544C39.1504 3.1472 38.3828 2.93795 37.601 2.93795C36.8192 2.93795 36.0516 3.1472 35.378 3.544C34.7245 3.94851 34.1924 4.52205 33.838 5.204C33.4552 5.94527 33.2621 6.76985 33.276 7.604C33.2621 8.43815 33.4552 9.26273 33.838 10.004C34.1905 10.69 34.7228 11.2672 35.378 11.674C36.0469 12.0805 36.8174 12.2886 37.6 12.274Z" fill="white"/>
<path d="M46.244 14.176V1.028H48.578V12.04V14.176H46.244Z" fill="white"/>
<path d="M53.646 1.772C53.6527 1.96184 53.6207 2.15106 53.5519 2.32813C53.4831 2.5052 53.3791 2.66643 53.246 2.802C52.9633 3.06302 52.5927 3.20796 52.208 3.20796C51.8233 3.20796 51.4527 3.06302 51.17 2.802C51.0376 2.66596 50.9339 2.50465 50.8652 2.32769C50.7965 2.15073 50.7641 1.96174 50.77 1.772C50.7644 1.58259 50.7969 1.39398 50.8656 1.21738C50.9343 1.04079 51.0378 0.879805 51.17 0.743999C51.452 0.481677 51.8229 0.335854 52.208 0.335854C52.5931 0.335854 52.964 0.481677 53.246 0.743999C53.3788 0.879331 53.4828 1.04023 53.5515 1.21694C53.6203 1.39365 53.6524 1.58249 53.646 1.772ZM51.046 14.172V4.2H53.38V14.176L51.046 14.172Z" fill="white"/>
<path d="M58.716 14.176L54.736 4.194H57.106L59.96 11.496L62.78 4.194H65.03L61.086 14.176H58.716Z" fill="white"/>
<path d="M71.102 14.488C70.1064 14.5089 69.1189 14.3037 68.214 13.888C67.3896 13.503 66.6973 12.8831 66.224 12.106C65.7154 11.2306 65.4631 10.2299 65.496 9.218C65.4759 8.25529 65.6995 7.30313 66.146 6.45C66.5607 5.67283 67.1796 5.02352 67.936 4.572C68.7277 4.10948 69.6313 3.87354 70.548 3.89C71.4053 3.86732 72.2526 4.07744 73 4.498C73.6942 4.90292 74.2562 5.50035 74.618 6.218C75.0142 7.02626 75.2097 7.91812 75.188 8.818C75.188 8.956 75.188 9.092 75.172 9.218C75.156 9.344 75.142 9.55 75.12 9.818H67.78C67.8829 10.5858 68.2802 11.2836 68.888 11.764C69.488 12.2293 70.2953 12.4627 71.31 12.464C72.5978 12.4676 73.8507 12.0458 74.874 11.264V13.312C74.3276 13.6824 73.73 13.9708 73.1 14.168C72.4542 14.3789 71.7793 14.4869 71.1 14.488M70.442 5.688C70.1113 5.67418 69.7812 5.72768 69.4718 5.84526C69.1624 5.96283 68.8801 6.14204 68.642 6.372C68.1793 6.828 67.8907 7.46533 67.776 8.284H72.976C72.9772 8.1499 72.9658 8.01597 72.942 7.884C72.8729 7.2595 72.5844 6.67979 72.128 6.248C71.6581 5.85832 71.0598 5.65793 70.45 5.686" fill="white"/>
<path d="M77.278 14.176V4.2H79.51L79.528 6.276C79.7673 5.6293 80.1873 5.06493 80.738 4.65C81.2666 4.25348 81.9113 4.04257 82.572 4.05C82.7922 4.05229 83.012 4.06899 83.23 4.1C83.4345 4.12486 83.6356 4.1718 83.83 4.24V6.462C83.5922 6.3922 83.3495 6.34005 83.104 6.306C82.8295 6.26174 82.552 6.23834 82.274 6.236C81.4073 6.236 80.7467 6.516 80.292 7.076C79.8373 7.636 79.61 8.446 79.61 9.506V14.176H77.278Z" fill="white"/>
<path d="M88.394 14.176L84.432 1.028H86.786L89.726 10.752L92.632 1.202H94.848L97.788 10.734L100.764 1.028H103.014L99.052 14.176H96.682L93.688 4.576L90.764 14.176H88.394Z" fill="white"/>
<path d="M105.038 17.966C104.74 17.9631 104.443 17.9255 104.154 17.854C103.868 17.7847 103.585 17.6999 103.308 17.6V15.526C103.538 15.606 103.798 15.684 104.086 15.76C104.351 15.8312 104.624 15.8689 104.898 15.872C105.38 15.8954 105.856 15.7544 106.248 15.472C106.595 15.2053 106.928 14.6833 107.248 13.906L102.944 4.2H105.332L108.462 11.242L111.386 4.2H113.652L109.57 14C109.225 14.8774 108.764 15.7047 108.2 16.46C107.818 16.9735 107.311 17.3816 106.728 17.646C106.19 17.8624 105.614 17.9711 105.034 17.966" fill="white"/>
<path d="M114.916 14.176V4.2H117.164L117.182 5.8C117.446 5.22082 117.876 4.73339 118.418 4.4C118.983 4.05528 119.634 3.87839 120.296 3.89C121.84 3.89 122.883 4.56467 123.426 5.914C123.694 5.2995 124.148 4.78461 124.724 4.442C125.333 4.07172 126.035 3.88043 126.748 3.89C127.915 3.89 128.811 4.256 129.438 4.988C130.065 5.72 130.379 6.77267 130.382 8.146V14.176H128.046V8.576C128.046 6.83334 127.379 5.96267 126.046 5.964C125.734 5.94741 125.422 6.00488 125.136 6.13174C124.849 6.2586 124.597 6.45126 124.4 6.694C124 7.186 123.8 7.87534 123.8 8.762V14.176H121.49V8.554C121.49 6.82067 120.833 5.954 119.518 5.954C119.202 5.93755 118.887 5.99456 118.598 6.12054C118.308 6.24652 118.051 6.43803 117.848 6.68C117.448 7.164 117.248 7.84467 117.248 8.722V14.176H114.916Z" fill="white"/>
<path d="M135.692 14.488C134.653 14.488 133.82 14.2027 133.192 13.632C132.879 13.3439 132.633 12.991 132.47 12.598C132.307 12.2049 132.232 11.781 132.25 11.356C132.234 10.7282 132.409 10.1104 132.752 9.584C133.103 9.06328 133.595 8.65276 134.17 8.4C134.846 8.10351 135.578 7.95878 136.316 7.976C137.217 7.96467 138.111 8.13542 138.944 8.478V8.442C138.944 7.60067 138.722 6.96067 138.278 6.522C137.834 6.08333 137.151 5.864 136.228 5.864C135.662 5.86846 135.099 5.95606 134.558 6.124C133.99 6.29701 133.45 6.55384 132.958 6.886V4.834C133.469 4.5534 134.009 4.32749 134.568 4.16C135.185 3.97356 135.826 3.88053 136.47 3.884C137.946 3.884 139.079 4.26467 139.87 5.026C140.661 5.78733 141.061 6.87667 141.07 8.294V14.176H139.048L139.014 12.724C138.722 13.2804 138.262 13.7309 137.7 14.012C137.083 14.333 136.396 14.4966 135.7 14.488M134.438 11.218C134.425 11.4342 134.463 11.6504 134.546 11.8501C134.63 12.0498 134.759 12.2276 134.922 12.37C135.31 12.6592 135.789 12.8009 136.272 12.77C137.089 12.77 137.723 12.536 138.174 12.068C138.625 11.6 138.879 10.9227 138.936 10.036C138.224 9.72926 137.453 9.58051 136.678 9.6C135.94 9.6 135.382 9.742 135 10.024C134.813 10.1612 134.663 10.3426 134.564 10.5521C134.464 10.7615 134.418 10.9924 134.43 11.224" fill="white"/>
<path d="M143.546 14.176V4.2H145.8L145.816 5.8C146.08 5.2151 146.519 4.72616 147.072 4.4C147.655 4.053 148.322 3.87438 149 3.884C150.153 3.884 151.041 4.25 151.664 4.982C152.287 5.714 152.599 6.76667 152.6 8.14V14.176H150.258V8.576C150.258 6.83333 149.591 5.96267 148.258 5.964C147.932 5.94749 147.606 6.00493 147.305 6.13204C147.004 6.25914 146.736 6.45261 146.52 6.698C146.097 7.19 145.887 7.87933 145.888 8.766V14.176H143.546Z" fill="white"/>
<path d="M24.386 3.388L19.13 0.360001C18.9213 0.254539 18.6908 0.199593 18.457 0.199593C18.2232 0.199593 17.9927 0.254539 17.784 0.360001L3.28 8.714L11.306 2.566L7.476 0.360001C7.26733 0.254539 7.0368 0.199593 6.803 0.199593C6.56919 0.199593 6.33866 0.254539 6.13 0.360001L0.871997 3.388C0.676736 3.51593 0.514215 3.68788 0.397503 3.89005C0.28079 4.09221 0.213142 4.31894 0.199997 4.552V10.6C0.212829 10.8331 0.280345 11.06 0.397085 11.2622C0.513826 11.4644 0.676515 11.6363 0.871997 11.764L6.13 14.8C6.33866 14.9055 6.56919 14.9604 6.803 14.9604C7.0368 14.9604 7.26733 14.9055 7.476 14.8L21.98 6.446L13.954 12.6L17.784 14.8C17.9927 14.9055 18.2232 14.9604 18.457 14.9604C18.6908 14.9604 18.9213 14.9055 19.13 14.8L24.386 11.772C24.5827 11.6435 24.7462 11.4704 24.8634 11.2667C24.9805 11.0631 25.0479 10.8346 25.06 10.6V4.554C25.0468 4.32045 24.9789 4.09327 24.8618 3.89075C24.7448 3.68822 24.5818 3.51602 24.386 3.388Z" fill="white"/>
</g>
<defs>
<clipPath id="clip0_4514_3826">
<rect width="153" height="18" fill="white"/>
</clipPath>
</defs>
</svg>
