<svg width="279" height="31" viewBox="0 0 279 31" fill="none" xmlns="http://www.w3.org/2000/svg">
<g clip-path="url(#clip0_1166_4888)">
<path fill-rule="evenodd" clip-rule="evenodd" d="M118.8 15.3001C118.756 17.7002 119.69 20.015 121.388 21.7124C123.085 23.4098 125.4 24.3439 127.8 24.3001C132.771 24.3001 136.8 20.2707 136.8 15.3001C136.898 12.8754 135.985 10.5188 134.278 8.79338C132.572 7.06799 130.226 6.12875 127.8 6.20007C122.816 6.26025 118.805 10.3153 118.8 15.3001ZM122.2 15.3001C122.2 12.1001 124.5 9.10007 127.9 9.10007C131.3 9.10007 133.6 11.6001 133.6 15.3001C133.685 16.8732 133.124 18.4127 132.049 19.5638C130.973 20.7148 129.475 21.3779 127.9 21.4001C124.5 21.5001 122.2 18.9001 122.2 15.3001Z" fill="#282B24"/>
<path fill-rule="evenodd" clip-rule="evenodd" d="M99.1 15.3001C99.0062 17.7146 99.9243 20.0587 101.633 21.7673C103.341 23.4758 105.686 24.3939 108.1 24.3001C110.821 24.3792 113.405 23.1061 115 20.9001L115.1 20.8001L112.6 18.7001L112.5 18.9001C111.634 20.5687 109.878 21.5831 108 21.5001C104.6 21.5001 102.3 18.8001 102.3 15.3001C102.216 13.7175 102.773 12.1677 103.846 11.001C104.918 9.83424 106.416 9.14901 108 9.10012C109.822 9.13322 111.509 10.0702 112.5 11.6001L112.6 11.7001L115.1 9.70012L115 9.60012C113.283 7.50188 110.711 6.28957 108 6.30012C105.62 6.29455 103.338 7.24421 101.665 8.93617C99.9919 10.6281 99.0678 12.9208 99.1 15.3001Z" fill="#282B24"/>
<path fill-rule="evenodd" clip-rule="evenodd" d="M225.9 16.7V23.9H229.1V16.7L235.4 6.69995H231.9L227.5 13.6L223.3 6.69995H219.6L225.9 16.7Z" fill="#282B24"/>
<path fill-rule="evenodd" clip-rule="evenodd" d="M167.4 6.69995V23.9H170.7V17.5C170.9 17.5 171.2 17.6 171.5 17.6C175.7 17.6 178.6 15.8 178.6 12.2C178.6 8.79995 176.1 6.69995 171.4 6.69995H167.4ZM170.7 9.29995H171.5C174.2 9.29995 175.3 10.3 175.3 12.1C175.3 13.9 174.1 14.9 171.5 14.9C171.229 14.9305 170.955 14.8962 170.7 14.8V9.29995Z" fill="#282B24"/>
<path fill-rule="evenodd" clip-rule="evenodd" d="M145.6 14.5999L151 24.3999L156.3 14.5999L158.4 23.8999H161.8L157.3 6.3999L151.1 17.9999L144.7 6.3999L140.4 23.9999H143.6L145.6 14.5999Z" fill="#282B24"/>
<path fill-rule="evenodd" clip-rule="evenodd" d="M57.3 16.8999L45.9 6.3999V23.9999H49V13.7999L60.5 24.3999V6.6999H57.3V16.8999Z" fill="#282B24"/>
<path fill-rule="evenodd" clip-rule="evenodd" d="M35.1 6.69995V23.9H38.4V6.69995H35.1Z" fill="#282B24"/>
<path fill-rule="evenodd" clip-rule="evenodd" d="M30.9 23.9L22.5 6.30005L14.1 23.9H17.4L19.1 20.2H25.7L27.3 23.9H30.9ZM20.3 17.5L22.5 12.5L24.5 17.5H20.3Z" fill="#282B24"/>
<path fill-rule="evenodd" clip-rule="evenodd" d="M8.3 14.8C9.71064 14.1599 10.612 12.749 10.6 11.2C10.6 8.19995 8.2 6.69995 4.1 6.69995H0V23.9H4.9C9.3 23.9 11.7 22.1 11.7 18.9C11.6372 16.9168 10.2373 15.2288 8.3 14.8ZM4.7 16.6C7 16.6 8.3 17.2 8.3 19C8.3 20.6 7.1 21.3 4.7 21.3H3.3V16.6H4.7ZM3.3 14V9.29995H3.9C6.3 9.29995 7.5 9.89995 7.5 11.7C7.5 13.5 6.3 14 4 14H3.3Z" fill="#282B24"/>
<path fill-rule="evenodd" clip-rule="evenodd" d="M85.1 24H88.9C88.9 24 86 20.7 85.5 20.1C85.9 19.6 88.4 15.8 88.4 15.8H85.3L83.8 18.1L81.1 15C83.4 13.8 84.8 12.1 84.8 10.3C84.8 7.90005 82.7 6.30005 80 6.30005C77 6.30005 75 8.10005 75 10.5C75.1073 12.0539 75.7838 13.5136 76.9 14.6C75.1 15.6 73.5 17.1 73.5 19.6C73.5 22.3 75.7 24.4 78.9 24.4C80.7293 24.4314 82.4815 23.6648 83.7 22.3L85.1 24ZM78 10.6C77.9832 10.0646 78.1885 9.54609 78.5673 9.16731C78.946 8.78852 79.4646 8.58322 80 8.60005C80.4976 8.56018 80.9887 8.73346 81.351 9.07675C81.7134 9.42005 81.9129 9.90106 81.9 10.4C81.9 11.6 80.7 12.5 79.5 13.1C78.6883 12.4985 78.1488 11.5992 78 10.6ZM81.9 20.4C81.2538 21.2329 80.2541 21.7142 79.2 21.7C78.5274 21.7657 77.8587 21.5411 77.3621 21.0827C76.8655 20.6243 76.5882 19.9757 76.6 19.3C76.6821 18.1204 77.361 17.0644 78.4 16.5H78.5L81.9 20.4Z" fill="#282B24"/>
<path fill-rule="evenodd" clip-rule="evenodd" d="M212.5 16.8999L201.1 6.3999V23.8999H204.3V13.7999L215.7 24.3999V6.6999H212.5V16.8999Z" fill="#282B24"/>
<path fill-rule="evenodd" clip-rule="evenodd" d="M196.9 23.9L188.5 6.30005L180.1 23.9H183.4L185.1 20.2H191.7L193.3 23.9H196.9ZM186.3 17.5L188.5 12.5L190.5 17.5H186.3Z" fill="#282B24"/>
<path fill-rule="evenodd" clip-rule="evenodd" d="M269.1 16.1L266.3 3.7L258.6 13.7L269.1 16.1ZM279 15.3C279 23.75 272.15 30.6 263.7 30.6C255.25 30.6 248.4 23.75 248.4 15.3C248.4 6.85004 255.25 0 263.7 0C264.503 0.0169498 265.305 0.0837448 266.1 0.2L264.8 1.9H263.7C260.318 1.85732 257.057 3.16152 254.637 5.52509C252.217 7.88867 250.837 11.1176 250.8 14.5C250.8 21.6245 256.576 27.4 263.7 27.4C270.825 27.4 276.6 21.6245 276.6 14.5C276.564 9.27471 273.3 4.61651 268.4 2.8L267.9 0.7C274.46 2.51992 279.001 8.49214 279 15.3Z" fill="#282B24"/>
</g>
<defs>
<clipPath id="clip0_1166_4888">
<rect width="279" height="31" fill="white"/>
</clipPath>
</defs>
</svg>
