<svg width="164" height="24" viewBox="0 0 164 24" fill="none" xmlns="http://www.w3.org/2000/svg">
<path fill-rule="evenodd" clip-rule="evenodd" d="M10.9663 0.131858C6.51584 -0.563456 3.91217 1.62329 0.100159 3.59472L0.338538 4.15152C4.15534 2.86443 8.26395 3.57757 12.4376 4.23037C16.7031 4.89689 19.6397 4.00546 22.6825 1.55746L22.4119 1.09254C19.513 2.07517 14.8105 0.732544 10.9663 0.131858Z" fill="white"/>
<path fill-rule="evenodd" clip-rule="evenodd" d="M14.1698 9.439C17.6805 9.52952 19.9964 8.00586 22.5823 5.92472L22.3124 5.46049C19.4128 6.44312 14.711 5.75123 10.8668 5.15055C6.41637 4.45523 3.81338 5.99055 0 7.96266L0.239064 8.51877C2.87493 7.63009 6.56022 8.42552 8.55082 8.68678C10.5414 8.94872 11.4881 9.36975 14.1698 9.439Z" fill="white"/>
<path fill-rule="evenodd" clip-rule="evenodd" d="M8.71704 23.092H13.9292V8.60352H8.71704V23.092Z" fill="white"/>
<path fill-rule="evenodd" clip-rule="evenodd" d="M25.8154 23.092H21.4774V8.50072H25.8154V12.0315C26.5648 9.31329 28.4376 8.18872 29.9364 8.18872C30.9659 8.18872 31.7455 8.37592 32.4325 8.71946L31.6523 12.6253C30.8721 12.2502 30.1227 12.1878 29.4363 12.1878C26.9395 12.1878 25.8154 14.1565 25.8154 17.9992V23.092Z" fill="white"/>
<path fill-rule="evenodd" clip-rule="evenodd" d="M40.8426 19.2493C42.6222 19.2493 44.3696 17.9684 44.3696 15.7809C44.3696 13.5935 42.6222 12.3126 40.8426 12.3126C39.0321 12.3126 37.1909 13.6875 37.1909 15.7809C37.1909 17.8744 39.0321 19.2493 40.8426 19.2493ZM44.3696 21.436C43.4333 22.8417 41.2488 23.3732 40.1247 23.3732C36.41 23.3732 32.6959 20.4678 32.6959 15.7809C32.6959 11.0941 36.41 8.18872 40.1247 8.18872C41.0611 8.18872 43.2462 8.50072 44.3696 10.1252V8.50072H48.6769V23.092H44.3696V21.436Z" fill="white"/>
<path fill-rule="evenodd" clip-rule="evenodd" d="M58.7214 12.2815C56.8801 12.2815 55.3505 13.6564 55.3505 15.7498C55.3505 17.9057 56.8801 19.2806 58.7214 19.2806C60.5325 19.2806 62.0929 17.8426 62.0929 15.7498C62.0929 13.5624 60.501 12.2815 58.7214 12.2815ZM62.1868 23.0918V21.2801C61.4689 22.6234 59.7208 23.4045 57.9097 23.4045C54.1648 23.4045 50.8569 20.436 50.8569 15.8431C50.8569 11.1569 54.1648 8.18847 57.9097 8.18847C59.7208 8.18847 61.4689 8.93795 62.1868 10.2813V0.564697H66.494V23.0918H62.1868Z" fill="white"/>
<path fill-rule="evenodd" clip-rule="evenodd" d="M79.3636 14.4998C79.1451 12.719 77.5223 12.0004 76.3037 12.0004C75.0879 12.0004 73.4329 12.6566 73.0582 14.4998H79.3636ZM82.9215 20.436C81.4542 22.6234 78.7389 23.4045 76.2729 23.4045C72.091 23.4045 68.6571 20.3428 68.6571 15.7498C68.6571 11.1569 72.091 8.18848 76.2729 8.18848C80.4247 8.18848 83.7332 11.2817 83.7332 15.8746C83.7332 16.2497 83.7017 16.8429 83.6709 17.218H72.9959C73.2144 18.9055 75.0557 19.6557 76.5853 19.6557C77.7717 19.6557 79.0512 19.2175 79.7691 18.2808L82.9215 20.436Z" fill="white"/>
<path fill-rule="evenodd" clip-rule="evenodd" d="M101.69 23.0918H98.0701L95.1979 13.812L92.4517 23.0918H88.8308L83.5557 8.50049H88.176L90.7659 17.1864L93.3251 8.50049H97.0398L99.599 17.1864L102.19 8.50049H106.809L101.69 23.0918Z" fill="white"/>
<path fill-rule="evenodd" clip-rule="evenodd" d="M114.981 19.2493C116.76 19.2493 118.507 17.9684 118.507 15.7809C118.507 13.5935 116.76 12.3126 114.981 12.3126C113.17 12.3126 111.328 13.6875 111.328 15.7809C111.328 17.8744 113.17 19.2493 114.981 19.2493ZM118.507 21.436C117.571 22.8417 115.386 23.3732 114.263 23.3732C110.548 23.3732 106.833 20.4678 106.833 15.7809C106.833 11.0941 110.548 8.18872 114.263 8.18872C115.199 8.18872 117.384 8.50072 118.507 10.1252V8.50072H122.815V23.092H118.507V21.436Z" fill="white"/>
<path fill-rule="evenodd" clip-rule="evenodd" d="M134.567 8.50089V11.9377H131.508V23.0922H127.201V11.9377H124.548V8.50089H127.201V2.9082H131.508V8.50089H134.567Z" fill="white"/>
<path fill-rule="evenodd" clip-rule="evenodd" d="M146.008 14.4998C145.79 12.719 144.167 12.0004 142.949 12.0004C141.733 12.0004 140.078 12.6566 139.703 14.4998H146.008ZM149.566 20.436C148.099 22.6234 145.384 23.4045 142.918 23.4045C138.736 23.4045 135.302 20.3428 135.302 15.7498C135.302 11.1569 138.736 8.18848 142.918 8.18848C147.069 8.18848 150.378 11.2817 150.378 15.8746C150.378 16.2497 150.346 16.8429 150.316 17.218H139.641C139.859 18.9055 141.7 19.6557 143.23 19.6557C144.416 19.6557 145.696 19.2175 146.414 18.2808L149.566 20.436Z" fill="white"/>
<path fill-rule="evenodd" clip-rule="evenodd" d="M156.808 23.092H152.47V8.50072H156.808V12.0315C157.558 9.31329 159.43 8.18872 160.929 8.18872C161.958 8.18872 162.738 8.37592 163.425 8.71946L162.645 12.6253C161.864 12.2502 161.116 12.1878 160.429 12.1878C157.932 12.1878 156.808 14.1565 156.808 17.9992V23.092Z" fill="white"/>
</svg>
