<svg width="224" height="228" viewBox="0 0 224 228" fill="none" xmlns="http://www.w3.org/2000/svg">
<g clip-path="url(#clip0_622_2074)">
<path d="M2.98269 85.2774L1.4582 90.8835L0 90.4877L3.46323 77.7588L4.92144 78.1545L3.39695 83.744L18.0784 87.7012L17.6642 89.2511L2.98269 85.2939V85.2774Z" fill="black"/>
<path d="M15.8248 83.3647C13.9358 82.6557 13.0741 80.875 13.7867 78.4018L14.9466 74.2632L14.2672 74.0159C12.7261 73.4388 11.2017 73.9829 10.456 75.978C9.76002 77.8412 10.2074 79.1932 11.7319 79.8692L11.2017 81.2707C9.11378 80.3803 8.05326 78.2369 9.0972 75.4668C10.1411 72.6968 12.4113 71.658 14.8306 72.5649L19.984 74.494L22.3536 75.302L21.8068 76.7364L19.9509 76.0604L19.9177 76.1429C21.0611 77.5279 21.1771 79.1602 20.5143 80.908C19.6526 83.1834 17.7636 84.0737 15.8083 83.3482L15.8248 83.3647ZM19.3046 80.2649C20.1332 78.0555 19.2549 75.8626 16.1894 74.7249H16.1728L15.0792 78.5996C14.5986 80.3474 15.162 81.4521 16.3717 81.8973C17.631 82.3754 18.7412 81.7983 19.3212 80.2484L19.3046 80.2649Z" fill="black"/>
<path d="M8.56695 65.5905L9.24634 64.189L24.3255 71.3614L23.6461 72.7629L8.56695 65.5905Z" fill="black"/>
<path d="M11.2679 60.0997L12.0633 58.7641L21.8068 64.4526L21.8731 64.3537L19.2383 55.7303L20.2657 53.999L22.2873 60.7262L30.8211 59.7864L29.8269 61.4682L22.7016 62.1607L23.729 65.5738L26.4631 67.1732L25.6677 68.5087L11.2679 60.0997Z" fill="black"/>
<path d="M33.721 51.7567L27.507 46.6783L25.9991 48.5085L24.9055 47.6181L26.4134 45.7879L23.8615 43.7104L24.8557 42.5067L27.4076 44.5843L29.3464 42.2429L30.44 43.1333L28.5013 45.4746L34.5661 50.4211C35.3117 51.0312 35.9414 50.9487 36.5711 50.1738L37.7145 48.7723L38.8413 49.6956L37.5653 51.2455C36.422 52.647 35.0135 52.7789 33.7375 51.7402L33.721 51.7567Z" fill="black"/>
<path d="M34.9969 44.7493C32.3291 42.0782 32.2131 38.6651 34.6655 36.2414C37.1179 33.8176 40.5646 33.966 43.2159 36.6371C45.8671 39.3082 45.9997 42.7213 43.5473 45.145C41.0948 47.5688 37.6482 47.4204 34.9969 44.7493ZM42.5199 44.1063C44.4255 42.2266 44.1272 39.8358 42.0559 37.7583C40.0012 35.6972 37.5819 35.384 35.6929 37.2471C33.7707 39.1433 34.1021 41.5011 36.1734 43.5786C38.2281 45.6397 40.6143 45.9859 42.5199 44.1063Z" fill="black"/>
<path d="M49.7943 31.2617C47.6899 28.1289 48.2202 24.7488 51.1034 22.8362C53.9867 20.9235 57.3174 21.7315 59.4218 24.8642C61.5263 27.997 60.996 31.3771 58.1127 33.2898C55.2295 35.2024 51.8988 34.3945 49.7943 31.2782V31.2617ZM57.3008 32.0696C59.5212 30.5857 59.6869 28.1784 58.063 25.7546C56.4391 23.3308 54.1358 22.5724 51.8988 24.0398C49.6618 25.5238 49.5292 27.9146 51.1531 30.3383C52.777 32.7621 55.0472 33.5536 57.2842 32.0696H57.3008Z" fill="black"/>
<path d="M73.4073 24.5676L72.0154 25.2601L71.2863 23.7762L71.1869 23.8257C70.9714 25.3426 70.0932 26.5297 68.6019 27.2552C66.166 28.4424 63.8958 27.585 62.5868 24.9469L59.223 18.1537L60.6149 17.4612L63.7964 23.9081C64.8569 26.0351 66.3317 26.7771 68.0882 25.9197C70.1264 24.9139 70.9549 23.1332 69.2481 19.6706L66.6963 14.4933L68.0882 13.8008L73.4073 24.5676Z" fill="black"/>
<path d="M72.0651 12.2342L73.5233 11.7066L74.1695 13.4873L74.2855 13.4543C74.5175 12.0528 75.3129 10.7668 77.2351 10.0742L77.9973 9.79395L78.5442 11.2614L77.4339 11.6736C75.2466 12.465 74.5507 14.4601 75.6443 17.461L77.6659 22.9846L76.2077 23.5122L72.0817 12.2342H72.0651Z" fill="black"/>
<path d="M87.7905 13.4874C87.0945 9.76104 89.0499 6.87559 92.364 6.26553C95.1809 5.75439 97.6002 7.07345 98.4785 9.69509L97.0203 10.2062C96.2912 8.29359 94.7998 7.30429 92.6291 7.70001C90.0938 8.16168 88.8842 10.3381 89.4144 13.1906C89.9447 16.0431 91.8503 17.6424 94.3856 17.1808C96.606 16.7686 97.5671 15.3341 97.5837 13.2895H99.1413C99.2407 16.0101 97.5174 18.0876 94.6341 18.6153C91.2703 19.2253 88.4699 17.1808 87.7739 13.4874H87.7905Z" fill="black"/>
<path d="M100.517 0.7419L102.074 0.593506L103.615 17.1477L102.058 17.2961L100.517 0.7419Z" fill="black"/>
<path d="M107.161 -0.000113277C107.791 -0.0330898 108.222 0.412094 108.255 0.989184C108.272 1.54979 107.874 2.02795 107.244 2.04443C106.598 2.07741 106.151 1.63223 106.134 1.07163C106.117 0.494535 106.515 0.016375 107.161 -0.0166016V-0.000113277ZM106.565 4.92988L108.123 4.86393L108.62 16.8674L107.062 16.9334L106.565 4.92988Z" fill="black"/>
<path d="M112.414 4.48486L113.972 4.60028L113.856 6.03476H113.972C114.767 5.04547 115.96 4.48486 117.485 4.60028C119.341 4.74868 120.501 5.73797 120.932 7.02406H121.031C121.926 5.73797 123.268 5.04547 125.024 5.19386C127.46 5.39172 128.968 7.13948 128.769 9.72814L128.14 17.7579L126.582 17.6425L127.179 10.0414C127.344 7.96389 126.516 6.72727 124.743 6.57888C122.754 6.43048 121.346 7.40329 121.081 10.7669L120.567 17.1644L119.009 17.0489L119.606 9.44784C119.772 7.37031 118.91 6.13369 117.17 5.9853C115.182 5.8369 113.773 6.80971 113.508 10.1733L112.994 16.5708L111.437 16.4554L112.381 4.48486H112.414Z" fill="black"/>
<path d="M130.592 15.1362C131.073 13.1906 132.73 12.1189 135.298 12.5146L139.573 13.1576L139.739 12.4651C140.12 10.8658 139.391 9.44776 137.32 8.93662C135.381 8.47495 134.072 9.08502 133.591 10.6844L132.117 10.3381C132.746 8.16167 134.751 6.8591 137.651 7.55161C140.551 8.24412 141.843 10.3546 141.247 12.8443L139.954 18.1701L139.441 20.6103L137.949 20.2476L138.397 18.3349H138.314C137.071 19.6045 135.464 19.9343 133.624 19.4891C131.255 18.9285 130.128 17.1478 130.609 15.1362H130.592ZM134.105 18.1866C136.408 18.7307 138.48 17.593 139.242 14.4272L135.232 13.8007C133.426 13.5369 132.398 14.2459 132.1 15.466C131.785 16.7686 132.498 17.7908 134.105 18.1701V18.1866Z" fill="black"/>
<path d="M143.617 19.3078L146.268 11.7561L144.031 10.9812L144.495 9.64565L146.732 10.4206L147.825 7.3208L149.3 7.83194L148.207 10.9317L151.073 11.9375L150.609 13.2731L147.726 12.2673L145.141 19.6375C144.826 20.5609 145.124 21.105 146.069 21.4348L147.776 22.0284L147.295 23.3969L145.39 22.7373C143.683 22.1438 143.07 20.8742 143.6 19.3243L143.617 19.3078Z" fill="black"/>
<path d="M150.692 18.1207C152.349 14.6087 155.647 13.4875 158.563 14.856C161.413 16.1751 162.49 19.176 160.883 22.589L160.651 23.0672L152.034 19.0606C150.99 21.4843 151.487 23.8257 153.791 24.8974C155.564 25.7218 156.923 25.4415 158.281 24.106L159.425 25.1282C157.751 26.9255 155.63 27.3542 153.178 26.2165C150.129 24.7985 149.101 21.5338 150.692 18.1207ZM159.69 21.0886C160.469 19.11 159.889 17.082 157.933 16.1586C156.177 15.3507 154.106 15.7134 152.681 17.8239L159.69 21.0886Z" fill="black"/>
<path d="M168.075 27.1231C170.361 23.9904 173.808 23.5122 176.41 25.3919C178.945 27.2221 179.442 30.3713 177.221 33.4217L176.907 33.8504L169.218 28.2938C167.743 30.4703 167.776 32.8611 169.848 34.3615C171.422 35.4992 172.814 35.4827 174.405 34.4274L175.332 35.6311C173.361 37.0821 171.173 37.115 169.003 35.5322C166.268 33.5536 165.887 30.1735 168.108 27.1231H168.075ZM176.36 31.7399C177.503 29.9426 177.321 27.8321 175.564 26.579C174.007 25.4578 171.902 25.4248 170.096 27.2221L176.36 31.7399Z" fill="black"/>
<path d="M181.414 37.2964L182.077 29.9426L183.518 31.2617L182.988 37.214L188.904 36.2082L190.262 37.4613L182.955 38.6649L182.292 46.4969L180.834 45.1613L181.381 38.7474L175.117 39.9016L173.725 38.6155L181.43 37.3129L181.414 37.2964Z" fill="black"/>
<path d="M192.466 39.8191L193.461 41.0063L192.069 42.1604L192.135 42.2429C193.577 42.0945 195.134 42.5726 196.377 44.0566C198.515 46.5958 198.017 49.9264 195.118 52.3337C192.218 54.741 188.837 54.6421 186.716 52.1194C185.457 50.6354 185.275 49.036 185.656 47.6345L185.59 47.5521L180.635 51.6577L179.641 50.4705L192.45 39.8191H192.466ZM187.711 51.0641C189.351 53.0097 191.77 52.9767 194.057 51.0641C196.36 49.1515 196.824 46.8101 195.184 44.848C193.461 42.8035 191.058 42.9354 188.804 44.815C186.518 46.7112 185.987 49.0196 187.711 51.0641Z" fill="black"/>
<path d="M196.493 54.2464C199.791 52.1854 203.171 53.0098 204.878 55.7139C206.551 58.352 205.839 61.4683 202.641 63.4634L202.193 63.7436L197.123 55.7303C194.935 57.2143 194.074 59.4402 195.449 61.6002C196.493 63.249 197.802 63.7436 199.658 63.3479L200.072 64.8154C197.686 65.4255 195.664 64.6505 194.223 62.3751C192.417 59.5391 193.328 56.2415 196.51 54.2299L196.493 54.2464ZM202.475 61.5837C204.198 60.3306 204.811 58.319 203.651 56.4888C202.624 54.8565 200.685 54.0485 198.332 55.0708L202.475 61.5837Z" fill="black"/>
<path d="M209.203 63.7108L209.882 65.0958L208.175 65.9203L208.225 66.0192C209.65 66.1016 211.009 66.7447 211.904 68.5749L212.268 69.3003L210.843 69.9929L210.329 68.9376C209.302 66.8601 207.231 66.3819 204.364 67.7669L199.045 70.3556L198.365 68.9706L209.203 63.6943V63.7108Z" fill="black"/>
<path d="M204.861 76.9013L212.384 74.0323L211.539 71.8229L212.865 71.3118L213.71 73.5212L216.792 72.3505L217.355 73.8015L214.273 74.9722L215.367 77.8081L214.041 78.3193L212.947 75.4833L205.623 78.2863C204.712 78.6326 204.497 79.2097 204.845 80.1495L205.491 81.8313L204.132 82.3589L203.403 80.4793C202.757 78.7975 203.337 77.5114 204.861 76.9178V76.9013Z" fill="black"/>
<path d="M207.811 82.3424L208.623 83.7275C207.098 84.6673 206.518 85.9699 207.048 87.8825C207.612 89.9271 208.739 90.6855 209.899 90.3558C210.942 90.059 211.556 89.2016 211.324 87.7836L210.959 85.2444C210.694 83.2328 211.44 81.7818 213.246 81.2707C214.969 80.7925 216.908 81.7324 217.67 84.4859C218.349 86.9427 217.554 88.8553 215.731 89.993L214.903 88.6904C216.228 87.7671 216.726 86.5964 216.245 84.8816C215.731 83.035 214.654 82.4579 213.627 82.7547C212.616 83.035 212.218 83.9088 212.401 85.0795L212.732 87.5857C213.08 89.9435 212.185 91.3121 210.28 91.8397C208.357 92.3673 206.452 91.3121 205.607 88.2782C204.878 85.6731 205.656 83.678 207.761 82.3589L207.811 82.3424Z" fill="black"/>
<path d="M221.05 142.08L222.542 136.457L224 136.836L220.62 149.582L219.161 149.202L220.653 143.613L205.955 139.755L206.369 138.205L221.05 142.063V142.08Z" fill="black"/>
<path d="M208.208 144.091C210.097 144.784 210.976 146.564 210.28 149.038L209.136 153.176L209.816 153.424C211.357 153.984 212.881 153.424 213.61 151.445C214.306 149.582 213.842 148.23 212.301 147.57L212.832 146.152C214.936 147.026 215.996 149.17 214.969 151.94C213.942 154.71 211.672 155.765 209.252 154.875L204.099 152.978L201.729 152.187L202.26 150.752L204.115 151.412L204.149 151.33C203.005 149.945 202.873 148.312 203.519 146.564C204.364 144.289 206.253 143.382 208.208 144.091ZM204.762 147.208C203.933 149.417 204.845 151.61 207.91 152.731H207.927L209.004 148.84C209.484 147.092 208.904 145.987 207.695 145.559C206.435 145.097 205.325 145.674 204.762 147.224V147.208Z" fill="black"/>
<path d="M215.582 161.816L214.919 163.218L199.807 156.128L200.47 154.726L215.582 161.816Z" fill="black"/>
<path d="M212.914 167.34L212.136 168.675L202.359 163.036L202.293 163.135L204.977 171.742L203.966 173.49L201.895 166.762L193.361 167.752L194.339 166.07L201.464 165.344L200.42 161.931L197.669 160.348L198.448 159.013L212.898 167.34H212.914Z" fill="black"/>
<path d="M190.528 175.814L196.791 180.86L198.283 179.03L199.376 179.92L197.885 181.75L200.437 183.811L199.459 185.015L196.907 182.954L194.985 185.312L193.891 184.421L195.814 182.064L189.716 177.15C188.953 176.54 188.34 176.639 187.711 177.414L186.567 178.815L185.424 177.892L186.7 176.326C187.843 174.924 189.252 174.776 190.528 175.814Z" fill="black"/>
<path d="M189.301 182.806C191.986 185.46 192.135 188.873 189.683 191.314C187.247 193.754 183.8 193.622 181.132 190.967C178.448 188.313 178.299 184.9 180.751 182.459C183.187 180.019 186.634 180.151 189.301 182.806ZM181.795 183.482C179.906 185.361 180.221 187.769 182.292 189.813C184.363 191.858 186.783 192.171 188.672 190.275C190.577 188.379 190.229 186.004 188.158 183.96C186.087 181.915 183.701 181.569 181.795 183.482Z" fill="black"/>
<path d="M174.57 196.408C176.691 199.525 176.178 202.905 173.311 204.834C170.444 206.763 167.097 205.972 164.976 202.855C162.855 199.739 163.369 196.359 166.235 194.43C169.102 192.501 172.449 193.292 174.57 196.408ZM167.047 195.633C164.827 197.117 164.678 199.541 166.318 201.948C167.959 204.356 170.262 205.114 172.482 203.63C174.719 202.13 174.835 199.739 173.195 197.332C171.554 194.924 169.284 194.133 167.047 195.65V195.633Z" fill="black"/>
<path d="M150.99 203.251L152.382 202.559L153.128 204.043L153.227 203.993C153.426 202.476 154.321 201.289 155.796 200.547C158.232 199.343 160.502 200.201 161.828 202.822L165.224 209.599L163.833 210.292L160.601 203.861C159.541 201.734 158.049 200.992 156.293 201.866C154.255 202.872 153.443 204.686 155.166 208.132L157.751 213.292L156.359 213.985L150.974 203.251H150.99Z" fill="black"/>
<path d="M152.415 215.568L150.957 216.112L150.294 214.331L150.178 214.364C149.963 215.766 149.168 217.052 147.262 217.761L146.5 218.041L145.953 216.574L147.063 216.161C149.25 215.354 149.93 213.358 148.82 210.374L146.765 204.851L148.223 204.306L152.415 215.551V215.568Z" fill="black"/>
<path d="M136.707 214.414C137.419 218.123 135.497 221.025 132.183 221.668C129.382 222.196 126.947 220.894 126.035 218.272L127.493 217.761C128.239 219.657 129.73 220.646 131.901 220.234C134.436 219.756 135.63 217.579 135.083 214.727C134.536 211.874 132.614 210.292 130.095 210.77C127.875 211.182 126.93 212.633 126.913 214.677H125.356C125.24 211.973 126.947 209.879 129.83 209.335C133.194 208.692 136.011 210.72 136.723 214.414H136.707Z" fill="black"/>
<path d="M124.014 227.225L122.456 227.373L120.816 210.836L122.373 210.687L124.014 227.225Z" fill="black"/>
<path d="M117.999 223.07L116.441 223.136L115.861 211.149L117.419 211.083L117.999 223.07ZM117.435 228C116.805 228.033 116.375 227.588 116.341 227.011C116.308 226.467 116.706 225.972 117.336 225.955C117.982 225.922 118.429 226.368 118.446 226.912C118.479 227.489 118.081 227.967 117.435 228Z" fill="black"/>
<path d="M112.099 223.548L110.542 223.433L110.641 221.998H110.525C109.73 223.004 108.537 223.565 107.012 223.449C105.156 223.317 103.996 222.328 103.549 221.042H103.45C102.555 222.344 101.229 223.02 99.4727 222.905C97.0368 222.724 95.5124 220.976 95.6946 218.387L96.2912 210.357L97.8488 210.473L97.2854 218.074C97.1363 220.151 97.9814 221.388 99.7378 221.52C101.726 221.668 103.135 220.679 103.383 217.315L103.847 210.918L105.405 211.033L104.842 218.635C104.692 220.712 105.554 221.949 107.294 222.081C109.282 222.229 110.691 221.24 110.939 217.876L111.403 211.479L112.961 211.594L112.083 223.565L112.099 223.548Z" fill="black"/>
<path d="M93.8885 213.012C93.4245 214.974 91.7674 216.046 89.199 215.667L84.9238 215.04L84.7581 215.733C84.377 217.332 85.1227 218.75 87.2105 219.245C89.1493 219.706 90.4584 219.08 90.9223 217.48L92.3971 217.827C91.784 220.003 89.779 221.322 86.8957 220.646C83.9959 219.97 82.6868 217.86 83.2668 215.37L84.5261 210.044L85.0232 207.604L86.5146 207.95L86.0837 209.863H86.1666C87.4094 208.593 89.0167 208.247 90.8395 208.676C93.2091 209.236 94.3524 210.984 93.8719 213.012H93.8885ZM90.3424 209.978C88.0391 209.434 85.9678 210.588 85.2221 213.754L89.2321 214.364C91.0383 214.612 92.0657 213.903 92.3474 212.682C92.6457 211.38 91.9331 210.358 90.3258 209.978H90.3424Z" fill="black"/>
<path d="M80.8309 208.923L78.2128 216.508L80.4498 217.266L79.9858 218.602L77.7488 217.843L76.6717 220.943L75.1969 220.448L76.274 217.349L73.3907 216.359L73.8547 215.024L76.738 216.013L79.2898 208.626C79.6047 207.703 79.2898 207.159 78.3619 206.846L76.6386 206.268L77.1191 204.9L79.0247 205.559C80.748 206.137 81.3612 207.406 80.8309 208.956V208.923Z" fill="black"/>
<path d="M73.805 210.16C72.1811 213.688 68.8836 214.81 65.9672 213.474C63.117 212.171 62.0234 209.171 63.5976 205.757L63.813 205.279L72.4462 209.236C73.4736 206.813 72.9599 204.471 70.64 203.4C68.867 202.592 67.5082 202.872 66.166 204.224L65.0226 203.218C66.6797 201.405 68.8007 200.959 71.2531 202.081C74.3187 203.482 75.3626 206.747 73.7884 210.16H73.805ZM64.7906 207.258C64.0284 209.236 64.6249 211.265 66.5803 212.171C68.3367 212.979 70.3915 212.6 71.8165 210.49L64.7906 207.258Z" fill="black"/>
<path d="M56.3066 201.256C54.0364 204.405 50.5897 204.9 47.9882 203.037C45.4363 201.223 44.9392 198.074 47.1431 195.007L47.4579 194.578L55.1798 200.085C56.638 197.892 56.6048 195.502 54.5169 194.018C52.9262 192.88 51.5343 192.913 49.9601 193.985L49.0321 192.781C51.004 191.314 53.1747 191.281 55.362 192.847C58.0962 194.809 58.5104 198.189 56.3066 201.256ZM48.0047 196.689C46.8779 198.502 47.0768 200.596 48.8333 201.85C50.4075 202.971 52.4953 202.987 54.3015 201.174L48.0047 196.689Z" fill="black"/>
<path d="M42.901 191.165L42.2879 198.519L40.8463 197.216L41.3434 191.264L35.4443 192.303L34.0689 191.05L41.3765 189.813L41.9896 181.981L43.4478 183.3L42.9342 189.714L49.1978 188.527L50.6063 189.813L42.901 191.165Z" fill="black"/>
<path d="M31.8485 188.708L30.8377 187.521L32.213 186.351L32.1468 186.268C30.7051 186.433 29.1475 185.955 27.8881 184.487C25.734 181.965 26.2145 178.618 29.0978 176.194C31.9811 173.753 35.378 173.852 37.499 176.359C38.7584 177.843 38.9572 179.442 38.5761 180.843L38.659 180.926L43.5804 176.771L44.5912 177.958L31.8485 188.692V188.708ZM36.5214 177.43C34.8643 175.485 32.4616 175.551 30.1749 177.48C27.8881 179.409 27.4407 181.767 29.0812 183.712C30.8046 185.74 33.2073 185.592 35.4609 183.712C37.731 181.8 38.2447 179.491 36.5214 177.447V177.43Z" fill="black"/>
<path d="M27.739 174.331C24.4581 176.425 21.0611 175.6 19.3378 172.913C17.6476 170.275 18.3435 167.175 21.5251 165.147L21.9725 164.866L27.0928 172.847C29.2635 171.346 30.1086 169.12 28.7332 166.96C27.6727 165.328 26.3802 164.833 24.5243 165.246L24.1101 163.778C26.4797 163.152 28.5178 163.91 29.976 166.169C31.7988 168.988 30.9206 172.303 27.739 174.331ZM21.7239 167.026C20.0006 168.279 19.4041 170.308 20.564 172.121C21.6079 173.737 23.5467 174.529 25.8997 173.506L21.7239 167.01V167.026Z" fill="black"/>
<path d="M14.9797 164.949L14.2838 163.564L15.9905 162.723L15.9408 162.624C14.5158 162.558 13.157 161.915 12.2456 160.085L11.8811 159.359L13.2895 158.667L13.8198 159.722C14.8472 161.8 16.9351 162.261 19.8017 160.86L25.1043 158.238L25.8003 159.623L14.9963 164.965L14.9797 164.949Z" fill="black"/>
<path d="M19.2218 151.709L11.7153 154.627L12.577 156.82L11.2514 157.331L10.3897 155.138L7.32416 156.325L6.76077 154.874L9.82631 153.687L8.71608 150.868L10.0417 150.357L11.1519 153.176L18.4595 150.34C19.3709 149.994 19.5863 149.4 19.2218 148.477L18.559 146.795L19.9177 146.268L20.6468 148.147C21.3097 149.829 20.7463 151.115 19.2052 151.709H19.2218Z" fill="black"/>
<path d="M16.2557 146.284L15.4271 144.899C16.9351 143.943 17.515 142.657 16.9682 140.744C16.3882 138.699 15.2614 137.957 14.1015 138.287C13.0576 138.584 12.461 139.441 12.693 140.876L13.0741 143.415C13.3558 145.427 12.6102 146.894 10.804 147.405C9.08064 147.883 7.14189 146.976 6.34651 144.206C5.65054 141.75 6.42936 139.837 8.25211 138.699L9.08064 140.002C7.755 140.925 7.27445 142.096 7.755 143.811C8.28525 145.657 9.36234 146.218 10.3897 145.938C11.4005 145.657 11.7982 144.767 11.5994 143.596L11.2514 141.09C10.9034 138.732 11.7816 137.364 13.6707 136.82C15.5928 136.276 17.4985 137.331 18.3601 140.348C19.1058 142.953 18.3601 144.948 16.2391 146.284H16.2557Z" fill="black"/>
<path d="M7.88756 121.568C6.42935 121.568 5.07057 120.777 4.3249 119.507C3.89407 118.765 3.18154 118.04 2.45243 117.611C1.20965 116.852 0.430832 115.484 0.430832 114.016C0.430832 112.549 1.20965 111.164 2.45243 110.422C3.16496 109.993 3.89407 109.251 4.3249 108.526C5.07057 107.256 6.42935 106.465 7.88756 106.465C9.34576 106.465 10.7211 107.256 11.4502 108.526C11.881 109.251 12.5936 109.977 13.3227 110.422C14.5655 111.18 15.3443 112.549 15.3443 114.016C15.3443 115.484 14.5655 116.869 13.3227 117.611C12.6101 118.04 11.881 118.782 11.4502 119.507C10.7045 120.777 9.34576 121.568 7.88756 121.568ZM7.88756 108.114C7.00932 108.114 6.21394 108.575 5.74996 109.35C5.18657 110.323 4.27519 111.246 3.3141 111.824C2.55186 112.285 2.08788 113.11 2.08788 114.016C2.08788 114.923 2.55186 115.748 3.3141 116.209C4.27519 116.787 5.18657 117.71 5.74996 118.683C6.19737 119.458 7.00932 119.919 7.88756 119.919C8.76579 119.919 9.57775 119.441 10.0252 118.683C10.5885 117.71 11.4999 116.787 12.461 116.209C13.2233 115.748 13.6872 114.923 13.6872 114.016C13.6872 113.11 13.2233 112.285 12.461 111.824C11.4999 111.246 10.5885 110.323 10.0252 109.35C9.57775 108.592 8.76579 108.114 7.88756 108.114Z" fill="#161814"/>
<path d="M216.096 121.568C214.638 121.568 213.279 120.777 212.533 119.507C212.102 118.782 211.39 118.056 210.661 117.611C209.418 116.852 208.639 115.484 208.639 114.016C208.639 112.549 209.418 111.164 210.661 110.422C211.373 109.993 212.102 109.251 212.533 108.526C213.279 107.256 214.638 106.465 216.096 106.465C217.554 106.465 218.929 107.256 219.659 108.526C220.089 109.251 220.802 109.977 221.531 110.422C222.774 111.18 223.553 112.549 223.553 114.016C223.553 115.484 222.774 116.869 221.531 117.611C220.818 118.04 220.089 118.782 219.659 119.507C218.913 120.777 217.554 121.568 216.096 121.568ZM216.096 108.114C215.218 108.114 214.406 108.592 213.958 109.35C213.395 110.323 212.484 111.246 211.522 111.824C210.76 112.285 210.296 113.126 210.296 114.016C210.296 114.907 210.76 115.748 211.522 116.209C212.484 116.787 213.395 117.71 213.958 118.683C214.406 119.441 215.218 119.919 216.096 119.919C216.974 119.919 217.769 119.458 218.233 118.683C218.797 117.71 219.708 116.787 220.669 116.209C221.432 115.748 221.896 114.923 221.896 114.016C221.896 113.11 221.432 112.285 220.669 111.824C219.708 111.246 218.797 110.323 218.233 109.35C217.786 108.575 216.974 108.114 216.096 108.114Z" fill="#161814"/>
</g>
<defs>
<clipPath id="clip0_622_2074">
<rect width="224" height="228" fill="white"/>
</clipPath>
</defs>
</svg>
