<svg width="248" height="248" viewBox="0 0 248 248" fill="none" xmlns="http://www.w3.org/2000/svg">
<path d="M70.4275 30.274C61.0966 45.9774 45.9774 61.0966 30.274 70.4275C12.1478 81.198 0 100.975 0 123.59C0 146.204 12.1478 165.981 30.274 176.752C45.9774 186.083 61.0966 201.202 70.4276 216.906C81.1981 235.032 100.975 247.18 123.59 247.18C146.204 247.18 165.982 235.032 176.752 216.906C186.083 201.202 201.202 186.083 216.906 176.752C235.032 165.981 247.18 146.204 247.18 123.59C247.18 100.975 235.032 81.1981 216.906 70.4276C201.202 61.0966 186.083 45.9773 176.752 30.2739C165.982 12.1477 146.204 0 123.59 0C100.975 0 81.1981 12.1478 70.4275 30.274Z" fill="#161814"/>
</svg>
