<svg width="525" height="471" viewBox="0 0 525 471" fill="none" xmlns="http://www.w3.org/2000/svg">
<path d="M433.033 195.367C434.192 199.119 435.221 202.881 436.122 206.646C448.907 260.06 436.014 314.336 404.771 355.596M409.363 146.565C376.829 99.5191 323.233 70.8442 266.121 69.8054M214.177 76.602C212.876 76.9723 211.576 77.358 210.276 77.7593C151.452 95.9319 108.818 141.796 92.2694 196.614M84.7027 245.41C84.4477 263.619 87.0031 282.176 92.6685 300.515C106.604 345.624 136.823 381.212 174.877 402.818M206.307 416.86C240.452 428.322 278.384 429.566 315.425 418.123C337.013 411.454 356.421 401.055 373.159 387.852" stroke="white" stroke-width="0.625" stroke-linecap="round"/>
<path d="M211.75 80.8215L214.291 76.5193L209.767 74.3995" stroke="white" stroke-width="0.625" stroke-linecap="round"/>
<path d="M88.0356 248.82L84.729 245.075L81.3149 248.723" stroke="white" stroke-width="0.625" stroke-linecap="round"/>
<path d="M210.556 414.568L205.972 416.556L208.386 420.93" stroke="white" stroke-width="0.625" stroke-linecap="round"/>
<path d="M404.182 351.07L404.656 356.044L409.562 355.1" stroke="white" stroke-width="0.625" stroke-linecap="round"/>
<path d="M404.68 145.211L409.557 146.298L410.175 141.34" stroke="white" stroke-width="0.625" stroke-linecap="round"/>
<path d="M200.897 232.15C198.422 232.15 196.747 230.25 196.747 227.488C196.747 224.713 198.434 222.85 200.897 222.85C202.984 222.85 204.384 224.063 204.722 226.125L203.859 226.263C203.547 224.75 202.647 223.675 200.909 223.675C198.859 223.675 197.672 225.188 197.672 227.488C197.672 229.788 198.859 231.325 200.909 231.325C202.647 231.325 203.509 230.263 203.847 228.725L204.697 228.913C204.359 230.95 202.959 232.15 200.897 232.15ZM208.928 232.15C207.066 232.15 205.816 230.788 205.816 228.75C205.816 226.713 207.066 225.35 208.928 225.35C210.791 225.35 212.041 226.713 212.041 228.75C212.041 230.788 210.791 232.15 208.928 232.15ZM206.703 228.75C206.703 230.325 207.478 231.363 208.928 231.363C210.366 231.363 211.166 230.325 211.166 228.75C211.166 227.175 210.366 226.138 208.928 226.138C207.478 226.138 206.703 227.175 206.703 228.75ZM213.55 232V225.5H214.388V226.525H214.45C214.825 225.85 215.463 225.35 216.563 225.35H217V226.2H216.363C215.113 226.2 214.388 227.088 214.388 228.813V232H213.55ZM218.177 234.5V225.5H219.014V226.475H219.077C219.514 225.825 220.252 225.35 221.289 225.35C223.077 225.35 224.289 226.713 224.289 228.75C224.289 230.788 223.077 232.15 221.302 232.15C220.252 232.15 219.527 231.675 219.077 231.025H219.014V234.5H218.177ZM218.989 228.75C218.989 230.35 219.764 231.375 221.202 231.375C222.577 231.375 223.389 230.363 223.389 228.75C223.389 227.138 222.577 226.125 221.202 226.125C219.764 226.125 218.989 227.163 218.989 228.75ZM228.582 232.15C226.719 232.15 225.469 230.788 225.469 228.75C225.469 226.713 226.719 225.35 228.582 225.35C230.444 225.35 231.694 226.713 231.694 228.75C231.694 230.788 230.444 232.15 228.582 232.15ZM226.357 228.75C226.357 230.325 227.132 231.363 228.582 231.363C230.019 231.363 230.819 230.325 230.819 228.75C230.819 227.175 230.019 226.138 228.582 226.138C227.132 226.138 226.357 227.175 226.357 228.75ZM233.204 232V225.5H234.041V226.525H234.104C234.479 225.85 235.116 225.35 236.216 225.35H236.654V226.2H236.016C234.766 226.2 234.041 227.088 234.041 228.813V232H233.204ZM239.239 232.15C237.927 232.15 237.114 231.363 237.114 230.238C237.114 229.15 237.852 228.375 239.239 228.263L241.552 228.063V227.675C241.552 226.788 240.989 226.125 239.839 226.125C238.764 226.125 238.164 226.613 238.114 227.513H237.302C237.352 226.288 238.239 225.35 239.839 225.35C241.439 225.35 242.389 226.3 242.389 227.688V230.65L242.427 232H241.602L241.589 230.938H241.539C241.052 231.775 240.252 232.15 239.239 232.15ZM237.952 230.225C237.952 230.95 238.452 231.4 239.339 231.4C240.614 231.4 241.552 230.538 241.552 228.775V228.763L239.377 228.95C238.402 229.038 237.952 229.538 237.952 230.225ZM246.03 232.025C245.055 232.025 244.517 231.488 244.517 230.6V226.263H243.242V225.5H244.517V223.725H245.355V225.5H246.992V226.263H245.355V230.488C245.355 231.013 245.605 231.238 246.142 231.238H247.117V232.025H246.03ZM250.809 232.15C248.997 232.15 247.747 230.788 247.747 228.75C247.747 226.65 249.097 225.35 250.822 225.35C252.509 225.35 253.722 226.575 253.722 228.613V228.9H248.609C248.659 230.325 249.434 231.363 250.809 231.363C251.859 231.363 252.459 230.913 252.809 229.95L253.597 230.188C253.197 231.45 252.259 232.15 250.809 232.15ZM248.647 228.15H252.809C252.734 227 251.984 226.138 250.822 226.138C249.784 226.138 248.859 226.788 248.647 228.15ZM261.175 232.15C259.337 232.15 258.05 230.788 258.05 228.75C258.05 226.7 259.362 225.35 261.175 225.35C262.712 225.35 263.862 226.288 264.075 227.775L263.25 227.9C263.05 226.813 262.362 226.138 261.175 226.138C259.787 226.138 258.937 227.175 258.937 228.75C258.937 230.325 259.787 231.363 261.175 231.363C262.387 231.363 263.037 230.688 263.25 229.6L264.075 229.763C263.862 231.213 262.75 232.15 261.175 232.15ZM267.169 232.15C265.856 232.15 265.044 231.363 265.044 230.238C265.044 229.15 265.781 228.375 267.169 228.263L269.481 228.063V227.675C269.481 226.788 268.919 226.125 267.769 226.125C266.694 226.125 266.094 226.613 266.044 227.513H265.231C265.281 226.288 266.169 225.35 267.769 225.35C269.369 225.35 270.319 226.3 270.319 227.688V230.65L270.356 232H269.531L269.519 230.938H269.469C268.981 231.775 268.181 232.15 267.169 232.15ZM265.881 230.225C265.881 230.95 266.381 231.4 267.269 231.4C268.544 231.4 269.481 230.538 269.481 228.775V228.763L267.306 228.95C266.331 229.038 265.881 229.538 265.881 230.225ZM272.022 232V225.5H272.86V226.525H272.922C273.297 225.85 273.935 225.35 275.035 225.35H275.472V226.2H274.835C273.585 226.2 272.86 227.088 272.86 228.813V232H272.022ZM279.761 232.15C278.724 232.15 277.986 231.675 277.549 231.025H277.486V232H276.649V223H277.486V226.475H277.549C277.999 225.825 278.724 225.35 279.774 225.35C281.549 225.35 282.761 226.713 282.761 228.75C282.761 230.788 281.549 232.15 279.761 232.15ZM277.461 228.75C277.461 230.338 278.236 231.375 279.674 231.375C281.049 231.375 281.861 230.363 281.861 228.75C281.861 227.138 281.049 226.125 279.674 226.125C278.236 226.125 277.461 227.15 277.461 228.75ZM287.053 232.15C285.191 232.15 283.941 230.788 283.941 228.75C283.941 226.713 285.191 225.35 287.053 225.35C288.916 225.35 290.166 226.713 290.166 228.75C290.166 230.788 288.916 232.15 287.053 232.15ZM284.828 228.75C284.828 230.325 285.603 231.363 287.053 231.363C288.491 231.363 289.291 230.325 289.291 228.75C289.291 227.175 288.491 226.138 287.053 226.138C285.603 226.138 284.828 227.175 284.828 228.75ZM291.675 232V225.5H292.513V226.4H292.575C293.038 225.713 293.75 225.35 294.638 225.35C296.1 225.35 296.988 226.313 296.988 227.9V232H296.15V228.113C296.15 226.825 295.613 226.113 294.563 226.113C293.338 226.113 292.513 226.788 292.513 228.875V232H291.675ZM304.644 232.15C302.806 232.15 301.519 230.788 301.519 228.75C301.519 226.7 302.831 225.35 304.644 225.35C306.181 225.35 307.331 226.288 307.544 227.775L306.719 227.9C306.519 226.813 305.831 226.138 304.644 226.138C303.256 226.138 302.406 227.175 302.406 228.75C302.406 230.325 303.256 231.363 304.644 231.363C305.856 231.363 306.506 230.688 306.719 229.6L307.544 229.763C307.331 231.213 306.219 232.15 304.644 232.15ZM308.851 232V225.5H309.688V226.525H309.751C310.126 225.85 310.763 225.35 311.863 225.35H312.301V226.2H311.663C310.413 226.2 309.688 227.088 309.688 228.813V232H308.851ZM315.885 232.15C314.073 232.15 312.823 230.788 312.823 228.75C312.823 226.65 314.173 225.35 315.898 225.35C317.585 225.35 318.798 226.575 318.798 228.613V228.9H313.685C313.735 230.325 314.51 231.363 315.885 231.363C316.935 231.363 317.535 230.913 317.885 229.95L318.673 230.188C318.273 231.45 317.335 232.15 315.885 232.15ZM313.723 228.15H317.885C317.81 227 317.06 226.138 315.898 226.138C314.86 226.138 313.935 226.788 313.723 228.15ZM323 232.15C321.225 232.15 320 230.788 320 228.75C320 226.713 321.225 225.35 322.988 225.35C324.038 225.35 324.763 225.825 325.225 226.475H325.275V223H326.113V232H325.275V231.025H325.225C324.775 231.675 324.038 232.15 323 232.15ZM320.9 228.75C320.9 230.363 321.725 231.375 323.1 231.375C324.525 231.375 325.3 230.338 325.3 228.75C325.3 227.15 324.525 226.125 323.1 226.125C321.725 226.125 320.9 227.138 320.9 228.75ZM327.943 232V225.5H328.78V232H327.943ZM327.793 223.413C327.793 223.1 328.018 222.85 328.368 222.85C328.705 222.85 328.93 223.1 328.93 223.413C328.93 223.713 328.705 223.963 328.368 223.963C328.018 223.963 327.793 223.713 327.793 223.413ZM332.541 232.025C331.566 232.025 331.029 231.488 331.029 230.6V226.263H329.754V225.5H331.029V223.725H331.866V225.5H333.504V226.263H331.866V230.488C331.866 231.013 332.116 231.238 332.654 231.238H333.629V232.025H332.541ZM199.561 247.15C198.523 247.15 197.786 246.675 197.348 246.025H197.286V247H196.448V238H197.286V241.475H197.348C197.798 240.825 198.523 240.35 199.573 240.35C201.348 240.35 202.561 241.713 202.561 243.75C202.561 245.788 201.348 247.15 199.561 247.15ZM197.261 243.75C197.261 245.338 198.036 246.375 199.473 246.375C200.848 246.375 201.661 245.363 201.661 243.75C201.661 242.138 200.848 241.125 199.473 241.125C198.036 241.125 197.261 242.15 197.261 243.75ZM209.278 240.5V247H208.441V246.1H208.378C207.916 246.788 207.203 247.15 206.316 247.15C204.853 247.15 203.966 246.188 203.966 244.6V240.5H204.803V244.388C204.803 245.675 205.341 246.388 206.391 246.388C207.616 246.388 208.441 245.713 208.441 243.625V240.5H209.278ZM211.872 249.5L212.909 247.063L210.284 240.5H211.209L213.309 245.825H213.409L215.522 240.5H216.422L212.784 249.5H211.872ZM219.999 247.15C218.186 247.15 216.936 245.788 216.936 243.75C216.936 241.65 218.286 240.35 220.011 240.35C221.699 240.35 222.911 241.575 222.911 243.613V243.9H217.799C217.849 245.325 218.624 246.363 219.999 246.363C221.049 246.363 221.649 245.913 221.999 244.95L222.786 245.188C222.386 246.45 221.449 247.15 219.999 247.15ZM217.836 243.15H221.999C221.924 242 221.174 241.138 220.011 241.138C218.974 241.138 218.049 241.788 217.836 243.15ZM224.439 247V240.5H225.277V241.525H225.339C225.714 240.85 226.352 240.35 227.452 240.35H227.889V241.2H227.252C226.002 241.2 225.277 242.088 225.277 243.813V247H224.439ZM231.353 247.15C229.891 247.15 228.966 246.463 228.578 245.175L229.416 244.95C229.691 245.875 230.278 246.363 231.353 246.363C232.503 246.363 233.053 245.888 233.053 245.238C233.053 244.65 232.691 244.213 231.916 244.125L230.541 243.95C229.453 243.8 228.803 243.2 228.803 242.188C228.803 241.225 229.566 240.35 231.116 240.35C232.491 240.35 233.378 241.038 233.703 242.15L232.903 242.388C232.616 241.563 232.078 241.138 231.116 241.138C230.078 241.138 229.628 241.613 229.628 242.188C229.628 242.75 230.028 243.088 230.666 243.163L232.016 243.35C233.291 243.513 233.878 244.175 233.878 245.238C233.878 246.313 233.053 247.15 231.353 247.15ZM238.768 239.263C238.768 238.388 239.318 237.85 240.28 237.85H241.418V238.638H240.368C239.843 238.638 239.605 238.85 239.605 239.35V240.5H241.418V241.263H239.605V247H238.768V241.263H237.493V240.5H238.768V239.263ZM244 247.15C242.688 247.15 241.875 246.363 241.875 245.238C241.875 244.15 242.613 243.375 244 243.263L246.313 243.063V242.675C246.313 241.788 245.75 241.125 244.6 241.125C243.525 241.125 242.925 241.613 242.875 242.513H242.063C242.113 241.288 243 240.35 244.6 240.35C246.2 240.35 247.15 241.3 247.15 242.688V245.65L247.188 247H246.363L246.35 245.938H246.3C245.813 246.775 245.013 247.15 244 247.15ZM242.713 245.225C242.713 245.95 243.213 246.4 244.1 246.4C245.375 246.4 246.313 245.538 246.313 243.775V243.763L244.138 243.95C243.163 244.038 242.713 244.538 242.713 245.225ZM251.653 247.15C249.816 247.15 248.528 245.788 248.528 243.75C248.528 241.7 249.841 240.35 251.653 240.35C253.191 240.35 254.341 241.288 254.553 242.775L253.728 242.9C253.528 241.813 252.841 241.138 251.653 241.138C250.266 241.138 249.416 242.175 249.416 243.75C249.416 245.325 250.266 246.363 251.653 246.363C252.866 246.363 253.516 245.688 253.728 244.6L254.553 244.763C254.341 246.213 253.228 247.15 251.653 247.15ZM258.598 247.15C256.785 247.15 255.535 245.788 255.535 243.75C255.535 241.65 256.885 240.35 258.61 240.35C260.298 240.35 261.51 241.575 261.51 243.613V243.9H256.398C256.448 245.325 257.223 246.363 258.598 246.363C259.648 246.363 260.248 245.913 260.598 244.95L261.385 245.188C260.985 246.45 260.048 247.15 258.598 247.15ZM256.435 243.15H260.598C260.523 242 259.773 241.138 258.61 241.138C257.573 241.138 256.648 241.788 256.435 243.15ZM270.225 247V241.263H267.425V247H266.588V241.263H265.313V240.5H266.588V239.263C266.588 238.388 267.138 237.85 268.1 237.85H269.238V238.638H268.188C267.663 238.638 267.425 238.85 267.425 239.35V240.5H271.063V247H270.225ZM274.601 247L272.064 240.5H272.976L275.076 246H275.189L277.276 240.5H278.164L275.639 247H274.601ZM281.742 247.15C279.93 247.15 278.68 245.788 278.68 243.75C278.68 241.65 280.03 240.35 281.755 240.35C283.442 240.35 284.655 241.575 284.655 243.613V243.9H279.542C279.592 245.325 280.367 246.363 281.742 246.363C282.792 246.363 283.392 245.913 283.742 244.95L284.53 245.188C284.13 246.45 283.192 247.15 281.742 247.15ZM279.58 243.15H283.742C283.667 242 282.917 241.138 281.755 241.138C280.717 241.138 279.792 241.788 279.58 243.15ZM291.982 247.15C290.207 247.15 288.982 245.788 288.982 243.75C288.982 241.713 290.207 240.35 291.97 240.35C293.02 240.35 293.745 240.825 294.207 241.475H294.257V238H295.095V247H294.257V246.025H294.207C293.757 246.675 293.02 247.15 291.982 247.15ZM289.882 243.75C289.882 245.363 290.707 246.375 292.082 246.375C293.507 246.375 294.282 245.338 294.282 243.75C294.282 242.15 293.507 241.125 292.082 241.125C290.707 241.125 289.882 242.138 289.882 243.75ZM296.924 247V240.5H297.762V247H296.924ZM296.774 238.413C296.774 238.1 296.999 237.85 297.349 237.85C297.687 237.85 297.912 238.1 297.912 238.413C297.912 238.713 297.687 238.963 297.349 238.963C296.999 238.963 296.774 238.713 296.774 238.413ZM301.873 247.15C300.411 247.15 299.486 246.463 299.098 245.175L299.936 244.95C300.211 245.875 300.798 246.363 301.873 246.363C303.023 246.363 303.573 245.888 303.573 245.238C303.573 244.65 303.211 244.213 302.436 244.125L301.061 243.95C299.973 243.8 299.323 243.2 299.323 242.188C299.323 241.225 300.086 240.35 301.636 240.35C303.011 240.35 303.898 241.038 304.223 242.15L303.423 242.388C303.136 241.563 302.598 241.138 301.636 241.138C300.598 241.138 300.148 241.613 300.148 242.188C300.148 242.75 300.548 243.088 301.186 243.163L302.536 243.35C303.811 243.513 304.398 244.175 304.398 245.238C304.398 246.313 303.573 247.15 301.873 247.15ZM308.538 247.15C306.7 247.15 305.413 245.788 305.413 243.75C305.413 241.7 306.725 240.35 308.538 240.35C310.075 240.35 311.225 241.288 311.438 242.775L310.613 242.9C310.413 241.813 309.725 241.138 308.538 241.138C307.15 241.138 306.3 242.175 306.3 243.75C306.3 245.325 307.15 246.363 308.538 246.363C309.75 246.363 310.4 245.688 310.613 244.6L311.438 244.763C311.225 246.213 310.113 247.15 308.538 247.15ZM312.745 247V240.5H313.582V241.525H313.645C314.02 240.85 314.657 240.35 315.757 240.35H316.195V241.2H315.557C314.307 241.2 313.582 242.088 313.582 243.813V247H312.745ZM319.779 247.15C317.967 247.15 316.717 245.788 316.717 243.75C316.717 241.65 318.067 240.35 319.792 240.35C321.479 240.35 322.692 241.575 322.692 243.613V243.9H317.579C317.629 245.325 318.404 246.363 319.779 246.363C320.829 246.363 321.429 245.913 321.779 244.95L322.567 245.188C322.167 246.45 321.229 247.15 319.779 247.15ZM317.617 243.15H321.779C321.704 242 320.954 241.138 319.792 241.138C318.754 241.138 317.829 241.788 317.617 243.15ZM326.157 247.025C325.182 247.025 324.644 246.488 324.644 245.6V241.263H323.369V240.5H324.644V238.725H325.482V240.5H327.119V241.263H325.482V245.488C325.482 246.013 325.732 246.238 326.269 246.238H327.244V247.025H326.157ZM330.936 247.15C329.124 247.15 327.874 245.788 327.874 243.75C327.874 241.65 329.224 240.35 330.949 240.35C332.636 240.35 333.849 241.575 333.849 243.613V243.9H328.736C328.786 245.325 329.561 246.363 330.936 246.363C331.986 246.363 332.586 245.913 332.936 244.95L333.724 245.188C333.324 246.45 332.386 247.15 330.936 247.15ZM328.774 243.15H332.936C332.861 242 332.111 241.138 330.949 241.138C329.911 241.138 328.986 241.788 328.774 243.15ZM222.768 262.15C220.993 262.15 219.768 260.788 219.768 258.75C219.768 256.713 220.993 255.35 222.756 255.35C223.806 255.35 224.531 255.825 224.993 256.475H225.043V253H225.881V262H225.043V261.025H224.993C224.543 261.675 223.806 262.15 222.768 262.15ZM220.668 258.75C220.668 260.363 221.493 261.375 222.868 261.375C224.293 261.375 225.068 260.338 225.068 258.75C225.068 257.15 224.293 256.125 222.868 256.125C221.493 256.125 220.668 257.138 220.668 258.75ZM230.448 262.15C228.636 262.15 227.386 260.788 227.386 258.75C227.386 256.65 228.736 255.35 230.461 255.35C232.148 255.35 233.361 256.575 233.361 258.613V258.9H228.248C228.298 260.325 229.073 261.363 230.448 261.363C231.498 261.363 232.098 260.913 232.448 259.95L233.236 260.188C232.836 261.45 231.898 262.15 230.448 262.15ZM228.286 258.15H232.448C232.373 257 231.623 256.138 230.461 256.138C229.423 256.138 228.498 256.788 228.286 258.15ZM237.688 262.15C235.851 262.15 234.563 260.788 234.563 258.75C234.563 256.7 235.876 255.35 237.688 255.35C239.226 255.35 240.376 256.288 240.588 257.775L239.763 257.9C239.563 256.813 238.876 256.138 237.688 256.138C236.301 256.138 235.451 257.175 235.451 258.75C235.451 260.325 236.301 261.363 237.688 261.363C238.901 261.363 239.551 260.688 239.763 259.6L240.588 259.763C240.376 261.213 239.263 262.15 237.688 262.15ZM241.895 262V255.5H242.733V262H241.895ZM241.745 253.413C241.745 253.1 241.97 252.85 242.32 252.85C242.658 252.85 242.883 253.1 242.883 253.413C242.883 253.713 242.658 253.963 242.32 253.963C241.97 253.963 241.745 253.713 241.745 253.413ZM246.844 262.15C245.381 262.15 244.456 261.463 244.069 260.175L244.906 259.95C245.181 260.875 245.769 261.363 246.844 261.363C247.994 261.363 248.544 260.888 248.544 260.238C248.544 259.65 248.181 259.213 247.406 259.125L246.031 258.95C244.944 258.8 244.294 258.2 244.294 257.188C244.294 256.225 245.056 255.35 246.606 255.35C247.981 255.35 248.869 256.038 249.194 257.15L248.394 257.388C248.106 256.563 247.569 256.138 246.606 256.138C245.569 256.138 245.119 256.613 245.119 257.188C245.119 257.75 245.519 258.088 246.156 258.163L247.506 258.35C248.781 258.513 249.369 259.175 249.369 260.238C249.369 261.313 248.544 262.15 246.844 262.15ZM250.709 262V255.5H251.546V262H250.709ZM250.559 253.413C250.559 253.1 250.784 252.85 251.134 252.85C251.471 252.85 251.696 253.1 251.696 253.413C251.696 253.713 251.471 253.963 251.134 253.963C250.784 253.963 250.559 253.713 250.559 253.413ZM256.157 262.15C254.295 262.15 253.045 260.788 253.045 258.75C253.045 256.713 254.295 255.35 256.157 255.35C258.02 255.35 259.27 256.713 259.27 258.75C259.27 260.788 258.02 262.15 256.157 262.15ZM253.932 258.75C253.932 260.325 254.707 261.363 256.157 261.363C257.595 261.363 258.395 260.325 258.395 258.75C258.395 257.175 257.595 256.138 256.157 256.138C254.707 256.138 253.932 257.175 253.932 258.75ZM260.779 262V255.5H261.617V256.4H261.679C262.142 255.713 262.854 255.35 263.742 255.35C265.204 255.35 266.092 256.313 266.092 257.9V262H265.254V258.113C265.254 256.825 264.717 256.113 263.667 256.113C262.442 256.113 261.617 256.788 261.617 258.875V262H260.779ZM270.948 264.5V255.5H271.785V256.475H271.848C272.285 255.825 273.023 255.35 274.06 255.35C275.848 255.35 277.06 256.713 277.06 258.75C277.06 260.788 275.848 262.15 274.073 262.15C273.023 262.15 272.298 261.675 271.848 261.025H271.785V264.5H270.948ZM271.76 258.75C271.76 260.35 272.535 261.375 273.973 261.375C275.348 261.375 276.16 260.363 276.16 258.75C276.16 257.138 275.348 256.125 273.973 256.125C272.535 256.125 271.76 257.163 271.76 258.75ZM278.565 262V253H279.403V256.413H279.465C279.928 255.713 280.64 255.35 281.528 255.35C282.99 255.35 283.878 256.313 283.878 257.9V262H283.04V258.125C283.04 256.825 282.503 256.113 281.453 256.113C280.228 256.113 279.403 256.788 279.403 258.875V262H278.565ZM287.396 262.15C286.084 262.15 285.271 261.363 285.271 260.238C285.271 259.15 286.009 258.375 287.396 258.263L289.709 258.063V257.675C289.709 256.788 289.146 256.125 287.996 256.125C286.921 256.125 286.321 256.613 286.271 257.513H285.459C285.509 256.288 286.396 255.35 287.996 255.35C289.596 255.35 290.546 256.3 290.546 257.688V260.65L290.584 262H289.759L289.746 260.938H289.696C289.209 261.775 288.409 262.15 287.396 262.15ZM286.109 260.225C286.109 260.95 286.609 261.4 287.496 261.4C288.771 261.4 289.709 260.538 289.709 258.775V258.763L287.534 258.95C286.559 259.038 286.109 259.538 286.109 260.225ZM294.537 262.15C293.074 262.15 292.149 261.463 291.762 260.175L292.599 259.95C292.874 260.875 293.462 261.363 294.537 261.363C295.687 261.363 296.237 260.888 296.237 260.238C296.237 259.65 295.874 259.213 295.099 259.125L293.724 258.95C292.637 258.8 291.987 258.2 291.987 257.188C291.987 256.225 292.749 255.35 294.299 255.35C295.674 255.35 296.562 256.038 296.887 257.15L296.087 257.388C295.799 256.563 295.262 256.138 294.299 256.138C293.262 256.138 292.812 256.613 292.812 257.188C292.812 257.75 293.212 258.088 293.849 258.163L295.199 258.35C296.474 258.513 297.062 259.175 297.062 260.238C297.062 261.313 296.237 262.15 294.537 262.15ZM301.139 262.15C299.327 262.15 298.077 260.788 298.077 258.75C298.077 256.65 299.427 255.35 301.152 255.35C302.839 255.35 304.052 256.575 304.052 258.613V258.9H298.939C298.989 260.325 299.764 261.363 301.139 261.363C302.189 261.363 302.789 260.913 303.139 259.95L303.927 260.188C303.527 261.45 302.589 262.15 301.139 262.15ZM298.977 258.15H303.139C303.064 257 302.314 256.138 301.152 256.138C300.114 256.138 299.189 256.788 298.977 258.15ZM307.867 262.15C306.404 262.15 305.479 261.463 305.092 260.175L305.929 259.95C306.204 260.875 306.792 261.363 307.867 261.363C309.017 261.363 309.567 260.888 309.567 260.238C309.567 259.65 309.204 259.213 308.429 259.125L307.054 258.95C305.967 258.8 305.317 258.2 305.317 257.188C305.317 256.225 306.079 255.35 307.629 255.35C309.004 255.35 309.892 256.038 310.217 257.15L309.417 257.388C309.129 256.563 308.592 256.138 307.629 256.138C306.592 256.138 306.142 256.613 306.142 257.188C306.142 257.75 306.542 258.088 307.179 258.163L308.529 258.35C309.804 258.513 310.392 259.175 310.392 260.238C310.392 261.313 309.567 262.15 307.867 262.15Z" fill="white"/>
<g filter="url(#filter0_b_3442_13845)">
<circle cx="266" cy="70" r="30" fill="#F7F7F7"/>
<circle cx="266" cy="70" r="32" stroke="#DBDBDB" stroke-opacity="0.5" stroke-width="4"/>
</g>
<path d="M264.399 62C263.412 62 262.599 62.8131 262.599 63.8001V66.2003C262.599 67.1873 263.412 68.0004 264.399 68.0004H264.999V69.5995H262.2C261.213 69.5995 260.4 70.4125 260.4 71.3996V71.9996H259.8C258.813 71.9996 258 72.8127 258 73.7997V76.1999C258 77.1869 258.813 78 259.8 78H262.2C263.187 78 264 77.1869 264 76.1999V73.7997C264 72.8127 263.187 71.9996 262.2 71.9996H261.6V71.3996C261.6 71.0606 261.861 70.7995 262.2 70.7995H269.002C269.341 70.7995 269.602 71.0606 269.602 71.3996V71.9996H269.002C268.015 71.9996 267.202 72.8127 267.202 73.7997V76.1999C267.202 77.1869 268.015 78 269.002 78H271.402C272.389 78 273.202 77.1869 273.202 76.1999V73.7997C273.202 72.8127 272.389 71.9996 271.402 71.9996H270.802V71.3996C270.802 70.4125 269.989 69.5995 269.002 69.5995H266.203V68.0004H266.803C267.79 68.0004 268.603 67.1873 268.603 66.2003V63.8001C268.603 62.8131 267.79 62 266.803 62H264.402H264.399ZM264.399 63.2001H266.8C267.139 63.2001 267.4 63.4611 267.4 63.8001V66.2003C267.4 66.5393 267.139 66.8003 266.8 66.8003H264.399C264.06 66.8003 263.799 66.5393 263.799 66.2003V63.8001C263.799 63.4611 264.06 63.2001 264.399 63.2001ZM259.8 73.1997H262.2C262.539 73.1997 262.8 73.4607 262.8 73.7997V76.1999C262.8 76.5389 262.539 76.7999 262.2 76.7999H259.8C259.461 76.7999 259.2 76.5389 259.2 76.1999V73.7997C259.2 73.4607 259.461 73.1997 259.8 73.1997ZM269.002 73.1997H271.402C271.741 73.1997 272.002 73.4607 272.002 73.7997V76.1999C272.002 76.5389 271.741 76.7999 271.402 76.7999H269.002C268.663 76.7999 268.402 76.5389 268.402 76.1999V73.7997C268.402 73.4607 268.663 73.1997 269.002 73.1997Z" fill="#161814"/>
<g filter="url(#filter1_b_3442_13845)">
<circle cx="166.25" cy="392.5" r="30" fill="#F7F7F7"/>
<circle cx="166.25" cy="392.5" r="32" stroke="#DBDBDB" stroke-opacity="0.5" stroke-width="4"/>
</g>
<path d="M158.8 386C158.305 386 157.852 386.204 157.528 386.528C157.189 386.864 157 387.323 157 387.8C157 388.787 157.813 389.6 158.8 389.6H160.201V399.402C160.201 399.732 160.471 400.002 160.801 400.002C160.876 400.002 160.954 399.987 161.023 399.96L162.772 399.261L164.131 399.942C164.29 400.023 164.479 400.026 164.644 399.954L166.202 399.261L167.759 399.954C167.924 400.026 168.11 400.023 168.272 399.942L169.631 399.264L171.38 399.963C171.689 400.086 172.037 399.936 172.16 399.63C172.187 399.558 172.202 399.483 172.202 399.408V389.6H173.603C174.098 389.6 174.551 389.396 174.875 389.072C175.214 388.736 175.403 388.277 175.403 387.8C175.403 386.813 174.59 386 173.603 386H158.803H158.8ZM158.8 387.2H160.201V388.4H158.8C158.476 388.406 158.206 388.148 158.2 387.824C158.2 387.815 158.2 387.809 158.2 387.8C158.2 387.632 158.269 387.485 158.377 387.377C158.488 387.263 158.641 387.2 158.8 387.2ZM161.401 387.2H171.002V398.514L169.826 398.043C169.667 397.98 169.487 397.986 169.334 398.064L167.987 398.739L166.445 398.055C166.289 397.986 166.112 397.986 165.959 398.055L164.416 398.739L163.069 398.064C162.916 397.989 162.736 397.98 162.577 398.043L161.401 398.514V387.2ZM172.202 387.2H173.603C173.945 387.2 174.203 387.458 174.203 387.8C174.203 387.968 174.134 388.115 174.026 388.223C173.915 388.337 173.762 388.4 173.603 388.4H172.202V387.2ZM163.6 389.6C163.27 389.6 163 389.87 163 390.2C163 390.53 163.27 390.8 163.6 390.8H168.8C169.13 390.8 169.4 390.53 169.4 390.2C169.4 389.87 169.13 389.6 168.8 389.6H163.6ZM163.6 392C163.27 392 163 392.27 163 392.6C163 392.93 163.27 393.2 163.6 393.2H168.8C169.13 393.2 169.4 392.93 169.4 392.6C169.4 392.27 169.13 392 168.8 392H163.6ZM163.6 394.401C163.27 394.401 163 394.671 163 395.001C163 395.331 163.27 395.601 163.6 395.601H166.802C167.132 395.601 167.402 395.331 167.402 395.001C167.402 394.671 167.132 394.401 166.802 394.401H163.6Z" fill="#161814"/>
<g filter="url(#filter2_b_3442_13845)">
<circle cx="368.75" cy="392.5" r="30" fill="#F7F7F7"/>
<circle cx="368.75" cy="392.5" r="32" stroke="#DBDBDB" stroke-opacity="0.5" stroke-width="4"/>
</g>
<path d="M367.998 385C367.08 385 366.321 385.708 366.219 386.599H364.8C363.813 386.599 363 387.412 363 388.399V399.2C363 400.187 363.813 401 364.8 401H374.002C374.989 401 375.802 400.187 375.802 399.2V388.399C375.802 387.412 374.989 386.599 374.002 386.599H372.583C372.481 385.705 371.722 385 370.803 385H368.004H367.998ZM367.998 386.2H370.797C371.137 386.2 371.398 386.461 371.398 386.8C371.398 387.139 371.137 387.4 370.797 387.4H367.998C367.659 387.4 367.398 387.139 367.398 386.8C367.398 386.461 367.659 386.2 367.998 386.2ZM364.797 387.799H366.504C366.837 388.297 367.398 388.597 367.995 388.6H370.794C371.395 388.6 371.953 388.297 372.286 387.799H373.993C374.332 387.799 374.593 388.06 374.593 388.399V399.2C374.593 399.539 374.332 399.8 373.993 399.8H364.791C364.452 399.8 364.191 399.539 364.191 399.2V388.399C364.191 388.06 364.452 387.799 364.791 387.799M366.39 391.399C366.06 391.399 365.79 391.669 365.79 391.999C365.79 392.329 366.06 392.599 366.39 392.599C366.72 392.599 366.99 392.329 366.99 391.999C366.99 391.669 366.72 391.399 366.39 391.399ZM368.79 391.399C368.46 391.399 368.19 391.669 368.19 391.999C368.19 392.329 368.46 392.599 368.79 392.599H372.391C372.721 392.599 372.991 392.329 372.991 391.999C372.991 391.669 372.721 391.399 372.391 391.399H368.79ZM366.39 393.8C366.06 393.8 365.79 394.07 365.79 394.4C365.79 394.73 366.06 395 366.39 395C366.72 395 366.99 394.73 366.99 394.4C366.99 394.07 366.72 393.8 366.39 393.8ZM368.79 393.8C368.46 393.8 368.19 394.07 368.19 394.4C368.19 394.73 368.46 395 368.79 395H372.391C372.721 395 372.991 394.73 372.991 394.4C372.991 394.07 372.721 393.8 372.391 393.8H368.79ZM366.39 396.2C366.06 396.2 365.79 396.47 365.79 396.8C365.79 397.13 366.06 397.4 366.39 397.4C366.72 397.4 366.99 397.13 366.99 396.8C366.99 396.47 366.72 396.2 366.39 396.2ZM368.79 396.2C368.46 396.2 368.19 396.47 368.19 396.8C368.19 397.13 368.46 397.4 368.79 397.4H372.391C372.721 397.4 372.991 397.13 372.991 396.8C372.991 396.47 372.721 396.2 372.391 396.2H368.79Z" fill="#161814"/>
<path d="M243.47 26.1202C241.86 26.1202 240.9 25.4802 240.43 24.2502L241.73 23.8002C241.98 24.5202 242.58 24.9402 243.47 24.9402C244.52 24.9402 245.02 24.5602 245.02 24.0002C245.02 23.4302 244.67 23.1402 244.05 23.0702L242.63 22.9202C241.39 22.7902 240.56 22.0702 240.56 20.8302C240.56 19.6502 241.62 18.6802 243.19 18.6802C244.67 18.6802 245.63 19.3802 246.01 20.4702L244.78 20.9002C244.52 20.2302 243.99 19.8602 243.19 19.8602C242.32 19.8602 241.86 20.2702 241.86 20.8002C241.86 21.2602 242.15 21.5902 242.83 21.6602L244.11 21.8002C245.53 21.9602 246.31 22.7202 246.31 24.0002C246.31 25.3002 245.27 26.1202 243.47 26.1202ZM249.626 26.0002V19.9602H247.226V18.8002H253.296V19.9602H250.886V26.0002H249.626ZM254.816 26.0002V18.8002H258.136C259.566 18.8002 260.526 19.7002 260.526 20.9902C260.526 22.0702 259.856 22.9002 258.786 23.1402L260.696 26.0002H259.166L257.366 23.2202H256.076V26.0002H254.816ZM256.076 22.0602H258.036C258.766 22.0602 259.226 21.6702 259.226 20.9902C259.226 20.3002 258.776 19.9602 258.076 19.9602H256.076V22.0602ZM261.52 26.0002L264.21 18.8002H265.71L268.39 26.0002H267.01L266.44 24.4402H263.43L262.87 26.0002H261.52ZM263.85 23.2802H266.02L264.98 20.4002H264.88L263.85 23.2802ZM270.237 26.0002V19.9602H267.837V18.8002H273.907V19.9602H271.497V26.0002H270.237ZM275.427 26.0002V18.8002H280.437V19.9602H276.687V21.7602H280.197V22.9202H276.687V24.8402H280.537V26.0002H275.427ZM285.223 26.1202C283.133 26.1202 281.663 24.5502 281.663 22.4002C281.663 20.2302 283.153 18.6802 285.243 18.6802C287.043 18.6802 288.003 19.6002 288.363 20.7902L287.093 21.1002C286.793 20.3102 286.233 19.8602 285.223 19.8602C283.753 19.8602 282.983 20.8302 282.983 22.4002C282.983 23.9702 283.743 24.9402 285.223 24.9402C286.403 24.9402 287.123 24.4002 287.193 23.2902H285.043V22.1302H288.503V23.1002C288.503 25.0302 287.103 26.1202 285.223 26.1202ZM291.648 26.0002V23.1002L289.048 18.8002H290.508L292.248 21.7902H292.348L294.108 18.8002H295.508L292.908 23.1002V26.0002H291.648Z" fill="white"/>
<path d="M263.149 11.12C261.569 11.12 260.489 9.9 260.489 7.52C260.489 5.13 261.569 3.92 263.149 3.92C264.729 3.92 265.809 5.13 265.809 7.52C265.809 9.9 264.729 11.12 263.149 11.12ZM261.759 7.52C261.759 9.21 262.219 9.98 263.149 9.98C264.079 9.98 264.539 9.21 264.539 7.52C264.539 5.82 264.079 5.06 263.149 5.06C262.219 5.06 261.759 5.82 261.759 7.52ZM267.41 11V9.86H269.41V6.24H267.62V5.2H268.14C269.07 5.2 269.47 4.81 269.66 4.04H270.65V9.86H272.44V11H267.41Z" fill="#DBDBDB"/>
<path d="M498.149 189.12C496.569 189.12 495.489 187.9 495.489 185.52C495.489 183.13 496.569 181.92 498.149 181.92C499.729 181.92 500.809 183.13 500.809 185.52C500.809 187.9 499.729 189.12 498.149 189.12ZM496.759 185.52C496.759 187.21 497.219 187.98 498.149 187.98C499.079 187.98 499.539 187.21 499.539 185.52C499.539 183.82 499.079 183.06 498.149 183.06C497.219 183.06 496.759 183.82 496.759 185.52ZM502.49 188.01C502.49 187.24 502.8 186.7 503.58 186.26L504.98 185.47C505.63 185.1 505.87 184.76 505.87 184.21C505.87 183.54 505.5 183.06 504.8 183.06C504.1 183.06 503.68 183.44 503.65 184.19H502.4C502.4 182.93 503.32 181.92 504.8 181.92C506.2 181.92 507.14 182.89 507.14 184.2C507.14 185.26 506.58 185.87 505.42 186.51L504.15 187.21C503.82 187.39 503.72 187.59 503.72 187.82V187.86H507.27V189H502.49V188.01Z" fill="#DBDBDB"/>
<path d="M19.3988 189.12C17.8188 189.12 16.7388 187.9 16.7388 185.52C16.7388 183.13 17.8188 181.92 19.3988 181.92C20.9788 181.92 22.0588 183.13 22.0588 185.52C22.0588 187.9 20.9788 189.12 19.3988 189.12ZM18.0088 185.52C18.0088 187.21 18.4688 187.98 19.3988 187.98C20.3288 187.98 20.7888 187.21 20.7888 185.52C20.7888 183.82 20.3288 183.06 19.3988 183.06C18.4688 183.06 18.0088 183.82 18.0088 185.52ZM26.12 189.12C24.74 189.12 23.65 188.43 23.52 187.08H24.77C24.9 187.62 25.38 187.98 26.12 187.98C26.97 187.98 27.47 187.4 27.47 186.62C27.47 185.84 26.97 185.31 26.14 185.31C25.52 185.31 25.06 185.61 24.8 185.95L23.67 185.82L24.05 182.04H28.18V183.18H25.01L24.82 184.86H24.89C25.22 184.48 25.7 184.2 26.42 184.2C27.75 184.2 28.74 185.19 28.74 186.63C28.74 188.05 27.71 189.12 26.12 189.12Z" fill="#DBDBDB"/>
<path d="M364.399 443.62C362.819 443.62 361.739 442.4 361.739 440.02C361.739 437.63 362.819 436.42 364.399 436.42C365.979 436.42 367.059 437.63 367.059 440.02C367.059 442.4 365.979 443.62 364.399 443.62ZM363.009 440.02C363.009 441.71 363.469 442.48 364.399 442.48C365.329 442.48 365.789 441.71 365.789 440.02C365.789 438.32 365.329 437.56 364.399 437.56C363.469 437.56 363.009 438.32 363.009 440.02ZM371.08 443.62C369.46 443.62 368.58 442.8 368.53 441.45H369.82C369.87 442.05 370.25 442.48 371.08 442.48C371.86 442.48 372.33 442.14 372.33 441.47C372.33 440.85 371.91 440.46 371.06 440.46H370.14V439.31H370.94C371.76 439.31 372.11 438.96 372.11 438.42C372.11 437.92 371.74 437.56 371.08 437.56C370.37 437.56 369.97 437.9 369.93 438.43H368.72C368.76 437.23 369.64 436.42 371.08 436.42C372.55 436.42 373.33 437.33 373.33 438.33C373.33 439.04 372.93 439.52 372.23 439.76V439.84C373.08 440.06 373.61 440.68 373.61 441.65C373.61 442.81 372.73 443.62 371.08 443.62Z" fill="#DBDBDB"/>
<path d="M160.649 443.62C159.069 443.62 157.989 442.4 157.989 440.02C157.989 437.63 159.069 436.42 160.649 436.42C162.229 436.42 163.309 437.63 163.309 440.02C163.309 442.4 162.229 443.62 160.649 443.62ZM159.259 440.02C159.259 441.71 159.719 442.48 160.649 442.48C161.579 442.48 162.039 441.71 162.039 440.02C162.039 438.32 161.579 437.56 160.649 437.56C159.719 437.56 159.259 438.32 159.259 440.02ZM167.96 443.5V441.93H164.61V440.97L168.06 436.54H169.2V440.89H170.15V441.93H169.2V443.5H167.96ZM165.96 440.89H167.96V438.33H167.9L165.96 440.83V440.89Z" fill="#DBDBDB"/>
<path d="M339.47 458.5V451.3H342.08C344.38 451.3 345.74 452.71 345.74 454.9C345.74 457.09 344.38 458.5 342 458.5H339.47ZM340.73 457.34H341.97C343.67 457.34 344.44 456.37 344.44 454.9C344.44 453.41 343.68 452.46 342.05 452.46H340.73V457.34ZM347.402 458.5V451.3H348.662V458.5H347.402ZM350.597 458.5V451.3H351.857V457.34H355.317V458.5H350.597ZM356.8 458.5V451.3H358.06V458.5H356.8ZM363.275 458.62C361.185 458.62 359.715 457.05 359.715 454.9C359.715 452.73 361.205 451.18 363.295 451.18C365.095 451.18 366.055 452.1 366.415 453.29L365.145 453.6C364.845 452.81 364.285 452.36 363.275 452.36C361.805 452.36 361.035 453.33 361.035 454.9C361.035 456.47 361.795 457.44 363.275 457.44C364.455 457.44 365.175 456.9 365.245 455.79H363.095V454.63H366.555V455.6C366.555 457.53 365.155 458.62 363.275 458.62ZM368.279 458.5V451.3H373.289V452.46H369.539V454.26H373.049V455.42H369.539V457.34H373.389V458.5H368.279ZM374.99 458.5V451.3H376.8L379.91 457.18H380.04V451.3H381.22V458.5H379.33L376.29 452.72H376.17V458.5H374.99ZM386.406 458.62C384.426 458.62 382.876 457.2 382.876 454.91C382.876 452.62 384.426 451.18 386.406 451.18C388.206 451.18 389.336 452.14 389.656 453.74L388.386 454.01C388.146 453.02 387.516 452.36 386.436 452.36C385.026 452.36 384.196 453.33 384.196 454.91C384.196 456.48 385.046 457.44 386.436 457.44C387.486 457.44 388.116 456.92 388.416 455.81L389.656 456.14C389.336 457.64 388.216 458.62 386.406 458.62ZM391.195 458.5V451.3H396.205V452.46H392.455V454.26H395.965V455.42H392.455V457.34H396.305V458.5H391.195Z" fill="white"/>
<path d="M136.97 458.5V451.3H140.25C141.68 451.3 142.64 452.19 142.64 453.48C142.64 454.78 141.68 455.7 140.2 455.7H138.23V458.5H136.97ZM138.23 454.54H140.15C140.88 454.54 141.34 454.18 141.34 453.5C141.34 452.81 140.89 452.46 140.19 452.46H138.23V454.54ZM147.157 458.62C145.217 458.62 144.187 457.5 144.187 455.82V451.3H145.447V455.72C145.447 456.74 145.957 457.38 147.157 457.38C148.357 457.38 148.897 456.74 148.897 455.72V451.3H150.117V455.82C150.117 457.5 149.087 458.62 147.157 458.62ZM151.984 458.5V451.3H155.304C156.734 451.3 157.694 452.2 157.694 453.49C157.694 454.57 157.024 455.4 155.954 455.64L157.864 458.5H156.334L154.534 455.72H153.244V458.5H151.984ZM153.244 454.56H155.204C155.934 454.56 156.394 454.17 156.394 453.49C156.394 452.8 155.944 452.46 155.244 452.46H153.244V454.56ZM162.618 458.62C160.638 458.62 159.088 457.2 159.088 454.91C159.088 452.62 160.638 451.18 162.618 451.18C164.418 451.18 165.548 452.14 165.868 453.74L164.598 454.01C164.358 453.02 163.728 452.36 162.648 452.36C161.238 452.36 160.408 453.33 160.408 454.91C160.408 456.48 161.258 457.44 162.648 457.44C163.698 457.44 164.328 456.92 164.628 455.81L165.868 456.14C165.548 457.64 164.428 458.62 162.618 458.62ZM172.138 458.5V455.38H168.668V458.5H167.408V451.3H168.668V454.22H172.138V451.3H173.398V458.5H172.138ZM174.659 458.5L177.349 451.3H178.849L181.529 458.5H180.149L179.579 456.94H176.569L176.009 458.5H174.659ZM176.989 455.78H179.159L178.119 452.9H178.019L176.989 455.78ZM185.542 458.62C183.932 458.62 182.972 457.98 182.502 456.75L183.802 456.3C184.052 457.02 184.652 457.44 185.542 457.44C186.592 457.44 187.092 457.06 187.092 456.5C187.092 455.93 186.742 455.64 186.122 455.57L184.702 455.42C183.462 455.29 182.632 454.57 182.632 453.33C182.632 452.15 183.692 451.18 185.262 451.18C186.742 451.18 187.702 451.88 188.082 452.97L186.852 453.4C186.592 452.73 186.062 452.36 185.262 452.36C184.392 452.36 183.932 452.77 183.932 453.3C183.932 453.76 184.222 454.09 184.902 454.16L186.182 454.3C187.602 454.46 188.382 455.22 188.382 456.5C188.382 457.8 187.342 458.62 185.542 458.62ZM190.021 458.5V451.3H195.031V452.46H191.281V454.26H194.791V455.42H191.281V457.34H195.131V458.5H190.021Z" fill="white"/>
<g filter="url(#filter3_b_3442_13845)">
<circle cx="432.5" cy="193.936" r="30" fill="#F7F7F7"/>
<circle cx="432.5" cy="193.936" r="32" stroke="#DBDBDB" stroke-opacity="0.5" stroke-width="4"/>
</g>
<path d="M431.799 187C428.604 187 426 189.604 426 192.799C426 195.995 428.604 198.599 431.799 198.599C432 198.599 432.195 198.59 432.39 198.569C433.512 198.455 434.578 198.011 435.451 197.3L439.375 201.224C439.606 201.461 439.984 201.47 440.224 201.239C440.464 201.008 440.47 200.63 440.239 200.39C440.233 200.384 440.23 200.381 440.224 200.375L436.3 196.451C437.14 195.419 437.602 194.128 437.599 192.799C437.599 189.604 434.995 187 431.799 187ZM431.799 188.2C434.347 188.2 436.399 190.252 436.399 192.799C436.399 194.041 435.91 195.161 435.115 195.989C435.067 196.025 435.022 196.067 434.986 196.118C434.131 196.943 432.987 197.405 431.796 197.402C429.249 197.402 427.197 195.35 427.197 192.802C427.197 192.643 427.206 192.484 427.221 192.331C427.458 189.982 429.438 188.197 431.796 188.203M429.795 192.202C429.465 192.202 429.195 192.472 429.195 192.802C429.195 193.132 429.465 193.402 429.795 193.402C430.125 193.402 430.395 193.132 430.395 192.802C430.395 192.472 430.125 192.202 429.795 192.202ZM431.796 192.202C431.466 192.202 431.196 192.472 431.196 192.802C431.196 193.132 431.466 193.402 431.796 193.402C432.126 193.402 432.396 193.132 432.396 192.802C432.396 192.472 432.126 192.202 431.796 192.202ZM433.797 192.202C433.467 192.202 433.197 192.472 433.197 192.802C433.197 193.132 433.467 193.402 433.797 193.402C434.128 193.402 434.398 193.132 434.398 192.802C434.398 192.472 434.128 192.202 433.797 192.202Z" fill="#161814"/>
<path d="M482.22 204.306C480.61 204.306 479.65 203.666 479.18 202.436L480.48 201.986C480.73 202.706 481.33 203.126 482.22 203.126C483.27 203.126 483.77 202.746 483.77 202.186C483.77 201.616 483.42 201.326 482.8 201.256L481.38 201.106C480.14 200.976 479.31 200.256 479.31 199.016C479.31 197.836 480.37 196.866 481.94 196.866C483.42 196.866 484.38 197.566 484.76 198.656L483.53 199.086C483.27 198.416 482.74 198.046 481.94 198.046C481.07 198.046 480.61 198.456 480.61 198.986C480.61 199.446 480.9 199.776 481.58 199.846L482.86 199.986C484.28 200.146 485.06 200.906 485.06 202.186C485.06 203.486 484.02 204.306 482.22 204.306ZM490.079 204.306C487.969 204.306 486.419 202.886 486.419 200.586C486.419 198.306 487.969 196.866 490.079 196.866C492.199 196.866 493.739 198.306 493.739 200.586C493.739 202.886 492.199 204.306 490.079 204.306ZM487.739 200.586C487.739 202.096 488.589 203.136 490.079 203.136C491.569 203.136 492.419 202.096 492.419 200.586C492.419 199.076 491.569 198.036 490.079 198.036C488.589 198.036 487.739 199.076 487.739 200.586ZM498.302 204.306C496.362 204.306 495.332 203.186 495.332 201.506V196.986H496.592V201.406C496.592 202.426 497.102 203.066 498.302 203.066C499.502 203.066 500.042 202.426 500.042 201.406V196.986H501.262V201.506C501.262 203.186 500.232 204.306 498.302 204.306ZM503.128 204.186V196.986H506.448C507.878 196.986 508.838 197.886 508.838 199.176C508.838 200.256 508.168 201.086 507.098 201.326L509.008 204.186H507.478L505.678 201.406H504.388V204.186H503.128ZM504.388 200.246H506.348C507.078 200.246 507.538 199.856 507.538 199.176C507.538 198.486 507.088 198.146 506.388 198.146H504.388V200.246ZM513.763 204.306C511.783 204.306 510.233 202.886 510.233 200.596C510.233 198.306 511.783 196.866 513.763 196.866C515.563 196.866 516.693 197.826 517.013 199.426L515.743 199.696C515.503 198.706 514.873 198.046 513.793 198.046C512.383 198.046 511.553 199.016 511.553 200.596C511.553 202.166 512.403 203.126 513.793 203.126C514.843 203.126 515.473 202.606 515.773 201.496L517.013 201.826C516.693 203.326 515.573 204.306 513.763 204.306ZM518.552 204.186V196.986H523.562V198.146H519.812V199.946H523.322V201.106H519.812V203.026H523.662V204.186H518.552Z" fill="white"/>
<g filter="url(#filter4_b_3442_13845)">
<circle cx="93.75" cy="193.936" r="30" fill="#F7F7F7"/>
<circle cx="93.75" cy="193.936" r="32" stroke="#DBDBDB" stroke-opacity="0.5" stroke-width="4"/>
</g>
<path d="M88.0002 188.003C87.2351 188.003 86.5991 188.636 86.5991 189.404V197.004C86.5991 197.769 87.2321 198.405 88.0002 198.405H99.6019C100.367 198.405 101.003 197.772 101.003 197.004V189.401C101.003 188.636 100.37 188 99.6019 188H88.0002V188.003ZM88.0002 189.203H99.6019C99.7189 189.203 99.8029 189.284 99.8029 189.404V197.004C99.8029 197.121 99.7219 197.205 99.6019 197.205H88.0002C87.8952 197.211 87.8052 197.127 87.7992 197.022C87.7992 197.016 87.7992 197.01 87.7992 197.007V189.401C87.7992 189.284 87.8802 189.2 88.0002 189.2M97.9878 190.394C97.8318 190.4 97.6848 190.463 97.5768 190.574L94.7566 193.394L93.1755 192.128C92.9475 191.945 92.6235 191.954 92.4045 192.146L89.2033 194.945C88.9543 195.164 88.9272 195.542 89.1463 195.791C89.3653 196.041 89.7433 196.068 89.9923 195.848L92.8155 193.379L94.4236 194.666C94.6636 194.858 95.0056 194.837 95.2216 194.621L98.4228 191.42C98.6599 191.189 98.6659 190.808 98.4348 190.571C98.3178 190.451 98.1558 190.385 97.9878 190.388M85.6 198.795C85.27 198.795 85 199.065 85 199.395C85 199.725 85.27 199.995 85.6 199.995H102.002C102.332 199.995 102.602 199.725 102.602 199.395C102.602 199.065 102.332 198.795 102.002 198.795H85.6Z" fill="#161814"/>
<path d="M0.72 205.436V198.236H2.87L4.57 203.996H4.69L6.38 198.236H8.54V205.436H7.28V199.656H7.14L5.46 205.436H3.75L2.07 199.656H1.92V205.436H0.72ZM9.79781 205.436L12.4878 198.236H13.9878L16.6678 205.436H15.2878L14.7178 203.876H11.7078L11.1478 205.436H9.79781ZM12.1278 202.716H14.2978L13.2578 199.836H13.1578L12.1278 202.716ZM17.9309 205.436V198.236H19.7409L22.8509 204.116H22.9809V198.236H24.1609V205.436H22.2709L19.2309 199.656H19.1109V205.436H17.9309ZM25.417 205.436L28.107 198.236H29.607L32.287 205.436H30.907L30.337 203.876H27.327L26.767 205.436H25.417ZM27.747 202.716H29.917L28.877 199.836H28.777L27.747 202.716ZM36.6348 205.556C34.5448 205.556 33.0748 203.986 33.0748 201.836C33.0748 199.666 34.5648 198.116 36.6548 198.116C38.4548 198.116 39.4148 199.036 39.7748 200.226L38.5048 200.536C38.2048 199.746 37.6448 199.296 36.6348 199.296C35.1648 199.296 34.3948 200.266 34.3948 201.836C34.3948 203.406 35.1548 204.376 36.6348 204.376C37.8148 204.376 38.5348 203.836 38.6048 202.726H36.4548V201.566H39.9148V202.536C39.9148 204.466 38.5148 205.556 36.6348 205.556ZM41.638 205.436V198.236H46.648V199.396H42.898V201.196H46.408V202.356H42.898V204.276H46.748V205.436H41.638Z" fill="white"/>
<defs>
<filter id="filter0_b_3442_13845" x="212" y="16" width="108" height="108" filterUnits="userSpaceOnUse" color-interpolation-filters="sRGB">
<feFlood flood-opacity="0" result="BackgroundImageFix"/>
<feGaussianBlur in="BackgroundImageFix" stdDeviation="10"/>
<feComposite in2="SourceAlpha" operator="in" result="effect1_backgroundBlur_3442_13845"/>
<feBlend mode="normal" in="SourceGraphic" in2="effect1_backgroundBlur_3442_13845" result="shape"/>
</filter>
<filter id="filter1_b_3442_13845" x="112.25" y="338.5" width="108" height="108" filterUnits="userSpaceOnUse" color-interpolation-filters="sRGB">
<feFlood flood-opacity="0" result="BackgroundImageFix"/>
<feGaussianBlur in="BackgroundImageFix" stdDeviation="10"/>
<feComposite in2="SourceAlpha" operator="in" result="effect1_backgroundBlur_3442_13845"/>
<feBlend mode="normal" in="SourceGraphic" in2="effect1_backgroundBlur_3442_13845" result="shape"/>
</filter>
<filter id="filter2_b_3442_13845" x="314.75" y="338.5" width="108" height="108" filterUnits="userSpaceOnUse" color-interpolation-filters="sRGB">
<feFlood flood-opacity="0" result="BackgroundImageFix"/>
<feGaussianBlur in="BackgroundImageFix" stdDeviation="10"/>
<feComposite in2="SourceAlpha" operator="in" result="effect1_backgroundBlur_3442_13845"/>
<feBlend mode="normal" in="SourceGraphic" in2="effect1_backgroundBlur_3442_13845" result="shape"/>
</filter>
<filter id="filter3_b_3442_13845" x="378.5" y="139.936" width="108" height="108" filterUnits="userSpaceOnUse" color-interpolation-filters="sRGB">
<feFlood flood-opacity="0" result="BackgroundImageFix"/>
<feGaussianBlur in="BackgroundImageFix" stdDeviation="10"/>
<feComposite in2="SourceAlpha" operator="in" result="effect1_backgroundBlur_3442_13845"/>
<feBlend mode="normal" in="SourceGraphic" in2="effect1_backgroundBlur_3442_13845" result="shape"/>
</filter>
<filter id="filter4_b_3442_13845" x="39.75" y="139.936" width="108" height="108" filterUnits="userSpaceOnUse" color-interpolation-filters="sRGB">
<feFlood flood-opacity="0" result="BackgroundImageFix"/>
<feGaussianBlur in="BackgroundImageFix" stdDeviation="10"/>
<feComposite in2="SourceAlpha" operator="in" result="effect1_backgroundBlur_3442_13845"/>
<feBlend mode="normal" in="SourceGraphic" in2="effect1_backgroundBlur_3442_13845" result="shape"/>
</filter>
</defs>
</svg>
