<svg viewBox="0 0 105 24" fill="none" xmlns="http://www.w3.org/2000/svg">
<path fill-rule="evenodd" clip-rule="evenodd" d="M11.7476 0.947571C5.5361 0.947571 0.5 6.10839 0.5 12.4738C0.5 18.8392 5.5361 24 11.7476 24C17.9592 24 22.9953 18.8392 22.9953 12.4738C22.9953 6.10839 17.9592 0.947571 11.7476 0.947571ZM16.026 19.677C16.6354 18.4717 17.6017 17.4826 18.7767 16.8581C20.3233 16.0369 21.3794 14.3819 21.3794 12.4739C21.3794 10.5658 20.3233 8.91085 18.7767 8.08967C17.6017 7.46517 16.6354 6.47493 16.026 5.27076C15.2246 3.68592 13.6096 2.60367 11.7477 2.60367C9.88579 2.60367 8.27079 3.68592 7.46946 5.27076C6.86004 6.47493 5.89373 7.46517 4.71867 8.08967C3.17213 8.91085 2.11603 10.5658 2.11603 12.4739C2.11603 14.3819 3.17213 16.0369 4.71867 16.8581C5.89485 17.4826 6.86004 18.4728 7.46946 19.677C8.27079 21.2618 9.88579 22.3441 11.7477 22.3441C13.6096 22.3441 15.2246 21.2618 16.026 19.677Z" fill="#171B1E"/>
<path fill-rule="evenodd" clip-rule="evenodd" d="M30.4571 2.12531H38.4374C42.6135 2.12531 45.4179 4.67868 45.4179 8.35253C45.4179 12.0264 42.6118 14.6129 38.4357 14.6129H32.888V22.8176H30.4571V2.12531ZM32.8897 12.3144H38.8109C41.7104 12.3144 42.8325 11.1642 42.8325 8.35428C42.8325 5.54435 41.7087 4.45702 38.8109 4.45702H32.8897V12.3144Z" fill="#171B1E"/>
<path d="M72.9833 10.042V7.80628H68.8276V2.15326H66.4272V7.80628H62.7621V10.042H66.4272V19.1455C66.4272 21.3498 67.8617 22.8193 70.0125 22.8193H72.9731V20.5836H68.8276V10.042H72.9833Z" fill="#171B1E"/>
<path fill-rule="evenodd" clip-rule="evenodd" d="M58.5725 7.80638V10.2072C57.4394 8.47693 55.6601 7.48699 53.4102 7.48699C53.344 7.48699 53.2781 7.48776 53.2126 7.48931C53.1503 7.48776 53.0877 7.48699 53.0248 7.48699C48.8165 7.48699 46.0121 10.6181 46.0121 15.3112C46.0121 20.0043 48.8182 23.1353 53.0248 23.1353C53.0878 23.1353 53.1504 23.1346 53.2126 23.133C53.2451 23.1338 53.2777 23.1344 53.3104 23.1347C53.3436 23.1351 53.3769 23.1353 53.4102 23.1353C55.6601 23.1353 57.4394 22.1454 58.5725 20.4151V22.8159H60.9729V7.80638H58.5725ZM53.585 20.9014C50.0947 20.9014 48.4735 19.1124 48.4735 15.3129C48.4735 11.5134 50.0947 9.72446 53.585 9.72446C57.0752 9.72446 58.6964 11.5134 58.6964 15.3129C58.6964 19.1124 57.0769 20.9014 53.585 20.9014Z" fill="#171B1E"/>
<path d="M76.7792 15.3128C76.7797 19.1443 78.4009 20.9327 81.86 20.9327C84.0924 20.9327 85.4437 20.1717 86.1719 17.8487L88.6334 18.2606C87.5436 21.5366 85.0804 23.1388 81.8906 23.1388C77.4022 23.1388 74.316 20.0094 74.316 15.3146C74.316 10.6197 77.4005 7.4904 81.8906 7.4904C85.0651 7.4904 87.5181 9.07513 88.6147 12.3162L86.1346 12.6704C85.3978 10.4312 84.0567 9.69296 81.8584 9.69296C78.4009 9.69296 76.7797 11.4813 76.7792 15.3128Z" fill="#171B1E"/>
<path d="M96.3576 7.61467C96.3957 7.60576 96.4341 7.59707 96.4728 7.58861V7.59035C97.6518 7.33176 98.8718 7.39188 99.9153 7.72856C102.175 8.38093 103.401 10.3368 103.401 13.3636V22.8179H101V13.5242C101 11.0633 99.5675 9.72294 97.3861 9.72294C94.5189 9.72294 92.711 11.9901 92.711 15.8873V22.8179H90.3106V2.12565H92.711V10.6034C93.3841 9.08306 94.5184 7.97475 96.3576 7.61467Z" fill="#171B1E"/>
</svg>
