<svg width="26" height="24" viewBox="0 0 26 24" fill="none" xmlns="http://www.w3.org/2000/svg">
<path d="M25.1133 8.04772C25.1133 14.6724 19.8408 20.0629 13.2645 20.245H13.262C13.1514 20.2475 13.0387 20.25 12.9256 20.25C12.8125 20.25 12.6998 20.2475 12.5892 20.245C6.01291 20.0654 0.738281 14.6724 0.738281 8.04772C0.738281 7.25453 0.813646 6.4791 0.957862 5.72862C1.01268 5.44271 1.26498 5.23194 1.55497 5.25127C7.90141 5.67749 12.916 10.9636 12.916 17.423H12.9356C12.9356 10.9639 17.9504 5.6778 24.2966 5.25127C24.5869 5.23162 24.8388 5.44271 24.8937 5.72862C25.0379 6.4791 25.1133 7.25421 25.1133 8.04772V8.04772Z" stroke="#5C5443" stroke-miterlimit="10"/>
</svg>
