<svg width="24" height="24" viewBox="0 0 24 24" fill="none" xmlns="http://www.w3.org/2000/svg">
<path fill-rule="evenodd" clip-rule="evenodd" d="M4.03552 3C3.63805 3.00019 3.28196 3.24039 3.14046 3.60375L1.62537 7.4925C1.46296 7.90993 1.4582 8.37038 1.61195 8.79094C2.04502 9.97024 3.2819 10.6744 4.54393 10.46C5.80596 10.2457 6.72789 9.17496 6.72933 7.92188C6.72933 9.34573 7.90922 10.5 9.36469 10.5C10.8202 10.5 12 9.34573 12 7.92188C12 9.34573 13.1799 10.5 14.6354 10.5C16.0909 10.5 17.2708 9.34573 17.2708 7.92188C17.2722 9.17496 18.1941 10.2457 19.4562 10.46C20.7182 10.6744 21.9551 9.97024 22.3881 8.79094C22.5421 8.37035 22.537 7.90973 22.3738 7.4925L20.8596 3.60375C20.7181 3.24039 20.362 3.00019 19.9646 3H4.03552Z" stroke="#5C5443" stroke-linecap="round" stroke-linejoin="round"/>
<path d="M21 10.5238V21.5096C21 22.0566 20.5523 22.5 20 22.5H4C3.44772 22.5 3 22.0566 3 21.5096V10.5" stroke="#5C5443" stroke-linecap="round" stroke-linejoin="round"/>
</svg>
