<svg width="24" height="24" viewBox="0 0 24 24" fill="none" xmlns="http://www.w3.org/2000/svg">
<path d="M10.2945 2.21406L2.26671 19.3581C1.79298 20.3699 1.98558 21.5398 2.56679 22.2748C3.23344 23.1178 4.46706 22.7323 5.41239 22.2209L11.1606 19.1119C11.6843 18.8286 12.3157 18.8286 12.8394 19.1119L18.5876 22.2209C19.5329 22.7323 20.7665 23.1179 21.4332 22.2749C22.0145 21.5399 22.207 20.37 21.7333 19.3581L13.7054 2.21406C12.9476 0.595314 11.0524 0.595314 10.2945 2.21406Z" stroke="#5C5443" stroke-miterlimit="10"/>
<path d="M12.4022 12C12.4022 12.2221 12.2221 12.4022 12 12.4022C11.7779 12.4022 11.5978 12.2221 11.5978 12C11.5978 11.7779 11.7779 11.5978 12 11.5978C12.2221 11.5978 12.4022 11.7779 12.4022 12Z" fill="#161814" stroke="#5C5443" stroke-width="1.19561"/>
</svg>
