<svg width="24" height="24" viewBox="0 0 24 24" fill="none" xmlns="http://www.w3.org/2000/svg">
<g clip-path="url(#clip0_895_5358)">
<path d="M16.103 12.011C16.103 15.2815 15.5834 18.2197 14.7608 20.3218C14.3489 21.3745 13.8708 22.1923 13.3655 22.7385C12.8607 23.2842 12.366 23.522 11.9031 23.522C11.4401 23.522 10.9455 23.2842 10.4407 22.7385C9.93532 22.1923 9.45723 21.3745 9.04533 20.3218C8.22275 18.2197 7.70312 15.2815 7.70312 12.011C7.70312 8.74044 8.22275 5.80229 9.04533 3.70014C9.45723 2.64752 9.93532 1.82967 10.4407 1.28343C10.9455 0.737773 11.4401 0.5 11.9031 0.5C12.366 0.5 12.8607 0.737773 13.3655 1.28343C13.8708 1.82967 14.3489 2.64752 14.7608 3.70014C15.5834 5.80229 16.103 8.74044 16.103 12.011Z" stroke="#5C5443" stroke-linecap="round" stroke-linejoin="round"/>
<path d="M14.38 15.6136C11.5853 17.5361 8.76891 18.8194 6.48767 19.3522C5.34544 19.619 4.36362 19.6914 3.59705 19.5801C2.83128 19.469 2.33169 19.1844 2.05542 18.7831C1.7793 18.382 1.69209 17.8142 1.86225 17.0596C2.0326 16.3042 2.45167 15.4134 3.10971 14.4422C4.42393 12.5025 6.63059 10.3312 9.42531 8.4086C12.2199 6.48606 15.0364 5.20306 17.3176 4.67039C18.4598 4.40368 19.4417 4.33128 20.2083 4.44251C20.9741 4.55363 21.4737 4.83814 21.7499 5.23917C22.026 5.6399 22.1132 6.20752 21.943 6.96208C21.7727 7.71743 21.3536 8.60828 20.6956 9.57957C19.3814 11.5194 17.1747 13.691 14.38 15.6136Z" stroke="#5C5443" stroke-linecap="round" stroke-linejoin="round"/>
<path d="M21.7224 18.7643C21.4469 19.1645 20.9487 19.4483 20.185 19.5591C19.4206 19.6701 18.4415 19.5979 17.3024 19.3318C15.0275 18.8005 12.2189 17.5208 9.432 15.6036C6.64505 13.6863 4.44451 11.5208 3.13393 9.58631C2.47771 8.61772 2.05979 7.72934 1.88992 6.97609C1.72023 6.22362 1.80723 5.65757 2.08249 5.25796C2.35796 4.85804 2.85617 4.57432 3.61988 4.4635C4.38435 4.35258 5.36347 4.42478 6.50253 4.69075C8.77745 5.22194 11.5861 6.50138 14.3729 8.41859C17.1599 10.3359 19.3604 12.5012 20.671 14.4355C21.3272 15.404 21.7451 16.2923 21.915 17.0456C22.0847 17.7981 21.9977 18.3644 21.7224 18.7643Z" stroke="#5C5443" stroke-width="0.997226" stroke-linecap="round" stroke-linejoin="round"/>
<path d="M12.8916 12C12.8916 12.5523 12.4439 13 11.8916 13C11.3393 13 10.8916 12.5523 10.8916 12C10.8916 11.4477 11.3393 11 11.8916 11C12.4439 11 12.8916 11.4477 12.8916 12Z" stroke="#5C5443" stroke-linecap="round" stroke-linejoin="round"/>
</g>
<defs>
<clipPath id="clip0_895_5358">
<rect width="24" height="24" fill="white"/>
</clipPath>
</defs>
</svg>
