<svg width="24" height="24" viewBox="0 0 24 24" fill="none" xmlns="http://www.w3.org/2000/svg">
<path d="M0.5 11.5C0.5 11.2239 0.723858 11 1 11H17C17.2761 11 17.5 11.2239 17.5 11.5V20C17.5 20.2761 17.2761 20.5 17 20.5H1C0.723858 20.5 0.5 20.2761 0.5 20V11.5Z" stroke="#5C5443" stroke-linecap="round" stroke-linejoin="round"/>
<path d="M3.75 8.25H19.25C19.8023 8.25 20.25 8.69772 20.25 9.25V17.25" stroke="#5C5443" stroke-linejoin="round"/>
<path d="M6.75 5.25H22.25C22.8023 5.25 23.25 5.69772 23.25 6.25V14.25" stroke="#5C5443" stroke-linejoin="round"/>
<path fill-rule="evenodd" clip-rule="evenodd" d="M9 18.75C10.6569 18.75 12 17.4069 12 15.75C12 14.0931 10.6569 12.75 9 12.75C7.34315 12.75 6 14.0931 6 15.75C6 17.4069 7.34315 18.75 9 18.75Z" stroke="#5C5443" stroke-linecap="round" stroke-linejoin="round"/>
</svg>
