<svg width="28" height="25" viewBox="0 0 28 25" fill="none" xmlns="http://www.w3.org/2000/svg">
<path d="M13.9502 14.125V25" stroke="#5C5443" stroke-miterlimit="10"/>
<path d="M27.0752 12.5984C27.0752 16.1332 24.1787 19 20.6066 19H7.29379C3.72198 19 0.825195 16.1335 0.825195 12.5984C0.825195 9.0632 3.72163 6.19674 7.29379 6.19674C7.39373 6.19674 7.49368 6.19675 7.59362 6.20611C8.15958 3.24076 10.7899 1 13.9479 1C17.1059 1 19.7362 3.24041 20.3022 6.20611C20.4021 6.19675 20.5066 6.19674 20.6066 6.19674C24.1784 6.19674 27.0752 9.0632 27.0752 12.5984Z" stroke="#5C5443" stroke-miterlimit="10"/>
<path d="M18.0752 10.375L14.1379 14.5L10.2002 10.375" stroke="#5C5443" stroke-miterlimit="10"/>
</svg>
