<svg width="24" height="24" viewBox="0 0 24 24" fill="none" xmlns="http://www.w3.org/2000/svg">
<path fill-rule="evenodd" clip-rule="evenodd" d="M22.5 11.9576C22.5014 14.7522 21.3929 17.4329 19.4184 19.4099C17.4438 21.387 14.7649 22.4985 11.9709 22.5C6.12787 22.4029 1.45492 17.6136 1.50033 11.7686C1.505 6.18558 5.96776 1.62893 11.5482 1.50929C11.6998 1.50289 11.8513 1.50015 12.0047 1.50015C14.7859 1.48506 17.4581 2.58069 19.4284 4.54396C21.3988 6.50723 22.5044 9.17579 22.5 11.9576Z" stroke="#5C5443" stroke-linecap="round" stroke-linejoin="round"/>
<path d="M9.28156 5.82495C10.3589 3.5166 13.6413 3.5166 14.7186 5.82496L15.3571 7.19317C15.6551 7.83169 16.1684 8.34495 16.8069 8.64295L18.1751 9.28149C20.4835 10.3588 20.4835 13.6412 18.1751 14.7185L16.8069 15.3571C16.1684 15.6551 15.6551 16.1683 15.3571 16.8068L14.7186 18.1751C13.6413 20.4834 10.3589 20.4834 9.28155 18.1751L8.64301 16.8068C8.34501 16.1683 7.83175 15.6551 7.19323 15.3571L5.82501 14.7185C3.51666 13.6412 3.51666 10.3588 5.82502 9.28149L7.19323 8.64295C7.83176 8.34495 8.34501 7.83169 8.64301 7.19317L9.28156 5.82495Z" stroke="#5C5443" stroke-linecap="round" stroke-linejoin="round"/>
</svg>
