<svg width="24" height="24" viewBox="0 0 24 24" fill="none" xmlns="http://www.w3.org/2000/svg">
<path fill-rule="evenodd" clip-rule="evenodd" d="M22.5 12C22.4977 10.503 21.582 9.15897 20.1896 8.60882C20.7904 7.23557 20.4882 5.63451 19.4281 4.57463C18.3681 3.51476 16.7668 3.21262 15.3933 3.81333C14.8464 2.41798 13.5005 1.5 12.0016 1.5C10.5027 1.5 9.15682 2.41798 8.60992 3.81333C7.23646 3.21262 5.63515 3.51476 4.57511 4.57463C3.51507 5.63451 3.21288 7.23557 3.81369 8.60882C2.41812 9.15564 1.5 10.5013 1.5 12C1.5 13.4987 2.41812 14.8444 3.81369 15.3912C3.21288 16.7644 3.51507 18.3655 4.57511 19.4254C5.63515 20.4852 7.23646 20.7874 8.60992 20.1867C9.15682 21.582 10.5027 22.5 12.0016 22.5C13.5005 22.5 14.8464 21.582 15.3933 20.1867C16.7668 20.7874 18.3681 20.4852 19.4281 19.4254C20.4882 18.3655 20.7904 16.7644 20.1896 15.3912C21.582 14.841 22.4977 13.497 22.5 12Z" stroke="#5C5443" stroke-linecap="round" stroke-linejoin="round"/>
<mask id="path-2-inside-1_895_5328" fill="white">
<path fill-rule="evenodd" clip-rule="evenodd" d="M15.9118 9.02732C15.0176 7.82592 13.5752 7.04849 11.9543 7.04849C9.25384 7.04849 7.04883 9.20638 7.04883 11.8877C7.04883 14.569 9.25384 16.7269 11.9543 16.7269C13.6671 16.7269 15.1807 15.8587 16.0586 14.5395L15.1895 13.675C14.5544 14.7817 13.3472 15.5329 11.9543 15.5329C9.89572 15.5329 8.24278 13.8922 8.24278 11.8877C8.24278 9.88317 9.89572 8.24245 11.9543 8.24245C13.2378 8.24245 14.3637 8.88028 15.0295 9.84645L15.9118 9.02732Z"/>
</mask>
<path d="M15.9118 9.02732L16.5922 9.76018L17.2496 9.14985L16.714 8.43024L15.9118 9.02732ZM16.0586 14.5395L16.8911 15.0936L17.3462 14.4098L16.7639 13.8305L16.0586 14.5395ZM15.1895 13.675L15.8947 12.966L14.9707 12.0469L14.3221 13.1773L15.1895 13.675ZM15.0295 9.84645L14.2061 10.4139L14.8623 11.3662L15.7098 10.5793L15.0295 9.84645ZM11.9543 8.04849C13.2495 8.04849 14.3983 8.66871 15.1096 9.62439L16.714 8.43024C15.6369 6.98312 13.9008 6.04849 11.9543 6.04849V8.04849ZM8.04883 11.8877C8.04883 9.77376 9.79091 8.04849 11.9543 8.04849V6.04849C8.71677 6.04849 6.04883 8.639 6.04883 11.8877H8.04883ZM11.9543 15.7269C9.79091 15.7269 8.04883 14.0016 8.04883 11.8877H6.04883C6.04883 15.1364 8.71677 17.7269 11.9543 17.7269V15.7269ZM15.2261 13.9855C14.5282 15.0341 13.323 15.7269 11.9543 15.7269V17.7269C14.0113 17.7269 15.8331 16.6833 16.8911 15.0936L15.2261 13.9855ZM14.4842 14.384L15.3534 15.2485L16.7639 13.8305L15.8947 12.966L14.4842 14.384ZM11.9543 16.5329C13.7148 16.5329 15.2482 15.5819 16.0568 14.1727L14.3221 13.1773C13.8606 13.9816 12.9796 14.5329 11.9543 14.5329V16.5329ZM7.24278 11.8877C7.24278 14.4583 9.35739 16.5329 11.9543 16.5329V14.5329C10.4341 14.5329 9.24278 13.3261 9.24278 11.8877H7.24278ZM11.9543 7.24245C9.35739 7.24245 7.24278 9.31703 7.24278 11.8877H9.24278C9.24278 10.4493 10.4341 9.24245 11.9543 9.24245V7.24245ZM15.8529 9.27901C15.006 8.05013 13.5765 7.24245 11.9543 7.24245V9.24245C12.8992 9.24245 13.7213 9.71044 14.2061 10.4139L15.8529 9.27901ZM15.2314 8.29446L14.3491 9.11358L15.7098 10.5793L16.5922 9.76018L15.2314 8.29446Z" fill="#5C5443" mask="url(#path-2-inside-1_895_5328)"/>
</svg>
