<svg width="180" height="66" viewBox="0 0 180 66" fill="none" xmlns="http://www.w3.org/2000/svg">
<rect width="180" height="66" fill="#FAFAFA"/>
<g clip-path="url(#clip0_1027_57310)">
<path d="M62.7118 28.776H56.6398C56.3038 28.776 56.0158 29.064 56.0158 29.424V31.944C56.0158 32.304 56.3038 32.592 56.6398 32.592H58.9438V35.064C58.3438 35.184 57.6958 35.28 56.6878 35.28C54.0958 35.28 52.7758 33.624 52.7758 30.552C52.7758 27.504 54.0958 25.848 56.6878 25.848C58.9678 25.848 59.8558 26.304 60.9118 26.544C61.4398 26.688 61.7038 26.664 61.8478 26.208C61.9918 25.824 62.3998 24.6 62.5438 24.216C62.7358 23.616 62.4478 23.04 61.7758 22.848C60.2638 22.416 59.3038 22.032 56.4958 22.032C51.2878 22.032 48.3838 25.584 48.3838 30.552C48.3838 35.52 51.2878 39.096 56.4958 39.096C58.7998 39.096 60.1438 38.712 61.7758 38.184C62.4478 37.968 63.3358 37.488 63.3358 36.12V29.424C63.3358 29.064 63.0478 28.776 62.7118 28.776ZM73.5632 27.072C73.1792 26.976 72.7952 26.952 72.3632 26.952C70.9712 26.952 69.8192 27.504 68.9792 28.488C68.4272 27.576 67.4672 27.048 66.0272 27.048H65.8592C65.4752 27.048 65.1872 27.336 65.1872 27.696V38.352C65.1872 38.712 65.4752 39 65.8592 39H68.8592C69.2192 39 69.5072 38.712 69.5072 38.352C69.5072 38.352 69.5072 36.024 69.5072 33.864C69.5552 31.392 70.1072 30.768 71.6672 30.672C72.4112 30.624 72.9152 30.912 73.1552 30.384C73.3952 29.88 73.9952 28.584 74.2112 28.056C74.3552 27.72 74.2832 27.24 73.5632 27.072ZM84.2257 35.544C84.1057 34.992 83.7217 34.896 83.4097 34.992C82.5937 35.208 81.8497 35.496 80.4577 35.496C79.3537 35.496 78.7537 35.136 78.4417 34.416C79.0897 34.368 79.7857 34.32 80.5297 34.248C83.4097 34.032 85.2097 32.64 84.6817 29.88C84.2977 27.912 81.9217 26.952 79.7137 26.952C76.3537 26.952 73.9297 29.664 73.9297 33.024C73.9297 36.384 76.6657 39.12 80.1697 39.12C81.7537 39.12 82.3537 39 84.0817 38.664C84.5377 38.568 84.8497 38.256 84.7537 37.824C84.6337 37.32 84.3457 36.072 84.2257 35.544ZM79.7377 29.976C80.4097 29.904 80.9617 30.384 80.9857 30.816C81.0337 31.248 80.5057 31.536 80.0737 31.56C79.5457 31.608 78.8977 31.632 78.2737 31.68C78.2257 30.744 78.6577 30.072 79.7377 29.976ZM95.6976 35.544C95.5776 34.992 95.1936 34.896 94.8816 34.992C94.0656 35.208 93.3216 35.496 91.9296 35.496C90.8256 35.496 90.2256 35.136 89.9136 34.416C90.5616 34.368 91.2576 34.32 92.0016 34.248C94.8816 34.032 96.6816 32.64 96.1536 29.88C95.7696 27.912 93.3936 26.952 91.1856 26.952C87.8256 26.952 85.4016 29.664 85.4016 33.024C85.4016 36.384 88.1376 39.12 91.6416 39.12C93.2256 39.12 93.8256 39 95.5536 38.664C96.0096 38.568 96.3216 38.256 96.2256 37.824C96.1056 37.32 95.8176 36.072 95.6976 35.544ZM91.2096 29.976C91.8816 29.904 92.4336 30.384 92.4576 30.816C92.5056 31.248 91.9776 31.536 91.5456 31.56C91.0176 31.608 90.3696 31.632 89.7456 31.68C89.6976 30.744 90.1296 30.072 91.2096 29.976ZM105.173 26.952C103.589 26.952 102.365 27.648 101.501 28.872C100.997 27.72 99.9655 27.048 98.3575 27.048H98.1655C97.8055 27.048 97.5175 27.336 97.5175 27.696V38.352C97.5175 38.712 97.8055 39 98.1655 39H101.165C101.525 39 101.837 38.712 101.837 38.352C101.837 38.352 101.837 36.408 101.837 34.416C101.885 31.872 102.821 30.672 104.141 30.672C105.245 30.672 105.821 31.272 105.821 32.64V38.352C105.821 38.712 106.133 39 106.493 39H109.493C109.853 39 110.141 38.712 110.141 38.352V31.704C110.141 29.04 108.245 26.952 105.173 26.952ZM116.403 38.352C116.403 38.352 116.403 27.696 116.403 25.992C116.403 24.048 115.563 22.152 112.923 22.152H112.755C112.395 22.152 112.083 22.44 112.083 22.8V38.352C112.083 38.712 112.395 39 112.755 39H115.755C116.115 39 116.403 38.712 116.403 38.352ZM129.689 27.048H129.113C126.785 27.048 125.297 28.272 124.817 29.976C124.433 31.32 124.097 32.976 123.809 34.56C123.497 32.952 123.137 31.176 122.801 29.976C122.345 28.272 120.881 27.048 118.505 27.048H117.929C117.569 27.048 117.377 27.336 117.497 27.696L120.833 38.352C120.953 38.712 121.313 39 121.673 39H122.777C122.513 39.84 122.081 40.8 120.953 40.8C120.473 40.8 120.089 40.752 119.657 40.704C119.321 40.68 118.985 40.608 118.913 41.184C118.793 42.144 118.721 43.2 118.673 43.704C118.649 44.136 118.985 44.376 119.441 44.424C119.993 44.472 120.761 44.52 120.953 44.52C124.289 44.52 125.489 42.336 126.377 39.504L130.121 27.696C130.241 27.336 130.049 27.048 129.689 27.048Z" fill="#282B24"/>
</g>
<defs>
<clipPath id="clip0_1027_57310">
<rect width="83" height="23" fill="white" transform="translate(48 22)"/>
</clipPath>
</defs>
</svg>
