<svg width="180" height="66" viewBox="0 0 180 66" fill="none" xmlns="http://www.w3.org/2000/svg">
<rect width="180" height="66" fill="#FAFAFA"/>
<path d="M35.7399 37.648C35.6697 37.648 35.6054 37.6943 35.582 37.7579L35.4474 38.1857L34.605 40.7931C34.5816 40.8856 34.5114 40.9029 34.4704 40.9029H31.8554C31.7618 40.9029 31.7208 40.8105 31.7442 40.7468L36.793 25.2009C36.8164 25.1315 36.8866 25.0911 36.9275 25.0911H41.0226C41.0695 25.0911 41.1338 25.1373 41.1572 25.2009L46.1825 40.7468C46.206 40.8162 46.1591 40.9029 46.0714 40.9029H43.4564C43.4095 40.9029 43.3451 40.8567 43.3218 40.7931L42.5729 38.4343L42.3448 37.7579C42.3214 37.6885 42.2512 37.648 42.1868 37.648H35.7399ZM36.442 35.0638C36.4186 35.1332 36.4654 35.1736 36.5356 35.1736H41.403C41.4731 35.1736 41.4965 35.1274 41.4731 35.0638L39.0804 27.6522C39.0336 27.5423 38.899 27.5423 38.8523 27.6522L36.442 35.0638Z" fill="#282B24"/>
<path d="M47.99 40.9086C47.9198 40.9086 47.8789 40.8623 47.8789 40.7987V25.2065C47.8789 25.1372 47.9257 25.0967 47.99 25.0967H50.4939C50.5641 25.0967 50.6051 25.1429 50.6051 25.2065V38.3532C50.6051 38.4226 50.6285 38.4457 50.6987 38.4457H58.4268C58.497 38.4457 58.5379 38.4919 58.5379 38.5556V40.8045C58.5379 40.8739 58.4911 40.9143 58.4268 40.9143L47.99 40.9086Z" fill="#282B24"/>
<path d="M63.9316 40.7989C63.9316 40.8683 63.8849 40.9087 63.8205 40.9087H61.3167C61.2464 40.9087 61.2055 40.8625 61.2055 40.7989V27.6753C61.2055 27.6059 61.1587 27.5655 61.0943 27.5655H56.8881C56.8178 27.5655 56.7769 27.5192 56.7769 27.4556V25.2009C56.7769 25.1315 56.8237 25.0911 56.8881 25.0911H68.2549C68.3251 25.0911 68.3661 25.1373 68.3661 25.2009V27.4498C68.3661 27.5192 68.3193 27.5597 68.2549 27.5597H64.0487C63.9785 27.5597 63.9375 27.6059 63.9375 27.6695L63.9316 40.7989Z" fill="#282B24"/>
<path d="M79.3588 34.237C79.3354 34.2601 79.3354 34.2833 79.3588 34.3295L82.2488 40.7583C82.2957 40.8509 82.2255 40.9144 82.1377 40.9144H79.5226C79.4759 40.9144 79.429 40.8682 79.4115 40.845L76.773 34.9597C76.7496 34.9134 76.7263 34.8498 76.6619 34.8498H73.0932C73.023 34.8498 72.9996 34.8729 72.9996 34.9423V40.8045C72.9996 40.8739 72.9528 40.9144 72.8885 40.9144H70.3847C70.3144 40.9144 70.2734 40.8682 70.2734 40.8045V25.2124C70.2734 25.143 70.3203 25.1025 70.3847 25.1025H77.048C79.6162 25.1025 81.8451 27.2358 81.8451 29.9762C81.8393 31.8551 80.8155 33.4276 79.3588 34.237ZM76.9076 32.3696C78.066 32.3234 79.1365 31.2712 79.1365 29.9646C79.1365 28.6407 78.0249 27.5596 76.8198 27.5596H73.0932C73.023 27.5596 72.9996 27.6058 72.9996 27.6521V32.2598C72.9996 32.3292 73.0465 32.3696 73.1108 32.3696H76.9076Z" fill="#282B24"/>
<path d="M95.435 35.4281C95.435 38.5962 92.8667 41.1342 89.6374 41.1342C86.4315 41.1342 83.8398 38.5962 83.8398 35.4281V25.2067C83.8398 25.1373 83.8867 25.0968 83.9511 25.0968H86.4549C86.5251 25.0968 86.566 25.1431 86.566 25.2067V35.4281C86.566 37.0931 87.9526 38.4401 89.6374 38.4401C91.3222 38.4401 92.7088 37.0931 92.7088 35.4281V25.2009C92.7088 25.1315 92.7556 25.0911 92.8199 25.0911H95.3238C95.394 25.0911 95.435 25.1373 95.435 25.2009V35.4281Z" fill="#282B24"/>
<path d="M98.0033 40.9086C97.9331 40.9086 97.8921 40.8623 97.8921 40.7987V25.2065C97.8921 25.1372 97.9389 25.0967 98.0033 25.0967H100.507C100.577 25.0967 100.618 25.1429 100.618 25.2065V40.7987C100.618 40.8681 100.571 40.9086 100.507 40.9086H98.0033Z" fill="#282B24"/>
<path d="M108.961 41.1343C104.439 41.1343 102.73 38.683 102.73 36.5729C102.73 36.5035 102.777 36.4631 102.842 36.4631H105.457C105.527 36.4631 105.568 36.5093 105.568 36.5729C105.568 37.654 107.025 38.6599 108.955 38.6599C110.845 38.6599 112.255 37.6019 112.255 36.278C112.255 35.2894 111.301 34.3239 108.955 34.1216C105.228 33.7863 102.842 32.7052 102.842 29.537C102.842 26.5712 105.661 24.8657 108.505 24.8657C111.529 24.8657 114.302 26.5076 114.302 29.4272C114.302 29.4965 114.255 29.537 114.209 29.537H111.57C111.5 29.537 111.459 29.4908 111.459 29.4272C111.482 28.4617 110.388 27.3401 108.505 27.3401C106.96 27.3401 105.685 28.3287 105.685 29.5428C105.685 30.913 107.387 31.2483 108.961 31.4275C111.348 31.6992 115.098 32.1907 115.098 36.278C115.098 39.2439 112.758 41.1343 108.961 41.1343Z" fill="#282B24"/>
<path d="M123.001 40.7989C123.001 40.8683 122.954 40.9087 122.891 40.9087H120.386C120.316 40.9087 120.276 40.8625 120.276 40.7989V27.6753C120.276 27.6059 120.229 27.5655 120.164 27.5655H115.958C115.888 27.5655 115.847 27.5192 115.847 27.4556V25.2009C115.847 25.1315 115.894 25.0911 115.958 25.0911H127.325C127.395 25.0911 127.436 25.1373 127.436 25.2009V27.4498C127.436 27.5192 127.389 27.5597 127.325 27.5597H123.119C123.048 27.5597 123.007 27.6059 123.007 27.6695V40.7989H123.001Z" fill="#282B24"/>
<path d="M129.401 40.9086C129.337 40.9086 129.29 40.8565 129.29 40.7987V25.2065C129.29 25.1429 129.343 25.0967 129.401 25.0967H131.905C131.97 25.0967 132.016 25.1487 132.016 25.2065V40.7987C132.016 40.8623 131.964 40.9086 131.905 40.9086H129.401Z" fill="#282B24"/>
<path d="M141.061 41.1343C136.264 41.1343 133.853 37.7638 133.853 33C133.853 28.2362 136.264 24.8657 141.061 24.8657C145.858 24.8657 148.268 28.2362 148.268 33C148.268 37.7638 145.858 41.1343 141.061 41.1343ZM145.425 33C145.425 29.4734 143.881 27.3401 141.061 27.3401C138.241 27.3401 136.697 29.4734 136.697 33C136.697 36.5266 138.241 38.6599 141.061 38.6599C143.881 38.6599 145.425 36.5266 145.425 33Z" fill="#282B24"/>
<path d="M143.874 37.5671H141.371C141.306 37.5671 141.259 37.5151 141.259 37.4573V34.9829C141.259 34.9193 141.312 34.873 141.371 34.873H143.874C143.939 34.873 143.986 34.9251 143.986 34.9829V37.4573C143.992 37.5209 143.939 37.5671 143.874 37.5671Z" fill="#282B24"/>
<path d="M148.479 42.1169H145.975C145.911 42.1169 145.864 42.0649 145.864 42.0071V39.5327C145.864 39.4691 145.917 39.4229 145.975 39.4229H148.479C148.543 39.4229 148.59 39.4749 148.59 39.5327V42.0071C148.596 42.0707 148.543 42.1169 148.479 42.1169Z" fill="#282B24"/>
</svg>
