<svg width="180" height="66" viewBox="0 0 180 66" fill="none" xmlns="http://www.w3.org/2000/svg">
<rect width="180" height="66" fill="#FAFAFA"/>
<path d="M95.9462 21.027C96.2018 20.5565 96.5847 20.1675 97.051 19.9045C97.5444 19.6317 98.1006 19.493 98.664 19.5023C99.3415 19.4844 100.006 19.6893 100.555 20.0856C101.081 20.4768 101.453 21.0397 101.607 21.6766H99.9456C99.8351 21.4309 99.6535 21.2238 99.4241 21.0822C99.1897 20.9453 98.9223 20.875 98.6507 20.8789C98.438 20.8716 98.2263 20.9114 98.0307 20.9954C97.8352 21.0795 97.6606 21.2057 97.5194 21.365C97.2138 21.727 97.0558 22.191 97.0775 22.6643C97.055 23.1377 97.2129 23.6021 97.5194 23.9636C97.6604 24.1233 97.8347 24.2497 98.0305 24.3338C98.2261 24.4179 98.438 24.4574 98.6507 24.4497C98.9223 24.4536 99.1897 24.3833 99.4241 24.2464C99.6557 24.1072 99.8391 23.9006 99.95 23.6542H101.612C101.459 24.2903 101.086 24.8521 100.56 25.2407C100.01 25.6355 99.3452 25.8389 98.6684 25.8196C98.1047 25.83 97.5484 25.6912 97.0554 25.4175C96.5894 25.1561 96.2065 24.7686 95.9506 24.2994C95.6797 23.7977 95.5427 23.2345 95.5528 22.6643C95.542 22.0939 95.6775 21.5302 95.9462 21.027Z" fill="#282B24"/>
<path d="M102.526 21.9661C102.698 21.6034 102.97 21.297 103.309 21.0822C103.64 20.8758 104.023 20.7685 104.413 20.7729C104.732 20.7687 105.047 20.8447 105.328 20.9938C105.576 21.1225 105.785 21.3146 105.934 21.5507V20.8458H107.445V25.7777H105.934V25.0794C105.78 25.3143 105.568 25.506 105.319 25.6363C105.038 25.7853 104.723 25.8613 104.404 25.8572C104.013 25.8636 103.629 25.7544 103.3 25.5435C102.961 25.3282 102.69 25.0219 102.517 24.6596C102.318 24.2418 102.22 23.7832 102.23 23.3206C102.22 22.8519 102.321 22.3876 102.526 21.9661ZM105.62 22.408C105.521 22.3053 105.402 22.2237 105.27 22.168C105.139 22.1122 104.998 22.0835 104.855 22.0835C104.713 22.0835 104.571 22.1122 104.44 22.168C104.309 22.2237 104.19 22.3053 104.091 22.408C103.983 22.5274 103.9 22.6669 103.846 22.8186C103.792 22.9703 103.769 23.1311 103.777 23.2918C103.759 23.6206 103.872 23.9431 104.091 24.189C104.189 24.293 104.307 24.3759 104.439 24.4325C104.57 24.4892 104.712 24.5184 104.855 24.5184C104.998 24.5184 105.14 24.4892 105.272 24.4325C105.403 24.3759 105.521 24.293 105.62 24.189C105.836 23.9469 105.949 23.6295 105.934 23.3051C105.949 22.9801 105.836 22.6621 105.62 22.419V22.408Z" fill="#282B24"/>
<path d="M110.715 21.027C110.984 20.8707 111.289 20.7898 111.599 20.7928V22.3926H111.184C110.881 22.37 110.58 22.4562 110.335 22.6356C110.145 22.7992 110.052 23.0776 110.052 23.4886V25.7777H108.541V20.8458H110.052V21.6678C110.221 21.4059 110.448 21.1865 110.715 21.027Z" fill="#282B24"/>
<path d="M114.445 20.9871C114.725 20.8387 115.038 20.7627 115.355 20.7661C115.746 20.7621 116.129 20.8694 116.46 21.0755C116.798 21.2914 117.069 21.5976 117.242 21.9593C117.439 22.3732 117.537 22.827 117.53 23.2851C117.538 23.7476 117.44 24.206 117.242 24.6241C117.068 24.9855 116.798 25.2915 116.46 25.508C116.13 25.7174 115.746 25.8264 115.355 25.8218C115.039 25.8298 114.726 25.7584 114.445 25.6141C114.196 25.4873 113.986 25.2966 113.835 25.0617V25.7511H112.324V19.2371H113.835V21.5439C113.984 21.3065 114.195 21.114 114.445 20.9871ZM115.678 22.4079C115.578 22.3036 115.458 22.221 115.325 22.1655C115.192 22.11 115.049 22.0826 114.905 22.0853C114.761 22.0827 114.619 22.1105 114.487 22.1668C114.355 22.2232 114.237 22.3069 114.14 22.4123C113.923 22.6542 113.811 22.9718 113.826 23.2962C113.81 23.6207 113.923 23.9385 114.14 24.18C114.237 24.2855 114.355 24.3691 114.487 24.4255C114.619 24.4818 114.761 24.5096 114.905 24.507C115.049 24.5089 115.192 24.4803 115.324 24.4232C115.457 24.3661 115.576 24.2817 115.674 24.1756C115.783 24.0544 115.868 23.9128 115.922 23.7588C115.977 23.6048 116 23.4416 115.992 23.2785C116.004 22.9585 115.892 22.6462 115.678 22.4079Z" fill="#282B24"/>
<path d="M119.277 25.539C118.896 25.3374 118.58 25.0307 118.367 24.6552C118.139 24.2448 118.024 23.7811 118.035 23.3117C118.021 22.8421 118.133 22.3772 118.36 21.9661C118.576 21.5902 118.894 21.2836 119.277 21.0822C119.683 20.8788 120.131 20.7729 120.585 20.7729C121.039 20.7729 121.487 20.8788 121.893 21.0822C122.277 21.284 122.596 21.5905 122.813 21.9661C123.042 22.3746 123.158 22.8368 123.149 23.3051C123.16 23.7758 123.044 24.2408 122.813 24.6508C122.593 25.0274 122.272 25.3339 121.885 25.5346C121.479 25.7444 121.028 25.8507 120.572 25.844C120.122 25.8519 119.677 25.7471 119.277 25.539ZM121.319 24.2133C121.536 23.9617 121.646 23.6346 121.624 23.3029C121.638 22.9765 121.528 22.6567 121.317 22.408C121.223 22.3083 121.11 22.2289 120.984 22.1747C120.858 22.1204 120.722 22.0924 120.585 22.0924C120.448 22.0924 120.313 22.1204 120.187 22.1747C120.061 22.2289 119.948 22.3083 119.854 22.408C119.643 22.6645 119.539 22.9918 119.562 23.3228C119.54 23.6516 119.643 23.9767 119.85 24.2331C119.939 24.3359 120.05 24.4176 120.174 24.4726C120.299 24.5276 120.434 24.5545 120.57 24.5513C120.709 24.5516 120.847 24.5224 120.974 24.4656C121.101 24.4089 121.215 24.3259 121.308 24.2221L121.319 24.2133Z" fill="#282B24"/>
<path d="M128.338 21.3537C128.702 21.7836 128.888 22.3376 128.855 22.9005V25.773H127.352V23.0993C127.369 22.8195 127.277 22.5441 127.096 22.3304C126.909 22.1546 126.663 22.0568 126.406 22.0568C126.15 22.0568 125.903 22.1546 125.717 22.3304C125.536 22.5443 125.446 22.82 125.465 23.0993V25.7774H123.954V20.8455H125.465V21.5084C125.623 21.2856 125.836 21.1074 126.084 20.9913C126.36 20.8604 126.662 20.7954 126.968 20.8013C127.222 20.7909 127.476 20.8347 127.712 20.93C127.948 21.0252 128.161 21.1697 128.338 21.3537Z" fill="#282B24"/>
<path d="M101.355 35.6988H99.8439L97.3161 31.8717V35.6988H95.8047V29.4941H97.3161L99.8439 33.3411V29.4941H101.355V35.6988Z" fill="#282B24"/>
<path d="M107.074 33.5975H103.654C103.659 33.8604 103.765 34.1112 103.95 34.298C104.035 34.3791 104.136 34.4424 104.246 34.4841C104.356 34.5259 104.473 34.5452 104.591 34.541C104.755 34.5528 104.919 34.5132 105.06 34.4276C105.201 34.3421 105.312 34.215 105.377 34.0637H106.986C106.907 34.3877 106.756 34.6898 106.544 34.9476C106.324 35.2103 106.048 35.4197 105.735 35.5597C105.356 35.7195 104.947 35.7942 104.536 35.7786C104.125 35.7629 103.723 35.6573 103.358 35.4691C102.983 35.2669 102.676 34.9597 102.474 34.5852C102.251 34.1705 102.14 33.7054 102.151 33.2351C102.14 32.7679 102.248 32.3056 102.465 31.8917C102.667 31.5173 102.974 31.2101 103.349 31.0078C103.748 30.8079 104.188 30.7039 104.635 30.7039C105.081 30.7039 105.522 30.8079 105.921 31.0078C106.287 31.2042 106.589 31.5018 106.791 31.8652C107.006 32.2647 107.114 32.713 107.105 33.1666C107.103 33.3107 107.092 33.4546 107.074 33.5975ZM105.554 32.7556C105.559 32.6393 105.537 32.5233 105.491 32.4162C105.446 32.3092 105.376 32.2137 105.289 32.1369C105.103 31.9842 104.867 31.9056 104.626 31.916C104.393 31.9094 104.165 31.9879 103.985 32.1369C103.804 32.2993 103.689 32.5227 103.663 32.7645L105.554 32.7556Z" fill="#282B24"/>
<path d="M112.766 30.7671V35.699H111.255V35.0361C111.094 35.2606 110.88 35.4414 110.631 35.562C110.362 35.6981 110.063 35.767 109.761 35.7631C109.411 35.7707 109.066 35.6829 108.762 35.509C108.473 35.3375 108.242 35.0836 108.099 34.7798C107.933 34.4295 107.851 34.045 107.861 33.6573V30.7848H109.363V33.4562C109.345 33.7368 109.437 34.0135 109.619 34.2274C109.709 34.3191 109.816 34.3907 109.935 34.4376C110.054 34.4844 110.181 34.5054 110.309 34.4992C110.438 34.5056 110.567 34.4847 110.687 34.4378C110.807 34.391 110.917 34.3193 111.007 34.2274C111.186 34.0117 111.274 33.7355 111.255 33.4562V30.7671H112.766Z" fill="#282B24"/>
<path d="M116.601 34.4195V35.6989H115.832C115.37 35.728 114.914 35.5847 114.551 35.2967C114.244 35.0301 114.091 34.5933 114.091 33.9864V32.0242H113.49V30.767H114.091V29.5671H115.603V30.767H116.593V32.0242H115.603V34.0129C115.597 34.0701 115.604 34.1278 115.622 34.1822C115.64 34.2367 115.67 34.2866 115.709 34.3289C115.81 34.405 115.936 34.4404 116.062 34.4283L116.601 34.4195Z" fill="#282B24"/>
<path d="M119.616 30.948C119.884 30.7923 120.189 30.7121 120.5 30.716V32.3135H120.084C119.781 32.2904 119.48 32.3775 119.236 32.5588C119.046 32.7201 118.953 33.0007 118.953 33.4095V35.6987H117.441V30.7668H118.953V31.591C119.121 31.3278 119.348 31.1076 119.616 30.948Z" fill="#282B24"/>
<path d="M121.211 31.8895C121.383 31.5273 121.655 31.221 121.993 31.0056C122.325 30.7999 122.708 30.6934 123.098 30.6985C123.417 30.6933 123.731 30.7694 124.013 30.9195C124.26 31.0446 124.469 31.2339 124.618 31.4674V30.767H126.127V35.6989H124.616V35.0029C124.461 35.2379 124.25 35.4302 124.002 35.5619C123.72 35.71 123.405 35.7859 123.087 35.7829C122.696 35.7878 122.312 35.6788 121.982 35.4691C121.644 35.2528 121.374 34.9467 121.2 34.5852C121.01 34.1646 120.913 33.7086 120.913 33.2473C120.913 32.786 121.01 32.33 121.2 31.9094L121.211 31.8895ZM124.304 32.3314C124.205 32.2291 124.086 32.1477 123.955 32.0921C123.824 32.0365 123.682 32.0079 123.54 32.0079C123.397 32.0079 123.256 32.0365 123.125 32.0921C122.993 32.1477 122.875 32.2291 122.775 32.3314C122.667 32.4506 122.584 32.59 122.53 32.7418C122.476 32.8935 122.452 33.0545 122.462 33.2153C122.443 33.5462 122.555 33.8711 122.775 34.119C122.873 34.2234 122.992 34.3065 123.123 34.3633C123.255 34.4202 123.397 34.4495 123.54 34.4495C123.683 34.4495 123.825 34.4202 123.956 34.3633C124.088 34.3065 124.206 34.2234 124.304 34.119C124.507 33.8658 124.618 33.5509 124.618 33.2263C124.618 32.9018 124.507 32.5869 124.304 32.3336V32.3314Z" fill="#282B24"/>
<path d="M128.737 29.1606V35.6989H127.232V29.1606H128.737Z" fill="#282B24"/>
<path d="M95.9461 40.8717C96.2004 40.4004 96.5836 40.011 97.0509 39.7492C97.5439 39.4754 98.1002 39.3366 98.6639 39.347C99.3414 39.3291 100.006 39.534 100.555 39.9304C101.081 40.3215 101.453 40.8843 101.607 41.5213H99.9455C99.8346 41.2749 99.6512 41.0683 99.4196 40.9291C99.1856 40.7912 98.9178 40.7208 98.6462 40.7258C98.4335 40.7181 98.2216 40.7577 98.026 40.8416C97.8302 40.9258 97.6559 41.0522 97.5149 41.212C97.2338 41.5867 97.0818 42.0428 97.0818 42.5112C97.0818 42.9797 97.2338 43.4357 97.5149 43.8105C97.6561 43.9698 97.8307 44.096 98.0262 44.1802C98.2218 44.2641 98.4335 44.3039 98.6462 44.2966C98.9178 44.3006 99.1852 44.2301 99.4196 44.0933C99.6503 43.953 99.8335 43.7466 99.9455 43.5011H101.607C101.454 44.1371 101.081 44.6988 100.555 45.0876C100.005 45.4807 99.3405 45.684 98.6639 45.6666C98.1005 45.6759 97.5443 45.5371 97.0509 45.2644C96.5853 45.0024 96.2026 44.615 95.9461 44.1463C95.6847 43.6401 95.5483 43.0787 95.5483 42.509C95.5483 41.9394 95.6847 41.3779 95.9461 40.8717Z" fill="#282B24"/>
<path d="M104.051 39.0818V45.6223H102.54V39.0818H104.051Z" fill="#282B24"/>
<path d="M110.017 40.6904V45.6223H108.506V44.9594C108.344 45.1828 108.13 45.3634 107.882 45.4853C107.612 45.6197 107.314 45.6877 107.012 45.6842C106.662 45.6915 106.317 45.6044 106.013 45.4323C105.725 45.2602 105.494 45.0065 105.35 44.7031C105.184 44.3527 105.102 43.9682 105.112 43.5806V40.7081H106.614V43.3862C106.596 43.6661 106.688 43.9419 106.87 44.1551C106.959 44.2471 107.067 44.3191 107.185 44.3664C107.304 44.4137 107.432 44.4349 107.56 44.4291C107.689 44.4351 107.818 44.4139 107.938 44.3666C108.059 44.3193 108.167 44.2473 108.258 44.1551C108.439 43.9415 108.531 43.6659 108.514 43.3862V40.6904H110.017Z" fill="#282B24"/>
<path d="M113.226 40.8317C113.506 40.6832 113.819 40.6074 114.136 40.6108C114.526 40.6057 114.91 40.7131 115.241 40.9201C115.579 41.1355 115.85 41.4418 116.023 41.804C116.22 42.2176 116.318 42.6715 116.31 43.1297C116.319 43.5922 116.221 44.0505 116.023 44.4688C115.848 44.8294 115.577 45.135 115.241 45.3526C114.91 45.561 114.527 45.6699 114.136 45.6664C113.82 45.6732 113.507 45.6019 113.226 45.4587C112.977 45.3312 112.767 45.1407 112.616 44.9063V45.5957H111.102V39.0552H112.613V41.3885C112.763 41.1508 112.975 40.9583 113.226 40.8317ZM114.458 42.2591C114.359 42.1544 114.239 42.0715 114.106 42.0161C113.973 41.9604 113.829 41.9334 113.685 41.9365C113.542 41.9339 113.4 41.9617 113.268 42.0181C113.136 42.0744 113.018 42.1582 112.921 42.2636C112.718 42.5168 112.607 42.8317 112.607 43.1563C112.607 43.4808 112.718 43.7957 112.921 44.0489C113.019 44.1528 113.138 44.2354 113.27 44.292C113.402 44.3486 113.544 44.3777 113.687 44.3777C113.831 44.3777 113.973 44.3486 114.105 44.292C114.236 44.2354 114.355 44.1528 114.454 44.0489C114.675 43.8039 114.789 43.4813 114.772 43.1518C114.782 42.9896 114.759 42.8272 114.705 42.6739C114.651 42.5208 114.567 42.3796 114.458 42.2591Z" fill="#282B24"/>
<path d="M78.7058 33.8335C78.71 32.0473 78.3202 30.2821 77.5645 28.6636C76.8088 27.0451 75.7056 25.6131 74.3336 24.4695C72.9613 23.326 71.354 22.4989 69.6258 22.0473C67.8976 21.5956 66.0911 21.5305 64.3349 21.8565C62.5787 22.1824 60.9159 22.8916 59.4649 23.9334C58.014 24.9751 56.8105 26.324 55.9401 27.8838C55.0698 29.4437 54.554 31.1762 54.4295 32.958C54.305 34.7399 54.5747 36.5274 55.2197 38.193H77.8971C78.4329 36.8021 78.7071 35.3241 78.7058 33.8335Z" fill="#282B24" fill-opacity="0.5"/>
<path d="M84.4532 36.3173C83.3901 36.0191 82.398 35.5097 81.5362 34.8195C80.6742 34.1293 79.9605 33.2725 79.4373 32.3002C78.8517 31.2904 77.9966 30.0773 76.8808 30.3314C76.1052 30.506 75.6655 31.3258 75.0689 31.8649C73.8558 32.9697 73.6945 33.4824 71.7544 31.423C71.023 30.6408 70.5391 29.9779 69.6265 28.4024C69.0852 27.47 68.4289 26.3607 67.3749 26.4469C65.4614 26.6038 65.247 29.9293 63.3843 30.411C62.3215 30.685 62.2397 29.8077 61.7978 28.7736C61.3559 27.7395 61.2653 27.5274 60.5472 25.7818C60.1516 24.8272 59.7672 23.3733 59.0866 22.6088C58.406 21.8442 57.2791 21.431 56.3533 21.8398C55.8638 22.0961 55.4403 22.4621 55.1159 22.9093C51.3219 27.5252 50.1862 32.5212 51.5627 38.1932H83.6975C83.9936 37.2719 84.0983 36.8948 84.2145 36.2465L84.4532 36.3173Z" fill="#282B24"/>
<path d="M81.6034 32.3916C81.4112 26.3284 77.2947 21.6093 73.4979 20.0366C70.201 18.6711 65.1918 17.7541 60.0655 20.8255L57.6172 19.3141C63.0882 15.4185 69.0106 15.1342 74.5342 17.5376C80.2777 20.0366 85.0284 26.2046 84.5467 34.0488L81.6034 32.3916Z" fill="#282B24" fill-opacity="0.5"/>
<path d="M82.529 41.009H52.8218C52.8218 41.009 53.4209 42.0007 53.8453 42.609C54.264 43.2092 54.9774 44.1025 54.9774 44.1025H80.3881C80.3881 44.1025 81.087 43.222 81.4976 42.6309C81.9258 42.0144 82.529 41.009 82.529 41.009Z" fill="#282B24"/>
<path d="M77.6852 46.5522H57.5884C57.5884 46.5522 61.3453 49.9184 67.724 49.9043C74.038 49.8903 77.6852 46.5522 77.6852 46.5522Z" fill="#282B24"/>
</svg>
