<svg width="180" height="66" viewBox="0 0 180 66" fill="none" xmlns="http://www.w3.org/2000/svg">
<rect width="180" height="66" fill="#FAFAFA"/>
<g clip-path="url(#clip0_858_53276)">
<path d="M33.8164 38.9129V27.3027H39.257C41.3737 27.3027 42.8908 28.6322 42.8908 30.718C42.8908 32.8047 41.3573 34.218 39.257 34.218H35.9998V38.912H33.8164V38.9129ZM35.9669 32.2667H39.1073C40.0739 32.2667 40.691 31.678 40.691 30.7862C40.691 29.8612 40.0739 29.255 39.1073 29.255H35.9669V32.2667Z" fill="#282B24"/>
<path d="M42.875 34.7071C42.875 32.1165 44.7416 30.248 47.2253 30.248C49.6926 30.248 51.5766 32.1155 51.5766 34.7071C51.5766 37.2978 49.6926 39.1662 47.2253 39.1662C44.7426 39.1662 42.875 37.2978 42.875 34.7071ZM49.4435 34.7071C49.4435 33.1759 48.5097 32.1496 47.2263 32.1496C45.9265 32.1496 45.0091 33.1759 45.0091 34.7071C45.0091 36.2383 45.9255 37.2647 47.2263 37.2647C48.5097 37.2647 49.4435 36.2383 49.4435 34.7071Z" fill="#282B24"/>
<path d="M52.1641 36.1867H54.0809C54.3146 37.1116 55.1316 37.4986 56.0142 37.4986C56.8311 37.4986 57.4974 37.1448 57.4974 36.5229C57.4974 35.9001 56.864 35.7325 55.9968 35.5804L55.1132 35.4294C53.4465 35.1438 52.4122 34.4372 52.4122 32.9225C52.4122 31.2734 53.8463 30.2471 55.8297 30.2471C57.847 30.2471 59.1642 31.3075 59.4471 32.9898H57.5467C57.313 32.2159 56.6303 31.8621 55.8461 31.8621C54.9964 31.8621 54.4459 32.2325 54.4459 32.7539C54.4459 33.2919 54.8795 33.4605 55.7795 33.6116L56.6631 33.7627C58.2796 34.0317 59.5137 34.7052 59.5137 36.3368C59.5137 38.1204 58.0469 39.1633 55.9968 39.1633C53.7806 39.1653 52.364 38.0035 52.1641 36.1867Z" fill="#282B24"/>
<path d="M60.5469 28.3452C60.5469 27.6405 61.1128 27.0703 61.81 27.0703H61.8505C62.5487 27.0703 63.1136 27.6415 63.1136 28.3452C63.1136 29.0499 62.5477 29.62 61.8505 29.62H61.81C61.1128 29.62 60.5469 29.0489 60.5469 28.3452ZM60.7893 38.9134V30.5011H62.8732V38.9134H60.7893Z" fill="#282B24"/>
<path d="M66.7931 38.9094C65.9259 38.9094 65.3929 38.3373 65.3929 37.4123V32.0984H63.8594V30.5673C65.5097 30.5 65.7926 29.8099 65.81 27.9932H67.3773V30.5H69.3782V32.0984H67.443V36.7223C67.443 37.0761 67.5762 37.2437 67.976 37.2437H69.3762V38.9094H66.7931Z" fill="#282B24"/>
<path d="M70.3203 28.3452C70.3203 27.6405 70.8862 27.0703 71.5834 27.0703H71.624C72.3221 27.0703 72.887 27.6415 72.887 28.3452C72.887 29.0499 72.3212 29.62 71.624 29.62H71.5834C70.8852 29.62 70.3203 29.0489 70.3203 28.3452ZM70.5617 38.9134V30.5011H72.6456V38.9134H70.5617Z" fill="#282B24"/>
<path d="M73.9023 34.7071C73.9023 32.1165 75.769 30.248 78.2536 30.248C80.7209 30.248 82.604 32.1155 82.604 34.7071C82.604 37.2978 80.7199 39.1662 78.2536 39.1662C75.769 39.1662 73.9023 37.2978 73.9023 34.7071ZM80.4698 34.7071C80.4698 33.1759 79.536 32.1496 78.2527 32.1496C76.9519 32.1496 76.0355 33.1759 76.0355 34.7071C76.0355 36.2383 76.9519 37.2647 78.2527 37.2647C79.537 37.2647 80.4698 36.2383 80.4698 34.7071Z" fill="#282B24"/>
<path d="M91.2911 33.2763V38.9128H89.2072V33.9323C89.2072 32.9898 88.7736 32.1652 87.6399 32.1652C86.5564 32.1652 85.9394 32.9898 85.9394 33.9323V38.9128H83.8555V30.5005H85.9394V31.4927C86.4724 30.7861 87.3898 30.248 88.4395 30.248C90.1738 30.2471 91.2911 31.4079 91.2911 33.2763Z" fill="#282B24"/>
<path d="M94.8516 33.1249C94.8516 29.6083 97.4521 27.0508 100.769 27.0508C103.67 27.0508 105.936 28.9182 106.454 31.6951H104.17C103.72 30.1473 102.486 29.0537 100.787 29.0537C98.636 29.0537 97.1527 30.7867 97.1527 33.1083C97.1527 35.3968 98.6196 37.1463 100.787 37.1463C102.387 37.1463 103.571 36.2039 104.071 34.8072H100.787V32.9563H106.504V38.9124H104.704V37.1454C103.854 38.4076 102.521 39.1649 100.703 39.1649C97.4357 39.1658 94.8516 36.658 94.8516 33.1249Z" fill="#282B24"/>
<path d="M113.445 30.3489V32.6033C113.212 32.5692 113.062 32.5526 112.745 32.5526C111.412 32.5526 110.361 33.2758 110.361 35.0263V38.9133H108.277V30.5009H110.345V32.1159C110.962 30.921 112.078 30.3489 113.312 30.3489H113.445Z" fill="#282B24"/>
<path d="M115.76 35.1438C115.861 36.557 116.827 37.365 117.994 37.365C119.077 37.365 119.661 36.8767 119.944 36.0522H122.061C121.661 37.8358 120.061 39.1652 117.994 39.1652C115.427 39.1652 113.727 37.3982 113.727 34.6896C113.727 32.0307 115.527 30.248 118.01 30.248C120.611 30.248 122.111 32.1993 122.111 34.7744V35.1448H115.76V35.1438ZM115.794 33.7471H120.078C119.911 32.6194 119.027 31.9635 117.994 31.9635C116.894 31.9635 115.994 32.6194 115.794 33.7471Z" fill="#282B24"/>
<path d="M124.862 35.1438C124.962 36.557 125.929 37.365 127.095 37.365C128.179 37.365 128.762 36.8767 129.046 36.0522H131.163C130.763 37.8358 129.163 39.1652 127.095 39.1652C124.529 39.1652 122.828 37.3982 122.828 34.6896C122.828 32.0307 124.628 30.248 127.112 30.248C129.712 30.248 131.213 32.1993 131.213 34.7744V35.1448H124.862V35.1438ZM124.895 33.7471H129.178C129.011 32.6194 128.128 31.9635 127.094 31.9635C125.996 31.9635 125.095 32.6194 124.895 33.7471Z" fill="#282B24"/>
<path d="M139.85 33.2763V38.9128H137.766V33.9323C137.766 32.9898 137.332 32.1652 136.199 32.1652C135.115 32.1652 134.498 32.9898 134.498 33.9323V38.9128H132.414V30.5005H134.498V31.4927C135.031 30.7861 135.948 30.248 136.998 30.248C138.732 30.2471 139.85 31.4079 139.85 33.2763Z" fill="#282B24"/>
<path d="M143.771 31.9115C145.094 31.9115 146.167 30.8288 146.167 29.4933C146.167 28.1578 145.094 27.0752 143.771 27.0752C142.448 27.0752 141.375 28.1578 141.375 29.4933C141.375 30.8288 142.448 31.9115 143.771 31.9115Z" fill="#282B24"/>
</g>
<defs>
<clipPath id="clip0_858_53276">
<rect width="112.5" height="12.2808" fill="white" transform="translate(33.75 26.9678)"/>
</clipPath>
</defs>
</svg>
