<svg version="1.1" id="svg2" xmlns:dc="http://purl.org/dc/elements/1.1/" xmlns:cc="http://creativecommons.org/ns#" xmlns:rdf="http://www.w3.org/1999/02/22-rdf-syntax-ns#" xmlns:svg="http://www.w3.org/2000/svg" xmlns="http://www.w3.org/2000/svg" xmlns:xlink="http://www.w3.org/1999/xlink" x="0px" y="0px" viewBox="-144.4 350.7 170.1 170.1" style="enable-background:new -144.4 350.7 170.1 170.1;" xml:space="preserve">
 <style type="text/css">
  .st0{fill:#FFFFFF;}
 </style>
 <g id="g10" transform="matrix(1.3333333,0,0,-1.3333333,0,497.24)">
  <g id="g12" transform="scale(0.1)">
   <path id="path14" class="st0" d="M-335.9,461.1v-35.4c0-140.4-114.2-254.5-254.5-254.5h-35.4V26.4h35.4
			c220.2,0,399.2,179.1,399.2,399.3v35.4H-335.9z M-553.9,461.1v35.4c0,140.4,114.2,254.5,254.5,254.5h35.4v144.8h-35.4
			c-220.2,0-399.3-179.1-399.3-399.3v-35.4H-553.9z M192.9,461.1c0-352.3-285.6-637.8-637.8-637.8s-637.8,285.6-637.8,637.8
			c0,352.3,285.6,637.8,637.8,637.8S192.9,813.3,192.9,461.1">
   </path>
  </g>
 </g>
</svg>