<svg width="221" height="66" viewBox="0 0 221 66" fill="none" xmlns="http://www.w3.org/2000/svg">
<g clip-path="url(#clip0_3901_50140)">
<path fill-rule="evenodd" clip-rule="evenodd" d="M98.8514 32.61C98.8267 33.9606 99.3522 35.2632 100.308 36.2183C101.263 37.1735 102.565 37.6991 103.916 37.6745C106.713 37.6745 108.98 35.4071 108.98 32.61C109.036 31.2455 108.522 29.9194 107.561 28.9485C106.601 27.9776 105.281 27.4491 103.916 27.4892C101.111 27.5231 98.8542 29.8049 98.8514 32.61ZM100.765 32.61C100.765 30.8093 102.059 29.1211 103.972 29.1211C105.885 29.1211 107.18 30.5279 107.18 32.61C107.228 33.4952 106.912 34.3615 106.307 35.0093C105.701 35.657 104.859 36.0301 103.972 36.0426C102.059 36.0989 100.765 34.6358 100.765 32.61Z" fill="#282B24"/>
<path fill-rule="evenodd" clip-rule="evenodd" d="M87.7656 32.61C87.7129 33.9687 88.2295 35.2877 89.191 36.2492C90.1522 37.2106 91.4717 37.7273 92.8302 37.6745C94.3613 37.719 95.8154 37.0026 96.713 35.7612L96.7692 35.7049L95.3624 34.5232L95.3061 34.6358C94.8188 35.5747 93.8307 36.1456 92.7739 36.0989C90.8606 36.0989 89.5664 34.5795 89.5664 32.61C89.5191 31.7194 89.8325 30.8473 90.4363 30.1908C91.0396 29.5342 91.8825 29.1486 92.7739 29.1211C93.7992 29.1397 94.7485 29.667 95.3061 30.5279L95.3624 30.5842L96.7692 29.4587L96.713 29.4024C95.7468 28.2217 94.2994 27.5395 92.7739 27.5454C91.4346 27.5423 90.1505 28.0767 89.209 29.0288C88.2675 29.9809 87.7475 31.2711 87.7656 32.61Z" fill="#282B24"/>
<path fill-rule="evenodd" clip-rule="evenodd" d="M159.119 33.398V37.4496H160.92V33.398L164.465 27.7708H162.496L160.02 31.6535L157.656 27.7708H155.574L159.119 33.398Z" fill="#282B24"/>
<path fill-rule="evenodd" clip-rule="evenodd" d="M126.2 27.7708V37.4496H128.057V33.8482C128.169 33.8482 128.338 33.9044 128.507 33.9044C130.871 33.9044 132.502 32.8915 132.502 30.8657C132.502 28.9525 131.096 27.7708 128.451 27.7708H126.2ZM128.057 29.2338H128.507C130.026 29.2338 130.645 29.7966 130.645 30.8095C130.645 31.8224 129.97 32.3851 128.507 32.3851C128.355 32.4023 128.2 32.383 128.057 32.3288V29.2338Z" fill="#282B24"/>
<path fill-rule="evenodd" clip-rule="evenodd" d="M113.933 32.2159L116.971 37.7306L119.954 32.2159L121.136 37.4492H123.049L120.517 27.6016L117.028 34.1292L113.426 27.6016L111.007 37.5055H112.807L113.933 32.2159Z" fill="#282B24"/>
<path fill-rule="evenodd" clip-rule="evenodd" d="M64.2439 33.5102L57.8289 27.6016V37.5055H59.5733V31.7657L66.0446 37.7306V27.7704H64.2439V33.5102Z" fill="#282B24"/>
<path fill-rule="evenodd" clip-rule="evenodd" d="M51.7517 27.7708V37.4496H53.6087V27.7708H51.7517Z" fill="#282B24"/>
<path fill-rule="evenodd" clip-rule="evenodd" d="M49.3883 37.4494L44.6615 27.5454L39.9346 37.4494H41.7916L42.7482 35.3673H46.4622L47.3625 37.4494H49.3883ZM43.4235 33.8479L44.6615 31.0343L45.7869 33.8479H43.4235Z" fill="#282B24"/>
<path fill-rule="evenodd" clip-rule="evenodd" d="M36.6706 32.3288C37.4644 31.9686 37.9716 31.1747 37.9649 30.303C37.9649 28.6148 36.6143 27.7708 34.3072 27.7708H32V37.4496H34.7573C37.2333 37.4496 38.5839 36.4367 38.5839 34.636C38.5485 33.52 37.7608 32.5701 36.6706 32.3288ZM34.6448 33.3417C35.9391 33.3417 36.6706 33.6794 36.6706 34.6923C36.6706 35.5926 35.9953 35.9865 34.6448 35.9865H33.857V33.3417H34.6448ZM33.857 31.8786V29.2338H34.1946C35.5452 29.2338 36.2204 29.5715 36.2204 30.5844C36.2204 31.5973 35.5452 31.8786 34.2509 31.8786H33.857Z" fill="#282B24"/>
<path fill-rule="evenodd" clip-rule="evenodd" d="M79.8879 37.5056H82.0263C82.0263 37.5056 80.3944 35.6486 80.113 35.311C80.3381 35.0296 81.7449 32.8913 81.7449 32.8913H80.0005L79.1564 34.1856L77.6371 32.4411C78.9313 31.7658 79.7191 30.8092 79.7191 29.7963C79.7191 28.4458 78.5374 27.5454 77.0181 27.5454C75.3299 27.5454 74.2044 28.5583 74.2044 29.9089C74.2648 30.7833 74.6455 31.6047 75.2736 32.216C74.2607 32.7787 73.3604 33.6228 73.3604 35.0296C73.3604 36.549 74.5983 37.7307 76.3991 37.7307C77.4285 37.7484 78.4145 37.317 79.1001 36.549L79.8879 37.5056ZM75.8926 29.9651C75.8832 29.6638 75.9987 29.372 76.2118 29.1589C76.4249 28.9457 76.7168 28.8302 77.0181 28.8397C77.2981 28.8172 77.5744 28.9147 77.7783 29.1079C77.9822 29.3011 78.0945 29.5718 78.0872 29.8526C78.0872 30.5278 77.412 31.0343 76.7367 31.3719C76.2799 31.0335 75.9763 30.5274 75.8926 29.9651ZM78.0872 35.4798C77.7236 35.9485 77.161 36.2194 76.5679 36.2114C76.1894 36.2483 75.8131 36.1219 75.5336 35.864C75.2542 35.606 75.0982 35.2411 75.1048 34.8608C75.151 34.197 75.533 33.6028 76.1177 33.2852H76.174L78.0872 35.4798Z" fill="#282B24"/>
<path fill-rule="evenodd" clip-rule="evenodd" d="M151.579 33.5102L145.164 27.6016V37.4492H146.965V31.7657L153.38 37.7306V27.7704H151.579V33.5102Z" fill="#282B24"/>
<path fill-rule="evenodd" clip-rule="evenodd" d="M142.8 37.4494L138.074 27.5454L133.347 37.4494H135.204L136.16 35.3673H139.874L140.775 37.4494H142.8ZM136.836 33.8479L138.074 31.0343L139.199 33.8479H136.836Z" fill="#282B24"/>
<path fill-rule="evenodd" clip-rule="evenodd" d="M183.429 33.0601L181.853 26.0823L177.52 31.7096L183.429 33.0601ZM189 32.6099C189 37.3649 185.145 41.2196 180.39 41.2196C175.635 41.2196 171.781 37.3649 171.781 32.6099C171.781 27.8549 175.635 24.0002 180.39 24.0002C180.842 24.0098 181.293 24.0474 181.741 24.1128L181.009 25.0694H180.39C178.487 25.0454 176.652 25.7793 175.29 27.1093C173.928 28.4394 173.152 30.2564 173.131 32.1597C173.131 36.1689 176.381 39.4189 180.39 39.4189C184.4 39.4189 187.649 36.1689 187.649 32.1597C187.629 29.2193 185.792 26.5981 183.035 25.5759L182.754 24.3942C186.445 25.4183 189 28.779 189 32.6099Z" fill="#282B24"/>
</g>
<defs>
<clipPath id="clip0_3901_50140">
<rect width="157" height="17.4444" fill="white" transform="translate(32 24)"/>
</clipPath>
</defs>
</svg>
