<svg width="190" height="66" viewBox="0 0 190 66" fill="none" xmlns="http://www.w3.org/2000/svg">
<path d="M44.2166 22.0133C43.9273 22.0133 43.6379 22.0133 43.3424 22.0133C43.0469 22.0133 42.7576 21.9834 42.4621 22.0133C40.3345 22.1841 38.299 22.9316 36.5873 24.1707C34.8757 25.4098 33.5567 27.0907 32.7804 29.022C32.0041 30.9533 31.8019 33.0575 32.1966 35.095C32.5913 37.1325 33.5671 39.0215 35.013 40.5468C36.9427 42.6057 39.6048 43.877 42.4621 44.1041C42.7514 44.1041 43.0469 44.1041 43.3363 44.1041C43.6256 44.1041 43.9211 44.1041 44.2105 44.1041C47.0647 43.8804 49.7276 42.6213 51.6693 40.5773C53.6109 38.5334 54.689 35.8545 54.689 33.0736C54.689 30.2928 53.6109 27.6139 51.6693 25.5699C49.7276 23.526 47.0647 22.2669 44.2105 22.0432L44.2166 22.0133ZM43.3424 33.0437L42.4621 32.5535V42.3643C40.0736 42.1443 37.8553 41.0672 36.2409 39.3436C34.6265 37.62 33.7319 35.3737 33.7319 33.0437C33.7319 30.7137 34.6265 28.4675 36.2409 26.7439C37.8553 25.0203 40.0736 23.9432 42.4621 23.7232V30.6404C42.7421 30.5407 43.0381 30.49 43.3363 30.4909C43.7965 30.4919 44.2484 30.6093 44.6476 30.8317C45.0423 31.0585 45.3708 31.3795 45.6018 31.7643C45.8319 32.1526 45.953 32.5928 45.953 33.0408C45.953 33.4888 45.8319 33.9289 45.6018 34.3172L47.1163 35.1721C47.4642 34.5891 47.6645 33.9341 47.7005 33.2612C47.7366 32.5883 47.6074 31.9166 47.3235 31.3017C47.0397 30.6868 46.6094 30.1463 46.0682 29.7246C45.5269 29.303 44.8902 29.0123 44.2105 28.8767V27.1489C45.6693 27.3561 47.0013 28.0697 47.9597 29.1577C48.9135 30.2406 49.4376 31.6187 49.4376 33.0437C49.4376 34.4688 48.9135 35.8469 47.9597 36.9298C47.0008 38.012 45.6715 38.7212 44.2166 38.9267V33.5459L43.3424 33.0437ZM44.2166 42.3643V40.6485C46.1437 40.4383 47.9235 39.5461 49.216 38.1421C50.5084 36.7381 51.2229 34.921 51.2229 33.0378C51.2229 31.1546 50.5084 29.3374 49.216 27.9334C47.9235 26.5295 46.1437 25.6372 44.2166 25.427V23.7232C46.6052 23.9432 48.8234 25.0203 50.4378 26.7439C52.0522 28.4675 52.9469 30.7137 52.9469 33.0437C52.9469 35.3737 52.0522 37.62 50.4378 39.3436C48.8234 41.0672 46.6052 42.1443 44.2166 42.3643Z" fill="#282B24"/>
<path d="M60.8018 38.9683V27.1009H66.4717C66.9486 27.0816 67.4246 27.1561 67.871 27.32C68.3175 27.4839 68.7252 27.7338 69.0696 28.0546C69.4141 28.3755 69.6882 28.7606 69.8754 29.187C70.0627 29.6133 70.1592 30.0721 70.1592 30.5356C70.1592 30.9991 70.0627 31.4578 69.8754 31.8842C69.6882 32.3105 69.4141 32.6957 69.0696 33.0165C68.7252 33.3374 68.3175 33.5873 67.871 33.7512C67.4246 33.9151 66.9486 33.9896 66.4717 33.9703H62.8949V38.9683H60.8018ZM66.2685 32.099C66.4922 32.1247 66.7189 32.1017 66.9323 32.0316C67.1456 31.9615 67.3401 31.8461 67.5017 31.6937C67.6633 31.5414 67.7879 31.356 67.8664 31.151C67.9448 30.9459 67.9753 30.7265 67.9554 30.5087C67.9708 30.2936 67.9369 30.078 67.8562 29.8772C67.7755 29.6764 67.65 29.4954 67.4887 29.3474C67.3274 29.1993 67.1343 29.0878 66.9234 29.0208C66.7124 28.9539 66.4888 28.9332 66.2685 28.9602H62.8949V32.099H66.2685Z" fill="#282B24"/>
<path d="M71.6494 27.1008H79.8804V28.9661H73.7241V32.0989H78.8954V33.9403H73.7364V37.0791H79.8927V38.9444H71.6494V27.1008Z" fill="#282B24"/>
<path d="M81.9551 38.9683V27.1009H87.5881C88.522 27.016 89.4524 27.295 90.1746 27.8763C90.8967 28.4577 91.3515 29.2938 91.4389 30.2008C91.5262 31.1077 91.239 32.0113 90.6404 32.7126C90.0417 33.4139 89.1808 33.8555 88.2468 33.9404L91.5035 38.9922H89.1025L85.8705 33.9942H84.0236V38.9922L81.9551 38.9683ZM87.4034 32.099C87.6273 32.1245 87.8543 32.1015 88.0678 32.0314C88.2814 31.9613 88.4763 31.846 88.6383 31.6938C88.8004 31.5416 88.9255 31.3563 89.0047 31.1513C89.084 30.9463 89.1153 30.7268 89.0964 30.5087C89.1108 30.2933 89.0761 30.0776 88.9946 29.8768C88.9132 29.676 88.7871 29.4952 88.6254 29.3473C88.4636 29.1993 88.2702 29.0879 88.059 29.021C87.8477 28.9541 87.6239 28.9333 87.4034 28.9602H84.0421V32.099H87.4034Z" fill="#282B24"/>
<path d="M97.654 37.39C99.0945 37.39 100.116 36.7085 100.116 35.5965C100.116 34.4845 99.3346 34.1676 97.2292 33.7431C94.6682 33.2349 93.0552 32.1827 93.0552 30.156C93.0552 28.6793 94.582 26.814 97.5432 26.814C98.431 26.7975 99.3095 26.9927 100.101 27.3825C100.894 27.7723 101.575 28.3449 102.086 29.0499L100.332 30.0962C100.036 29.6418 99.6205 29.2732 99.1275 29.0291C98.6346 28.7851 98.083 28.6745 97.5308 28.7092C95.7578 28.7092 95.1299 29.6239 95.1299 30.1799C95.1299 31.0109 95.6655 31.543 97.6355 31.9316C100.055 32.4219 102.179 33.1871 102.197 35.5785C102.216 37.97 99.8271 39.2554 97.654 39.2554C96.629 39.2906 95.6113 39.0767 94.6931 38.6329C93.775 38.1892 92.9855 37.5297 92.3965 36.7145L94.1757 35.6921C94.5438 36.2536 95.0614 36.7078 95.6738 37.0067C96.2862 37.3056 96.9704 37.4381 97.654 37.39Z" fill="#282B24"/>
<path d="M104.161 27.1008H112.398V28.9661H106.241V32.0989H111.413V33.9403H106.241V37.0791H112.398V38.9444H104.161V27.1008Z" fill="#282B24"/>
<path d="M114.571 38.9683V27.1008H122.716V28.9661H116.658V32.0989H121.743V33.9403H116.658V38.9444L114.571 38.9683Z" fill="#282B24"/>
<path d="M123.726 33.0377C123.726 31.4283 124.384 29.8848 125.556 28.7468C126.728 27.6088 128.317 26.9695 129.974 26.9695C131.631 26.9695 133.221 27.6088 134.393 28.7468C135.565 29.8848 136.223 31.4283 136.223 33.0377C136.223 34.6471 135.565 36.1906 134.393 37.3286C133.221 38.4666 131.631 39.106 129.974 39.106C128.317 39.106 126.728 38.4666 125.556 37.3286C124.384 36.1906 123.726 34.6471 123.726 33.0377ZM129.974 37.3602C132.48 37.3602 134.136 35.6145 134.136 33.0377C134.136 30.461 132.48 28.7092 129.974 28.7092C127.469 28.7092 125.813 30.461 125.813 33.0377C125.813 35.6145 127.487 37.3602 129.993 37.3602H129.974Z" fill="#282B24"/>
<path d="M137.823 38.9683V27.1008H140.243L145.826 35.7638V27.1008H147.92V38.9683H145.5L139.916 30.3053V38.9683H137.823Z" fill="#282B24"/>
<path d="M150.443 37.103H152.967V28.9661H150.443V27.1008H157.585V28.9661H155.061V37.103H157.585V38.9683H150.443V37.103Z" fill="#282B24"/>
</svg>
