<svg width="133" height="66" viewBox="0 0 133 66" fill="none" xmlns="http://www.w3.org/2000/svg">
<path d="M74.7315 42.0994L66.8053 34.1732L69.0824 31.8962L77.0086 39.8223L74.7315 42.0994ZM89.5701 29.684H92.7905V41.7604H89.5701V29.684ZM32.2842 22.9954H35.5046V41.7604H32.2842V22.9954ZM38.9727 38.54H50.4299V41.7604H38.9727V38.54ZM38.9727 30.7368H50.4299V33.9572H38.9727V30.7368ZM38.9727 22.9954H50.4299V26.2158H38.9727V22.9954ZM82.0765 22.9954H100.284V26.2158H82.0765V22.9954ZM60.7723 32.4089C60.7723 28.755 63.745 25.7204 67.4608 25.7204C71.1767 25.7204 74.0874 28.755 74.0874 32.4089C74.0874 32.4089 74.0874 32.4089 74.0874 32.4709H77.3078C77.3078 32.4709 77.3078 32.4709 77.3078 32.4089C77.3078 26.959 72.8488 22.5 67.3989 22.5C61.949 22.5 57.49 26.959 57.49 32.4089C57.49 37.8588 61.8871 42.3178 67.337 42.3178V39.0974C63.683 39.0355 60.7723 36.0628 60.7723 32.4089Z" fill="#282B24"/>
</svg>
