<?xml version="1.0" standalone="no"?>
<!DOCTYPE svg PUBLIC "-//W3C//DTD SVG 20010904//EN"
 "http://www.w3.org/TR/2001/REC-SVG-20010904/DTD/svg10.dtd">
<svg version="1.0" xmlns="http://www.w3.org/2000/svg"
 width="700.000000pt" height="700.000000pt" viewBox="0 0 700.000000 700.000000"
 preserveAspectRatio="xMidYMid meet">
<metadata>
Created by potrace 1.14, written by Peter Selinger 2001-2017
</metadata>
<g transform="translate(0.000000,700.000000) scale(0.100000,-0.100000)"
fill="#000000" stroke="none">
<path d="M3278 6996 c-1 -2 -42 -6 -89 -10 -47 -4 -95 -8 -105 -10 -10 -2 -48
-7 -84 -12 -36 -4 -67 -8 -70 -9 -3 -1 -25 -5 -50 -9 -25 -4 -101 -21 -170
-38 -69 -16 -134 -31 -146 -34 -37 -7 -233 -74 -348 -118 -131 -51 -317 -140
-436 -209 -47 -27 -100 -58 -119 -69 -88 -50 -290 -196 -411 -297 -93 -78
-272 -252 -365 -355 -223 -249 -446 -592 -570 -876 -25 -58 -50 -114 -55 -125
-45 -93 -150 -427 -176 -560 -2 -11 -10 -54 -19 -95 -29 -147 -35 -193 -52
-370 -15 -163 -8 -592 12 -711 2 -13 6 -46 9 -74 9 -78 23 -156 51 -285 54
-251 162 -550 288 -800 61 -122 169 -312 187 -330 3 -3 31 -43 62 -90 259
-389 673 -772 1113 -1032 373 -221 845 -385 1274 -444 25 -3 57 -8 71 -10 163
-25 682 -25 842 1 13 2 46 7 73 10 74 11 87 13 120 19 17 4 46 9 65 12 95 16
309 73 450 121 557 188 1090 542 1480 982 36 41 70 79 76 85 65 68 263 353
352 508 46 79 172 331 172 342 0 3 11 29 24 58 57 127 151 421 182 573 17 81
54 301 59 350 4 33 9 71 11 85 9 46 11 524 4 605 -15 153 -21 210 -25 225 -2
8 -7 35 -10 60 -17 129 -80 384 -136 552 -348 1037 -1165 1854 -2204 2206
-169 57 -416 118 -555 137 -19 3 -46 7 -60 10 -13 2 -54 7 -90 11 -36 3 -76 8
-90 11 -27 5 -536 14 -542 9z m421 -510 c4 -3 27 -7 51 -11 155 -22 356 -95
507 -185 251 -148 451 -360 584 -620 76 -150 216 -338 348 -470 156 -156 292
-257 481 -358 216 -116 386 -258 525 -439 30 -40 55 -74 55 -76 0 -2 22 -41
50 -86 75 -125 150 -332 174 -481 28 -167 26 -390 -4 -535 -28 -140 -27 -137
-56 -217 -132 -367 -398 -672 -735 -843 -65 -33 -261 -160 -308 -200 -98 -82
-136 -117 -209 -193 -119 -124 -211 -250 -314 -430 -112 -195 -161 -264 -263
-371 -162 -169 -333 -285 -544 -366 -82 -32 -204 -66 -281 -80 -95 -16 -126
-18 -270 -18 -400 0 -754 147 -1041 433 -126 125 -195 217 -284 380 -210 380
-470 640 -845 845 -161 88 -255 158 -380 284 -247 248 -387 540 -429 896 -8
73 -6 299 4 350 3 17 8 46 11 65 3 19 10 53 15 75 5 22 12 49 14 60 6 28 50
153 69 197 9 21 15 39 14 40 -2 2 7 17 19 34 13 17 27 42 32 55 17 43 127 200
192 273 120 135 258 242 439 341 249 138 458 306 605 490 22 28 43 52 46 55
25 21 158 228 199 310 23 46 122 202 143 226 7 7 44 49 82 92 127 142 287 261
470 347 81 38 189 78 241 90 10 2 51 11 89 20 39 9 102 18 140 22 39 3 72 7
73 8 5 5 283 -5 291 -9z"/>
</g>
</svg>
